<?xml version="1.0" encoding="UTF-8" ?>
<!DOCTYPE svg PUBLIC "-//W3C//DTD SVG 1.1//EN" "http://www.w3.org/Graphics/SVG/1.1/DTD/svg11.dtd">
<svg width="400pt" height="300pt" viewBox="0 0 400 300" version="1.1" xmlns="http://www.w3.org/2000/svg">
<g id="#ffffffff">
<path fill="#ffffff" opacity="1.00" d=" M 0.00 0.00 L 400.00 0.00 L 400.00 246.82 C 396.04 243.99 391.77 241.52 387.09 240.14 C 377.03 237.08 366.42 237.26 356.05 236.16 C 348.06 235.26 340.01 235.68 331.99 235.15 C 324.45 234.73 316.90 235.14 309.35 234.80 C 312.82 230.81 316.71 227.21 320.30 223.33 C 333.56 207.83 351.57 197.71 367.99 186.03 C 375.05 180.73 381.94 175.22 389.21 170.21 C 392.54 167.96 395.76 165.39 397.78 161.84 C 394.68 162.20 391.61 162.78 388.67 163.81 C 380.93 166.41 373.17 168.97 365.42 171.54 C 357.50 174.14 350.01 177.86 342.47 181.36 C 326.07 189.12 309.31 196.08 292.82 203.64 C 296.75 198.64 301.03 193.93 304.78 188.79 C 309.58 182.26 316.41 177.67 321.81 171.70 C 307.95 171.42 294.64 175.73 281.27 178.77 C 283.53 166.83 288.68 155.74 293.62 144.73 C 298.11 134.31 304.41 124.84 310.09 115.06 C 318.85 101.32 328.45 88.14 337.92 74.88 C 342.05 69.08 346.78 63.76 351.23 58.21 C 352.82 56.38 353.26 53.94 353.78 51.64 C 345.62 54.48 337.57 57.78 330.08 62.11 C 314.32 71.12 298.06 79.31 283.20 89.79 C 284.35 78.73 285.46 67.65 286.64 56.59 C 283.17 56.11 279.69 55.67 276.20 55.35 C 276.92 58.20 277.72 61.03 278.53 63.85 C 280.02 63.90 281.52 63.94 283.02 63.98 C 283.23 63.47 283.63 62.45 283.84 61.95 C 283.09 71.68 281.88 81.36 280.97 91.07 C 274.94 94.41 268.92 97.75 262.93 101.15 C 264.52 95.02 267.62 89.39 271.38 84.34 C 273.80 81.48 276.37 78.72 278.14 75.39 C 267.37 76.04 257.84 81.96 249.91 88.87 C 239.82 96.56 230.44 105.37 219.06 111.18 C 215.40 113.08 211.99 115.43 208.69 117.88 C 206.77 103.84 203.68 90.00 201.26 76.04 C 200.87 73.84 200.12 71.72 199.09 69.74 C 197.75 71.63 196.65 73.67 195.76 75.81 C 193.45 81.48 190.74 87.04 189.36 93.04 C 187.58 99.32 187.04 105.86 185.14 112.10 C 182.81 110.75 180.95 108.77 179.26 106.70 C 175.52 102.14 171.16 98.13 167.52 93.48 C 162.90 87.63 157.76 82.21 152.54 76.91 C 152.40 80.96 152.21 85.01 151.81 89.04 C 151.00 97.24 151.78 105.49 151.30 113.71 C 146.32 109.36 141.92 104.37 136.71 100.29 C 133.32 97.59 129.62 95.34 125.98 93.01 C 121.14 89.93 116.74 86.22 112.17 82.77 C 107.82 79.42 103.18 76.48 98.75 73.23 C 92.04 68.26 84.68 64.26 77.31 60.36 C 78.52 67.48 79.84 74.62 82.21 81.46 C 83.84 86.27 86.03 90.89 87.42 95.79 C 88.52 99.68 89.30 103.67 90.63 107.49 C 94.67 118.69 98.83 129.85 103.22 140.92 C 105.82 147.09 109.00 153.00 111.26 159.32 C 102.79 155.95 93.83 153.70 85.83 149.22 C 73.98 142.56 62.24 135.53 49.51 130.65 C 44.45 128.76 39.50 126.07 33.95 126.13 C 42.35 135.38 52.51 142.84 60.77 152.22 C 65.50 157.61 69.33 163.69 73.62 169.42 C 77.31 174.39 82.47 177.89 87.16 181.82 C 79.57 182.07 71.98 181.76 64.39 182.16 C 68.51 185.50 72.84 188.66 76.25 192.78 C 82.95 200.94 92.47 206.36 98.38 215.25 C 79.84 217.48 61.65 221.89 43.67 226.82 C 52.06 230.56 58.55 237.21 65.20 243.35 C 55.30 241.92 45.86 238.36 35.97 236.86 C 30.08 235.76 24.05 235.84 18.08 236.07 C 19.07 239.94 20.97 243.48 23.46 246.59 C 27.24 251.47 29.68 257.17 32.45 262.65 C 37.49 271.91 42.83 281.15 49.93 289.02 C 53.04 292.43 55.48 296.36 58.30 300.00 L 0.00 300.00 L 0.00 156.63 C 0.45 152.43 0.83 148.22 0.73 144.00 C 0.55 135.84 0.89 127.67 0.38 119.52 C 0.64 116.43 0.42 113.33 0.00 110.27 L 0.00 0.00 M 158.38 68.15 C 157.94 69.56 158.42 70.04 159.83 69.60 C 160.26 68.19 159.78 67.71 158.38 68.15 Z" />
<path fill="#ffffff" opacity="1.00" d=" M 279.10 57.78 L 279.95 57.44 L 280.80 57.77 L 281.15 58.57 L 280.78 59.37 L 279.93 59.71 L 279.08 59.39 L 278.73 58.59 L 279.10 57.78 Z" />
<path fill="#ffffff" opacity="1.00" d=" M 282.56 58.96 C 283.95 58.53 284.44 59.01 284.01 60.42 C 282.61 60.85 282.13 60.36 282.56 58.96 Z" />
<path fill="#ffffff" opacity="1.00" d=" M 243.38 122.47 C 249.25 119.36 256.59 123.98 258.09 130.03 C 260.28 136.96 254.21 144.73 247.00 144.58 C 242.91 144.05 239.11 141.46 237.50 137.61 C 234.73 132.10 237.79 124.79 243.38 122.47 M 250.15 130.35 C 248.60 131.35 250.40 133.78 251.83 132.63 C 253.37 131.62 251.57 129.20 250.15 130.35 Z" />
<path fill="#ffffff" opacity="1.00" d=" M 211.30 133.70 C 217.91 131.10 225.03 131.59 231.97 131.19 C 232.43 134.81 232.32 138.74 234.10 142.00 C 237.32 145.01 241.39 147.77 246.00 147.52 C 250.77 147.22 254.91 144.43 258.26 141.21 C 262.43 146.16 265.46 151.96 267.88 157.93 C 268.94 160.56 269.06 163.41 269.58 166.16 C 269.97 168.76 270.72 171.35 270.52 174.00 C 269.72 177.40 267.64 180.47 267.57 184.05 C 267.28 189.19 266.50 194.44 264.03 199.02 C 260.28 206.23 257.27 213.79 253.70 221.09 C 246.32 223.85 239.77 228.67 231.99 230.35 C 224.99 230.86 217.94 230.46 210.98 229.75 C 205.25 227.93 199.43 225.32 195.31 220.82 C 191.24 215.16 187.43 209.17 185.33 202.47 C 184.39 199.49 181.48 197.72 180.42 194.80 C 179.06 191.38 177.51 188.01 175.22 185.10 C 174.95 179.60 171.88 174.76 171.55 169.26 C 174.64 168.55 177.90 167.57 179.96 164.98 C 183.16 161.64 183.71 156.45 182.11 152.23 C 181.10 149.92 179.16 148.24 177.41 146.52 C 179.11 144.49 180.54 142.00 183.06 140.90 C 187.56 138.75 192.06 136.44 197.01 135.56 C 201.70 134.60 206.46 132.87 211.30 133.70 M 199.05 152.10 C 194.75 154.88 189.78 156.55 185.76 159.75 C 184.06 161.77 182.27 163.72 180.69 165.83 C 179.10 167.78 179.56 170.42 179.34 172.74 C 186.45 179.63 195.30 184.65 201.40 192.57 C 204.18 197.87 202.52 203.86 203.12 209.55 C 206.79 211.37 210.25 213.63 214.16 214.92 C 218.26 216.80 222.89 216.01 227.21 215.59 C 230.37 215.13 233.62 215.22 236.71 214.40 C 239.99 212.49 242.00 209.14 243.04 205.58 C 244.21 205.28 245.39 204.98 246.56 204.66 C 246.67 202.44 246.70 200.22 246.59 198.00 C 246.33 192.08 247.07 186.09 245.93 180.23 C 245.22 175.82 245.05 171.30 243.73 167.01 C 242.37 161.10 239.57 155.67 236.42 150.54 C 235.26 148.76 234.00 147.00 232.37 145.63 C 230.30 143.99 227.52 143.92 225.00 143.87 C 215.65 143.24 207.02 147.76 199.05 152.10 Z" />
<path fill="#ffffff" opacity="1.00" d=" M 221.99 146.82 C 222.97 146.49 223.95 146.15 224.93 145.81 C 225.43 146.17 225.93 146.53 226.44 146.89 C 227.82 146.47 229.27 145.78 230.73 146.39 C 231.64 147.63 231.27 149.19 231.23 150.62 C 226.89 150.77 222.59 151.31 218.30 151.87 C 216.64 150.91 216.94 148.84 217.36 147.28 C 218.72 146.25 220.44 146.76 221.99 146.82 Z" />
<path fill="#ffffff" opacity="1.00" d=" M 167.39 147.75 C 173.17 144.98 180.20 149.88 180.96 155.92 C 181.66 161.61 176.57 166.82 171.00 167.15 C 166.79 166.84 162.84 163.92 161.48 159.90 C 159.56 155.11 162.94 149.68 167.39 147.75 M 165.43 155.48 C 165.44 155.99 165.44 157.02 165.44 157.54 C 165.96 157.54 167.01 157.54 167.53 157.54 C 167.53 157.02 167.54 155.99 167.54 155.48 C 167.01 155.48 165.96 155.48 165.43 155.48 Z" />
<path fill="#ffffff" opacity="1.00" d=" M 209.90 149.73 C 211.09 148.67 212.17 147.07 214.01 147.45 C 215.01 148.20 215.96 149.02 216.86 149.91 C 215.63 151.80 213.70 152.62 211.50 152.68 C 209.50 155.09 206.68 156.80 203.46 156.59 C 203.33 157.01 203.06 157.83 202.93 158.25 C 200.96 159.18 199.10 160.36 197.06 161.15 C 194.94 160.55 195.19 158.42 195.08 156.69 C 196.30 156.31 197.51 155.94 198.73 155.57 C 199.00 155.19 199.53 154.43 199.80 154.05 C 200.44 154.07 201.74 154.12 202.38 154.14 C 203.97 151.43 207.03 150.45 209.90 149.73 Z" />
<path fill="#ffffff" opacity="1.00" d=" M 187.33 160.18 C 188.87 158.99 190.73 158.32 192.45 157.44 C 193.45 158.79 195.34 159.97 194.25 161.87 C 192.98 162.81 191.57 163.51 190.20 164.27 C 190.31 165.03 190.52 166.55 190.63 167.32 C 189.18 168.04 187.71 168.74 186.23 169.40 C 186.00 170.76 185.77 172.11 185.54 173.47 C 183.72 172.88 182.18 171.80 180.99 170.31 C 183.03 167.96 184.92 165.48 187.00 163.15 C 187.08 162.41 187.25 160.93 187.33 160.18 Z" />
<path fill="#ffffff" opacity="1.00" d=" M 243.40 190.27 C 244.46 190.46 245.51 190.70 246.56 190.98 C 246.34 193.05 244.53 193.41 242.79 193.60 C 242.94 192.77 243.24 191.10 243.40 190.27 Z" />
<path fill="#ffffff" opacity="1.00" d=" M 243.28 195.14 C 244.26 193.57 246.89 195.33 245.68 196.79 C 244.60 197.95 242.10 196.69 243.28 195.14 Z" />
<path fill="#ffffff" opacity="1.00" d=" M 241.89 198.43 C 242.40 198.31 243.41 198.05 243.92 197.93 C 244.78 198.75 245.78 199.55 246.04 200.79 C 244.57 201.76 242.99 202.55 241.58 203.61 C 239.94 206.25 239.02 209.44 236.48 211.43 C 234.25 212.94 231.50 212.86 228.95 212.65 C 222.83 212.61 216.78 211.23 210.66 211.98 C 210.69 211.16 210.74 209.52 210.76 208.70 C 213.06 208.85 215.39 209.19 217.18 210.76 C 220.14 210.69 223.10 210.74 226.07 210.63 C 230.17 210.84 232.91 207.24 236.43 205.75 C 237.20 202.56 240.63 201.34 241.89 198.43 Z" />
<path fill="#ffffff" opacity="1.00" d=" M 204.83 205.62 C 206.12 205.82 207.40 206.09 208.66 206.43 C 209.59 207.67 210.04 209.18 210.67 210.59 C 208.73 210.43 206.98 209.65 205.29 208.76 C 205.18 207.97 204.95 206.40 204.83 205.62 Z" />
<path fill="#ffffff" opacity="1.00" d=" M 371.32 259.07 C 380.66 255.63 390.54 254.07 400.00 251.05 L 400.00 300.00 L 328.32 300.00 C 325.60 297.60 323.20 294.88 320.52 292.44 C 317.19 289.35 313.45 286.74 309.90 283.89 C 314.51 281.54 319.16 279.29 323.81 277.02 C 339.10 269.66 355.36 264.70 371.32 259.07 Z" />
</g>
<g id="#fdff00ff">
<path fill="#fdff00" opacity="1.00" d=" M 330.08 62.11 C 337.57 57.78 345.62 54.48 353.78 51.64 C 353.26 53.94 352.82 56.38 351.23 58.21 C 346.78 63.76 342.05 69.08 337.92 74.88 C 328.45 88.14 318.85 101.32 310.09 115.06 C 304.41 124.84 298.11 134.31 293.62 144.73 C 288.68 155.74 283.53 166.83 281.27 178.77 C 294.64 175.73 307.95 171.42 321.81 171.70 C 316.41 177.67 309.58 182.26 304.78 188.79 C 301.03 193.93 296.75 198.64 292.82 203.64 C 309.31 196.08 326.07 189.12 342.47 181.36 C 350.01 177.86 357.50 174.14 365.42 171.54 C 373.17 168.97 380.93 166.41 388.67 163.81 C 391.61 162.78 394.68 162.20 397.78 161.84 C 395.76 165.39 392.54 167.96 389.21 170.21 C 381.94 175.22 375.05 180.73 367.99 186.03 C 351.57 197.71 333.56 207.83 320.30 223.33 C 316.71 227.21 312.82 230.81 309.35 234.80 C 316.90 235.14 324.45 234.73 331.99 235.15 C 340.01 235.68 348.06 235.26 356.05 236.16 C 366.42 237.26 377.03 237.08 387.09 240.14 C 391.77 241.52 396.04 243.99 400.00 246.82 L 400.00 251.05 C 390.54 254.07 380.66 255.63 371.32 259.07 C 355.36 264.70 339.10 269.66 323.81 277.02 C 319.16 279.29 314.51 281.54 309.90 283.89 C 313.45 286.74 317.19 289.35 320.52 292.44 C 323.20 294.88 325.60 297.60 328.32 300.00 L 294.53 300.00 C 294.50 290.99 294.55 281.97 294.55 272.96 C 294.60 265.49 292.73 258.21 291.11 250.97 C 289.34 242.97 286.90 235.15 285.08 227.16 C 282.28 214.94 279.27 202.74 275.36 190.82 C 273.13 184.34 274.43 177.42 274.57 170.75 C 273.90 170.66 272.57 170.49 271.91 170.40 C 271.74 164.15 270.60 157.85 267.72 152.26 C 265.66 147.61 262.56 143.57 259.77 139.36 C 259.72 136.23 260.91 133.11 260.23 129.98 C 259.20 125.30 255.57 121.16 250.87 119.93 C 246.89 118.75 242.62 120.00 239.22 122.14 C 236.55 123.80 234.95 126.61 232.61 128.63 C 226.17 130.14 219.41 129.16 212.94 130.71 C 212.11 128.18 211.72 125.25 209.61 123.39 C 204.19 118.25 196.43 115.59 189.00 116.64 C 179.12 118.16 168.89 120.15 160.54 126.02 C 164.34 127.73 168.39 128.90 171.95 131.09 C 175.46 133.28 178.73 135.83 182.13 138.18 C 179.59 140.32 177.30 142.73 175.04 145.16 C 171.37 145.13 167.29 144.68 164.17 147.05 C 158.78 150.57 157.37 158.61 161.06 163.83 C 163.00 166.74 166.39 168.03 169.41 169.47 C 170.21 173.65 171.24 177.79 171.76 182.02 C 172.08 185.44 174.20 188.25 175.74 191.20 C 177.90 195.33 179.94 199.52 182.16 203.61 C 158.86 217.40 135.83 231.62 112.54 245.42 C 108.76 247.63 105.14 250.09 101.48 252.50 C 94.96 256.85 87.80 260.25 81.72 265.24 C 93.52 261.07 103.09 252.67 114.13 247.00 C 137.14 233.01 160.37 219.37 183.31 205.25 C 186.05 210.57 188.30 216.22 191.98 220.99 C 194.40 223.94 196.43 227.25 197.44 230.96 C 199.38 237.74 203.15 243.80 205.34 250.50 C 206.83 255.07 208.35 259.64 209.73 264.25 C 211.21 269.08 210.38 274.17 209.86 279.08 C 209.10 286.11 207.67 293.04 206.47 300.00 L 58.30 300.00 C 55.48 296.36 53.04 292.43 49.93 289.02 C 42.83 281.15 37.49 271.91 32.45 262.65 C 29.68 257.17 27.24 251.47 23.46 246.59 C 20.97 243.48 19.07 239.94 18.08 236.07 C 24.05 235.84 30.08 235.76 35.97 236.86 C 45.86 238.36 55.30 241.92 65.20 243.35 C 58.55 237.21 52.06 230.56 43.67 226.82 C 61.65 221.89 79.84 217.48 98.38 215.25 C 92.47 206.36 82.95 200.94 76.25 192.78 C 72.84 188.66 68.51 185.50 64.39 182.16 C 71.98 181.76 79.57 182.07 87.16 181.82 C 82.47 177.89 77.31 174.39 73.62 169.42 C 69.33 163.69 65.50 157.61 60.77 152.22 C 52.51 142.84 42.35 135.38 33.95 126.13 C 39.50 126.07 44.45 128.76 49.51 130.65 C 62.24 135.53 73.98 142.56 85.83 149.22 C 93.83 153.70 102.79 155.95 111.26 159.32 C 109.00 153.00 105.82 147.09 103.22 140.92 C 98.83 129.85 94.67 118.69 90.63 107.49 C 89.30 103.67 88.52 99.68 87.42 95.79 C 86.03 90.89 83.84 86.27 82.21 81.46 C 79.84 74.62 78.52 67.48 77.31 60.36 C 84.68 64.26 92.04 68.26 98.75 73.23 C 103.18 76.48 107.82 79.42 112.17 82.77 C 116.74 86.22 121.14 89.93 125.98 93.01 C 129.62 95.34 133.32 97.59 136.71 100.29 C 141.92 104.37 146.32 109.36 151.30 113.71 C 151.78 105.49 151.00 97.24 151.81 89.04 C 152.21 85.01 152.40 80.96 152.54 76.91 C 157.76 82.21 162.90 87.63 167.52 93.48 C 171.16 98.13 175.52 102.14 179.26 106.70 C 180.95 108.77 182.81 110.75 185.14 112.10 C 187.04 105.86 187.58 99.32 189.36 93.04 C 190.74 87.04 193.45 81.48 195.76 75.81 C 196.65 73.67 197.75 71.63 199.09 69.74 C 200.12 71.72 200.87 73.84 201.26 76.04 C 203.68 90.00 206.77 103.84 208.69 117.88 C 211.99 115.43 215.40 113.08 219.06 111.18 C 230.44 105.37 239.82 96.56 249.91 88.87 C 257.84 81.96 267.37 76.04 278.14 75.39 C 276.37 78.72 273.80 81.48 271.38 84.34 C 267.62 89.39 264.52 95.02 262.93 101.15 C 268.92 97.75 274.94 94.41 280.97 91.07 C 278.41 116.65 275.76 142.22 273.07 167.79 C 273.74 168.37 274.40 168.96 275.08 169.55 C 277.60 142.94 280.53 116.38 283.20 89.79 C 298.06 79.31 314.32 71.12 330.08 62.11 Z" />
</g>
<g id="#000000ff">
<path fill="#000000" opacity="1.00" d=" M 276.20 55.35 C 279.69 55.67 283.17 56.11 286.64 56.59 C 285.46 67.65 284.35 78.73 283.20 89.79 C 280.53 116.38 277.60 142.94 275.08 169.55 C 274.40 168.96 273.74 168.37 273.07 167.79 C 275.76 142.22 278.41 116.65 280.97 91.07 C 281.88 81.36 283.09 71.68 283.84 61.95 C 283.63 62.45 283.23 63.47 283.02 63.98 C 281.52 63.94 280.02 63.90 278.53 63.85 C 277.72 61.03 276.92 58.20 276.20 55.35 M 279.10 57.78 L 278.73 58.59 L 279.08 59.39 L 279.93 59.71 L 280.78 59.37 L 281.15 58.57 L 280.80 57.77 L 279.95 57.44 L 279.10 57.78 M 282.56 58.96 C 282.13 60.36 282.61 60.85 284.01 60.42 C 284.44 59.01 283.95 58.53 282.56 58.96 Z" />
<path fill="#000000" opacity="1.00" d=" M 160.54 126.02 C 168.89 120.15 179.12 118.16 189.00 116.64 C 196.43 115.59 204.19 118.25 209.61 123.39 C 211.72 125.25 212.11 128.18 212.94 130.71 C 219.41 129.16 226.17 130.14 232.61 128.63 C 234.95 126.61 236.55 123.80 239.22 122.14 C 242.62 120.00 246.89 118.75 250.87 119.93 C 255.57 121.16 259.20 125.30 260.23 129.98 C 260.91 133.11 259.72 136.23 259.77 139.36 C 262.56 143.57 265.66 147.61 267.72 152.26 C 270.60 157.85 271.74 164.15 271.91 170.40 C 272.57 170.49 273.90 170.66 274.57 170.75 C 274.43 177.42 273.13 184.34 275.36 190.82 C 279.27 202.74 282.28 214.94 285.08 227.16 C 286.90 235.15 289.34 242.97 291.11 250.97 C 292.73 258.21 294.60 265.49 294.55 272.96 C 294.55 281.97 294.50 290.99 294.53 300.00 L 292.56 300.00 C 292.48 291.32 292.55 282.64 292.54 273.96 C 292.59 264.17 289.81 254.68 287.59 245.22 C 283.28 230.00 280.34 214.43 275.78 199.28 C 273.84 193.34 272.61 187.16 270.00 181.46 C 269.37 185.90 269.29 190.45 268.03 194.79 C 267.18 197.75 265.69 200.46 264.32 203.20 C 261.12 209.56 258.54 216.20 255.74 222.75 C 248.99 225.06 242.96 229.04 236.20 231.32 C 231.96 232.80 227.41 232.55 223.00 232.51 C 218.76 232.38 214.49 232.33 210.30 231.60 C 206.00 230.67 202.09 228.54 198.22 226.50 C 199.71 231.52 201.57 236.41 203.82 241.14 C 206.96 247.77 208.72 254.91 211.21 261.79 C 212.15 264.40 212.86 267.15 212.64 269.95 C 212.17 280.07 210.40 290.08 208.42 300.00 L 206.47 300.00 C 207.67 293.04 209.10 286.11 209.86 279.08 C 210.38 274.17 211.21 269.08 209.73 264.25 C 208.35 259.64 206.83 255.07 205.34 250.50 C 203.15 243.80 199.38 237.74 197.44 230.96 C 196.43 227.25 194.40 223.94 191.98 220.99 C 188.30 216.22 186.05 210.57 183.31 205.25 C 160.37 219.37 137.14 233.01 114.13 247.00 C 103.09 252.67 93.52 261.07 81.72 265.24 C 87.80 260.25 94.96 256.85 101.48 252.50 C 105.14 250.09 108.76 247.63 112.54 245.42 C 135.83 231.62 158.86 217.40 182.16 203.61 C 179.94 199.52 177.90 195.33 175.74 191.20 C 174.20 188.25 172.08 185.44 171.76 182.02 C 171.24 177.79 170.21 173.65 169.41 169.47 C 166.39 168.03 163.00 166.74 161.06 163.83 C 157.37 158.61 158.78 150.57 164.17 147.05 C 167.29 144.68 171.37 145.13 175.04 145.16 C 177.30 142.73 179.59 140.32 182.13 138.18 C 178.73 135.83 175.46 133.28 171.95 131.09 C 168.39 128.90 164.34 127.73 160.54 126.02 M 165.49 125.52 C 169.11 127.09 172.82 128.60 175.93 131.09 C 178.97 133.47 182.27 135.48 185.75 137.14 C 193.65 133.49 202.36 132.32 210.85 130.78 C 210.37 129.40 210.07 127.93 209.32 126.67 C 204.60 120.77 196.74 117.49 189.22 118.60 C 181.09 120.05 172.79 121.43 165.49 125.52 M 243.38 122.47 C 237.79 124.79 234.73 132.10 237.50 137.61 C 239.11 141.46 242.91 144.05 247.00 144.58 C 254.21 144.73 260.28 136.96 258.09 130.03 C 256.59 123.98 249.25 119.36 243.38 122.47 M 211.30 133.70 C 206.46 132.87 201.70 134.60 197.01 135.56 C 192.06 136.44 187.56 138.75 183.06 140.90 C 180.54 142.00 179.11 144.49 177.41 146.52 C 179.16 148.24 181.10 149.92 182.11 152.23 C 183.71 156.45 183.16 161.64 179.96 164.98 C 177.90 167.57 174.64 168.55 171.55 169.26 C 171.88 174.76 174.95 179.60 175.22 185.10 C 177.51 188.01 179.06 191.38 180.42 194.80 C 181.48 197.72 184.39 199.49 185.33 202.47 C 187.43 209.17 191.24 215.16 195.31 220.82 C 199.43 225.32 205.25 227.93 210.98 229.75 C 217.94 230.46 224.99 230.86 231.99 230.35 C 239.77 228.67 246.32 223.85 253.70 221.09 C 257.27 213.79 260.28 206.23 264.03 199.02 C 266.50 194.44 267.28 189.19 267.57 184.05 C 267.64 180.47 269.72 177.40 270.52 174.00 C 270.72 171.35 269.97 168.76 269.58 166.16 C 269.06 163.41 268.94 160.56 267.88 157.93 C 265.46 151.96 262.43 146.16 258.26 141.21 C 254.91 144.43 250.77 147.22 246.00 147.52 C 241.39 147.77 237.32 145.01 234.10 142.00 C 232.32 138.74 232.43 134.81 231.97 131.19 C 225.03 131.59 217.91 131.10 211.30 133.70 M 167.39 147.75 C 162.94 149.68 159.56 155.11 161.48 159.90 C 162.84 163.92 166.79 166.84 171.00 167.15 C 176.57 166.82 181.66 161.61 180.96 155.92 C 180.20 149.88 173.17 144.98 167.39 147.75 Z" />
<path fill="#000000" opacity="1.00" d=" M 250.15 130.35 C 251.57 129.20 253.37 131.62 251.83 132.63 C 250.40 133.78 248.60 131.35 250.15 130.35 Z" />
<path fill="#000000" opacity="1.00" d=" M 199.05 152.10 C 207.02 147.76 215.65 143.24 225.00 143.87 C 227.52 143.92 230.30 143.99 232.37 145.63 C 234.00 147.00 235.26 148.76 236.42 150.54 C 239.57 155.67 242.37 161.10 243.73 167.01 C 245.05 171.30 245.22 175.82 245.93 180.23 C 247.07 186.09 246.33 192.08 246.59 198.00 C 246.70 200.22 246.67 202.44 246.56 204.66 C 245.39 204.98 244.21 205.28 243.04 205.58 C 242.00 209.14 239.99 212.49 236.71 214.40 C 233.62 215.22 230.37 215.13 227.21 215.59 C 222.89 216.01 218.26 216.80 214.16 214.92 C 210.25 213.63 206.79 211.37 203.12 209.55 C 202.52 203.86 204.18 197.87 201.40 192.57 C 195.30 184.65 186.45 179.63 179.34 172.74 C 179.56 170.42 179.10 167.78 180.69 165.83 C 182.27 163.72 184.06 161.77 185.76 159.75 C 189.78 156.55 194.75 154.88 199.05 152.10 M 221.99 146.82 C 220.44 146.76 218.72 146.25 217.36 147.28 C 216.94 148.84 216.64 150.91 218.30 151.87 C 222.59 151.31 226.89 150.77 231.23 150.62 C 231.27 149.19 231.64 147.63 230.73 146.39 C 229.27 145.78 227.82 146.47 226.44 146.89 C 225.93 146.53 225.43 146.17 224.93 145.81 C 223.95 146.15 222.97 146.49 221.99 146.82 M 209.90 149.73 C 207.03 150.45 203.97 151.43 202.38 154.14 C 201.74 154.12 200.44 154.07 199.80 154.05 C 199.53 154.43 199.00 155.19 198.73 155.57 C 197.51 155.94 196.30 156.31 195.08 156.69 C 195.19 158.42 194.94 160.55 197.06 161.15 C 199.10 160.36 200.96 159.18 202.93 158.25 C 203.06 157.83 203.33 157.01 203.46 156.59 C 206.68 156.80 209.50 155.09 211.50 152.68 C 213.70 152.62 215.63 151.80 216.86 149.91 C 215.96 149.02 215.01 148.20 214.01 147.45 C 212.17 147.07 211.09 148.67 209.90 149.73 M 187.33 160.18 C 187.25 160.93 187.08 162.41 187.00 163.15 C 184.92 165.48 183.03 167.96 180.99 170.31 C 182.18 171.80 183.72 172.88 185.54 173.47 C 185.77 172.11 186.00 170.76 186.23 169.40 C 187.71 168.74 189.18 168.04 190.63 167.32 C 190.52 166.55 190.31 165.03 190.20 164.27 C 191.57 163.51 192.98 162.81 194.25 161.87 C 195.34 159.97 193.45 158.79 192.45 157.44 C 190.73 158.32 188.87 158.99 187.33 160.18 M 243.40 190.27 C 243.24 191.10 242.94 192.77 242.79 193.60 C 244.53 193.41 246.34 193.05 246.56 190.98 C 245.51 190.70 244.46 190.46 243.40 190.27 M 243.28 195.14 C 242.10 196.69 244.60 197.95 245.68 196.79 C 246.89 195.33 244.26 193.57 243.28 195.14 M 241.89 198.43 C 240.63 201.34 237.20 202.56 236.43 205.75 C 232.91 207.24 230.17 210.84 226.07 210.63 C 223.10 210.74 220.14 210.69 217.18 210.76 C 215.39 209.19 213.06 208.85 210.76 208.70 C 210.74 209.52 210.69 211.16 210.66 211.98 C 216.78 211.23 222.83 212.61 228.95 212.65 C 231.50 212.86 234.25 212.94 236.48 211.43 C 239.02 209.44 239.94 206.25 241.58 203.61 C 242.99 202.55 244.57 201.76 246.04 200.79 C 245.78 199.55 244.78 198.75 243.92 197.93 C 243.41 198.05 242.40 198.31 241.89 198.43 M 204.83 205.62 C 204.95 206.40 205.18 207.97 205.29 208.76 C 206.98 209.65 208.73 210.43 210.67 210.59 C 210.04 209.18 209.59 207.67 208.66 206.43 C 207.40 206.09 206.12 205.82 204.83 205.62 Z" />
<path fill="#000000" opacity="1.00" d=" M 165.43 155.48 C 165.96 155.48 167.01 155.48 167.54 155.48 C 167.54 155.99 167.53 157.02 167.53 157.54 C 167.01 157.54 165.96 157.54 165.44 157.54 C 165.44 157.02 165.44 155.99 165.43 155.48 Z" />
</g>
<g id="#feff99ff">
<path fill="#feff99" opacity="1.00" d=" M 158.38 68.15 C 159.78 67.71 160.26 68.19 159.83 69.60 C 158.42 70.04 157.94 69.56 158.38 68.15 Z" />
<path fill="#feff99" opacity="1.00" d=" M 165.49 125.52 C 172.79 121.43 181.09 120.05 189.22 118.60 C 196.74 117.49 204.60 120.77 209.32 126.67 C 210.07 127.93 210.37 129.40 210.85 130.78 C 202.36 132.32 193.65 133.49 185.75 137.14 C 182.27 135.48 178.97 133.47 175.93 131.09 C 172.82 128.60 169.11 127.09 165.49 125.52 Z" />
<path fill="#feff99" opacity="1.00" d=" M 0.00 121.00 L 0.38 119.52 C 0.89 127.67 0.55 135.84 0.73 144.00 C 0.83 148.22 0.45 152.43 0.00 156.63 L 0.00 121.00 Z" />
</g>
<g id="#ff007eff">
<path fill="#ff007e" opacity="1.00" d=" M 0.00 110.27 C 0.42 113.33 0.64 116.43 0.38 119.52 L 0.00 121.00 L 0.00 110.27 Z" />
<path fill="#ff007e" opacity="1.00" d=" M 270.00 181.46 C 272.61 187.16 273.84 193.34 275.78 199.28 C 280.34 214.43 283.28 230.00 287.59 245.22 C 289.81 254.68 292.59 264.17 292.54 273.96 C 292.55 282.64 292.48 291.32 292.56 300.00 L 208.42 300.00 C 210.40 290.08 212.17 280.07 212.64 269.95 C 212.86 267.15 212.15 264.40 211.21 261.79 C 208.72 254.91 206.96 247.77 203.82 241.14 C 201.57 236.41 199.71 231.52 198.22 226.50 C 202.09 228.54 206.00 230.67 210.30 231.60 C 214.49 232.33 218.76 232.38 223.00 232.51 C 227.41 232.55 231.96 232.80 236.20 231.32 C 242.96 229.04 248.99 225.06 255.74 222.75 C 258.54 216.20 261.12 209.56 264.32 203.20 C 265.69 200.46 267.18 197.75 268.03 194.79 C 269.29 190.45 269.37 185.90 270.00 181.46 Z" />
</g>
</svg>
