<?xml version="1.0" encoding="utf-8"?>
<!-- Generator: Adobe Illustrator 15.0.2, SVG Export Plug-In . SVG Version: 6.00 Build 0)  -->
<!DOCTYPE svg PUBLIC "-//W3C//DTD SVG 1.1//EN" "http://www.w3.org/Graphics/SVG/1.1/DTD/svg11.dtd">
<svg version="1.1" id="Layer_1" xmlns="http://www.w3.org/2000/svg" xmlns:xlink="http://www.w3.org/1999/xlink" x="0px" y="0px"
	 width="220px" height="163px" viewBox="0 0 220 163" enable-background="new 0 0 220 163" xml:space="preserve">
<path fill="#FFFFFF" d="M0,0h220v163H0V0 M25.04,8.6c0.06,3.89,0.13,7.79,0.2,11.68c1.94,0,3.88,0,5.82-0.021
	c0.16-1.89-0.64-3.04-2.55-3.16c-0.04-0.29-0.11-0.87-0.15-1.17c0.7-0.51,2.11-1.54,2.81-2.05c-0.87-0.49-2.62-1.49-3.49-1.98
	c0.83-0.34,2.5-1.02,3.34-1.36c-0.06-0.5-0.19-1.48-0.26-1.97C28.86,8.59,26.95,8.59,25.04,8.6 M55.23,8.59
	c0.35,3.71-0.51,7.74,0.91,11.23c2.11,0.5,4.55,0.87,6.58-0.09c1.3-3.51,0.48-7.45,0.71-11.14c-0.88,0-2.65,0-3.53,0
	c-0.01,3.16,0.12,6.33-0.34,9.46c-1.08-3.04-0.7-6.3-0.73-9.46C57.63,8.59,56.43,8.59,55.23,8.59 M81.12,8.59
	c-0.01,3.16,0.23,6.38-0.53,9.49c-0.78-3.1-0.51-6.33-0.52-9.49c-0.9,0-2.7,0-3.59,0c0.05,3.82,0.12,7.63,0.43,11.44
	c2.26,0.05,4.72,0.71,6.85-0.29c1-3.61,0.39-7.44,0.55-11.14C83.24,8.59,82.18,8.59,81.12,8.59 M106.25,8.59c0,3.9,0,7.79,0,11.69
	c1.06,0,2.13,0,3.19,0c0-3.9,0-7.79,0-11.68C108.38,8.59,107.31,8.59,106.25,8.59 M135.27,8.59c0,3.89,0,7.79,0,11.68
	c0.78,0.01,2.34,0.01,3.121,0.02c0.06-1.71,0.129-3.41,0.229-5.11c0.54,1.64,1.05,3.29,1.55,4.94c0.82,0.03,2.439,0.09,3.25,0.12
	c-1.13-3.82-1.6-7.85-0.12-11.65c-0.84,0-2.51,0-3.34,0.01c-0.44,1.46-0.87,2.92-1.3,4.39c-0.061-1.1-0.189-3.3-0.25-4.4
	C137.37,8.59,136.32,8.59,135.27,8.59 M145.189,8.58c-0.01,3.9-0.01,7.8-0.01,11.7c1.061,0,2.12,0,3.19-0.01
	c-0.011-3.89-0.011-7.78,0-11.67C147.3,8.59,146.24,8.59,145.189,8.58 M170.3,8.59c0,3.9,0,7.79,0,11.69c1.06,0,2.13,0,3.19,0
	c0-3.9,0-7.79,0-11.69C172.43,8.59,171.359,8.59,170.3,8.59 M6.27,8.77c-0.51,3.82-1.01,7.64-1.56,11.45
	c0.86,0.021,2.57,0.061,3.43,0.08c0.09-0.82,0.26-2.47,0.35-3.3c0.9,0.81,1.28,1.95,1.67,3.05c0.77,0.06,2.31,0.16,3.08,0.22
	c-0.45-3.91-1.02-7.8-1.56-11.7C9.87,8.64,8.07,8.7,6.27,8.77 M15.3,8.56c-0.01,3.9,0,7.81,0,11.72c0.78,0,2.33,0,3.11,0
	c0.19-1.78-0.31-3.83,0.91-5.34c0.17,1.77,0.23,3.56,0.28,5.34c0.9,0,2.71-0.01,3.61-0.01c-0.12-2.15-0.31-4.3-0.81-6.4
	c0.35-1.5,0.99-3.13,0.22-4.62C20.39,8.13,17.71,8.78,15.3,8.56 M35.98,8.49c1.43,3.79,2.71,7.69,2.82,11.78
	c0.98,0.01,1.95,0.02,2.93,0.03c-0.02-4.1,1.27-7.99,2.66-11.8c-2.07-0.25-3.84,0.59-4.34,2.73C39.74,8.97,38.38,8.05,35.98,8.49
	 M45.9,8.73c-0.22,3.79-0.25,7.6,0.18,11.39c2.23,0,4.6,0.51,6.74-0.32c1.34-3.46,0.49-7.35,0.44-10.98
	C50.81,8.65,48.35,8.59,45.9,8.73 M69.45,8.59c0,3.9,0,7.79,0,11.69c0.79,0,2.38,0,3.17,0c0.01-1.42,0.01-2.84,0.03-4.26
	c1.26-0.22,2.11-0.94,2.42-2.17c-0.77-0.44-2.31-1.32-3.08-1.76c1.84-0.56,2.84-1.71,3.01-3.47C73.15,8.6,71.3,8.59,69.45,8.59
	 M86.77,8.76c-0.12,3.64-1.02,7.59,0.36,11.06c2.1,0.68,4.52,0.7,6.6-0.08c0.41-1.38,0.68-2.79,0.81-4.23
	c-1.96-0.13-3.61,0.53-4.65,2.24c-0.13-2.37-0.19-4.74-0.18-7.12c1.1,1.43,2.81,1.93,4.53,2.09c-0.03-0.979-0.1-2.939-0.14-3.92
	C91.66,8.58,89.21,8.59,86.77,8.76 M96.34,8.59c0,3.9,0,7.79,0,11.69c0.78,0,2.34,0,3.12,0c0.08-1.66,0.18-3.32,0.3-4.98
	c0.52,1.65,0.97,3.33,1.41,5c0.83-0.02,2.49-0.06,3.32-0.08c-1.2-3.81-1.57-7.83-0.18-11.64c-0.82,0.01-2.46,0.02-3.28,0.03
	c-0.44,1.45-0.87,2.9-1.31,4.35c-0.06-1.1-0.18-3.28-0.24-4.37C98.7,8.59,97.13,8.59,96.34,8.59 M111.561,8.59
	c0,3.89,0,7.79,0,11.68c0.789,0.01,2.379,0.02,3.17,0.02c-0.01-1.74-0.01-3.48,0.02-5.22c0.58,1.73,1.09,3.49,1.62,5.24
	c0.79-0.05,2.36-0.16,3.149-0.21c0.07-3.84,0.131-7.67,0.201-11.5c-0.781-0.01-2.341-0.02-3.111-0.02
	c-0.1,1.48-0.209,2.96-0.33,4.44c-0.459-1.47-0.899-2.94-1.319-4.42C114.109,8.6,112.41,8.59,111.561,8.59 M121.73,8.8
	c-0.19,3.4-0.51,6.84-0.03,10.24c1.739,2.25,5.079,0.39,7.489,1.12c0.031-2.2,0.061-4.4,0.09-6.6c-0.939,0-2.809-0.02-3.75-0.03
	c0.201,1.439,0.391,2.87,0.57,4.31c-0.369-0.29-1.1-0.87-1.47-1.16c0.03-1.86,0.08-3.72,0.149-5.59c1.511,0.33,3.041,0.62,4.58,0.85
	C130.12,7.12,124.58,8.92,121.73,8.8 M150.49,8.55c0,3.92,0,7.84,0,11.76c2.39-0.2,5.01,0.42,7.24-0.66
	c1.039-3.49,0.379-7.24,0.289-10.82C155.51,8.66,153,8.59,150.49,8.55 M160.41,8.55c-0.01,3.92-0.01,7.84-0.01,11.76
	c2.379-0.2,5,0.41,7.209-0.67c1.061-3.49,0.44-7.22,0.301-10.8C165.41,8.65,162.91,8.59,160.41,8.55 M175.609,8.59
	c0,3.91,0,7.82,0,11.72c0.74-0.05,2.221-0.15,2.951-0.2c0.049-1.67,0.129-3.33,0.229-4.99c0.63,1.76,1.16,3.55,1.729,5.34
	c0.76-0.11,2.301-0.33,3.061-0.44c0.061-3.81,0.13-7.62,0.189-11.43c-0.779,0-2.319-0.01-3.1-0.01c-0.09,1.11-0.27,3.33-0.359,4.44
	c-0.471-1.46-0.9-2.94-1.311-4.42C178.16,8.59,176.46,8.59,175.609,8.59 M185.779,8.8c-0.18,3.39-0.52,6.82-0.02,10.2
	c1.68,2.39,5.08,0.29,7.471,1.2c0.039-2.21,0.08-4.42,0.109-6.63c-0.93-0.01-2.779-0.03-3.71-0.04c0.14,1.46,0.28,2.93,0.399,4.39
	c-0.34-0.34-1.02-1.02-1.359-1.36c0.04-1.82,0.08-3.64,0.15-5.45c1.52,0.32,3.039,0.6,4.58,0.83c-0.11-0.75-0.34-2.25-0.45-3
	C190.59,8.44,188.17,8.65,185.779,8.8 M199.33,8.56c0,3.96-0.02,7.93,0.02,11.9c0.721-0.13,2.16-0.37,2.881-0.5
	c0.279-1.77,0.35-3.56,0.449-5.35c0.391,2.02,0.84,4.03,1.37,6.03c2.421-1.01,2.11-3.99,2.841-6.08c0.08,1.9,0.17,3.81,0.27,5.72
	c0.699,0,2.09,0,2.779,0c0-3.9,0-7.79,0-11.69c-1.39,0-2.779,0-4.17,0c-0.33,1.44-0.66,2.88-1,4.32
	c-0.369-1.38-0.729-2.76-1.09-4.14C202.23,8.7,200.779,8.63,199.33,8.56 M212.061,8.6c0.01,3.89,0.01,7.78,0,11.68
	c1.939,0,3.879,0,5.819-0.01c0.06-1.79-0.51-3.23-2.58-3.42c0.94-1.05,1.931-2.06,2.921-3.08c-0.701-0.39-2.101-1.18-2.801-1.57
	c0.82-1.28,2.98-1.59,2.471-3.6C215.95,8.59,214.01,8.59,212.061,8.6 M41.21,45.28c-6.58,7.93-12.13,17-14.61,27.1
	c-2.84,9.96-3.66,20.4-3.33,30.72c1.59,8.721,6,16.641,10.4,24.23c6.44,10.59,18.11,16.25,29.51,19.88
	c-1.97,4.34-3.94,8.82-4.19,13.649c0.44-0.09,1.3-0.289,1.73-0.379c1.38-4.301,2.46-8.721,4.45-12.811
	c10.52,0.52,21.15,3.75,31.64,1.221c6.17-1.531,12.26-3.48,18.12-5.971c10.971-5.25,17.61-15.88,24.85-25.14
	c4.641-6.5,9.561-13.12,11.871-20.87c1.85-11.801,0.379-24.83-7.42-34.35c-10.09-14.19-26.48-22.46-43.121-26.25
	c-9.62-1.56-19.38-2.15-29.11-2.5C60.8,33.34,49.18,37.26,41.21,45.28z"/>
<path d="M25.04,8.6c1.91-0.01,3.82-0.01,5.72-0.03c0.07,0.49,0.2,1.47,0.26,1.97c-0.84,0.34-2.51,1.02-3.34,1.36
	c0.87,0.49,2.62,1.49,3.49,1.98c-0.7,0.51-2.11,1.54-2.81,2.05c0.04,0.3,0.11,0.88,0.15,1.17c1.91,0.12,2.71,1.27,2.55,3.16
	c-1.94,0.021-3.88,0.021-5.82,0.021C25.17,16.39,25.1,12.49,25.04,8.6z"/>
<path d="M55.23,8.59c1.2,0,2.4,0,3.6,0c0.03,3.16-0.35,6.42,0.73,9.46c0.46-3.13,0.33-6.3,0.34-9.46c0.88,0,2.65,0,3.53,0
	c-0.23,3.69,0.59,7.63-0.71,11.14c-2.03,0.96-4.47,0.59-6.58,0.09C54.72,16.33,55.58,12.3,55.23,8.59z"/>
<path d="M81.12,8.59c1.06,0,2.12,0,3.19,0.01c-0.16,3.7,0.45,7.53-0.55,11.14c-2.13,1-4.59,0.34-6.85,0.29
	c-0.31-3.811-0.38-7.62-0.43-11.44c0.89,0,2.69,0,3.59,0c0.01,3.16-0.26,6.39,0.52,9.49C81.35,14.97,81.11,11.75,81.12,8.59z"/>
<path d="M106.25,8.59c1.06,0,2.13,0,3.19,0.01c0,3.89,0,7.78,0,11.68c-1.06,0-2.13,0-3.19,0C106.25,16.38,106.25,12.49,106.25,8.59z
	"/>
<path d="M135.27,8.59c1.051,0,2.101,0,3.141,0c0.061,1.1,0.189,3.3,0.25,4.4c0.43-1.47,0.859-2.93,1.3-4.39
	c0.83-0.01,2.5-0.01,3.34-0.01c-1.479,3.8-1.01,7.83,0.12,11.65c-0.811-0.03-2.43-0.09-3.25-0.12c-0.5-1.65-1.01-3.3-1.55-4.94
	c-0.101,1.7-0.17,3.4-0.229,5.11c-0.781-0.01-2.341-0.01-3.121-0.02C135.27,16.38,135.27,12.48,135.27,8.59z"/>
<path d="M145.189,8.58c1.051,0.01,2.11,0.01,3.181,0.02c-0.011,3.89-0.011,7.78,0,11.67c-1.07,0.01-2.13,0.01-3.19,0.01
	C145.18,16.38,145.18,12.48,145.189,8.58z"/>
<path d="M170.3,8.59c1.06,0,2.13,0,3.19,0c0,3.9,0,7.79,0,11.69c-1.061,0-2.131,0-3.19,0C170.3,16.38,170.3,12.49,170.3,8.59z"/>
<path d="M6.27,8.77c1.8-0.07,3.6-0.13,5.41-0.2c0.54,3.9,1.11,7.79,1.56,11.7c-0.77-0.06-2.31-0.16-3.08-0.22
	c-0.39-1.1-0.77-2.24-1.67-3.05c-0.09,0.83-0.26,2.48-0.35,3.3c-0.86-0.02-2.57-0.06-3.43-0.08C5.26,16.41,5.76,12.59,6.27,8.77
	 M8.35,12.45c-1.18,0.96-0.07,3.91,1.49,2.64C11.06,14.13,9.9,11.2,8.35,12.45z"/>
<path d="M15.3,8.56c2.41,0.22,5.09-0.43,7.32,0.69c0.77,1.49,0.13,3.12-0.22,4.62c0.5,2.1,0.69,4.25,0.81,6.4
	c-0.9,0-2.71,0.01-3.61,0.01c-0.05-1.78-0.11-3.57-0.28-5.34c-1.22,1.51-0.72,3.56-0.91,5.34c-0.78,0-2.33,0-3.11,0
	C15.3,16.37,15.29,12.46,15.3,8.56 M18.19,11.13c-0.52,1.63,0.03,2.18,1.66,1.67C20.38,11.18,19.82,10.62,18.19,11.13z"/>
<path d="M35.98,8.49c2.4-0.44,3.76,0.479,4.07,2.74c0.5-2.14,2.27-2.98,4.34-2.73c-1.39,3.81-2.68,7.7-2.66,11.8
	c-0.98-0.01-1.95-0.02-2.93-0.03C38.69,16.18,37.41,12.28,35.98,8.49z"/>
<path d="M45.9,8.73c2.45-0.14,4.91-0.08,7.36,0.09c0.05,3.63,0.9,7.52-0.44,10.98c-2.14,0.83-4.51,0.32-6.74,0.32
	C45.65,16.33,45.68,12.52,45.9,8.73 M49.29,11.26c-0.8,1.85-0.73,4.28-0.06,6.16C50.55,16.33,50.73,12.26,49.29,11.26z"/>
<path d="M69.45,8.59c1.85,0,3.7,0.01,5.55,0.03c-0.17,1.76-1.17,2.91-3.01,3.47c0.77,0.44,2.31,1.32,3.08,1.76
	c-0.31,1.23-1.16,1.95-2.42,2.17c-0.02,1.42-0.02,2.84-0.03,4.26c-0.79,0-2.38,0-3.17,0C69.45,16.38,69.45,12.49,69.45,8.59z"/>
<path d="M86.77,8.76c2.44-0.17,4.89-0.18,7.33,0.04c0.04,0.98,0.11,2.94,0.14,3.92c-1.72-0.16-3.43-0.66-4.53-2.09
	c-0.01,2.38,0.05,4.75,0.18,7.12c1.04-1.71,2.69-2.37,4.65-2.24c-0.13,1.44-0.4,2.85-0.81,4.23c-2.08,0.78-4.5,0.76-6.6,0.08
	C85.75,16.35,86.65,12.4,86.77,8.76z"/>
<path d="M96.34,8.59c0.79,0,2.36,0,3.14,0c0.06,1.09,0.18,3.27,0.24,4.37c0.44-1.45,0.87-2.9,1.31-4.35
	c0.82-0.01,2.46-0.02,3.28-0.03c-1.39,3.81-1.02,7.83,0.18,11.64c-0.83,0.021-2.49,0.061-3.32,0.08c-0.44-1.67-0.89-3.35-1.41-5
	c-0.12,1.66-0.22,3.32-0.3,4.98c-0.78,0-2.34,0-3.12,0C96.34,16.38,96.34,12.49,96.34,8.59z"/>
<path d="M111.561,8.59c0.85,0,2.549,0.01,3.399,0.01c0.42,1.48,0.86,2.95,1.319,4.42c0.121-1.48,0.23-2.96,0.33-4.44
	c0.771,0,2.33,0.01,3.111,0.02c-0.07,3.83-0.131,7.66-0.201,11.5c-0.789,0.05-2.359,0.16-3.149,0.21c-0.53-1.75-1.04-3.51-1.62-5.24
	c-0.029,1.74-0.029,3.48-0.02,5.22c-0.791,0-2.381-0.01-3.17-0.02C111.561,16.38,111.561,12.48,111.561,8.59z"/>
<path d="M121.73,8.8c2.85,0.12,8.39-1.68,7.629,3.14c-1.539-0.23-3.069-0.52-4.58-0.85c-0.069,1.87-0.119,3.73-0.149,5.59
	c0.37,0.29,1.101,0.87,1.47,1.16c-0.18-1.44-0.369-2.87-0.57-4.31c0.941,0.01,2.811,0.03,3.75,0.03c-0.029,2.2-0.059,4.4-0.09,6.6
	c-2.41-0.73-5.75,1.13-7.489-1.12C121.221,15.64,121.54,12.2,121.73,8.8z"/>
<path d="M150.49,8.55c2.51,0.04,5.02,0.11,7.529,0.28c0.09,3.58,0.75,7.33-0.289,10.82c-2.23,1.08-4.851,0.46-7.24,0.66
	C150.49,16.39,150.49,12.47,150.49,8.55 M153.641,16.62c0.319,0.3,0.969,0.89,1.299,1.18c0.11-2.38,0.16-4.76,0.011-7.14
	C152.9,12,153.93,14.63,153.641,16.62z"/>
<path d="M160.41,8.55c2.5,0.04,5,0.1,7.5,0.29c0.14,3.58,0.76,7.31-0.301,10.8c-2.209,1.08-4.83,0.47-7.209,0.67
	C160.4,16.39,160.4,12.47,160.41,8.55 M164.8,17.9c0.19-2.46,0.2-4.94-0.09-7.39C163.04,12.46,162.84,16.08,164.8,17.9z"/>
<path d="M175.609,8.59c0.851,0,2.551,0,3.391,0.01c0.41,1.48,0.84,2.96,1.311,4.42c0.09-1.11,0.27-3.33,0.359-4.44
	c0.78,0,2.32,0.01,3.1,0.01c-0.06,3.81-0.129,7.62-0.189,11.43c-0.76,0.11-2.301,0.33-3.061,0.44c-0.569-1.79-1.1-3.58-1.729-5.34
	c-0.101,1.66-0.181,3.32-0.229,4.99c-0.73,0.05-2.211,0.15-2.951,0.2C175.609,16.41,175.609,12.5,175.609,8.59z"/>
<path d="M185.779,8.8c2.391-0.15,4.811-0.36,7.171,0.14c0.11,0.75,0.34,2.25,0.45,3c-1.541-0.23-3.061-0.51-4.58-0.83
	c-0.07,1.81-0.11,3.63-0.15,5.45c0.34,0.34,1.02,1.02,1.359,1.36c-0.119-1.46-0.26-2.93-0.399-4.39c0.931,0.01,2.78,0.03,3.71,0.04
	c-0.029,2.21-0.07,4.42-0.109,6.63c-2.391-0.91-5.791,1.19-7.471-1.2C185.26,15.62,185.6,12.19,185.779,8.8z"/>
<path d="M199.33,8.56c1.449,0.07,2.9,0.14,4.35,0.21c0.36,1.38,0.721,2.76,1.09,4.14c0.34-1.44,0.67-2.88,1-4.32
	c1.391,0,2.78,0,4.17,0c0,3.9,0,7.79,0,11.69c-0.689,0-2.08,0-2.779,0c-0.1-1.91-0.189-3.82-0.27-5.72
	c-0.73,2.09-0.42,5.07-2.841,6.08c-0.53-2-0.979-4.01-1.37-6.03c-0.1,1.79-0.17,3.58-0.449,5.35c-0.721,0.13-2.16,0.37-2.881,0.5
	C199.311,16.49,199.33,12.52,199.33,8.56z"/>
<path d="M212.061,8.6c1.949-0.01,3.89-0.01,5.83,0c0.51,2.01-1.65,2.32-2.471,3.6c0.7,0.39,2.1,1.18,2.801,1.57
	c-0.99,1.02-1.98,2.03-2.921,3.08c2.07,0.19,2.64,1.63,2.58,3.42c-1.94,0.01-3.88,0.01-5.819,0.01
	C212.07,16.38,212.07,12.49,212.061,8.6z"/>
<path fill="#5F5F5F" d="M18.19,11.13c1.63-0.51,2.19,0.05,1.66,1.67C18.22,13.31,17.67,12.76,18.19,11.13z"/>
<path fill="#FFFFFF" d="M49.29,11.26c1.44,1,1.26,5.07-0.06,6.16C48.56,15.54,48.49,13.11,49.29,11.26z"/>
<path fill="#FFFFFF" d="M153.641,16.62c0.289-1.99-0.74-4.62,1.31-5.96c0.149,2.38,0.1,4.76-0.011,7.14
	C154.609,17.51,153.96,16.92,153.641,16.62z"/>
<path fill="#FFFFFF" d="M164.8,17.9c-1.96-1.82-1.76-5.44-0.09-7.39C165,12.96,164.99,15.44,164.8,17.9z"/>
<path fill="#525252" d="M8.35,12.45c1.55-1.25,2.71,1.68,1.49,2.64C8.28,16.36,7.17,13.41,8.35,12.45z"/>
<path d="M41.21,45.28C49.18,37.26,60.8,33.34,72,33.81c9.73,0.35,19.49,0.94,29.11,2.5c16.64,3.79,33.031,12.06,43.121,26.25
	c7.799,9.52,9.27,22.549,7.42,34.35c-2.311,7.75-7.23,14.37-11.871,20.87c-7.239,9.26-13.879,19.89-24.85,25.14
	c-5.86,2.49-11.95,4.439-18.12,5.971c-10.49,2.529-21.12-0.701-31.64-1.221c-1.99,4.09-3.07,8.51-4.45,12.811
	c-0.43,0.09-1.29,0.289-1.73,0.379c0.25-4.829,2.22-9.31,4.19-13.649c-11.4-3.63-23.07-9.29-29.51-19.88
	c-4.4-7.59-8.81-15.51-10.4-24.23c-0.33-10.319,0.49-20.76,3.33-30.72C29.08,62.28,34.63,53.21,41.21,45.28 M65.15,36.2
	c-10.09,1.28-20.46,6.15-25.94,15.05c-4.72,7.1-9.33,14.58-11.02,23.06c-2.3,8.709-3.07,17.74-2.88,26.72
	c0.18,5.899,2.88,11.28,5.36,16.51c2.78,5.79,5.97,11.569,10.8,15.899c8.25,7.461,19.14,11.591,30.11,12.75
	c6.12,0.811,12.27,1.931,18.47,1.601c6.87-0.45,13.39-2.86,19.84-5.09c8.65-2.521,15.2-9.3,20.549-16.24
	c6.291-8.17,12.9-16.24,17.48-25.54c2.859-5.17,2.17-11.27,2.109-16.939c-0.059-8.931-4.5-17.2-10.299-23.75
	c-10.28-12.03-25.28-19.12-40.61-22.12C87.88,36.62,76.49,35.48,65.15,36.2z"/>
<path fill="#FFFFFF" d="M65.15,36.2c11.34-0.72,22.73,0.42,33.97,1.91c15.33,3,30.33,10.09,40.61,22.12
	c5.799,6.55,10.24,14.82,10.299,23.75c0.061,5.67,0.75,11.77-2.109,16.939c-4.58,9.3-11.189,17.37-17.48,25.54
	c-5.35,6.94-11.899,13.72-20.549,16.24c-6.45,2.229-12.97,4.64-19.84,5.09c-6.2,0.33-12.35-0.79-18.47-1.601
	c-10.97-1.159-21.86-5.289-30.11-12.75c-4.83-4.33-8.02-10.109-10.8-15.899c-2.48-5.229-5.18-10.61-5.36-16.51
	c-0.19-8.98,0.58-18.011,2.88-26.72c1.69-8.48,6.3-15.96,11.02-23.06C44.69,42.35,55.06,37.48,65.15,36.2 M89.68,76.5
	c0.49,4.78-2.7,10.49-7.71,11.01c-11.63-1.58-22.89-5.33-34.58-6.66c0.97,0.79,1.95,1.57,2.96,2.31c-0.09,2.58-1.04,5.58,0.73,7.81
	c1.96,3.091,5.12,5.4,8.84,5.75c6.62,1.4,13.14-1.59,18.07-5.84c2.51-2.47,6.72-1.11,9.06-3.92C89.85,84.66,93.21,79.48,89.68,76.5
	 M137.33,94.12c-2.109,2.22-4.98,4.729-8.301,3.83c-7.079-1.21-13.879-3.64-20.929-5.011c-3.93-0.729-7.59-2.35-11.43-3.409
	c0.89,1.09,1.99,1.96,3.12,2.78c0.23,2.77-0.14,5.97,2,8.109c4.28,4.79,10.989,6.67,17.22,6.9c5.551,0.93,11.04-2.86,13.561-7.631
	c2.619-1.629,5.459-3.279,7-6.08c1.64-2.67,1.449-5.989,0.72-8.92C139.18,87.8,139.91,91.66,137.33,94.12 M45.3,118.91
	c-0.57,3.05,1.71,7.33,5.32,6.33c-1.37-1.551-3.28-3.01-3.26-5.301c-0.33-4.029,2.12-7.359,3.49-10.93
	C46.94,110.57,45.78,115.141,45.3,118.91 M60.69,121.189c1.43-0.92,2.81-1.909,4.2-2.89c3.7,0.53,7.41,0.96,11.1,1.58
	c7.77,1.261,15.18,4.09,22.94,5.431c0.2,1.39,0.39,2.779,0.59,4.17c0.35-0.09,1.03-0.271,1.38-0.371
	c-0.06-1.649-0.15-3.289-0.26-4.939c-11.79-2.97-23.51-6.91-35.77-7.34C62.27,116.33,60.89,119.02,60.69,121.189 M68.58,122.9
	c3.63,1.439,7.58,1.17,11.38,1.699c4.15,1.021,7.99,3.291,12.34,3.471C85.26,123.859,76.75,122.109,68.58,122.9 M110.8,122.311
	c0.021,2.25,0.841,4.459,0.54,6.709c-1.62,2.7-4.02,4.791-6.34,6.86c-0.93,0.95-2.56,1.7-2.13,3.36c3.65-1.96,6.81-4.83,9.17-8.24
	c1.63-2.23,0.71-5.13,0.53-7.65C112.13,123.09,111.24,122.57,110.8,122.311z"/>
<path d="M89.68,76.5c3.53,2.98,0.17,8.16-2.63,10.46c-2.34,2.81-6.55,1.45-9.06,3.92c-4.93,4.25-11.45,7.24-18.07,5.84
	c-3.72-0.35-6.88-2.659-8.84-5.75c-1.77-2.229-0.82-5.229-0.73-7.81c-1.01-0.74-1.99-1.52-2.96-2.31
	c11.69,1.33,22.95,5.08,34.58,6.66C86.98,86.99,90.17,81.28,89.68,76.5 M51.56,84.88c-1.33,4.57,2.64,8.63,6.66,9.99
	c7.39,2.319,15.41-1.19,20.37-6.7c-3.7-1.51-6.06,2.86-9.64,2.51c-3.25,0.271-5.08-2.63-6.87-4.81c-1.37-1.96-4.03-1.88-6.13-2.351
	C54.52,83.45,51.51,82.47,51.56,84.88z"/>
<path fill="#FFFFFF" d="M51.56,84.88c-0.05-2.41,2.96-1.43,4.39-1.36c2.1,0.471,4.76,0.391,6.13,2.351
	c1.79,2.18,3.62,5.08,6.87,4.81c3.58,0.351,5.94-4.02,9.64-2.51c-4.96,5.51-12.98,9.02-20.37,6.7
	C54.2,93.51,50.23,89.45,51.56,84.88z"/>
<path d="M137.33,94.12c2.58-2.46,1.85-6.32,2.96-9.431c0.729,2.931,0.92,6.25-0.72,8.92c-1.541,2.801-4.381,4.451-7,6.08
	c-2.521,4.771-8.01,8.561-13.561,7.631c-6.23-0.23-12.94-2.11-17.22-6.9c-2.14-2.14-1.77-5.34-2-8.109
	c-1.13-0.82-2.23-1.69-3.12-2.78c3.84,1.06,7.5,2.68,11.43,3.409c7.05,1.371,13.85,3.801,20.929,5.011
	C132.35,98.85,135.221,96.34,137.33,94.12 M101.23,92.811c0.1,2.22-0.26,4.789,1.5,6.5c5.16,6.06,13.73,6.909,21.18,6.479
	c2.58-1.71,5.14-3.49,7.199-5.82c-2-0.409-4.369-1.689-6.119,0.03c-2.301,1.91-5.5,2.05-8.26,1.189
	c-2.461-0.879-3.34-3.58-4.48-5.659C108.59,94.57,104.92,93.66,101.23,92.811z"/>
<path fill="#FFFFFF" d="M101.23,92.811c3.69,0.85,7.36,1.76,11.02,2.72c1.141,2.079,2.02,4.78,4.48,5.659
	c2.76,0.86,5.959,0.721,8.26-1.189c1.75-1.72,4.119-0.439,6.119-0.03c-2.06,2.33-4.619,4.11-7.199,5.82
	c-7.45,0.43-16.02-0.42-21.18-6.479C100.97,97.6,101.33,95.03,101.23,92.811z"/>
<path d="M45.3,118.91c0.48-3.77,1.64-8.34,5.55-9.9c-1.37,3.57-3.82,6.9-3.49,10.93c-0.02,2.291,1.89,3.75,3.26,5.301
	C47.01,126.24,44.73,121.96,45.3,118.91z"/>
<path d="M60.69,121.189c0.2-2.17,1.58-4.859,4.18-4.359c12.26,0.43,23.98,4.37,35.77,7.34c0.11,1.65,0.2,3.29,0.26,4.939
	c-0.35,0.101-1.03,0.281-1.38,0.371c-0.2-1.391-0.39-2.78-0.59-4.17c-7.76-1.341-15.17-4.17-22.94-5.431
	c-3.69-0.62-7.4-1.05-11.1-1.58C63.5,119.28,62.12,120.27,60.69,121.189z"/>
<path d="M68.58,122.9c8.17-0.791,16.68,0.959,23.72,5.17c-4.35-0.18-8.19-2.45-12.34-3.471C76.16,124.07,72.21,124.34,68.58,122.9z"
	/>
<path d="M110.8,122.311c0.44,0.26,1.33,0.779,1.771,1.039c0.18,2.521,1.1,5.42-0.53,7.65c-2.36,3.41-5.52,6.28-9.17,8.24
	c-0.43-1.66,1.2-2.41,2.13-3.36c2.32-2.069,4.72-4.16,6.34-6.86C111.641,126.77,110.82,124.561,110.8,122.311z"/>
</svg>
