<?xml version="1.0" encoding="utf-8"?>
<!-- Generator: Adobe Illustrator 15.0.2, SVG Export Plug-In . SVG Version: 6.00 Build 0)  -->
<!DOCTYPE svg PUBLIC "-//W3C//DTD SVG 1.1//EN" "http://www.w3.org/Graphics/SVG/1.1/DTD/svg11.dtd">
<svg version="1.1" id="Layer_1" xmlns="http://www.w3.org/2000/svg" xmlns:xlink="http://www.w3.org/1999/xlink" x="0px" y="0px"
	 width="200px" height="173px" viewBox="0 0 200 173" enable-background="new 0 0 200 173" xml:space="preserve">
<path fill="#FFFFFF" d="M0,0h200v146.09c-7.27-1.529-14.67-2.35-22.05-3.08c-21.03-3.15-42.33-4.15-63.511-5.55
	c-6.41-3.25-13.14-6.16-20.35-7.03c-5.43-0.58-10.93-0.32-16.3,0.68c0.01-6.949,0.01-13.909,0-20.859
	c29.29,8.03,60.34,3.1,88.931-5.439c4.689-1.701,9.579-2.91,14.079-5.08c2.96-1.34,1.99-5.86-0.97-6.541
	c-2.42,0.221-4.62,1.44-6.92,2.141c-11.631,4.311-23.721,7.189-35.87,9.59c-15.21,2.26-30.78,3.77-46.04,1.05
	c-6.92-0.55-13.24-3.53-19.83-5.409c2.86-2.19,5.9-4.131,8.95-6.03c8.54,5.579,18.61,8.85,28.87,8.54
	c17.08,0.449,33.77-8.851,42.99-23.11c8.399-12.74,10.879-29.34,5.959-43.85c-3.469-11.46-11.31-21.41-21.35-27.84
	c-10.39-6.77-23.35-9.3-35.561-7.36C80.68,3.53,63.19,20.02,58.81,39.98c-1.83,5.36-0.41,11.35-3.1,16.46
	c-1.8,3.82-1.3,8.35,0.77,11.95c2.02,4.2,6.56,6.35,8.72,10.46c2.33,4.19,5.73,7.58,8.9,11.13c-3.38,2.359-6.82,4.64-10.03,7.239
	c-7.35-2.06-14.97-2.86-22.5-3.979c-10.21-1.021-21.14-0.881-30.47,3.88c-6.29,3.14-10.17,9.61-11.1,16.45V0z"/>
<path d="M58.81,39.98c4.38-19.96,21.87-36.45,42.219-39.07C113.24-1.03,126.2,1.5,136.59,8.27c10.04,6.43,17.881,16.38,21.35,27.84
	c4.92,14.51,2.44,31.11-5.959,43.85c-9.221,14.26-25.91,23.56-42.99,23.11c-10.26,0.31-20.33-2.961-28.87-8.54
	c-3.05,1.899-6.09,3.84-8.95,6.03c6.59,1.879,12.91,4.859,19.83,5.409c15.26,2.72,30.83,1.21,46.04-1.05
	c12.149-2.4,24.239-5.279,35.87-9.59c2.3-0.7,4.5-1.92,6.92-2.141c2.96,0.681,3.93,5.201,0.97,6.541
	c-4.5,2.17-9.39,3.379-14.079,5.08c-28.591,8.539-59.641,13.47-88.931,5.439c0.01,6.95,0.01,13.91,0,20.859
	c5.37-1,10.87-1.26,16.3-0.68c7.21,0.87,13.939,3.78,20.35,7.03c21.181,1.399,42.48,2.399,63.511,5.55
	c7.38,0.73,14.78,1.551,22.05,3.08v7.051c-12.221-2.461-24.689-3.25-37.01-5.08c-16.16-1.44-32.34-2.99-48.57-3.36
	c-5.26,8.989-13.27,18.159-24.35,18.989c-11.08,0.28-19.71-8.22-26.02-16.399c-11.77,2.399-24.18,5.14-33.61,13.05
	c-4.04,3.221-6.57,7.84-8.2,12.66h-6.92c0.73-2.96,1.9-5.91,1.46-9.01c-0.68-7.91-1.08-15.83-1.51-23.75
	c-4.04-1.85-8.24-3.94-10.87-7.67c-2.95-3.811-3.37-8.79-4.4-13.33v-5.67c0.93-6.84,4.81-13.311,11.1-16.45
	c9.33-4.761,20.26-4.9,30.47-3.88c7.53,1.119,15.15,1.92,22.5,3.979c3.21-2.6,6.65-4.88,10.03-7.239c-3.17-3.55-6.57-6.94-8.9-11.13
	c-2.16-4.11-6.7-6.26-8.72-10.46c-2.07-3.6-2.57-8.13-0.77-11.95C58.4,51.33,56.98,45.34,58.81,39.98 M81.42,11.44
	c-12.3,8.28-20.37,22.47-21.23,37.27c2.69-1.91,4.82-6.04,8.53-5.52c1,2.23-1.98,2.95-3.14,4.31c-4.69,4.14-9.62,10.21-7.93,16.9
	c2.17,6.7,8.7,10.34,14.41,13.68c1.05,2.61-1.52,2.26-3.01,1.34c6.84,10.86,18.85,18.18,31.41,20.32
	c14.17,2.67,29.399-1.57,40.24-11.03c10.8-9.26,17.38-23.39,16.89-37.67c0.12-9.62-3.14-19.02-8.449-26.97
	c-4.721,0.03-9.431,0.02-14.15,0.04c-1.42-0.09-3.2,0.32-4-1.22c-0.35-1.28,0.66-2.68,1.98-2.65c4.389-0.22,8.789,0.04,13.18-0.12
	C136.34,8.66,121.2,2.03,106.109,2.93C97.35,3.62,88.65,6.35,81.42,11.44 M21.02,100.92c-4.66,0.91-9.36,3.13-12,7.221
	c-3.37,6.06-2.09,13.399,0.37,19.52c1.29,2.13,3.5,3.449,5.52,4.8c-0.61-6.56-1-13.14-1.44-19.72c3.83-1.24,7.3-3.73,11.41-3.95
	c9.06-0.771,17.98-2.76,27.05-3.431c2.21-0.35,5.15,0.041,6.12-2.529C45.86,100.939,33.29,97.87,21.02,100.92 M63.26,107.939
	c-7.26,7.42-11.53,17.42-12.83,27.66c5.82-0.609,11.52-1.93,17.33-2.56c-1.2-1.38-2.41-2.75-3.62-4.12
	c0.61-1.01,2.14-2.779,3.29-1.3c2.29,1.64,3.65,4.989,6.78,5.069c-0.02-7.879,0.04-15.76-0.04-23.629
	C70.76,107.359,66.93,106.32,63.26,107.939 M25.09,112.65c0.34,7.709,0.96,15.399,1.26,23.119c5.64,0.761,11.33,0.711,17,0.5
	c0.92-9.689,4.23-19.18,9.85-27.16C43.77,109.83,34.51,111.88,25.09,112.65 M17.59,115.23c0.39,6.25,0.75,12.5,1.21,18.739
	c1.24,0.33,2.48,0.671,3.73,0.99c-0.35-7.05-0.82-14.101-1.37-21.14C19.97,114.3,18.78,114.77,17.59,115.23 M76.54,135.77
	c-1.17,0.801,1.04,1.761,1.44,2.44c2.5-1.06,5.06-2.88,7.82-1.521c2.25-1.43,4.78-0.09,7.21-0.569c0.04,0.35,0.11,1.05,0.15,1.399
	c0.69,1.101,1.56,2.08,2.7,2.74c0.28-1.479-0.43-2.72-0.81-4.06c1.68-0.13,3.38-0.16,5.01-0.66
	C92.39,133.55,84.1,133.061,76.54,135.77 M100.79,135.96c1.09,2.01,2.569,3.76,4.01,5.521c1.47-0.711,2.96-1.41,4.4-2.2
	C106.54,137.84,103.74,136.65,100.79,135.96 M82.04,137.13c0.32,1.44,0.98,2.78,1.54,4.14C86.47,140.109,85.02,136.18,82.04,137.13
	 M88.5,137.01c-0.38,1,0.5,2.95,1.74,2.721C91.19,138.689,89.8,136.63,88.5,137.01 M97.59,137.77c0.32,1.221,2.85,1.92,3.221,0.41
	C100.58,136.811,97.93,136.18,97.59,137.77 M86.41,138.42c-0.86,0.9-0.26,3.71,1.29,2.46C88.92,140.07,87.78,137.35,86.41,138.42
	 M68.91,139.9c1.43,0.84,3,1.979,4.77,1.359c0.37,1.2,1.25,1.91,2.63,2.131c1.4-2.07-2.5-5-3.91-2.061c0.36-0.63,1.07-1.9,1.42-2.54
	C72.18,139.16,70.54,139.53,68.91,139.9 M79.36,139.05c-0.29,1.19,1.19,2.05,2.09,2.53C83.34,140.891,80.76,137.75,79.36,139.05
	 M92.29,138.98c-1.18,0.279-1.5,2.55-0.18,2.84C93.4,141.65,93.65,139.21,92.29,138.98 M97.17,140.141l0.23,0.629
	c0.9,1.511-1.73,1.83-2.39,2.871c1.23,0.09,2.45,0.159,3.68,0.219c-0.4-1.51,1.34-4.549-1.47-4.379L97.17,140.141 M100.28,143.26
	c0.96-0.689,2.93-0.619,2.93-2.16c-0.61-0.47-1.84-1.41-2.45-1.869C100.58,140.57,100.43,141.91,100.28,143.26 M88.96,141.05
	c-0.75,2.341-3.02,1.89-4.82,1.181c0.15,0.399,0.46,1.22,0.61,1.629c-2.02-0.119-4.25-0.34-5.89-1.659
	c-0.57,0.43-1.14,0.87-1.71,1.31c3.24,0.82,6.56,1.18,9.89,1.391c2.22-1.42,5.43,0.93,7.13-1.23
	C92.16,143.359,90.45,142.359,88.96,141.05 M94.35,141.51C94.83,142.26,94.83,142.26,94.35,141.51 M19.17,141.359
	c0.34,6.511,0.77,13,1.22,19.5c1.14-1.329,2.3-2.659,3.36-4.06c0.24-4.819-0.8-9.649-0.69-14.489
	C22.09,142.07,20.14,141.6,19.17,141.359 M26.87,142.88c0.19,3.57,0.53,7.14,0.79,10.71c4.69-3.68,10.14-6.27,15.76-8.16
	c0.02-0.529,0.05-1.59,0.06-2.13C37.94,143.38,32.38,143.561,26.87,142.88 M65.91,142.891c3.47,5.329,7.93,10.109,13.22,13.68
	c4.16,2.43,9.27,4.3,14.05,2.63c8.03-2.4,13.57-9.32,17.69-16.24C97.06,150.29,79.53,151.12,65.91,142.891z"/>
<path fill="#FFFFFF" d="M81.42,11.44c7.23-5.09,15.93-7.82,24.689-8.51c15.091-0.9,30.23,5.73,40.041,17.19
	c-4.391,0.16-8.791-0.1-13.18,0.12c-1.32-0.03-2.33,1.37-1.98,2.65c0.8,1.54,2.58,1.13,4,1.22c4.72-0.02,9.43-0.01,14.15-0.04
	c5.31,7.95,8.569,17.35,8.449,26.97c0.49,14.28-6.09,28.41-16.89,37.67c-10.841,9.46-26.07,13.7-40.24,11.03
	C87.9,97.6,75.89,90.28,69.05,79.42c1.49,0.92,4.06,1.27,3.01-1.34c-5.71-3.34-12.24-6.98-14.41-13.68
	c-1.69-6.69,3.24-12.76,7.93-16.9c1.16-1.36,4.14-2.08,3.14-4.31c-3.71-0.52-5.84,3.61-8.53,5.52
	C61.05,33.91,69.12,19.72,81.42,11.44 M90.73,32.79c3.42,0.08,6.85,0.07,10.27-0.02c-2.95,3.32-4.22,8.72-1.17,12.39
	c3.55,4.46,11.529,3.71,13.939-1.55c2.28-3.64,0.25-7.94-2.16-10.91c1.511,0.14,3.021,0.28,4.531,0.43
	c0.43-0.55,1.289-1.65,1.719-2.2c-0.77-1.46-2.199-1.96-3.77-1.74c-7.35,0.07-14.7-0.08-22.05,0.07
	C89.93,29.04,90.43,31.55,90.73,32.79 M141.1,32.07c-6.26,1.8-7.27,11.47-1.68,14.67c4.471,3.15,11.49,0.64,12.73-4.76
	C154.18,35.75,147.1,29.44,141.1,32.07 M96.44,52.62c-7.15,1.7-12.86,7.62-15.41,14.36c-1.2,2.44-0.27,5.52,1.97,7
	c3.9,2.34,8.52,3.15,13.02,3.29c7.69,0.23,15.48-0.15,23.009-1.76c3.41-1.71,6.811-4.44,10.881-3.729
	c1.65,0.08,4.08,1.81,4.869-0.61c-4.02-4.92-9.069-8.93-14.34-12.44C113.471,54.17,104.859,50.58,96.44,52.62 M74.25,71.83
	c0.63,1.71,0.54,3.51-0.31,5.13c0.68-0.14,2.05-0.41,2.73-0.55c-0.63,0.42-1.89,1.25-2.52,1.67c2.67,0.52,4.4-1.67,2.48-3.71
	c0.91-0.79,1.2-1.73,0.87-2.82C76.4,70.69,75.3,71.27,74.25,71.83 M81.74,79.29c1.1,2.3,3.48-0.09,2.96-1.82
	C83.35,77.2,80.78,77.25,81.74,79.29z"/>
<path d="M90.73,32.79c-0.3-1.24-0.8-3.75,1.31-3.53c7.35-0.15,14.7,0,22.05-0.07c1.57-0.22,3,0.28,3.77,1.74
	c-0.43,0.55-1.289,1.65-1.719,2.2c-1.511-0.15-3.021-0.29-4.531-0.43c2.41,2.97,4.44,7.27,2.16,10.91
	c-2.41,5.26-10.39,6.01-13.939,1.55c-3.05-3.67-1.78-9.07,1.17-12.39C97.58,32.86,94.15,32.87,90.73,32.79z"/>
<path d="M141.1,32.07c6-2.63,13.08,3.68,11.051,9.91c-1.24,5.4-8.26,7.91-12.73,4.76C133.83,43.54,134.84,33.87,141.1,32.07z"/>
<path d="M96.44,52.62c8.419-2.04,17.031,1.55,24,6.11c5.271,3.51,10.32,7.52,14.34,12.44c-0.789,2.42-3.219,0.69-4.869,0.61
	c-4.07-0.71-7.471,2.02-10.881,3.729c-7.529,1.61-15.319,1.99-23.009,1.76c-4.5-0.14-9.12-0.95-13.02-3.29
	c-2.24-1.48-3.17-4.56-1.97-7C83.58,60.24,89.29,54.32,96.44,52.62 M82.9,69.9c2.89,3.64,7.77,4.32,12.11,4.52
	C92.78,70.28,87.33,65.91,82.9,69.9z"/>
<path fill="#FFFFFF" d="M82.9,69.9c4.43-3.99,9.88,0.38,12.11,4.52C90.67,74.22,85.79,73.54,82.9,69.9z"/>
<path d="M74.25,71.83c1.05-0.56,2.15-1.14,3.25-0.28c0.33,1.09,0.04,2.03-0.87,2.82c1.92,2.04,0.19,4.23-2.48,3.71
	c0.63-0.42,1.89-1.25,2.52-1.67c-0.68,0.14-2.05,0.41-2.73,0.55C74.79,75.34,74.88,73.54,74.25,71.83z"/>
<path d="M81.74,79.29c-0.96-2.04,1.61-2.09,2.96-1.82C85.22,79.2,82.84,81.59,81.74,79.29z"/>
<path fill="#FFFFFF" d="M21.02,100.92c12.27-3.05,24.84,0.02,37.03,1.91c-0.97,2.57-3.91,2.18-6.12,2.529
	c-9.07,0.671-17.99,2.66-27.05,3.431c-4.11,0.22-7.58,2.71-11.41,3.95c0.44,6.58,0.83,13.16,1.44,19.72
	c-2.02-1.351-4.23-2.67-5.52-4.8c-2.46-6.12-3.74-13.46-0.37-19.52C11.66,104.05,16.36,101.83,21.02,100.92z"/>
<path fill="#FFFFFF" d="M63.26,107.939c3.67-1.619,7.5-0.58,10.91,1.121c0.08,7.869,0.02,15.75,0.04,23.629
	c-3.13-0.08-4.49-3.43-6.78-5.069c-1.15-1.479-2.68,0.29-3.29,1.3c1.21,1.37,2.42,2.74,3.62,4.12c-5.81,0.63-11.51,1.95-17.33,2.56
	C51.73,125.359,56,115.359,63.26,107.939z"/>
<path fill="#FFFFFF" d="M25.09,112.65c9.42-0.771,18.68-2.82,28.11-3.541c-5.62,7.98-8.93,17.471-9.85,27.16
	c-5.67,0.211-11.36,0.261-17-0.5C26.05,128.05,25.43,120.359,25.09,112.65z"/>
<path fill="#FFFFFF" d="M17.59,115.23c1.19-0.461,2.38-0.931,3.57-1.41c0.55,7.039,1.02,14.09,1.37,21.14
	c-1.25-0.319-2.49-0.66-3.73-0.99C18.34,127.73,17.98,121.48,17.59,115.23z"/>
<path fill="#FFFFFF" d="M0,119.24c1.03,4.54,1.45,9.52,4.4,13.33c2.63,3.729,6.83,5.82,10.87,7.67c0.43,7.92,0.83,15.84,1.51,23.75
	c0.44,3.1-0.73,6.05-1.46,9.01H0V119.24z"/>
<path fill="#FFFFFF" d="M76.54,135.77c7.56-2.709,15.85-2.22,23.52-0.229c-1.63,0.5-3.33,0.53-5.01,0.66
	c0.38,1.34,1.09,2.58,0.81,4.06c-1.14-0.66-2.01-1.64-2.7-2.74c-0.04-0.35-0.11-1.05-0.15-1.399c-2.43,0.479-4.96-0.86-7.21,0.569
	c-2.76-1.359-5.32,0.461-7.82,1.521C77.58,137.53,75.37,136.57,76.54,135.77z"/>
<path fill="#FFFFFF" d="M100.79,135.96c2.95,0.69,5.75,1.88,8.41,3.32c-1.44,0.79-2.931,1.489-4.4,2.2
	C103.359,139.72,101.88,137.97,100.79,135.96z"/>
<path fill="#FFFFFF" d="M82.04,137.13c2.98-0.95,4.43,2.979,1.54,4.14C83.02,139.91,82.36,138.57,82.04,137.13z"/>
<path fill="#FFFFFF" d="M88.5,137.01c1.3-0.38,2.69,1.68,1.74,2.721C89,139.96,88.12,138.01,88.5,137.01z"/>
<path fill="#FFFFFF" d="M97.59,137.77c0.34-1.59,2.99-0.959,3.221,0.41C100.44,139.689,97.91,138.99,97.59,137.77z"/>
<path fill="#FFFFFF" d="M86.41,138.42c1.37-1.07,2.51,1.65,1.29,2.46C86.15,142.13,85.55,139.32,86.41,138.42z"/>
<path fill="#FFFFFF" d="M68.91,139.9c1.63-0.37,3.27-0.74,4.91-1.11c-0.35,0.64-1.06,1.91-1.42,2.54
	c1.41-2.939,5.31-0.01,3.91,2.061c-1.38-0.221-2.26-0.931-2.63-2.131C71.91,141.88,70.34,140.74,68.91,139.9z"/>
<path fill="#FFFFFF" d="M79.36,139.05c1.4-1.3,3.98,1.841,2.09,2.53C80.55,141.1,79.07,140.24,79.36,139.05z"/>
<path fill="#FFFFFF" d="M92.29,138.98c1.36,0.229,1.11,2.67-0.18,2.84C90.79,141.53,91.11,139.26,92.29,138.98z"/>
<path fill="#FFFFFF" d="M97.17,140.141l0.05-0.66c2.81-0.17,1.07,2.869,1.47,4.379c-1.23-0.06-2.45-0.129-3.68-0.219
	c0.66-1.041,3.29-1.36,2.39-2.871L97.17,140.141z"/>
<path fill="#FFFFFF" d="M100.28,143.26c0.15-1.35,0.3-2.689,0.48-4.029c0.61,0.459,1.84,1.399,2.45,1.869
	C103.21,142.641,101.24,142.57,100.28,143.26z"/>
<path fill="#FFFFFF" d="M88.96,141.05c1.49,1.31,3.2,2.31,5.21,2.62c-1.7,2.16-4.91-0.189-7.13,1.23
	c-3.33-0.211-6.65-0.57-9.89-1.391c0.57-0.439,1.14-0.88,1.71-1.31c1.64,1.319,3.87,1.54,5.89,1.659
	c-0.15-0.409-0.46-1.229-0.61-1.629C85.94,142.939,88.21,143.391,88.96,141.05z"/>
<path fill="#FFFFFF" d="M94.35,141.51C94.83,142.26,94.83,142.26,94.35,141.51z"/>
<path fill="#FFFFFF" d="M19.17,141.359c0.97,0.24,2.92,0.711,3.89,0.951c-0.11,4.84,0.93,9.67,0.69,14.489
	c-1.06,1.4-2.22,2.73-3.36,4.06C19.94,154.359,19.51,147.87,19.17,141.359z"/>
<path fill="#FFFFFF" d="M26.87,142.88c5.51,0.681,11.07,0.5,16.61,0.42c-0.01,0.54-0.04,1.601-0.06,2.13
	c-5.62,1.891-11.07,4.48-15.76,8.16C27.4,150.02,27.06,146.45,26.87,142.88z"/>
<path fill="#FFFFFF" d="M65.91,142.891c13.62,8.229,31.15,7.399,44.96,0.069c-4.12,6.92-9.66,13.84-17.69,16.24
	c-4.78,1.67-9.89-0.2-14.05-2.63C73.84,153,69.38,148.22,65.91,142.891z"/>
<path fill="#FFFFFF" d="M114.42,144.7c16.23,0.37,32.41,1.92,48.57,3.36c12.32,1.83,24.789,2.619,37.01,5.08V173H22.24
	c1.63-4.82,4.16-9.439,8.2-12.66c9.43-7.91,21.84-10.65,33.61-13.05c6.31,8.18,14.94,16.68,26.02,16.399
	C101.15,162.859,109.16,153.689,114.42,144.7z"/>
</svg>
