<?xml version="1.0" encoding="utf-8"?>
<!-- Generator: Adobe Illustrator 15.0.2, SVG Export Plug-In . SVG Version: 6.00 Build 0)  -->
<!DOCTYPE svg PUBLIC "-//W3C//DTD SVG 1.1//EN" "http://www.w3.org/Graphics/SVG/1.1/DTD/svg11.dtd">
<svg version="1.1" id="Layer_1" xmlns="http://www.w3.org/2000/svg" xmlns:xlink="http://www.w3.org/1999/xlink" x="0px" y="0px"
	 width="250px" height="163px" viewBox="0 0 250 163" enable-background="new 0 0 250 163" xml:space="preserve">
<path fill="#FFFFFF" d="M0,0h250v163h-2.68c-2.85-4.391-6.11-8.49-9.711-12.29c-3.439-2.3-7.139-4.25-11.049-5.63
	c-9.961-3.689-20.33-6.23-30.82-7.87c0.029-10.63-2.35-21.11-2.24-31.729c-1.85-1.721-3.46-3.761-5.59-5.141
	c-6.83-2.01-13.971-2.57-20.85-4.35c-5.791-1.391-8.17-8.08-13.891-9.61c-3.311-1.09-6.061-3.25-8.79-5.32
	c-8.26-3.78-17.021-6.87-26.1-7.83c-0.02-0.49-0.06-1.48-0.08-1.97c-0.92-5.01-1.51-10.13-1.05-15.229
	c0.28-4.5-3.09-8.11-6.53-10.49c-4.05-1.06-7.57-3.42-11.53-4.67c-5.77-0.15-11.62-0.52-17.33,0.55c-3.76,0.73-7.24-2.65-10.92-1.18
	c1.81,0.61,4.48-0.17,5.34,2.08c-5.55-0.22-11.75,0.57-15.42,5.25c3.76-0.1,6.62-3,10.31-3.27c-1.89,2.45-4.22,4.81-7.35,5.52
	c-1.3,1.77-2.62,3.52-3.87,5.33c-1.15,0.04-2.31,0.08-3.46,0.12c-2.33,1.73-4.64,3.48-6.84,5.37c2.22,1.83,2.37,5.62,5.46,6.28
	c-1.78,1.5-3,3.43-3.02,5.82c-2.36,2.81-1.84,6.78-3.68,9.689c-3.22,0.271-6.34-0.74-9.52-1.04c1.1,2.969,4.8,2.19,7.26,2.549
	c0.27,3.75-4.36,2.771-6.81,3.631c0.12,1.05,0.23,2.109,0.36,3.17c-1.73-0.08-3.45-0.16-5.17-0.26c1.28-1.34,2.62-2.621,4.02-3.84
	c-3.31,1.02-6.57-0.48-9.9,0.17c0.72-2.74-2.04-2.48-3.86-2.83c0.47,0.58,1.4,1.739,1.87,2.319c-0.06,0.32-0.17,0.97-0.23,1.3
	c1.31-0.039,2.63-0.069,3.94-0.1c0.87,0.88,1.76,1.75,2.64,2.62c-4.05,0.979-8.12,1.86-12.16,2.87c-0.49-1.141-0.98-2.28-1.45-3.43
	c-0.51-0.011-1.55-0.041-2.06-0.051c0.02,0.65,0.07,1.94,0.09,2.59l2.17-0.76c-0.07,0.561-0.22,1.68-0.29,2.24
	c-6.03,0.529-12.09,1.061-17.78,3.26c0.34,0.32,1.02,0.971,1.36,1.301c0.18,0.85,0.03,1.67-0.47,2.439
	c1.07-0.07,2.13-0.13,3.2-0.189c-0.43-1.031-0.91-2.08-0.76-3.24c1.08-1.2,2.89-1.561,4.44-1.851c7.01-0.28,13.8-2.26,20.67-3.52
	c3.76,0.42,7.54,0.54,11.3,0.909c-1.51,1.83-3.86,2.25-5.98,2.94c-2.01-2.09-4.49-0.771-6.48,0.5c1,0.15,2.99,0.44,3.98,0.58
	c-0.97,1.01-1.92,2.03-2.85,3.08c2.34-2.04,5.02-3.66,8.21-3.8c0.92-0.85,1.95-1.5,3.1-1.96c1.6,0.47,2.71,1.77,3.92,2.829
	c2.1-0.649,4.2-1.34,6.22-2.219c1.38,0.81,2.78,1.579,4.17,2.39c-1.57,0.68-3.19,1.25-4.83,1.729c0,0.48,0.01,1.44,0.02,1.93
	c2.31-0.069,4.25-1.31,6.35-2.069c0.74,1.41,0.77,3.55,2.78,3.739c6.21,2.15,12.25,4.73,18.43,6.94
	c5.61,0.91,11.36,0.261,16.91-0.84c0.24,0.67,0.74,1.99,0.98,2.649c1.69-0.649,3.32-1.449,4.89-2.35c1.24-0.05,2.49-0.1,3.73-0.14
	c2.98-3.21,6.46-5.89,9.57-8.96c2.45-2.96,2.98-6.93,4.14-10.471c0.91-2.699,0.97-5.56,0.65-8.359c-1.23,1.529-2.57,3.1-2.7,5.16
	c-0.56,3.46-2.45,6.479-3.27,9.859c-2.61,2.91-5.53,5.521-8.15,8.431c-8.22,1.06-16.5,2.899-24.81,2.22
	c-6.33-2.22-12.48-4.939-18.79-7.2c0.11-2.89,2.19-5.93-0.79-8.14c0.74,0.1,2.24,0.32,2.98,0.42l0.22-1.35
	c0.75,0.149,2.24,0.43,2.99,0.569c0.03-0.38,0.1-1.12,0.13-1.489c-0.9,0.09-2.7,0.289-3.6,0.379c1.57-1.699,3.27-3.289,4.89-4.949
	c1.63,2.22,2.41,4.85,3.27,7.43c1.37-2.96,0.06-5.939-1.21-8.66c-1.65-0.3-3.29-0.63-4.94-0.949c0.65-0.511,1.95-1.551,2.6-2.061
	c1.88,1.15,5.79,4.859,7.17,1.44c-3.21-0.74-5.72-3.96-9.18-3.35c-1.86,0.99-1.12,3.12-1.21,4.811c0.96,0.109,2.87,0.31,3.83,0.41
	c-2.99,4.609-7.97,0.709-12.18,1.739c0.08-0.64,0.25-1.93,0.33-2.569c-1.43,0.67-2.86,1.359-4.3,2
	c-0.14-2.641-0.15-5.311,0.37-7.911c1.69-1.72,3.23-3.57,4.92-5.28c-0.82-1.45-1.66-2.88-2.49-4.31c2.95,0.28,5.92,0.45,8.89,0.42
	c1.11,0.78,2.22,1.56,3.32,2.36c0.14-0.81,0.41-2.41,0.55-3.21c0.48,0.53,1.43,1.59,1.9,2.12c1.24-1.29,2.5-2.56,3.79-3.79
	c-0.11-2.5-0.73-4.93-1.9-7.15c0.67,0.04,2,0.13,2.66,0.18c-1.67-1.74-3.39-3.43-5.25-4.97c0.25,0.79,0.73,2.37,0.98,3.16
	c-2.55-1.91-5.82-1.3-8.78-1.57c2.59-1.19,5.69-1.73,7.64-3.99c1.86-2,3.81-3.91,5.92-5.65c1.61,1.22,3.07,2.61,4.27,4.24
	c2.35-1.37-0.27-3.5-0.87-5.2c1.57,0.06,3.12,0.31,4.54,1.01c2.9-3.07,7.48-1.46,11.2-2.05c4.13-0.5,7.76,1.7,11.19,3.68
	c3.44,0.33,5.87,2.79,8.06,5.21c0.03,0.5,0.1,1.5,0.13,2c0.22,0.14,0.66,0.42,0.88,0.56c-0.12,4.37-0.09,8.74-0.11,13.12
	c-0.25,4.97,1.84,9.6,2.96,14.351c0.76-1.541,1.36-3.161,1.82-4.82c2.98,0.8,5.97,1.57,9.01,2.16c1.101,3.7,2.42,7.43,2.351,11.35
	c-0.061,7.32,0.06,14.65-0.09,21.97c-1.16,3.171-1.931,6.46-3.15,9.61c-4.4-0.49-8.7,0.75-13.08,0.8
	c-4.01-0.069-7.82,1.81-11.87,0.97c0.37,1.36,0.75,2.721,1.13,4.08c-11.07,0.92-22.26-0.58-33.29,1.01
	c-12.33,0.08-24.66-0.01-36.99,0.021c-5.38,0.229-10.54,2.05-15.84,2.84c-6.08,0.42-11.42,3.591-17.13,5.39V111.9
	c1.02-0.99,2.34-1.83,2.46-3.4c5.81-3.35,12.85-2.29,18.77-5.25c-3.08,0.561-6.15,1.24-9.28,1.54c-4.2,0.45-8.01,2.42-11.95,3.81V0
	 M91.3,45.27l0.46,1.38c-0.71,0-2.11-0.01-2.81-0.01c-1.35,0.52-2.73,0.91-4.12,1.26c-0.1,0.44-0.3,1.33-0.4,1.77
	c1.86-0.17,3.8-0.22,5.47-1.18c3.66-0.36,8.37,0.229,9.79,4.21c0.54-0.04,1.62-0.11,2.16-0.14c-0.81-1.67-1.51-3.56-3.18-4.56
	c-1.31-0.56-3.06-0.45-3.76-1.94c2.56-0.17,4.89,0.74,7.06,2c-0.52-0.92-1.09-1.82-1.68-2.69C97.3,45.59,94.29,45.61,91.3,45.27
	 M90.4,55.56c0.09,0.46,0.27,1.4,0.36,1.87c-2.33-0.09-4.67-0.1-6.99,0.03c-2.38,1.48-4.57,3.23-6.43,5.33
	c0.03,1.46,0.05,2.92,0.07,4.38c2.83,3.08,6.43,6.21,10.96,5.47c0.21,0.67,0.63,2.02,0.84,2.69c0.12-0.85,0.36-2.54,0.48-3.38
	c1.31,1.91,3.47,1.99,5.53,1.73c3.07-3.99,3.85-9.01,3.32-13.91c-1.09-1.1-2.16-2.2-3.23-3.31c0.09,0.89,0.28,2.69,0.37,3.59
	c-1.49-1.27-3.08-2.43-4.68-3.54c1.07-0.02,3.2-0.06,4.27-0.08C93.77,55.62,92.05,55.64,90.4,55.56 M97.14,77.04
	c3.44,1.7,8.07,1.96,10.1,5.69c1.55,1.859,0.95,4.39,1.18,6.6c-1.28,1.38-2.54,2.82-4.14,3.84c-1.74,1.24-4.18,2.12-4.26,4.63
	c3.8-0.84,6.63-3.88,9.5-6.31c-0.13-3.66,0.85-7.62-1.09-10.96C105.7,77.54,101.1,75.34,97.14,77.04 M9.72,85.82
	c0.01,0.649,0.04,1.96,0.05,2.609c-1.3,0.58-2.63,1.11-3.74,2.01c1.72,0.17,3.54,0.431,5.19-0.26c1.1-1.33,0.38-3.25,0.48-4.83
	C11.21,85.47,10.22,85.7,9.72,85.82 M82.57,88.811c-0.04,0.379-0.12,1.119-0.16,1.5c3.25-0.15,6.5-0.041,9.75,0.129
	C89.26,88.8,85.79,88.92,82.57,88.811 M66.3,94.13c0.25,2.59,2.41,4.45,4.65,5.431c1.07-0.74,2.82-1.011,3.14-2.5
	c0.37-1.351,0.87-2.631,2.43-2.86c0.01-0.511,0.03-1.53,0.04-2.03c-3.38,0.13-3.73,3.63-5.56,5.689
	c-1.52-1.579-2.09-3.719-2.82-5.719C67.54,92.8,66.89,93.439,66.3,94.13 M17.35,96.35c-0.78,1.521,0.45,3.521,2.08,2.131
	C20.47,96.87,18.87,95.83,17.35,96.35 M25.29,101.67c0.11,1.02,0.25,2.04,0.4,3.061c1.53-0.461,2.37-1.49,2.09-3.16
	C27.16,101.6,25.91,101.65,25.29,101.67 M40.95,108.87c2.37-0.42,8.13-0.83,6.46-4.55C45.33,105.98,42.01,106.189,40.95,108.87
	 M16.4,112.32c0.51,1.72,1.74,2.91,3.68,2.56C19.6,113.141,18.3,111.91,16.4,112.32 M33.88,119.24c0.05,1.24-2.65,4.24-0.26,4.119
	c2.07-0.199,1.82-2.689,1.95-4.209C35.15,119.17,34.3,119.22,33.88,119.24z"/>
<path fill="#010101" d="M70.84,40.24c3.68-1.47,7.16,1.91,10.92,1.18c5.71-1.07,11.56-0.7,17.33-0.55
	c3.96,1.25,7.48,3.61,11.53,4.67c3.44,2.38,6.81,5.99,6.53,10.49c-0.46,5.1,0.13,10.22,1.05,15.229c0.02,0.49,0.06,1.48,0.08,1.97
	c9.08,0.96,17.84,4.05,26.1,7.83c2.729,2.07,5.479,4.23,8.79,5.32c5.721,1.53,8.1,8.22,13.891,9.61
	c6.879,1.779,14.02,2.34,20.85,4.35c2.13,1.38,3.74,3.42,5.59,5.141c-0.109,10.619,2.27,21.1,2.24,31.729
	c10.49,1.64,20.859,4.181,30.82,7.87c3.91,1.38,7.609,3.33,11.049,5.63c3.601,3.8,6.861,7.899,9.711,12.29H243.8
	c-4.43-4.57-8.3-10.04-14.28-12.74c-15.09-6.25-31.299-8.96-47.35-11.49c-7.439-0.55-14.75-2.16-22.189-2.629
	c-1.5-0.181-2.961-0.58-4.431-0.9c-0.569,1.66-1.03,3.35-1.29,5.09c-2.9,2.64-6.24,4.91-8.4,8.26c-4.25,6.85-12.02,10-18.42,14.41
	h-8.879c5.84-4.28,11.879-8.311,18.2-11.85c-0.09-0.37-0.279-1.09-0.369-1.461c-8.24-0.09-16.551,0.42-24.75-0.239
	c-2.67-2.511-4.03-6.03-6.29-8.851c-5.39-3.05-10.22,5.07-15.59,1.87c-0.07-0.649-0.23-1.95-0.3-2.6c4.61-2.63,9.68-4.49,15.06-4.55
	c-0.01-0.95-0.02-1.891-0.03-2.83c-22.17-0.12-44.34,0.369-66.51,0.16c-7.82-0.271-15.3,2.47-23,3.35
	c-3.98,0.99-7.76,2.74-11.55,4.311c-1.17,0.33-2.31,0.72-3.43,1.189v-3.811c5.71-1.799,11.05-4.97,17.13-5.39
	c5.3-0.79,10.46-2.61,15.84-2.84c12.33-0.03,24.66,0.06,36.99-0.021c11.03-1.59,22.22-0.09,33.29-1.01
	c-0.38-1.359-0.76-2.72-1.13-4.08c4.05,0.84,7.86-1.039,11.87-0.97c4.38-0.05,8.68-1.29,13.08-0.8c1.22-3.15,1.99-6.439,3.15-9.61
	c0.149-7.319,0.029-14.649,0.09-21.97c0.069-3.92-1.25-7.65-2.351-11.35c-3.04-0.59-6.03-1.36-9.01-2.16
	c-0.46,1.66-1.06,3.28-1.82,4.82c-1.12-4.75-3.21-9.38-2.96-14.351c0.02-4.38-0.01-8.75,0.11-13.12c-0.22-0.14-0.66-0.42-0.88-0.56
	c-0.03-0.5-0.1-1.5-0.13-2c-2.19-2.42-4.62-4.88-8.06-5.21c-3.43-1.98-7.06-4.18-11.19-3.68c-3.72,0.59-8.3-1.02-11.2,2.05
	c-1.42-0.7-2.97-0.95-4.54-1.01c0.6,1.7,3.22,3.83,0.87,5.2c-1.2-1.63-2.66-3.02-4.27-4.24c-2.11,1.74-4.06,3.65-5.92,5.65
	c-1.95,2.26-5.05,2.8-7.64,3.99c2.96,0.27,6.23-0.34,8.78,1.57c-0.25-0.79-0.73-2.37-0.98-3.16c1.86,1.54,3.58,3.23,5.25,4.97
	c-0.66-0.05-1.99-0.14-2.66-0.18c1.17,2.22,1.79,4.65,1.9,7.15c-1.29,1.23-2.55,2.5-3.79,3.79c-0.47-0.53-1.42-1.59-1.9-2.12
	c-0.14,0.8-0.41,2.4-0.55,3.21c-1.1-0.8-2.21-1.58-3.32-2.36c-2.97,0.03-5.94-0.14-8.89-0.42c0.83,1.43,1.67,2.86,2.49,4.31
	c-1.69,1.71-3.23,3.56-4.92,5.28c-0.52,2.6-0.51,5.27-0.37,7.911c1.44-0.641,2.87-1.33,4.3-2c-0.08,0.64-0.25,1.93-0.33,2.569
	c4.21-1.03,9.19,2.87,12.18-1.739c-0.96-0.101-2.87-0.301-3.83-0.41c0.09-1.69-0.65-3.82,1.21-4.811c3.46-0.61,5.97,2.61,9.18,3.35
	c-1.38,3.419-5.29-0.29-7.17-1.44c-0.65,0.51-1.95,1.55-2.6,2.061c1.65,0.319,3.29,0.649,4.94,0.949c1.27,2.721,2.58,5.7,1.21,8.66
	c-0.86-2.58-1.64-5.21-3.27-7.43c-1.62,1.66-3.32,3.25-4.89,4.949c0.9-0.09,2.7-0.289,3.6-0.379c-0.03,0.369-0.1,1.109-0.13,1.489
	c-0.75-0.14-2.24-0.42-2.99-0.569l-0.22,1.35c-0.74-0.1-2.24-0.32-2.98-0.42c2.98,2.21,0.9,5.25,0.79,8.14
	c6.31,2.261,12.46,4.98,18.79,7.2c8.31,0.68,16.59-1.16,24.81-2.22c2.62-2.91,5.54-5.521,8.15-8.431
	c0.82-3.38,2.71-6.399,3.27-9.859c0.13-2.061,1.47-3.631,2.7-5.16c0.32,2.8,0.26,5.66-0.65,8.359
	c-1.16,3.541-1.69,7.511-4.14,10.471c-3.11,3.07-6.59,5.75-9.57,8.96c-1.24,0.04-2.49,0.09-3.73,0.14c-1.57,0.9-3.2,1.7-4.89,2.35
	c-0.24-0.659-0.74-1.979-0.98-2.649c-5.55,1.101-11.3,1.75-16.91,0.84c-6.18-2.21-12.22-4.79-18.43-6.94
	c-2.01-0.189-2.04-2.329-2.78-3.739c-2.1,0.76-4.04,2-6.35,2.069c-0.01-0.489-0.02-1.449-0.02-1.93c1.64-0.479,3.26-1.05,4.83-1.729
	c-1.39-0.811-2.79-1.58-4.17-2.39c-2.02,0.879-4.12,1.569-6.22,2.219c-1.21-1.06-2.32-2.359-3.92-2.829
	c-1.15,0.46-2.18,1.11-3.1,1.96c-3.19,0.14-5.87,1.76-8.21,3.8c0.93-1.05,1.88-2.07,2.85-3.08c-0.99-0.14-2.98-0.43-3.98-0.58
	c1.99-1.271,4.47-2.59,6.48-0.5c2.12-0.69,4.47-1.11,5.98-2.94c-3.76-0.369-7.54-0.489-11.3-0.909C23,93.04,16.21,95.02,9.2,95.3
	c-1.55,0.29-3.36,0.65-4.44,1.851c-0.15,1.16,0.33,2.209,0.76,3.24c-1.07,0.06-2.13,0.119-3.2,0.189c0.5-0.77,0.65-1.59,0.47-2.439
	c-0.34-0.33-1.02-0.98-1.36-1.301c5.69-2.199,11.75-2.73,17.78-3.26c0.07-0.561,0.22-1.68,0.29-2.24l-2.17,0.76
	c-0.02-0.649-0.07-1.939-0.09-2.59c0.51,0.01,1.55,0.04,2.06,0.051c0.47,1.149,0.96,2.289,1.45,3.43
	c4.04-1.01,8.11-1.891,12.16-2.87c-0.88-0.87-1.77-1.74-2.64-2.62c-1.31,0.03-2.63,0.061-3.94,0.1c0.06-0.33,0.17-0.979,0.23-1.3
	c-0.47-0.58-1.4-1.739-1.87-2.319c1.82,0.35,4.58,0.09,3.86,2.83c3.33-0.65,6.59,0.85,9.9-0.17c-1.4,1.219-2.74,2.5-4.02,3.84
	c1.72,0.1,3.44,0.18,5.17,0.26c-0.13-1.061-0.24-2.12-0.36-3.17c2.45-0.86,7.08,0.119,6.81-3.631c-2.46-0.359-6.16,0.42-7.26-2.549
	c3.18,0.3,6.3,1.31,9.52,1.04c1.84-2.91,1.32-6.88,3.68-9.689c0.02-2.39,1.24-4.32,3.02-5.82c-3.09-0.66-3.24-4.45-5.46-6.28
	c2.2-1.89,4.51-3.64,6.84-5.37c1.15-0.04,2.31-0.08,3.46-0.12c1.25-1.81,2.57-3.56,3.87-5.33c3.13-0.71,5.46-3.07,7.35-5.52
	c-3.69,0.27-6.55,3.17-10.31,3.27c3.67-4.68,9.87-5.47,15.42-5.25C75.32,40.07,72.65,40.85,70.84,40.24 M58.52,56.6
	c0.6,3.13,0.34,6.39-2.29,8.53c2.57,1.8,5.75,1.31,8.7,1.32c2.57,0.08,4.52-1.91,6.54-3.21c-0.06-0.84-0.19-2.53-0.25-3.37
	C68.18,55.91,62.95,56.36,58.52,56.6 M48.35,84.38c-0.49,1.39-0.83,2.82-1.23,4.229c0.71-0.01,2.12-0.029,2.83-0.049
	c-0.64,2.979-5.43,2.6-5.46,5.97c2.31,0.25,4.38-0.761,6.4-1.7c0.82,0,2.44,0,3.26,0c-0.34-2.561-2.55-4.24-4.66-5.38
	C49.46,86.4,49.92,84.51,48.35,84.38 M138.32,84.27c1.4,3.261,2.55,6.631,4.06,9.851c0.229,1.79,0.38,3.7,2.601,3.93
	c1.569,0.74,0.35,2.89,0.68,4.23c1.14,2.18,2.39,4.36,2.9,6.79c0.129,3.38-0.211,6.85,1.14,10.06c2.85-1.28,3.56-4.819,6.159-6.42
	c1.271-0.26,3.461-0.39,3.69,1.29c0.22,1.72-0.079,3.45-0.31,5.16c-0.48,0.31-1.44,0.93-1.93,1.23c0.09,1.68,0.16,3.35,0.239,5.02
	c-0.329,0.37-1.01,1.109-1.35,1.48c1.239,1.25,1.409,2.869,1.26,4.549c2.511,1.461,5.44,1.021,8.2,1.03
	c-0.95-2.729-1.051-5.6-1.04-8.47c-0.58-2.66-1.261-5.29-1.771-7.96c-0.899-4.99-1.439-10.04-2.99-14.899
	c-0.689-1.33-1.659-2.471-2.619-3.61c-4.04-0.07-8.221,0.319-12.15-0.63c-0.16-0.48-0.47-1.431-0.619-1.9
	c3.299-1.01,6.84-0.359,10.25-0.41C150.01,90.061,143.91,87.5,138.32,84.27 M53.12,86.82c0.71,1.979,2.49,3.1,4.32,3.899
	c0.32,0.96,0.75,1.86,1.28,2.71c-0.08-0.88-0.24-2.649-0.31-3.529c0.97-0.461,1.94-0.94,2.9-1.431c-0.9-0.01-2.7-0.04-3.6-0.05
	C57.72,85.49,54.96,86.45,53.12,86.82 M33.04,88.38C33.38,88.811,33.38,88.811,33.04,88.38 M134.561,91.24
	c-0.051,3.56,0.33,7.13,1.67,10.46c-0.01,0.78-0.021,1.56-0.041,2.34c-1.41,2.83-0.26,6.08-1.01,9.06c-0.8,3.11-0.15,6.37-0.97,9.48
	c3.229-0.221,6.46,0.3,9.681-0.03c-0.021-2.79,0.149-5.59-0.121-8.37c-0.6-2.859-2.22-5.42-2.529-8.359
	c-0.65-4.53-5.301-7.34-5.09-12.021c-0.2-0.68-0.601-2.02-0.811-2.69C135.15,91.141,134.75,91.21,134.561,91.24 M165.029,97.13
	c2.051,3.32,2.711,7.181,4.181,10.75c0.09,0.56,0.261,1.681,0.34,2.24c0.979,1.569,0.55,3.479,0.62,5.21
	c0.54,0.39,1.609,1.16,2.141,1.55c0.069,2.37-0.281,4.87,0.819,7.08c0.13,3.28,0.05,6.56,0.06,9.84
	c1.261,0.04,2.511,0.091,3.781,0.17c3.129,1.101,6.559,0.62,9.729,1.71c0.18-11.109-0.021-22.21,0.1-33.32
	c-1.97-0.51-3.97-0.909-5.979-1.18c-4.4-1.76-9.801-0.619-13.66-3.58C166.63,97.48,165.561,97.25,165.029,97.13 M189.23,107.96
	c0.129,9.47-0.15,18.95,0.16,28.41c1.029-0.021,3.08-0.07,4.109-0.101c0.1-2.729,0.16-5.489-0.58-8.14
	c-0.67-2.68,0.4-5.67-1.02-8.17c0.01-5.2-0.82-10.36-0.541-15.56C188.471,103.27,189.46,106.54,189.23,107.96 M119.99,126.29
	c-3.8,0.44-7.95-0.72-11.4,1.42c0.86-0.06,2.58-0.18,3.44-0.24c3.02,2.46,6.87,0.64,9.9-0.8c4.55-0.4,9.13-0.109,13.69,0.09
	c-0.261-0.29-0.771-0.859-1.03-1.14c-4.51-0.12-9.05-0.24-13.55,0.069C120.78,125.84,120.25,126.141,119.99,126.29 M138,127.391
	c0.9,2.049,5.23,1.93,6.17-0.07C142.109,127.24,140.05,127.25,138,127.391 M121.02,131.54c1.67,0.06,3.35,0.06,5.02,0
	c-0.68-0.75-1.33-1.51-2.09-2.181C122.57,129.42,121.69,130.46,121.02,131.54 M129.141,129.3c0.129,0.511,0.389,1.53,0.52,2.04
	c0.5,0.1,1.5,0.28,2,0.38c-0.01-0.56-0.02-1.68-0.03-2.25C131.01,129.43,129.76,129.34,129.141,129.3 M143.029,135.34
	c-11.969,0.18-23.959,0.25-35.929-0.04c1.05,4.24,3.79,7.851,6.35,11.29c6.48,0.65,13.079,0.061,19.6,0.29
	c2.62,0.261,5.12-0.51,7.5-1.521l0.021-0.969c0.43,0.06,1.279,0.18,1.709,0.239c2.041-3.55,6.031-5.31,8.311-8.68
	c-0.55-0.32-1.63-0.96-2.18-1.28C146.6,134.73,144.689,134.48,143.029,135.34z"/>
<path fill="#010101" d="M91.3,45.27c2.99,0.34,6,0.32,8.99,0.1c0.59,0.87,1.16,1.77,1.68,2.69c-2.17-1.26-4.5-2.17-7.06-2
	c0.7,1.49,2.45,1.38,3.76,1.94c1.67,1,2.37,2.89,3.18,4.56c-0.54,0.03-1.62,0.1-2.16,0.14c-1.42-3.98-6.13-4.57-9.79-4.21
	c-1.67,0.96-3.61,1.01-5.47,1.18c0.1-0.44,0.3-1.33,0.4-1.77c1.39-0.35,2.77-0.74,4.12-1.26c0.7,0,2.1,0.01,2.81,0.01L91.3,45.27z"
	/>
<path fill="#010101" d="M90.4,55.56c1.65,0.08,3.37,0.06,4.87,0.87c-1.07,0.02-3.2,0.06-4.27,0.08c1.6,1.11,3.19,2.271,4.68,3.54
	c-0.09-0.9-0.28-2.7-0.37-3.59c1.07,1.11,2.14,2.21,3.23,3.31c0.53,4.9-0.25,9.92-3.32,13.91c-2.06,0.26-4.22,0.18-5.53-1.73
	c-0.12,0.84-0.36,2.53-0.48,3.38c-0.21-0.67-0.63-2.02-0.84-2.69c-4.53,0.74-8.13-2.39-10.96-5.47c-0.02-1.46-0.04-2.92-0.07-4.38
	c1.86-2.1,4.05-3.85,6.43-5.33c2.32-0.13,4.66-0.12,6.99-0.03C90.67,56.96,90.49,56.02,90.4,55.56 M82.85,59.94
	c1.91,3.33,0.77,6.91,0.27,10.42c2.8,0.41,5.71,0.79,8.52,0.21c1.55-0.85,1.89-2.88,2.61-4.38c0.08-1.79,0.97-3.74,0.16-5.45
	c-2.2-2.26-5.64-1.95-8.53-1.97C84.87,59.17,83.86,59.56,82.85,59.94 M95.91,67.3c1.33-1.16,1.94-3.65,1.16-5.31
	C95.98,63.07,95.68,65.69,95.91,67.3z"/>
<path fill="#FFFFFF" d="M58.52,56.6c4.43-0.24,9.66-0.69,12.7,3.27c0.06,0.84,0.19,2.53,0.25,3.37c-2.02,1.3-3.97,3.29-6.54,3.21
	c-2.95-0.01-6.13,0.48-8.7-1.32C58.86,62.99,59.12,59.73,58.52,56.6z"/>
<path fill="#FFFFFF" d="M82.85,59.94c1.01-0.38,2.02-0.77,3.03-1.17c2.89,0.02,6.33-0.29,8.53,1.97c0.81,1.71-0.08,3.66-0.16,5.45
	c-0.72,1.5-1.06,3.53-2.61,4.38c-2.81,0.58-5.72,0.2-8.52-0.21C83.62,66.85,84.76,63.27,82.85,59.94z"/>
<path fill="#FFFFFF" d="M95.91,67.3c-0.23-1.61,0.07-4.23,1.16-5.31C97.85,63.65,97.24,66.14,95.91,67.3z"/>
<path fill="#010101" d="M97.14,77.04c3.96-1.7,8.56,0.5,11.29,3.49c1.94,3.34,0.96,7.3,1.09,10.96c-2.87,2.43-5.7,5.47-9.5,6.31
	c0.08-2.51,2.52-3.39,4.26-4.63c1.6-1.02,2.86-2.46,4.14-3.84c-0.23-2.21,0.37-4.74-1.18-6.6C105.21,79,100.58,78.74,97.14,77.04z"
	/>
<path fill="#FFFFFF" d="M48.35,84.38c1.57,0.13,1.11,2.021,1.14,3.07c2.11,1.14,4.32,2.819,4.66,5.38c-0.82,0-2.44,0-3.26,0
	c-2.02,0.939-4.09,1.95-6.4,1.7c0.03-3.37,4.82-2.99,5.46-5.97c-0.71,0.02-2.12,0.039-2.83,0.049
	C47.52,87.2,47.86,85.77,48.35,84.38z"/>
<path fill="#FFFFFF" d="M138.32,84.27c5.59,3.23,11.689,5.791,16.4,10.32c-3.41,0.051-6.951-0.6-10.25,0.41
	c0.149,0.47,0.459,1.42,0.619,1.9c3.93,0.949,8.11,0.56,12.15,0.63c0.96,1.14,1.93,2.28,2.619,3.61
	c1.551,4.859,2.091,9.909,2.99,14.899c0.51,2.67,1.19,5.3,1.771,7.96c-0.011,2.87,0.09,5.74,1.04,8.47
	c-2.76-0.01-5.689,0.431-8.2-1.03c0.149-1.68-0.021-3.299-1.26-4.549c0.34-0.371,1.021-1.11,1.35-1.48
	c-0.079-1.67-0.149-3.34-0.239-5.02c0.489-0.301,1.449-0.921,1.93-1.23c0.23-1.71,0.529-3.44,0.31-5.16
	c-0.229-1.68-2.42-1.55-3.69-1.29c-2.6,1.601-3.31,5.14-6.159,6.42c-1.351-3.21-1.011-6.68-1.14-10.06
	c-0.511-2.43-1.761-4.61-2.9-6.79c-0.33-1.341,0.89-3.49-0.68-4.23c-2.221-0.229-2.371-2.14-2.601-3.93
	C140.87,90.9,139.721,87.53,138.32,84.27z"/>
<path fill="#010101" d="M9.72,85.82c0.5-0.12,1.49-0.351,1.98-0.471c-0.1,1.58,0.62,3.5-0.48,4.83c-1.65,0.69-3.47,0.43-5.19,0.26
	c1.11-0.899,2.44-1.43,3.74-2.01C9.76,87.78,9.73,86.47,9.72,85.82z"/>
<path fill="#FFFFFF" d="M53.12,86.82c1.84-0.37,4.6-1.33,4.59,1.6c0.9,0.01,2.7,0.04,3.6,0.05c-0.96,0.49-1.93,0.97-2.9,1.431
	c0.07,0.88,0.23,2.649,0.31,3.529c-0.53-0.85-0.96-1.75-1.28-2.71C55.61,89.92,53.83,88.8,53.12,86.82z"/>
<path fill="#FFFFFF" d="M33.04,88.38C33.38,88.811,33.38,88.811,33.04,88.38z"/>
<path fill="#010101" d="M82.57,88.811c3.22,0.109,6.69-0.011,9.59,1.629c-3.25-0.17-6.5-0.279-9.75-0.129
	C82.45,89.93,82.53,89.189,82.57,88.811z"/>
<path fill="#FFFFFF" d="M134.561,91.24c0.189-0.03,0.59-0.1,0.779-0.131c0.21,0.671,0.61,2.011,0.811,2.69
	c-0.211,4.681,4.439,7.49,5.09,12.021c0.31,2.939,1.93,5.5,2.529,8.359c0.271,2.78,0.101,5.58,0.121,8.37
	c-3.221,0.33-6.451-0.19-9.681,0.03c0.819-3.11,0.17-6.37,0.97-9.48c0.75-2.979-0.4-6.229,1.01-9.06
	c0.021-0.78,0.031-1.56,0.041-2.34C134.891,98.37,134.51,94.8,134.561,91.24z"/>
<path fill="#010101" d="M66.3,94.13c0.59-0.69,1.24-1.33,1.88-1.989c0.73,2,1.3,4.14,2.82,5.719c1.83-2.06,2.18-5.56,5.56-5.689
	c-0.01,0.5-0.03,1.52-0.04,2.03c-1.56,0.229-2.06,1.51-2.43,2.86c-0.32,1.489-2.07,1.76-3.14,2.5
	C68.71,98.58,66.55,96.72,66.3,94.13z"/>
<path fill="#010101" d="M17.35,96.35c1.52-0.52,3.12,0.521,2.08,2.131C17.8,99.87,16.57,97.87,17.35,96.35z"/>
<path fill="#FFFFFF" d="M165.029,97.13c0.531,0.12,1.601,0.351,2.131,0.47c3.859,2.961,9.26,1.82,13.66,3.58
	c2.01,0.271,4.01,0.67,5.979,1.18c-0.12,11.11,0.08,22.211-0.1,33.32c-3.171-1.09-6.601-0.609-9.729-1.71
	c-1.271-0.079-2.521-0.13-3.781-0.17c-0.01-3.28,0.07-6.56-0.06-9.84c-1.101-2.21-0.75-4.71-0.819-7.08
	c-0.531-0.39-1.601-1.16-2.141-1.55c-0.07-1.73,0.359-3.641-0.62-5.21c-0.079-0.56-0.25-1.681-0.34-2.24
	C167.74,104.311,167.08,100.45,165.029,97.13z"/>
<path fill="#010101" d="M25.29,101.67c0.62-0.02,1.87-0.07,2.49-0.1c0.28,1.67-0.56,2.699-2.09,3.16
	C25.54,103.71,25.4,102.689,25.29,101.67z"/>
<path fill="#010101" d="M11.95,104.79c3.13-0.3,6.2-0.979,9.28-1.54c-5.92,2.96-12.96,1.9-18.77,5.25c-0.12,1.57-1.44,2.41-2.46,3.4
	V108.6C3.94,107.21,7.75,105.24,11.95,104.79z"/>
<path fill="#010101" d="M40.95,108.87c1.06-2.681,4.38-2.89,6.46-4.55C49.08,108.04,43.32,108.45,40.95,108.87z"/>
<path fill="#FFFFFF" d="M189.23,107.96c0.229-1.42-0.76-4.69,2.129-3.56c-0.279,5.199,0.551,10.359,0.541,15.56
	c1.42,2.5,0.35,5.49,1.02,8.17c0.74,2.65,0.68,5.41,0.58,8.14c-1.029,0.03-3.08,0.08-4.109,0.101
	C189.08,126.91,189.359,117.43,189.23,107.96z"/>
<path fill="#010101" d="M16.4,112.32c1.9-0.41,3.2,0.82,3.68,2.56C18.14,115.23,16.91,114.04,16.4,112.32z"/>
<path fill="#010101" d="M33.88,119.24c0.42-0.021,1.27-0.07,1.69-0.09c-0.13,1.52,0.12,4.01-1.95,4.209
	C31.23,123.48,33.93,120.48,33.88,119.24z"/>
<path fill="#FFFFFF" d="M119.99,126.29c0.26-0.149,0.79-0.45,1.05-0.601c4.5-0.31,9.04-0.189,13.55-0.069
	c0.26,0.28,0.77,0.85,1.03,1.14c-4.56-0.199-9.14-0.49-13.69-0.09c-3.03,1.439-6.88,3.26-9.9,0.8c-0.86,0.061-2.58,0.181-3.44,0.24
	C112.04,125.57,116.19,126.73,119.99,126.29z"/>
<path fill="#FFFFFF" d="M138,127.391c2.05-0.141,4.109-0.15,6.17-0.07C143.23,129.32,138.9,129.439,138,127.391z"/>
<path fill="#FFFFFF" d="M121.02,131.54c0.67-1.08,1.55-2.12,2.93-2.181c0.76,0.671,1.41,1.431,2.09,2.181
	C124.37,131.6,122.69,131.6,121.02,131.54z"/>
<path fill="#FFFFFF" d="M129.141,129.3c0.619,0.04,1.869,0.13,2.489,0.17c0.011,0.57,0.021,1.69,0.03,2.25c-0.5-0.1-1.5-0.28-2-0.38
	C129.529,130.83,129.27,129.811,129.141,129.3z"/>
<path fill="#FFFFFF" d="M37.98,132.65c22.17,0.209,44.34-0.28,66.51-0.16c0.01,0.939,0.02,1.88,0.03,2.83
	c-5.38,0.06-10.45,1.92-15.06,4.55c0.07,0.649,0.23,1.95,0.3,2.6c5.37,3.2,10.2-4.92,15.59-1.87c2.26,2.82,3.62,6.34,6.29,8.851
	c8.2,0.659,16.51,0.149,24.75,0.239c0.09,0.371,0.279,1.091,0.369,1.461c-6.32,3.539-12.36,7.569-18.2,11.85H0v-21.5
	c1.12-0.47,2.26-0.859,3.43-1.189c3.79-1.57,7.57-3.32,11.55-4.311C22.68,135.12,30.16,132.38,37.98,132.65z"/>
<path fill="#FFFFFF" d="M143.029,135.34c1.66-0.859,3.57-0.609,5.381-0.67c0.55,0.32,1.63,0.96,2.18,1.28
	c-2.279,3.37-6.27,5.13-8.311,8.68c-0.43-0.06-1.279-0.18-1.709-0.239l-0.021,0.969c-2.38,1.011-4.88,1.781-7.5,1.521
	c-6.521-0.229-13.12,0.36-19.6-0.29c-2.56-3.439-5.3-7.05-6.35-11.29C119.07,135.59,131.061,135.52,143.029,135.34z"/>
<path fill="#FFFFFF" d="M155.55,135.24c1.47,0.32,2.931,0.72,4.431,0.9c7.439,0.469,14.75,2.079,22.189,2.629
	c16.051,2.53,32.26,5.24,47.35,11.49c5.98,2.7,9.851,8.17,14.28,12.74h-116.36c6.4-4.41,14.17-7.561,18.42-14.41
	c2.16-3.35,5.5-5.62,8.4-8.26C154.52,138.59,154.98,136.9,155.55,135.24z"/>
</svg>
