<?xml version="1.0" encoding="utf-8"?>
<!-- Generator: Adobe Illustrator 15.0.2, SVG Export Plug-In . SVG Version: 6.00 Build 0)  -->
<!DOCTYPE svg PUBLIC "-//W3C//DTD SVG 1.1//EN" "http://www.w3.org/Graphics/SVG/1.1/DTD/svg11.dtd">
<svg version="1.1" id="Layer_1" xmlns="http://www.w3.org/2000/svg" xmlns:xlink="http://www.w3.org/1999/xlink" x="0px" y="0px"
	 width="286px" height="224px" viewBox="0 0 286 224" enable-background="new 0 0 286 224" xml:space="preserve">
<path fill="#FFFFFF" d="M0,0h286v224H0V0 M6.57,8.55c-1.32,1.58-3.22,3.11-3.12,5.37c-0.18,5.43-0.19,10.88,0.19,16.3
	c0.98,1.1,1.99,2.17,3.03,3.22c2.15,0.52,4.33,0.92,6.54,1.01c1.73-0.96,3.72-1.67,5.01-3.25c1.77-2.45,1.26-5.62,1.4-8.46
	c-2.36,0-4.72,0-7.07,0c-0.32,2.56,0.81,5.81-1.75,7.58c-1.76-5.81-1.2-12.11-0.41-18.05c0.51,0.1,1.53,0.29,2.04,0.38
	c0.03,2.06,0.04,4.11,0.03,6.16c2.41-0.01,4.83-0.01,7.24-0.02c0.07-3.71,0.06-7.95-3.4-10.24C13.07,8.16,9.8,8.14,6.57,8.55
	 M21.73,8.25c0.01,8.68,0.01,17.37,0.01,26.05c2.26,0.01,4.52,0.01,6.78,0.02c0.02-3.72,0.02-7.43-0.03-11.14l2.11,0.03
	c-0.06,3.69-0.05,7.38-0.04,11.06c5.02,0.31,10.02,0.07,15.04,0.04c0.22-2.13-0.8-5.91,3.06-5.03c0.08,1.63,0.07,3.27,0.24,4.89
	c2.29,0.22,4.6,0.14,6.9,0.17c-0.43-4.44-1.18-8.83-1.95-13.22c-0.64-4.23-1.55-8.44-1.74-12.73c-3.39-0.28-6.8-0.29-10.19,0.04
	c-0.17,2.9-0.39,5.8-0.74,8.68c-0.61,2.29-0.78,4.66-1.04,7c-0.68,3.3-0.63,6.73-1.79,9.93c-0.25-0.08-0.75-0.24-1-0.31
	c0.64-8.49,0.14-17,0.34-25.5C35.31,8.2,32.93,8.2,30.55,8.2c0,3.12,0,6.24,0.04,9.36l-2.09-0.01c0.03-3.12,0.03-6.24,0.03-9.36
	C26.27,8.2,24,8.21,21.73,8.25 M56.78,8.29c0.08,7.58-0.08,15.16,0.11,22.74c-0.08,0.81-0.26,2.439-0.35,3.25
	c3.72,0.05,7.43,0.04,11.15,0.04c0.01-1.88,0.01-3.75,0.01-5.62c-0.87,0-2.61-0.01-3.48-0.01c0.04-6.82-0.01-13.64,0.03-20.46
	C61.76,8.19,59.27,8.2,56.78,8.29 M69.16,8.19c0.05,8.53,0.13,17.07-0.54,25.58c3.87,0.95,7.88,0.44,11.82,0.52
	c0.01-1.86,0.01-3.72,0.01-5.58c-1.39-0.01-2.77-0.01-4.16-0.02c0.05-6.81-0.01-13.63,0.04-20.44C73.94,8.21,71.55,8.19,69.16,8.19
	 M82.42,8.2c0.03,8.7-0.01,17.41,0.02,26.12c3.72-0.07,7.45,0.14,11.16-0.08c1.5-1.1,0.42-3.31,0.7-4.85
	c-1.28-1.36-3.49-0.44-5.14-0.77c0.05-1.97,0.1-3.93,0.18-5.9c1.39,0.01,2.78,0.03,4.17,0.04c-0.01-1.74-0.01-3.47,0.01-5.21
	c-1.42,0.03-2.84,0.05-4.25,0.07c-0.04-1.43-0.07-2.87-0.1-4.31c1.5,0,2.99,0.01,4.49,0.02c0.02-1.71,0.05-3.42,0.06-5.13
	C89.95,8.19,86.19,8.2,82.42,8.2 M96.21,8.19c0.03,8.71-0.03,17.43,0.05,26.15c1.85-0.02,3.7-0.03,5.55-0.04
	c0.05-3.83-0.01-7.67,0-11.51c0.47,1.36,0.9,2.73,1.4,4.09c0.56,2.44,1.13,4.9,1.97,7.27c2.06,0.26,4.14,0.16,6.21,0.21
	c0.03-8.73,0-17.45,0.02-26.18c-1.97,0.01-3.94,0.03-5.91,0.05c0.01,3.46,0.17,6.92-0.13,10.37c-1.69-3.24-2.23-6.87-3.11-10.37
	C100.24,8.21,98.22,8.2,96.21,8.19 M117.47,8.53c-1.1,1.4-2.97,2.54-2.99,4.49c-0.31,5.33-0.34,10.7,0.02,16.02
	c0.14,2.94,3.21,4.13,5.34,5.49c2-0.08,3.82-0.84,5.43-1.99c0.1,0.44,0.32,1.33,0.43,1.77c1.55,0,3.1-0.01,4.66-0.02
	c0.02-4.86,0.02-9.72,0.01-14.58c-2.79-0.02-5.59-0.02-8.38,0.01c0.25,3.24,1.76,6.28,1.31,9.58c-0.44,0.07-1.33,0.19-1.77,0.25
	c-0.09-5.91-0.43-11.86,0.23-17.74c0.38,0.47,1.15,1.4,1.53,1.87c-0.03,1.3-0.07,2.6-0.09,3.9c2.42,0.01,4.85,0,7.28-0.04
	c-0.24-2.41-0.06-5.23-1.84-7.13C125.94,7.09,121.16,8.41,117.47,8.53 M168.52,15.02c0.01,4.67-0.34,9.39,0.311,14.03
	c1.55,7.14,13.59,6.93,15.54,0.11c0.34-1.96,0.38-3.96,0.5-5.95c-2.149-0.03-4.31-0.05-6.46-0.08c-0.051,2.22-0.12,4.47-0.79,6.61
	c-0.49-0.11-1.47-0.34-1.96-0.46c-0.09-5.55-0.11-11.11,0.01-16.66c0.54-0.07,1.6-0.21,2.141-0.28c0.449,2.27,0.549,4.58,0.67,6.88
	c2.069-0.02,4.149-0.02,6.229-0.02c0.181-3.82,0.41-8.31-3.26-10.65c-2.5-0.22-5.03-0.55-7.53-0.2
	C170.62,8.46,168.32,11.92,168.52,15.02 M187.65,12.68c0.109,5.4-0.5,10.87,0.289,16.22c0.301,3.21,3.451,4.39,5.961,5.56
	c2.129-0.14,4.22-0.54,6.289-1.04c1.101-1.02,2.181-2.05,3.23-3.12c0.21-2.52,0.33-5.04,0.29-7.57c-2.11,0.01-4.22,0.01-6.33,0
	c-0.08,2.17-0.12,4.33-0.19,6.5c-0.529,0.11-1.6,0.32-2.129,0.43c-0.721-5.56-0.461-11.23-0.23-16.82c0.58-0.15,1.76-0.45,2.34-0.6
	c0.09,2.36,0.13,4.729,0.24,7.1c2.14-0.2,4.29-0.45,6.439-0.66c-0.14-2.41-0.01-4.86-0.56-7.21c-1.99-3.83-6.79-3.47-10.42-3.1
	C190.32,8.43,188.98,10.88,187.65,12.68 M206.23,8.2c0.029,8.71-0.051,17.41,0.049,26.12c3.841-0.01,7.671-0.01,11.511,0
	c0.01-1.87,0.01-3.75,0.01-5.62c-1.5-0.01-2.989-0.01-4.479-0.02c0.02-1.98,0.05-3.96,0.1-5.94c1.301,0,2.609-0.01,3.92-0.03
	c-0.02-1.7-0.02-3.4,0-5.11c-1.34-0.01-2.67-0.02-4-0.03c-0.01-1.43-0.02-2.85-0.02-4.27c1.39,0.01,2.779,0.02,4.18,0.03
	c0.01-1.71,0.02-3.43,0.02-5.14C213.76,8.2,209.99,8.2,206.23,8.2 M219.67,8.27c0.09,8.41-0.08,16.81,0.1,25.22
	c1.561,1.86,4.82,0.38,7.051,0.84c0.029-3.56,0-7.13,0.34-10.68c1.66-0.05,3.32-0.13,4.98-0.22c0.58-0.37,1.739-1.09,2.319-1.46
	c0.47-4.08,0.399-8.2,0.05-12.29C229.971,7.21,224.6,8.46,219.67,8.27 M252.33,8.2c-0.01,8.7-0.03,17.41-0.01,26.11
	c3.729-0.06,7.459,0.15,11.18-0.07c1.63-1.33,0.359-3.75,0.48-5.56c-1.601,0.01-3.201,0.02-4.791,0.03c0-1.85,0-3.7,0-5.54
	c1.381,0,2.75,0.01,4.131,0.02c0.039-1.87,0.07-3.74,0.109-5.61c-1.42,0-2.84,0-4.25,0c0-1.07,0-3.2,0.01-4.27
	c1.461,0.01,2.931,0.01,4.41,0.02c0.01-1.71,0.021-3.42,0.041-5.13C259.87,8.19,256.1,8.2,252.33,8.2 M265.77,8.24
	c0.03,8.68,0,17.36,0.051,26.04c3.84,0.06,7.68-0.01,11.52,0.09c1.4-0.67,2.881-1.26,3.98-2.41c0.88-4.27,0.33-8.67,0.49-13
	c-0.141-3.61,0.789-7.98-2.551-10.44C274.77,8.14,270.27,8.14,265.77,8.24 M132.67,8.22c0.01,8.7-0.01,17.39-0.01,26.08
	c3.97,0.02,7.94,0.02,11.9,0.01c0.01-1.86,0.02-3.71,0.029-5.57c-1.63-0.04-3.25-0.09-4.88-0.15c0.03-1.93,0.04-3.87,0.06-5.81
	c1.32-0.01,2.64-0.021,3.96-0.03c-0.01-1.71,0-3.43,0.02-5.14c-1.34-0.04-2.68-0.08-4.02-0.12c-0.01-1.36-0.02-2.73-0.03-4.09
	c1.37-0.04,2.75-0.07,4.12-0.1c0.029-1.7,0.05-3.4,0.08-5.09C140.15,8.19,136.41,8.19,132.67,8.22 M153.811,8.3
	c-0.24,2.82-0.431,5.65-1.041,8.42c-0.68,5.88-1.799,11.71-2.49,17.58c2.4,0.02,4.801,0.01,7.201,0.02
	c-0.01-1.59-0.03-3.17-0.041-4.76c1.051,0,2.101,0,3.16,0c-0.02,1.58-0.029,3.16-0.029,4.75c2.359,0,4.729,0.01,7.1,0
	c-1.43-8.71-2.74-17.44-4.26-26.13C160.21,8.19,157.01,8.17,153.811,8.3 M235.37,8.21c0.04,1.7,0.09,3.41,0.13,5.12
	c1.37-0.01,2.74-0.01,4.12-0.02c-0.08,7-0.03,14-0.03,21c2.35,0,4.71,0.01,7.061,0.02c0.02-6.99,0.039-13.97-0.01-20.96
	c1.359-0.02,2.719-0.05,4.09-0.07c0.02-1.69,0.039-3.39,0.069-5.09C245.65,8.19,240.51,8.19,235.37,8.21 M104.6,54.76
	c-4.76,2.74-9.12,6.09-13.54,9.32C78.19,75.6,70.21,91.92,67.78,108.92c-0.84,9.18,1.48,18.15,4.52,26.721
	c5.86,15.35,17.18,28.629,31.81,36.239c6.88,3.66,14.38,6.22,22.03,7.65c5.89,1.149,11.89,0.67,17.84,0.89
	c-4.891,2.79-8.82,6.9-13.271,10.29c-5.55,5.26-10.46,11.33-13.65,18.33c-0.94,1.74-0.35,3.7,0.41,5.38
	c0.56,0.25,1.67,0.76,2.22,1.02c-0.28,0.801-0.56,1.61-0.84,2.41c-0.18,1.041-0.35,2.08-0.53,3.12c0.5-0.05,1.52-0.14,2.02-0.189
	c-0.06-2.66,0.58-5.25,2.94-6.79c0.24,2.189-0.66,4.75,1.04,6.55c0.09-0.94,0.29-2.82,0.38-3.76c0.68-1.36,1.55-2.561,3.03-3.101
	c1.13,1.641,2.57,3.021,3.96,4.45c0.48,0.59,0.97,1.19,1.45,1.8c0.07-0.5,0.19-1.479,0.26-1.97c-0.83-1.67-1.59-3.38-2.32-5.09
	c3.02-0.83,6.01-1.8,8.99-2.75c0.99-0.38,1.98-0.761,2.97-1.13c1.29-0.36,2.59-0.71,3.89-1.07c2.641-0.561,5.221-1.48,7.93-1.68
	c1.021,4.81,1.58,9.74,1.74,14.67c0.521,0.02,1.57,0.06,2.09,0.08c-0.14-2.68-0.31-5.36-0.56-8.03c-0.51-2.479-0.75-4.99-1.03-7.5
	c1.99-0.53,4-0.95,6.03-1.271c4.979-0.989,10.011-1.84,14.92-3.189c1.45-0.359,2.921-0.62,4.39-0.87
	c0.261,2.69,0.631,5.39,1.551,7.96c1.77-2.99,0.939-6.21,0.289-9.359c1.32,0.629,2.311,1.609,2.951,2.939
	c0.16,1.7,0.879,3.2,2.02,4.46c0.77-2.989-0.29-5.87-1.29-8.649c2.13,0.83,4.069,2.09,5.181,4.149c0.43-0.55,0.859-1.1,1.299-1.64
	c-0.26-0.33-0.789-0.99-1.06-1.32c-0.909-0.859-1.83-1.71-2.771-2.54c-0.5-1.069-0.989-2.13-1.449-3.21
	c-2.5-2.77-5.98-4.189-9.28-5.73c-0.909-0.489-1.83-0.979-2.739-1.47c-2.73-0.899-5.461-1.819-8.211-2.649
	c-5.979-2-12.26-2.65-18.4-3.95c7.74-0.88,14.811-4.39,21.761-7.681c2.01-0.93,3.989-1.989,5.71-3.409
	c4.59-4.08,9.92-7.39,13.57-12.44c4.449-4.31,6.789-10.1,9.699-15.449c1.42-3.381,2.73-6.801,3.681-10.341
	c1.42-4.78,1.55-9.76,2.31-14.659c-0.25-10-2.06-20.061-6.449-29.11c-3.16-8.4-9.23-15.16-15.65-21.22
	c-5.77-4.35-11.24-9.44-18.26-11.7c-10.91-4.96-22.98-7.11-34.93-6.3C122.45,47.8,113.28,50.81,104.6,54.76z"/>
<path fill="#010101" d="M6.57,8.55c3.23-0.41,6.5-0.39,9.73,0c3.46,2.29,3.47,6.53,3.4,10.24c-2.41,0.01-4.83,0.01-7.24,0.02
	c0.01-2.05,0-4.1-0.03-6.16c-0.51-0.09-1.53-0.28-2.04-0.38C9.6,18.21,9.04,24.51,10.8,30.32c2.56-1.77,1.43-5.02,1.75-7.58
	c2.35,0,4.71,0,7.07,0c-0.14,2.84,0.37,6.01-1.4,8.46c-1.29,1.58-3.28,2.29-5.01,3.25c-2.21-0.09-4.39-0.49-6.54-1.01
	c-1.04-1.05-2.05-2.12-3.03-3.22c-0.38-5.42-0.37-10.87-0.19-16.3C3.35,11.66,5.25,10.13,6.57,8.55z"/>
<path fill="#010101" d="M21.73,8.25c2.27-0.04,4.54-0.05,6.8-0.06c0,3.12,0,6.24-0.03,9.36l2.09,0.01
	c-0.04-3.12-0.04-6.24-0.04-9.36c2.38,0,4.76,0,7.14,0.03c-0.2,8.5,0.3,17.01-0.34,25.5c0.25,0.07,0.75,0.23,1,0.31
	c1.16-3.2,1.11-6.63,1.79-9.93c0.26-2.34,0.43-4.71,1.04-7c0.35-2.88,0.57-5.78,0.74-8.68c3.39-0.33,6.8-0.32,10.19-0.04
	c0.19,4.29,1.1,8.5,1.74,12.73c0.77,4.39,1.52,8.78,1.95,13.22c-2.3-0.03-4.61,0.05-6.9-0.17c-0.17-1.62-0.16-3.26-0.24-4.89
	c-3.86-0.88-2.84,2.9-3.06,5.03c-5.02,0.03-10.02,0.27-15.04-0.04c-0.01-3.68-0.02-7.37,0.04-11.06l-2.11-0.03
	c0.05,3.71,0.05,7.42,0.03,11.14c-2.26-0.01-4.52-0.01-6.78-0.02C21.74,25.62,21.74,16.93,21.73,8.25 M45.87,24.25
	c0.18,0.3,0.54,0.88,0.72,1.18c0.51-0.05,1.51-0.15,2.02-0.2c-0.46-3.83-0.99-7.64-1.55-11.45C46.49,17.25,46.46,20.79,45.87,24.25z
	"/>
<path fill="#010101" d="M56.78,8.29c2.49-0.09,4.98-0.1,7.47-0.06c-0.04,6.82,0.01,13.64-0.03,20.46c0.87,0,2.61,0.01,3.48,0.01
	c0,1.87,0,3.74-0.01,5.62c-3.72,0-7.43,0.01-11.15-0.04c0.09-0.811,0.27-2.44,0.35-3.25C56.7,23.45,56.86,15.87,56.78,8.29z"/>
<path fill="#010101" d="M69.16,8.19c2.39,0,4.78,0.02,7.17,0.06c-0.05,6.81,0.01,13.63-0.04,20.44c1.39,0.01,2.77,0.01,4.16,0.02
	c0,1.86,0,3.72-0.01,5.58c-3.94-0.08-7.95,0.43-11.82-0.52C69.29,25.26,69.21,16.72,69.16,8.19z"/>
<path fill="#010101" d="M82.42,8.2c3.77,0,7.53-0.01,11.3,0c-0.01,1.71-0.04,3.42-0.06,5.13c-1.5-0.01-2.99-0.02-4.49-0.02
	c0.03,1.44,0.06,2.88,0.1,4.31c1.41-0.02,2.83-0.04,4.25-0.07c-0.02,1.74-0.02,3.47-0.01,5.21c-1.39-0.01-2.78-0.03-4.17-0.04
	c-0.08,1.97-0.13,3.93-0.18,5.9c1.65,0.33,3.86-0.59,5.14,0.77c-0.28,1.54,0.8,3.75-0.7,4.85c-3.71,0.22-7.44,0.01-11.16,0.08
	C82.41,25.61,82.45,16.9,82.42,8.2z"/>
<path fill="#010101" d="M96.21,8.19c2.01,0.01,4.03,0.02,6.05,0.04c0.88,3.5,1.42,7.13,3.11,10.37c0.3-3.45,0.14-6.91,0.13-10.37
	c1.97-0.02,3.94-0.04,5.91-0.05c-0.02,8.73,0.01,17.45-0.02,26.18c-2.07-0.05-4.15,0.05-6.21-0.21c-0.84-2.37-1.41-4.83-1.97-7.27
	c-0.5-1.36-0.93-2.73-1.4-4.09c-0.01,3.84,0.05,7.68,0,11.51c-1.85,0.01-3.7,0.02-5.55,0.04C96.18,25.62,96.24,16.9,96.21,8.19z"/>
<path fill="#010101" d="M117.47,8.53c3.69-0.12,8.47-1.44,11.17,1.88c1.78,1.9,1.6,4.72,1.84,7.13c-2.43,0.04-4.86,0.05-7.28,0.04
	c0.02-1.3,0.06-2.6,0.09-3.9c-0.38-0.47-1.15-1.4-1.53-1.87c-0.66,5.88-0.32,11.83-0.23,17.74c0.44-0.06,1.33-0.18,1.77-0.25
	c0.45-3.3-1.06-6.34-1.31-9.58c2.79-0.03,5.59-0.03,8.38-0.01c0.01,4.86,0.01,9.72-0.01,14.58c-1.56,0.01-3.11,0.02-4.66,0.02
	c-0.11-0.44-0.33-1.33-0.43-1.77c-1.61,1.15-3.43,1.91-5.43,1.99c-2.13-1.36-5.2-2.55-5.34-5.49c-0.36-5.32-0.33-10.69-0.02-16.02
	C114.5,11.07,116.37,9.93,117.47,8.53z"/>
<path fill="#010101" d="M168.52,15.02c-0.199-3.1,2.101-6.56,5.4-6.67c2.5-0.35,5.03-0.02,7.53,0.2c3.67,2.34,3.44,6.83,3.26,10.65
	c-2.08,0-4.16,0-6.229,0.02c-0.121-2.3-0.221-4.61-0.67-6.88c-0.541,0.07-1.601,0.21-2.141,0.28c-0.12,5.55-0.1,11.11-0.01,16.66
	c0.49,0.12,1.47,0.35,1.96,0.46c0.67-2.14,0.739-4.39,0.79-6.61c2.15,0.03,4.311,0.05,6.46,0.08c-0.12,1.99-0.16,3.99-0.5,5.95
	c-1.95,6.82-13.99,7.03-15.54-0.11C168.18,24.41,168.529,19.69,168.52,15.02z"/>
<path fill="#010101" d="M187.65,12.68c1.33-1.8,2.67-4.25,5.22-4.31c3.63-0.37,8.43-0.73,10.42,3.1c0.55,2.35,0.42,4.8,0.56,7.21
	c-2.149,0.21-4.3,0.46-6.439,0.66c-0.11-2.37-0.15-4.74-0.24-7.1c-0.58,0.15-1.76,0.45-2.34,0.6c-0.23,5.59-0.49,11.26,0.23,16.82
	c0.529-0.11,1.6-0.32,2.129-0.43c0.07-2.17,0.11-4.33,0.19-6.5c2.11,0.01,4.22,0.01,6.33,0c0.04,2.53-0.08,5.05-0.29,7.57
	c-1.05,1.07-2.13,2.1-3.23,3.12c-2.069,0.5-4.16,0.9-6.289,1.04c-2.51-1.17-5.66-2.35-5.961-5.56
	C187.15,23.55,187.76,18.08,187.65,12.68z"/>
<path fill="#010101" d="M206.23,8.2c3.76,0,7.529,0,11.289-0.01c0,1.71-0.01,3.43-0.02,5.14c-1.4-0.01-2.79-0.02-4.18-0.03
	c0,1.42,0.01,2.84,0.02,4.27c1.33,0.01,2.66,0.02,4,0.03c-0.02,1.71-0.02,3.41,0,5.11c-1.311,0.02-2.619,0.03-3.92,0.03
	c-0.05,1.979-0.08,3.96-0.1,5.94c1.49,0.01,2.979,0.01,4.479,0.02c0,1.87,0,3.75-0.01,5.62c-3.84-0.01-7.67-0.01-11.511,0
	C206.18,25.61,206.26,16.91,206.23,8.2z"/>
<path fill="#010101" d="M219.67,8.27c4.93,0.19,10.301-1.06,14.84,1.41c0.35,4.09,0.42,8.21-0.05,12.29
	c-0.58,0.37-1.739,1.09-2.319,1.46c-1.66,0.09-3.32,0.17-4.98,0.22c-0.34,3.55-0.311,7.12-0.34,10.68
	c-2.23-0.46-5.49,1.02-7.051-0.84C219.59,25.08,219.76,16.68,219.67,8.27 M226.84,12.39c0.01,1.92,0.01,3.84,0.01,5.76
	c0.28,0.35,0.84,1.05,1.121,1.4c0.459-0.71,0.93-1.42,1.399-2.13c-0.05-1.55-0.101-3.11-0.17-4.67
	C228.41,12.63,227.62,12.51,226.84,12.39z"/>
<path fill="#010101" d="M252.33,8.2c3.77,0,7.54-0.01,11.311,0c-0.021,1.71-0.031,3.42-0.041,5.13c-1.479-0.01-2.949-0.01-4.41-0.02
	c-0.01,1.07-0.01,3.2-0.01,4.27c1.41,0,2.83,0,4.25,0c-0.039,1.87-0.07,3.74-0.109,5.61c-1.381-0.01-2.75-0.02-4.131-0.02
	c0,1.84,0,3.69,0,5.54c1.59-0.01,3.19-0.02,4.791-0.03c-0.121,1.81,1.149,4.23-0.48,5.56c-3.721,0.22-7.45,0.01-11.18,0.07
	C252.3,25.61,252.32,16.9,252.33,8.2z"/>
<path fill="#010101" d="M265.77,8.24c4.5-0.1,9-0.1,13.49,0.28c3.34,2.46,2.41,6.83,2.551,10.44c-0.16,4.33,0.39,8.73-0.49,13
	c-1.1,1.15-2.58,1.74-3.98,2.41c-3.84-0.1-7.68-0.03-11.52-0.09C265.77,25.6,265.8,16.92,265.77,8.24 M272.92,13.83
	c-0.15,5.44-0.12,10.89,0.061,16.34c2.529-1.98,2.06-5.37,2.14-8.2c-0.07-3.47,0.39-7.11-1.19-10.35
	C273.68,12.17,273.17,13.28,272.92,13.83z"/>
<path fill="#010101" d="M132.67,8.22c3.74-0.03,7.48-0.03,11.23-0.01c-0.03,1.69-0.051,3.39-0.08,5.09
	c-1.37,0.03-2.75,0.06-4.12,0.1c0.01,1.36,0.02,2.73,0.03,4.09c1.34,0.04,2.68,0.08,4.02,0.12c-0.02,1.71-0.029,3.43-0.02,5.14
	c-1.32,0.01-2.641,0.02-3.96,0.03c-0.02,1.939-0.03,3.88-0.06,5.81c1.63,0.06,3.25,0.11,4.88,0.15c-0.01,1.86-0.02,3.71-0.029,5.57
	c-3.96,0.01-7.931,0.01-11.9-0.01C132.66,25.61,132.68,16.92,132.67,8.22z"/>
<path fill="#010101" d="M153.811,8.3c3.199-0.13,6.399-0.11,9.6-0.12c1.52,8.69,2.83,17.42,4.26,26.13c-2.37,0.01-4.74,0-7.1,0
	c0-1.59,0.01-3.17,0.029-4.75c-1.06,0-2.109,0-3.16,0c0.011,1.59,0.031,3.17,0.041,4.76c-2.4-0.01-4.801,0-7.201-0.02
	c0.691-5.87,1.811-11.7,2.49-17.58C153.38,13.95,153.57,11.12,153.811,8.3 M157.49,25.28c0.96,0.01,1.92,0.02,2.88,0.04
	c-0.12-3.89-0.591-7.75-1.229-11.59C158.51,17.57,158.09,21.44,157.49,25.28z"/>
<path fill="#010101" d="M235.37,8.21c5.14-0.02,10.28-0.02,15.43,0c-0.03,1.7-0.05,3.4-0.069,5.09c-1.371,0.02-2.73,0.05-4.09,0.07
	c0.049,6.99,0.029,13.97,0.01,20.96c-2.351-0.01-4.711-0.02-7.061-0.02c0-7-0.05-14,0.03-21c-1.38,0.01-2.75,0.01-4.12,0.02
	C235.46,11.62,235.41,9.91,235.37,8.21z"/>
<path fill="#FFFFFF" d="M226.84,12.39c0.78,0.12,1.57,0.24,2.36,0.36c0.069,1.56,0.12,3.12,0.17,4.67
	c-0.47,0.71-0.94,1.42-1.399,2.13c-0.281-0.35-0.841-1.05-1.121-1.4C226.85,16.23,226.85,14.31,226.84,12.39z"/>
<path fill="#FFFFFF" d="M272.92,13.83c0.25-0.55,0.76-1.66,1.01-2.21c1.58,3.24,1.12,6.88,1.19,10.35c-0.08,2.83,0.39,6.22-2.14,8.2
	C272.8,24.72,272.77,19.27,272.92,13.83z"/>
<path fill="#FFFFFF" d="M45.87,24.25c0.59-3.46,0.62-7,1.19-10.47c0.56,3.81,1.09,7.62,1.55,11.45c-0.51,0.05-1.51,0.15-2.02,0.2
	C46.41,25.13,46.05,24.55,45.87,24.25z"/>
<path fill="#FFFFFF" d="M157.49,25.28c0.6-3.84,1.02-7.71,1.65-11.55c0.639,3.84,1.109,7.7,1.229,11.59
	C159.41,25.3,158.45,25.29,157.49,25.28z"/>
<path fill="#010101" d="M104.6,54.76c8.68-3.95,17.85-6.96,27.37-7.95c11.95-0.81,24.02,1.34,34.93,6.3
	c7.02,2.26,12.49,7.35,18.26,11.7c6.42,6.06,12.49,12.82,15.65,21.22c4.39,9.05,6.199,19.11,6.449,29.11
	c-0.76,4.899-0.89,9.879-2.31,14.659c-0.95,3.54-2.261,6.96-3.681,10.341c-2.91,5.35-5.25,11.14-9.699,15.449
	c-3.65,5.051-8.98,8.36-13.57,12.44c-1.721,1.42-3.7,2.479-5.71,3.409c-6.95,3.291-14.021,6.801-21.761,7.681
	c6.141,1.3,12.421,1.95,18.4,3.95c2.75,0.83,5.48,1.75,8.211,2.649c0.909,0.49,1.83,0.98,2.739,1.47c3.3,1.541,6.78,2.961,9.28,5.73
	c0.46,1.08,0.949,2.141,1.449,3.21c0.94,0.83,1.861,1.681,2.771,2.54c0.271,0.33,0.8,0.99,1.06,1.32
	c-0.439,0.54-0.869,1.09-1.299,1.64c-1.111-2.06-3.051-3.319-5.181-4.149c1,2.779,2.06,5.66,1.29,8.649
	c-1.141-1.26-1.859-2.76-2.02-4.46c-0.641-1.33-1.631-2.311-2.951-2.939c0.65,3.149,1.48,6.369-0.289,9.359
	c-0.92-2.57-1.29-5.27-1.551-7.96c-1.469,0.25-2.939,0.511-4.39,0.87c-4.909,1.35-9.94,2.2-14.92,3.189
	c-2.03,0.32-4.04,0.74-6.03,1.271c0.28,2.51,0.521,5.021,1.03,7.5c0.25,2.67,0.42,5.351,0.56,8.03
	c-0.52-0.021-1.569-0.061-2.09-0.08c-0.16-4.93-0.72-9.86-1.74-14.67c-2.709,0.199-5.289,1.119-7.93,1.68
	c-1.3,0.36-2.6,0.71-3.89,1.07c-0.99,0.369-1.98,0.75-2.97,1.13c-2.98,0.95-5.97,1.92-8.99,2.75c0.73,1.71,1.49,3.42,2.32,5.09
	c-0.07,0.49-0.19,1.47-0.26,1.97c-0.48-0.609-0.97-1.21-1.45-1.8c-1.39-1.43-2.83-2.81-3.96-4.45c-1.48,0.54-2.35,1.74-3.03,3.101
	c-0.09,0.939-0.29,2.819-0.38,3.76c-1.7-1.8-0.8-4.36-1.04-6.55c-2.36,1.54-3,4.13-2.94,6.79c-0.5,0.05-1.52,0.14-2.02,0.189
	c0.18-1.04,0.35-2.079,0.53-3.12c0.28-0.8,0.56-1.609,0.84-2.41c-0.55-0.26-1.66-0.77-2.22-1.02c-0.76-1.68-1.35-3.64-0.41-5.38
	c3.19-7,8.1-13.07,13.65-18.33c4.45-3.39,8.38-7.5,13.271-10.29c-5.951-0.22-11.951,0.26-17.84-0.89
	c-7.65-1.431-15.15-3.99-22.03-7.65c-14.63-7.61-25.95-20.89-31.81-36.239c-3.04-8.57-5.36-17.541-4.52-26.721
	c2.43-17,10.41-33.32,23.28-44.84C95.48,60.85,99.84,57.5,104.6,54.76 M122.95,49.9c-4.41,1.27-8.75,2.79-13.16,4.06
	c-5.59,2.3-10.3,6.17-15.35,9.43c-5.18,3.83-9.44,8.78-12.93,14.16c-6.3,8.77-10.27,19.22-11.28,29.98l-0.67-0.021
	c-0.01,4.16-0.48,8.391,0.43,12.49c1.46,8.54,3.77,17.04,8.28,24.51c4.47,7.35,9.53,14.68,16.79,19.521
	c5.18,4.13,10.84,7.579,17.09,9.81c4.81,1.84,9.79,3.15,14.8,4.311c6.08,0.66,12.23,0.729,18.329,0.289
	c-1.34-2.659-2.839-5.25-4.579-7.67c0.43-0.449,0.85-0.89,1.28-1.34c2.161,2.51,3.68,5.44,5.4,8.24
	c4.591,0.32,9.08-1.439,13.38-2.89c4.82-2.05,9.9-3.671,14.28-6.62c8.69-6.2,16.89-13.57,22.101-23.03
	c2.229-4.88,4.549-9.75,6.069-14.92c3.479-12.899,2.78-26.78-1.989-39.27c-0.461-1.03-0.9-2.07-1.32-3.12
	c-4.021,5.61-11.211,8.17-17.93,7.53C175.1,93.2,167.3,91.27,162.8,85.17c-2.59-3.36-4.42-8.26-1.53-12.02
	c4.07-4.58,10.61-6.55,16.601-6.36c1.05,0.44,2.11,0.85,3.19,1.23c2.379,0.51,4.689,1.26,7.039,1.91
	c-7.449-7.6-16.35-14.24-26.68-17.27C149.221,47.99,135.7,47.25,122.95,49.9 M162.721,73.19c10.51,0.11,20.77,2.62,31.189,3.67
	c-2.96-5.24-9.2-6.29-14.52-7.63C173.58,67.72,167.5,69.88,162.721,73.19 M161.811,75.44c-0.121,1.05-0.23,2.1-0.351,3.16
	c2.16,0.84,4.681,1.02,6.38,2.77c-1.49-0.17-4.46-0.52-5.949-0.69c2.619,5.43,7.569,9.37,13.399,10.84
	c7.16,3.18,15.729,2.51,21.989-2.34c0.141-0.85,0.41-2.56,0.551-3.42c-7.971-0.34-15.971-1.1-23.76-2.91
	c-2.11-0.53-4.6-0.36-6.18-2.14c3.139-0.06,6.209,0.6,9.299,1.06c0.951-1.91,2.201-3.66,3.791-5.08
	C174.62,75.98,168.23,74.87,161.811,75.44 M183.35,77.2c1.311,1.23,2.61,2.49,3.891,3.75c-0.04,0.58-0.11,1.74-0.15,2.32
	c3.66,0.32,7.33,0.6,10.98,1.06c-0.26-0.57-0.78-1.7-1.041-2.26C194.87,76.76,187.75,78.47,183.35,77.2 M145.08,181.8
	c-8.13,6.21-16.26,12.69-22.31,21.03c-1.74,3.07-3.82,6.14-3.79,9.82c0.55,0.039,1.65,0.109,2.2,0.149c0.5-2.17,1.57-4.08,3.49-5.27
	c1.75-0.101,3.5-0.2,5.25-0.311c0.6,0.57,1.22,1.14,1.83,1.71l-2.74,1.2c3.8,0.99,7.45-1.41,11.22-1.79
	c-2.31,0.051-4.61,0.13-6.92,0.28c-0.8-0.55-1.6-1.101-2.39-1.66c4.39-0.44,8.72-1.3,13.09-1.94c1.99-0.39,4.02-0.6,6.04-0.84
	c1.33-0.34,2.66-0.649,4.011-0.93c-0.391-2.859-1.141-5.65-1.881-8.43l-0.47-0.61c-0.12-0.62-0.34-1.851-0.45-2.47
	c-1.779-3.99-3.15-8.16-5.21-12.03C145.811,180.23,145.32,181.28,145.08,181.8 M149.109,181.22c3.24,6.931,5.42,14.261,7.44,21.61
	c1.56-0.51,3.101-1.04,4.65-1.57c3.81-1.42,7.75-2.439,11.69-3.449c1.709-0.57,3.42-1.17,5.129-1.78
	c1.28-0.421,2.59-0.771,3.891-1.12c1.9-0.15,3.8-0.33,5.689-0.54c-2.67-2.63-6.029-4.31-9.459-5.69
	c-1.41-0.529-2.801-1.08-4.19-1.609c-1-0.34-2-0.68-2.99-1.021c-2.61-0.75-5.229-1.44-7.851-2.14c-1.34-0.35-2.68-0.7-3.989-1.09
	C155.79,182.24,152.48,181.5,149.109,181.22 M126.33,210.4c-0.65,1.569-0.12,2.08,1.59,1.539
	C128.58,210.359,128.05,209.84,126.33,210.4z"/>
<path fill="#FFFFFF" d="M122.95,49.9c12.75-2.65,26.271-1.91,38.47,2.76c10.33,3.03,19.23,9.67,26.68,17.27
	c-2.35-0.65-4.66-1.4-7.039-1.91c-1.08-0.38-2.141-0.79-3.19-1.23c-5.99-0.19-12.53,1.78-16.601,6.36
	c-2.89,3.76-1.06,8.66,1.53,12.02c4.5,6.1,12.3,8.03,19.171,10.18c6.719,0.64,13.909-1.92,17.93-7.53
	c0.42,1.05,0.859,2.09,1.32,3.12c4.77,12.49,5.469,26.371,1.989,39.27c-1.521,5.17-3.84,10.04-6.069,14.92
	c-5.211,9.46-13.41,16.83-22.101,23.03c-4.38,2.949-9.46,4.57-14.28,6.62c-4.3,1.45-8.789,3.21-13.38,2.89
	c-1.72-2.8-3.239-5.73-5.4-8.24c-0.43,0.45-0.85,0.891-1.28,1.34c1.74,2.42,3.239,5.011,4.579,7.67
	c-6.099,0.44-12.25,0.371-18.329-0.289c-5.01-1.16-9.99-2.471-14.8-4.311c-6.25-2.23-11.91-5.68-17.09-9.81
	c-7.26-4.841-12.32-12.171-16.79-19.521c-4.51-7.47-6.82-15.97-8.28-24.51c-0.91-4.1-0.44-8.33-0.43-12.49l0.67,0.021
	c1.01-10.76,4.98-21.21,11.28-29.98c3.49-5.38,7.75-10.33,12.93-14.16c5.05-3.26,9.76-7.13,15.35-9.43
	C114.2,52.69,118.54,51.17,122.95,49.9 M116.96,64.03c-6.57,1.53-13.28,5.13-16.18,11.54c-1.62,3.67,0.99,7.12,2.96,10.01
	c3.55,3.93,8.99,4.57,13.91,5.44c4.51,1.1,9.08-0.15,13.55-0.8c7.65-0.89,15.21-6.42,17.1-14.08c-0.34-1.24-0.649-2.49-0.94-3.74
	c-2.409-2.77-4.929-5.69-8.379-7.18C132.04,62.36,124.18,62.01,116.96,64.03 M187.41,102.99c-0.641,2.46,1.13,4.16,2.35,6.04
	c0.051,2.02-0.17,4.05-0.13,6.079c2.12-0.909,2.351-3.35,2.74-5.299C191.529,107.04,189.57,104.83,187.41,102.99 M161.029,110.9
	c-9.67,2.991-19.319,6.081-28.709,9.831c0.09,0.489,0.26,1.449,0.35,1.939c4.44-1.35,8.59-3.47,12.971-4.97
	c10.6-2.67,21-7.66,32.219-6.27c-2.539,5.57-8.01,8.72-12.529,12.47c0.01,0.52,0.029,1.56,0.04,2.08
	c4.78-2.561,8.72-6.391,12.409-10.291c1.58-1.64,0.941-4.109,1.051-6.149C172.971,107.98,166.859,109.88,161.029,110.9
	 M121.18,116.95c0.21,1.42,0.45,2.84,0.77,4.229c0.47-1.399,0.92-2.81,1.37-4.21c-0.03-0.399-0.09-1.2-0.12-1.6
	C122.52,115.9,121.85,116.42,121.18,116.95z"/>
<path fill="#010101" d="M116.96,64.03c7.22-2.021,15.08-1.67,22.02,1.189c3.45,1.49,5.97,4.41,8.379,7.18
	c0.291,1.25,0.601,2.5,0.94,3.74c-1.89,7.66-9.45,13.19-17.1,14.08c-4.47,0.65-9.04,1.9-13.55,0.8c-4.92-0.87-10.36-1.51-13.91-5.44
	c-1.97-2.89-4.58-6.34-2.96-10.01C103.68,69.16,110.39,65.56,116.96,64.03 M103.54,72.91c13.61-1.78,27.36-1.63,41.06-1.46
	c-2.08-2.02-4.25-4.13-7.05-5.1C126.14,62.07,112.6,64.82,103.54,72.91 M104.33,74.65c-2.29,0.4-1.85,3.2-2.18,4.91
	c2.15,0.57,5.54-0.88,6.35,2c-1.76-0.24-3.51-0.53-5.25-0.88c0.05,0.65,0.14,1.95,0.19,2.61c5.08,5.12,12.43,7.1,19.5,6.54
	c8.41,0.35,16.81-2.97,22.3-9.42c-6.08,0.68-12.35,0.18-18.3,1.68c-0.23-0.01-0.68-0.04-0.91-0.05c-5.58-0.74-11.25-0.15-16.87-0.27
	c0.01-0.17,0.02-0.51,0.02-0.68c4.2-1.28,8.83-0.13,13.21-0.5c-0.94-3.29,0.41-6.18,3.12-8.11
	C118.43,72.99,111.32,73.4,104.33,74.65 M125.7,72.58c2.63,0.31,4.2,2.39,5.7,4.25c-0.08,0.76-0.25,2.27-0.33,3.03
	c4.93-0.14,9.87-0.49,14.709-1.53c-0.039-1.82-0.09-3.64-0.18-5.46C138.98,72.37,132.33,72.22,125.7,72.58z"/>
<path fill="#FFFFFF" d="M103.54,72.91c9.06-8.09,22.6-10.84,34.01-6.56c2.8,0.97,4.97,3.08,7.05,5.1
	C130.9,71.28,117.15,71.13,103.54,72.91z"/>
<path fill="#FFFFFF" d="M162.721,73.19c4.779-3.31,10.859-5.47,16.67-3.96c5.319,1.34,11.56,2.39,14.52,7.63
	C183.49,75.81,173.23,73.3,162.721,73.19z"/>
<path fill="#FFFFFF" d="M104.33,74.65c6.99-1.25,14.1-1.66,21.18-2.17c-2.71,1.93-4.06,4.82-3.12,8.11
	c-4.38,0.37-9.01-0.78-13.21,0.5c0,0.17-0.01,0.51-0.02,0.68c5.62,0.12,11.29-0.47,16.87,0.27c0.23,0.01,0.68,0.04,0.91,0.05
	c5.95-1.5,12.22-1,18.3-1.68c-5.49,6.45-13.89,9.77-22.3,9.42c-7.07,0.56-14.42-1.42-19.5-6.54c-0.05-0.66-0.14-1.96-0.19-2.61
	c1.74,0.35,3.49,0.64,5.25,0.88c-0.81-2.88-4.2-1.43-6.35-2C102.48,77.85,102.04,75.05,104.33,74.65z"/>
<path fill="#FFFFFF" d="M125.7,72.58c6.63-0.36,13.28-0.21,19.899,0.29c0.09,1.82,0.141,3.64,0.18,5.46
	c-4.839,1.04-9.779,1.39-14.709,1.53c0.08-0.76,0.25-2.27,0.33-3.03C129.9,74.97,128.33,72.89,125.7,72.58z"/>
<path fill="#FFFFFF" d="M161.811,75.44c6.42-0.57,12.81,0.54,19.17,1.25c-1.59,1.42-2.84,3.17-3.791,5.08
	c-3.09-0.46-6.16-1.12-9.299-1.06c1.58,1.78,4.069,1.61,6.18,2.14c7.789,1.81,15.789,2.57,23.76,2.91
	c-0.141,0.86-0.41,2.57-0.551,3.42c-6.26,4.85-14.829,5.52-21.989,2.34c-5.83-1.47-10.78-5.41-13.399-10.84
	c1.489,0.17,4.459,0.52,5.949,0.69c-1.699-1.75-4.22-1.93-6.38-2.77C161.58,77.54,161.689,76.49,161.811,75.44z"/>
<path fill="#FFFFFF" d="M183.35,77.2c4.4,1.27,11.521-0.44,13.68,4.87c0.261,0.56,0.781,1.69,1.041,2.26
	c-3.65-0.46-7.32-0.74-10.98-1.06c0.04-0.58,0.11-1.74,0.15-2.32C185.96,79.69,184.66,78.43,183.35,77.2z"/>
<path fill="#010101" d="M187.41,102.99c2.16,1.84,4.119,4.05,4.96,6.82c-0.39,1.95-0.62,4.39-2.74,5.299
	c-0.04-2.029,0.181-4.06,0.13-6.079C188.54,107.15,186.77,105.45,187.41,102.99z"/>
<path fill="#010101" d="M161.029,110.9c5.83-1.02,11.941-2.92,17.801-1.36c-0.109,2.04,0.529,4.51-1.051,6.149
	c-3.689,3.9-7.629,7.73-12.409,10.291c-0.011-0.521-0.03-1.561-0.04-2.08c4.52-3.75,9.99-6.9,12.529-12.47
	c-11.219-1.39-21.619,3.6-32.219,6.27c-4.381,1.5-8.531,3.62-12.971,4.97c-0.09-0.49-0.26-1.45-0.35-1.939
	C141.71,116.98,151.359,113.891,161.029,110.9z"/>
<path fill="#010101" d="M121.18,116.95c0.67-0.53,1.34-1.05,2.02-1.58c0.03,0.399,0.09,1.2,0.12,1.6c-0.45,1.4-0.9,2.811-1.37,4.21
	C121.63,119.79,121.39,118.37,121.18,116.95z"/>
<path fill="#FFFFFF" d="M145.08,181.8c0.24-0.52,0.73-1.569,0.97-2.09c2.06,3.87,3.431,8.04,5.21,12.03
	c0.11,0.619,0.33,1.85,0.45,2.47l0.47,0.61c0.74,2.779,1.49,5.57,1.881,8.43c-1.351,0.28-2.681,0.59-4.011,0.93
	c-2.021,0.24-4.05,0.45-6.04,0.84c-4.37,0.641-8.7,1.5-13.09,1.94c0.79,0.56,1.59,1.11,2.39,1.66c2.31-0.15,4.61-0.229,6.92-0.28
	c-3.77,0.38-7.42,2.78-11.22,1.79l2.74-1.2c-0.61-0.57-1.23-1.14-1.83-1.71c-1.75,0.11-3.5,0.21-5.25,0.311
	c-1.92,1.189-2.99,3.1-3.49,5.27c-0.55-0.04-1.65-0.11-2.2-0.149c-0.03-3.681,2.05-6.75,3.79-9.82
	C128.82,194.49,136.95,188.01,145.08,181.8z"/>
<path fill="#FFFFFF" d="M149.109,181.22c3.371,0.28,6.681,1.021,10.011,1.601c1.31,0.39,2.649,0.74,3.989,1.09
	c2.621,0.699,5.24,1.39,7.851,2.14c0.99,0.341,1.99,0.681,2.99,1.021c1.39,0.529,2.78,1.08,4.19,1.609
	c3.43,1.381,6.789,3.061,9.459,5.69c-1.89,0.21-3.789,0.39-5.689,0.54c-1.301,0.35-2.61,0.699-3.891,1.12
	c-1.709,0.61-3.42,1.21-5.129,1.78c-3.94,1.01-7.881,2.029-11.69,3.449c-1.55,0.53-3.091,1.061-4.65,1.57
	C154.529,195.48,152.35,188.15,149.109,181.22z"/>
<path fill="#FFFFFF" d="M126.33,210.4c1.72-0.561,2.25-0.041,1.59,1.539C126.21,212.48,125.68,211.97,126.33,210.4z"/>
</svg>
