<?xml version="1.0" encoding="UTF-8" ?>
<!DOCTYPE svg PUBLIC "-//W3C//DTD SVG 1.1//EN" "http://www.w3.org/Graphics/SVG/1.1/DTD/svg11.dtd">
<svg width="1481pt" height="1160pt" viewBox="0 0 1481 1160" version="1.1" xmlns="http://www.w3.org/2000/svg">
<path fill="#ffffff" opacity="1.00" d=" M 0.00 0.00 L 1481.00 0.00 L 1481.00 1160.00 L 0.00 1160.00 L 0.00 0.00 M 689.36 17.12 C 691.06 25.69 698.43 31.83 706.04 35.30 C 670.28 57.82 631.08 74.12 595.00 96.07 C 558.16 117.92 523.24 143.59 494.02 175.07 C 471.14 199.62 451.75 227.37 435.94 256.95 C 431.76 290.48 426.42 324.21 428.04 358.12 C 429.34 382.57 436.51 406.38 446.68 428.54 C 461.77 461.05 483.24 490.27 507.61 516.42 C 534.29 544.80 564.45 570.16 598.02 590.05 C 591.63 599.55 582.98 607.51 572.99 613.09 C 555.77 622.82 536.00 626.10 516.92 630.24 C 498.82 633.91 481.37 640.12 463.95 646.13 C 440.51 654.45 417.44 664.15 396.10 677.01 C 367.27 694.20 341.98 718.35 326.65 748.47 C 322.61 757.54 322.67 767.66 321.10 777.30 L 321.68 777.48 C 305.70 773.73 288.59 773.77 272.88 778.71 C 255.97 783.97 241.95 797.37 235.74 813.92 C 230.11 828.84 229.40 845.32 231.95 860.95 C 234.69 877.86 244.11 893.89 258.65 903.24 C 256.49 908.46 254.40 913.71 252.07 918.86 C 245.61 933.89 236.34 947.50 226.55 960.53 C 211.10 981.12 193.19 1000.09 180.94 1022.91 C 172.51 1038.49 167.91 1056.19 168.34 1073.93 C 168.83 1089.34 171.95 1104.72 177.64 1119.05 C 183.56 1118.49 188.57 1114.03 189.66 1108.17 C 193.02 1092.59 188.61 1076.73 188.99 1061.02 C 188.84 1053.83 189.42 1045.47 195.31 1040.46 C 206.00 1058.09 208.90 1079.40 220.65 1096.47 C 225.97 1104.45 234.30 1110.39 243.74 1112.34 C 246.10 1101.17 242.87 1089.82 238.42 1079.61 C 231.87 1064.49 223.08 1049.82 221.37 1033.11 C 219.72 1019.63 224.30 1006.17 231.48 994.90 C 247.52 1020.05 251.70 1050.90 268.53 1075.64 C 276.60 1087.76 289.37 1096.87 303.86 1099.27 C 305.18 1083.26 296.44 1068.88 288.31 1055.83 C 274.86 1034.77 259.14 1013.66 255.70 988.20 C 268.31 985.55 282.23 985.61 293.59 992.37 C 306.56 999.98 314.11 1013.48 323.99 1024.32 C 331.24 1032.58 340.94 1039.00 351.99 1040.56 C 353.73 1014.64 337.65 989.99 315.70 977.25 C 297.82 966.65 275.93 964.28 255.75 968.35 C 258.45 948.14 264.76 928.31 275.16 910.72 C 282.92 912.92 291.01 913.94 299.06 913.76 C 310.68 914.01 322.48 912.07 333.05 907.11 C 346.66 900.72 357.50 888.83 362.88 874.82 C 368.47 860.27 369.11 844.21 366.91 828.92 C 364.52 812.38 355.80 796.62 342.04 786.92 C 357.31 754.75 375.74 723.93 398.42 696.40 C 399.15 695.53 399.87 694.56 400.99 694.17 C 475.71 665.16 554.80 648.59 628.28 616.25 C 664.15 625.73 700.05 635.19 736.47 642.33 C 739.56 705.50 747.87 768.43 761.17 830.25 C 761.34 857.15 761.23 884.06 761.23 910.97 C 767.74 911.05 774.26 910.93 780.78 911.07 L 780.12 911.09 C 802.05 993.86 828.77 1075.28 850.76 1158.03 C 858.85 1157.94 866.95 1158.05 875.05 1157.97 C 845.93 1060.49 815.37 963.30 793.02 863.96 L 793.02 864.49 C 793.03 849.87 792.90 835.24 793.08 820.62 C 812.01 850.57 830.47 880.84 849.15 910.95 C 860.35 911.04 871.56 911.00 882.77 910.98 C 882.73 886.11 882.75 861.25 882.75 836.39 C 886.35 840.96 889.83 845.61 893.44 850.17 C 894.19 865.74 899.18 881.55 909.79 893.25 C 921.03 906.16 938.06 912.71 954.88 913.65 C 987.63 936.04 1025.17 949.96 1062.45 962.77 C 1104.37 976.95 1146.94 989.59 1187.35 1007.83 C 1184.07 1022.27 1177.83 1035.79 1173.59 1049.94 C 1170.32 1060.90 1167.50 1072.37 1168.83 1083.88 C 1169.75 1092.60 1174.28 1101.18 1181.83 1105.90 C 1186.35 1103.56 1189.95 1099.59 1191.55 1094.74 C 1195.45 1083.62 1194.81 1071.63 1195.43 1060.03 C 1195.88 1051.29 1195.99 1042.17 1199.68 1034.06 C 1206.68 1042.32 1206.29 1053.86 1206.26 1064.06 C 1206.08 1080.16 1203.09 1096.33 1205.41 1112.39 C 1210.10 1113.17 1215.76 1113.14 1218.99 1109.05 C 1225.36 1100.39 1223.05 1088.30 1229.44 1079.62 C 1232.84 1082.49 1234.28 1086.89 1235.45 1091.04 C 1237.82 1099.63 1238.54 1108.60 1241.39 1117.07 C 1242.50 1120.00 1243.93 1123.46 1247.13 1124.63 C 1252.17 1125.71 1256.31 1121.90 1259.77 1118.80 C 1259.64 1109.98 1259.91 1101.16 1259.65 1092.36 C 1256.67 1082.48 1253.04 1072.82 1249.60 1063.10 C 1243.11 1045.08 1237.72 1026.56 1235.61 1007.47 C 1196.93 989.46 1157.15 973.99 1117.39 958.56 C 1076.92 942.77 1036.41 926.69 998.20 905.89 C 1006.17 901.73 1013.04 895.55 1018.31 888.29 C 1029.72 872.49 1032.16 852.06 1030.23 833.12 C 1028.63 817.83 1022.44 802.62 1010.97 792.09 C 996.60 778.01 975.42 773.78 955.94 775.05 C 940.58 775.78 924.93 780.80 913.61 791.53 C 904.83 799.56 898.79 810.36 895.95 821.87 C 887.10 813.25 886.87 800.25 882.81 789.34 C 882.73 785.39 882.74 781.44 882.74 777.50 C 879.75 777.50 876.77 777.50 873.80 777.50 C 855.00 756.22 833.91 737.04 815.98 714.98 C 798.51 693.84 785.01 669.10 778.85 642.26 C 800.89 641.75 822.96 642.00 845.00 642.51 C 872.01 642.47 899.45 643.40 925.88 636.85 C 946.20 631.92 964.40 620.74 980.60 607.81 C 998.30 593.53 1013.54 576.39 1026.78 557.94 C 1050.73 524.32 1068.29 486.41 1080.48 447.05 C 1095.71 397.66 1102.52 345.63 1100.04 293.98 C 1098.84 268.83 1095.66 243.53 1087.23 219.68 C 1079.32 196.66 1067.76 175.02 1054.17 154.89 C 1039.91 133.43 1023.27 113.73 1007.17 93.67 C 1011.28 84.08 1024.54 88.05 1030.54 80.73 C 1033.37 76.18 1032.45 70.15 1030.34 65.50 C 1027.60 60.66 1021.26 60.63 1016.51 61.82 C 1008.50 63.97 1001.07 68.29 995.07 73.99 C 987.30 65.33 978.63 57.47 969.12 50.78 C 939.75 30.08 904.31 19.68 868.91 15.75 C 822.55 10.85 775.45 16.01 730.62 28.43 C 724.60 19.64 714.46 15.40 706.46 8.80 C 706.49 6.70 706.49 4.60 706.50 2.50 C 702.35 2.50 698.21 2.46 694.06 2.56 C 690.60 6.49 688.12 11.79 689.36 17.12 M 28.36 795.34 C 16.37 808.77 11.33 827.23 11.73 844.97 C 11.47 862.65 16.36 881.21 28.64 894.40 C 40.17 906.88 57.25 912.80 73.92 913.70 C 82.63 913.83 91.47 914.11 100.00 912.01 C 109.45 910.13 118.41 906.45 127.06 902.29 C 126.91 891.60 127.06 880.92 126.98 870.23 C 125.73 870.23 124.48 870.23 123.24 870.25 C 118.55 874.31 113.66 878.18 108.26 881.27 C 98.22 887.35 85.77 889.55 74.38 886.40 C 65.11 884.16 57.04 877.63 52.88 869.07 C 47.78 859.61 47.25 848.53 47.94 838.04 C 48.76 827.55 52.63 816.79 60.61 809.63 C 69.21 801.86 81.69 799.47 92.88 801.63 C 103.67 804.08 113.07 810.41 121.39 817.50 C 122.86 819.03 125.12 818.35 126.99 818.53 C 127.01 807.68 126.99 796.83 127.01 785.98 C 124.72 784.92 122.43 783.88 120.13 782.86 C 105.44 776.10 88.92 774.09 72.90 775.12 C 56.34 776.27 39.54 782.72 28.36 795.34 M 379.24 796.25 C 372.43 804.89 371.21 816.64 373.36 827.15 C 375.14 835.49 380.21 843.12 387.39 847.77 C 399.12 855.76 413.35 858.43 427.03 861.06 C 433.83 862.70 441.38 863.34 446.90 868.08 C 451.60 871.80 451.58 880.05 446.58 883.52 C 441.67 887.51 435.13 888.26 429.04 888.67 C 409.89 889.72 390.52 883.00 375.60 871.05 C 374.31 871.01 373.03 870.99 371.75 870.99 C 371.72 881.77 371.80 892.55 371.71 903.33 C 393.40 912.67 417.61 915.61 440.96 912.35 C 455.36 910.16 469.93 903.79 478.78 891.80 C 485.98 882.25 487.35 869.32 484.49 857.95 C 482.33 849.48 476.09 842.61 468.57 838.42 C 454.85 830.72 438.98 828.71 423.86 825.27 C 419.58 824.20 415.16 823.07 411.48 820.54 C 407.35 817.56 406.70 810.97 410.02 807.17 C 413.30 803.13 418.54 801.57 423.45 800.63 C 441.76 797.71 460.79 803.41 475.62 814.25 C 477.05 815.49 479.05 814.84 480.77 815.00 C 480.74 804.71 480.73 794.42 480.77 784.14 C 461.62 776.72 440.67 773.73 420.22 775.76 C 404.83 777.51 388.95 783.66 379.24 796.25 M 1191.05 790.13 C 1178.02 800.54 1169.92 816.43 1168.11 832.92 C 1166.00 851.82 1168.54 872.35 1180.16 887.99 C 1189.62 900.89 1204.39 909.22 1220.02 912.04 C 1244.64 916.65 1270.11 911.99 1293.32 903.34 C 1293.13 881.30 1293.36 859.26 1293.20 837.23 C 1272.66 837.24 1252.11 837.29 1231.57 837.21 C 1231.47 845.74 1231.41 854.28 1231.60 862.81 C 1240.40 862.67 1249.20 862.78 1258.00 862.75 C 1257.98 871.43 1258.04 880.11 1257.96 888.79 C 1248.53 889.29 1238.82 889.36 1229.77 886.27 C 1222.82 884.01 1216.40 879.81 1212.04 873.91 C 1205.53 865.43 1203.41 854.42 1203.47 843.95 C 1203.26 834.02 1205.78 823.83 1211.66 815.71 C 1217.41 807.92 1226.41 802.81 1235.90 801.18 C 1244.91 799.62 1254.33 800.28 1262.96 803.35 C 1271.85 806.15 1279.54 811.57 1287.01 816.98 C 1288.56 818.46 1290.81 817.89 1292.76 818.01 C 1292.68 807.55 1292.85 797.08 1292.68 786.63 C 1288.20 784.55 1283.70 782.50 1279.05 780.87 C 1265.65 775.96 1251.20 774.56 1237.02 774.95 C 1220.71 775.34 1203.87 779.62 1191.05 790.13 M 136.74 777.52 C 136.76 822.01 136.74 866.50 136.75 911.00 C 168.83 911.00 200.92 911.00 233.00 911.00 C 233.00 902.33 233.00 893.66 233.00 885.00 C 212.41 884.97 191.82 885.04 171.23 884.97 C 171.31 849.18 171.18 813.39 171.29 777.60 C 159.78 777.38 148.26 777.53 136.74 777.52 M 1308.50 777.50 C 1308.46 821.97 1308.57 866.44 1308.44 910.91 C 1319.96 911.11 1331.48 910.95 1343.00 911.00 C 1343.02 891.41 1342.96 871.82 1343.03 852.23 C 1359.93 852.27 1376.84 852.24 1393.74 852.25 C 1393.76 871.83 1393.74 891.41 1393.75 911.00 C 1405.25 911.00 1416.75 911.00 1428.25 911.00 C 1428.28 866.52 1428.20 822.05 1428.29 777.58 C 1416.76 777.43 1405.24 777.47 1393.73 777.56 C 1393.78 793.79 1393.73 810.01 1393.75 826.24 C 1376.83 826.26 1359.92 826.25 1343.00 826.25 C 1342.95 809.98 1343.09 793.72 1342.93 777.46 C 1331.45 777.55 1319.98 777.46 1308.50 777.50 M 493.75 777.51 C 493.74 822.00 493.75 866.50 493.75 911.00 C 526.00 911.00 558.25 911.00 590.49 911.00 C 590.50 902.33 590.50 893.67 590.50 885.00 C 569.74 884.98 548.98 885.04 528.23 884.97 C 528.28 874.06 528.24 863.16 528.25 852.26 C 547.50 852.24 566.75 852.26 586.00 852.25 C 585.99 843.58 586.02 834.91 585.98 826.24 C 566.73 826.21 547.47 826.35 528.22 826.17 C 528.30 818.61 528.21 811.05 528.27 803.49 C 549.01 803.51 569.75 803.50 590.50 803.49 C 590.50 794.83 590.50 786.17 590.50 777.51 C 558.25 777.50 526.00 777.50 493.75 777.51 M 651.24 910.98 C 683.49 911.02 715.74 910.99 748.00 911.00 C 748.00 902.33 748.00 893.66 748.00 885.00 C 727.25 884.99 706.50 885.01 685.75 885.00 C 685.77 874.07 685.70 863.15 685.79 852.24 C 705.02 852.27 724.26 852.25 743.49 852.25 C 743.46 843.56 743.59 834.88 743.42 826.20 C 724.20 826.31 704.98 826.23 685.75 826.25 C 685.73 818.68 685.78 811.12 685.72 803.56 C 706.48 803.41 727.24 803.54 748.00 803.50 C 748.00 794.83 748.00 786.17 748.00 777.50 C 715.78 777.46 683.56 777.59 651.35 777.44 C 651.11 821.95 651.33 866.47 651.24 910.98 M 1039.50 777.50 C 1039.54 805.98 1039.42 834.45 1039.56 862.93 C 1039.56 875.54 1042.83 888.86 1051.92 898.08 C 1062.39 909.24 1078.23 913.03 1093.01 913.72 C 1106.43 914.13 1120.38 913.41 1132.73 907.63 C 1141.52 903.69 1149.04 896.82 1153.31 888.14 C 1157.11 880.36 1158.73 871.61 1158.51 862.99 C 1158.48 834.49 1158.51 806.00 1158.49 777.50 C 1147.00 777.50 1135.50 777.50 1124.00 777.50 C 1123.99 803.67 1124.00 829.84 1124.00 856.01 C 1124.13 864.02 1124.31 872.71 1119.74 879.69 C 1115.54 886.17 1107.31 888.37 1099.99 888.28 C 1092.75 888.54 1084.56 887.08 1079.70 881.20 C 1074.72 874.98 1074.12 866.68 1074.01 859.03 C 1073.99 831.86 1074.01 804.68 1074.00 777.50 C 1062.50 777.50 1051.00 777.50 1039.50 777.50 M 1446.23 910.98 C 1457.51 911.03 1468.79 910.99 1480.07 911.00 C 1480.17 899.17 1479.90 887.33 1480.11 875.50 C 1468.85 875.45 1457.59 875.57 1446.34 875.44 C 1446.12 887.28 1446.32 899.13 1446.23 910.98 Z" />
<path fill="#000000" opacity="1.00" d=" M 689.36 17.12 C 688.12 11.79 690.60 6.49 694.06 2.56 C 698.21 2.46 702.35 2.50 706.50 2.50 C 706.49 4.60 706.49 6.70 706.46 8.80 C 714.46 15.40 724.60 19.64 730.62 28.43 C 775.45 16.01 822.55 10.85 868.91 15.75 C 904.31 19.68 939.75 30.08 969.12 50.78 C 978.63 57.47 987.30 65.33 995.07 73.99 C 1001.07 68.29 1008.50 63.97 1016.51 61.82 C 1021.26 60.63 1027.60 60.66 1030.34 65.50 C 1032.45 70.15 1033.37 76.18 1030.54 80.73 C 1024.54 88.05 1011.28 84.08 1007.17 93.67 C 1023.27 113.73 1039.91 133.43 1054.17 154.89 C 1067.76 175.02 1079.32 196.66 1087.23 219.68 C 1095.66 243.53 1098.84 268.83 1100.04 293.98 C 1102.52 345.63 1095.71 397.66 1080.48 447.05 C 1068.29 486.41 1050.73 524.32 1026.78 557.94 C 1013.54 576.39 998.30 593.53 980.60 607.81 C 964.40 620.74 946.20 631.92 925.88 636.85 C 899.45 643.40 872.01 642.47 845.00 642.51 C 822.96 642.00 800.89 641.75 778.85 642.26 C 785.01 669.10 798.51 693.84 815.98 714.98 C 833.91 737.04 855.00 756.22 873.80 777.50 C 866.24 777.46 858.68 777.58 851.12 777.42 C 850.86 784.69 851.05 791.98 851.01 799.26 C 843.52 791.93 832.96 789.39 824.62 783.33 C 817.07 777.86 816.46 767.73 813.61 759.59 C 811.28 749.43 804.97 741.02 799.71 732.25 C 786.65 711.28 773.49 690.38 760.86 669.15 C 764.48 705.44 769.52 741.58 775.77 777.50 C 770.97 777.49 766.18 777.54 761.39 777.41 C 761.01 795.01 761.44 812.64 761.17 830.25 C 747.87 768.43 739.56 705.50 736.47 642.33 C 700.05 635.19 664.15 625.73 628.28 616.25 C 554.80 648.59 475.71 665.16 400.99 694.17 C 399.87 694.56 399.15 695.53 398.42 696.40 C 375.74 723.93 357.31 754.75 342.04 786.92 C 335.92 782.52 328.92 779.48 321.68 777.48 L 321.10 777.30 C 322.67 767.66 322.61 757.54 326.65 748.47 C 341.98 718.35 367.27 694.20 396.10 677.01 C 417.44 664.15 440.51 654.45 463.95 646.13 C 481.37 640.12 498.82 633.91 516.92 630.24 C 536.00 626.10 555.77 622.82 572.99 613.09 C 582.98 607.51 591.63 599.55 598.02 590.05 C 564.45 570.16 534.29 544.80 507.61 516.42 C 483.24 490.27 461.77 461.05 446.68 428.54 C 436.51 406.38 429.34 382.57 428.04 358.12 C 426.42 324.21 431.76 290.48 435.94 256.95 C 451.75 227.37 471.14 199.62 494.02 175.07 C 523.24 143.59 558.16 117.92 595.00 96.07 C 631.08 74.12 670.28 57.82 706.04 35.30 C 698.43 31.83 691.06 25.69 689.36 17.12 M 826.46 35.00 C 828.71 38.71 831.48 42.51 831.77 46.99 C 831.51 49.75 828.42 50.80 826.05 50.78 C 818.01 51.08 810.08 48.99 802.04 49.45 C 797.52 49.43 792.76 50.94 790.20 54.90 C 806.61 54.74 821.49 62.64 835.42 70.42 C 844.44 75.09 853.68 80.68 864.12 80.99 C 871.11 79.40 876.24 73.85 882.24 70.25 C 886.64 67.52 892.20 63.81 897.47 66.48 C 902.22 69.59 903.54 75.63 904.79 80.80 C 897.82 89.12 890.82 97.58 882.07 104.11 C 876.07 108.49 868.84 112.46 861.17 111.51 C 854.16 110.67 848.75 105.56 844.67 100.19 C 842.61 109.59 837.98 118.37 831.52 125.49 C 821.34 136.76 807.41 143.94 793.09 148.47 C 769.55 155.73 744.50 156.98 720.08 154.72 C 696.44 152.41 672.90 146.91 651.43 136.57 C 637.71 129.70 624.11 120.63 616.47 106.91 C 610.77 110.61 605.54 114.99 599.91 118.80 C 567.73 141.66 533.87 162.76 505.93 190.93 C 491.48 205.41 479.68 222.42 470.97 240.93 C 460.92 261.86 453.44 284.06 449.27 306.91 C 445.67 327.03 444.76 347.89 449.01 367.97 C 453.48 390.07 462.21 411.14 473.19 430.76 C 491.57 463.40 515.95 492.32 542.91 518.18 C 572.20 546.03 604.72 570.63 640.15 590.14 C 655.82 580.26 673.41 574.13 690.84 568.16 C 708.67 561.86 727.02 555.77 742.48 544.55 C 746.42 550.06 748.81 556.49 750.83 562.91 C 756.37 580.56 757.87 599.56 766.45 616.18 C 801.87 619.38 837.66 620.42 873.03 616.09 C 902.33 612.44 931.75 604.78 957.02 589.05 C 974.15 577.98 989.56 564.34 1003.33 549.33 C 1018.86 532.30 1032.23 513.22 1042.39 492.50 C 1052.53 472.57 1058.21 450.80 1063.24 429.12 C 1073.98 381.00 1078.63 331.13 1073.10 282.00 C 1069.78 253.02 1062.52 224.25 1049.32 198.13 C 1023.69 206.48 995.09 208.15 969.56 198.56 C 947.97 190.57 929.78 174.24 919.08 153.91 C 910.20 137.60 906.09 119.14 904.91 100.72 C 914.85 95.05 926.23 92.56 936.31 87.14 C 944.14 83.18 950.78 76.44 953.23 67.86 C 935.79 58.21 916.63 52.13 897.56 46.62 C 874.34 40.47 850.61 34.91 826.46 35.00 M 714.89 62.31 C 697.89 65.22 682.61 74.78 670.90 87.22 C 703.60 84.17 736.37 90.32 769.08 87.61 C 778.36 86.72 787.72 85.03 796.17 80.93 C 787.93 76.55 779.28 72.95 770.55 69.65 C 752.90 63.16 733.68 58.87 714.89 62.31 M 964.84 104.84 C 957.17 106.98 949.99 112.03 947.14 119.71 C 954.26 118.52 961.59 119.81 968.11 122.82 C 978.13 127.03 986.58 134.57 997.16 137.49 C 1002.75 139.18 1008.71 137.06 1012.85 133.18 C 1007.50 128.19 1001.57 123.75 997.12 117.89 C 993.04 112.89 990.30 106.91 988.89 100.64 C 980.82 101.63 972.65 102.46 964.84 104.84 M 658.83 113.48 C 663.65 117.01 669.34 119.06 674.96 120.93 C 688.58 125.09 702.80 127.05 717.00 127.70 C 735.63 128.30 754.98 127.43 772.36 120.02 C 768.75 114.88 762.82 112.06 757.08 109.98 C 744.51 105.85 731.14 105.15 718.00 104.99 C 698.08 105.54 677.88 107.29 658.83 113.48 M 940.72 139.33 C 939.93 150.65 948.22 160.05 957.53 165.25 C 967.17 170.58 978.36 174.61 989.51 172.82 C 987.43 171.57 984.91 170.44 984.11 167.94 C 982.31 163.02 983.05 157.63 983.21 152.50 C 977.75 152.70 972.26 152.18 967.02 150.59 C 957.78 148.00 949.66 142.67 940.72 139.33 M 712.79 583.47 C 713.15 587.48 712.36 592.63 708.05 594.25 C 700.69 597.23 692.53 595.17 684.89 596.43 C 681.16 596.88 677.77 599.09 676.35 602.65 C 693.29 610.28 711.43 616.42 730.24 616.03 C 726.53 607.14 728.35 596.82 723.82 588.22 C 721.76 584.20 716.95 583.06 712.79 583.47 Z" />
<path fill="#ffffff" opacity="1.00" d=" M 826.46 35.00 C 850.61 34.91 874.34 40.47 897.56 46.62 C 916.63 52.13 935.79 58.21 953.23 67.86 C 950.78 76.44 944.14 83.18 936.31 87.14 C 926.23 92.56 914.85 95.05 904.91 100.72 C 906.09 119.14 910.20 137.60 919.08 153.91 C 929.78 174.24 947.97 190.57 969.56 198.56 C 995.09 208.15 1023.69 206.48 1049.32 198.13 C 1062.52 224.25 1069.78 253.02 1073.10 282.00 C 1078.63 331.13 1073.98 381.00 1063.24 429.12 C 1058.21 450.80 1052.53 472.57 1042.39 492.50 C 1032.23 513.22 1018.86 532.30 1003.33 549.33 C 989.56 564.34 974.15 577.98 957.02 589.05 C 931.75 604.78 902.33 612.44 873.03 616.09 C 837.66 620.42 801.87 619.38 766.45 616.18 C 757.87 599.56 756.37 580.56 750.83 562.91 C 748.81 556.49 746.42 550.06 742.48 544.55 C 727.02 555.77 708.67 561.86 690.84 568.16 C 673.41 574.13 655.82 580.26 640.15 590.14 C 604.72 570.63 572.20 546.03 542.91 518.18 C 515.95 492.32 491.57 463.40 473.19 430.76 C 462.21 411.14 453.48 390.07 449.01 367.97 C 444.76 347.89 445.67 327.03 449.27 306.91 C 453.44 284.06 460.92 261.86 470.97 240.93 C 479.68 222.42 491.48 205.41 505.93 190.93 C 533.87 162.76 567.73 141.66 599.91 118.80 C 605.54 114.99 610.77 110.61 616.47 106.91 C 624.11 120.63 637.71 129.70 651.43 136.57 C 672.90 146.91 696.44 152.41 720.08 154.72 C 744.50 156.98 769.55 155.73 793.09 148.47 C 807.41 143.94 821.34 136.76 831.52 125.49 C 837.98 118.37 842.61 109.59 844.67 100.19 C 848.75 105.56 854.16 110.67 861.17 111.51 C 868.84 112.46 876.07 108.49 882.07 104.11 C 890.82 97.58 897.82 89.12 904.79 80.80 C 903.54 75.63 902.22 69.59 897.47 66.48 C 892.20 63.81 886.64 67.52 882.24 70.25 C 876.24 73.85 871.11 79.40 864.12 80.99 C 853.68 80.68 844.44 75.09 835.42 70.42 C 821.49 62.64 806.61 54.74 790.20 54.90 C 792.76 50.94 797.52 49.43 802.04 49.45 C 810.08 48.99 818.01 51.08 826.05 50.78 C 828.42 50.80 831.51 49.75 831.77 46.99 C 831.48 42.51 828.71 38.71 826.46 35.00 M 738.86 190.26 C 718.15 192.44 697.20 195.55 677.90 203.73 C 665.02 209.22 652.59 217.84 646.51 230.87 C 656.85 234.86 668.31 234.33 678.98 232.09 C 698.14 228.04 716.37 220.03 735.94 217.86 C 771.66 214.04 807.88 214.45 843.42 219.85 C 879.93 225.54 916.37 236.29 947.57 256.57 C 961.17 265.57 973.69 276.49 983.26 289.77 C 983.27 303.78 986.51 318.48 995.64 329.48 C 1004.40 340.15 1017.77 345.80 1031.06 348.32 C 1029.73 333.48 1026.06 318.81 1019.84 305.26 C 1008.55 280.26 989.50 259.41 967.53 243.29 C 935.89 220.16 898.61 205.75 860.54 197.28 C 820.68 188.52 779.45 186.28 738.86 190.26 M 624.21 213.85 C 621.66 223.00 621.34 232.63 622.02 242.06 C 622.76 249.50 623.94 257.30 628.36 263.54 C 637.29 265.44 643.24 255.86 652.05 256.95 C 644.67 243.97 644.39 228.36 637.58 215.15 C 635.49 211.04 632.36 207.54 628.53 204.99 C 626.39 207.54 625.11 210.67 624.21 213.85 M 821.07 238.85 C 810.87 241.16 802.45 248.34 796.89 256.99 C 809.03 256.63 821.16 258.17 832.96 260.95 C 857.49 266.60 880.52 277.23 904.99 283.02 C 920.69 286.75 937.42 287.80 953.03 283.05 C 953.07 276.12 950.62 269.52 946.90 263.76 C 938.51 264.54 930.06 263.64 921.87 261.82 C 902.18 257.45 883.65 249.25 864.42 243.38 C 850.49 239.21 835.57 235.36 821.07 238.85 Z" />
<path fill="#ffffff" opacity="1.00" d=" M 714.89 62.31 C 733.68 58.87 752.90 63.16 770.55 69.65 C 779.28 72.95 787.93 76.55 796.17 80.93 C 787.72 85.03 778.36 86.72 769.08 87.61 C 736.37 90.32 703.60 84.17 670.90 87.22 C 682.61 74.78 697.89 65.22 714.89 62.31 Z" />
<path fill="#ffffff" opacity="1.00" d=" M 964.84 104.84 C 972.65 102.46 980.82 101.63 988.89 100.64 C 990.30 106.91 993.04 112.89 997.12 117.89 C 1001.57 123.75 1007.50 128.19 1012.85 133.18 C 1008.71 137.06 1002.75 139.18 997.16 137.49 C 986.58 134.57 978.13 127.03 968.11 122.82 C 961.59 119.81 954.26 118.52 947.14 119.71 C 949.99 112.03 957.17 106.98 964.84 104.84 Z" />
<path fill="#ffffff" opacity="1.00" d=" M 658.83 113.48 C 677.88 107.29 698.08 105.54 718.00 104.99 C 731.14 105.15 744.51 105.85 757.08 109.98 C 762.82 112.06 768.75 114.88 772.36 120.02 C 754.98 127.43 735.63 128.30 717.00 127.70 C 702.80 127.05 688.58 125.09 674.96 120.93 C 669.34 119.06 663.65 117.01 658.83 113.48 Z" />
<path fill="#ffffff" opacity="1.00" d=" M 940.72 139.33 C 949.66 142.67 957.78 148.00 967.02 150.59 C 972.26 152.18 977.75 152.70 983.21 152.50 C 983.05 157.63 982.31 163.02 984.11 167.94 C 984.91 170.44 987.43 171.57 989.51 172.82 C 978.36 174.61 967.17 170.58 957.53 165.25 C 948.22 160.05 939.93 150.65 940.72 139.33 Z" />
<path fill="#000000" opacity="1.00" d=" M 738.86 190.26 C 779.45 186.28 820.68 188.52 860.54 197.28 C 898.61 205.75 935.89 220.16 967.53 243.29 C 989.50 259.41 1008.55 280.26 1019.84 305.26 C 1026.06 318.81 1029.73 333.48 1031.06 348.32 C 1017.77 345.80 1004.40 340.15 995.64 329.48 C 986.51 318.48 983.27 303.78 983.26 289.77 C 973.69 276.49 961.17 265.57 947.57 256.57 C 916.37 236.29 879.93 225.54 843.42 219.85 C 807.88 214.45 771.66 214.04 735.94 217.86 C 716.37 220.03 698.14 228.04 678.98 232.09 C 668.31 234.33 656.85 234.86 646.51 230.87 C 652.59 217.84 665.02 209.22 677.90 203.73 C 697.20 195.55 718.15 192.44 738.86 190.26 Z" />
<path fill="#000000" opacity="1.00" d=" M 624.21 213.85 C 625.11 210.67 626.39 207.54 628.53 204.99 C 632.36 207.54 635.49 211.04 637.58 215.15 C 644.39 228.36 644.67 243.97 652.05 256.95 C 643.24 255.86 637.29 265.44 628.36 263.54 C 623.94 257.30 622.76 249.50 622.02 242.06 C 621.34 232.63 621.66 223.00 624.21 213.85 Z" />
<path fill="#000000" opacity="1.00" d=" M 821.07 238.85 C 835.57 235.36 850.49 239.21 864.42 243.38 C 883.65 249.25 902.18 257.45 921.87 261.82 C 930.06 263.64 938.51 264.54 946.90 263.76 C 950.62 269.52 953.07 276.12 953.03 283.05 C 937.42 287.80 920.69 286.75 904.99 283.02 C 880.52 277.23 857.49 266.60 832.96 260.95 C 821.16 258.17 809.03 256.63 796.89 256.99 C 802.45 248.34 810.87 241.16 821.07 238.85 Z" />
<path fill="#ffffff" opacity="1.00" d=" M 712.79 583.47 C 716.95 583.06 721.76 584.20 723.82 588.22 C 728.35 596.82 726.53 607.14 730.24 616.03 C 711.43 616.42 693.29 610.28 676.35 602.65 C 677.77 599.09 681.16 596.88 684.89 596.43 C 692.53 595.17 700.69 597.23 708.05 594.25 C 712.36 592.63 713.15 587.48 712.79 583.47 Z" />
<path fill="#ffffff" opacity="1.00" d=" M 760.86 669.15 C 773.49 690.38 786.65 711.28 799.71 732.25 C 804.97 741.02 811.28 749.43 813.61 759.59 C 816.46 767.73 817.07 777.86 824.62 783.33 C 832.96 789.39 843.52 791.93 851.01 799.26 C 850.96 817.35 851.07 835.44 850.95 853.54 C 834.63 828.24 818.64 802.72 802.30 777.44 C 793.45 777.58 784.61 777.47 775.77 777.50 C 769.52 741.58 764.48 705.44 760.86 669.15 Z" />
<path fill="#ff2400" opacity="1.00" d=" M 28.36 795.34 C 39.54 782.72 56.34 776.27 72.90 775.12 C 88.92 774.09 105.44 776.10 120.13 782.86 C 122.43 783.88 124.72 784.92 127.01 785.98 C 126.99 796.83 127.01 807.68 126.99 818.53 C 125.12 818.35 122.86 819.03 121.39 817.50 C 113.07 810.41 103.67 804.08 92.88 801.63 C 81.69 799.47 69.21 801.86 60.61 809.63 C 52.63 816.79 48.76 827.55 47.94 838.04 C 47.25 848.53 47.78 859.61 52.88 869.07 C 57.04 877.63 65.11 884.16 74.38 886.40 C 85.77 889.55 98.22 887.35 108.26 881.27 C 113.66 878.18 118.55 874.31 123.24 870.25 C 124.48 870.23 125.73 870.23 126.98 870.23 C 127.06 880.92 126.91 891.60 127.06 902.29 C 118.41 906.45 109.45 910.13 100.00 912.01 C 91.47 914.11 82.63 913.83 73.92 913.70 C 57.25 912.80 40.17 906.88 28.64 894.40 C 16.36 881.21 11.47 862.65 11.73 844.97 C 11.33 827.23 16.37 808.77 28.36 795.34 Z" />
<path fill="#ff2400" opacity="1.00" d=" M 272.88 778.71 C 288.59 773.77 305.70 773.73 321.68 777.48 C 328.92 779.48 335.92 782.52 342.04 786.92 C 355.80 796.62 364.52 812.38 366.91 828.92 C 369.11 844.21 368.47 860.27 362.88 874.82 C 357.50 888.83 346.66 900.72 333.05 907.11 C 322.48 912.07 310.68 914.01 299.06 913.76 C 291.01 913.94 282.92 912.92 275.16 910.72 C 269.34 909.02 263.74 906.55 258.65 903.24 C 244.11 893.89 234.69 877.86 231.95 860.95 C 229.40 845.32 230.11 828.84 235.74 813.92 C 241.95 797.37 255.97 783.97 272.88 778.71 M 281.16 806.18 C 272.42 812.58 268.72 823.58 267.24 833.90 C 265.89 845.86 266.20 858.57 271.37 869.65 C 274.84 878.60 282.84 885.62 292.27 887.65 C 301.82 889.55 312.49 887.54 319.69 880.68 C 328.49 872.31 331.68 859.76 331.99 847.98 C 332.29 838.50 331.61 828.77 327.78 819.98 C 324.94 812.99 319.87 806.88 313.15 803.34 C 302.95 798.82 290.20 799.27 281.16 806.18 Z" />
<path fill="#ff2400" opacity="1.00" d=" M 379.24 796.25 C 388.95 783.66 404.83 777.51 420.22 775.76 C 440.67 773.73 461.62 776.72 480.77 784.14 C 480.73 794.42 480.74 804.71 480.77 815.00 C 479.05 814.84 477.05 815.49 475.62 814.25 C 460.79 803.41 441.76 797.71 423.45 800.63 C 418.54 801.57 413.30 803.13 410.02 807.17 C 406.70 810.97 407.35 817.56 411.48 820.54 C 415.16 823.07 419.58 824.20 423.86 825.27 C 438.98 828.71 454.85 830.72 468.57 838.42 C 476.09 842.61 482.33 849.48 484.49 857.95 C 487.35 869.32 485.98 882.25 478.78 891.80 C 469.93 903.79 455.36 910.16 440.96 912.35 C 417.61 915.61 393.40 912.67 371.71 903.33 C 371.80 892.55 371.72 881.77 371.75 870.99 C 373.03 870.99 374.31 871.01 375.60 871.05 C 390.52 883.00 409.89 889.72 429.04 888.67 C 435.13 888.26 441.67 887.51 446.58 883.52 C 451.58 880.05 451.60 871.80 446.90 868.08 C 441.38 863.34 433.83 862.70 427.03 861.06 C 413.35 858.43 399.12 855.76 387.39 847.77 C 380.21 843.12 375.14 835.49 373.36 827.15 C 371.21 816.64 372.43 804.89 379.24 796.25 Z" />
<path fill="#ff2400" opacity="1.00" d=" M 913.61 791.53 C 924.93 780.80 940.58 775.78 955.94 775.05 C 975.42 773.78 996.60 778.01 1010.97 792.09 C 1022.44 802.62 1028.63 817.83 1030.23 833.12 C 1032.16 852.06 1029.72 872.49 1018.31 888.29 C 1013.04 895.55 1006.17 901.73 998.20 905.89 C 984.99 912.99 969.63 914.43 954.88 913.65 C 938.06 912.71 921.03 906.16 909.79 893.25 C 899.18 881.55 894.19 865.74 893.44 850.17 C 892.93 840.69 893.63 831.09 895.95 821.87 C 898.79 810.36 904.83 799.56 913.61 791.53 M 950.33 802.54 C 943.23 805.37 937.49 811.18 934.43 818.15 C 928.82 830.51 928.40 844.57 930.34 857.82 C 932.06 866.59 935.60 875.49 942.53 881.45 C 949.52 887.53 959.44 889.41 968.41 887.73 C 974.62 886.56 980.45 883.30 984.55 878.48 C 990.87 871.18 993.70 861.52 994.49 852.05 C 995.30 840.66 994.77 828.72 989.75 818.25 C 986.41 811.09 980.54 804.76 972.91 802.24 C 965.66 799.64 957.50 799.75 950.33 802.54 Z" />
<path fill="#ff2400" opacity="1.00" d=" M 1191.05 790.13 C 1203.87 779.62 1220.71 775.34 1237.02 774.95 C 1251.20 774.56 1265.65 775.96 1279.05 780.87 C 1283.70 782.50 1288.20 784.55 1292.68 786.63 C 1292.85 797.08 1292.68 807.55 1292.76 818.01 C 1290.81 817.89 1288.56 818.46 1287.01 816.98 C 1279.54 811.57 1271.85 806.15 1262.96 803.35 C 1254.33 800.28 1244.91 799.62 1235.90 801.18 C 1226.41 802.81 1217.41 807.92 1211.66 815.71 C 1205.78 823.83 1203.26 834.02 1203.47 843.95 C 1203.41 854.42 1205.53 865.43 1212.04 873.91 C 1216.40 879.81 1222.82 884.01 1229.77 886.27 C 1238.82 889.36 1248.53 889.29 1257.96 888.79 C 1258.04 880.11 1257.98 871.43 1258.00 862.75 C 1249.20 862.78 1240.40 862.67 1231.60 862.81 C 1231.41 854.28 1231.47 845.74 1231.57 837.21 C 1252.11 837.29 1272.66 837.24 1293.20 837.23 C 1293.36 859.26 1293.13 881.30 1293.32 903.34 C 1270.11 911.99 1244.64 916.65 1220.02 912.04 C 1204.39 909.22 1189.62 900.89 1180.16 887.99 C 1168.54 872.35 1166.00 851.82 1168.11 832.92 C 1169.92 816.43 1178.02 800.54 1191.05 790.13 Z" />
<path fill="#ff2400" opacity="1.00" d=" M 136.74 777.52 C 148.26 777.53 159.78 777.38 171.29 777.60 C 171.18 813.39 171.31 849.18 171.23 884.97 C 191.82 885.04 212.41 884.97 233.00 885.00 C 233.00 893.66 233.00 902.33 233.00 911.00 C 200.92 911.00 168.83 911.00 136.75 911.00 C 136.74 866.50 136.76 822.01 136.74 777.52 Z" />
<path fill="#ff2400" opacity="1.00" d=" M 851.12 777.42 C 858.68 777.58 866.24 777.46 873.80 777.50 C 876.77 777.50 879.75 777.50 882.74 777.50 C 882.74 781.44 882.73 785.39 882.81 789.34 C 882.68 805.02 882.78 820.70 882.75 836.39 C 882.75 861.25 882.73 886.11 882.77 910.98 C 871.56 911.00 860.35 911.04 849.15 910.95 C 830.47 880.84 812.01 850.57 793.08 820.62 C 792.90 835.24 793.03 849.87 793.02 864.49 C 792.97 879.99 793.01 895.50 793.00 911.00 C 788.92 910.98 784.85 910.97 780.78 911.07 C 774.26 910.93 767.74 911.05 761.23 910.97 C 761.23 884.06 761.34 857.15 761.17 830.25 C 761.44 812.64 761.01 795.01 761.39 777.41 C 766.18 777.54 770.97 777.49 775.77 777.50 C 784.61 777.47 793.45 777.58 802.30 777.44 C 818.64 802.72 834.63 828.24 850.95 853.54 C 851.07 835.44 850.96 817.35 851.01 799.26 C 851.05 791.98 850.86 784.69 851.12 777.42 Z" />
<path fill="#ff2400" opacity="1.00" d=" M 1308.50 777.50 C 1319.98 777.46 1331.45 777.55 1342.93 777.46 C 1343.09 793.72 1342.95 809.98 1343.00 826.25 C 1359.92 826.25 1376.83 826.26 1393.75 826.24 C 1393.73 810.01 1393.78 793.79 1393.73 777.56 C 1405.24 777.47 1416.76 777.43 1428.29 777.58 C 1428.20 822.05 1428.28 866.52 1428.25 911.00 C 1416.75 911.00 1405.25 911.00 1393.75 911.00 C 1393.74 891.41 1393.76 871.83 1393.74 852.25 C 1376.84 852.24 1359.93 852.27 1343.03 852.23 C 1342.96 871.82 1343.02 891.41 1343.00 911.00 C 1331.48 910.95 1319.96 911.11 1308.44 910.91 C 1308.57 866.44 1308.46 821.97 1308.50 777.50 Z" />
<path fill="#ff2400" opacity="1.00" d=" M 493.75 777.51 C 526.00 777.50 558.25 777.50 590.50 777.51 C 590.50 786.17 590.50 794.83 590.50 803.49 C 569.75 803.50 549.01 803.51 528.27 803.49 C 528.21 811.05 528.30 818.61 528.22 826.17 C 547.47 826.35 566.73 826.21 585.98 826.24 C 586.02 834.91 585.99 843.58 586.00 852.25 C 566.75 852.26 547.50 852.24 528.25 852.26 C 528.24 863.16 528.28 874.06 528.23 884.97 C 548.98 885.04 569.74 884.98 590.50 885.00 C 590.50 893.67 590.50 902.33 590.49 911.00 C 558.25 911.00 526.00 911.00 493.75 911.00 C 493.75 866.50 493.74 822.00 493.75 777.51 Z" />
<path fill="#ff2400" opacity="1.00" d=" M 651.24 910.98 C 651.33 866.47 651.11 821.95 651.35 777.44 C 683.56 777.59 715.78 777.46 748.00 777.50 C 748.00 786.17 748.00 794.83 748.00 803.50 C 727.24 803.54 706.48 803.41 685.72 803.56 C 685.78 811.12 685.73 818.68 685.75 826.25 C 704.98 826.23 724.20 826.31 743.42 826.20 C 743.59 834.88 743.46 843.56 743.49 852.25 C 724.26 852.25 705.02 852.27 685.79 852.24 C 685.70 863.15 685.77 874.07 685.75 885.00 C 706.50 885.01 727.25 884.99 748.00 885.00 C 748.00 893.66 748.00 902.33 748.00 911.00 C 715.74 910.99 683.49 911.02 651.24 910.98 Z" />
<path fill="#ff2400" opacity="1.00" d=" M 1039.50 777.50 C 1051.00 777.50 1062.50 777.50 1074.00 777.50 C 1074.01 804.68 1073.99 831.86 1074.01 859.03 C 1074.12 866.68 1074.72 874.98 1079.70 881.20 C 1084.56 887.08 1092.75 888.54 1099.99 888.28 C 1107.31 888.37 1115.54 886.17 1119.74 879.69 C 1124.31 872.71 1124.13 864.02 1124.00 856.01 C 1124.00 829.84 1123.99 803.67 1124.00 777.50 C 1135.50 777.50 1147.00 777.50 1158.49 777.50 C 1158.51 806.00 1158.48 834.49 1158.51 862.99 C 1158.73 871.61 1157.11 880.36 1153.31 888.14 C 1149.04 896.82 1141.52 903.69 1132.73 907.63 C 1120.38 913.41 1106.43 914.13 1093.01 913.72 C 1078.23 913.03 1062.39 909.24 1051.92 898.08 C 1042.83 888.86 1039.56 875.54 1039.56 862.93 C 1039.42 834.45 1039.54 805.98 1039.50 777.50 Z" />
<path fill="#000000" opacity="1.00" d=" M 882.81 789.34 C 886.87 800.25 887.10 813.25 895.95 821.87 C 893.63 831.09 892.93 840.69 893.44 850.17 C 889.83 845.61 886.35 840.96 882.75 836.39 C 882.78 820.70 882.68 805.02 882.81 789.34 Z" />
<path fill="#ffffff" opacity="1.00" d=" M 281.16 806.18 C 290.20 799.27 302.95 798.82 313.15 803.34 C 308.28 810.91 301.72 817.13 295.74 823.79 C 283.77 836.68 277.97 853.68 271.37 869.65 C 266.20 858.57 265.89 845.86 267.24 833.90 C 268.72 823.58 272.42 812.58 281.16 806.18 Z" />
<path fill="#ffffff" opacity="1.00" d=" M 950.33 802.54 C 957.50 799.75 965.66 799.64 972.91 802.24 C 980.54 804.76 986.41 811.09 989.75 818.25 C 994.77 828.72 995.30 840.66 994.49 852.05 C 993.70 861.52 990.87 871.18 984.55 878.48 C 980.45 883.30 974.62 886.56 968.41 887.73 C 954.99 878.73 942.27 868.71 930.34 857.82 C 928.40 844.57 928.82 830.51 934.43 818.15 C 937.49 811.18 943.23 805.37 950.33 802.54 Z" />
<path fill="#000000" opacity="1.00" d=" M 295.74 823.79 C 301.72 817.13 308.28 810.91 313.15 803.34 C 319.87 806.88 324.94 812.99 327.78 819.98 C 320.97 836.57 315.44 853.67 309.70 870.64 C 303.77 876.17 297.59 881.49 292.27 887.65 C 282.84 885.62 274.84 878.60 271.37 869.65 C 277.97 853.68 283.77 836.68 295.74 823.79 Z" />
<path fill="#ffffff" opacity="1.00" d=" M 309.70 870.64 C 315.44 853.67 320.97 836.57 327.78 819.98 C 331.61 828.77 332.29 838.50 331.99 847.98 C 331.68 859.76 328.49 872.31 319.69 880.68 C 312.49 887.54 301.82 889.55 292.27 887.65 C 297.59 881.49 303.77 876.17 309.70 870.64 Z" />
<path fill="#000000" opacity="1.00" d=" M 930.34 857.82 C 942.27 868.71 954.99 878.73 968.41 887.73 C 959.44 889.41 949.52 887.53 942.53 881.45 C 935.60 875.49 932.06 866.59 930.34 857.82 Z" />
<path fill="#000000" opacity="1.00" d=" M 793.02 864.49 L 793.02 863.96 C 815.37 963.30 845.93 1060.49 875.05 1157.97 C 866.95 1158.05 858.85 1157.94 850.76 1158.03 C 828.77 1075.28 802.05 993.86 780.12 911.09 L 780.78 911.07 C 784.85 910.97 788.92 910.98 793.00 911.00 C 793.01 895.50 792.97 879.99 793.02 864.49 Z" />
<path fill="#ff2400" opacity="1.00" d=" M 1446.23 910.98 C 1446.32 899.13 1446.12 887.28 1446.34 875.44 C 1457.59 875.57 1468.85 875.45 1480.11 875.50 C 1479.90 887.33 1480.17 899.17 1480.07 911.00 C 1468.79 910.99 1457.51 911.03 1446.23 910.98 Z" />
<path fill="#000000" opacity="1.00" d=" M 252.07 918.86 C 254.40 913.71 256.49 908.46 258.65 903.24 C 263.74 906.55 269.34 909.02 275.16 910.72 C 264.76 928.31 258.45 948.14 255.75 968.35 C 275.93 964.28 297.82 966.65 315.70 977.25 C 337.65 989.99 353.73 1014.64 351.99 1040.56 C 340.94 1039.00 331.24 1032.58 323.99 1024.32 C 314.11 1013.48 306.56 999.98 293.59 992.37 C 282.23 985.61 268.31 985.55 255.70 988.20 C 259.14 1013.66 274.86 1034.77 288.31 1055.83 C 296.44 1068.88 305.18 1083.26 303.86 1099.27 C 289.37 1096.87 276.60 1087.76 268.53 1075.64 C 251.70 1050.90 247.52 1020.05 231.48 994.90 C 224.30 1006.17 219.72 1019.63 221.37 1033.11 C 223.08 1049.82 231.87 1064.49 238.42 1079.61 C 242.87 1089.82 246.10 1101.17 243.74 1112.34 C 234.30 1110.39 225.97 1104.45 220.65 1096.47 C 208.90 1079.40 206.00 1058.09 195.31 1040.46 C 189.42 1045.47 188.84 1053.83 188.99 1061.02 C 188.61 1076.73 193.02 1092.59 189.66 1108.17 C 188.57 1114.03 183.56 1118.49 177.64 1119.05 C 171.95 1104.72 168.83 1089.34 168.34 1073.93 C 167.91 1056.19 172.51 1038.49 180.94 1022.91 C 193.19 1000.09 211.10 981.12 226.55 960.53 C 236.34 947.50 245.61 933.89 252.07 918.86 Z" />
<path fill="#000000" opacity="1.00" d=" M 954.88 913.65 C 969.63 914.43 984.99 912.99 998.20 905.89 C 1036.41 926.69 1076.92 942.77 1117.39 958.56 C 1157.15 973.99 1196.93 989.46 1235.61 1007.47 C 1237.72 1026.56 1243.11 1045.08 1249.60 1063.10 C 1253.04 1072.82 1256.67 1082.48 1259.65 1092.36 C 1259.91 1101.16 1259.64 1109.98 1259.77 1118.80 C 1256.31 1121.90 1252.17 1125.71 1247.13 1124.63 C 1243.93 1123.46 1242.50 1120.00 1241.39 1117.07 C 1238.54 1108.60 1237.82 1099.63 1235.45 1091.04 C 1234.28 1086.89 1232.84 1082.49 1229.44 1079.62 C 1223.05 1088.30 1225.36 1100.39 1218.99 1109.05 C 1215.76 1113.14 1210.10 1113.17 1205.41 1112.39 C 1203.09 1096.33 1206.08 1080.16 1206.26 1064.06 C 1206.29 1053.86 1206.68 1042.32 1199.68 1034.06 C 1195.99 1042.17 1195.88 1051.29 1195.43 1060.03 C 1194.81 1071.63 1195.45 1083.62 1191.55 1094.74 C 1189.95 1099.59 1186.35 1103.56 1181.83 1105.90 C 1174.28 1101.18 1169.75 1092.60 1168.83 1083.88 C 1167.50 1072.37 1170.32 1060.90 1173.59 1049.94 C 1177.83 1035.79 1184.07 1022.27 1187.35 1007.83 C 1146.94 989.59 1104.37 976.95 1062.45 962.77 C 1025.17 949.96 987.63 936.04 954.88 913.65 Z" />
</svg>
