<?xml version="1.0" encoding="UTF-8" ?>
<!DOCTYPE svg PUBLIC "-//W3C//DTD SVG 1.1//EN" "http://www.w3.org/Graphics/SVG/1.1/DTD/svg11.dtd">
<svg width="193pt" height="300pt" viewBox="0 0 193 300" version="1.1" xmlns="http://www.w3.org/2000/svg">
<g id="#fefefeff">
<path fill="#fefefe" opacity="1.00" d=" M 91.61 9.90 C 98.74 9.28 105.90 9.00 113.05 9.22 C 117.23 9.40 121.52 9.89 125.31 11.81 C 129.37 13.86 132.38 17.37 135.87 20.20 C 141.17 24.63 147.77 27.43 152.39 32.68 C 156.22 37.04 158.88 42.27 161.47 47.42 C 168.86 62.86 174.63 79.12 177.97 95.92 C 180.46 108.46 180.62 121.34 179.76 134.05 C 179.02 143.84 177.82 153.65 175.07 163.10 C 173.76 167.59 171.37 171.77 168.00 175.03 C 161.37 181.50 152.86 185.62 146.05 191.88 C 142.44 195.14 138.83 198.55 134.43 200.73 C 130.86 202.45 126.88 202.98 122.97 203.23 C 113.58 203.67 104.18 202.84 94.88 201.64 C 86.63 200.67 78.73 197.95 70.99 195.06 C 59.04 190.56 47.49 184.60 37.70 176.32 C 29.25 168.93 26.47 157.62 22.57 147.56 C 20.61 141.97 17.70 136.77 15.93 131.10 C 14.35 125.55 14.19 119.72 14.25 113.99 C 14.42 99.33 14.66 84.67 14.87 70.01 C 15.35 62.14 16.11 53.99 19.71 46.84 C 22.95 40.64 27.47 35.24 32.07 30.02 C 34.97 26.91 37.80 23.55 41.58 21.48 C 46.12 19.25 51.07 17.95 56.09 17.44 C 62.95 16.68 69.19 13.55 75.85 11.99 C 81.02 10.73 86.34 10.41 91.61 9.90 M 142.35 66.44 C 140.61 67.85 139.95 71.42 142.42 72.49 C 146.78 74.27 151.66 74.87 156.35 74.46 C 157.12 71.29 153.04 71.07 151.38 69.38 C 151.45 68.54 151.59 66.85 151.66 66.01 C 148.62 65.58 145.21 65.11 142.35 66.44 M 44.39 77.52 C 41.96 78.65 40.99 81.56 40.71 84.04 C 40.44 86.08 41.02 88.94 43.41 89.38 C 45.87 90.03 48.45 90.28 50.98 90.02 C 52.71 90.10 52.90 88.10 53.75 87.04 C 53.99 89.36 53.10 93.60 56.49 93.80 C 57.43 90.31 57.64 86.66 57.41 83.08 C 57.25 81.41 56.91 79.36 55.20 78.59 C 51.93 76.87 47.93 76.86 44.39 77.52 M 145.07 107.82 C 143.20 110.51 139.93 109.16 137.19 109.67 C 134.18 110.75 131.32 112.46 128.03 112.51 C 125.71 112.47 123.71 113.55 121.69 114.52 C 115.62 114.45 109.47 114.72 103.65 116.64 C 99.97 118.04 95.86 117.20 92.17 118.36 C 87.15 121.04 80.95 119.35 76.07 122.37 C 73.68 122.50 71.26 122.39 68.92 122.98 C 66.11 123.73 63.16 123.02 60.33 123.59 C 58.62 124.32 56.82 124.77 54.95 124.79 C 52.82 124.63 51.42 126.39 50.42 128.00 C 51.01 128.85 51.64 129.73 52.52 130.32 C 55.52 129.89 58.51 129.26 61.30 128.05 C 62.78 127.28 64.55 127.27 66.12 127.77 C 67.21 129.44 68.31 131.14 68.96 133.04 C 68.48 134.76 67.69 136.37 67.10 138.06 C 69.11 136.67 69.89 134.05 72.06 132.87 C 74.38 132.53 76.72 132.27 79.07 132.21 C 81.02 133.60 82.47 135.56 83.63 137.64 C 83.52 136.59 83.39 135.55 83.26 134.52 C 81.64 132.57 78.69 131.12 79.32 128.15 C 80.72 128.23 81.40 129.55 82.38 130.33 C 83.69 130.92 85.09 131.25 86.43 131.74 C 86.83 134.55 86.55 137.69 88.50 140.00 C 88.47 136.83 87.12 133.83 87.28 130.63 C 89.11 130.19 91.10 129.69 92.10 127.91 C 92.25 126.60 92.37 125.28 92.46 123.97 C 93.84 125.83 95.20 127.74 96.94 129.28 C 98.98 129.42 101.03 129.29 103.07 129.36 C 104.30 131.44 105.78 133.65 106.24 136.03 C 107.40 132.94 104.79 130.67 103.94 127.93 C 103.09 125.75 103.74 123.39 104.07 121.18 C 107.10 122.38 109.40 124.97 112.33 126.45 C 115.38 127.77 114.46 131.80 116.59 133.85 C 115.86 130.96 114.69 128.18 114.30 125.22 C 115.29 124.68 116.34 124.26 117.36 123.76 C 117.72 122.52 117.94 121.26 118.00 119.97 C 119.26 121.24 120.78 122.30 121.71 123.86 C 121.92 126.02 121.31 129.23 123.87 130.20 C 123.27 128.31 122.37 126.48 122.33 124.45 C 124.78 122.55 128.30 123.37 131.18 123.48 C 132.39 124.73 133.39 126.22 134.86 127.19 C 134.53 125.75 134.14 124.08 132.78 123.26 C 131.34 122.25 128.84 122.31 128.74 120.06 C 128.64 119.31 128.45 117.83 128.36 117.09 C 131.16 116.62 130.94 120.19 132.69 121.40 C 134.58 124.12 137.50 121.28 139.54 120.18 C 143.05 121.94 144.97 125.68 144.79 129.55 C 144.91 129.54 145.15 129.52 145.27 129.51 C 145.36 127.40 145.86 125.01 144.48 123.20 C 143.48 121.22 141.36 120.22 139.34 119.59 C 139.64 117.92 138.43 114.92 140.37 114.19 C 141.09 115.60 141.54 117.17 142.51 118.44 C 143.72 119.04 144.98 119.56 146.32 119.77 C 148.02 119.68 149.37 118.04 151.12 118.40 C 152.27 120.45 152.69 123.28 154.71 124.67 C 154.72 121.77 152.44 119.68 151.36 117.16 C 151.19 115.29 151.31 113.41 151.36 111.54 C 153.92 111.24 156.50 111.46 159.06 111.27 C 160.52 110.57 161.00 109.43 160.51 107.85 C 157.64 106.09 154.18 106.94 151.00 106.74 C 149.02 106.91 146.64 106.27 145.07 107.82 M 93.61 128.75 L 93.53 129.61 C 95.57 131.67 97.65 133.71 99.78 135.69 C 98.11 133.11 96.56 130.04 93.61 128.75 Z" />
<path fill="#fefefe" opacity="1.00" d=" M 148.18 111.70 C 148.48 111.58 149.09 111.33 149.39 111.21 C 149.58 113.27 149.58 115.35 149.46 117.42 C 147.83 117.63 146.16 117.95 144.55 117.52 C 143.60 116.61 142.48 115.36 142.68 113.95 C 144.67 113.57 147.16 113.92 148.18 111.70 Z" />
<path fill="#fefefe" opacity="1.00" d=" M 133.74 115.78 C 134.83 115.50 137.00 114.95 138.08 114.67 C 137.29 116.61 137.49 118.97 136.24 120.70 C 134.71 120.18 133.21 119.62 131.71 119.04 C 131.62 118.40 131.45 117.13 131.36 116.49 C 131.96 116.48 133.16 116.45 133.76 116.44 L 133.74 115.78 Z" />
<path fill="#fefefe" opacity="1.00" d=" M 125.65 117.79 C 127.38 116.66 126.42 120.45 126.96 121.28 C 125.21 121.54 123.44 121.79 121.66 121.61 C 120.95 120.78 120.51 119.88 120.35 118.90 C 122.13 118.52 124.05 118.85 125.65 117.79 Z" />
<path fill="#fefefe" opacity="1.00" d=" M 111.73 119.10 C 113.38 118.81 115.06 118.64 116.74 118.73 C 116.66 120.74 115.70 124.14 113.06 123.51 C 110.60 123.74 108.89 121.79 107.18 120.36 C 108.59 119.62 110.18 119.38 111.73 119.10 Z" />
<path fill="#fefefe" opacity="1.00" d=" M 100.35 121.43 C 101.43 121.50 102.51 121.56 103.60 121.63 C 102.90 123.49 102.43 125.41 102.26 127.39 C 100.35 127.78 98.43 127.59 96.51 127.46 C 95.61 125.88 94.95 124.16 93.91 122.67 C 96.08 122.48 98.38 122.47 100.35 121.43 Z" />
<path fill="#fefefe" opacity="1.00" d=" M 82.39 124.78 C 85.46 124.23 88.63 123.89 91.70 124.60 C 91.58 126.25 90.46 127.85 89.02 128.63 C 87.05 128.99 84.99 129.05 83.02 128.70 C 82.39 127.46 81.77 126.23 81.26 124.95 C 81.54 124.91 82.11 124.82 82.39 124.78 Z" />
<path fill="#fefefe" opacity="1.00" d=" M 73.53 126.85 C 75.14 126.49 76.78 126.53 78.41 126.65 C 79.06 128.16 77.91 129.64 76.88 130.60 C 74.67 130.82 72.43 130.81 70.21 130.70 C 68.43 131.13 66.98 126.62 69.88 127.50 C 71.10 127.28 72.31 127.05 73.53 126.85 Z" />
</g>
<g id="#020202ff">
<path fill="#020202" opacity="1.00" d=" M 76.89 7.06 C 88.46 5.11 100.26 4.45 111.99 4.56 C 117.39 4.74 123.01 5.30 127.83 7.94 C 131.87 10.09 135.04 13.45 138.49 16.38 C 143.44 20.57 149.49 23.30 154.12 27.88 C 157.41 31.02 159.91 34.85 162.14 38.79 C 166.81 47.10 170.47 55.93 173.86 64.83 C 179.13 79.36 183.32 94.44 184.46 109.91 C 185.29 124.65 184.56 139.51 181.93 154.04 C 180.47 161.12 179.06 168.57 174.57 174.45 C 169.07 181.81 160.81 186.21 153.60 191.63 C 148.05 195.66 143.62 201.18 137.44 204.34 C 132.44 207.10 126.63 207.77 121.01 207.87 C 108.71 208.11 96.39 206.93 84.36 204.44 C 84.22 213.57 84.69 222.71 84.81 231.85 C 82.98 231.93 81.14 231.96 79.31 231.91 C 78.99 222.15 78.91 212.37 78.23 202.64 C 67.82 198.84 57.32 194.98 47.84 189.14 C 40.40 184.55 32.81 179.54 28.04 172.02 C 23.16 164.21 20.72 155.24 17.33 146.76 C 15.10 141.04 12.03 135.59 10.82 129.52 C 9.82 124.41 9.56 119.18 9.55 113.99 C 9.50 110.29 10.61 106.69 10.49 102.99 C 10.45 90.67 10.81 78.35 10.60 66.04 C 10.83 60.94 11.66 55.86 13.11 50.96 C 15.52 42.99 20.72 36.27 26.00 29.98 C 30.07 25.40 33.99 20.40 39.45 17.41 C 44.33 14.98 49.66 13.53 55.06 12.92 C 62.62 12.07 69.44 8.39 76.89 7.06 M 91.61 9.90 C 86.34 10.41 81.02 10.73 75.85 11.99 C 69.19 13.55 62.95 16.68 56.09 17.44 C 51.07 17.95 46.12 19.25 41.58 21.48 C 37.80 23.55 34.97 26.91 32.07 30.02 C 27.47 35.24 22.95 40.64 19.71 46.84 C 16.11 53.99 15.35 62.14 14.87 70.01 C 14.66 84.67 14.42 99.33 14.25 113.99 C 14.19 119.72 14.35 125.55 15.93 131.10 C 17.70 136.77 20.61 141.97 22.57 147.56 C 26.47 157.62 29.25 168.93 37.70 176.32 C 47.49 184.60 59.04 190.56 70.99 195.06 C 78.73 197.95 86.63 200.67 94.88 201.64 C 104.18 202.84 113.58 203.67 122.97 203.23 C 126.88 202.98 130.86 202.45 134.43 200.73 C 138.83 198.55 142.44 195.14 146.05 191.88 C 152.86 185.62 161.37 181.50 168.00 175.03 C 171.37 171.77 173.76 167.59 175.07 163.10 C 177.82 153.65 179.02 143.84 179.76 134.05 C 180.62 121.34 180.46 108.46 177.97 95.92 C 174.63 79.12 168.86 62.86 161.47 47.42 C 158.88 42.27 156.22 37.04 152.39 32.68 C 147.77 27.43 141.17 24.63 135.87 20.20 C 132.38 17.37 129.37 13.86 125.31 11.81 C 121.52 9.89 117.23 9.40 113.05 9.22 C 105.90 9.00 98.74 9.28 91.61 9.90 Z" />
<path fill="#020202" opacity="1.00" d=" M 142.35 66.44 C 145.21 65.11 148.62 65.58 151.66 66.01 C 151.59 66.85 151.45 68.54 151.38 69.38 C 153.04 71.07 157.12 71.29 156.35 74.46 C 151.66 74.87 146.78 74.27 142.42 72.49 C 139.95 71.42 140.61 67.85 142.35 66.44 Z" />
<path fill="#020202" opacity="1.00" d=" M 44.39 77.52 C 47.93 76.86 51.93 76.87 55.20 78.59 C 56.91 79.36 57.25 81.41 57.41 83.08 C 57.64 86.66 57.43 90.31 56.49 93.80 C 53.10 93.60 53.99 89.36 53.75 87.04 C 52.90 88.10 52.71 90.10 50.98 90.02 C 48.45 90.28 45.87 90.03 43.41 89.38 C 41.02 88.94 40.44 86.08 40.71 84.04 C 40.99 81.56 41.96 78.65 44.39 77.52 Z" />
<path fill="#020202" opacity="1.00" d=" M 145.07 107.82 C 146.64 106.27 149.02 106.91 151.00 106.74 C 154.18 106.94 157.64 106.09 160.51 107.85 C 161.00 109.43 160.52 110.57 159.06 111.27 C 156.50 111.46 153.92 111.24 151.36 111.54 C 151.31 113.41 151.19 115.29 151.36 117.16 C 152.44 119.68 154.72 121.77 154.71 124.67 C 152.69 123.28 152.27 120.45 151.12 118.40 C 149.37 118.04 148.02 119.68 146.32 119.77 C 144.98 119.56 143.72 119.04 142.51 118.44 C 141.54 117.17 141.09 115.60 140.37 114.19 C 138.43 114.92 139.64 117.92 139.34 119.59 C 141.36 120.22 143.48 121.22 144.48 123.20 C 145.86 125.01 145.36 127.40 145.27 129.51 C 145.15 129.52 144.91 129.54 144.79 129.55 C 144.97 125.68 143.05 121.94 139.54 120.18 C 137.50 121.28 134.58 124.12 132.69 121.40 C 130.94 120.19 131.16 116.62 128.36 117.09 C 128.45 117.83 128.64 119.31 128.74 120.06 C 128.84 122.31 131.34 122.25 132.78 123.26 C 134.14 124.08 134.53 125.75 134.86 127.19 C 133.39 126.22 132.39 124.73 131.18 123.48 C 128.30 123.37 124.78 122.55 122.33 124.45 C 122.37 126.48 123.27 128.31 123.87 130.20 C 121.31 129.23 121.92 126.02 121.71 123.86 C 120.78 122.30 119.26 121.24 118.00 119.97 C 117.94 121.26 117.72 122.52 117.36 123.76 C 116.34 124.26 115.29 124.68 114.30 125.22 C 114.69 128.18 115.86 130.96 116.59 133.85 C 114.46 131.80 115.38 127.77 112.33 126.45 C 109.40 124.97 107.10 122.38 104.07 121.18 C 103.74 123.39 103.09 125.75 103.94 127.93 C 104.79 130.67 107.40 132.94 106.24 136.03 C 105.78 133.65 104.30 131.44 103.07 129.36 C 101.03 129.29 98.98 129.42 96.94 129.28 C 95.20 127.74 93.84 125.83 92.46 123.97 C 92.37 125.28 92.25 126.60 92.10 127.91 C 91.10 129.69 89.11 130.19 87.28 130.63 C 87.12 133.83 88.47 136.83 88.50 140.00 C 86.55 137.69 86.83 134.55 86.43 131.74 C 85.09 131.25 83.69 130.92 82.38 130.33 C 81.40 129.55 80.72 128.23 79.32 128.15 C 78.69 131.12 81.64 132.57 83.26 134.52 C 83.39 135.55 83.52 136.59 83.63 137.64 C 82.47 135.56 81.02 133.60 79.07 132.21 C 76.72 132.27 74.38 132.53 72.06 132.87 C 69.89 134.05 69.11 136.67 67.10 138.06 C 67.69 136.37 68.48 134.76 68.96 133.04 C 68.31 131.14 67.21 129.44 66.12 127.77 C 64.55 127.27 62.78 127.28 61.30 128.05 C 58.51 129.26 55.52 129.89 52.52 130.32 C 51.64 129.73 51.01 128.85 50.42 128.00 C 51.42 126.39 52.82 124.63 54.95 124.79 C 56.82 124.77 58.62 124.32 60.33 123.59 C 63.16 123.02 66.11 123.73 68.92 122.98 C 71.26 122.39 73.68 122.50 76.07 122.37 C 80.95 119.35 87.15 121.04 92.17 118.36 C 95.86 117.20 99.97 118.04 103.65 116.64 C 109.47 114.72 115.62 114.45 121.69 114.52 C 123.71 113.55 125.71 112.47 128.03 112.51 C 131.32 112.46 134.18 110.75 137.19 109.67 C 139.93 109.16 143.20 110.51 145.07 107.82 M 148.18 111.70 C 147.16 113.92 144.67 113.57 142.68 113.95 C 142.48 115.36 143.60 116.61 144.55 117.52 C 146.16 117.95 147.83 117.63 149.46 117.42 C 149.58 115.35 149.58 113.27 149.39 111.21 C 149.09 111.33 148.48 111.58 148.18 111.70 M 133.74 115.78 L 133.76 116.44 C 133.16 116.45 131.96 116.48 131.36 116.49 C 131.45 117.13 131.62 118.40 131.71 119.04 C 133.21 119.62 134.71 120.18 136.24 120.70 C 137.49 118.97 137.29 116.61 138.08 114.67 C 137.00 114.95 134.83 115.50 133.74 115.78 M 125.65 117.79 C 124.05 118.85 122.13 118.52 120.35 118.90 C 120.51 119.88 120.95 120.78 121.66 121.61 C 123.44 121.79 125.21 121.54 126.96 121.28 C 126.42 120.45 127.38 116.66 125.65 117.79 M 111.73 119.10 C 110.18 119.38 108.59 119.62 107.18 120.36 C 108.89 121.79 110.60 123.74 113.06 123.51 C 115.70 124.14 116.66 120.74 116.74 118.73 C 115.06 118.64 113.38 118.81 111.73 119.10 M 100.35 121.43 C 98.38 122.47 96.08 122.48 93.91 122.67 C 94.95 124.16 95.61 125.88 96.51 127.46 C 98.43 127.59 100.35 127.78 102.26 127.39 C 102.43 125.41 102.90 123.49 103.60 121.63 C 102.51 121.56 101.43 121.50 100.35 121.43 M 82.39 124.78 C 82.11 124.82 81.54 124.91 81.26 124.95 C 81.77 126.23 82.39 127.46 83.02 128.70 C 84.99 129.05 87.05 128.99 89.02 128.63 C 90.46 127.85 91.58 126.25 91.70 124.60 C 88.63 123.89 85.46 124.23 82.39 124.78 M 73.53 126.85 C 72.31 127.05 71.10 127.28 69.88 127.50 C 66.98 126.62 68.43 131.13 70.21 130.70 C 72.43 130.81 74.67 130.82 76.88 130.60 C 77.91 129.64 79.06 128.16 78.41 126.65 C 76.78 126.53 75.14 126.49 73.53 126.85 Z" />
<path fill="#020202" opacity="1.00" d=" M 93.61 128.75 C 96.56 130.04 98.11 133.11 99.78 135.69 C 97.65 133.71 95.57 131.67 93.53 129.61 L 93.61 128.75 Z" />
<path fill="#020202" opacity="1.00" d=" M 84.20 252.00 C 84.40 248.20 82.87 244.02 84.98 240.54 C 85.46 260.36 85.83 280.18 86.29 300.00 L 81.48 300.00 C 81.26 290.53 80.93 281.07 80.53 271.61 C 81.64 271.25 82.74 270.85 83.83 270.41 C 84.66 264.32 84.02 258.13 84.20 252.00 Z" />
</g>
<g id="#fd1a19ff">
<path fill="#fd1a19" opacity="1.00" d=" M 161.72 231.01 C 166.00 230.21 170.83 230.96 174.32 233.68 C 177.02 236.20 176.49 240.19 176.47 243.52 C 173.48 243.75 170.46 243.75 167.47 243.57 C 167.31 241.93 167.29 240.28 167.12 238.65 C 166.28 238.63 164.62 238.60 163.78 238.59 C 163.83 240.20 163.19 242.19 164.46 243.52 C 167.79 247.17 172.96 248.86 175.64 253.17 C 177.97 256.81 177.62 261.34 177.23 265.44 C 176.73 268.81 173.95 271.31 170.78 272.19 C 165.44 272.91 159.11 273.18 155.23 268.71 C 153.06 265.45 153.56 261.26 153.57 257.54 C 156.39 257.24 159.25 257.29 162.07 257.60 C 163.70 259.77 161.82 263.32 163.84 265.56 C 164.50 265.55 165.82 265.53 166.49 265.52 C 166.66 262.74 167.79 258.84 165.00 257.00 C 161.65 254.38 157.75 252.41 154.98 249.11 C 152.90 245.52 153.53 241.13 153.81 237.18 C 154.94 233.80 158.32 231.63 161.72 231.01 Z" />
<path fill="#fd1a19" opacity="1.00" d=" M 16.48 231.73 C 20.99 231.64 25.51 231.63 30.02 231.79 C 33.35 231.95 36.67 233.54 38.29 236.57 C 39.61 239.89 39.29 243.51 39.34 247.01 C 39.27 252.35 39.37 257.70 39.32 263.05 C 39.33 265.53 38.71 268.09 37.21 270.10 C 34.49 271.92 31.11 271.59 28.00 271.65 C 23.85 271.55 19.69 271.79 15.54 271.54 C 15.58 258.29 15.26 245.02 15.71 231.79 L 16.48 231.73 M 26.37 238.57 L 25.73 238.59 C 25.56 247.25 25.52 255.93 25.74 264.59 C 25.48 265.96 27.34 265.06 28.06 265.15 C 29.58 262.34 29.12 259.06 29.18 256.00 C 29.05 250.98 29.36 245.95 29.07 240.94 C 29.05 239.50 27.88 238.19 26.37 238.57 Z" />
<path fill="#fd1a19" opacity="1.00" d=" M 46.59 231.70 C 51.40 231.68 56.24 231.55 61.05 231.83 C 62.44 236.44 62.42 241.31 63.49 245.99 C 64.58 253.11 65.43 260.28 66.99 267.32 C 67.37 268.86 67.46 270.51 67.06 272.06 C 64.33 272.26 61.60 272.14 58.88 272.22 C 58.41 274.78 57.86 272.11 57.21 271.77 C 55.81 270.02 56.79 267.47 56.31 265.42 C 55.30 265.37 53.28 265.28 52.28 265.23 C 51.82 267.17 52.81 269.85 51.58 271.44 C 48.18 271.81 44.75 271.69 41.34 271.55 C 41.32 266.31 42.42 261.15 43.21 255.99 C 43.98 247.85 44.94 239.70 46.59 231.70 M 54.12 242.05 C 53.51 247.42 52.37 252.80 52.79 258.22 C 54.50 258.90 56.14 258.01 55.67 256.06 C 55.41 251.36 55.44 246.60 54.12 242.05 Z" />
<path fill="#fd1a19" opacity="1.00" d=" M 68.45 231.76 C 72.07 231.45 75.70 231.68 79.31 231.91 C 81.14 231.96 82.98 231.93 84.81 231.85 C 86.68 231.77 88.55 231.59 90.43 231.62 C 90.88 234.10 90.83 236.66 90.64 239.18 C 89.00 240.20 86.85 240.10 84.98 240.54 C 82.87 244.02 84.40 248.20 84.20 252.00 C 84.02 258.13 84.66 264.32 83.83 270.41 C 82.74 270.85 81.64 271.25 80.53 271.61 C 78.46 271.39 76.13 272.01 74.22 271.08 C 73.61 260.93 74.73 250.71 73.70 240.60 C 71.87 240.20 70.00 240.02 68.17 239.66 C 68.00 237.03 67.97 234.36 68.45 231.76 Z" />
<path fill="#fd1a19" opacity="1.00" d=" M 132.56 231.80 C 135.67 231.10 138.91 231.21 142.07 231.42 C 144.97 231.48 147.68 233.18 149.27 235.57 C 149.88 238.40 149.83 241.36 149.47 244.23 C 146.76 244.26 144.05 244.12 141.34 244.10 C 140.29 245.54 141.72 246.76 142.81 247.48 C 145.77 249.62 148.98 251.96 150.27 255.53 C 150.80 259.45 150.85 263.50 150.23 267.41 C 146.93 273.17 139.36 273.11 133.65 272.07 C 127.70 270.23 125.88 263.26 126.83 257.73 C 129.98 257.19 133.20 257.27 136.37 257.51 C 136.49 260.15 136.34 262.80 136.62 265.44 C 137.49 265.45 139.21 265.45 140.08 265.46 C 141.04 263.13 141.11 260.27 139.93 258.03 C 135.99 253.99 129.52 252.11 127.59 246.34 C 127.06 242.81 127.13 239.14 127.84 235.65 C 128.96 233.91 130.66 232.59 132.56 231.80 M 138.46 237.71 C 135.57 239.37 136.78 245.68 140.80 244.90 C 140.64 242.51 140.72 240.09 140.20 237.75 C 139.77 237.74 138.90 237.72 138.46 237.71 Z" />
<path fill="#fd1a19" opacity="1.00" d=" M 104.57 232.42 C 109.53 232.04 114.54 232.10 119.51 232.36 C 122.09 245.32 123.53 258.49 125.64 271.53 C 121.99 271.71 118.33 271.75 114.70 271.47 C 114.58 269.42 114.68 267.37 114.62 265.32 C 113.58 265.32 111.49 265.33 110.45 265.33 C 109.81 267.40 111.41 270.69 109.41 272.06 C 106.25 272.40 103.05 272.24 99.89 272.06 C 99.01 269.44 100.05 266.68 100.23 264.02 C 101.42 256.63 102.13 249.19 103.21 241.79 C 103.59 238.66 103.66 235.46 104.57 232.42 M 112.49 241.27 C 112.07 246.94 110.51 252.57 110.85 258.28 C 111.95 258.40 113.07 258.37 114.15 258.10 C 113.55 252.49 113.30 246.85 112.49 241.27 Z" />
</g>
</svg>
