<?xml version="1.0" encoding="UTF-8" ?>
<!DOCTYPE svg PUBLIC "-//W3C//DTD SVG 1.1//EN" "http://www.w3.org/Graphics/SVG/1.1/DTD/svg11.dtd">
<svg width="171pt" height="170pt" viewBox="0 0 171 170" version="1.1" xmlns="http://www.w3.org/2000/svg">
<g id="#000000ff">
<path fill="#000000" opacity="1.00" d=" M 0.00 0.00 L 0.53 0.00 C 0.40 0.16 0.13 0.47 0.00 0.63 L 0.00 0.00 Z" />
<path fill="#000000" opacity="1.00" d=" M 50.25 4.65 C 54.69 4.53 59.14 4.11 63.58 4.69 C 68.40 5.78 72.56 8.56 76.95 10.68 C 78.87 10.59 79.94 8.65 81.38 7.60 C 86.98 7.32 92.74 7.93 97.97 10.01 C 104.49 14.30 111.37 18.02 117.65 22.67 C 119.93 24.42 122.05 26.81 125.17 26.79 C 126.27 24.48 128.09 22.67 130.21 21.28 C 131.05 25.94 131.89 30.63 131.62 35.39 C 135.60 40.07 140.54 43.79 144.51 48.48 C 146.18 50.22 148.30 51.43 150.16 52.95 C 153.02 55.12 155.57 57.71 158.74 59.45 C 161.24 60.84 164.09 62.41 167.05 61.63 C 167.93 61.04 168.80 60.43 169.65 59.79 C 169.58 61.52 169.61 63.26 169.56 64.99 C 168.09 67.48 166.47 69.89 165.13 72.47 C 163.32 75.90 159.53 77.57 157.36 80.73 C 158.10 83.86 157.96 87.29 159.75 90.09 C 161.03 92.10 160.56 94.62 160.36 96.86 C 159.29 100.53 159.48 104.37 159.15 108.13 C 159.06 109.83 158.72 111.59 159.50 113.21 C 158.95 114.39 157.88 115.30 157.59 116.62 C 156.39 120.47 153.65 123.63 152.72 127.60 C 151.46 127.64 150.20 127.65 148.94 127.62 C 147.77 130.68 146.00 133.71 146.25 137.11 C 146.16 139.87 147.23 142.77 149.59 144.36 C 151.46 145.17 153.51 145.40 155.52 145.63 C 155.59 146.14 155.72 147.17 155.78 147.68 C 149.06 146.95 143.84 151.91 137.88 153.87 C 137.25 156.10 136.54 158.38 135.05 160.20 C 134.01 160.54 132.94 160.75 131.84 160.86 C 133.32 158.99 134.60 156.97 135.84 154.94 C 134.22 153.55 132.60 152.16 130.99 150.75 C 129.05 152.86 127.14 154.99 125.16 157.05 C 125.21 157.85 125.31 159.45 125.36 160.25 C 125.80 160.61 126.69 161.32 127.13 161.67 C 125.47 161.51 123.81 161.22 122.22 160.67 C 122.46 159.16 122.43 157.29 124.47 157.38 C 124.49 154.69 126.40 152.74 128.06 150.86 C 129.31 149.53 129.57 147.65 130.28 146.03 C 132.06 141.51 133.94 136.91 137.08 133.14 C 137.86 132.06 138.89 131.13 139.43 129.89 C 139.48 128.03 138.87 126.24 138.58 124.42 C 136.35 115.41 137.63 106.05 137.42 96.88 C 136.71 94.53 134.67 92.82 133.82 90.51 C 132.48 84.25 132.54 77.67 130.16 71.66 C 129.43 70.71 128.61 69.82 127.83 68.92 C 127.37 66.66 127.40 64.04 125.63 62.31 C 124.92 61.14 123.30 61.60 122.20 61.23 C 122.73 63.90 124.32 66.15 125.55 68.52 C 127.20 71.41 128.44 74.50 129.79 77.53 C 129.29 77.61 128.28 77.78 127.78 77.87 C 127.69 77.38 127.52 76.41 127.43 75.92 C 125.27 72.16 123.76 67.99 121.05 64.56 L 119.55 63.84 C 119.51 65.67 119.47 67.51 119.42 69.34 C 115.55 68.88 111.28 69.08 107.82 67.07 C 106.73 64.50 107.67 61.56 107.62 58.86 C 104.61 58.42 102.46 55.11 99.42 55.46 C 95.56 57.76 92.41 61.10 89.61 64.58 C 87.71 67.58 86.26 71.28 86.59 74.86 C 88.68 79.02 91.37 82.93 94.74 86.15 C 97.50 88.93 101.29 90.29 104.97 91.35 C 110.32 91.89 115.75 91.95 121.10 91.46 C 126.58 89.79 128.50 83.67 129.86 78.73 C 130.98 81.22 129.61 83.80 129.35 86.32 C 126.96 89.07 124.54 92.26 120.90 93.33 C 113.56 93.80 105.81 94.19 99.01 90.84 C 93.88 88.83 90.32 84.39 87.50 79.84 C 86.34 77.79 84.17 75.83 84.67 73.25 C 85.43 69.96 86.70 66.83 87.90 63.69 C 89.06 61.15 87.44 58.49 87.16 55.95 C 89.58 56.00 89.59 58.74 90.87 60.15 C 92.92 57.87 96.45 56.43 96.97 53.14 C 95.80 51.56 93.73 50.93 92.27 49.63 C 90.00 49.67 87.66 49.87 85.83 48.35 C 85.33 48.78 84.35 49.64 83.85 50.07 C 83.62 49.57 83.15 48.57 82.91 48.07 C 82.76 48.49 82.47 49.33 82.32 49.75 C 80.57 48.05 77.89 48.96 75.82 47.94 C 70.76 45.96 65.72 43.90 60.54 42.26 C 58.25 41.54 55.80 41.55 53.57 40.67 C 51.59 40.26 50.66 37.70 48.66 37.55 C 45.25 40.25 42.38 43.54 39.38 46.67 C 36.31 50.23 33.02 53.81 31.44 58.33 C 30.11 61.89 28.00 65.09 26.57 68.61 C 24.98 71.71 23.96 75.21 21.43 77.73 C 21.73 82.93 20.47 88.03 20.11 93.20 C 18.66 99.70 21.43 106.07 21.81 112.52 C 23.19 114.60 22.59 117.20 22.92 119.54 C 24.22 121.21 24.87 123.24 25.65 125.18 C 27.31 129.29 30.83 132.27 32.48 136.38 C 33.51 138.87 34.60 141.40 36.56 143.32 C 38.69 145.84 41.96 146.80 44.63 148.58 C 44.61 149.32 44.55 150.80 44.53 151.54 C 43.83 151.65 42.43 151.89 41.72 152.00 C 41.28 150.78 40.84 149.56 40.40 148.34 C 39.99 148.39 39.18 148.49 38.77 148.54 C 38.84 150.35 38.84 152.16 38.98 153.97 C 39.60 154.17 40.84 154.58 41.47 154.78 C 41.38 154.14 41.21 152.87 41.12 152.23 C 41.85 152.29 43.30 152.39 44.03 152.44 C 43.64 152.73 42.87 153.33 42.48 153.63 C 41.28 157.20 39.31 160.43 36.58 163.04 C 36.58 161.45 36.97 159.91 37.43 158.40 C 38.62 154.44 36.03 150.64 36.57 146.65 C 32.01 147.00 27.74 145.25 23.31 144.57 C 20.22 144.22 17.61 142.40 15.04 140.82 C 12.81 139.31 10.20 138.02 8.95 135.49 C 8.39 135.45 7.25 135.38 6.68 135.34 C 5.85 132.54 5.07 129.70 3.66 127.13 C 3.06 121.75 3.43 116.32 3.58 110.93 C 3.77 108.11 6.75 105.71 5.48 102.81 C 4.96 102.69 3.93 102.45 3.41 102.33 C 3.62 100.94 3.80 99.55 4.00 98.16 C 7.17 95.35 9.76 91.87 11.41 87.97 C 12.32 82.72 12.44 77.37 12.22 72.05 C 11.94 69.41 10.42 67.15 9.68 64.64 C 9.24 62.16 9.16 59.60 9.43 57.10 C 10.57 54.73 11.47 52.26 12.70 49.95 C 14.69 46.79 17.23 44.02 19.10 40.78 C 20.44 38.61 21.60 36.27 23.44 34.47 C 25.27 32.50 27.55 30.65 28.04 27.84 C 26.80 27.62 25.57 27.39 24.34 27.17 C 26.10 24.92 28.01 22.74 30.37 21.09 C 32.68 19.45 34.47 17.12 37.04 15.84 C 40.73 14.02 44.05 11.53 47.80 9.82 C 49.54 8.90 52.24 8.25 51.66 5.69 C 51.31 5.43 50.60 4.91 50.25 4.65 M 50.40 10.10 C 42.72 14.44 35.80 19.92 29.09 25.60 C 29.96 26.30 30.82 27.00 31.69 27.71 C 27.11 33.28 21.70 38.25 18.21 44.64 C 15.60 48.56 13.03 52.60 11.89 57.24 C 10.74 60.15 12.12 63.12 12.43 66.04 C 12.71 72.41 15.01 79.09 12.39 85.26 C 11.16 88.07 12.09 91.30 10.80 94.09 C 9.49 96.92 9.72 100.05 9.62 103.07 C 9.53 100.75 9.50 98.42 9.29 96.10 C 8.20 99.42 8.33 103.00 7.29 106.33 C 6.16 109.51 3.97 112.45 4.33 116.00 C 4.02 121.35 6.35 126.27 8.05 131.20 C 9.51 130.89 10.98 130.58 12.45 130.27 C 12.28 132.83 12.40 135.58 14.37 137.49 C 19.25 142.77 27.11 142.33 33.14 145.56 C 33.60 145.26 34.51 144.65 34.97 144.35 C 33.10 141.27 31.40 138.09 29.99 134.77 C 29.01 134.93 28.04 135.10 27.06 135.28 C 26.95 135.07 26.73 134.64 26.61 134.43 C 27.04 134.07 27.91 133.34 28.34 132.98 C 26.26 129.65 24.11 126.32 22.79 122.59 C 20.69 117.30 20.69 111.53 19.60 106.00 C 18.30 99.40 18.39 92.60 19.36 85.96 C 20.01 80.30 20.71 74.45 23.51 69.39 C 25.02 66.75 26.22 63.95 27.38 61.15 C 32.49 50.14 40.88 41.02 50.25 33.48 C 58.17 28.76 66.40 23.32 75.97 23.26 C 83.34 21.86 91.26 21.76 98.22 24.91 C 103.88 26.85 108.50 30.72 112.96 34.56 C 114.76 34.61 116.56 34.64 118.36 34.68 C 119.60 32.73 120.82 30.77 122.02 28.80 C 115.61 22.99 108.10 18.64 100.89 13.94 C 95.48 10.59 89.27 7.91 82.78 8.21 C 82.07 9.02 81.35 9.82 80.63 10.63 C 80.44 11.84 80.25 13.06 80.05 14.28 C 75.74 13.23 72.69 9.82 68.79 7.96 C 66.44 7.33 63.95 6.92 62.07 5.24 C 57.72 5.53 53.90 7.67 50.40 10.10 M 68.80 26.58 C 62.15 28.18 56.75 32.63 50.96 36.03 C 52.35 38.32 54.83 39.76 57.44 40.20 C 65.53 40.47 72.78 44.55 80.27 47.15 C 84.25 48.28 88.42 47.26 92.44 48.07 C 96.64 48.95 100.94 48.66 105.20 48.72 C 105.23 49.58 105.28 50.43 105.32 51.29 C 103.27 50.75 101.10 50.30 99.28 51.66 C 104.06 54.40 108.63 57.74 114.02 59.21 C 117.56 59.85 121.18 59.46 124.75 59.48 C 124.20 53.76 120.21 49.21 116.97 44.74 C 115.24 46.89 114.19 49.45 113.26 52.02 C 112.18 51.50 110.93 51.10 110.67 49.76 C 108.74 44.66 104.54 41.05 100.76 37.33 C 100.71 36.84 100.60 35.87 100.55 35.38 C 104.57 36.54 108.46 38.19 112.64 38.71 C 111.86 37.42 111.16 36.03 109.98 35.04 C 105.39 31.03 100.25 27.42 94.30 25.77 C 89.73 24.04 84.76 24.25 79.95 24.34 C 76.12 24.36 72.46 25.62 68.80 26.58 M 132.30 45.51 C 128.53 44.11 124.65 43.05 120.79 41.94 C 120.19 42.61 119.58 43.28 118.97 43.94 C 122.69 47.80 125.03 52.66 126.98 57.59 C 128.17 57.69 129.36 57.80 130.56 57.91 C 130.50 59.64 130.25 61.36 129.79 63.03 C 130.20 63.44 131.01 64.26 131.41 64.67 C 131.44 66.43 131.37 68.20 131.60 69.95 C 132.12 72.30 133.41 74.49 133.36 76.94 C 133.37 80.60 134.22 84.18 135.03 87.72 C 135.79 90.70 137.95 93.02 139.90 95.30 C 142.40 95.74 144.89 96.43 146.90 98.04 C 144.54 100.14 141.28 97.71 138.51 98.33 C 138.14 109.27 138.77 120.34 141.20 131.01 C 137.25 134.99 134.88 140.10 132.16 144.90 C 132.37 147.87 134.25 150.30 135.86 152.67 C 140.74 151.89 144.63 148.57 148.84 146.22 C 147.37 144.68 145.76 143.22 144.70 141.36 C 144.04 138.70 144.45 135.90 144.72 133.21 C 145.85 128.30 149.16 123.98 148.82 118.73 C 149.72 118.67 150.62 118.60 151.53 118.53 C 151.47 120.40 151.32 122.25 151.13 124.11 C 154.08 121.88 154.78 118.00 157.31 115.39 C 159.41 111.54 158.33 106.94 158.84 102.75 C 159.57 98.28 160.02 93.37 157.84 89.23 C 157.18 87.20 157.74 85.01 157.67 82.92 C 156.31 81.44 154.96 79.95 153.60 78.47 C 153.53 77.94 153.39 76.87 153.31 76.34 C 155.00 76.84 156.96 78.37 158.63 77.01 C 162.17 74.01 164.09 69.65 166.34 65.69 C 162.45 64.17 158.71 62.18 155.54 59.42 C 151.51 55.78 147.06 52.64 143.18 48.82 C 140.02 46.20 137.43 42.90 133.85 40.80 C 133.35 42.38 132.83 43.94 132.30 45.51 Z" />
<path fill="#000000" opacity="1.00" d=" M 48.40 70.99 C 48.48 67.86 48.14 64.10 51.22 62.23 C 50.27 64.14 50.47 66.29 50.32 68.36 C 54.35 71.24 59.43 72.63 62.82 76.36 C 63.12 77.98 61.14 78.15 60.19 78.91 C 60.99 80.09 61.77 81.29 62.57 82.47 C 62.14 82.41 61.27 82.29 60.83 82.24 C 59.58 79.98 58.67 77.39 56.61 75.71 C 54.16 73.70 51.40 72.03 48.40 70.99 Z" />
<path fill="#000000" opacity="1.00" d=" M 32.42 70.34 C 32.48 68.80 32.60 67.25 32.76 65.72 C 33.45 67.25 34.02 68.86 35.00 70.25 C 39.30 71.68 43.50 68.65 47.90 69.41 C 47.89 69.69 47.88 70.25 47.87 70.52 C 40.76 69.74 34.82 74.63 30.02 79.26 C 32.09 80.23 34.19 81.18 36.43 81.70 C 37.79 83.44 38.64 85.45 38.61 87.68 C 36.33 89.94 33.37 91.42 30.13 91.62 C 30.30 95.20 30.26 98.81 30.86 102.34 C 34.23 107.37 40.57 109.17 46.35 108.54 C 53.91 102.94 60.52 95.82 64.34 87.15 C 64.97 84.37 64.65 81.50 64.67 78.68 C 65.12 78.68 66.02 78.68 66.47 78.68 C 66.53 80.89 66.76 83.13 66.38 85.32 C 64.78 90.54 61.63 95.08 58.07 99.15 C 54.73 103.13 51.42 107.99 45.98 109.09 C 41.08 109.71 35.22 109.35 31.89 105.18 C 29.17 102.94 29.00 99.21 28.46 96.00 C 28.17 93.39 26.67 91.07 26.38 88.48 C 26.62 85.95 27.80 83.59 27.80 81.02 C 25.94 80.66 24.39 79.65 23.31 78.10 C 25.06 78.21 26.80 78.69 28.56 78.57 C 30.63 76.75 32.60 74.83 34.71 73.05 C 33.95 72.14 33.19 71.24 32.42 70.34 Z" />
<path fill="#000000" opacity="1.00" d=" M 104.70 121.79 C 105.09 121.83 105.86 121.90 106.25 121.93 C 106.79 126.90 106.62 131.92 106.46 136.91 C 106.35 141.08 103.19 144.61 99.49 146.20 C 93.89 147.66 87.89 147.85 82.26 146.45 C 76.19 144.64 72.01 139.34 69.89 133.58 C 70.23 133.60 70.91 133.63 71.25 133.65 C 71.42 133.37 71.76 132.81 71.94 132.53 C 73.42 137.78 77.95 141.58 82.93 143.41 C 87.96 144.05 93.14 144.14 98.17 143.50 C 101.05 141.94 103.65 139.40 104.24 136.05 C 104.60 131.30 104.16 126.53 104.70 121.79 Z" />
</g>
<g id="#fefefdff">
<path fill="#fefefd" opacity="1.00" d=" M 0.53 0.00 L 171.00 0.00 L 171.00 170.00 L 0.00 170.00 L 0.00 0.63 C 0.13 0.47 0.40 0.16 0.53 0.00 M 50.25 4.65 C 50.60 4.91 51.31 5.43 51.66 5.69 C 52.24 8.25 49.54 8.90 47.80 9.82 C 44.05 11.53 40.73 14.02 37.04 15.84 C 34.47 17.12 32.68 19.45 30.37 21.09 C 28.01 22.74 26.10 24.92 24.34 27.17 C 25.57 27.39 26.80 27.62 28.04 27.84 C 27.55 30.65 25.27 32.50 23.44 34.47 C 21.60 36.27 20.44 38.61 19.10 40.78 C 17.23 44.02 14.69 46.79 12.70 49.95 C 11.47 52.26 10.57 54.73 9.43 57.10 C 9.16 59.60 9.24 62.16 9.68 64.64 C 10.42 67.15 11.94 69.41 12.22 72.05 C 12.44 77.37 12.32 82.72 11.41 87.97 C 9.76 91.87 7.17 95.35 4.00 98.16 C 3.80 99.55 3.62 100.94 3.41 102.33 C 3.93 102.45 4.96 102.69 5.48 102.81 C 6.75 105.71 3.77 108.11 3.58 110.93 C 3.43 116.32 3.06 121.75 3.66 127.13 C 5.07 129.70 5.85 132.54 6.68 135.34 C 7.25 135.38 8.39 135.45 8.95 135.49 C 10.20 138.02 12.81 139.31 15.04 140.82 C 17.61 142.40 20.22 144.22 23.31 144.57 C 27.74 145.25 32.01 147.00 36.57 146.65 C 36.03 150.64 38.62 154.44 37.43 158.40 C 36.97 159.91 36.58 161.45 36.58 163.04 C 39.31 160.43 41.28 157.20 42.48 153.63 C 42.87 153.33 43.64 152.73 44.03 152.44 C 43.30 152.39 41.85 152.29 41.12 152.23 C 41.21 152.87 41.38 154.14 41.47 154.78 C 40.84 154.58 39.60 154.17 38.98 153.97 C 38.84 152.16 38.84 150.35 38.77 148.54 C 39.18 148.49 39.99 148.39 40.40 148.34 C 40.84 149.56 41.28 150.78 41.72 152.00 C 42.43 151.89 43.83 151.65 44.53 151.54 C 44.55 150.80 44.61 149.32 44.63 148.58 C 41.96 146.80 38.69 145.84 36.56 143.32 C 34.60 141.40 33.51 138.87 32.48 136.38 C 30.83 132.27 27.31 129.29 25.65 125.18 C 24.87 123.24 24.22 121.21 22.92 119.54 C 22.59 117.20 23.19 114.60 21.81 112.52 C 21.43 106.07 18.66 99.70 20.11 93.20 C 20.47 88.03 21.73 82.93 21.43 77.73 C 23.96 75.21 24.98 71.71 26.57 68.61 C 28.00 65.09 30.11 61.89 31.44 58.33 C 33.02 53.81 36.31 50.23 39.38 46.67 C 42.38 43.54 45.25 40.25 48.66 37.55 C 50.66 37.70 51.59 40.26 53.57 40.67 C 55.80 41.55 58.25 41.54 60.54 42.26 C 65.72 43.90 70.76 45.96 75.82 47.94 C 77.89 48.96 80.57 48.05 82.32 49.75 C 82.47 49.33 82.76 48.49 82.91 48.07 C 83.15 48.57 83.62 49.57 83.85 50.07 C 84.35 49.64 85.33 48.78 85.83 48.35 C 87.66 49.87 90.00 49.67 92.27 49.63 C 93.73 50.93 95.80 51.56 96.97 53.14 C 96.45 56.43 92.92 57.87 90.87 60.15 C 89.59 58.74 89.58 56.00 87.16 55.95 C 87.44 58.49 89.06 61.15 87.90 63.69 C 86.70 66.83 85.43 69.96 84.67 73.25 C 84.17 75.83 86.34 77.79 87.50 79.84 C 90.32 84.39 93.88 88.83 99.01 90.84 C 105.81 94.19 113.56 93.80 120.90 93.33 C 124.54 92.26 126.96 89.07 129.35 86.32 C 129.61 83.80 130.98 81.22 129.86 78.73 C 128.50 83.67 126.58 89.79 121.10 91.46 C 115.75 91.95 110.32 91.89 104.97 91.35 C 101.29 90.29 97.50 88.93 94.74 86.15 C 91.37 82.93 88.68 79.02 86.59 74.86 C 86.26 71.28 87.71 67.58 89.61 64.58 C 92.41 61.10 95.56 57.76 99.42 55.46 C 102.46 55.11 104.61 58.42 107.62 58.86 C 107.67 61.56 106.73 64.50 107.82 67.07 C 111.28 69.08 115.55 68.88 119.42 69.34 C 119.47 67.51 119.51 65.67 119.55 63.84 L 121.05 64.56 C 123.76 67.99 125.27 72.16 127.43 75.92 C 127.52 76.41 127.69 77.38 127.78 77.87 C 128.28 77.78 129.29 77.61 129.79 77.53 C 128.44 74.50 127.20 71.41 125.55 68.52 C 124.32 66.15 122.73 63.90 122.20 61.23 C 123.30 61.60 124.92 61.14 125.63 62.31 C 127.40 64.04 127.37 66.66 127.83 68.92 C 128.61 69.82 129.43 70.71 130.16 71.66 C 132.54 77.67 132.48 84.25 133.82 90.51 C 134.67 92.82 136.71 94.53 137.42 96.88 C 137.63 106.05 136.35 115.41 138.58 124.42 C 138.87 126.24 139.48 128.03 139.43 129.89 C 138.89 131.13 137.86 132.06 137.08 133.14 C 133.94 136.91 132.06 141.51 130.28 146.03 C 129.57 147.65 129.31 149.53 128.06 150.86 C 126.40 152.74 124.49 154.69 124.47 157.38 C 122.43 157.29 122.46 159.16 122.22 160.67 C 123.81 161.22 125.47 161.51 127.13 161.67 C 128.72 161.59 130.39 161.59 131.84 160.86 C 132.94 160.75 134.01 160.54 135.05 160.20 C 136.54 158.38 137.25 156.10 137.88 153.87 C 143.84 151.91 149.06 146.95 155.78 147.68 C 155.72 147.17 155.59 146.14 155.52 145.63 C 153.51 145.40 151.46 145.17 149.59 144.36 C 147.23 142.77 146.16 139.87 146.25 137.11 C 146.00 133.71 147.77 130.68 148.94 127.62 C 150.20 127.65 151.46 127.64 152.72 127.60 C 153.65 123.63 156.39 120.47 157.59 116.62 C 157.88 115.30 158.95 114.39 159.50 113.21 C 158.72 111.59 159.06 109.83 159.15 108.13 C 159.48 104.37 159.29 100.53 160.36 96.86 C 160.56 94.62 161.03 92.10 159.75 90.09 C 157.96 87.29 158.10 83.86 157.36 80.73 C 159.53 77.57 163.32 75.90 165.13 72.47 C 166.47 69.89 168.09 67.48 169.56 64.99 C 169.61 63.26 169.58 61.52 169.65 59.79 C 168.80 60.43 167.93 61.04 167.05 61.63 C 164.09 62.41 161.24 60.84 158.74 59.45 C 155.57 57.71 153.02 55.12 150.16 52.95 C 148.30 51.43 146.18 50.22 144.51 48.48 C 140.54 43.79 135.60 40.07 131.62 35.39 C 131.89 30.63 131.05 25.94 130.21 21.28 C 128.09 22.67 126.27 24.48 125.17 26.79 C 122.05 26.81 119.93 24.42 117.65 22.67 C 111.37 18.02 104.49 14.30 97.97 10.01 C 92.74 7.93 86.98 7.32 81.38 7.60 C 79.94 8.65 78.87 10.59 76.95 10.68 C 72.56 8.56 68.40 5.78 63.58 4.69 C 59.14 4.11 54.69 4.53 50.25 4.65 M 48.40 70.99 C 51.40 72.03 54.16 73.70 56.61 75.71 C 58.67 77.39 59.58 79.98 60.83 82.24 C 61.27 82.29 62.14 82.41 62.57 82.47 C 61.77 81.29 60.99 80.09 60.19 78.91 C 61.14 78.15 63.12 77.98 62.82 76.36 C 59.43 72.63 54.35 71.24 50.32 68.36 C 50.47 66.29 50.27 64.14 51.22 62.23 C 48.14 64.10 48.48 67.86 48.40 70.99 M 32.42 70.34 C 33.19 71.24 33.95 72.14 34.71 73.05 C 32.60 74.83 30.63 76.75 28.56 78.57 C 26.80 78.69 25.06 78.21 23.31 78.10 C 24.39 79.65 25.94 80.66 27.80 81.02 C 27.80 83.59 26.62 85.95 26.38 88.48 C 26.67 91.07 28.17 93.39 28.46 96.00 C 29.00 99.21 29.17 102.94 31.89 105.18 C 35.22 109.35 41.08 109.71 45.98 109.09 C 51.42 107.99 54.73 103.13 58.07 99.15 C 61.63 95.08 64.78 90.54 66.38 85.32 C 66.76 83.13 66.53 80.89 66.47 78.68 C 66.02 78.68 65.12 78.68 64.67 78.68 C 64.65 81.50 64.97 84.37 64.34 87.15 C 60.52 95.82 53.91 102.94 46.35 108.54 C 40.57 109.17 34.23 107.37 30.86 102.34 C 30.26 98.81 30.30 95.20 30.13 91.62 C 33.37 91.42 36.33 89.94 38.61 87.68 C 38.64 85.45 37.79 83.44 36.43 81.70 C 34.19 81.18 32.09 80.23 30.02 79.26 C 34.82 74.63 40.76 69.74 47.87 70.52 C 47.88 70.25 47.89 69.69 47.90 69.41 C 43.50 68.65 39.30 71.68 35.00 70.25 C 34.02 68.86 33.45 67.25 32.76 65.72 C 32.60 67.25 32.48 68.80 32.42 70.34 M 104.70 121.79 C 104.16 126.53 104.60 131.30 104.24 136.05 C 103.65 139.40 101.05 141.94 98.17 143.50 C 93.14 144.14 87.96 144.05 82.93 143.41 C 77.95 141.58 73.42 137.78 71.94 132.53 C 71.76 132.81 71.42 133.37 71.25 133.65 C 70.91 133.63 70.23 133.60 69.89 133.58 C 72.01 139.34 76.19 144.64 82.26 146.45 C 87.89 147.85 93.89 147.66 99.49 146.20 C 103.19 144.61 106.35 141.08 106.46 136.91 C 106.62 131.92 106.79 126.90 106.25 121.93 C 105.86 121.90 105.09 121.83 104.70 121.79 Z" />
</g>
<g id="#d19815ff">
<path fill="#d19815" opacity="1.00" d=" M 50.40 10.10 C 53.90 7.67 57.72 5.53 62.07 5.24 C 63.95 6.92 66.44 7.33 68.79 7.96 C 72.69 9.82 75.74 13.23 80.05 14.28 C 80.25 13.06 80.44 11.84 80.63 10.63 C 81.35 9.82 82.07 9.02 82.78 8.21 C 89.27 7.91 95.48 10.59 100.89 13.94 C 108.10 18.64 115.61 22.99 122.02 28.80 C 120.82 30.77 119.60 32.73 118.36 34.68 C 116.56 34.64 114.76 34.61 112.96 34.56 C 108.50 30.72 103.88 26.85 98.22 24.91 C 91.26 21.76 83.34 21.86 75.97 23.26 C 66.40 23.32 58.17 28.76 50.25 33.48 C 40.88 41.02 32.49 50.14 27.38 61.15 C 26.22 63.95 25.02 66.75 23.51 69.39 C 20.71 74.45 20.01 80.30 19.36 85.96 C 18.39 92.60 18.30 99.40 19.60 106.00 C 20.69 111.53 20.69 117.30 22.79 122.59 C 24.11 126.32 26.26 129.65 28.34 132.98 C 27.91 133.34 27.04 134.07 26.61 134.43 C 26.73 134.64 26.95 135.07 27.06 135.28 C 28.04 135.10 29.01 134.93 29.99 134.77 C 31.40 138.09 33.10 141.27 34.97 144.35 C 34.51 144.65 33.60 145.26 33.14 145.56 C 27.11 142.33 19.25 142.77 14.37 137.49 C 12.40 135.58 12.28 132.83 12.45 130.27 C 10.98 130.58 9.51 130.89 8.05 131.20 C 6.35 126.27 4.02 121.35 4.33 116.00 C 3.97 112.45 6.16 109.51 7.29 106.33 C 8.33 103.00 8.20 99.42 9.29 96.10 C 9.50 98.42 9.53 100.75 9.62 103.07 C 9.72 100.05 9.49 96.92 10.80 94.09 C 12.09 91.30 11.16 88.07 12.39 85.26 C 15.01 79.09 12.71 72.41 12.43 66.04 C 12.12 63.12 10.74 60.15 11.89 57.24 C 13.03 52.60 15.60 48.56 18.21 44.64 C 21.70 38.25 27.11 33.28 31.69 27.71 C 30.82 27.00 29.96 26.30 29.09 25.60 C 35.80 19.92 42.72 14.44 50.40 10.10 Z" />
<path fill="#d19815" opacity="1.00" d=" M 68.80 26.58 C 72.46 25.62 76.12 24.36 79.95 24.34 C 84.76 24.25 89.73 24.04 94.30 25.77 C 100.25 27.42 105.39 31.03 109.98 35.04 C 111.16 36.03 111.86 37.42 112.64 38.71 C 108.46 38.19 104.57 36.54 100.55 35.38 C 100.60 35.87 100.71 36.84 100.76 37.33 C 104.54 41.05 108.74 44.66 110.67 49.76 C 110.93 51.10 112.18 51.50 113.26 52.02 C 114.19 49.45 115.24 46.89 116.97 44.74 C 120.21 49.21 124.20 53.76 124.75 59.48 C 121.18 59.46 117.56 59.85 114.02 59.21 C 108.63 57.74 104.06 54.40 99.28 51.66 C 101.10 50.30 103.27 50.75 105.32 51.29 C 105.28 50.43 105.23 49.58 105.20 48.72 C 100.94 48.66 96.64 48.95 92.44 48.07 C 88.42 47.26 84.25 48.28 80.27 47.15 C 72.78 44.55 65.53 40.47 57.44 40.20 C 54.83 39.76 52.35 38.32 50.96 36.03 C 56.75 32.63 62.15 28.18 68.80 26.58 Z" />
<path fill="#d19815" opacity="1.00" d=" M 132.30 45.51 C 132.83 43.94 133.35 42.38 133.85 40.80 C 137.43 42.90 140.02 46.20 143.18 48.82 C 147.06 52.64 151.51 55.78 155.54 59.42 C 158.71 62.18 162.45 64.17 166.34 65.69 C 164.09 69.65 162.17 74.01 158.63 77.01 C 156.96 78.37 155.00 76.84 153.31 76.34 C 153.39 76.87 153.53 77.94 153.60 78.47 C 154.96 79.95 156.31 81.44 157.67 82.92 C 157.74 85.01 157.18 87.20 157.84 89.23 C 160.02 93.37 159.57 98.28 158.84 102.75 C 158.33 106.94 159.41 111.54 157.31 115.39 C 154.78 118.00 154.08 121.88 151.13 124.11 C 151.32 122.25 151.47 120.40 151.53 118.53 C 150.62 118.60 149.72 118.67 148.82 118.73 C 149.16 123.98 145.85 128.30 144.72 133.21 C 144.45 135.90 144.04 138.70 144.70 141.36 C 145.76 143.22 147.37 144.68 148.84 146.22 C 144.63 148.57 140.74 151.89 135.86 152.67 C 134.25 150.30 132.37 147.87 132.16 144.90 C 134.88 140.10 137.25 134.99 141.20 131.01 C 138.77 120.34 138.14 109.27 138.51 98.33 C 141.28 97.71 144.54 100.14 146.90 98.04 C 144.89 96.43 142.40 95.74 139.90 95.30 C 137.95 93.02 135.79 90.70 135.03 87.72 C 134.22 84.18 133.37 80.60 133.36 76.94 C 133.41 74.49 132.12 72.30 131.60 69.95 C 131.37 68.20 131.44 66.43 131.41 64.67 C 131.01 64.26 130.20 63.44 129.79 63.03 C 130.25 61.36 130.50 59.64 130.56 57.91 C 129.36 57.80 128.17 57.69 126.98 57.59 C 125.03 52.66 122.69 47.80 118.97 43.94 C 119.58 43.28 120.19 42.61 120.79 41.94 C 124.65 43.05 128.53 44.11 132.30 45.51 Z" />
<path fill="#d19815" opacity="1.00" d=" M 125.16 157.05 C 127.14 154.99 129.05 152.86 130.99 150.75 C 132.60 152.16 134.22 153.55 135.84 154.94 C 134.60 156.97 133.32 158.99 131.84 160.86 C 130.39 161.59 128.72 161.59 127.13 161.67 C 126.69 161.32 125.80 160.61 125.36 160.25 C 125.31 159.45 125.21 157.85 125.16 157.05 Z" />
</g>
</svg>
