<?xml version="1.0" encoding="UTF-8" ?>
<!DOCTYPE svg PUBLIC "-//W3C//DTD SVG 1.1//EN" "http://www.w3.org/Graphics/SVG/1.1/DTD/svg11.dtd">
<svg width="1140pt" height="890pt" viewBox="0 0 1140 890" version="1.1" xmlns="http://www.w3.org/2000/svg">
<path fill="#ffffff" opacity="1.00" d=" M 0.00 0.00 L 1140.00 0.00 L 1140.00 890.00 L 0.00 890.00 L 0.00 0.00 M 1084.74 21.64 C 1078.92 27.99 1078.50 37.68 1081.43 45.45 C 1083.89 52.16 1090.23 56.94 1097.15 58.29 C 1107.78 60.49 1118.56 57.21 1128.29 53.07 C 1127.69 45.76 1126.58 38.51 1125.88 31.21 C 1118.29 31.90 1110.74 32.93 1103.18 33.80 C 1103.50 36.55 1103.82 39.31 1104.14 42.07 C 1107.41 41.76 1110.67 41.35 1113.94 40.95 C 1114.30 43.89 1114.63 46.84 1114.92 49.79 C 1108.82 50.54 1101.46 51.15 1096.84 46.25 C 1092.19 40.98 1091.24 32.27 1095.46 26.48 C 1099.77 21.05 1107.52 19.64 1114.01 21.09 C 1117.82 21.75 1121.04 24.11 1124.81 24.94 C 1124.55 21.37 1124.09 17.83 1123.64 14.28 C 1118.19 12.76 1112.51 11.81 1106.84 12.40 C 1098.79 12.98 1090.20 15.30 1084.74 21.64 M 1056.32 19.16 C 1056.86 27.63 1058.25 36.02 1059.04 44.47 C 1052.10 36.80 1045.19 29.10 1038.32 21.38 C 1033.23 21.87 1028.15 22.50 1023.08 23.13 C 1024.93 37.84 1026.40 52.60 1028.36 67.30 C 1032.19 66.80 1036.03 66.39 1039.87 65.87 C 1038.71 55.84 1037.45 45.83 1036.40 35.79 C 1044.62 44.95 1052.58 54.33 1060.77 63.52 C 1064.77 62.99 1068.78 62.53 1072.79 62.08 C 1071.33 47.38 1069.35 32.73 1067.80 18.03 C 1063.94 18.21 1060.15 18.84 1056.32 19.16 M 983.94 27.59 C 984.18 30.22 984.49 32.84 984.83 35.46 C 987.51 35.13 990.20 34.82 992.89 34.50 C 993.92 44.00 995.09 53.49 996.18 62.99 C 993.52 63.32 990.84 63.64 988.19 63.94 C 988.43 66.56 988.73 69.17 989.05 71.78 C 998.65 70.63 1008.27 69.60 1017.86 68.37 C 1017.47 65.78 1017.15 63.17 1016.89 60.56 C 1014.20 60.90 1011.51 61.22 1008.84 61.56 C 1007.71 52.05 1006.67 42.53 1005.48 33.03 C 1008.15 32.71 1010.83 32.39 1013.52 32.13 C 1013.24 29.49 1012.95 26.84 1012.65 24.20 C 1003.09 25.42 993.51 26.47 983.94 27.59 M 960.95 30.44 C 961.61 35.82 962.15 41.22 962.88 46.59 C 956.63 47.34 950.37 48.07 944.12 48.78 C 943.54 43.41 942.89 38.04 942.27 32.67 C 938.04 33.07 933.82 33.63 929.60 34.10 C 931.38 48.83 932.94 63.59 934.84 78.30 C 939.00 77.75 943.17 77.28 947.36 76.83 C 946.71 70.34 945.92 63.87 945.12 57.41 C 951.36 56.56 957.61 55.84 963.89 55.22 C 964.53 61.70 965.38 68.15 966.11 74.61 C 970.34 74.14 974.56 73.60 978.80 73.15 C 977.03 58.43 975.28 43.69 973.66 28.95 C 969.42 29.47 965.18 29.95 960.95 30.44 M 878.69 39.93 C 879.03 42.77 879.36 45.61 879.69 48.45 C 884.80 47.92 889.91 47.24 895.02 46.68 C 896.40 58.55 897.80 70.41 899.16 82.28 C 903.35 81.85 907.54 81.27 911.75 80.91 C 910.62 68.96 908.90 57.08 907.74 45.13 C 912.84 44.69 917.92 43.96 923.02 43.43 C 922.68 40.59 922.34 37.75 921.96 34.92 C 907.53 36.50 893.11 38.27 878.69 39.93 M 863.10 41.95 C 860.18 47.87 857.65 53.99 854.87 59.98 C 850.57 54.77 846.67 49.23 842.14 44.24 C 837.41 44.51 832.73 45.34 828.02 45.76 C 834.93 54.50 842.58 62.65 849.44 71.42 C 850.32 76.85 850.69 82.36 851.46 87.82 C 855.66 87.32 859.87 86.84 864.08 86.35 C 863.61 81.96 863.07 77.58 862.54 73.20 C 862.41 71.41 861.79 69.46 862.82 67.82 C 867.55 58.56 872.34 49.33 877.02 40.05 C 872.41 40.82 867.57 40.76 863.10 41.95 M 781.09 51.36 C 782.90 66.09 784.43 80.84 786.34 95.55 C 790.49 95.01 794.66 94.55 798.83 94.04 C 798.25 88.63 797.57 83.24 796.95 77.84 C 798.90 77.62 800.87 77.40 802.84 77.22 C 807.84 82.11 813.03 86.81 817.93 91.82 C 823.11 91.25 828.29 90.60 833.47 90.00 C 827.36 84.29 821.13 78.71 814.99 73.03 C 818.34 70.86 821.85 68.10 822.85 64.03 C 823.87 59.75 823.12 54.49 819.43 51.67 C 815.14 48.22 809.30 48.15 804.09 48.68 C 796.42 49.55 788.75 50.45 781.09 51.36 M 734.84 56.65 C 736.62 71.36 738.25 86.08 740.03 100.79 C 751.86 99.38 763.69 97.97 775.54 96.66 C 775.17 93.85 774.85 91.05 774.60 88.23 C 766.90 88.81 759.26 89.91 751.60 90.79 C 751.17 87.14 750.75 83.48 750.35 79.82 C 757.44 79.03 764.52 78.16 771.61 77.37 C 771.41 74.47 770.35 71.47 771.19 68.60 C 763.95 69.72 756.63 70.37 749.37 71.32 C 749.05 68.80 748.74 66.27 748.42 63.75 C 756.03 62.68 763.68 61.98 771.30 60.99 C 771.02 58.13 770.69 55.28 770.34 52.44 C 758.51 53.92 746.66 55.13 734.84 56.65 M 414.24 60.19 C 380.02 69.44 345.94 79.23 312.12 89.87 C 294.06 95.45 276.23 101.76 258.01 106.82 C 243.61 111.00 228.91 114.66 215.44 121.42 C 201.36 128.55 189.46 139.42 179.68 151.70 C 171.99 162.48 168.87 175.98 160.20 186.15 C 146.70 201.77 129.83 213.88 114.19 227.19 C 105.55 234.58 97.05 242.39 90.68 251.89 C 82.67 263.73 77.72 277.27 70.52 289.57 C 66.24 296.95 60.65 303.82 53.23 308.22 C 50.87 297.68 55.89 286.92 53.30 276.42 C 52.08 272.19 47.15 271.37 43.42 272.32 C 46.28 285.66 47.09 299.64 44.00 313.02 C 40.33 330.23 30.00 345.05 25.66 362.03 C 23.75 369.22 22.93 376.66 22.96 384.09 C 24.99 386.45 27.36 390.57 31.05 389.21 C 37.04 384.69 35.93 375.66 41.05 370.57 C 41.97 371.63 42.80 372.77 43.54 373.98 C 40.80 378.18 38.34 382.57 36.24 387.13 C 23.70 414.57 20.16 445.04 18.32 474.85 C 16.28 514.23 17.55 553.68 18.11 593.06 C 25.16 619.30 34.84 644.77 42.30 670.90 C 48.82 693.59 54.49 716.96 53.70 740.75 C 52.50 737.13 51.77 733.36 50.25 729.86 C 45.54 718.17 36.20 709.18 30.91 697.81 C 28.20 692.24 26.88 686.15 25.48 680.16 C 22.49 666.55 20.22 652.80 18.08 639.04 C 14.52 615.14 10.90 591.14 10.88 566.93 C 10.31 519.23 16.89 471.79 17.69 424.12 C 17.83 403.90 17.06 383.46 12.49 363.68 C 9.13 363.86 5.78 364.14 2.42 364.24 C 2.62 446.80 2.40 529.38 2.53 611.94 C 5.92 633.12 10.29 654.18 15.89 674.89 C 25.78 710.95 39.86 746.79 63.78 775.99 C 62.56 798.08 65.27 820.46 72.28 841.48 C 77.72 857.92 85.73 873.36 94.45 888.27 C 97.71 888.24 100.96 888.24 104.21 888.25 C 90.20 855.55 77.57 821.73 73.66 786.13 C 81.24 797.11 89.20 807.92 98.71 817.34 C 127.14 846.75 163.59 866.86 200.89 882.77 C 198.87 874.95 194.76 867.67 188.82 862.17 C 178.74 852.54 165.36 847.64 152.61 842.64 C 139.33 837.38 125.25 832.48 114.77 822.37 C 113.16 819.08 112.47 815.37 110.85 812.07 C 103.13 793.58 88.47 779.30 73.79 766.19 C 73.37 751.68 71.69 737.20 68.42 723.04 C 58.87 680.46 38.78 641.01 30.40 598.11 C 21.73 552.29 23.12 504.94 31.71 459.21 C 39.03 418.80 50.69 379.02 53.05 337.84 C 53.28 335.87 52.91 333.72 53.97 331.95 C 64.11 312.69 79.91 297.32 95.54 282.51 C 106.69 271.64 118.00 260.74 126.92 247.88 C 135.76 235.39 142.00 221.06 144.93 206.03 C 153.37 203.15 161.31 198.80 168.12 193.04 C 187.20 177.16 197.75 153.64 216.37 137.32 C 223.05 131.43 230.74 126.66 239.08 123.52 C 254.37 117.72 270.77 115.60 287.02 114.81 C 324.70 113.22 362.17 118.86 399.32 124.48 C 394.10 114.43 382.72 109.98 372.16 108.21 C 353.58 104.86 334.51 106.27 315.92 103.06 C 311.43 102.14 306.81 101.35 302.71 99.21 C 329.53 90.29 357.05 83.33 385.00 79.02 C 416.44 74.33 448.82 73.33 480.04 80.10 C 502.81 85.01 524.71 94.44 543.40 108.42 C 558.65 119.75 571.78 133.84 582.47 149.52 C 583.32 153.80 582.98 158.36 584.65 162.50 C 588.02 171.31 595.75 177.37 600.29 185.51 C 610.02 202.48 616.24 221.15 624.37 238.90 C 639.64 274.44 665.91 304.23 679.12 340.77 C 686.06 359.37 688.21 379.80 684.64 399.37 C 703.45 418.22 715.15 442.91 722.77 468.15 C 734.63 508.03 738.02 549.78 740.32 591.13 C 742.75 637.45 742.69 683.89 745.80 730.17 C 726.99 756.13 715.47 786.42 705.80 816.74 C 698.29 840.44 691.83 864.44 684.65 888.24 C 688.04 888.25 691.43 888.26 694.82 888.22 C 706.30 851.16 726.76 817.89 742.32 782.55 C 757.74 748.19 766.82 710.65 765.91 672.87 C 763.66 666.42 753.88 670.82 751.00 664.98 C 749.87 653.07 749.69 641.05 749.88 629.09 C 750.39 581.37 755.71 533.68 752.97 485.94 C 751.58 464.02 748.51 441.81 739.73 421.50 C 736.04 421.48 732.40 420.83 728.93 419.61 C 730.84 430.77 736.32 440.86 739.11 451.78 C 741.77 461.37 742.22 471.53 740.62 481.35 C 735.34 472.61 732.61 462.66 729.80 452.92 C 725.67 438.67 722.23 423.31 712.04 411.96 C 708.51 409.24 705.24 406.09 703.32 402.00 C 702.26 402.84 701.19 403.67 700.12 404.48 C 699.44 399.00 699.89 393.48 699.72 387.97 C 699.61 385.27 698.93 382.62 699.05 379.91 C 700.45 367.68 699.99 354.94 705.02 343.43 C 700.56 340.14 696.54 336.27 693.04 331.99 C 683.23 319.77 678.97 304.27 676.22 289.12 C 672.53 269.15 670.97 248.16 661.12 229.99 C 653.35 215.08 640.40 204.04 628.83 192.21 C 619.35 182.47 611.40 171.41 602.78 160.93 C 580.48 132.68 557.01 104.59 527.12 84.03 C 531.44 83.78 536.20 84.30 540.10 82.05 C 542.91 80.28 542.71 76.55 542.22 73.69 C 532.01 74.33 521.75 74.57 511.59 73.20 C 500.28 71.73 488.39 67.84 481.11 58.52 C 461.75 58.46 442.38 58.54 423.01 58.48 C 419.98 58.31 417.13 59.47 414.24 60.19 M 714.90 58.90 C 712.20 69.71 709.32 80.48 706.72 91.31 C 701.41 81.50 696.37 71.54 691.16 61.67 C 686.76 62.20 682.36 62.76 677.95 63.17 C 685.46 77.29 693.29 91.25 700.93 105.31 C 705.65 104.79 710.37 104.21 715.09 103.67 C 719.34 88.25 723.68 72.85 727.80 57.39 C 723.50 57.92 719.20 58.44 714.90 58.90 M 637.09 68.12 C 638.93 82.84 640.39 97.60 642.37 112.30 C 654.17 110.85 665.98 109.48 677.80 108.16 C 677.42 105.32 677.08 102.47 676.77 99.63 C 669.12 100.44 661.48 101.35 653.85 102.30 C 653.44 98.64 653.01 94.99 652.57 91.34 C 659.66 90.52 666.76 89.68 673.86 88.86 C 673.49 86.02 673.15 83.16 672.89 80.31 C 665.80 81.20 658.70 81.87 651.63 82.86 C 651.29 80.30 650.98 77.73 650.71 75.17 C 658.34 74.27 665.98 73.45 673.59 72.46 C 673.26 69.62 672.93 66.79 672.61 63.95 C 660.77 65.37 648.92 66.68 637.09 68.12 M 843.44 117.95 C 843.78 120.78 844.11 123.61 844.43 126.44 C 849.49 125.88 854.56 125.37 859.61 124.60 C 861.36 136.46 862.42 148.41 863.93 160.31 C 868.13 159.81 872.32 159.31 876.53 158.88 C 875.35 146.94 873.62 135.06 872.54 123.11 C 877.63 122.68 882.71 121.99 887.79 121.41 C 887.41 118.61 887.09 115.80 886.77 113.00 C 872.30 114.38 857.88 116.31 843.44 117.95 M 824.14 120.08 C 825.11 128.46 826.15 136.83 827.03 145.22 C 820.19 137.54 813.19 130.01 806.49 122.21 C 801.35 122.47 796.27 123.35 791.15 123.80 C 792.76 138.54 794.57 153.25 796.26 167.99 C 800.14 167.59 804.02 167.16 807.89 166.59 C 806.68 156.67 805.51 146.75 804.41 136.82 C 812.89 145.63 820.54 155.24 828.80 164.28 C 832.76 163.75 836.74 163.25 840.73 162.88 C 839.25 148.10 837.60 133.30 835.54 118.58 C 831.74 119.16 827.92 119.49 824.14 120.08 M 745.09 129.36 C 746.88 144.08 748.47 158.83 750.31 173.54 C 762.13 172.13 773.96 170.72 785.79 169.41 C 785.43 166.59 785.09 163.76 784.77 160.94 C 777.11 161.61 769.48 162.63 761.85 163.55 C 761.43 159.89 761.01 156.22 760.58 152.57 C 767.67 151.81 774.74 150.89 781.83 150.15 C 781.49 147.29 781.16 144.43 780.90 141.57 C 773.78 142.38 766.68 143.24 759.57 144.03 C 759.30 141.50 758.99 138.97 758.69 136.44 C 766.29 135.54 773.90 134.63 781.51 133.79 C 781.29 130.92 780.95 128.05 780.59 125.19 C 768.76 126.63 756.92 127.94 745.09 129.36 M 723.71 131.68 C 722.23 142.15 720.81 152.64 719.31 163.11 C 715.37 153.26 711.24 143.48 707.20 133.67 C 702.96 134.09 698.73 134.61 694.51 135.14 C 692.70 145.47 691.16 155.86 688.98 166.11 C 685.22 156.44 681.66 146.70 677.96 137.02 C 673.55 137.61 669.11 137.96 664.74 138.71 C 671.04 152.81 676.97 167.08 683.17 181.23 C 687.80 180.63 692.45 180.10 697.10 179.62 C 698.95 169.74 700.52 159.81 702.38 149.94 C 706.53 159.13 710.44 168.43 714.61 177.61 C 719.23 176.90 723.90 176.52 728.54 175.88 C 731.18 160.63 733.97 145.41 736.56 130.16 C 732.28 130.73 728.00 131.22 723.71 131.68 M 463.89 174.53 C 454.42 177.18 445.16 182.37 439.88 190.94 C 441.17 193.67 443.71 195.73 446.82 195.75 C 456.88 195.63 465.85 189.50 475.95 189.57 C 480.23 189.56 484.02 192.24 485.95 195.97 C 485.53 210.40 478.88 223.87 469.77 234.81 C 454.34 253.66 434.42 269.13 423.13 291.16 C 412.86 310.19 411.14 332.69 414.58 353.76 C 420.44 355.86 425.94 359.34 429.64 364.42 C 435.41 372.15 437.69 381.72 441.73 390.35 C 445.59 399.04 451.34 406.99 458.95 412.78 C 465.11 417.31 471.88 420.95 478.66 424.46 C 496.97 433.29 516.15 440.67 536.16 444.54 C 551.61 447.13 567.38 447.95 583.00 446.81 C 601.40 445.40 619.75 439.23 634.06 427.34 C 643.71 419.47 651.68 409.78 659.01 399.79 C 660.05 380.28 658.27 360.47 653.32 341.51 C 648.04 321.32 638.69 302.28 626.49 285.37 C 616.72 271.56 605.11 259.18 593.41 247.00 C 600.10 247.00 606.80 247.00 613.49 247.00 C 608.98 233.45 602.23 220.67 593.51 209.35 C 583.36 196.28 571.93 184.18 562.64 170.45 C 547.76 171.02 532.87 170.68 517.99 170.24 C 499.92 170.30 481.47 169.55 463.89 174.53 M 936.15 180.80 C 937.76 195.54 939.56 210.26 941.26 224.99 C 945.44 224.57 949.62 224.04 953.81 223.55 C 953.28 218.14 952.57 212.75 951.95 207.35 C 953.91 207.21 955.90 206.57 957.88 206.91 C 963.03 211.56 968.01 216.42 972.93 221.32 C 978.10 220.75 983.27 220.08 988.46 219.52 C 982.38 213.73 976.04 208.21 969.94 202.44 C 973.86 200.26 977.61 196.74 978.15 192.05 C 978.67 188.00 977.61 183.27 974.04 180.86 C 969.74 177.67 964.08 177.69 959.00 178.19 C 951.38 179.03 943.77 180.01 936.15 180.80 M 889.87 186.09 C 891.58 200.82 893.25 215.57 895.06 230.29 C 906.89 228.88 918.72 227.47 930.56 226.16 C 930.16 223.32 929.83 220.47 929.52 217.62 C 921.87 218.45 914.24 219.35 906.60 220.29 C 906.18 216.64 905.76 212.99 905.31 209.34 C 912.40 208.52 919.50 207.67 926.59 206.88 C 926.23 204.03 925.89 201.17 925.67 198.31 C 918.58 199.17 911.46 199.90 904.38 200.84 C 904.02 198.28 903.72 195.70 903.52 193.12 C 911.13 192.29 918.75 191.45 926.34 190.45 C 926.02 187.59 925.69 184.74 925.28 181.90 C 913.50 183.43 901.67 184.68 889.87 186.09 M 838.95 192.18 C 839.27 195.04 839.60 197.88 839.98 200.73 C 845.06 200.11 850.15 199.53 855.24 198.92 C 856.68 210.78 858.04 222.64 859.40 234.50 C 863.62 234.10 867.84 233.55 872.07 233.11 C 870.78 221.19 869.18 209.31 868.01 197.38 C 873.12 196.91 878.21 196.27 883.31 195.61 C 882.91 192.82 882.58 190.03 882.26 187.24 C 867.80 188.65 853.39 190.56 838.95 192.18 M 793.01 197.39 C 793.25 200.26 793.59 203.12 793.98 205.98 C 799.05 205.36 804.13 204.79 809.21 204.17 C 810.75 216.03 811.97 227.94 813.45 239.81 C 817.64 239.30 821.83 238.80 826.04 238.38 C 824.75 226.49 823.33 214.62 821.90 202.75 C 827.02 202.08 832.15 201.51 837.29 200.92 C 836.91 198.09 836.58 195.26 836.24 192.43 C 821.81 193.96 807.43 195.82 793.01 197.39 M 751.87 202.34 C 753.57 217.07 755.27 231.81 757.04 246.54 C 768.87 245.13 780.70 243.73 792.54 242.40 C 792.18 239.61 791.85 236.81 791.56 234.01 C 783.88 234.50 776.25 235.69 768.60 236.54 C 768.17 232.88 767.76 229.21 767.34 225.54 C 774.43 224.83 781.50 223.88 788.59 223.14 C 788.24 220.28 787.90 217.43 787.66 214.56 C 780.55 215.40 773.43 216.21 766.33 217.05 C 766.03 214.50 765.73 211.95 765.51 209.39 C 773.11 208.54 780.72 207.68 788.32 206.72 C 788.01 203.87 787.68 201.02 787.34 198.18 C 775.53 199.65 763.69 200.95 751.87 202.34 M 700.33 208.37 C 702.14 223.08 703.72 237.83 705.56 252.54 C 713.41 251.53 721.30 250.75 729.16 249.72 C 734.36 249.02 739.70 247.17 743.25 243.11 C 746.79 239.12 747.04 232.52 743.55 228.43 C 741.11 225.79 737.45 224.84 734.00 224.59 C 735.73 223.41 737.52 222.20 738.77 220.47 C 741.47 216.49 740.62 210.25 736.43 207.62 C 732.44 205.16 727.50 205.27 723.01 205.74 C 715.44 206.56 707.89 207.47 700.33 208.37 M 138.89 277.68 C 122.45 287.42 107.02 299.02 93.92 312.97 C 97.35 316.83 102.09 321.32 100.78 327.02 C 99.03 331.51 94.72 334.22 91.65 337.74 C 87.35 342.09 84.54 347.84 83.79 353.91 C 90.57 357.04 98.46 356.33 105.15 353.37 C 118.51 347.56 128.85 336.97 140.26 328.25 C 161.81 311.86 182.82 294.77 204.59 278.68 C 213.75 271.52 226.40 270.10 234.59 261.56 C 238.51 257.70 238.66 251.66 236.91 246.75 C 232.21 246.67 227.52 247.07 222.85 247.58 C 193.07 251.23 164.64 262.57 138.89 277.68 M 897.01 259.23 C 897.70 267.66 898.93 276.04 899.82 284.46 C 892.82 276.83 885.96 269.08 879.04 261.37 C 873.97 261.84 868.93 262.55 863.87 263.09 C 865.58 277.82 867.25 292.57 869.06 307.29 C 872.89 306.80 876.75 306.38 880.59 305.90 C 879.48 295.85 878.23 285.83 877.11 275.79 C 885.44 284.91 893.29 294.46 901.65 303.56 C 905.58 302.94 909.55 302.53 913.51 302.11 C 912.10 287.52 910.19 272.96 908.52 258.40 C 904.89 257.61 900.81 259.10 897.01 259.23 M 824.14 267.53 C 819.60 282.93 815.43 298.45 811.06 313.90 C 815.29 313.40 819.54 312.94 823.78 312.40 C 824.62 309.31 825.40 306.21 826.13 303.10 C 832.15 302.34 838.19 301.79 844.20 300.90 C 845.81 303.74 847.32 306.65 848.81 309.56 C 853.15 308.95 857.52 308.50 861.88 307.96 C 854.11 293.98 846.33 280.00 838.66 265.97 C 833.81 266.40 828.99 267.14 824.14 267.53 M 786.26 272.14 C 786.75 277.49 787.48 282.82 788.06 288.16 C 781.82 288.79 775.61 289.60 769.38 290.27 C 768.77 285.00 768.11 279.74 767.56 274.47 C 763.31 274.75 759.12 275.40 754.90 275.83 C 756.54 290.49 758.31 305.14 760.03 319.79 C 764.20 319.29 768.36 318.75 772.55 318.37 C 772.07 311.84 771.08 305.36 770.42 298.85 C 776.65 298.10 782.88 297.34 789.13 296.70 C 789.78 303.16 790.64 309.61 791.33 316.07 C 795.56 315.67 799.78 315.09 804.02 314.67 C 802.35 300.01 800.51 285.37 798.90 270.70 C 794.69 271.21 790.48 271.72 786.26 272.14 M 703.91 281.75 C 704.30 284.57 704.62 287.40 704.96 290.23 C 710.05 289.62 715.15 289.03 720.24 288.42 C 721.69 300.29 723.01 312.18 724.44 324.06 C 728.64 323.55 732.85 323.06 737.06 322.61 C 735.74 310.71 734.29 298.83 732.93 286.94 C 738.06 286.38 743.17 285.74 748.30 285.16 C 747.91 282.33 747.58 279.50 747.22 276.67 C 732.77 278.30 718.33 279.94 703.91 281.75 M 178.27 312.16 C 154.78 319.30 133.23 334.07 119.98 354.96 C 107.84 373.87 102.97 396.89 104.49 419.17 C 106.52 437.05 117.54 452.28 120.71 469.89 C 122.46 478.60 122.00 487.71 119.44 496.21 C 129.36 509.56 144.22 518.61 160.07 523.19 C 181.08 529.38 203.36 529.26 224.97 527.05 C 226.80 527.17 227.81 525.48 229.07 524.47 C 252.17 501.70 276.18 479.41 294.71 452.59 C 303.35 440.34 309.86 426.79 316.47 413.38 C 321.69 401.74 327.13 389.04 324.98 376.00 C 323.59 367.19 315.98 360.85 307.73 358.53 C 307.76 367.08 310.10 375.38 310.73 383.88 C 311.60 392.36 310.30 400.94 307.92 409.09 C 305.32 417.28 300.37 424.43 295.65 431.51 C 284.12 448.07 270.98 463.47 257.21 478.20 C 246.58 489.30 235.73 500.30 223.46 509.60 C 219.09 512.72 214.54 516.05 209.09 516.86 C 192.89 520.07 175.08 520.57 160.12 512.58 C 144.72 504.53 135.08 488.89 128.94 473.17 C 123.55 455.32 119.96 436.99 115.67 418.86 C 114.09 413.33 114.76 407.49 115.34 401.85 C 117.92 379.42 128.82 358.04 145.61 342.93 C 162.26 327.76 184.46 318.70 207.02 318.42 C 228.14 317.92 249.04 325.29 265.97 337.76 C 267.31 338.79 268.47 340.05 269.41 341.47 C 276.82 353.05 275.93 368.35 284.95 379.08 C 290.69 385.68 300.24 385.71 308.20 384.42 C 289.15 359.98 274.09 332.11 250.87 311.15 C 249.13 309.71 247.58 307.56 245.11 307.50 C 222.85 304.60 199.80 305.41 178.27 312.16 M 1051.64 314.82 C 1053.31 329.57 1055.00 344.32 1056.82 359.05 C 1068.22 357.02 1080.75 358.13 1090.97 351.87 C 1098.79 347.00 1102.64 336.74 1099.87 327.93 C 1097.70 318.97 1088.88 312.89 1079.91 312.46 C 1070.43 311.85 1061.06 314.08 1051.64 314.82 M 1005.60 320.35 C 1007.36 335.08 1008.98 349.83 1010.81 364.56 C 1022.62 363.10 1034.45 361.74 1046.29 360.40 C 1045.94 357.56 1045.60 354.72 1045.22 351.89 C 1037.59 352.67 1029.97 353.61 1022.36 354.55 C 1021.91 350.88 1021.50 347.20 1021.11 343.53 C 1028.19 342.83 1035.25 341.89 1042.33 341.14 C 1041.99 338.28 1041.66 335.43 1041.40 332.57 C 1034.28 333.38 1027.18 334.22 1020.08 335.05 C 1019.80 332.52 1019.49 330.00 1019.16 327.49 C 1026.75 326.46 1034.38 325.69 1041.99 324.78 C 1041.79 321.90 1041.46 319.05 1041.09 316.20 C 1029.27 317.62 1017.43 318.95 1005.60 320.35 M 954.72 326.16 C 955.02 329.00 955.34 331.84 955.69 334.68 C 960.80 334.18 965.89 333.49 971.00 332.93 C 972.41 344.78 973.81 356.62 975.13 368.48 C 979.36 368.13 983.58 367.54 987.81 367.10 C 986.47 355.22 985.08 343.35 983.66 331.48 C 988.77 330.86 993.88 330.25 999.01 329.69 C 998.68 326.80 998.44 323.89 997.77 321.06 C 983.44 322.92 969.07 324.46 954.72 326.16 M 917.74 333.72 C 908.72 340.83 908.16 354.65 913.63 364.09 C 916.45 369.01 921.59 372.21 927.07 373.38 C 936.63 375.28 946.70 373.02 954.97 367.99 C 954.36 364.32 954.57 360.47 953.19 356.97 C 948.03 362.27 940.73 366.85 933.04 364.68 C 924.63 362.77 921.74 352.36 924.04 344.96 C 926.18 337.70 935.05 334.61 941.86 336.66 C 945.41 337.25 948.20 339.93 951.75 340.43 C 951.34 336.78 950.91 333.13 950.44 329.49 C 939.71 326.17 926.93 326.73 917.74 333.72 M 864.61 336.59 C 866.39 351.33 867.92 366.12 869.87 380.84 C 881.66 379.25 893.51 378.09 905.32 376.59 C 904.91 373.82 904.58 371.04 904.35 368.25 C 896.65 368.77 889.01 369.93 881.35 370.79 C 880.92 367.13 880.50 363.48 880.10 359.82 C 887.18 359.03 894.26 358.17 901.34 357.38 C 900.99 354.52 900.66 351.66 900.36 348.80 C 893.27 349.66 886.17 350.45 879.09 351.31 C 878.79 348.77 878.49 346.24 878.19 343.71 C 885.81 342.72 893.46 341.98 901.08 340.96 C 900.76 338.12 900.43 335.28 900.10 332.45 C 888.27 333.85 876.44 335.23 864.61 336.59 M 815.12 342.57 C 816.80 357.30 818.55 372.02 820.26 386.75 C 824.44 386.32 828.60 385.74 832.80 385.37 C 832.45 380.53 831.81 375.71 831.20 370.90 C 836.99 370.12 843.13 370.13 848.43 367.38 C 852.22 365.21 855.71 361.92 856.83 357.56 C 857.97 352.78 857.20 347.07 853.33 343.69 C 849.17 340.09 843.27 339.47 837.99 339.97 C 830.36 340.76 822.75 341.77 815.12 342.57 M 793.49 345.13 C 790.62 350.16 787.59 355.10 784.64 360.09 C 780.78 355.83 776.74 351.73 772.89 347.47 C 768.07 348.05 763.26 348.64 758.44 349.14 C 764.52 356.20 771.64 362.27 777.81 369.25 C 772.82 377.25 767.99 385.35 763.05 393.38 C 767.71 392.87 772.37 392.34 777.03 391.76 C 780.05 386.48 783.13 381.23 786.09 375.92 C 790.21 380.43 794.29 384.97 798.55 389.35 C 803.32 388.65 808.11 388.15 812.91 387.61 C 806.49 380.42 799.25 373.99 793.03 366.65 C 798.00 358.99 802.75 351.18 807.56 343.42 C 802.87 344.02 798.17 344.48 793.49 345.13 M 717.39 353.81 C 718.99 368.52 720.87 383.20 722.45 397.91 C 734.33 396.83 746.15 395.10 758.03 393.94 C 757.68 391.08 757.34 388.22 757.01 385.37 C 749.35 386.18 741.71 387.13 734.07 388.03 C 733.69 384.37 733.26 380.73 732.83 377.09 C 739.90 376.28 746.98 375.40 754.07 374.65 C 753.75 371.79 753.41 368.92 753.12 366.06 C 746.03 366.91 738.93 367.70 731.84 368.56 C 731.54 366.01 731.25 363.48 730.94 360.94 C 738.56 360.01 746.18 359.18 753.80 358.25 C 753.52 355.40 753.19 352.57 752.89 349.74 C 741.05 351.03 729.23 352.53 717.39 353.81 M 212.17 365.09 C 203.58 366.59 195.27 370.86 190.00 377.95 C 182.23 388.18 180.60 401.78 182.25 414.21 C 183.88 425.25 188.65 436.28 197.34 443.57 C 209.88 454.26 231.15 452.58 241.42 439.53 C 249.31 429.61 251.21 416.22 249.95 403.92 C 248.60 392.09 244.19 380.02 235.20 371.85 C 229.10 366.20 220.36 363.60 212.17 365.09 M 424.71 495.97 C 429.50 516.27 445.76 530.98 452.85 550.25 C 458.04 563.75 457.93 578.66 455.41 592.72 C 440.61 593.09 425.64 593.71 411.00 591.04 C 407.16 590.12 403.05 589.50 399.64 587.46 C 399.37 569.15 394.73 551.26 393.88 532.99 C 393.44 525.67 393.92 518.36 394.46 511.06 C 386.05 514.84 383.57 524.65 382.79 533.01 C 381.31 552.85 385.18 572.57 389.02 591.94 C 389.07 593.35 390.44 594.00 391.40 594.80 C 398.90 600.36 407.82 603.67 416.88 605.69 C 431.27 608.84 446.12 608.89 460.77 608.22 C 464.77 595.91 466.74 582.97 466.77 570.04 C 466.70 552.08 463.21 533.66 453.82 518.15 C 447.35 507.49 437.13 498.62 424.71 495.97 M 628.28 603.06 C 608.07 638.42 576.93 666.67 541.95 687.06 C 503.58 709.43 460.19 722.71 416.09 727.34 C 371.55 731.97 326.10 727.68 283.16 715.02 C 279.14 712.78 275.86 709.40 272.11 706.74 C 256.92 694.59 240.19 683.44 220.93 679.16 C 235.31 695.59 253.21 708.77 272.79 718.36 C 310.57 736.73 353.39 742.50 395.04 740.69 C 438.79 738.69 482.12 728.58 522.41 711.44 C 555.69 697.08 587.39 677.81 612.61 651.51 C 625.90 637.44 637.20 621.21 644.02 603.01 C 638.77 603.02 633.53 602.94 628.28 603.06 M 526.45 720.36 C 517.60 731.54 504.71 738.65 491.49 743.44 C 473.37 749.83 454.17 752.52 435.06 753.72 C 409.52 755.16 383.86 753.90 358.52 750.54 C 359.76 755.66 364.08 759.36 368.84 761.20 C 378.06 764.93 388.17 765.06 397.94 765.94 C 431.92 769.36 466.71 764.72 498.56 752.37 C 512.35 746.90 525.90 740.14 537.14 730.32 C 536.59 727.13 536.59 723.36 534.06 720.99 C 531.98 719.44 528.63 719.17 526.45 720.36 Z" />
<path fill="#bf0000" opacity="1.00" d=" M 1084.74 21.64 C 1090.20 15.30 1098.79 12.98 1106.84 12.40 C 1112.51 11.81 1118.19 12.76 1123.64 14.28 C 1124.09 17.83 1124.55 21.37 1124.81 24.94 C 1121.04 24.11 1117.82 21.75 1114.01 21.09 C 1107.52 19.64 1099.77 21.05 1095.46 26.48 C 1091.24 32.27 1092.19 40.98 1096.84 46.25 C 1101.46 51.15 1108.82 50.54 1114.92 49.79 C 1114.63 46.84 1114.30 43.89 1113.94 40.95 C 1110.67 41.35 1107.41 41.76 1104.14 42.07 C 1103.82 39.31 1103.50 36.55 1103.18 33.80 C 1110.74 32.93 1118.29 31.90 1125.88 31.21 C 1126.58 38.51 1127.69 45.76 1128.29 53.07 C 1118.56 57.21 1107.78 60.49 1097.15 58.29 C 1090.23 56.94 1083.89 52.16 1081.43 45.45 C 1078.50 37.68 1078.92 27.99 1084.74 21.64 Z" />
<path fill="#bf0000" opacity="1.00" d=" M 1056.32 19.16 C 1060.15 18.84 1063.94 18.21 1067.80 18.03 C 1069.35 32.73 1071.33 47.38 1072.79 62.08 C 1068.78 62.53 1064.77 62.99 1060.77 63.52 C 1052.58 54.33 1044.62 44.95 1036.40 35.79 C 1037.45 45.83 1038.71 55.84 1039.87 65.87 C 1036.03 66.39 1032.19 66.80 1028.36 67.30 C 1026.40 52.60 1024.93 37.84 1023.08 23.13 C 1028.15 22.50 1033.23 21.87 1038.32 21.38 C 1045.19 29.10 1052.10 36.80 1059.04 44.47 C 1058.25 36.02 1056.86 27.63 1056.32 19.16 Z" />
<path fill="#bf0000" opacity="1.00" d=" M 983.94 27.59 C 993.51 26.47 1003.09 25.42 1012.65 24.20 C 1012.95 26.84 1013.24 29.49 1013.52 32.13 C 1010.83 32.39 1008.15 32.71 1005.48 33.03 C 1006.67 42.53 1007.71 52.05 1008.84 61.56 C 1011.51 61.22 1014.20 60.90 1016.89 60.56 C 1017.15 63.17 1017.47 65.78 1017.86 68.37 C 1008.27 69.60 998.65 70.63 989.05 71.78 C 988.73 69.17 988.43 66.56 988.19 63.94 C 990.84 63.64 993.52 63.32 996.18 62.99 C 995.09 53.49 993.92 44.00 992.89 34.50 C 990.20 34.82 987.51 35.13 984.83 35.46 C 984.49 32.84 984.18 30.22 983.94 27.59 Z" />
<path fill="#bf0000" opacity="1.00" d=" M 960.95 30.44 C 965.18 29.95 969.42 29.47 973.66 28.95 C 975.28 43.69 977.03 58.43 978.80 73.15 C 974.56 73.60 970.34 74.14 966.11 74.61 C 965.38 68.15 964.53 61.70 963.89 55.22 C 957.61 55.84 951.36 56.56 945.12 57.41 C 945.92 63.87 946.71 70.34 947.36 76.83 C 943.17 77.28 939.00 77.75 934.84 78.30 C 932.94 63.59 931.38 48.83 929.60 34.10 C 933.82 33.63 938.04 33.07 942.27 32.67 C 942.89 38.04 943.54 43.41 944.12 48.78 C 950.37 48.07 956.63 47.34 962.88 46.59 C 962.15 41.22 961.61 35.82 960.95 30.44 Z" />
<path fill="#bf0000" opacity="1.00" d=" M 878.69 39.93 C 893.11 38.27 907.53 36.50 921.96 34.92 C 922.34 37.75 922.68 40.59 923.02 43.43 C 917.92 43.96 912.84 44.69 907.74 45.13 C 908.90 57.08 910.62 68.96 911.75 80.91 C 907.54 81.27 903.35 81.85 899.16 82.28 C 897.80 70.41 896.40 58.55 895.02 46.68 C 889.91 47.24 884.80 47.92 879.69 48.45 C 879.36 45.61 879.03 42.77 878.69 39.93 Z" />
<path fill="#bf0000" opacity="1.00" d=" M 863.10 41.95 C 867.57 40.76 872.41 40.82 877.02 40.05 C 872.34 49.33 867.55 58.56 862.82 67.82 C 861.79 69.46 862.41 71.41 862.54 73.20 C 863.07 77.58 863.61 81.96 864.08 86.35 C 859.87 86.84 855.66 87.32 851.46 87.82 C 850.69 82.36 850.32 76.85 849.44 71.42 C 842.58 62.65 834.93 54.50 828.02 45.76 C 832.73 45.34 837.41 44.51 842.14 44.24 C 846.67 49.23 850.57 54.77 854.87 59.98 C 857.65 53.99 860.18 47.87 863.10 41.95 Z" />
<path fill="#bf0000" opacity="1.00" d=" M 781.09 51.36 C 788.75 50.45 796.42 49.55 804.09 48.68 C 809.30 48.15 815.14 48.22 819.43 51.67 C 823.12 54.49 823.87 59.75 822.85 64.03 C 821.85 68.10 818.34 70.86 814.99 73.03 C 821.13 78.71 827.36 84.29 833.47 90.00 C 828.29 90.60 823.11 91.25 817.93 91.82 C 813.03 86.81 807.84 82.11 802.84 77.22 C 800.87 77.40 798.90 77.62 796.95 77.84 C 797.57 83.24 798.25 88.63 798.83 94.04 C 794.66 94.55 790.49 95.01 786.34 95.55 C 784.43 80.84 782.90 66.09 781.09 51.36 M 794.67 58.03 C 795.11 61.99 795.53 65.95 796.08 69.90 C 800.05 69.19 804.61 69.58 808.04 67.12 C 811.45 64.90 810.97 58.73 806.95 57.51 C 802.89 56.50 798.74 57.70 794.67 58.03 Z" />
<path fill="#bf0000" opacity="1.00" d=" M 734.84 56.65 C 746.66 55.13 758.51 53.92 770.34 52.44 C 770.69 55.28 771.02 58.13 771.30 60.99 C 763.68 61.98 756.03 62.68 748.42 63.75 C 748.74 66.27 749.05 68.80 749.37 71.32 C 756.63 70.37 763.95 69.72 771.19 68.60 C 770.35 71.47 771.41 74.47 771.61 77.37 C 764.52 78.16 757.44 79.03 750.35 79.82 C 750.75 83.48 751.17 87.14 751.60 90.79 C 759.26 89.91 766.90 88.81 774.60 88.23 C 774.85 91.05 775.17 93.85 775.54 96.66 C 763.69 97.97 751.86 99.38 740.03 100.79 C 738.25 86.08 736.62 71.36 734.84 56.65 Z" />
<path fill="#ffffff" opacity="1.00" d=" M 794.67 58.03 C 798.74 57.70 802.89 56.50 806.95 57.51 C 810.97 58.73 811.45 64.90 808.04 67.12 C 804.61 69.58 800.05 69.19 796.08 69.90 C 795.53 65.95 795.11 61.99 794.67 58.03 Z" />
<path fill="#000000" opacity="1.00" d=" M 414.24 60.19 C 417.13 59.47 419.98 58.31 423.01 58.48 C 442.38 58.54 461.75 58.46 481.11 58.52 C 488.39 67.84 500.28 71.73 511.59 73.20 C 521.75 74.57 532.01 74.33 542.22 73.69 C 542.71 76.55 542.91 80.28 540.10 82.05 C 536.20 84.30 531.44 83.78 527.12 84.03 C 557.01 104.59 580.48 132.68 602.78 160.93 C 611.40 171.41 619.35 182.47 628.83 192.21 C 640.40 204.04 653.35 215.08 661.12 229.99 C 670.97 248.16 672.53 269.15 676.22 289.12 C 678.97 304.27 683.23 319.77 693.04 331.99 C 696.54 336.27 700.56 340.14 705.02 343.43 C 699.99 354.94 700.45 367.68 699.05 379.91 C 698.93 382.62 699.61 385.27 699.72 387.97 C 699.89 393.48 699.44 399.00 700.12 404.48 C 701.19 403.67 702.26 402.84 703.32 402.00 C 705.24 406.09 708.51 409.24 712.04 411.96 C 722.23 423.31 725.67 438.67 729.80 452.92 C 732.61 462.66 735.34 472.61 740.62 481.35 C 742.22 471.53 741.77 461.37 739.11 451.78 C 736.32 440.86 730.84 430.77 728.93 419.61 C 732.40 420.83 736.04 421.48 739.73 421.50 C 748.51 441.81 751.58 464.02 752.97 485.94 C 755.71 533.68 750.39 581.37 749.88 629.09 C 749.69 641.05 749.87 653.07 751.00 664.98 C 753.88 670.82 763.66 666.42 765.91 672.87 C 766.82 710.65 757.74 748.19 742.32 782.55 C 726.76 817.89 706.30 851.16 694.82 888.22 C 691.43 888.26 688.04 888.25 684.65 888.24 C 691.83 864.44 698.29 840.44 705.80 816.74 C 715.47 786.42 726.99 756.13 745.80 730.17 C 742.69 683.89 742.75 637.45 740.32 591.13 C 738.02 549.78 734.63 508.03 722.77 468.15 C 715.15 442.91 703.45 418.22 684.64 399.37 C 688.21 379.80 686.06 359.37 679.12 340.77 C 665.91 304.23 639.64 274.44 624.37 238.90 C 616.24 221.15 610.02 202.48 600.29 185.51 C 595.75 177.37 588.02 171.31 584.65 162.50 C 582.98 158.36 583.32 153.80 582.47 149.52 C 571.78 133.84 558.65 119.75 543.40 108.42 C 524.71 94.44 502.81 85.01 480.04 80.10 C 448.82 73.33 416.44 74.33 385.00 79.02 C 357.05 83.33 329.53 90.29 302.71 99.21 C 306.81 101.35 311.43 102.14 315.92 103.06 C 334.51 106.27 353.58 104.86 372.16 108.21 C 382.72 109.98 394.10 114.43 399.32 124.48 C 362.17 118.86 324.70 113.22 287.02 114.81 C 270.77 115.60 254.37 117.72 239.08 123.52 C 230.74 126.66 223.05 131.43 216.37 137.32 C 197.75 153.64 187.20 177.16 168.12 193.04 C 161.31 198.80 153.37 203.15 144.93 206.03 C 142.00 221.06 135.76 235.39 126.92 247.88 C 118.00 260.74 106.69 271.64 95.54 282.51 C 79.91 297.32 64.11 312.69 53.97 331.95 C 52.91 333.72 53.28 335.87 53.05 337.84 C 50.69 379.02 39.03 418.80 31.71 459.21 C 23.12 504.94 21.73 552.29 30.40 598.11 C 38.78 641.01 58.87 680.46 68.42 723.04 C 71.69 737.20 73.37 751.68 73.79 766.19 C 88.47 779.30 103.13 793.58 110.85 812.07 C 112.47 815.37 113.16 819.08 114.77 822.37 C 125.25 832.48 139.33 837.38 152.61 842.64 C 165.36 847.64 178.74 852.54 188.82 862.17 C 194.76 867.67 198.87 874.95 200.89 882.77 C 163.59 866.86 127.14 846.75 98.71 817.34 C 89.20 807.92 81.24 797.11 73.66 786.13 C 77.57 821.73 90.20 855.55 104.21 888.25 C 100.96 888.24 97.71 888.24 94.45 888.27 C 85.73 873.36 77.72 857.92 72.28 841.48 C 65.27 820.46 62.56 798.08 63.78 775.99 C 39.86 746.79 25.78 710.95 15.89 674.89 C 10.29 654.18 5.92 633.12 2.53 611.94 C 2.40 529.38 2.62 446.80 2.42 364.24 C 5.78 364.14 9.13 363.86 12.49 363.68 C 17.06 383.46 17.83 403.90 17.69 424.12 C 16.89 471.79 10.31 519.23 10.88 566.93 C 10.90 591.14 14.52 615.14 18.08 639.04 C 20.22 652.80 22.49 666.55 25.48 680.16 C 26.88 686.15 28.20 692.24 30.91 697.81 C 36.20 709.18 45.54 718.17 50.25 729.86 C 51.77 733.36 52.50 737.13 53.70 740.75 C 54.49 716.96 48.82 693.59 42.30 670.90 C 34.84 644.77 25.16 619.30 18.11 593.06 C 17.55 553.68 16.28 514.23 18.32 474.85 C 20.16 445.04 23.70 414.57 36.24 387.13 C 38.34 382.57 40.80 378.18 43.54 373.98 C 42.80 372.77 41.97 371.63 41.05 370.57 C 35.93 375.66 37.04 384.69 31.05 389.21 C 27.36 390.57 24.99 386.45 22.96 384.09 C 22.93 376.66 23.75 369.22 25.66 362.03 C 30.00 345.05 40.33 330.23 44.00 313.02 C 47.09 299.64 46.28 285.66 43.42 272.32 C 47.15 271.37 52.08 272.19 53.30 276.42 C 55.89 286.92 50.87 297.68 53.23 308.22 C 60.65 303.82 66.24 296.95 70.52 289.57 C 77.72 277.27 82.67 263.73 90.68 251.89 C 97.05 242.39 105.55 234.58 114.19 227.19 C 129.83 213.88 146.70 201.77 160.20 186.15 C 168.87 175.98 171.99 162.48 179.68 151.70 C 189.46 139.42 201.36 128.55 215.44 121.42 C 228.91 114.66 243.61 111.00 258.01 106.82 C 276.23 101.76 294.06 95.45 312.12 89.87 C 345.94 79.23 380.02 69.44 414.24 60.19 M 623.08 221.02 C 632.31 234.35 636.41 250.66 646.72 263.30 C 649.53 266.88 654.94 270.16 659.26 267.08 C 655.69 262.05 652.79 256.60 649.81 251.22 C 643.39 239.38 635.92 226.76 623.08 221.02 Z" />
<path fill="#bf0000" opacity="1.00" d=" M 714.90 58.90 C 719.20 58.44 723.50 57.92 727.80 57.39 C 723.68 72.85 719.34 88.25 715.09 103.67 C 710.37 104.21 705.65 104.79 700.93 105.31 C 693.29 91.25 685.46 77.29 677.95 63.17 C 682.36 62.76 686.76 62.20 691.16 61.67 C 696.37 71.54 701.41 81.50 706.72 91.31 C 709.32 80.48 712.20 69.71 714.90 58.90 Z" />
<path fill="#bf0000" opacity="1.00" d=" M 637.09 68.12 C 648.92 66.68 660.77 65.37 672.61 63.95 C 672.93 66.79 673.26 69.62 673.59 72.46 C 665.98 73.45 658.34 74.27 650.71 75.17 C 650.98 77.73 651.29 80.30 651.63 82.86 C 658.70 81.87 665.80 81.20 672.89 80.31 C 673.15 83.16 673.49 86.02 673.86 88.86 C 666.76 89.68 659.66 90.52 652.57 91.34 C 653.01 94.99 653.44 98.64 653.85 102.30 C 661.48 101.35 669.12 100.44 676.77 99.63 C 677.08 102.47 677.42 105.32 677.80 108.16 C 665.98 109.48 654.17 110.85 642.37 112.30 C 640.39 97.60 638.93 82.84 637.09 68.12 Z" />
<path fill="#bf0000" opacity="1.00" d=" M 843.44 117.95 C 857.88 116.31 872.30 114.38 886.77 113.00 C 887.09 115.80 887.41 118.61 887.79 121.41 C 882.71 121.99 877.63 122.68 872.54 123.11 C 873.62 135.06 875.35 146.94 876.53 158.88 C 872.32 159.31 868.13 159.81 863.93 160.31 C 862.42 148.41 861.36 136.46 859.61 124.60 C 854.56 125.37 849.49 125.88 844.43 126.44 C 844.11 123.61 843.78 120.78 843.44 117.95 Z" />
<path fill="#bf0000" opacity="1.00" d=" M 824.14 120.08 C 827.92 119.49 831.74 119.16 835.54 118.58 C 837.60 133.30 839.25 148.10 840.73 162.88 C 836.74 163.25 832.76 163.75 828.80 164.28 C 820.54 155.24 812.89 145.63 804.41 136.82 C 805.51 146.75 806.68 156.67 807.89 166.59 C 804.02 167.16 800.14 167.59 796.26 167.99 C 794.57 153.25 792.76 138.54 791.15 123.80 C 796.27 123.35 801.35 122.47 806.49 122.21 C 813.19 130.01 820.19 137.54 827.03 145.22 C 826.15 136.83 825.11 128.46 824.14 120.08 Z" />
<path fill="#bf0000" opacity="1.00" d=" M 745.09 129.36 C 756.92 127.94 768.76 126.63 780.59 125.19 C 780.95 128.05 781.29 130.92 781.51 133.79 C 773.90 134.63 766.29 135.54 758.69 136.44 C 758.99 138.97 759.30 141.50 759.57 144.03 C 766.68 143.24 773.78 142.38 780.90 141.57 C 781.16 144.43 781.49 147.29 781.83 150.15 C 774.74 150.89 767.67 151.81 760.58 152.57 C 761.01 156.22 761.43 159.89 761.85 163.55 C 769.48 162.63 777.11 161.61 784.77 160.94 C 785.09 163.76 785.43 166.59 785.79 169.41 C 773.96 170.72 762.13 172.13 750.31 173.54 C 748.47 158.83 746.88 144.08 745.09 129.36 Z" />
<path fill="#bf0000" opacity="1.00" d=" M 723.71 131.68 C 728.00 131.22 732.28 130.73 736.56 130.16 C 733.97 145.41 731.18 160.63 728.54 175.88 C 723.90 176.52 719.23 176.90 714.61 177.61 C 710.44 168.43 706.53 159.13 702.38 149.94 C 700.52 159.81 698.95 169.74 697.10 179.62 C 692.45 180.10 687.80 180.63 683.17 181.23 C 676.97 167.08 671.04 152.81 664.74 138.71 C 669.11 137.96 673.55 137.61 677.96 137.02 C 681.66 146.70 685.22 156.44 688.98 166.11 C 691.16 155.86 692.70 145.47 694.51 135.14 C 698.73 134.61 702.96 134.09 707.20 133.67 C 711.24 143.48 715.37 153.26 719.31 163.11 C 720.81 152.64 722.23 142.15 723.71 131.68 Z" />
<path fill="#000000" opacity="1.00" d=" M 463.89 174.53 C 481.47 169.55 499.92 170.30 517.99 170.24 C 532.87 170.68 547.76 171.02 562.64 170.45 C 571.93 184.18 583.36 196.28 593.51 209.35 C 602.23 220.67 608.98 233.45 613.49 247.00 C 606.80 247.00 600.10 247.00 593.41 247.00 C 605.11 259.18 616.72 271.56 626.49 285.37 C 638.69 302.28 648.04 321.32 653.32 341.51 C 658.27 360.47 660.05 380.28 659.01 399.79 C 651.68 409.78 643.71 419.47 634.06 427.34 C 619.75 439.23 601.40 445.40 583.00 446.81 C 567.38 447.95 551.61 447.13 536.16 444.54 C 516.15 440.67 496.97 433.29 478.66 424.46 C 471.88 420.95 465.11 417.31 458.95 412.78 C 451.34 406.99 445.59 399.04 441.73 390.35 C 437.69 381.72 435.41 372.15 429.64 364.42 C 425.94 359.34 420.44 355.86 414.58 353.76 C 411.14 332.69 412.86 310.19 423.13 291.16 C 434.42 269.13 454.34 253.66 469.77 234.81 C 478.88 223.87 485.53 210.40 485.95 195.97 C 484.02 192.24 480.23 189.56 475.95 189.57 C 465.85 189.50 456.88 195.63 446.82 195.75 C 443.71 195.73 441.17 193.67 439.88 190.94 C 445.16 182.37 454.42 177.18 463.89 174.53 M 494.60 226.74 C 482.06 235.24 471.65 246.44 461.95 257.97 C 450.38 272.12 439.89 287.30 432.11 303.88 C 428.43 312.14 425.02 320.83 424.72 329.98 C 424.28 336.07 428.00 341.29 430.42 346.59 C 439.26 363.50 449.21 379.92 461.22 394.78 C 468.54 404.03 478.48 410.83 489.00 415.96 C 508.02 425.05 528.95 429.62 549.89 431.19 C 570.14 432.57 590.90 431.12 610.18 424.40 C 623.39 419.73 636.18 411.82 643.49 399.54 C 648.35 391.60 649.78 382.17 650.24 373.03 C 650.36 366.74 649.52 360.13 646.01 354.75 C 643.30 350.28 638.95 347.15 636.03 342.84 C 633.20 339.15 632.61 334.31 633.46 329.84 C 634.08 323.79 636.67 316.73 632.72 311.33 C 627.28 306.10 618.81 305.08 614.21 298.71 C 608.14 290.31 609.32 279.09 604.98 269.93 C 603.45 266.32 600.01 264.12 596.86 262.06 C 588.45 256.63 579.19 252.10 572.35 244.60 C 569.02 241.08 567.04 236.34 567.44 231.45 C 562.41 232.65 557.16 233.14 552.04 232.20 C 538.47 230.36 526.74 221.77 513.01 220.75 C 506.31 220.15 500.01 223.10 494.60 226.74 Z" />
<path fill="#bf0000" opacity="1.00" d=" M 936.15 180.80 C 943.77 180.01 951.38 179.03 959.00 178.19 C 964.08 177.69 969.74 177.67 974.04 180.86 C 977.61 183.27 978.67 188.00 978.15 192.05 C 977.61 196.74 973.86 200.26 969.94 202.44 C 976.04 208.21 982.38 213.73 988.46 219.52 C 983.27 220.08 978.10 220.75 972.93 221.32 C 968.01 216.42 963.03 211.56 957.88 206.91 C 955.90 206.57 953.91 207.21 951.95 207.35 C 952.57 212.75 953.28 218.14 953.81 223.55 C 949.62 224.04 945.44 224.57 941.26 224.99 C 939.56 210.26 937.76 195.54 936.15 180.80 M 949.65 187.56 C 950.13 191.51 950.52 195.47 951.09 199.41 C 955.18 198.64 959.98 199.14 963.38 196.34 C 966.47 193.99 965.78 188.09 961.89 186.99 C 957.85 185.99 953.70 187.18 949.65 187.56 Z" />
<path fill="#bf0000" opacity="1.00" d=" M 889.87 186.09 C 901.67 184.68 913.50 183.43 925.28 181.90 C 925.69 184.74 926.02 187.59 926.34 190.45 C 918.75 191.45 911.13 192.29 903.52 193.12 C 903.72 195.70 904.02 198.28 904.38 200.84 C 911.46 199.90 918.58 199.17 925.67 198.31 C 925.89 201.17 926.23 204.03 926.59 206.88 C 919.50 207.67 912.40 208.52 905.31 209.34 C 905.76 212.99 906.18 216.64 906.60 220.29 C 914.24 219.35 921.87 218.45 929.52 217.62 C 929.83 220.47 930.16 223.32 930.56 226.16 C 918.72 227.47 906.89 228.88 895.06 230.29 C 893.25 215.57 891.58 200.82 889.87 186.09 Z" />
<path fill="#bf0000" opacity="1.00" d=" M 838.95 192.18 C 853.39 190.56 867.80 188.65 882.26 187.24 C 882.58 190.03 882.91 192.82 883.31 195.61 C 878.21 196.27 873.12 196.91 868.01 197.38 C 869.18 209.31 870.78 221.19 872.07 233.11 C 867.84 233.55 863.62 234.10 859.40 234.50 C 858.04 222.64 856.68 210.78 855.24 198.92 C 850.15 199.53 845.06 200.11 839.98 200.73 C 839.60 197.88 839.27 195.04 838.95 192.18 Z" />
<path fill="#ffffff" opacity="1.00" d=" M 949.65 187.56 C 953.70 187.18 957.85 185.99 961.89 186.99 C 965.78 188.09 966.47 193.99 963.38 196.34 C 959.98 199.14 955.18 198.64 951.09 199.41 C 950.52 195.47 950.13 191.51 949.65 187.56 Z" />
<path fill="#bf0000" opacity="1.00" d=" M 793.01 197.39 C 807.43 195.82 821.81 193.96 836.24 192.43 C 836.58 195.26 836.91 198.09 837.29 200.92 C 832.15 201.51 827.02 202.08 821.90 202.75 C 823.33 214.62 824.75 226.49 826.04 238.38 C 821.83 238.80 817.64 239.30 813.45 239.81 C 811.97 227.94 810.75 216.03 809.21 204.17 C 804.13 204.79 799.05 205.36 793.98 205.98 C 793.59 203.12 793.25 200.26 793.01 197.39 Z" />
<path fill="#bf0000" opacity="1.00" d=" M 751.87 202.34 C 763.69 200.95 775.53 199.65 787.34 198.18 C 787.68 201.02 788.01 203.87 788.32 206.72 C 780.72 207.68 773.11 208.54 765.51 209.39 C 765.73 211.95 766.03 214.50 766.33 217.05 C 773.43 216.21 780.55 215.40 787.66 214.56 C 787.90 217.43 788.24 220.28 788.59 223.14 C 781.50 223.88 774.43 224.83 767.34 225.54 C 767.76 229.21 768.17 232.88 768.60 236.54 C 776.25 235.69 783.88 234.50 791.56 234.01 C 791.85 236.81 792.18 239.61 792.54 242.40 C 780.70 243.73 768.87 245.13 757.04 246.54 C 755.27 231.81 753.57 217.07 751.87 202.34 Z" />
<path fill="#bf0000" opacity="1.00" d=" M 700.33 208.37 C 707.89 207.47 715.44 206.56 723.01 205.74 C 727.50 205.27 732.44 205.16 736.43 207.62 C 740.62 210.25 741.47 216.49 738.77 220.47 C 737.52 222.20 735.73 223.41 734.00 224.59 C 737.45 224.84 741.11 225.79 743.55 228.43 C 747.04 232.52 746.79 239.12 743.25 243.11 C 739.70 247.17 734.36 249.02 729.16 249.72 C 721.30 250.75 713.41 251.53 705.56 252.54 C 703.72 237.83 702.14 223.08 700.33 208.37 M 713.93 215.00 C 714.25 218.11 714.62 221.21 714.98 224.33 C 718.45 223.78 722.14 223.86 725.40 222.40 C 728.68 221.08 728.33 215.38 724.90 214.48 C 721.26 213.81 717.56 214.60 713.93 215.00 M 715.93 231.94 C 716.27 235.62 716.75 239.28 717.11 242.95 C 721.53 242.19 726.35 242.54 730.42 240.40 C 734.17 238.58 733.42 231.70 729.12 231.13 C 724.72 230.44 720.31 231.59 715.93 231.94 Z" />
<path fill="#ffffff" opacity="1.00" d=" M 713.93 215.00 C 717.56 214.60 721.26 213.81 724.90 214.48 C 728.33 215.38 728.68 221.08 725.40 222.40 C 722.14 223.86 718.45 223.78 714.98 224.33 C 714.62 221.21 714.25 218.11 713.93 215.00 Z" />
<path fill="#ffffff" opacity="1.00" d=" M 494.60 226.74 C 500.01 223.10 506.31 220.15 513.01 220.75 C 526.74 221.77 538.47 230.36 552.04 232.20 C 557.16 233.14 562.41 232.65 567.44 231.45 C 567.04 236.34 569.02 241.08 572.35 244.60 C 579.19 252.10 588.45 256.63 596.86 262.06 C 600.01 264.12 603.45 266.32 604.98 269.93 C 609.32 279.09 608.14 290.31 614.21 298.71 C 618.81 305.08 627.28 306.10 632.72 311.33 C 636.67 316.73 634.08 323.79 633.46 329.84 C 632.61 334.31 633.20 339.15 636.03 342.84 C 638.95 347.15 643.30 350.28 646.01 354.75 C 649.52 360.13 650.36 366.74 650.24 373.03 C 649.78 382.17 648.35 391.60 643.49 399.54 C 636.18 411.82 623.39 419.73 610.18 424.40 C 590.90 431.12 570.14 432.57 549.89 431.19 C 528.95 429.62 508.02 425.05 489.00 415.96 C 478.48 410.83 468.54 404.03 461.22 394.78 C 449.21 379.92 439.26 363.50 430.42 346.59 C 428.00 341.29 424.28 336.07 424.72 329.98 C 425.02 320.83 428.43 312.14 432.11 303.88 C 439.89 287.30 450.38 272.12 461.95 257.97 C 471.65 246.44 482.06 235.24 494.60 226.74 M 527.20 309.06 C 519.33 312.19 513.48 319.61 512.07 327.94 C 509.73 340.91 514.07 354.55 522.30 364.66 C 528.08 371.72 536.66 377.12 546.02 377.03 C 556.42 377.22 565.74 371.14 572.73 363.91 C 574.98 344.10 570.27 323.15 557.30 307.68 C 547.37 305.98 536.70 305.02 527.20 309.06 Z" />
<path fill="#ffffff" opacity="1.00" d=" M 623.08 221.02 C 635.92 226.76 643.39 239.38 649.81 251.22 C 652.79 256.60 655.69 262.05 659.26 267.08 C 654.94 270.16 649.53 266.88 646.72 263.30 C 636.41 250.66 632.31 234.35 623.08 221.02 Z" />
<path fill="#ffffff" opacity="1.00" d=" M 715.93 231.94 C 720.31 231.59 724.72 230.44 729.12 231.13 C 733.42 231.70 734.17 238.58 730.42 240.40 C 726.35 242.54 721.53 242.19 717.11 242.95 C 716.75 239.28 716.27 235.62 715.93 231.94 Z" />
<path fill="#000000" opacity="1.00" d=" M 138.89 277.68 C 164.64 262.57 193.07 251.23 222.85 247.58 C 227.52 247.07 232.21 246.67 236.91 246.75 C 238.66 251.66 238.51 257.70 234.59 261.56 C 226.40 270.10 213.75 271.52 204.59 278.68 C 182.82 294.77 161.81 311.86 140.26 328.25 C 128.85 336.97 118.51 347.56 105.15 353.37 C 98.46 356.33 90.57 357.04 83.79 353.91 C 84.54 347.84 87.35 342.09 91.65 337.74 C 94.72 334.22 99.03 331.51 100.78 327.02 C 102.09 321.32 97.35 316.83 93.92 312.97 C 107.02 299.02 122.45 287.42 138.89 277.68 Z" />
<path fill="#bf0000" opacity="1.00" d=" M 897.01 259.23 C 900.81 259.10 904.89 257.61 908.52 258.40 C 910.19 272.96 912.10 287.52 913.51 302.11 C 909.55 302.53 905.58 302.94 901.65 303.56 C 893.29 294.46 885.44 284.91 877.11 275.79 C 878.23 285.83 879.48 295.85 880.59 305.90 C 876.75 306.38 872.89 306.80 869.06 307.29 C 867.25 292.57 865.58 277.82 863.87 263.09 C 868.93 262.55 873.97 261.84 879.04 261.37 C 885.96 269.08 892.82 276.83 899.82 284.46 C 898.93 276.04 897.70 267.66 897.01 259.23 Z" />
<path fill="#bf0000" opacity="1.00" d=" M 824.14 267.53 C 828.99 267.14 833.81 266.40 838.66 265.97 C 846.33 280.00 854.11 293.98 861.88 307.96 C 857.52 308.50 853.15 308.95 848.81 309.56 C 847.32 306.65 845.81 303.74 844.20 300.90 C 838.19 301.79 832.15 302.34 826.13 303.10 C 825.40 306.21 824.62 309.31 823.78 312.40 C 819.54 312.94 815.29 313.40 811.06 313.90 C 815.43 298.45 819.60 282.93 824.14 267.53 M 828.32 294.60 C 832.29 294.04 836.37 294.05 840.25 292.93 C 837.56 288.08 835.11 283.11 832.50 278.22 C 830.94 283.63 829.65 289.12 828.32 294.60 Z" />
<path fill="#bf0000" opacity="1.00" d=" M 786.26 272.14 C 790.48 271.72 794.69 271.21 798.90 270.70 C 800.51 285.37 802.35 300.01 804.02 314.67 C 799.78 315.09 795.56 315.67 791.33 316.07 C 790.64 309.61 789.78 303.16 789.13 296.70 C 782.88 297.34 776.65 298.10 770.42 298.85 C 771.08 305.36 772.07 311.84 772.55 318.37 C 768.36 318.75 764.20 319.29 760.03 319.79 C 758.31 305.14 756.54 290.49 754.90 275.83 C 759.12 275.40 763.31 274.75 767.56 274.47 C 768.11 279.74 768.77 285.00 769.38 290.27 C 775.61 289.60 781.82 288.79 788.06 288.16 C 787.48 282.82 786.75 277.49 786.26 272.14 Z" />
<path fill="#bf0000" opacity="1.00" d=" M 703.91 281.75 C 718.33 279.94 732.77 278.30 747.22 276.67 C 747.58 279.50 747.91 282.33 748.30 285.16 C 743.17 285.74 738.06 286.38 732.93 286.94 C 734.29 298.83 735.74 310.71 737.06 322.61 C 732.85 323.06 728.64 323.55 724.44 324.06 C 723.01 312.18 721.69 300.29 720.24 288.42 C 715.15 289.03 710.05 289.62 704.96 290.23 C 704.62 287.40 704.30 284.57 703.91 281.75 Z" />
<path fill="#ffffff" opacity="1.00" d=" M 828.32 294.60 C 829.65 289.12 830.94 283.63 832.50 278.22 C 835.11 283.11 837.56 288.08 840.25 292.93 C 836.37 294.05 832.29 294.04 828.32 294.60 Z" />
<path fill="#000000" opacity="1.00" d=" M 178.27 312.16 C 199.80 305.41 222.85 304.60 245.11 307.50 C 247.58 307.56 249.13 309.71 250.87 311.15 C 274.09 332.11 289.15 359.98 308.20 384.42 C 300.24 385.71 290.69 385.68 284.95 379.08 C 275.93 368.35 276.82 353.05 269.41 341.47 C 268.47 340.05 267.31 338.79 265.97 337.76 C 249.04 325.29 228.14 317.92 207.02 318.42 C 184.46 318.70 162.26 327.76 145.61 342.93 C 128.82 358.04 117.92 379.42 115.34 401.85 C 114.76 407.49 114.09 413.33 115.67 418.86 C 119.96 436.99 123.55 455.32 128.94 473.17 C 135.08 488.89 144.72 504.53 160.12 512.58 C 175.08 520.57 192.89 520.07 209.09 516.86 C 214.54 516.05 219.09 512.72 223.46 509.60 C 235.73 500.30 246.58 489.30 257.21 478.20 C 270.98 463.47 284.12 448.07 295.65 431.51 C 300.37 424.43 305.32 417.28 307.92 409.09 C 310.30 400.94 311.60 392.36 310.73 383.88 C 310.10 375.38 307.76 367.08 307.73 358.53 C 315.98 360.85 323.59 367.19 324.98 376.00 C 327.13 389.04 321.69 401.74 316.47 413.38 C 309.86 426.79 303.35 440.34 294.71 452.59 C 276.18 479.41 252.17 501.70 229.07 524.47 C 227.81 525.48 226.80 527.17 224.97 527.05 C 203.36 529.26 181.08 529.38 160.07 523.19 C 144.22 518.61 129.36 509.56 119.44 496.21 C 122.00 487.71 122.46 478.60 120.71 469.89 C 117.54 452.28 106.52 437.05 104.49 419.17 C 102.97 396.89 107.84 373.87 119.98 354.96 C 133.23 334.07 154.78 319.30 178.27 312.16 Z" />
<path fill="#000000" opacity="1.00" d=" M 527.20 309.06 C 536.70 305.02 547.37 305.98 557.30 307.68 C 570.27 323.15 574.98 344.10 572.73 363.91 C 565.74 371.14 556.42 377.22 546.02 377.03 C 536.66 377.12 528.08 371.72 522.30 364.66 C 514.07 354.55 509.73 340.91 512.07 327.94 C 513.48 319.61 519.33 312.19 527.20 309.06 Z" />
<path fill="#bf0000" opacity="1.00" d=" M 1051.64 314.82 C 1061.06 314.08 1070.43 311.85 1079.91 312.46 C 1088.88 312.89 1097.70 318.97 1099.87 327.93 C 1102.64 336.74 1098.79 347.00 1090.97 351.87 C 1080.75 358.13 1068.22 357.02 1056.82 359.05 C 1055.00 344.32 1053.31 329.57 1051.64 314.82 M 1065.14 321.62 C 1066.44 330.82 1067.28 340.08 1068.49 349.30 C 1073.05 348.59 1078.00 348.61 1082.01 346.02 C 1090.98 340.61 1088.88 324.34 1078.70 321.57 C 1074.28 320.04 1069.63 321.23 1065.14 321.62 Z" />
<path fill="#bf0000" opacity="1.00" d=" M 1005.60 320.35 C 1017.43 318.95 1029.27 317.62 1041.09 316.20 C 1041.46 319.05 1041.79 321.90 1041.99 324.78 C 1034.38 325.69 1026.75 326.46 1019.16 327.49 C 1019.49 330.00 1019.80 332.52 1020.08 335.05 C 1027.18 334.22 1034.28 333.38 1041.40 332.57 C 1041.66 335.43 1041.99 338.28 1042.33 341.14 C 1035.25 341.89 1028.19 342.83 1021.11 343.53 C 1021.50 347.20 1021.91 350.88 1022.36 354.55 C 1029.97 353.61 1037.59 352.67 1045.22 351.89 C 1045.60 354.72 1045.94 357.56 1046.29 360.40 C 1034.45 361.74 1022.62 363.10 1010.81 364.56 C 1008.98 349.83 1007.36 335.08 1005.60 320.35 Z" />
<path fill="#ffffff" opacity="1.00" d=" M 1065.14 321.62 C 1069.63 321.23 1074.28 320.04 1078.70 321.57 C 1088.88 324.34 1090.98 340.61 1082.01 346.02 C 1078.00 348.61 1073.05 348.59 1068.49 349.30 C 1067.28 340.08 1066.44 330.82 1065.14 321.62 Z" />
<path fill="#bf0000" opacity="1.00" d=" M 954.72 326.16 C 969.07 324.46 983.44 322.92 997.77 321.06 C 998.44 323.89 998.68 326.80 999.01 329.69 C 993.88 330.25 988.77 330.86 983.66 331.48 C 985.08 343.35 986.47 355.22 987.81 367.10 C 983.58 367.54 979.36 368.13 975.13 368.48 C 973.81 356.62 972.41 344.78 971.00 332.93 C 965.89 333.49 960.80 334.18 955.69 334.68 C 955.34 331.84 955.02 329.00 954.72 326.16 Z" />
<path fill="#bf0000" opacity="1.00" d=" M 917.74 333.72 C 926.93 326.73 939.71 326.17 950.44 329.49 C 950.91 333.13 951.34 336.78 951.75 340.43 C 948.20 339.93 945.41 337.25 941.86 336.66 C 935.05 334.61 926.18 337.70 924.04 344.96 C 921.74 352.36 924.63 362.77 933.04 364.68 C 940.73 366.85 948.03 362.27 953.19 356.97 C 954.57 360.47 954.36 364.32 954.97 367.99 C 946.70 373.02 936.63 375.28 927.07 373.38 C 921.59 372.21 916.45 369.01 913.63 364.09 C 908.16 354.65 908.72 340.83 917.74 333.72 Z" />
<path fill="#bf0000" opacity="1.00" d=" M 864.61 336.59 C 876.44 335.23 888.27 333.85 900.10 332.45 C 900.43 335.28 900.76 338.12 901.08 340.96 C 893.46 341.98 885.81 342.72 878.19 343.71 C 878.49 346.24 878.79 348.77 879.09 351.31 C 886.17 350.45 893.27 349.66 900.36 348.80 C 900.66 351.66 900.99 354.52 901.34 357.38 C 894.26 358.17 887.18 359.03 880.10 359.82 C 880.50 363.48 880.92 367.13 881.35 370.79 C 889.01 369.93 896.65 368.77 904.35 368.25 C 904.58 371.04 904.91 373.82 905.32 376.59 C 893.51 378.09 881.66 379.25 869.87 380.84 C 867.92 366.12 866.39 351.33 864.61 336.59 Z" />
<path fill="#bf0000" opacity="1.00" d=" M 815.12 342.57 C 822.75 341.77 830.36 340.76 837.99 339.97 C 843.27 339.47 849.17 340.09 853.33 343.69 C 857.20 347.07 857.97 352.78 856.83 357.56 C 855.71 361.92 852.22 365.21 848.43 367.38 C 843.13 370.13 836.99 370.12 831.20 370.90 C 831.81 375.71 832.45 380.53 832.80 385.37 C 828.60 385.74 824.44 386.32 820.26 386.75 C 818.55 372.02 816.80 357.30 815.12 342.57 M 828.69 349.36 C 829.28 353.78 829.67 358.23 830.39 362.64 C 834.04 362.01 837.97 362.07 841.33 360.29 C 845.19 358.22 845.42 351.68 841.48 349.59 C 837.46 347.58 832.91 349.09 828.69 349.36 Z" />
<path fill="#bf0000" opacity="1.00" d=" M 793.49 345.13 C 798.17 344.48 802.87 344.02 807.56 343.42 C 802.75 351.18 798.00 358.99 793.03 366.65 C 799.25 373.99 806.49 380.42 812.91 387.61 C 808.11 388.15 803.32 388.65 798.55 389.35 C 794.29 384.97 790.21 380.43 786.09 375.92 C 783.13 381.23 780.05 386.48 777.03 391.76 C 772.37 392.34 767.71 392.87 763.05 393.38 C 767.99 385.35 772.82 377.25 777.81 369.25 C 771.64 362.27 764.52 356.20 758.44 349.14 C 763.26 348.64 768.07 348.05 772.89 347.47 C 776.74 351.73 780.78 355.83 784.64 360.09 C 787.59 355.10 790.62 350.16 793.49 345.13 Z" />
<path fill="#ffffff" opacity="1.00" d=" M 828.69 349.36 C 832.91 349.09 837.46 347.58 841.48 349.59 C 845.42 351.68 845.19 358.22 841.33 360.29 C 837.97 362.07 834.04 362.01 830.39 362.64 C 829.67 358.23 829.28 353.78 828.69 349.36 Z" />
<path fill="#bf0000" opacity="1.00" d=" M 717.39 353.81 C 729.23 352.53 741.05 351.03 752.89 349.74 C 753.19 352.57 753.52 355.40 753.80 358.25 C 746.18 359.18 738.56 360.01 730.94 360.94 C 731.25 363.48 731.54 366.01 731.84 368.56 C 738.93 367.70 746.03 366.91 753.12 366.06 C 753.41 368.92 753.75 371.79 754.07 374.65 C 746.98 375.40 739.90 376.28 732.83 377.09 C 733.26 380.73 733.69 384.37 734.07 388.03 C 741.71 387.13 749.35 386.18 757.01 385.37 C 757.34 388.22 757.68 391.08 758.03 393.94 C 746.15 395.10 734.33 396.83 722.45 397.91 C 720.87 383.20 718.99 368.52 717.39 353.81 Z" />
<path fill="#000000" opacity="1.00" d=" M 212.17 365.09 C 220.36 363.60 229.10 366.20 235.20 371.85 C 244.19 380.02 248.60 392.09 249.95 403.92 C 251.21 416.22 249.31 429.61 241.42 439.53 C 231.15 452.58 209.88 454.26 197.34 443.57 C 188.65 436.28 183.88 425.25 182.25 414.21 C 180.60 401.78 182.23 388.18 190.00 377.95 C 195.27 370.86 203.58 366.59 212.17 365.09 Z" />
<path fill="#000000" opacity="1.00" d=" M 424.71 495.97 C 437.13 498.62 447.35 507.49 453.82 518.15 C 463.21 533.66 466.70 552.08 466.77 570.04 C 466.74 582.97 464.77 595.91 460.77 608.22 C 446.12 608.89 431.27 608.84 416.88 605.69 C 407.82 603.67 398.90 600.36 391.40 594.80 C 390.44 594.00 389.07 593.35 389.02 591.94 C 385.18 572.57 381.31 552.85 382.79 533.01 C 383.57 524.65 386.05 514.84 394.46 511.06 C 393.92 518.36 393.44 525.67 393.88 532.99 C 394.73 551.26 399.37 569.15 399.64 587.46 C 403.05 589.50 407.16 590.12 411.00 591.04 C 425.64 593.71 440.61 593.09 455.41 592.72 C 457.93 578.66 458.04 563.75 452.85 550.25 C 445.76 530.98 429.50 516.27 424.71 495.97 Z" />
<path fill="#000000" opacity="1.00" d=" M 628.28 603.06 C 633.53 602.94 638.77 603.02 644.02 603.01 C 637.20 621.21 625.90 637.44 612.61 651.51 C 587.39 677.81 555.69 697.08 522.41 711.44 C 482.12 728.58 438.79 738.69 395.04 740.69 C 353.39 742.50 310.57 736.73 272.79 718.36 C 253.21 708.77 235.31 695.59 220.93 679.16 C 240.19 683.44 256.92 694.59 272.11 706.74 C 275.86 709.40 279.14 712.78 283.16 715.02 C 326.10 727.68 371.55 731.97 416.09 727.34 C 460.19 722.71 503.58 709.43 541.95 687.06 C 576.93 666.67 608.07 638.42 628.28 603.06 Z" />
<path fill="#000000" opacity="1.00" d=" M 526.45 720.36 C 528.63 719.17 531.98 719.44 534.06 720.99 C 536.59 723.36 536.59 727.13 537.14 730.32 C 525.90 740.14 512.35 746.90 498.56 752.37 C 466.71 764.72 431.92 769.36 397.94 765.94 C 388.17 765.06 378.06 764.93 368.84 761.20 C 364.08 759.36 359.76 755.66 358.52 750.54 C 383.86 753.90 409.52 755.16 435.06 753.72 C 454.17 752.52 473.37 749.83 491.49 743.44 C 504.71 738.65 517.60 731.54 526.45 720.36 Z" />
</svg>
