<?xml version="1.0" encoding="utf-8"?>
<!-- Generator: Adobe Illustrator 15.0.2, SVG Export Plug-In . SVG Version: 6.00 Build 0)  -->
<!DOCTYPE svg PUBLIC "-//W3C//DTD SVG 1.1//EN" "http://www.w3.org/Graphics/SVG/1.1/DTD/svg11.dtd">
<svg version="1.1" id="Layer_1" xmlns="http://www.w3.org/2000/svg" xmlns:xlink="http://www.w3.org/1999/xlink" x="0px" y="0px"
	 width="150px" height="134px" viewBox="0 0 150 134" enable-background="new 0 0 150 134" xml:space="preserve">
<path fill="#FFFFFF" d="M0,0h150v134H0V0 M121.6,4.66c-0.039,3.81-0.209,7.62,0.041,11.42c0.889,0.35,1.799,0.65,2.729,0.92
	c0.13-1.77,0.2-3.54,0.25-5.32c1.2-0.57,2.47-1.04,3.56-1.82c0.75-1.48,0.42-3.22,0.061-4.76C126.641,2.88,123.73,4.13,121.6,4.66
	 M97.35,7.18c-0.58,1.45-1.609,2.6-2.649,3.73c1.489,3.22,2.93,6.6,5.61,9.05c2.489,0.28,1.149-3.09,1.629-4.53
	c1.431-1.22,4.381-1.49,4.281-3.81c-1.921-0.02-3.711,0.7-5.49,1.33c-0.69-1.1-1.381-2.21-2.041-3.33c2.83-0.12,8.59,0.4,7.551-4.03
	C103.391,6.72,100.4,7.2,97.35,7.18 M109.88,9.82c0.011,2.66-1.7,6.34,1.17,8.11c0.99-1.51,1.7-3.7,3.89-3.6
	c0.971,1.43,1.451,3.27,3.351,3.77c1.06-3.43-0.67-6.71-1.63-9.94C114.3,6.97,111.561,7.97,109.88,9.82 M40.34,14.3
	c-3.98,4.41-8.79,7.92-13.02,12.06c-1.83,5.28-5.13,10.09-5.62,15.79c-1.98,8.82-1.47,17.89-1.86,26.86
	c-0.19,6.17,4.53,10.76,7.28,15.86c2.53,5.021,7.37,8.21,11.93,11.21c5.49,2.3,11.6,1.59,17.4,1.779
	c3.3,4.75,1.55,10.74,1.98,16.121c0.36,4.479-4.28,7.709-3.63,12.239c1.4,3.78,5.88,4.65,9.43,3.86c-2.59-1.471-5.24-2.83-7.63-4.62
	c1.4-3.14,3.17-6.14,4.22-9.43c0.22-3.23-0.29-6.46-0.07-9.681c5.13,6.67,3.68,15.42,4.83,23.2c0.5,0.271,1.51,0.82,2.01,1.091
	c-0.35-4.58-0.88-9.15-1.01-13.74c0.05-4.42-2.86-8.101-3.45-12.4c4.93,3.15,8.32,8.109,13.29,11.25
	c-0.42,4.43-2.02,8.66-2.28,13.12c1.32-0.62,2.12-1.59,2.37-2.92c0.83-3.841,1.98-7.761,1.28-11.71
	c-3.99-4.03-8.83-7.18-12.59-11.45c-1.59-1.86-3.53-3.36-5.43-4.88c6.81-0.13,13.69,0.29,20.44-0.9
	c8.351-3.24,14.74-9.64,20.96-15.85c3.24-4.07,2.359-9.471,3.83-14.16c0.189-7.7-0.15-15.42-0.21-23.13
	c0.14-2.07-1.521-3.57-2.479-5.23c-3.74-5.31-7.07-10.92-10.961-16.13c-3.05-2.65-6.18-5.46-10.07-6.79
	c-3.42-1.55-6.459-4.11-10.209-4.8c-6.04-0.24-12.1,0.04-18.14,0.3C48.68,12.07,44.8,14.5,40.34,14.3 M113.24,46.13
	c-0.79,1.38,1.42,1.33,2.08,2.01c0.43-1.23,0.84-2.46,1.26-3.69c1.59,0.7,3.199,0.93,4.85,0.7c0.03-1.96-2.32-2.34-3.5-3.41
	c0.271-0.65,0.801-1.95,1.061-2.59c2.26,0.3,4.699,2.31,6.82,0.57c-2.631-1.74-5.601-3.88-8.951-3.1
	C114.38,39.1,114.51,43,113.24,46.13 M123.189,48.29c1.11,0.89,2.131,1.88,3.061,2.97c2.48-2.61,1.939-7.44-0.25-10.14
	C123.439,42.72,123.359,45.61,123.189,48.29 M129.859,42.57c-0.26,3.49-0.859,6.99-0.289,10.48c1.4-0.78,2.14-2.01,2.229-3.72
	c2.05-0.73,4.94-1.66,4.38-4.47C135.5,41.92,132.109,42.57,129.859,42.57 M114.32,74.561c0.47,3.5,0.939,7.029,2.039,10.399
	c0.261,1.33,1.25,2.22,2.49,2.67c-0.289-2.04-0.689-4.06-0.99-6.1c0.771-0.08,2.291-0.25,3.051-0.341c0.58,2.48-0.01,5.75,2.55,7.24
	c0.521-1.96,0.96-3.93,1.45-5.899c0.38,0.78,1.14,2.319,1.529,3.09c1.94-2.69,1.42-6.46-0.069-9.24
	c-0.591,0.06-1.761,0.19-2.341,0.25c-1.879-0.08-2.199,2.94-4.209,2.479c-1.461,0.021-2.471-1.109-3.45-2.01
	c1.81-0.459,3.78-0.64,5.29-1.869C119.34,74.141,116.779,74.28,114.32,74.561 M130.439,74.23c-0.729,3.199-0.56,6.529-0.539,9.8
	c-0.33,1.689,1.039,2.649,2.189,3.579c0.141-2.649,0.17-5.31,0.23-7.959c1.3-0.32,2.609-0.641,3.92-0.961
	C137.529,75.15,133.38,71.88,130.439,74.23 M25.44,91.47c-0.54,1.91,0.25,3.921,0.23,5.87c-1.09-1.74-2.01-3.58-3.13-5.29
	c-1.36,0.9-2.72,1.771-4.11,2.63c0.91,2.9-0.84,7.54,2.71,8.851c0.23-1.5,0.47-3,0.71-4.5c0.66,0.439,1.97,1.319,2.63,1.76
	c0.33-0.399,0.99-1.2,1.31-1.601c0.18,0.69,0.52,2.07,0.69,2.771c2.55,1.07,2.68-1.78,2.88-3.56c1.06-1.25,2.67-2.461,2.14-4.33
	C31.42,91.13,27.67,90.25,25.44,91.47 M7.17,94.9c1.6,3.069,3.7,5.85,5.16,9c0.66,1.17,0.91,2.83,2.45,3.16
	c0.97-2.08,0.1-4.291-0.32-6.391c2.04-0.109,3.54-1.2,4.09-3.26c-1.5,0.06-2.99,0.17-4.48,0.33c-0.18-0.44-0.53-1.32-0.7-1.771
	c1.43-0.939,4.07-0.85,4.32-2.92c-0.45-0.26-1.33-0.8-1.77-1.06C12.91,92.65,9.98,93.63,7.17,94.9 M85.24,101.79
	c0.529,2.74,3.88,1.91,5.609,3.41c1.67,0.79,2.36,2.59,3.291,4.06c0.299-1.04,2.359-2.06,0.81-3.05
	C92.971,102.77,89.061,101.32,85.24,101.79 M37.58,113.27c2.46-2.619,1.96-6.709,3.61-9.81C37.11,104.97,36.49,109.55,37.58,113.27
	 M42.58,109.22c-0.19,2.311-0.92,4.601-0.7,6.931c0.36-0.051,1.08-0.15,1.44-0.2c0.53-2.46,1.09-4.931,2.07-7.25
	C44.45,108.87,43.52,109.04,42.58,109.22 M90.26,109.6c0.891,1.771,2.09,3.34,3.141,5.01c0.979,1.851,1.16,4.58,3.789,4.791
	C95.99,115.58,94.73,110.689,90.26,109.6 M48.1,121.05c-0.4-1.1-0.82-2.2-1.26-3.29c0.69-2.05,1.58-4.02,2.23-6.09
	C44.5,112.25,42.58,120.57,48.1,121.05 M87.41,112.68c1.57,3.33,2.939,6.79,4.859,9.95c0.36-0.37,1.07-1.12,1.431-1.489
	c-1.05-2.561-2.24-5.07-3.3-7.621C89.65,113.311,88.15,112.891,87.41,112.68 M105.04,122.12c0.75,0.149,1.51,0.19,2.271,0.11
	c-0.07-1.881-0.11-3.881-1.471-5.351C103.26,117.46,105,120.4,105.04,122.12z"/>
<path d="M121.6,4.66c2.131-0.53,5.041-1.78,6.641,0.44c0.359,1.54,0.689,3.28-0.061,4.76c-1.09,0.78-2.359,1.25-3.56,1.82
	c-0.05,1.78-0.12,3.55-0.25,5.32c-0.931-0.27-1.841-0.57-2.729-0.92C121.391,12.28,121.561,8.47,121.6,4.66 M124.26,6.39
	c-1.4,0.95-0.05,3.72,1.471,2.36C127.21,7.81,125.77,5.09,124.26,6.39z"/>
<path d="M97.35,7.18c3.051,0.02,6.041-0.46,8.891-1.59c1.039,4.43-4.721,3.91-7.551,4.03c0.66,1.12,1.351,2.23,2.041,3.33
	c1.779-0.63,3.569-1.35,5.49-1.33c0.1,2.32-2.851,2.59-4.281,3.81c-0.479,1.44,0.86,4.81-1.629,4.53
	c-2.681-2.45-4.121-5.83-5.61-9.05C95.74,9.78,96.77,8.63,97.35,7.18z"/>
<path fill="#FFFFFF" d="M124.26,6.39c1.51-1.3,2.95,1.42,1.471,2.36C124.21,10.11,122.859,7.34,124.26,6.39z"/>
<path d="M109.88,9.82c1.681-1.85,4.42-2.85,6.78-1.66c0.96,3.23,2.689,6.51,1.63,9.94c-1.899-0.5-2.38-2.34-3.351-3.77
	c-2.189-0.1-2.899,2.09-3.89,3.6C108.18,16.16,109.891,12.48,109.88,9.82 M112.66,10.2c-0.141,0.56-0.42,1.68-0.561,2.24
	c1.15-0.29,2.301-0.6,3.45-0.92C114.84,10.56,113.8,10.24,112.66,10.2z"/>
<path fill="#FFFFFF" d="M112.66,10.2c1.14,0.04,2.18,0.36,2.89,1.32c-1.149,0.32-2.3,0.63-3.45,0.92
	C112.24,11.88,112.52,10.76,112.66,10.2z"/>
<path d="M40.34,14.3c4.46,0.2,8.34-2.23,12.59-3.08c6.04-0.26,12.1-0.54,18.14-0.3c3.75,0.69,6.79,3.25,10.209,4.8
	c3.891,1.33,7.021,4.14,10.07,6.79c3.891,5.21,7.221,10.82,10.961,16.13c0.959,1.66,2.619,3.16,2.479,5.23
	c0.06,7.71,0.399,15.43,0.21,23.13c-1.471,4.689-0.59,10.09-3.83,14.16c-6.22,6.21-12.609,12.609-20.96,15.85
	c-6.75,1.19-13.63,0.771-20.44,0.9c1.9,1.52,3.84,3.02,5.43,4.88c3.76,4.271,8.6,7.42,12.59,11.45c0.7,3.949-0.45,7.869-1.28,11.71
	c-0.25,1.33-1.05,2.3-2.37,2.92c0.26-4.46,1.86-8.69,2.28-13.12c-4.97-3.141-8.36-8.1-13.29-11.25c0.59,4.3,3.5,7.98,3.45,12.4
	c0.13,4.59,0.66,9.16,1.01,13.74c-0.5-0.271-1.51-0.82-2.01-1.091c-1.15-7.78,0.3-16.53-4.83-23.2c-0.22,3.221,0.29,6.45,0.07,9.681
	c-1.05,3.29-2.82,6.29-4.22,9.43c2.39,1.79,5.04,3.149,7.63,4.62c-3.55,0.79-8.03-0.08-9.43-3.86c-0.65-4.53,3.99-7.76,3.63-12.239
	c-0.43-5.381,1.32-11.371-1.98-16.121c-5.8-0.189-11.91,0.521-17.4-1.779c-4.56-3-9.4-6.189-11.93-11.21
	c-2.75-5.101-7.47-9.69-7.28-15.86c0.39-8.97-0.12-18.04,1.86-26.86c0.49-5.7,3.79-10.51,5.62-15.79
	C31.55,22.22,36.36,18.71,40.34,14.3 M41.44,16.79c-3.38,3.51-7.13,6.63-10.82,9.81c-1.31,0.94-1.66,2.57-2.28,3.96
	c-1.32,3.46-3.71,6.54-3.9,10.37c-2.16,9.55-1.83,19.37-2.02,29.089c0.48,4.971,4.24,8.681,6.45,12.94
	c2.19,4.41,6.26,7.34,10.16,10.11c4.49,2.67,10,2.189,15.02,2.27c8.58-0.18,17.25,0.65,25.74-0.84
	c6.479-3.311,12.36-7.641,17.34-12.93c5.521-3.33,4.2-10.24,5.38-15.59c0.23-6.99,0.03-13.98,0.1-20.97
	c0.271-2.37-1.479-4.17-2.609-6.04C96.6,34,93.471,28.84,89.91,23.98c-2.52-2.48-5.75-4.11-8.811-5.82l-0.31,1.47l0.14-0.91
	c-3.14-2.1-6.41-4.229-10.07-5.29c-4.95-0.33-9.91,0.1-14.87,0.12C50.88,13.3,46.54,16.85,41.44,16.79z"/>
<path fill="#FFFFFF" d="M41.44,16.79c5.1,0.06,9.44-3.49,14.55-3.24c4.96-0.02,9.92-0.45,14.87-0.12c3.66,1.06,6.93,3.19,10.07,5.29
	l-0.14,0.91l-0.229,1.29c-3.57-0.36-7.311-1.08-10.84-0.1c-2.12,0.48-3.88,3.11-2.68,5.14c1.29,2.1,3.86,2.78,5.96,3.73
	c-0.46,0.4-1.38,1.2-1.85,1.6c2.82-2.3,5.39,0.62,7.94,1.79c-1.199-1.16-2.97-1.84-3.8-3.32c1.069-1.62,3.351-2.28,4.229-4.15
	c0.681-1.64-1.039-2.94-1.09-4.46c1.68-0.25,2.75,1.61,4.08,2.37l0.471-1.31c9.029,10.16,16.17,22.91,16.31,36.81
	c0.771,7.61-0.39,15.16-2.16,22.55c-4.979,5.289-10.86,9.619-17.34,12.93c-8.49,1.49-17.16,0.66-25.74,0.84
	c-5.02-0.08-10.53,0.4-15.02-2.27c-3.9-2.771-7.97-5.7-10.16-10.11c-2.21-4.26-5.97-7.97-6.45-12.94
	c0.19-9.72-0.14-19.54,2.02-29.089c0.19-3.83,2.58-6.91,3.9-10.37c0.62-1.39,0.97-3.02,2.28-3.96
	C34.31,23.42,38.06,20.3,41.44,16.79 M53.28,16.55c-2.68,1.83-6.41,1.5-8.67,4.01c-2.05,1.81-2.59,4.61-3.44,7.08
	c2.76-1.16,2.76-4.7,4.91-6.51c2.29-2.15,5.64-2.41,8.57-1.73C54.1,18.56,54.16,16.94,53.28,16.55 M57.68,18.49
	c2.29,1.4,4.76,1.41,6.6-0.71c3.3-0.49,6.69-0.33,9.95-1.11c-4.98-1.03-10.01-0.15-14.56,2c-0.45-0.63-1.36-1.9-1.81-2.53
	C57.82,16.92,57.76,17.71,57.68,18.49 M65.46,23.11c0.55-1.12,0.69-2.76,0.16-3.92C63.62,18.99,63.32,23.37,65.46,23.11
	 M49.91,25.09c-0.94,1.45-2.99,2.71-2.49,4.68c1.23,4.26,7.16,5.77,10.64,3.31c2.55-1.46,2.5-5.6,0.2-7.28
	c-2.5-1.09-5.33-0.49-7.96-0.76c1.84-1.04,3.91-1.55,5.9-2.21C53.99,23.25,51.23,22.83,49.91,25.09 M60.86,27.23
	c-0.07,0.67-0.21,2.01-0.28,2.68c0.43,0.17,1.29,0.51,1.72,0.68C63.19,29.55,62.69,26.32,60.86,27.23 M67.09,28.62
	C67.67,31.96,69.87,26.99,67.09,28.62 M42.86,34.06c1.36-0.01,2.72-0.03,4.08-0.03c0.76,0.47,2.27,1.4,3.03,1.87
	c-0.84-2.14-2.86-2.86-4.89-3.3c-0.04-0.85-0.13-2.54-0.18-3.39C44.13,30.79,43.63,32.48,42.86,34.06 M59.52,36.84
	c-0.75,1.27,1.21,1.3,1.5,0.29c0.57-1.09,1.91-2.63,0.95-3.85C60.3,33.29,60.49,35.84,59.52,36.84 M81.859,33.58
	c2.32,0.4,4.121,1.72,5.65,3.44C86.641,34.48,84.38,33.44,81.859,33.58 M67.68,40.47c-2.13,2.69-4.49,5.48-4.94,9.021
	c1.18-1.69,1.87-3.85,3.72-4.97c1.93-1.89,4.72-1.13,7.13-1.41c-0.02,1.43-0.02,2.87-0.02,4.3c0.15-1.42,0.3-2.85,0.43-4.27
	l0.86,1.49c1.041-1.55,2.81-2.21,4.43-2.94c0.79,1.58,1.59,3.16,2.489,4.69c-0.719-1.9-1.619-3.71-2.469-5.55
	c1.199-0.27,2.39-0.53,3.59-0.8c0.279,0.9,0.84,2.7,1.119,3.6c0.59-2.16,0.11-4.38-0.42-6.5c-0.949-1.61-3.17-0.77-4.68-0.89
	C74.98,36.83,70.55,37.41,67.68,40.47 M85.221,43.3C85.73,43.83,85.73,43.83,85.221,43.3 M78.15,44.99
	c-1.271,0.77-1.24,1.45,0.1,2.04C79.51,46.26,79.48,45.58,78.15,44.99 M61.89,53.18c1.86,1.2,3.96,1.49,5.96,0.37
	c-0.97,0-2.91,0-3.87,0c-1.93-0.85-1.86-3.41-2.88-4.99C61.25,50.12,61.63,51.64,61.89,53.18 M87.6,54.79
	c-0.899,1.2,1.131,1.15,1.53,0.39c0.99-0.92,1.761-2.79,0.69-3.92C88.2,51.36,88.891,53.98,87.6,54.79 M89.67,57.74
	c1.87,1.3,3.78,2.56,5.48,4.1c-0.471,3.69-2.791,6.49-5.771,8.52c4.05-0.959,6.07-4.969,6.36-8.81
	C94.09,59.75,92.18,58.11,89.67,57.74 M87.811,58.88c1.779,5.17,0.42,11.37-4.201,14.58c-1.85,1.69-4.469,0.771-6.689,0.931
	c2.04,0.989,4.561,1.43,6.54,0.039C88.33,71.34,91.4,63.98,87.811,58.88z"/>
<path d="M53.28,16.55c0.88,0.39,0.82,2.01,1.37,2.85c-2.93-0.68-6.28-0.42-8.57,1.73c-2.15,1.81-2.15,5.35-4.91,6.51
	c0.85-2.47,1.39-5.27,3.44-7.08C46.87,18.05,50.6,18.38,53.28,16.55z"/>
<path d="M57.68,18.49c0.08-0.78,0.14-1.57,0.18-2.35c0.45,0.63,1.36,1.9,1.81,2.53c4.55-2.15,9.58-3.03,14.56-2
	c-3.26,0.78-6.65,0.62-9.95,1.11C62.44,19.9,59.97,19.89,57.68,18.49z"/>
<path fill="#919191" d="M65.46,23.11c-2.14,0.26-1.84-4.12,0.16-3.92C66.15,20.35,66.01,21.99,65.46,23.11z"/>
<path fill="#DBDBDB" d="M80.79,19.63l0.31-1.47c3.061,1.71,6.291,3.34,8.811,5.82C93.471,28.84,96.6,34,100,38.97
	c1.13,1.87,2.88,3.67,2.609,6.04c-0.069,6.99,0.131,13.98-0.1,20.97c-1.18,5.35,0.141,12.26-5.38,15.59
	c1.771-7.391,2.931-14.94,2.16-22.55c-0.14-13.9-7.28-26.65-16.31-36.81l-0.471,1.31c-0.49-0.65-1.46-1.95-1.949-2.6L80.79,19.63z"
	/>
<path d="M69.72,20.82c3.53-0.98,7.27-0.26,10.84,0.1c0.489,0.65,1.459,1.95,1.949,2.6c-1.33-0.76-2.4-2.62-4.08-2.37
	c0.051,1.52,1.771,2.82,1.09,4.46c-0.879,1.87-3.16,2.53-4.229,4.15c0.83,1.48,2.601,2.16,3.8,3.32c-2.55-1.17-5.12-4.09-7.94-1.79
	c0.47-0.4,1.39-1.2,1.85-1.6c-2.1-0.95-4.67-1.63-5.96-3.73C65.84,23.93,67.6,21.3,69.72,20.82 M66.99,24.91
	c1.65,1.59,3.4,3.66,5.91,3.62c2.21,0.37,3.86-1.45,5.68-2.34c-0.301-1.57-0.7-3.12-1.08-4.68C73.79,20.9,68.31,20.24,66.99,24.91z"
	/>
<path fill="#FFFFFF" d="M66.99,24.91c1.32-4.67,6.8-4.01,10.51-3.4c0.38,1.56,0.779,3.11,1.08,4.68c-1.82,0.89-3.47,2.71-5.68,2.34
	C70.39,28.57,68.64,26.5,66.99,24.91 M73.38,24.57c-1.89,0.38-0.28,2.21,0.53,2.86C76.16,27.16,75.58,23.26,73.38,24.57z"/>
<path d="M49.91,25.09c1.32-2.26,4.08-1.84,6.29-2.26c-1.99,0.66-4.06,1.17-5.9,2.21c2.63,0.27,5.46-0.33,7.96,0.76
	c2.3,1.68,2.35,5.82-0.2,7.28c-3.48,2.46-9.41,0.95-10.64-3.31C46.92,27.8,48.97,26.54,49.91,25.09 M48.42,27.98
	c-1.29,2.88,2.25,4.67,4.34,5.62c0.62-0.54,1.23-1.09,1.83-1.66l-1.92-0.96c1.09-0.49,2.49-1.39,3.58-0.34
	c0.14,0.63,0.41,1.9,0.55,2.53c0.55-0.57,1.65-1.7,2.2-2.26C60.88,24.86,50.99,24.14,48.42,27.98z"/>
<path d="M73.38,24.57c2.2-1.31,2.78,2.59,0.53,2.86C73.1,26.78,71.49,24.95,73.38,24.57z"/>
<path fill="#FFFFFF" d="M48.42,27.98c2.57-3.84,12.46-3.12,10.58,2.93c-0.55,0.56-1.65,1.69-2.2,2.26c-0.14-0.63-0.41-1.9-0.55-2.53
	c-1.09-1.05-2.49-0.15-3.58,0.34l1.92,0.96c-0.6,0.57-1.21,1.12-1.83,1.66C50.67,32.65,47.13,30.86,48.42,27.98z"/>
<path d="M60.86,27.23c1.83-0.91,2.33,2.32,1.44,3.36c-0.43-0.17-1.29-0.51-1.72-0.68C60.65,29.24,60.79,27.9,60.86,27.23z"/>
<path d="M67.09,28.62C69.87,26.99,67.67,31.96,67.09,28.62z"/>
<path fill="#727272" d="M42.86,34.06c0.77-1.58,1.27-3.27,2.04-4.85c0.05,0.85,0.14,2.54,0.18,3.39c2.03,0.44,4.05,1.16,4.89,3.3
	c-0.76-0.47-2.27-1.4-3.03-1.87C45.58,34.03,44.22,34.05,42.86,34.06z"/>
<path d="M59.52,36.84c0.97-1,0.78-3.55,2.45-3.56c0.96,1.22-0.38,2.76-0.95,3.85C60.73,38.14,58.77,38.11,59.52,36.84z"/>
<path d="M81.859,33.58c2.521-0.14,4.781,0.9,5.65,3.44C85.98,35.3,84.18,33.98,81.859,33.58z"/>
<path d="M67.68,40.47c2.87-3.06,7.3-3.64,11.24-4.229c1.51,0.12,3.73-0.72,4.68,0.89c0.53,2.12,1.01,4.34,0.42,6.5
	c-0.279-0.9-0.84-2.7-1.119-3.6c-1.2,0.27-2.391,0.53-3.59,0.8c0.85,1.84,1.75,3.65,2.469,5.55c-0.899-1.53-1.699-3.11-2.489-4.69
	c-1.62,0.73-3.39,1.39-4.43,2.94L74,43.14c-0.13,1.42-0.28,2.85-0.43,4.27c0-1.43,0-2.87,0.02-4.3c-2.41,0.28-5.2-0.48-7.13,1.41
	c-1.85,1.12-2.54,3.28-3.72,4.97C63.19,45.95,65.55,43.16,67.68,40.47 M68.28,41.48c1.53,0.23,3.08,0.4,4.62,0.1
	c0.51,0.26,1.54,0.77,2.05,1.03c0.38-0.56,1.14-1.69,1.521-2.26c0.42,0.27,1.26,0.81,1.68,1.08c0.09-0.38,0.27-1.14,0.369-1.52
	c1.601-0.51,3.19-1.07,4.76-1.67C78.33,36.43,72.33,38.33,68.28,41.48z"/>
<path d="M113.24,46.13c1.27-3.13,1.14-7.03,3.619-9.51c3.351-0.78,6.32,1.36,8.951,3.1c-2.121,1.74-4.561-0.27-6.82-0.57
	c-0.26,0.64-0.79,1.94-1.061,2.59c1.18,1.07,3.53,1.45,3.5,3.41c-1.65,0.23-3.26,0-4.85-0.7c-0.42,1.23-0.83,2.46-1.26,3.69
	C114.66,47.46,112.45,47.51,113.24,46.13z"/>
<path fill="#FFFFFF" d="M68.28,41.48c4.05-3.15,10.05-5.05,15-3.24c-1.569,0.6-3.159,1.16-4.76,1.67
	c-0.1,0.38-0.279,1.14-0.369,1.52c-0.42-0.27-1.26-0.81-1.68-1.08c-0.381,0.57-1.141,1.7-1.521,2.26c-0.51-0.26-1.54-0.77-2.05-1.03
	C71.36,41.88,69.81,41.71,68.28,41.48z"/>
<path d="M123.189,48.29c0.17-2.68,0.25-5.57,2.811-7.17c2.189,2.7,2.73,7.53,0.25,10.14C125.32,50.17,124.3,49.18,123.189,48.29z"/>
<path fill="#A7A7A7" d="M85.221,43.3C85.73,43.83,85.73,43.83,85.221,43.3z"/>
<path fill="#020202" d="M129.859,42.57c2.25,0,5.641-0.65,6.32,2.29c0.561,2.81-2.33,3.74-4.38,4.47
	c-0.09,1.71-0.829,2.94-2.229,3.72C129,49.56,129.6,46.06,129.859,42.57 M132.09,44.93c-0.58,1.35-0.15,1.84,1.311,1.45
	C133.971,45.01,133.529,44.53,132.09,44.93z"/>
<path fill="#D5D5D5" d="M78.15,44.99c1.33,0.59,1.359,1.27,0.1,2.04C76.91,46.44,76.88,45.76,78.15,44.99z"/>
<path fill="#FFFFFF" d="M132.09,44.93c1.439-0.4,1.881,0.08,1.311,1.45C131.939,46.77,131.51,46.28,132.09,44.93z"/>
<path d="M61.89,53.18c-0.26-1.54-0.64-3.06-0.79-4.62c1.02,1.58,0.95,4.14,2.88,4.99c0.96,0,2.9,0,3.87,0
	C65.85,54.67,63.75,54.38,61.89,53.18z"/>
<path d="M87.6,54.79c1.291-0.81,0.601-3.43,2.221-3.53c1.07,1.13,0.3,3-0.69,3.92C88.73,55.94,86.7,55.99,87.6,54.79z"/>
<path d="M89.67,57.74c2.51,0.37,4.42,2.01,6.07,3.81c-0.29,3.84-2.311,7.851-6.36,8.81c2.979-2.029,5.3-4.829,5.771-8.52
	C93.45,60.3,91.54,59.04,89.67,57.74z"/>
<path d="M87.811,58.88c3.59,5.1,0.52,12.46-4.351,15.55c-1.979,1.391-4.5,0.95-6.54-0.039c2.221-0.16,4.84,0.76,6.689-0.931
	C88.23,70.25,89.59,64.05,87.811,58.88z"/>
<path d="M114.32,74.561c2.459-0.28,5.02-0.42,7.34,0.67c-1.51,1.229-3.48,1.41-5.29,1.869c0.979,0.9,1.989,2.03,3.45,2.01
	c2.01,0.461,2.33-2.56,4.209-2.479c0.58-0.06,1.75-0.19,2.341-0.25c1.489,2.78,2.01,6.55,0.069,9.24
	c-0.39-0.771-1.149-2.31-1.529-3.09c-0.49,1.97-0.93,3.939-1.45,5.899c-2.56-1.49-1.97-4.76-2.55-7.24
	c-0.76,0.091-2.28,0.261-3.051,0.341c0.301,2.04,0.701,4.06,0.99,6.1c-1.24-0.45-2.229-1.34-2.49-2.67
	C115.26,81.59,114.79,78.061,114.32,74.561z"/>
<path fill="#060606" d="M130.439,74.23c2.94-2.351,7.09,0.92,5.801,4.459c-1.311,0.32-2.62,0.641-3.92,0.961
	c-0.061,2.649-0.09,5.31-0.23,7.959c-1.15-0.93-2.52-1.89-2.189-3.579C129.88,80.76,129.71,77.43,130.439,74.23 M132.27,76.109
	C132.5,79.41,135.24,74.51,132.27,76.109z"/>
<path fill="#6E6E6E" d="M132.27,76.109C135.24,74.51,132.5,79.41,132.27,76.109z"/>
<path d="M25.44,91.47c2.23-1.22,5.98-0.34,6.06,2.601c0.53,1.869-1.08,3.08-2.14,4.33c-0.2,1.779-0.33,4.63-2.88,3.56
	c-0.17-0.7-0.51-2.08-0.69-2.771c-0.32,0.4-0.98,1.201-1.31,1.601c-0.66-0.44-1.97-1.32-2.63-1.76c-0.24,1.5-0.48,3-0.71,4.5
	c-3.55-1.311-1.8-5.95-2.71-8.851c1.39-0.859,2.75-1.729,4.11-2.63c1.12,1.71,2.04,3.55,3.13,5.29
	C25.69,95.391,24.9,93.38,25.44,91.47 M28.16,93.53c-0.9,1.18-0.67,1.88,0.68,2.11C29.74,94.47,29.52,93.76,28.16,93.53 M21.26,96.2
	C21.9,96.859,21.9,96.859,21.26,96.2z"/>
<path d="M7.17,94.9c2.81-1.271,5.74-2.25,8.75-2.91c0.44,0.26,1.32,0.8,1.77,1.06c-0.25,2.07-2.89,1.98-4.32,2.92
	c0.17,0.45,0.52,1.33,0.7,1.771c1.49-0.16,2.98-0.271,4.48-0.33c-0.55,2.06-2.05,3.15-4.09,3.26c0.42,2.1,1.29,4.311,0.32,6.391
	c-1.54-0.33-1.79-1.99-2.45-3.16C10.87,100.75,8.77,97.97,7.17,94.9z"/>
<path fill="#FFFFFF" d="M28.16,93.53c1.36,0.229,1.58,0.939,0.68,2.11C27.49,95.41,27.26,94.71,28.16,93.53z"/>
<path fill="#D2D2D2" d="M21.26,96.2C21.9,96.859,21.9,96.859,21.26,96.2z"/>
<path d="M85.24,101.79c3.82-0.47,7.73,0.979,9.71,4.42c1.55,0.99-0.511,2.01-0.81,3.05c-0.931-1.47-1.621-3.27-3.291-4.06
	C89.12,103.7,85.77,104.53,85.24,101.79z"/>
<path d="M37.58,113.27c-1.09-3.72-0.47-8.3,3.61-9.81C39.54,106.561,40.04,110.65,37.58,113.27z"/>
<path d="M42.58,109.22c0.94-0.18,1.87-0.35,2.81-0.52c-0.98,2.319-1.54,4.79-2.07,7.25c-0.36,0.05-1.08,0.149-1.44,0.2
	C41.66,113.82,42.39,111.53,42.58,109.22z"/>
<path d="M90.26,109.6c4.471,1.09,5.73,5.98,6.93,9.801c-2.629-0.211-2.81-2.94-3.789-4.791C92.35,112.939,91.15,111.37,90.26,109.6z
	"/>
<path d="M48.1,121.05c-5.52-0.479-3.6-8.8,0.97-9.38c-0.65,2.07-1.54,4.04-2.23,6.09C47.28,118.85,47.7,119.95,48.1,121.05z"/>
<path d="M87.41,112.68c0.74,0.211,2.24,0.631,2.99,0.84c1.06,2.551,2.25,5.061,3.3,7.621c-0.36,0.369-1.07,1.119-1.431,1.489
	C90.35,119.47,88.98,116.01,87.41,112.68z"/>
<path d="M105.04,122.12c-0.04-1.72-1.78-4.66,0.8-5.24c1.36,1.47,1.4,3.47,1.471,5.351C106.55,122.311,105.79,122.27,105.04,122.12z
	"/>
</svg>
