<?xml version="1.0" encoding="utf-8"?>
<!-- Generator: Adobe Illustrator 15.0.2, SVG Export Plug-In . SVG Version: 6.00 Build 0)  -->
<!DOCTYPE svg PUBLIC "-//W3C//DTD SVG 1.1//EN" "http://www.w3.org/Graphics/SVG/1.1/DTD/svg11.dtd">
<svg version="1.1" id="Layer_1" xmlns="http://www.w3.org/2000/svg" xmlns:xlink="http://www.w3.org/1999/xlink" x="0px" y="0px"
	 width="160px" height="173px" viewBox="0 0 160 173" enable-background="new 0 0 160 173" xml:space="preserve">
<path fill="#FFFFFF" d="M0,0h160v173h-26.91c-4.71-2.92-7.54-7.83-11.529-11.53c-3.021-3.14-7.07-4.93-10.431-7.63
	c-3.87-2.66-7.97-5.9-12.96-5.52c-0.35-1.601-0.62-3.221-0.87-4.84c7.13-1.69,14.46-2.121,21.729-2.82
	c2.82-0.12,5.25-1.74,7.371-3.46c2.81-2.271,6.07-3.86,9.07-5.851c1.289-3.949,3.199-7.699,5.84-10.91
	c7.739-9.43,13.81-20.209,18.1-31.609c0.48-5.22,0.09-10.48,0.15-15.72c-4.34-7.53-7.891-15.63-13.141-22.57
	c-6.04-3.82-9.82-10.73-16.891-12.94c-6.079-2.18-12.699-2.15-18.85-4.15c-0.72-1.72-1.47-3.43-2.209-5.14
	c-4.9-3.38-5.541-9.71-9.011-14.19l2.37,0.02c-1.01-1.07-2-2.16-2.98-3.25c1.23-0.26,2.461-0.52,3.711-0.73
	c-0.301,0.5-0.891,1.49-1.181,1.99c1.03,0.91,2.04,1.84,3.06,2.76c0.16-3.01,0.521-6.09-0.119-9.06c-2.18-2.1-5.26-0.97-7.35,0.61
	c0.459,0.33,1.389,0.99,1.85,1.32c1.39-1.36,2.859-1.76,4.1,0.1c-2.34,0.86-4.73,1.71-6.68,3.33c-2.52-1.12-4.54-3.02-6.59-4.82
	c-4.41-0.05-8.78,0.45-13.15,0.84c-6.71,2.52-13.73,4.11-20.48,6.53c0.1-2.31,0.19-4.62,0.31-6.92c0.87-0.27,2.61-0.81,3.48-1.08
	c-1.87-1.11-4.07-0.97-6.15-1.07c-0.03,3.37-0.02,6.75,0.04,10.13c-9.04,2.95-15.71,10.15-21.21,17.59
	c-2.33,5.83-4.69,11.77-4.83,18.14c-0.03,5.91-2.35,11.53-2.16,17.46c-0.06,6.68-1.7,13.23-3.91,19.5
	c-0.83,4.2-1.62,8.91-0.06,12.99c4.16,4.47,7.94,9.34,12.81,13.1c9.1,8.521,16.25,19.99,28.43,24.49c4.55,1.27,8.88,3.11,13.24,4.88
	c6.25,0.63,12.57,0.061,18.84,0.25c-0.32,2.38,0.851,5.45-1.35,7.171c-3.34,3.439-7.1,6.469-10.21,10.129
	c-2.55,3.95-4.63,8.181-6.51,12.48H0V0 M1.56,5.84c1.85,2.39,0.82,5.57,1.09,8.35c0.51,0.06,1.54,0.18,2.05,0.24
	c0.16-2.55,0.08-5.1,0.24-7.64c0.55-0.22,1.65-0.66,2.21-0.88C6.6,5.56,5.49,4.86,4.94,4.51L4.87,3.85C5.5,3.73,6.76,3.49,7.4,3.37
	C7.34,2.96,7.22,2.12,7.16,1.71C4.26,1.04,2.09,3.24,1.56,5.84 M106.98,1.78c-0.01,4.17-0.051,8.35,0.1,12.52
	c0.57-0.01,1.71-0.03,2.29-0.05c0.04-4.15-0.011-8.3,0.03-12.45C108.79,1.79,107.58,1.78,106.98,1.78 M10.93,4.96
	c-2.3,0.39-3.87,2.75-3.45,5.03c-0.09,4.02,5.91,5.93,8.19,2.63C18.63,9.46,15.3,3.22,10.93,4.96 M18.6,4.66
	c-0.06,3.19-0.07,6.39-0.02,9.58l2.02,0.1c0.09-2.13-0.04-4.27,0.28-6.38c0.45-1.6,2.93-1.19,3.21-2.96
	C22.26,4.78,20.4,5.27,18.6,4.66 M27.1,14.1c2.11,0.8,4.11-0.41,5.83-1.51c-2.38-0.63-5.21,0.63-6.83-1.91
	c2.16-0.72,4.45-0.51,6.68-0.53c0.21-2.85-1.89-5.85-4.99-5.47C23.6,5.73,23.25,12.43,27.1,14.1 M33.41,4.6
	c1.2,3.58,2.42,7.21,4.56,10.35c2.73-2.84,3.7-6.78,4.81-10.44c-3.63-0.26-3.33,4.18-4.62,6.43C36.99,8.6,37.05,4.17,33.41,4.6
	 M43.65,8.96c-0.45,2.42,1.25,4.32,3.14,5.5c1.95-0.05,4.15-0.16,4.67-2.48c-2.18,0.47-4.97,1.12-5.71-1.74
	c2-0.06,4.01-0.07,6.02-0.06c0.47-2.77-1.06-4.84-3.61-5.78C46,5.01,43.59,6.37,43.65,8.96 M113.38,5.39
	c-2.97,1.66-3.04,6.45-0.09,8.17c3.01,2.29,7.66-0.78,7.2-4.4C120.52,5.78,116.15,3.43,113.38,5.39 M122.439,14.32
	c0.511-0.01,1.531-0.03,2.041-0.04c0.399-2.771-1.23-7.41,2.64-8.13c1.659,2.34,0.78,5.31,1.17,7.97c0.55,0.08,1.64,0.23,2.181,0.31
	c-0.101-2.81,0.479-5.77-0.48-8.47c-1.961-2.65-5.15,0.71-7.45-1.48C122.32,7.76,122.32,11.04,122.439,14.32 M134.891,14
	c1.639,0.84,3.449-0.23,5.08-0.58c-0.221-0.4-0.66-1.22-0.881-1.63c-1.949,0.97-3.9,0.96-5.16-1.1c2.131-0.98,4.641-0.01,6.66-1.25
	c0.12-2.76-2.9-5.77-5.66-4.42C131.189,6.22,131.15,12.77,134.891,14z"/>
<path fill="#020202" d="M1.56,5.84c0.53-2.6,2.7-4.8,5.6-4.13C7.22,2.12,7.34,2.96,7.4,3.37C6.76,3.49,5.5,3.73,4.87,3.85l0.07,0.66
	c0.55,0.35,1.66,1.05,2.21,1.4C6.59,6.13,5.49,6.57,4.94,6.79c-0.16,2.54-0.08,5.09-0.24,7.64c-0.51-0.06-1.54-0.18-2.05-0.24
	C2.38,11.41,3.41,8.23,1.56,5.84z"/>
<path fill="#0B0B0B" d="M106.98,1.78c0.6,0,1.81,0.01,2.42,0.02c-0.041,4.15,0.01,8.3-0.03,12.45c-0.58,0.02-1.72,0.04-2.29,0.05
	C106.93,10.13,106.971,5.95,106.98,1.78z"/>
<path fill="#010101" d="M53.66,4.69c2.08,0.1,4.28-0.04,6.15,1.07c-0.87,0.271-2.61,0.81-3.48,1.08c-0.12,2.3-0.21,4.61-0.31,6.92
	c6.75-2.42,13.77-4.01,20.48-6.53c4.37-0.39,8.74-0.89,13.15-0.84c2.05,1.8,4.07,3.7,6.59,4.82c1.949-1.62,4.34-2.47,6.68-3.33
	c-1.24-1.86-2.71-1.46-4.1-0.1c-0.461-0.33-1.391-0.99-1.85-1.32c2.09-1.58,5.17-2.71,7.35-0.61c0.64,2.97,0.279,6.05,0.119,9.06
	c-1.02-0.92-2.029-1.85-3.06-2.76c0.29-0.5,0.88-1.49,1.181-1.99c-1.25,0.21-2.48,0.47-3.711,0.73c0.98,1.09,1.971,2.18,2.98,3.25
	l-2.37-0.02c3.47,4.48,4.11,10.81,9.011,14.19c0.739,1.71,1.489,3.42,2.209,5.14c6.15,2,12.771,1.97,18.85,4.15
	c7.07,2.21,10.851,9.12,16.891,12.94c5.25,6.94,8.801,15.04,13.141,22.57c-0.061,5.24,0.33,10.5-0.15,15.72
	c-4.29,11.4-10.36,22.18-18.1,31.609c-2.641,3.211-4.551,6.961-5.84,10.91c-3,1.99-6.261,3.58-9.07,5.851
	c-2.121,1.72-4.551,3.34-7.371,3.46c-7.27,0.699-14.6,1.13-21.729,2.82c0.25,1.619,0.521,3.239,0.87,4.84
	c4.99-0.381,9.09,2.859,12.96,5.52c3.36,2.7,7.41,4.49,10.431,7.63c3.989,3.7,6.819,8.61,11.529,11.53h-6.35
	c-4.29-3.96-7.48-9.15-12.58-12.2c-5.01-3-9.29-7.19-14.891-9.149c0.181,7.13,0.73,14.24,1.371,21.35h-3.17
	c-0.601-6.35-1.021-12.71-1.341-19.07c-3.101,2.631-6.021,5.471-8.88,8.36c-2.92,3.04-4.23,7.14-6.34,10.71h-4.13
	c1.88-4.3,3.96-8.53,6.51-12.48c3.11-3.66,6.87-6.689,10.21-10.129c2.2-1.721,1.029-4.791,1.35-7.171
	c-6.27-0.189-12.59,0.38-18.84-0.25c-4.36-1.77-8.69-3.61-13.24-4.88c-12.18-4.5-19.33-15.97-28.43-24.49
	c-4.87-3.76-8.65-8.63-12.81-13.1c-1.56-4.08-0.77-8.79,0.06-12.99c2.21-6.27,3.85-12.82,3.91-19.5
	c-0.19-5.93,2.13-11.55,2.16-17.46c0.14-6.37,2.5-12.31,4.83-18.14c5.5-7.44,12.17-14.64,21.21-17.59
	C53.64,11.44,53.63,8.06,53.66,4.69 M79.36,10.46c-0.39-0.23-1.17-0.69-1.56-0.92c-5.58,1.84-11.17,3.66-16.83,5.26
	c-4.33,1.14-8.09,3.77-12.45,4.85c-5.58,4.4-11.15,9.24-14.48,15.56c-0.71,3.22-2.36,6.11-3.2,9.29
	c-1.33,5.38-0.78,11.01-1.98,16.41c-1.24,5.87-0.6,11.97-2.23,17.78c-1.1,6.61-4.59,13.05-3.09,19.89c1.09,2.41,3.4,3.88,5.05,5.859
	c3.89,5.08,9.5,8.461,13.46,13.48c2.91,3.88,7.12,6.6,9.72,10.71c3.17,2.16,7.36,2.66,10.95,1.62c-0.92-2.99-4.78-3.811-6.75-6.15
	c2.6,1.33,4.81,3.311,7.5,4.49c-1.02,3.6,4.65,2.75,6.57,4.49c-1.46,0.33-2.77-0.52-4.11-0.92c-3.09-1.33-6.53-0.73-9.79-0.79
	c1.95,2.39,4.96,3.239,7.73,4.229c4.57,1.42,8.93,3.42,13.45,4.98c6.2,0.32,12.44,0.01,18.661,0.14c3.09,0.311,5.93-1.25,9-1.2
	c4.83-0.25,9.64-0.81,14.459-1.189c4.461-1.53,7.551-5.36,11.771-7.34c1.31-0.59,2.42-1.6,2.81-3.03c1.621-4.39,4.26-8.34,7.49-11.7
	c5.59-7.699,10.4-15.939,14-24.76c3.311-4.94,1.551-11.14,1.85-16.71c-2.229-5.22-5.609-9.81-8.029-14.94
	c-1.87-3.13-3.33-6.76-6.439-8.91c-3.74-2.8-6.961-6.19-10.351-9.39c-3.91-1.01-7.49-3.31-11.59-3.5
	c-3.61-0.35-7.091-1.45-10.681-1.88c-0.81,0.45-2.42,1.35-3.229,1.8c0.36-1.04,1.069-3.12,1.431-4.16
	c-2.021-3.86-5.591-6.67-7.33-10.68c-0.371-0.18-1.131-0.55-1.511-0.73l-0.37,1.51c-1.029-1.2-2.07-2.41-2.99-3.7
	c1.391,0.21,2.28,0.93,2.66,2.16c0.59-0.43,1.17-0.86,1.76-1.29c-1.06-1.84-1.939-3.84-3.5-5.33c-2.379-2.7-6.029-3.9-8.14-6.89
	C85.73,8.63,82.4,9.05,79.36,10.46z"/>
<path fill="#020202" d="M10.93,4.96c4.37-1.74,7.7,4.5,4.74,7.66c-2.28,3.3-8.28,1.39-8.19-2.63C7.06,7.71,8.63,5.35,10.93,4.96
	 M10.97,12.08c1.79,1.61,4.06-1.15,3.63-3.02c-0.02-1.54-1.72-2.18-2.61-3.18C10.07,7.28,8.74,10.31,10.97,12.08z"/>
<path fill="#010101" d="M18.6,4.66c1.8,0.61,3.66,0.12,5.49,0.34c-0.28,1.77-2.76,1.36-3.21,2.96c-0.32,2.11-0.19,4.25-0.28,6.38
	l-2.02-0.1C18.53,11.05,18.54,7.85,18.6,4.66z"/>
<path fill="#020202" d="M27.1,14.1c-3.85-1.67-3.5-8.37,0.69-9.42c3.1-0.38,5.2,2.62,4.99,5.47c-2.23,0.02-4.52-0.19-6.68,0.53
	c1.62,2.54,4.45,1.28,6.83,1.91C31.21,13.69,29.21,14.9,27.1,14.1 M26.68,7.98c0.8,1.05,2.9,1.06,3.67-0.03
	C30.6,5.72,26.4,5.76,26.68,7.98z"/>
<path fill="#020202" d="M33.41,4.6c3.64-0.43,3.58,4,4.75,6.34c1.29-2.25,0.99-6.69,4.62-6.43c-1.11,3.66-2.08,7.6-4.81,10.44
	C35.83,11.81,34.61,8.18,33.41,4.6z"/>
<path fill="#030303" d="M43.65,8.96C43.59,6.37,46,5.01,48.16,4.4c2.55,0.94,4.08,3.01,3.61,5.78c-2.01-0.01-4.02,0-6.02,0.06
	c0.74,2.86,3.53,2.21,5.71,1.74c-0.52,2.32-2.72,2.43-4.67,2.48C44.9,13.28,43.2,11.38,43.65,8.96 M45.91,8.37
	c1.39-0.01,2.78-0.03,4.18-0.07C49.25,6.06,46.54,5.84,45.91,8.37z"/>
<path fill="#010101" d="M113.38,5.39c2.771-1.96,7.14,0.39,7.11,3.77c0.46,3.62-4.19,6.69-7.2,4.4
	C110.34,11.84,110.41,7.05,113.38,5.39 M114.2,7.18c-2.47,2.04,0.649,7.55,3.271,4.51C120.1,9.7,116.71,4.33,114.2,7.18z"/>
<path d="M122.439,14.32c-0.119-3.28-0.119-6.56,0.101-9.84c2.3,2.19,5.489-1.17,7.45,1.48c0.96,2.7,0.38,5.66,0.48,8.47
	c-0.541-0.08-1.631-0.23-2.181-0.31c-0.39-2.66,0.489-5.63-1.17-7.97c-3.87,0.72-2.24,5.36-2.64,8.13
	C123.971,14.29,122.95,14.31,122.439,14.32z"/>
<path fill="#010101" d="M134.891,14c-3.74-1.23-3.701-7.78,0.039-8.98c2.76-1.35,5.78,1.66,5.66,4.42
	c-2.02,1.24-4.529,0.27-6.66,1.25c1.26,2.06,3.211,2.07,5.16,1.1c0.221,0.41,0.66,1.23,0.881,1.63
	C138.34,13.77,136.529,14.84,134.891,14 M135.25,7.8c0.57,0.03,1.73,0.09,2.3,0.12C138.16,6.36,134.74,6.18,135.25,7.8z"/>
<path fill="#FFFFFF" d="M26.68,7.98c-0.28-2.22,3.92-2.26,3.67-0.03C29.58,9.04,27.48,9.03,26.68,7.98z"/>
<path fill="#FFFFFF" d="M45.91,8.37c0.63-2.53,3.34-2.31,4.18-0.07C48.69,8.34,47.3,8.36,45.91,8.37z"/>
<path fill="#FFFFFF" d="M10.97,12.08c-2.23-1.77-0.9-4.8,1.02-6.2c0.89,1,2.59,1.64,2.61,3.18C15.03,10.93,12.76,13.69,10.97,12.08z
	"/>
<path fill="#FFFFFF" d="M114.2,7.18c2.51-2.85,5.899,2.52,3.271,4.51C114.85,14.73,111.73,9.22,114.2,7.18z"/>
<path fill="#F8F8F8" d="M135.25,7.8c-0.51-1.62,2.91-1.44,2.3,0.12C136.98,7.89,135.82,7.83,135.25,7.8z"/>
<path fill="#FFFFFF" d="M79.36,10.46c3.041-1.41,6.371-1.83,9.69-1.6c2.11,2.99,5.761,4.19,8.14,6.89c1.561,1.49,2.44,3.49,3.5,5.33
	c-0.59,0.43-1.17,0.86-1.76,1.29c-0.38-1.23-1.27-1.95-2.66-2.16c0.92,1.29,1.961,2.5,2.99,3.7l0.37-1.51
	c0.38,0.18,1.14,0.55,1.511,0.73c1.739,4.01,5.31,6.82,7.33,10.68c-0.361,1.04-1.07,3.12-1.431,4.16c0.81-0.45,2.42-1.35,3.229-1.8
	c3.59,0.43,7.07,1.53,10.681,1.88c4.1,0.19,7.68,2.49,11.59,3.5c3.39,3.2,6.61,6.59,10.351,9.39c3.109,2.15,4.569,5.78,6.439,8.91
	c2.42,5.13,5.8,9.72,8.029,14.94c-0.299,5.57,1.461,11.77-1.85,16.71c-3.6,8.82-8.41,17.061-14,24.76
	c-3.23,3.36-5.869,7.311-7.49,11.7c-0.39,1.431-1.5,2.44-2.81,3.03c-4.22,1.979-7.31,5.81-11.771,7.34
	c-4.819,0.38-9.629,0.939-14.459,1.189c-3.07-0.05-5.91,1.511-9,1.2c-6.221-0.13-12.461,0.181-18.661-0.14
	c-4.52-1.561-8.88-3.561-13.45-4.98c-2.77-0.99-5.78-1.84-7.73-4.229c3.26,0.06,6.7-0.54,9.79,0.79c1.34,0.4,2.65,1.25,4.11,0.92
	c-1.92-1.74-7.59-0.891-6.57-4.49c-2.69-1.18-4.9-3.16-7.5-4.49c1.97,2.34,5.83,3.16,6.75,6.15c-3.59,1.04-7.78,0.54-10.95-1.62
	c-2.6-4.11-6.81-6.83-9.72-10.71c-3.96-5.02-9.57-8.4-13.46-13.48c-1.65-1.979-3.96-3.449-5.05-5.859
	c-1.5-6.84,1.99-13.28,3.09-19.89c1.63-5.81,0.99-11.91,2.23-17.78c1.2-5.4,0.65-11.03,1.98-16.41c0.84-3.18,2.49-6.07,3.2-9.29
	c3.33-6.32,8.9-11.16,14.48-15.56c4.36-1.08,8.12-3.71,12.45-4.85c5.66-1.6,11.25-3.42,16.83-5.26
	C78.19,9.77,78.97,10.23,79.36,10.46 M74.17,21.94c2.97-0.68,5.01-3.3,7.5-4.91C78.66,17.7,76.6,20.22,74.17,21.94 M75.77,27.17
	c2.96-1.89,5.57-4.38,7.419-7.36C80.34,21.77,78.38,24.85,75.77,27.17 M55.59,25.36c3.03-1.16,6.1-2.45,9.42-2.02
	c2.44-0.31,5.85,1.03,7.43-1.52c-4.13,0.42-8.28,0.52-12.42,0.29C58.43,23.03,56.81,23.94,55.59,25.36 M74.31,25.18
	c1.05,0.75,2.77-0.83,2.34-1.96C75.57,22.57,73.83,23.98,74.31,25.18 M58.56,26.37c2.42,0.05,5.17,1.13,7.37-0.32
	C63.49,25.97,60.92,25.53,58.56,26.37 M86.51,26.42c-2.369,2.15-4.83,5.68-3.289,8.95c-0.5-5.25,3.739-9.96,9.02-9.96
	C90.311,25.18,87.95,24.78,86.51,26.42 M71.23,26.33C71.88,27.01,71.88,27.01,71.23,26.33 M66.14,28.39l1.77-0.96
	c1.75,2.09,4.8,0.81,7.16,1.17c-2.24-0.59-5.26-0.01-6.82-2.04l-2.15-0.08C66.11,26.96,66.13,27.91,66.14,28.39 M86.15,31.22
	l-0.03,0.36c-0.181,1.57-0.3,3.14-0.351,4.72c0.561-0.37,1.681-1.1,2.23-1.46c0.061,1.94,2.05,4.5-0.27,5.93
	c2.91,2,6.779,0.57,10.069,1.38l0.421-0.86c3.229-0.1,6.51-0.42,9.719,0.08l0.86,1.71c-7.271-0.06-14.34,2.68-21.63,1.39
	c-1.76-0.86-3.71-4.5-5.75-2.12c2.32,0.18,2.85,1.97,2.811,3.96c-1.19-0.06-2.791-1.89-3.74-0.34c0.529,0.51,1.58,1.53,2.1,2.04
	c-0.369,0.92-0.76,1.84-1.189,2.74c1.08,2.72,3.609,5.23,3.25,8.29c-0.75-0.17-2.271-0.51-3.021-0.68
	c-0.46,0.33-1.38,0.99-1.84,1.32c-0.15-0.61-0.46-1.83-0.61-2.44c-0.6,0.95-0.87,2.36-2.49,2.09c0.01-0.51,0.01-1.53,0.01-2.04
	c-0.84,0.98-1.78,1.87-2.91,2.51c-0.44-0.92-0.87-1.83-1.31-2.74c0.06,0.6,0.17,1.81,0.23,2.42c-1.54-0.28-3.08-0.57-4.62-0.85
	l0.61-1.85c-0.76,0.63-1.51,1.27-2.26,1.91c-1.9-1.35-4.25-0.17-6.33-0.9c4.23-2.73,8.45-5.47,12.5-8.44
	c1.73,2.28,4.27,0.75,5.58-1.07l-1.08,2.81c0.63-0.27,1.9-0.82,2.54-1.1c-0.99-1.08-1.46-2.46-2.05-3.76
	c-1.9,0.53-1.78,3.29-3.98,3.61c-0.38-2.77,1.52-5,2.46-7.43c-1.26,1.02-2.45,2.12-3.67,3.18c0.11,0.52,0.32,1.56,0.43,2.08
	c-2.75,2.75-6,4.87-9.13,7.14c-1.45,1.01-3.08,2.09-4.96,1.72c1.21-1.021,2.34-2.13,3.49-3.23c1.69-1.34,3.49-2.68,4.54-4.62
	c1.98-1.42,0.8-5.58-1.76-3.11c0.2-0.3,0.59-0.9,0.79-1.2c0.41,0.07,1.23,0.22,1.65,0.29c-0.07-2.73-1.3-5.39-0.58-8.12
	c-3.17-0.39-5.97-2.07-8.72-3.58c1.98-0.23,3.97-0.35,5.96-0.38c0.26,1.94,1.26,3.06,3.01,3.35c-0.85-1.67-1.98-3.16-3.08-4.67
	c-2.19,0.6-4.4,1.1-6.61,1.62c0.35,0.71,0.69,1.43,1.03,2.14c-0.72,0.36-2.15,1.07-2.87,1.43c-0.1,2.58-1.44,5.33,0.03,7.77
	c-0.57,0.41-1.14,0.82-1.71,1.23c0.78,1.11,1.58,2.19,2.41,3.26c-0.08-1.03-0.24-3.08-0.32-4.1l1.52,0.58
	c-1.27,1.6,2.13,2.73,0.74,3.97c-1.72,1.17,1.75,1.26,1.48,2.56c-0.92,1.65-3.14,0.3-4.62,0.58c-0.91-0.91-1.87-1.79-2.94-2.5
	c0.83,1.27,1.74,2.49,2.62,3.72c1.38-0.04,2.75-0.09,4.12-0.13c-0.24,0.94-0.74,2.82-0.98,3.76c-0.66,1.17-0.86,2.59-1.37,3.85
	c1.05,0.79,1.22,1.85,0.52,3.18c0.41-0.26,1.23-0.79,1.64-1.05c0.24,0.23,0.7,0.7,0.94,0.93c2.32,2.74,5.75,4.35,9.32,4.6
	c-5.04-1.33-9.16-4.86-11.79-9.3c2.69,0.09,3.98,3.49,6.8,2.94c5.4-0.08,10.8,1.17,16.17-0.04c-0.54,0.75-1.63,2.25-2.17,3
	c1.34-0.99,2.67-1.979,3.99-2.99c-0.221,1.16-0.67,3.47-0.9,4.62l0.65,0.05c0.27-1.28,0.55-2.56,0.82-3.84
	c2.38,0.85,4.83,1.86,7.3,0.75c2.58-1.2,5.271,0.29,6.81,2.39c0.34-0.67,0.68-1.34,1.03-2.021c0.569,0.46,1.72,1.38,2.3,1.84
	c-0.42-1.61-2.58-2.37-2.689-3.92c1.279-0.77,2.68,0.13,3.789,0.78l0.16,0.32c0.48,0.56,1.44,1.67,1.92,2.22
	c-0.59-1.47-1.469-2.8-2.029-4.29c2.15-0.99,4.65-0.57,6.79-1.58c1.35-0.92,2.489-2.11,3.76-3.13c0.71,1.18,1.431,2.37,2.14,3.55
	c-1.34,1.41-2.379,3.33-4.369,3.91c-0.271,0.41-0.811,1.21-1.07,1.61c3.38-4.89,3.92,0.92,4.57,2.95c-3-0.49-5.98,1.29-8.871,0.27
	c0.371,0.36,1.101,1.08,1.471,1.44c2.46-0.66,4.96-1.12,7.51-1.27c-1.34,3.49-1.699,7.22-1.74,10.94c0.311-0.04,0.93-0.1,1.24-0.13
	c-0.779-3.75-0.41-7.57,0.96-11.12c1.28-2.02,2.979-3.7,4.64-5.4c0.971-2.01,2.49-3.85,2.621-6.16c-1.871,4.11-4.621,7.65-7.74,10.9
	c-0.311-1.61-0.61-3.22-0.891-4.83c0.891-1.08,1.78-2.17,2.66-3.26c2.11-1.5,3.33-3.71,4.01-6.16c0.871-1.16,1.631-2.4,2.24-3.72
	c-3.73,2.32-2.92,7.87-7.27,9.48c-0.41-0.74-1.23-2.22-1.641-2.96c1.631-1.81,3.211-3.66,4.69-5.59c2.021-2.6,3.97-5.27,6.28-7.64
	c1.08,1.2,2.32,2.31,3.18,3.69c0.93,3.56,0.18,7.26-0.1,10.87l0.49,0.08c0.34-4.08,1.75-8.59-0.41-12.4
	c-0.771-0.85-1.521-1.72-2.261-2.6c-1.399-0.71-2.8-1.43-4.19-2.15l0.801,2.021c-3.79,1.33-7.87,0.64-11.73,0.06
	c-0.22-0.58-0.68-1.75-0.9-2.34c3.961,0.01,7.931,0.16,11.881-0.09c-4.471-0.89-9.12-0.62-13.631-0.2
	c-2.059,0.13-4.479,1.35-6.329,0.01c-0.89-0.87-1.82-1.7-2.601-2.67l-1.029,1.93c-0.18-0.39-0.551-1.16-0.73-1.55l0.301,0.14
	c0.739-1.02,1.389-2.1,1.969-3.21l-0.449,0.12c1.1-0.87,2.18-1.76,3.25-2.68c-0.26-0.78-0.51-1.57-0.76-2.35
	c-0.5,0.27-1.48,0.8-1.971,1.07l-1.529,1c0.81-2.95-3.311-4.01-5.32-3.03C89.15,27.23,86.4,28.88,86.15,31.22 M43.28,29.94
	c2.66,1.73,3.07,4.96,2.2,7.81c0.61-0.57,1.23-1.13,1.84-1.69c0.01-1.16,0.01-2.33,0.01-3.5C46.07,31.56,45.05,29.97,43.28,29.94
	 M52.53,31.6c-0.11,0.48-0.34,1.42-0.45,1.9C54.94,35.21,55.87,29.37,52.53,31.6 M73.2,32.11c0.93,1.77,2.06,3.43,3.25,5.04
	c-0.02,0.77-0.07,2.32-0.09,3.09c0.55-0.71,1.09-1.43,1.62-2.15l0.82,1.7c0.07-0.36,0.2-1.09,0.27-1.46
	C76.24,37.1,76.04,33.32,73.2,32.11 M50.3,40.66c-0.74,1.11-1.48,2.21-2.22,3.32c1.33-0.72,2.66-1.45,4.06-2.04
	c0.18-0.36,0.54-1.08,0.73-1.44C52.22,40.54,50.94,40.62,50.3,40.66 M69.08,42.5C67.46,45.58,72.34,42.7,69.08,42.5 M78.16,43.25
	c-0.56,1.62-0.01,2.15,1.64,1.59C80.35,43.22,79.81,42.69,78.16,43.25 M34.24,53.65c2.27-1.05,4-2.91,5.89-4.5
	C37.63,49.68,35.67,51.62,34.24,53.65 M51.24,62.97c-2.79,3.99,1.79,7.88,5.31,9.11c-0.65-0.72-1.34-1.39-2.08-2.01
	c-1.29-1.09-3.47-1.95-3.41-3.95c0.51-2.81,1.79-5.49,1.46-8.41C51.8,59.38,51.53,61.19,51.24,62.97 M31.59,68.83
	c-0.66,0.2-1.98,0.6-2.64,0.8c1.26,0.01,2.52-0.03,3.77-0.1l-0.44,1.14c1.73,0.88,3.4,1.88,5.07,2.88c0.13-0.36,0.4-1.07,0.54-1.42
	c-1.18-0.81-2.39-1.56-3.71-2.11c-1.93-2.06-3.04-4.64-3.85-7.31C30.3,64.83,29.91,67.18,31.59,68.83 M106.98,64.63
	c-0.83,3.42-5.41,3.15-7.961,4.86c-3.279,2.02-8.229,3.979-11.029,0.13c-0.02,0.62-0.07,1.87-0.09,2.5
	c-6.121-1.67-11.95-4.74-18.36-5.07c2.88,1.57,6.16,2.08,9.16,3.34c4.94,1.78,10.239,3.54,15.54,2.54
	c3.279-1.41,6.46-3.06,9.869-4.18c1.551-0.79,3-1.75,4.461-2.69C108.04,65.58,107.51,65.11,106.98,64.63 M119.43,65.26
	c-1.26,0.21-2.109,3.33-0.109,2.38C120.77,67.43,121.6,64.21,119.43,65.26 M58.16,64.73c0.45,1.06,1.34,3.17,1.78,4.22
	c-0.8-0.32-2.41-0.97-3.22-1.3c1.7,1.55,3.34,3.16,4.83,4.92c-0.52,2.52,0.04,5,0.71,7.43c0.5,1.88-0.61,4.51,1.51,5.63
	c0.04-4.28-1.52-8.3-1.97-12.5c0.59,0.24,1.77,0.73,2.36,0.97C61.85,71.15,61.52,66.84,58.16,64.73 M136.529,66.05
	c-0.619,6.75-6.699,11.13-8.829,17.36c-1.64,6.07-5.341,11.46-5.97,17.82c1.41-0.681,1.39-2.34,1.89-3.601
	c1.2-4.29,3.54-8.16,4.58-12.51c2.229-6.9,8.28-11.86,9.85-19C137.67,66.1,136.91,66.07,136.529,66.05 M29.7,73.02
	c2.79,0.85,5.15,2.47,6.24,5.26c0.04-1.3,1.31-3.021-0.23-3.94C33.74,73.77,31.74,73.26,29.7,73.02 M66.74,72.72
	c-0.08,1.95,1.61,2.79,3.09,3.521c3.35,1.56,7.49,4.229,10.64,0.82C75.42,78.68,70.57,75.75,66.74,72.72 M124.25,73.24
	C124.8,73.75,124.8,73.75,124.25,73.24 M42.18,74.01c-0.45,1.82-2.7,4.09-0.6,5.64c0.32-0.96,0.97-2.89,1.3-3.85
	c0.04,2.86-0.33,5.69-0.59,8.53C45.01,81.63,44.35,76.9,42.18,74.01 M154.391,80.88c1.619-0.55,1.119-4.26-0.44-4.93
	C152.49,76.97,153.75,79.59,154.391,80.88 M123.12,79.15C121.55,82.14,126.42,79.36,123.12,79.15 M28.46,86.48
	c1.44,0.86,3.68-1.04,3.12-2.61C30.3,83.11,27.74,84.99,28.46,86.48 M104.12,84.13c-0.5,1.63,0.069,2.18,1.7,1.65
	C106.311,84.15,105.75,83.61,104.12,84.13 M87.21,85.26C87.721,85.77,87.721,85.77,87.21,85.26 M29.76,89.87
	c-1.41,0.94-2.67,2.09-3.56,3.53c0.34-0.11,1.02-0.33,1.37-0.44c1.66-3,5.4-3.97,7.17-6.95C32.58,86.58,31.58,88.76,29.76,89.87
	 M59.3,87.109c0.71,1.761,1.85,3.421,3.89,3.721c3.13,8.029,8.78,14.779,14.4,21.189c-4.42-6.64-9.99-12.6-13.52-19.869
	c0.18-0.931,0.38-1.86,0.48-2.801c-0.95,0.16-1.88,0.44-2.82,0.69C60.97,89.02,60.23,87.98,59.3,87.109 M84.32,90.12
	C84.45,93.46,87.3,88.59,84.32,90.12 M131.33,91.34C131.891,91.79,131.891,91.79,131.33,91.34 M36.43,93.27
	c-2.38,2.78-5.78,4.551-7.66,7.78c2.88-2.64,5.91-5.11,8.98-7.53C37.42,93.46,36.76,93.33,36.43,93.27 M43.76,94.01
	c1.68,3.07,2.42,6.49,2.54,9.98c-0.42-0.01-1.25-0.021-1.67-0.021c-0.05-0.67-0.15-2-0.2-2.67c-1.56-0.28-1.05,1.7-1.4,2.62
	c-0.36,2.811-0.47,5.68-0.08,8.49c1.32,3.58,4.79,5.72,7.49,8.21c0.45,0.11,1.35,0.319,1.8,0.43c-1.92-2.53-4.68-4.17-6.92-6.36
	c-2.19-3.049-1.17-7.06-1.31-10.52c0.74,1.24,1.36,2.54,1.98,3.85c1.42-4.209,1.43-8.729,0.02-12.939
	C45.44,94.811,44.32,94.27,43.76,94.01 M117.27,95.16C117.8,95.66,117.8,95.66,117.27,95.16 M93.109,101.24
	C93.41,104.57,96.029,99.58,93.109,101.24 M75.09,102.38C73.64,105.42,78.41,102.43,75.09,102.38 M87.6,103.28
	c2.301,1.56,5.311,1.42,7.851,2.489C93.7,103.17,90.41,103.09,87.6,103.28 M102.88,110.58c1.16-0.5,1.82-1.4,1.979-2.7
	c0.701-0.62,1.41-1.25,2.111-1.87C104.41,105.76,103.02,108.37,102.88,110.58 M59.98,123.04c-2.01-2.021-4.42-3.55-6.76-5.13
	c-2.82-1.98-4.68-4.98-6.05-8.07C48.06,116.46,54.81,119.92,59.98,123.04 M103.43,111.98c0.7,4.27,1.801,8.479,1.12,12.869
	c-1.399,3.4-3.31,6.59-4.521,10.07c0.341-0.27,1.011-0.811,1.351-1.08c0.521-2.51,2.22-4.54,2.97-6.96
	C106.08,122.05,105.52,116.609,103.43,111.98 M63.35,113.061C63.55,116.38,66.31,111.47,63.35,113.061 M119.63,134.82
	c-4.979-0.75-9.68,2.08-14.64,0.51c4.83,3.07,10.039-0.96,15.21,0.04c1.38-1.65,2.79-3.28,3.87-5.14
	C122.55,131.72,121.15,133.33,119.63,134.82 M77.86,134.17c1.36,1.86,3.68,2.46,5.6,3.53c4.24,0.03,9.021,1.03,12.8-1.4
	C90.07,137.71,83.34,137.8,77.86,134.17z"/>
<path fill="#030303" d="M74.17,21.94c2.43-1.72,4.49-4.24,7.5-4.91C79.18,18.64,77.14,21.26,74.17,21.94z"/>
<path fill="#030303" d="M75.77,27.17c2.61-2.32,4.57-5.4,7.419-7.36C81.34,22.79,78.73,25.28,75.77,27.17z"/>
<path fill="#6B6B6B" d="M55.59,25.36c1.22-1.42,2.84-2.33,4.43-3.25c4.14,0.23,8.29,0.13,12.42-0.29c-1.58,2.55-4.99,1.21-7.43,1.52
	C61.69,22.91,58.62,24.2,55.59,25.36z"/>
<path fill="#030303" d="M74.31,25.18c-0.48-1.2,1.26-2.61,2.34-1.96C77.08,24.35,75.36,25.93,74.31,25.18z"/>
<path fill="#030303" d="M58.56,26.37c2.36-0.84,4.93-0.4,7.37-0.32C63.73,27.5,60.98,26.42,58.56,26.37z"/>
<path fill="#030303" d="M86.51,26.42c1.44-1.64,3.801-1.24,5.73-1.01c-5.28,0-9.52,4.71-9.02,9.96
	C81.68,32.1,84.141,28.57,86.51,26.42z"/>
<path fill="#1C1C1C" d="M71.23,26.33C71.88,27.01,71.88,27.01,71.23,26.33z"/>
<path fill="#030303" d="M66.14,28.39c-0.01-0.48-0.03-1.43-0.04-1.91l2.15,0.08c1.56,2.03,4.58,1.45,6.82,2.04
	c-2.36-0.36-5.41,0.92-7.16-1.17L66.14,28.39z"/>
<path fill="#8A8A8A" d="M86.15,31.22c0.25-2.34,3-3.99,4.93-2.229c-1.061,0.76-2.08,1.57-3.109,2.37c0,1.16,0.01,2.32,0.029,3.48
	c-0.55,0.36-1.67,1.09-2.23,1.46c0.051-1.58,0.17-3.15,0.351-4.72C86.13,31.49,86.141,31.31,86.15,31.22z"/>
<path fill="#020202" d="M91.08,28.99c2.01-0.98,6.13,0.08,5.32,3.03l1.529-1c-1.479,1.08-2.229,2.56-2.26,4.44l1.74-0.48l0.449-0.12
	c-0.58,1.11-1.229,2.19-1.969,3.21l-0.301-0.14c-0.74-2.07-1.49-4.39-4.09-4.65c0.8-0.32,2.41-0.94,3.21-1.26
	c-1.34-1.29-3.09-0.43-4.51,0.2c0.069,1.38,0.37,2.73,0.6,4.09c1.29,0.66,2.58,1.31,3.88,1.96c-1.33,0.58-2.66,1.18-3.97,1.8h-0.38
	c-0.85-1.71-1.7-3.43-2.33-5.23c-0.02-1.16-0.029-2.32-0.029-3.48C89,30.56,90.02,29.75,91.08,28.99z"/>
<path fill="#030303" d="M43.28,29.94c1.77,0.03,2.79,1.62,4.05,2.62c0,1.17,0,2.34-0.01,3.5c-0.61,0.56-1.23,1.12-1.84,1.69
	C46.35,34.9,45.94,31.67,43.28,29.94z"/>
<path fill="#919191" d="M97.93,31.02c0.49-0.27,1.471-0.8,1.971-1.07c0.25,0.78,0.5,1.57,0.76,2.35c-1.07,0.92-2.15,1.81-3.25,2.68
	l-1.74,0.48C95.7,33.58,96.45,32.1,97.93,31.02z"/>
<path fill="#030303" d="M52.53,31.6c3.34-2.23,2.41,3.61-0.45,1.9C52.19,33.02,52.42,32.08,52.53,31.6z"/>
<path fill="#020202" d="M57.44,32.88c2.21-0.52,4.42-1.02,6.61-1.62c1.1,1.51,2.23,3,3.08,4.67c-1.75-0.29-2.75-1.41-3.01-3.35
	c-1.99,0.03-3.98,0.15-5.96,0.38c2.75,1.51,5.55,3.19,8.72,3.58c-0.72,2.73,0.51,5.39,0.58,8.12c-0.42-0.07-1.24-0.22-1.65-0.29
	c-0.2,0.3-0.59,0.9-0.79,1.2c-1.71,1.03-3.6,1.71-5.55,2.11c0.8,1.94,1.75,3.8,2.77,5.62c-1.15,1.1-2.28,2.21-3.49,3.23
	c-0.2,0.15-0.6,0.46-0.8,0.62c0.24-0.94,0.74-2.82,0.98-3.76c-1.37,0.04-2.74,0.09-4.12,0.13c-0.88-1.23-1.79-2.45-2.62-3.72
	c1.07,0.71,2.03,1.59,2.94,2.5c1.48-0.28,3.7,1.07,4.62-0.58c0.27-1.3-3.2-1.39-1.48-2.56c1.39-1.24-2.01-2.37-0.74-3.97l-1.52-0.58
	c0.08,1.02,0.24,3.07,0.32,4.1c-0.83-1.07-1.63-2.15-2.41-3.26c0.57-0.41,1.14-0.82,1.71-1.23c-1.47-2.439-0.13-5.189-0.03-7.77
	c0.72-0.36,2.15-1.07,2.87-1.43C58.13,34.31,57.79,33.59,57.44,32.88 M57.41,38.28c0.74,0.7,1.49,1.39,2.24,2.08
	c-0.01,0.76-0.03,2.3-0.04,3.07c0.94,0.01,2.81,0.02,3.75,0.03c0.3-0.5,0.91-1.49,1.21-1.99c0.43-2.96-2.47-3.82-4.5-5.09
	C59.41,36.85,58.08,37.8,57.41,38.28 M58.27,47.01c1.32,0.521,2.25,0.3,2.78-0.67C59.62,45.46,58.69,45.68,58.27,47.01z"/>
<path fill="#4E4E4E" d="M86.15,31.22c-0.01,0.09-0.021,0.271-0.03,0.36L86.15,31.22z"/>
<path fill="#FFFFFF" d="M90.2,32.22c1.42-0.63,3.17-1.49,4.51-0.2c-0.8,0.32-2.41,0.94-3.21,1.26c0.25,0.63,0.76,1.9,1.02,2.53
	c-0.43,0.13-1.289,0.38-1.72,0.5C90.57,34.95,90.27,33.6,90.2,32.22z"/>
<path fill="#030303" d="M73.2,32.11c2.84,1.21,3.04,4.99,5.87,6.22c-0.07,0.37-0.2,1.1-0.27,1.46l-0.82-1.7
	c-0.53,0.72-1.07,1.44-1.62,2.15c0.02-0.771,0.07-2.32,0.09-3.09C75.26,35.54,74.13,33.88,73.2,32.11z"/>
<path fill="#6B6B6B" d="M91.5,33.28c2.6,0.26,3.35,2.58,4.09,4.65c0.18,0.39,0.551,1.16,0.73,1.55c0.59,0.22,1.76,0.65,2.35,0.86
	c-0.109,0.24-0.34,0.71-0.449,0.95L97.8,42.15c-3.29-0.81-7.159,0.62-10.069-1.38c2.319-1.43,0.33-3.99,0.27-5.93
	c0.63,1.8,1.48,3.52,2.33,5.23l0.08,0.17c0.08-0.04,0.22-0.13,0.3-0.17c1.31-0.62,2.64-1.22,3.97-1.8c-1.3-0.65-2.59-1.3-3.88-1.96
	c0.431-0.12,1.29-0.37,1.72-0.5C92.26,35.18,91.75,33.91,91.5,33.28 M95.74,40.24C96.32,40.81,96.32,40.81,95.74,40.24z"/>
<path fill="#FFFFFF" d="M57.41,38.28c0.67-0.48,2-1.43,2.66-1.9c2.03,1.27,4.93,2.13,4.5,5.09c-0.3,0.5-0.91,1.49-1.21,1.99
	c-0.94-0.01-2.81-0.02-3.75-0.03c0.01-0.77,0.03-2.31,0.04-3.07C58.9,39.67,58.15,38.98,57.41,38.28 M61.41,40.4
	c-1,1.38,1.39,2.93,2.17,1.37C64.44,40.42,62.22,38.91,61.41,40.4z"/>
<path fill="#030303" d="M97.35,37.55c0.78,0.97,1.711,1.8,2.601,2.67c1.85,1.34,4.271,0.12,6.329-0.01
	c4.511-0.42,9.16-0.69,13.631,0.2c-3.95,0.25-7.92,0.1-11.881,0.09c0.221,0.59,0.681,1.76,0.9,2.34c3.86,0.58,7.94,1.27,11.73-0.06
	l-0.801-2.021c1.391,0.72,2.791,1.44,4.19,2.15c0.74,0.88,1.49,1.75,2.261,2.6c2.16,3.81,0.75,8.32,0.41,12.4l-0.49-0.08
	c0.279-3.61,1.029-7.31,0.1-10.87c-0.859-1.38-2.1-2.49-3.18-3.69c-2.311,2.37-4.26,5.04-6.28,7.64c-1.479,1.93-3.06,3.78-4.69,5.59
	c0.41,0.74,1.23,2.22,1.641,2.96c4.35-1.61,3.539-7.16,7.27-9.48c-0.609,1.32-1.369,2.56-2.24,3.72c-0.68,2.45-1.899,4.66-4.01,6.16
	c-0.88,1.09-1.77,2.18-2.66,3.26c0.28,1.61,0.58,3.22,0.891,4.83c3.119-3.25,5.869-6.79,7.74-10.9c-0.131,2.31-1.65,4.15-2.621,6.16
	c-1.66,1.7-3.359,3.38-4.64,5.4c-1.37,3.55-1.739,7.37-0.96,11.12c-0.311,0.03-0.93,0.09-1.24,0.13c0.041-3.72,0.4-7.45,1.74-10.94
	c-2.55,0.15-5.05,0.61-7.51,1.27c-0.37-0.36-1.1-1.08-1.471-1.44c2.891,1.02,5.871-0.76,8.871-0.27c-0.65-2.03-1.19-7.84-4.57-2.95
	c0.26-0.4,0.8-1.2,1.07-1.61c1.99-0.58,3.029-2.5,4.369-3.91c-0.709-1.18-1.43-2.37-2.14-3.55c-1.271,1.02-2.41,2.21-3.76,3.13
	c-2.14,1.01-4.64,0.59-6.79,1.58c0.561,1.49,1.439,2.82,2.029,4.29c-0.479-0.55-1.439-1.66-1.92-2.22l-0.16-0.32
	c-1.109-0.65-2.51-1.55-3.789-0.78c0.109,1.55,2.27,2.31,2.689,3.92c-0.58-0.46-1.73-1.38-2.3-1.84
	c-0.351,0.68-0.69,1.35-1.03,2.021c-1.539-2.1-4.229-3.59-6.81-2.39c-2.47,1.11-4.92,0.1-7.3-0.75c-0.271,1.28-0.551,2.56-0.82,3.84
	l-0.65-0.05c0.23-1.15,0.68-3.46,0.9-4.62c-1.32,1.01-2.65,2-3.99,2.99c0.54-0.75,1.63-2.25,2.17-3
	c-5.37,1.21-10.77-0.04-16.17,0.04c-2.82,0.55-4.11-2.85-6.8-2.94c2.63,4.44,6.75,7.97,11.79,9.3c-3.57-0.25-7-1.86-9.32-4.6
	c-0.24-0.23-0.7-0.7-0.94-0.93c-0.41,0.26-1.23,0.79-1.64,1.05c0.7-1.33,0.53-2.39-0.52-3.18c0.51-1.26,0.71-2.68,1.37-3.85
	c0.2-0.16,0.6-0.47,0.8-0.62c1.88,0.37,3.51-0.71,4.96-1.72c3.13-2.27,6.38-4.39,9.13-7.14c-0.11-0.52-0.32-1.56-0.43-2.08
	c1.22-1.06,2.41-2.16,3.67-3.18c-0.94,2.43-2.84,4.66-2.46,7.43c2.2-0.32,2.08-3.08,3.98-3.61c0.59,1.3,1.06,2.68,2.05,3.76
	c-0.64,0.28-1.91,0.83-2.54,1.1l1.08-2.81c-1.31,1.82-3.85,3.35-5.58,1.07c-4.05,2.97-8.27,5.71-12.5,8.44
	c2.08,0.73,4.43-0.45,6.33,0.9c0.75-0.64,1.5-1.28,2.26-1.91l-0.61,1.85c1.54,0.28,3.08,0.57,4.62,0.85
	c-0.06-0.61-0.17-1.82-0.23-2.42c0.44,0.91,0.87,1.82,1.31,2.74c1.13-0.64,2.07-1.53,2.91-2.51c0,0.51,0,1.53-0.01,2.04
	c1.62,0.27,1.89-1.14,2.49-2.09c0.15,0.61,0.46,1.83,0.61,2.44c0.46-0.33,1.38-0.99,1.84-1.32c0.75,0.17,2.271,0.51,3.021,0.68
	c0.359-3.06-2.17-5.57-3.25-8.29c0.43-0.9,0.82-1.82,1.189-2.74c-0.52-0.51-1.57-1.53-2.1-2.04c0.949-1.55,2.55,0.28,3.74,0.34
	c0.039-1.99-0.49-3.78-2.811-3.96c2.04-2.38,3.99,1.26,5.75,2.12c7.29,1.29,14.359-1.45,21.63-1.39l-0.86-1.71
	c-3.209-0.5-6.489-0.18-9.719-0.08c0.109-0.24,0.34-0.71,0.449-0.95c-0.59-0.21-1.76-0.64-2.35-0.86L97.35,37.55 M85.279,44.14
	c0.431,1.49,0.07,2.67-1.079,3.54c0.56,0.25,1.7,0.77,2.26,1.03l-1.83-0.32c-0.72,0.94-1.45,1.86-2.17,2.8
	c1.05,2.58,3.25,4.86,3.06,7.81c2.561-0.81,5.17-1.47,7.871-1.7c-0.951-0.92-2.051-1.63-3.291-2.12c0.57,0.01,1.711,0.02,2.28,0.02
	c1.36,1.08,3.011,1.64,4.75,1.61c-1.31-0.98-2.63-1.93-3.93-2.91c1.63-0.31,3.25-0.68,4.829-1.2c-0.76,0.61-1.379,1.3-1.869,2.1
	c0.82,0.27,2.48,0.83,3.3,1.1l-0.149-1.46c3.68,0.88,0.16-2.27-0.36-3.44c1.46,0.8,2.899,1.65,4.399,2.4
	c0.471-0.76,1.41-2.28,1.891-3.04c-0.77,0.05-2.301,0.15-3.061,0.19c0.03-0.18,0.1-0.55,0.131-0.73c1.18-0.23,2.359-0.47,3.539-0.71
	l-0.899,2.26c1.22-0.37,3.649-1.11,4.87-1.47c-0.84-0.45-1.69-0.89-2.551-1.3c1.11-0.54,1.971-1.39,2.711-2.35
	c1.699,3.34,5.199-1.14,7.379-1.68c-4.42-0.13-8.83-1.31-13.239-0.5C97.93,44.53,91.18,47.09,85.279,44.14 M110.01,48.34
	C110.359,48.69,110.359,48.69,110.01,48.34 M108.471,53.61c-2.261-0.86-2.371,1.74-3.261,3.06l-1.01-1.21
	c-2.05,2.04-4.921,2.69-7.44,3.95c2.61-0.29,5.28-2.31,7.881-1.21c1.6-0.54,4.729-1.64,3.709-3.89c2.021,1.62,5.36-2.6,1.76-2.58
	C109.7,52.2,108.88,53.14,108.471,53.61 M88.42,61.04c-1.25,0.16-2.49,0.31-3.73,0.52c2.061,1.11,4.051-0.01,6.011-0.7
	c1.3-0.11,2.61-0.26,3.909-0.45c0.291-0.28,0.871-0.85,1.16-1.14C93.27,59.61,90.68,59.79,88.42,61.04z"/>
<path fill="#030303" d="M50.3,40.66c0.64-0.04,1.92-0.12,2.57-0.16c-0.19,0.36-0.55,1.08-0.73,1.44c-1.4,0.59-2.73,1.32-4.06,2.04
	C48.82,42.87,49.56,41.77,50.3,40.66z"/>
<path fill="#010101" d="M61.41,40.4c0.81-1.49,3.03,0.02,2.17,1.37C62.8,43.33,60.41,41.78,61.41,40.4z"/>
<path fill="#B0B0B0" d="M90.33,40.07h0.38c-0.08,0.04-0.22,0.13-0.3,0.17L90.33,40.07z"/>
<path fill="#FFFFFF" d="M95.74,40.24C96.32,40.81,96.32,40.81,95.74,40.24z"/>
<path fill="#5C5C5C" d="M69.08,42.5C72.34,42.7,67.46,45.58,69.08,42.5z"/>
<path fill="#C5C5C5" d="M78.16,43.25c1.65-0.56,2.19-0.03,1.64,1.59C78.15,45.4,77.6,44.87,78.16,43.25z"/>
<path fill="#FFFFFF" d="M85.279,44.14c5.9,2.95,12.65,0.39,18.841-0.07c4.409-0.81,8.819,0.37,13.239,0.5
	c-2.18,0.54-5.68,5.02-7.379,1.68c-0.74,0.96-1.601,1.81-2.711,2.35c0.86,0.41,1.711,0.85,2.551,1.3c-1.221,0.36-3.65,1.1-4.87,1.47
	l0.899-2.26c-1.18,0.24-2.359,0.48-3.539,0.71c-0.031,0.18-0.101,0.55-0.131,0.73c0.76-0.04,2.291-0.14,3.061-0.19
	c-0.48,0.76-1.42,2.28-1.891,3.04c-1.5-0.75-2.939-1.6-4.399-2.4c0.521,1.17,4.04,4.32,0.36,3.44l0.149,1.46
	c-0.819-0.27-2.479-0.83-3.3-1.1c0.49-0.8,1.109-1.49,1.869-2.1c-1.579,0.52-3.199,0.89-4.829,1.2c1.3,0.98,2.62,1.93,3.93,2.91
	c-1.739,0.03-3.39-0.53-4.75-1.61c-0.569,0-1.71-0.01-2.28-0.02c1.24,0.49,2.34,1.2,3.291,2.12c-2.701,0.23-5.311,0.89-7.871,1.7
	c0.19-2.95-2.01-5.23-3.06-7.81c0.72-0.94,1.45-1.86,2.17-2.8l1.83,0.32c-0.56-0.26-1.7-0.78-2.26-1.03
	C85.35,46.81,85.71,45.63,85.279,44.14 M85.41,51.98c-0.59,1.2,0.99,3.14,2.26,2.6C88.189,53.39,86.75,51.16,85.41,51.98z"/>
<path fill="#AFAFAF" d="M58.27,47.01c0.42-1.33,1.35-1.55,2.78-0.67C60.52,47.31,59.59,47.53,58.27,47.01z"/>
<path fill="#979797" d="M59.47,47.68c1.95-0.4,3.84-1.08,5.55-2.11c2.56-2.47,3.74,1.69,1.76,3.11c-1.05,1.94-2.85,3.28-4.54,4.62
	C61.22,51.48,60.27,49.62,59.47,47.68z"/>
<path fill="#F8F8F8" d="M110.01,48.34C110.359,48.69,110.359,48.69,110.01,48.34z"/>
<path fill="#030303" d="M34.24,53.65c1.43-2.03,3.39-3.97,5.89-4.5C38.24,50.74,36.51,52.6,34.24,53.65z"/>
<path fill="#030303" d="M85.41,51.98c1.34-0.82,2.779,1.41,2.26,2.6C86.4,55.12,84.82,53.18,85.41,51.98z"/>
<path fill="#FFFFFF" d="M108.471,53.61c0.409-0.47,1.229-1.41,1.639-1.88c3.601-0.02,0.261,4.2-1.76,2.58
	c1.021,2.25-2.109,3.35-3.709,3.89c-2.601-1.1-5.271,0.92-7.881,1.21c2.52-1.26,5.391-1.91,7.44-3.95l1.01,1.21
	C106.1,55.35,106.21,52.75,108.471,53.61z"/>
<path fill="#030303" d="M51.24,62.97c0.29-1.78,0.56-3.59,1.28-5.26c0.33,2.92-0.95,5.6-1.46,8.41c-0.06,2,2.12,2.86,3.41,3.95
	c0.74,0.62,1.43,1.29,2.08,2.01C53.03,70.85,48.45,66.96,51.24,62.97z"/>
<path fill="#FFFFFF" d="M88.42,61.04c2.26-1.25,4.85-1.43,7.35-1.77c-0.289,0.29-0.869,0.86-1.16,1.14
	C93.311,60.6,92,60.75,90.7,60.86c-1.96,0.69-3.95,1.81-6.011,0.7C85.93,61.35,87.17,61.2,88.42,61.04z"/>
<path fill="#030303" d="M31.59,68.83c-1.68-1.65-1.29-4-1.26-6.12c0.81,2.67,1.92,5.25,3.85,7.31c1.32,0.55,2.53,1.3,3.71,2.11
	c-0.14,0.35-0.41,1.06-0.54,1.42c-1.67-1-3.34-2-5.07-2.88l0.44-1.14c-1.25,0.07-2.51,0.11-3.77,0.1
	C29.61,69.43,30.93,69.03,31.59,68.83z"/>
<path fill="#6B6B6B" d="M106.98,64.63c0.529,0.48,1.06,0.95,1.59,1.43c-1.461,0.94-2.91,1.9-4.461,2.69
	c-3.409,1.12-6.59,2.77-9.869,4.18c-5.301,1-10.6-0.76-15.54-2.54c-3-1.26-6.28-1.77-9.16-3.34c6.41,0.33,12.239,3.4,18.36,5.07
	c0.02-0.63,0.07-1.88,0.09-2.5c2.8,3.85,7.75,1.89,11.029-0.13C101.57,67.78,106.15,68.05,106.98,64.63z"/>
<path fill="#030303" d="M119.43,65.26c2.17-1.05,1.34,2.17-0.109,2.38C117.32,68.59,118.17,65.47,119.43,65.26z"/>
<path fill="#6B6B6B" d="M58.16,64.73c3.36,2.11,3.69,6.42,6,9.37c-0.59-0.24-1.77-0.73-2.36-0.97c0.45,4.2,2.01,8.22,1.97,12.5
	c-2.12-1.12-1.01-3.75-1.51-5.63c-0.67-2.43-1.23-4.91-0.71-7.43c-1.49-1.76-3.13-3.37-4.83-4.92c0.81,0.33,2.42,0.98,3.22,1.3
	C59.5,67.9,58.61,65.79,58.16,64.73z"/>
<path fill="#6B6B6B" d="M136.529,66.05c0.381,0.02,1.141,0.05,1.521,0.07c-1.569,7.14-7.62,12.1-9.85,19
	c-1.04,4.35-3.38,8.22-4.58,12.51c-0.5,1.261-0.479,2.92-1.89,3.601c0.629-6.36,4.33-11.75,5.97-17.82
	C129.83,77.18,135.91,72.8,136.529,66.05z"/>
<path fill="#030303" d="M29.7,73.02c2.04,0.24,4.04,0.75,6.01,1.32c1.54,0.92,0.27,2.64,0.23,3.94
	C34.85,75.49,32.49,73.87,29.7,73.02z"/>
<path fill="#6B6B6B" d="M66.74,72.72c3.83,3.03,8.68,5.96,13.73,4.34c-3.15,3.41-7.29,0.74-10.64-0.82
	C68.35,75.51,66.66,74.67,66.74,72.72z"/>
<path fill="#A4A4A4" d="M124.25,73.24C124.8,73.75,124.8,73.75,124.25,73.24z"/>
<path fill="#6B6B6B" d="M42.18,74.01c2.17,2.89,2.83,7.62,0.11,10.32c0.26-2.84,0.63-5.67,0.59-8.53c-0.33,0.96-0.98,2.89-1.3,3.85
	C39.48,78.1,41.73,75.83,42.18,74.01z"/>
<path fill="#6B6B6B" d="M154.391,80.88c-0.641-1.29-1.9-3.91-0.44-4.93C155.51,76.62,156.01,80.33,154.391,80.88z"/>
<path fill="#979797" d="M123.12,79.15C126.42,79.36,121.55,82.14,123.12,79.15z"/>
<path fill="#030303" d="M28.46,86.48c-0.72-1.49,1.84-3.37,3.12-2.61C32.14,85.44,29.9,87.34,28.46,86.48z"/>
<path fill="#E3E3E3" d="M104.12,84.13c1.63-0.52,2.19,0.02,1.7,1.65C104.189,86.31,103.62,85.76,104.12,84.13z"/>
<path fill="#C2C2C2" d="M87.21,85.26C87.721,85.77,87.721,85.77,87.21,85.26z"/>
<path fill="#030303" d="M29.76,89.87c1.82-1.11,2.82-3.29,4.98-3.86c-1.77,2.98-5.51,3.95-7.17,6.95c-0.35,0.11-1.03,0.33-1.37,0.44
	C27.09,91.96,28.35,90.811,29.76,89.87z"/>
<path fill="#030303" d="M59.3,87.109c0.93,0.871,1.67,1.91,2.43,2.931c0.94-0.25,1.87-0.53,2.82-0.69c-0.1,0.94-0.3,1.87-0.48,2.801
	c3.53,7.27,9.1,13.229,13.52,19.869c-5.62-6.41-11.27-13.16-14.4-21.189C61.15,90.53,60.01,88.87,59.3,87.109z"/>
<path fill="#CBCBCB" d="M84.32,90.12C87.3,88.59,84.45,93.46,84.32,90.12z"/>
<path fill="#C0C0C0" d="M131.33,91.34C131.891,91.79,131.891,91.79,131.33,91.34z"/>
<path fill="#030303" d="M36.43,93.27c0.33,0.061,0.99,0.19,1.32,0.25c-3.07,2.42-6.1,4.891-8.98,7.53
	C30.65,97.82,34.05,96.05,36.43,93.27z"/>
<path fill="#6B6B6B" d="M43.76,94.01c0.56,0.26,1.68,0.801,2.25,1.07c1.41,4.21,1.4,8.73-0.02,12.939
	c-0.62-1.31-1.24-2.609-1.98-3.85c0.14,3.46-0.88,7.471,1.31,10.52c2.24,2.19,5,3.83,6.92,6.36c-0.45-0.11-1.35-0.319-1.8-0.43
	c-2.7-2.49-6.17-4.63-7.49-8.21c-0.39-2.811-0.28-5.68,0.08-8.49c0.35-0.92-0.16-2.9,1.4-2.62c0.05,0.67,0.15,2,0.2,2.67
	c0.42,0,1.25,0.011,1.67,0.021C46.18,100.5,45.44,97.08,43.76,94.01z"/>
<path fill="#BABABA" d="M117.27,95.16C117.8,95.66,117.8,95.66,117.27,95.16z"/>
<path fill="#C8C8C8" d="M93.109,101.24C96.029,99.58,93.41,104.57,93.109,101.24z"/>
<path fill="#C4C4C4" d="M75.09,102.38C78.41,102.43,73.64,105.42,75.09,102.38z"/>
<path fill="#6B6B6B" d="M87.6,103.28c2.811-0.19,6.101-0.11,7.851,2.489C92.91,104.7,89.9,104.84,87.6,103.28z"/>
<path fill="#6B6B6B" d="M102.88,110.58c0.14-2.21,1.53-4.82,4.091-4.57c-0.701,0.62-1.41,1.25-2.111,1.87
	C104.7,109.18,104.04,110.08,102.88,110.58z"/>
<path fill="#030303" d="M59.98,123.04c-5.17-3.12-11.92-6.58-12.81-13.2c1.37,3.09,3.23,6.09,6.05,8.07
	C55.56,119.49,57.97,121.02,59.98,123.04z"/>
<path fill="#030303" d="M103.43,111.98c2.09,4.629,2.65,10.069,0.92,14.899c-0.75,2.42-2.449,4.45-2.97,6.96
	c-0.34,0.27-1.01,0.811-1.351,1.08c1.211-3.48,3.121-6.67,4.521-10.07C105.23,120.46,104.13,116.25,103.43,111.98z"/>
<path fill="#CBCBCB" d="M63.35,113.061C66.31,111.47,63.55,116.38,63.35,113.061z"/>
<path fill="#030303" d="M119.63,134.82c1.521-1.49,2.92-3.101,4.44-4.59c-1.08,1.859-2.49,3.489-3.87,5.14
	c-5.171-1-10.38,3.03-15.21-0.04C109.95,136.9,114.65,134.07,119.63,134.82z"/>
<path fill="#030303" d="M77.86,134.17c5.48,3.63,12.21,3.54,18.4,2.13c-3.779,2.431-8.56,1.431-12.8,1.4
	C81.54,136.63,79.22,136.03,77.86,134.17z"/>
<path fill="#FFFFFF" d="M99.27,151.65c5.601,1.959,9.881,6.149,14.891,9.149c5.1,3.05,8.29,8.24,12.58,12.2h-26.1
	C100,165.891,99.45,158.78,99.27,151.65z"/>
<path fill="#FFFFFF" d="M87.25,162.29c2.859-2.89,5.779-5.729,8.88-8.36c0.32,6.36,0.74,12.721,1.341,19.07H80.91
	C83.02,169.43,84.33,165.33,87.25,162.29z"/>
</svg>
