<?xml version="1.0" encoding="UTF-8" ?>
<!DOCTYPE svg PUBLIC "-//W3C//DTD SVG 1.1//EN" "http://www.w3.org/Graphics/SVG/1.1/DTD/svg11.dtd">
<svg width="589pt" height="620pt" viewBox="0 0 589 620" version="1.1" xmlns="http://www.w3.org/2000/svg">
<g id="#ffffffff">
<path fill="#ffffff" opacity="1.00" d=" M 353.71 18.82 C 357.05 18.66 360.48 18.36 363.76 19.18 C 366.29 19.90 368.99 19.45 371.51 20.23 C 377.41 22.06 383.70 22.14 389.56 24.13 C 393.94 25.54 398.42 26.65 402.77 28.17 C 408.84 30.85 415.63 32.16 421.09 36.06 L 421.37 36.98 C 420.16 40.30 417.87 43.22 415.07 45.35 C 409.43 49.12 402.61 50.43 396.63 53.44 C 396.46 53.81 396.13 54.53 395.96 54.89 C 396.39 57.97 396.45 61.09 396.80 64.17 C 399.68 78.67 407.63 92.56 419.96 101.02 C 423.02 102.79 426.20 104.38 429.39 105.96 C 432.39 107.48 435.81 107.64 438.99 108.63 C 445.17 110.41 451.66 109.68 457.97 109.27 C 462.63 109.30 467.05 107.64 471.45 106.34 C 473.75 105.78 474.34 108.48 475.09 110.02 C 476.58 113.98 478.61 117.73 479.76 121.81 C 480.80 126.58 482.74 131.11 483.61 135.92 C 484.90 140.75 484.76 145.80 485.91 150.66 C 487.08 156.38 486.18 162.23 486.95 167.99 C 487.86 175.66 486.41 183.33 486.59 191.01 C 486.74 193.71 485.58 196.25 485.54 198.93 C 485.45 202.02 485.64 205.16 484.72 208.15 C 483.59 212.05 483.60 216.17 482.48 220.08 C 481.60 223.37 481.54 226.85 480.44 230.09 C 478.79 234.99 478.47 240.23 476.62 245.08 C 473.85 255.53 469.03 265.29 463.55 274.57 C 454.14 289.08 442.36 302.17 428.33 312.35 C 419.98 318.49 410.35 322.61 400.50 325.70 C 394.98 326.81 389.69 329.04 384.00 329.23 C 381.28 329.22 378.73 330.42 376.01 330.32 C 371.62 330.15 367.39 331.69 363.00 331.40 C 349.17 331.14 335.27 332.13 321.52 330.19 C 318.00 324.05 316.62 317.00 315.30 310.14 C 313.95 306.55 313.66 302.66 312.05 299.16 C 311.00 296.83 310.70 294.12 308.99 292.13 C 306.76 292.58 305.15 294.39 303.15 295.36 C 296.98 298.69 290.29 300.85 283.85 303.58 C 273.56 306.65 263.35 310.39 254.03 315.75 C 248.00 313.70 242.98 309.59 237.51 306.44 C 227.57 299.44 217.69 292.29 208.63 284.14 C 196.31 272.92 184.48 260.97 174.91 247.26 C 168.03 238.39 162.62 228.47 158.01 218.26 C 156.20 213.22 153.72 208.40 152.62 203.12 C 151.84 198.74 149.92 194.54 150.14 190.02 C 150.34 181.38 149.43 172.58 151.50 164.09 C 152.83 154.81 155.58 145.77 159.37 137.21 C 163.02 128.38 167.21 119.64 173.11 112.07 C 176.87 106.60 181.99 102.31 186.56 97.55 C 201.58 83.90 218.83 73.07 235.29 61.28 C 237.10 60.09 238.59 57.91 240.90 57.79 C 243.68 60.39 245.67 63.76 248.73 66.08 C 257.55 72.88 268.08 77.11 278.86 79.63 C 285.70 82.11 293.02 82.31 300.15 83.30 C 308.16 84.17 316.11 82.55 324.10 82.33 C 326.88 82.25 329.40 80.94 332.10 80.39 C 338.85 78.91 345.19 75.91 350.85 71.98 C 356.69 67.39 361.66 61.27 363.27 53.86 C 365.91 55.17 367.02 58.48 370.04 59.33 C 373.33 59.40 377.01 60.07 379.85 57.96 C 385.94 54.02 391.37 48.93 395.42 42.89 C 395.06 40.22 393.43 37.82 391.90 35.65 C 389.35 34.61 386.63 35.99 384.41 37.22 C 381.10 38.99 378.54 41.99 374.93 43.24 C 372.60 43.80 370.26 43.11 368.05 42.38 C 362.66 40.93 358.12 37.53 353.19 35.06 C 347.30 31.84 340.76 29.81 334.09 29.18 C 336.72 25.70 341.25 26.81 345.03 26.74 C 348.05 26.77 351.02 27.48 354.05 27.28 C 355.58 27.44 357.13 25.42 356.06 24.04 C 355.39 22.25 354.46 20.58 353.71 18.82 M 310.30 101.39 C 306.30 102.36 302.14 102.00 298.16 103.01 C 296.17 103.48 294.11 103.36 292.10 103.66 C 288.60 104.17 285.35 105.65 281.90 106.35 C 275.79 107.57 270.31 110.76 265.14 114.11 C 261.94 116.58 259.28 119.74 257.30 123.27 C 260.69 125.68 265.06 125.36 269.00 125.27 C 272.99 125.25 276.63 123.44 280.50 122.76 C 283.05 122.30 285.46 121.32 287.90 120.49 C 296.68 117.78 305.75 115.72 314.98 115.65 C 321.68 115.65 328.36 114.73 335.06 115.27 C 340.33 115.79 345.66 115.39 350.93 116.12 C 355.65 116.47 360.23 117.79 364.97 118.00 C 371.53 118.59 377.70 120.99 384.13 122.24 C 402.48 127.46 420.72 135.89 433.64 150.35 C 435.29 152.32 438.08 154.02 437.73 156.95 C 437.56 167.33 442.88 177.86 452.07 182.98 C 455.51 184.32 459.03 185.53 462.60 186.51 C 463.42 182.95 462.47 179.29 461.43 175.89 C 459.49 167.36 455.80 159.20 450.68 152.10 C 440.63 137.17 425.46 126.53 409.58 118.53 C 394.57 111.32 378.42 106.77 362.14 103.49 C 354.70 103.25 347.48 100.85 340.00 101.18 C 330.10 101.34 320.18 100.90 310.30 101.39 M 246.79 110.59 C 244.81 113.65 244.60 117.45 243.96 120.94 C 243.63 127.84 243.38 135.64 247.84 141.40 C 252.21 141.53 255.41 137.72 259.71 137.22 C 255.71 129.52 255.83 120.29 250.98 112.99 C 249.94 111.89 248.56 109.52 246.79 110.59 M 351.55 127.81 C 346.03 129.08 340.59 132.30 338.01 137.52 C 349.52 137.00 360.62 140.50 371.49 143.84 C 381.89 148.28 392.90 151.11 403.99 153.11 C 409.80 153.29 415.76 153.49 421.31 151.43 C 421.19 147.95 420.14 144.53 418.50 141.46 C 415.15 141.02 411.70 141.74 408.40 140.89 C 406.33 140.38 404.26 139.88 402.17 139.52 C 396.08 138.50 390.51 135.74 384.61 134.07 C 379.15 131.91 373.64 129.75 367.83 128.73 C 362.51 127.53 356.96 126.72 351.55 127.81 Z" />
<path fill="#ffffff" opacity="1.00" d=" M 295.01 32.83 C 300.87 32.53 306.99 31.91 312.60 34.03 C 321.07 35.78 329.20 39.03 336.83 43.07 L 336.96 43.95 C 331.18 45.88 325.13 47.42 319.00 47.16 C 309.33 46.93 299.63 47.62 290.00 46.61 C 283.67 46.50 277.33 46.66 271.00 46.60 C 271.09 46.30 271.28 45.70 271.37 45.40 C 277.63 38.81 286.17 34.66 295.01 32.83 Z" />
<path fill="#ffffff" opacity="1.00" d=" M 434.46 54.64 C 436.47 54.40 438.77 53.44 440.68 54.47 C 442.21 56.98 442.75 60.02 444.62 62.34 C 447.31 65.59 450.41 68.47 453.52 71.31 C 450.53 74.84 445.24 74.15 441.46 72.42 C 436.51 70.03 432.04 66.67 426.88 64.71 C 424.17 63.97 421.33 64.39 418.56 64.17 C 418.09 62.37 419.82 61.06 420.89 59.89 C 424.53 56.37 429.58 55.17 434.46 54.64 Z" />
<path fill="#ffffff" opacity="1.00" d=" M 281.61 56.93 C 288.67 55.67 295.89 56.39 303.02 56.19 C 307.12 56.00 310.97 57.57 314.90 58.49 C 318.46 59.32 322.32 60.93 324.45 64.00 C 322.28 66.20 318.97 66.15 316.20 67.04 C 309.61 68.87 302.75 68.54 296.00 68.56 C 291.11 68.83 286.38 67.38 281.52 67.23 C 275.65 65.48 268.93 65.04 264.15 60.88 C 269.61 58.38 275.86 58.53 281.61 56.93 Z" />
<path fill="#ffffff" opacity="1.00" d=" M 414.73 74.46 C 419.35 76.16 423.51 78.89 428.18 80.46 C 431.06 81.58 434.18 81.56 437.19 82.05 C 437.34 84.00 437.21 85.95 437.42 87.89 C 437.71 89.92 439.44 91.22 440.68 92.69 C 432.37 93.30 423.65 90.14 418.06 83.86 C 416.14 81.11 414.21 77.98 414.73 74.46 Z" />
<path fill="#ffffff" opacity="1.00" d=" M 292.95 312.70 C 295.49 311.99 298.84 313.29 299.29 316.12 C 300.08 320.66 300.72 325.23 301.75 329.72 C 298.89 329.84 295.97 330.01 293.16 329.35 C 286.49 327.62 279.75 325.99 273.47 323.09 C 272.74 321.78 274.38 320.84 275.22 320.13 C 280.03 317.19 286.05 320.70 290.94 317.94 C 292.29 316.55 292.29 314.43 292.95 312.70 Z" />
</g>
<g id="#000000ff">
<path fill="#000000" opacity="1.00" d=" M 282.41 1.37 C 284.40 0.16 286.93 0.64 289.12 0.90 C 289.55 2.63 289.07 4.92 290.95 5.91 C 295.05 8.91 299.40 11.60 302.91 15.33 C 308.09 13.20 313.66 12.34 319.13 11.29 C 325.21 10.87 330.99 8.63 337.11 8.42 C 346.68 7.06 356.36 7.55 366.00 7.49 C 370.98 7.38 375.90 8.23 380.84 8.72 C 386.39 9.35 391.64 11.35 397.10 12.41 C 403.43 13.51 409.28 16.26 415.18 18.69 C 426.24 23.36 435.89 30.86 443.93 39.70 C 448.17 35.43 454.05 32.63 460.09 32.39 C 464.74 34.68 465.63 42.23 460.95 44.94 C 457.62 46.35 452.03 45.72 450.98 50.11 C 452.19 53.70 455.57 56.15 457.85 59.12 C 465.04 68.40 472.53 77.51 478.64 87.57 C 482.15 93.54 486.19 99.27 488.58 105.83 C 490.10 110.07 492.34 114.00 493.81 118.26 C 495.00 122.89 496.13 127.55 497.31 132.19 C 498.01 135.41 498.06 138.75 498.88 141.96 C 499.77 145.18 499.12 148.56 499.72 151.82 C 500.09 153.86 500.48 155.91 500.46 158.00 C 500.49 166.99 500.71 175.99 500.25 184.97 C 500.09 188.70 499.03 192.30 498.73 196.02 C 498.43 198.83 498.47 201.71 497.72 204.46 C 496.42 211.35 495.85 218.43 493.46 225.06 C 492.53 227.69 492.42 230.52 491.57 233.18 C 487.34 245.55 483.80 258.23 477.69 269.86 C 475.48 274.00 473.85 278.43 471.40 282.44 C 465.58 291.77 459.93 301.30 452.52 309.48 C 441.52 322.19 428.32 333.83 412.16 339.31 C 407.64 341.22 402.65 341.33 398.01 342.81 C 392.06 344.16 385.91 343.31 379.90 343.97 C 365.94 344.95 351.98 343.42 338.01 343.67 C 334.84 343.74 331.57 343.35 328.53 344.41 C 327.84 346.35 329.38 348.08 329.89 349.87 C 334.74 366.12 344.82 380.32 356.37 392.54 C 359.20 395.99 362.84 398.66 365.65 402.12 C 369.25 406.59 373.91 410.05 377.38 414.64 C 380.26 418.36 385.64 421.65 384.21 427.11 C 383.59 428.38 382.67 429.56 381.28 430.01 C 375.66 421.89 372.19 412.45 366.47 404.44 C 359.61 403.72 352.68 404.50 345.79 404.11 C 344.66 400.84 343.00 397.81 341.01 394.99 C 333.91 382.83 325.85 371.25 318.96 358.97 L 318.35 359.26 C 318.37 364.59 320.22 369.71 320.36 375.04 C 320.74 385.19 323.04 395.12 324.63 405.09 C 324.98 413.16 327.99 420.83 328.61 428.89 C 330.33 436.02 331.79 443.23 332.95 450.48 C 334.46 455.60 335.53 460.84 336.48 466.10 C 338.60 473.70 339.45 481.61 342.11 489.09 C 343.29 495.62 345.42 501.91 346.94 508.36 C 348.92 513.58 350.07 519.06 351.31 524.49 C 352.24 527.69 353.54 530.79 354.18 534.08 C 355.00 538.32 356.76 542.30 357.69 546.51 C 358.19 548.76 358.69 551.04 359.61 553.18 C 361.64 557.79 362.20 562.86 363.75 567.63 C 365.78 574.07 367.48 580.62 369.77 586.97 C 372.56 597.80 376.26 608.38 379.39 619.11 C 375.60 619.42 371.77 619.60 367.99 619.15 C 366.80 619.01 365.59 618.21 365.57 616.93 C 363.37 606.05 359.54 595.60 356.71 584.88 C 355.52 578.95 352.99 573.43 351.76 567.52 C 349.37 560.32 347.79 552.88 345.13 545.78 C 341.72 532.59 337.47 519.62 333.78 506.51 C 332.64 500.17 330.06 494.20 329.07 487.84 C 327.51 482.87 326.30 477.82 324.78 472.84 C 323.70 466.78 322.38 460.76 320.56 454.89 C 318.93 445.49 316.93 436.18 315.13 426.82 C 313.75 418.47 312.71 410.05 310.83 401.80 C 309.55 395.60 310.14 389.15 308.40 383.04 C 307.91 376.63 307.79 370.17 306.75 363.82 C 305.65 357.19 305.60 350.45 305.33 343.76 C 300.84 343.35 296.59 341.72 292.10 341.34 C 288.55 341.05 285.40 339.17 281.88 338.69 C 278.73 338.19 275.54 337.74 272.53 336.64 C 269.41 335.45 266.00 335.30 262.90 334.05 C 259.08 332.47 254.83 332.48 251.00 330.96 C 247.33 329.02 243.58 331.79 240.17 333.05 C 233.79 336.09 226.86 337.72 220.45 340.69 C 216.96 342.40 213.00 342.69 209.48 344.31 C 205.57 346.16 201.20 346.57 197.20 348.14 C 193.38 349.76 189.26 350.44 185.45 352.09 C 179.19 353.61 173.18 356.02 166.90 357.45 C 164.89 357.95 163.09 359.02 161.11 359.63 C 153.86 361.15 147.03 364.11 139.96 366.27 C 135.46 367.52 131.39 369.86 126.95 371.26 C 125.04 371.67 123.75 373.17 122.62 374.64 C 119.14 379.17 115.79 383.79 112.52 388.46 C 109.03 393.51 106.25 398.99 102.90 404.12 C 99.62 404.20 96.33 404.00 93.05 404.30 C 92.35 410.74 93.08 417.25 92.66 423.72 C 90.19 430.23 87.02 436.47 84.67 443.04 C 83.03 447.35 81.84 451.83 79.91 456.04 C 78.08 460.14 78.16 465.39 74.31 468.32 C 71.09 471.75 67.44 474.77 64.49 478.45 C 60.91 483.11 57.42 487.96 55.27 493.46 C 50.90 500.92 49.17 509.66 48.28 518.15 C 53.84 517.48 59.44 517.55 65.02 517.89 C 67.25 518.00 69.27 519.04 71.35 519.74 C 84.20 523.52 94.90 534.20 98.54 547.11 C 99.07 550.31 100.03 553.78 99.27 556.97 C 95.51 557.09 92.12 555.10 89.22 552.92 C 81.68 547.29 77.67 538.21 70.11 532.63 C 66.21 530.13 61.72 528.10 56.99 528.34 C 54.07 528.53 50.80 527.72 48.10 529.09 C 47.31 530.92 48.22 533.03 48.71 534.85 C 50.60 539.45 51.94 544.31 54.67 548.51 C 59.54 557.27 65.61 565.30 70.34 574.13 C 72.11 578.70 74.20 583.46 73.48 588.48 C 71.80 588.93 70.29 587.89 68.77 587.38 C 61.50 584.57 55.74 578.63 52.15 571.81 C 47.87 564.89 45.80 556.95 42.71 549.49 C 40.54 545.40 39.72 540.70 37.12 536.81 C 36.16 535.59 36.10 533.52 34.50 532.97 C 33.09 536.27 30.74 539.19 30.28 542.85 C 28.93 547.34 28.38 552.28 30.04 556.78 C 31.99 566.40 37.65 574.69 40.70 583.94 C 41.60 587.52 42.32 591.26 41.70 594.95 C 41.28 595.14 40.45 595.53 40.03 595.72 C 36.08 594.16 32.23 591.89 29.85 588.27 C 24.70 580.73 21.85 571.96 18.54 563.53 C 17.42 561.41 16.82 558.77 15.00 557.16 C 13.26 559.76 11.84 562.78 11.86 565.97 C 11.69 571.31 12.20 576.63 12.52 581.95 C 12.78 585.94 13.68 590.06 12.40 593.98 C 11.80 596.79 8.89 599.32 6.01 599.12 C 1.53 588.38 -0.17 576.42 1.66 564.90 C 3.88 554.21 8.68 544.06 15.60 535.61 C 21.72 526.54 29.54 518.75 35.56 509.60 C 38.55 505.48 41.52 501.30 43.45 496.56 C 49.18 485.80 52.47 473.99 57.41 462.88 C 59.13 459.34 59.99 455.44 62.03 452.06 C 63.35 449.82 64.46 447.48 65.68 445.19 C 70.17 445.41 74.70 445.78 79.17 445.18 C 79.37 440.55 80.42 435.48 78.34 431.14 C 80.02 427.00 82.87 422.48 81.58 417.91 C 81.69 417.77 81.92 417.48 82.04 417.34 C 82.29 417.06 82.80 416.49 83.05 416.21 C 83.70 410.11 83.92 403.62 87.16 398.22 C 88.54 395.87 89.79 393.43 91.38 391.21 C 96.37 384.99 101.16 378.46 107.65 373.69 C 112.45 369.42 117.88 365.98 123.19 362.39 C 133.55 356.21 144.72 351.59 155.89 347.08 C 163.05 344.99 170.14 342.65 177.10 339.97 C 184.56 338.48 191.87 336.32 199.40 335.12 C 205.05 334.22 210.21 331.65 215.52 329.66 C 221.09 326.82 226.12 322.81 229.92 317.81 C 230.53 317.15 231.24 315.67 229.93 315.28 C 214.23 306.12 200.56 293.99 187.39 281.59 C 171.69 264.88 156.98 246.61 148.35 225.15 C 146.22 219.46 143.59 213.90 142.75 207.83 C 139.16 197.28 139.92 185.97 139.96 175.00 C 141.49 165.56 140.90 155.86 143.19 146.51 C 144.24 142.71 143.47 138.39 145.70 134.95 C 148.92 129.54 151.85 123.94 155.68 118.91 C 164.89 104.51 176.58 91.87 189.14 80.35 C 204.73 66.99 221.75 55.27 239.86 45.60 C 246.15 41.89 252.87 39.00 259.14 35.27 C 269.63 30.47 279.50 24.47 289.59 18.91 C 284.91 17.31 280.08 13.40 280.19 8.02 C 279.91 5.58 281.19 3.36 282.41 1.37 M 353.71 18.82 C 354.46 20.58 355.39 22.25 356.06 24.04 C 357.13 25.42 355.58 27.44 354.05 27.28 C 351.02 27.48 348.05 26.77 345.03 26.74 C 341.25 26.81 336.72 25.70 334.09 29.18 C 340.76 29.81 347.30 31.84 353.19 35.06 C 358.12 37.53 362.66 40.93 368.05 42.38 C 370.26 43.11 372.60 43.80 374.93 43.24 C 378.54 41.99 381.10 38.99 384.41 37.22 C 386.63 35.99 389.35 34.61 391.90 35.65 C 393.43 37.82 395.06 40.22 395.42 42.89 C 391.37 48.93 385.94 54.02 379.85 57.96 C 377.01 60.07 373.33 59.40 370.04 59.33 C 367.02 58.48 365.91 55.17 363.27 53.86 C 361.66 61.27 356.69 67.39 350.85 71.98 C 345.19 75.91 338.85 78.91 332.10 80.39 C 329.40 80.94 326.88 82.25 324.10 82.33 C 316.11 82.55 308.16 84.17 300.15 83.30 C 293.02 82.31 285.70 82.11 278.86 79.63 C 268.08 77.11 257.55 72.88 248.73 66.08 C 245.67 63.76 243.68 60.39 240.90 57.79 C 238.59 57.91 237.10 60.09 235.29 61.28 C 218.83 73.07 201.58 83.90 186.56 97.55 C 181.99 102.31 176.87 106.60 173.11 112.07 C 167.21 119.64 163.02 128.38 159.37 137.21 C 155.58 145.77 152.83 154.81 151.50 164.09 C 149.43 172.58 150.34 181.38 150.14 190.02 C 149.92 194.54 151.84 198.74 152.62 203.12 C 153.72 208.40 156.20 213.22 158.01 218.26 C 162.62 228.47 168.03 238.39 174.91 247.26 C 184.48 260.97 196.31 272.92 208.63 284.14 C 217.69 292.29 227.57 299.44 237.51 306.44 C 242.98 309.59 248.00 313.70 254.03 315.75 C 263.35 310.39 273.56 306.65 283.85 303.58 C 290.29 300.85 296.98 298.69 303.15 295.36 C 305.15 294.39 306.76 292.58 308.99 292.13 C 310.70 294.12 311.00 296.83 312.05 299.16 C 313.66 302.66 313.95 306.55 315.30 310.14 C 316.62 317.00 318.00 324.05 321.52 330.19 C 335.27 332.13 349.17 331.14 363.00 331.40 C 367.39 331.69 371.62 330.15 376.01 330.32 C 378.73 330.42 381.28 329.22 384.00 329.23 C 389.69 329.04 394.98 326.81 400.50 325.70 C 410.35 322.61 419.98 318.49 428.33 312.35 C 442.36 302.17 454.14 289.08 463.55 274.57 C 469.03 265.29 473.85 255.53 476.62 245.08 C 478.47 240.23 478.79 234.99 480.44 230.09 C 481.54 226.85 481.60 223.37 482.48 220.08 C 483.60 216.17 483.59 212.05 484.72 208.15 C 485.64 205.16 485.45 202.02 485.54 198.93 C 485.58 196.25 486.74 193.71 486.59 191.01 C 486.41 183.33 487.86 175.66 486.95 167.99 C 486.18 162.23 487.08 156.38 485.91 150.66 C 484.76 145.80 484.90 140.75 483.61 135.92 C 482.74 131.11 480.80 126.58 479.76 121.81 C 478.61 117.73 476.58 113.98 475.09 110.02 C 474.34 108.48 473.75 105.78 471.45 106.34 C 467.05 107.64 462.63 109.30 457.97 109.27 C 451.66 109.68 445.17 110.41 438.99 108.63 C 435.81 107.64 432.39 107.48 429.39 105.96 C 426.20 104.38 423.02 102.79 419.96 101.02 C 407.63 92.56 399.68 78.67 396.80 64.17 C 396.45 61.09 396.39 57.97 395.96 54.89 C 396.13 54.53 396.46 53.81 396.63 53.44 C 402.61 50.43 409.43 49.12 415.07 45.35 C 417.87 43.22 420.16 40.30 421.37 36.98 L 421.09 36.06 C 415.63 32.16 408.84 30.85 402.77 28.17 C 398.42 26.65 393.94 25.54 389.56 24.13 C 383.70 22.14 377.41 22.06 371.51 20.23 C 368.99 19.45 366.29 19.90 363.76 19.18 C 360.48 18.36 357.05 18.66 353.71 18.82 M 295.01 32.83 C 286.17 34.66 277.63 38.81 271.37 45.40 C 271.28 45.70 271.09 46.30 271.00 46.60 C 277.33 46.66 283.67 46.50 290.00 46.61 C 299.63 47.62 309.33 46.93 319.00 47.16 C 325.13 47.42 331.18 45.88 336.96 43.95 L 336.83 43.07 C 329.20 39.03 321.07 35.78 312.60 34.03 C 306.99 31.91 300.87 32.53 295.01 32.83 M 434.46 54.64 C 429.58 55.17 424.53 56.37 420.89 59.89 C 419.82 61.06 418.09 62.37 418.56 64.17 C 421.33 64.39 424.17 63.97 426.88 64.71 C 432.04 66.67 436.51 70.03 441.46 72.42 C 445.24 74.15 450.53 74.84 453.52 71.31 C 450.41 68.47 447.31 65.59 444.62 62.34 C 442.75 60.02 442.21 56.98 440.68 54.47 C 438.77 53.44 436.47 54.40 434.46 54.64 M 281.61 56.93 C 275.86 58.53 269.61 58.38 264.15 60.88 C 268.93 65.04 275.65 65.48 281.52 67.23 C 286.38 67.38 291.11 68.83 296.00 68.56 C 302.75 68.54 309.61 68.87 316.20 67.04 C 318.97 66.15 322.28 66.20 324.45 64.00 C 322.32 60.93 318.46 59.32 314.90 58.49 C 310.97 57.57 307.12 56.00 303.02 56.19 C 295.89 56.39 288.67 55.67 281.61 56.93 M 414.73 74.46 C 414.21 77.98 416.14 81.11 418.06 83.86 C 423.65 90.14 432.37 93.30 440.68 92.69 C 439.44 91.22 437.71 89.92 437.42 87.89 C 437.21 85.95 437.34 84.00 437.19 82.05 C 434.18 81.56 431.06 81.58 428.18 80.46 C 423.51 78.89 419.35 76.16 414.73 74.46 M 292.95 312.70 C 292.29 314.43 292.29 316.55 290.94 317.94 C 286.05 320.70 280.03 317.19 275.22 320.13 C 274.38 320.84 272.74 321.78 273.47 323.09 C 279.75 325.99 286.49 327.62 293.16 329.35 C 295.97 330.01 298.89 329.84 301.75 329.72 C 300.72 325.23 300.08 320.66 299.29 316.12 C 298.84 313.29 295.49 311.99 292.95 312.70 Z" />
<path fill="#000000" opacity="1.00" d=" M 310.30 101.39 C 320.18 100.90 330.10 101.34 340.00 101.18 C 347.48 100.85 354.70 103.25 362.14 103.49 C 378.42 106.77 394.57 111.32 409.58 118.53 C 425.46 126.53 440.63 137.17 450.68 152.10 C 455.80 159.20 459.49 167.36 461.43 175.89 C 462.47 179.29 463.42 182.95 462.60 186.51 C 459.03 185.53 455.51 184.32 452.07 182.98 C 442.88 177.86 437.56 167.33 437.73 156.95 C 438.08 154.02 435.29 152.32 433.64 150.35 C 420.72 135.89 402.48 127.46 384.13 122.24 C 377.70 120.99 371.53 118.59 364.97 118.00 C 360.23 117.79 355.65 116.47 350.93 116.12 C 345.66 115.39 340.33 115.79 335.06 115.27 C 328.36 114.73 321.68 115.65 314.98 115.65 C 305.75 115.72 296.68 117.78 287.90 120.49 C 285.46 121.32 283.05 122.30 280.50 122.76 C 276.63 123.44 272.99 125.25 269.00 125.27 C 265.06 125.36 260.69 125.68 257.30 123.27 C 259.28 119.74 261.94 116.58 265.14 114.11 C 270.31 110.76 275.79 107.57 281.90 106.35 C 285.35 105.65 288.60 104.17 292.10 103.66 C 294.11 103.36 296.17 103.48 298.16 103.01 C 302.14 102.00 306.30 102.36 310.30 101.39 Z" />
<path fill="#000000" opacity="1.00" d=" M 246.79 110.59 C 248.56 109.52 249.94 111.89 250.98 112.99 C 255.83 120.29 255.71 129.52 259.71 137.22 C 255.41 137.72 252.21 141.53 247.84 141.40 C 243.38 135.64 243.63 127.84 243.96 120.94 C 244.60 117.45 244.81 113.65 246.79 110.59 Z" />
<path fill="#000000" opacity="1.00" d=" M 351.55 127.81 C 356.96 126.72 362.51 127.53 367.83 128.73 C 373.64 129.75 379.15 131.91 384.61 134.07 C 390.51 135.74 396.08 138.50 402.17 139.52 C 404.26 139.88 406.33 140.38 408.40 140.89 C 411.70 141.74 415.15 141.02 418.50 141.46 C 420.14 144.53 421.19 147.95 421.31 151.43 C 415.76 153.49 409.80 153.29 403.99 153.11 C 392.90 151.11 381.89 148.28 371.49 143.84 C 360.62 140.50 349.52 137.00 338.01 137.52 C 340.59 132.30 346.03 129.08 351.55 127.81 Z" />
<path fill="#000000" opacity="1.00" d=" M 393.27 443.72 L 394.06 443.64 C 403.89 454.37 414.07 465.00 426.38 472.94 C 426.53 473.55 426.83 474.78 426.98 475.39 C 428.02 475.57 429.07 475.72 430.13 475.83 C 441.68 483.33 453.84 489.92 466.47 495.44 C 479.62 502.01 493.51 506.93 507.14 512.39 C 513.09 514.40 518.68 517.33 524.71 519.09 C 532.49 522.52 540.53 525.30 548.28 528.78 C 556.90 531.86 564.97 536.27 573.45 539.69 C 573.66 541.76 573.18 543.87 573.53 545.95 C 574.08 549.31 575.39 552.49 576.05 555.84 C 577.18 561.46 580.01 566.54 581.39 572.09 C 582.46 576.12 585.24 579.67 585.15 584.00 C 585.17 588.69 585.21 593.39 585.12 598.09 C 585.29 601.58 579.90 603.46 577.51 601.46 C 573.42 594.63 574.76 585.95 570.68 579.17 C 570.29 579.13 569.52 579.05 569.14 579.01 C 566.29 582.62 567.41 587.58 565.50 591.56 C 564.60 593.10 563.38 594.51 561.89 595.51 C 560.04 595.81 558.15 595.82 556.29 595.77 C 556.09 591.51 556.21 587.25 556.21 582.99 C 556.20 579.28 557.34 575.68 557.31 571.97 C 557.40 565.91 557.73 559.26 553.99 554.08 L 553.24 554.18 C 550.26 561.79 551.87 570.04 551.18 577.96 C 550.41 583.26 549.27 589.55 544.08 592.29 C 542.18 591.51 541.05 589.64 539.78 588.15 C 536.39 583.86 536.81 578.06 536.79 572.92 C 538.79 568.50 538.54 563.50 540.50 559.08 C 541.42 556.74 542.33 554.40 543.03 551.99 C 544.20 547.94 546.21 544.11 546.63 539.87 L 546.11 539.12 C 532.97 533.80 519.83 528.37 506.19 524.48 C 496.09 521.35 486.42 516.96 476.15 514.41 C 463.81 509.83 451.52 505.10 439.58 499.57 C 433.65 496.18 427.62 492.94 422.08 488.93 C 413.99 484.25 407.75 477.18 401.51 470.39 C 397.96 465.88 394.39 461.39 390.78 456.93 C 390.55 452.41 389.97 447.36 393.27 443.72 Z" />
</g>
<g id="#ff2400ff">
<path fill="#ff2400" opacity="1.00" d=" M 199.16 403.09 C 210.15 401.32 221.66 403.32 231.38 408.74 C 231.72 414.37 231.68 420.04 231.48 425.68 L 231.04 426.33 L 230.04 426.46 C 223.21 421.70 215.94 415.51 207.03 416.53 C 201.53 417.49 195.60 419.84 192.71 424.93 C 190.83 428.32 189.07 432.01 189.25 436.00 C 189.42 441.04 188.38 446.43 190.72 451.14 C 192.11 454.22 193.96 457.22 196.64 459.35 C 201.90 462.95 208.74 464.14 214.90 462.52 C 219.05 461.11 223.06 459.15 226.43 456.31 C 227.91 455.23 229.50 453.31 231.54 454.25 C 231.47 459.85 231.97 465.54 231.28 471.09 C 224.51 473.99 217.50 477.03 210.01 477.00 C 204.60 477.03 199.00 477.42 193.85 475.44 C 186.45 473.10 178.95 469.00 175.17 461.92 C 171.72 455.54 169.44 448.31 169.88 441.00 C 169.14 431.18 172.23 421.08 178.57 413.52 C 183.90 407.72 191.49 404.40 199.16 403.09 Z" />
<path fill="#ff2400" opacity="1.00" d=" M 30.27 404.28 C 47.36 404.17 64.47 404.04 81.55 404.34 C 81.72 408.67 81.29 413.03 82.04 417.34 C 81.92 417.48 81.69 417.77 81.58 417.91 C 70.75 418.47 59.90 417.82 49.08 418.25 C 48.65 422.57 48.71 426.95 49.03 431.29 C 53.34 431.69 57.67 431.43 62.00 431.47 C 67.44 431.40 72.91 431.73 78.34 431.14 C 80.42 435.48 79.37 440.55 79.17 445.18 C 74.70 445.78 70.17 445.41 65.68 445.19 C 60.13 444.70 54.54 444.69 48.98 444.97 C 48.62 455.03 49.08 465.12 48.81 475.19 C 42.63 475.50 36.39 475.58 30.22 475.16 C 30.15 451.53 30.04 427.90 30.27 404.28 Z" />
<path fill="#ff2400" opacity="1.00" d=" M 93.05 404.30 C 96.33 404.00 99.62 404.20 102.90 404.12 C 105.78 404.14 108.67 404.02 111.54 404.34 C 111.64 419.89 111.55 435.45 111.55 451.00 C 111.57 454.06 112.66 457.09 114.30 459.65 C 117.44 462.51 121.73 463.99 125.98 463.66 C 130.65 463.70 135.57 461.04 137.22 456.50 C 138.11 453.42 138.25 450.18 138.33 447.00 C 138.43 432.77 138.22 418.54 138.41 404.32 C 144.44 404.10 150.50 404.03 156.53 404.34 C 156.66 419.22 156.49 434.11 156.60 449.00 C 157.37 457.51 153.76 466.73 146.60 471.65 C 142.25 474.58 137.00 475.61 132.01 476.90 C 127.32 477.12 122.60 477.13 117.91 476.88 C 113.69 476.04 109.37 475.21 105.50 473.27 C 99.81 469.71 94.96 464.23 93.75 457.45 C 92.11 446.28 93.16 434.96 92.66 423.72 C 93.08 417.25 92.35 410.74 93.05 404.30 Z" />
<path fill="#ff2400" opacity="1.00" d=" M 245.14 404.26 C 251.09 404.13 257.05 404.10 263.00 404.26 C 263.57 414.81 262.85 425.40 263.31 435.96 C 272.00 425.71 280.04 414.87 288.49 404.42 C 295.62 403.88 302.81 404.30 309.97 404.19 C 301.12 415.40 291.42 425.94 282.55 437.12 C 283.39 438.94 284.74 440.45 285.97 442.02 C 294.35 453.09 302.90 464.03 311.13 475.21 C 304.09 475.54 297.02 475.41 289.98 475.33 C 288.47 475.56 287.80 473.89 286.93 473.02 C 281.32 465.38 275.51 457.90 269.94 450.24 C 269.03 449.40 268.56 447.63 267.12 447.67 C 265.42 449.44 263.20 451.35 263.25 454.04 C 262.95 461.10 263.45 468.17 263.08 475.23 C 257.08 475.48 251.06 475.52 245.07 475.24 C 244.78 456.50 244.96 437.74 244.92 419.00 C 245.04 414.08 244.74 409.16 245.14 404.26 Z" />
<path fill="#ff2400" opacity="1.00" d=" M 345.79 404.11 C 352.68 404.50 359.61 403.72 366.47 404.44 C 372.19 412.45 375.66 421.89 381.28 430.01 C 382.67 429.56 383.59 428.38 384.21 427.11 C 387.82 419.33 392.20 411.95 396.12 404.33 C 403.01 404.03 409.94 404.17 416.85 404.24 C 416.37 405.53 415.66 406.70 414.94 407.86 C 407.60 419.74 400.62 431.85 393.27 443.72 C 389.97 447.36 390.55 452.41 390.78 456.93 C 390.54 463.07 390.90 469.23 390.56 475.37 C 384.49 475.43 378.41 475.41 372.33 475.40 C 371.81 473.98 371.87 472.46 371.84 470.99 C 371.86 463.97 371.94 456.96 371.88 449.95 C 372.00 448.54 371.39 447.28 370.67 446.14 C 365.46 437.85 360.66 429.30 355.39 421.04 C 352.75 416.08 350.00 411.16 346.80 406.54 C 346.36 405.77 346.02 404.96 345.79 404.11 Z" />
<path fill="#ff2400" opacity="1.00" d=" M 426.84 404.23 C 443.84 404.17 460.85 404.12 477.84 404.25 C 478.16 408.81 478.17 413.41 477.85 417.98 C 466.89 418.41 455.90 417.89 444.93 418.20 C 444.62 422.18 444.60 426.19 444.93 430.17 C 455.16 430.78 465.43 430.15 475.68 430.43 C 476.00 434.99 475.89 439.57 475.78 444.13 C 465.59 444.67 455.35 444.07 445.15 444.37 C 444.36 450.13 444.78 456.06 444.91 461.88 C 455.88 462.22 466.89 461.63 477.85 462.14 C 478.18 466.49 478.13 470.87 477.91 475.23 C 467.61 475.58 457.30 475.28 447.00 475.38 C 441.37 475.51 435.71 474.98 430.13 475.83 C 429.07 475.72 428.02 475.57 426.98 475.39 C 426.83 474.78 426.53 473.55 426.38 472.94 C 426.79 453.63 426.45 434.31 426.56 415.00 C 426.67 411.41 426.25 407.79 426.84 404.23 Z" />
<path fill="#ff2400" opacity="1.00" d=" M 511.79 404.49 C 518.76 403.92 525.82 404.12 532.82 404.37 C 535.25 407.76 536.04 411.98 537.49 415.83 C 541.16 425.35 544.43 435.03 548.18 444.53 C 551.44 454.92 556.11 464.82 559.19 475.27 C 553.13 475.46 547.05 475.50 541.00 475.27 L 540.32 474.86 C 538.22 470.43 537.49 465.34 534.93 461.17 C 526.64 460.67 518.28 460.73 509.99 461.09 C 506.76 465.25 506.78 471.16 503.94 475.50 C 497.93 475.29 491.90 475.59 485.90 475.21 C 494.22 451.54 503.16 428.06 511.79 404.49 M 521.75 424.40 C 519.71 432.43 515.63 439.80 514.04 447.97 C 519.57 448.11 525.20 448.50 530.70 447.72 C 528.81 439.53 524.67 432.06 522.83 423.85 C 522.56 423.99 522.02 424.26 521.75 424.40 Z" />
<path fill="#ff2400" opacity="1.00" d=" M 569.77 456.80 C 575.68 456.44 581.61 456.61 587.52 456.73 C 587.84 462.91 587.83 469.10 587.53 475.28 C 581.61 475.38 575.68 475.62 569.77 475.23 C 569.45 469.10 569.45 462.93 569.77 456.80 Z" />
</g>
<g id="#593f3bff">
<path fill="#593f3b" opacity="1.00" d=" M 346.80 406.54 C 350.00 411.16 352.75 416.08 355.39 421.04 C 352.29 420.04 349.82 417.35 348.87 414.26 C 347.99 411.74 346.89 409.24 346.80 406.54 Z" />
</g>
<g id="#ffccc4ff">
<path fill="#ffccc4" opacity="1.00" d=" M 587.52 456.73 C 587.89 456.74 588.63 456.75 589.00 456.75 L 589.00 475.26 C 588.63 475.27 587.90 475.27 587.53 475.28 C 587.83 469.10 587.84 462.91 587.52 456.73 Z" />
</g>
</svg>
