<?xml version="1.0" encoding="UTF-8" ?>
<!DOCTYPE svg PUBLIC "-//W3C//DTD SVG 1.1//EN" "http://www.w3.org/Graphics/SVG/1.1/DTD/svg11.dtd">
<svg width="367pt" height="425pt" viewBox="0 0 367 425" version="1.1" xmlns="http://www.w3.org/2000/svg">
<path fill="#ffffff" opacity="1.00" d=" M 0.00 0.00 L 367.00 0.00 L 367.00 425.00 L 0.00 425.00 L 0.00 0.00 M 139.93 2.77 C 130.48 5.83 120.37 1.51 110.92 4.62 C 108.93 5.70 106.85 6.80 104.49 6.47 C 95.07 15.89 78.37 13.18 70.70 24.97 C 66.85 25.87 63.94 28.56 61.13 31.16 C 58.93 33.46 55.83 31.35 53.23 31.15 C 53.78 33.13 54.47 35.07 55.16 37.00 C 52.27 37.02 49.15 36.77 46.86 38.91 C 47.73 40.39 48.63 41.86 49.52 43.33 C 46.76 42.92 44.07 42.14 41.30 41.83 C 41.62 44.00 43.07 45.58 44.57 47.05 C 42.24 47.06 39.91 47.06 37.58 47.06 C 37.74 47.68 38.07 48.91 38.24 49.53 C 39.82 51.02 42.10 52.85 40.20 55.08 C 38.00 54.34 35.69 53.98 33.37 53.85 C 33.55 56.59 35.19 58.78 36.59 61.03 C 33.93 61.07 31.28 60.98 28.63 61.16 C 27.87 62.76 29.16 63.86 30.07 64.99 C 25.80 63.78 23.52 68.31 19.52 68.46 C 19.55 69.90 19.58 71.33 19.61 72.77 C 17.56 73.41 15.51 74.05 13.42 74.56 C 13.71 76.82 14.32 79.14 13.45 81.35 C 12.40 79.92 11.56 78.16 9.68 77.70 C 9.76 83.97 8.70 90.14 7.93 96.33 C 12.23 99.59 9.30 105.59 9.44 110.08 C 12.03 110.67 14.53 111.61 17.14 112.17 C 16.62 114.59 15.06 117.04 15.79 119.56 C 17.66 120.71 19.22 118.28 20.93 117.71 C 20.03 119.55 17.97 121.22 18.66 123.46 C 20.62 124.04 21.99 121.74 23.72 121.04 C 22.15 123.38 20.63 125.81 20.43 128.71 C 21.30 128.52 23.02 128.15 23.89 127.96 C 22.01 130.82 19.39 133.62 19.04 137.15 C 20.08 138.01 21.13 138.86 22.14 139.77 C 21.24 142.40 20.38 145.06 19.77 147.78 C 25.82 147.80 21.00 155.38 24.53 158.19 C 25.53 157.35 26.53 156.51 27.53 155.68 C 27.47 159.25 30.86 162.94 28.20 166.16 C 24.55 172.25 18.26 178.10 20.16 185.93 C 22.23 191.49 27.09 196.30 26.04 202.72 C 28.56 205.25 31.64 207.17 33.95 209.91 C 36.52 213.03 36.30 217.26 36.25 221.06 C 35.91 229.54 30.32 236.72 29.63 245.14 C 29.27 252.71 31.75 260.11 35.30 266.71 C 40.31 276.05 45.74 285.20 52.26 293.58 C 63.22 307.63 76.15 320.26 84.97 335.88 C 85.31 345.97 86.20 356.68 91.47 365.55 C 93.81 370.22 100.43 369.28 102.98 373.82 C 102.23 373.61 100.72 373.20 99.96 372.99 C 100.92 378.76 97.06 383.51 93.42 387.45 C 87.13 394.08 85.07 403.23 81.77 411.48 C 86.79 408.15 88.48 402.14 91.14 397.08 C 94.50 390.84 98.78 385.16 102.94 379.44 C 111.07 386.73 111.22 398.81 118.15 406.91 C 119.85 408.99 122.28 410.27 124.54 411.66 C 124.61 409.82 122.66 408.61 121.87 407.07 C 115.03 396.74 110.47 385.13 105.14 373.98 C 109.95 374.49 112.85 379.96 118.02 378.70 C 123.73 383.33 128.41 389.41 135.22 392.53 C 132.86 385.82 125.79 382.95 121.99 377.31 C 130.38 376.14 138.67 373.96 146.39 370.47 C 156.20 366.07 165.07 358.45 168.92 348.19 C 163.39 351.88 160.17 357.94 155.10 362.12 C 144.04 370.98 129.63 374.01 115.93 376.05 C 105.86 371.93 94.34 367.01 89.91 356.22 C 86.57 349.23 88.61 341.42 87.80 334.05 C 79.39 317.60 64.03 306.39 53.45 291.52 C 47.83 283.59 43.10 275.08 38.44 266.57 C 35.04 260.23 31.22 253.37 32.03 245.92 C 33.20 238.08 37.04 230.91 38.12 223.04 C 41.24 220.73 45.96 220.05 47.30 215.92 C 44.40 215.81 41.98 218.06 39.14 217.83 C 38.79 215.66 41.58 215.46 42.87 214.42 C 42.93 213.49 42.98 212.56 43.03 211.63 C 52.87 216.13 63.39 210.75 72.23 206.36 C 75.16 205.32 75.40 201.74 76.34 199.21 C 78.11 193.59 75.86 187.28 71.40 183.57 C 64.31 177.42 54.95 174.99 46.16 172.33 C 50.92 166.35 55.82 160.42 61.76 155.57 C 61.26 150.09 63.52 145.15 65.18 140.08 C 59.01 140.73 53.08 143.20 48.41 147.28 C 43.00 152.02 38.19 157.52 31.95 161.24 C 29.24 154.35 29.45 146.73 30.36 139.51 C 30.77 135.22 33.29 131.37 32.97 126.99 C 33.84 114.79 41.43 102.47 53.28 98.27 C 58.01 96.41 63.12 98.36 67.95 97.17 C 73.71 96.11 79.47 94.83 84.99 92.83 C 90.76 90.75 94.62 85.64 100.03 82.98 C 107.68 79.67 116.19 81.93 124.10 79.92 C 133.35 78.32 141.30 72.11 150.77 71.58 C 159.45 72.55 163.53 82.31 171.92 84.12 C 175.11 85.09 179.27 84.11 181.49 87.16 C 181.99 96.14 178.94 105.36 181.68 114.16 C 184.54 116.75 187.97 118.63 190.92 121.12 C 199.98 128.25 207.89 137.41 211.55 148.52 C 214.35 156.26 214.67 164.57 214.74 172.73 C 220.44 173.27 226.21 172.46 231.88 173.43 C 233.25 169.24 234.79 165.04 237.33 161.40 C 241.79 154.56 248.39 149.59 254.71 144.59 C 257.45 139.32 259.27 133.04 264.41 129.48 C 270.80 125.50 279.54 126.16 285.63 130.44 C 293.08 135.64 296.60 145.28 295.76 154.12 C 294.60 149.07 292.45 144.31 291.66 139.17 C 289.50 137.35 286.92 136.09 284.82 134.19 C 278.80 133.15 272.06 133.19 266.82 136.75 C 261.84 140.34 258.86 146.00 256.74 151.62 C 262.37 148.33 264.61 141.57 269.97 137.99 C 273.97 135.30 279.15 135.49 283.64 136.52 C 289.55 139.50 290.94 146.53 292.76 152.28 C 293.51 155.64 295.48 158.60 296.41 161.85 C 295.39 171.85 296.48 181.89 296.19 191.91 C 296.33 197.12 293.50 201.68 291.00 206.02 C 287.87 211.30 284.46 216.67 279.38 220.29 C 273.87 224.61 266.65 225.72 259.83 225.19 C 261.40 235.43 259.92 245.74 259.52 256.00 C 259.66 258.40 259.05 261.06 260.46 263.21 C 261.44 262.36 262.05 261.30 262.29 260.05 C 262.31 258.74 262.30 257.44 262.27 256.13 L 262.87 256.13 C 262.78 259.44 262.43 262.72 262.10 266.01 C 262.21 277.80 264.93 289.70 262.62 301.43 C 259.50 311.86 250.19 318.48 243.29 326.32 C 238.86 331.42 235.19 337.70 234.83 344.60 C 238.86 340.92 240.45 335.56 243.16 330.99 C 245.69 326.71 250.17 324.11 252.97 320.05 C 254.81 317.52 256.04 314.54 258.22 312.26 C 260.20 310.55 263.01 309.46 263.70 306.67 C 266.23 299.40 265.49 291.49 265.01 283.95 C 264.84 274.94 265.16 265.92 264.93 256.91 C 264.83 253.52 263.75 250.23 262.14 247.26 C 263.86 241.19 262.55 234.80 262.97 228.59 C 267.76 228.60 271.86 225.78 276.57 225.37 C 273.89 236.07 271.89 246.97 271.00 257.97 C 269.43 270.93 270.06 284.02 270.13 297.05 C 271.19 309.06 272.14 321.35 276.08 332.80 C 278.53 333.55 277.63 330.18 278.40 328.98 C 283.05 341.44 287.44 354.05 290.55 367.00 C 291.49 370.54 290.50 374.45 292.26 377.80 C 294.60 382.46 298.56 386.48 298.94 391.95 C 299.57 402.83 293.84 412.88 293.83 423.72 C 296.36 421.08 297.82 417.65 298.74 414.17 C 301.07 404.69 301.71 394.73 299.86 385.11 C 300.38 384.87 301.41 384.40 301.93 384.16 C 291.56 365.32 287.50 343.94 279.74 324.07 C 276.79 322.89 278.15 326.99 277.61 328.53 C 276.92 327.17 276.37 325.72 276.08 324.22 C 273.24 309.50 272.08 294.48 271.99 279.51 C 276.15 276.58 277.65 271.44 279.88 267.11 C 278.58 255.13 282.37 243.57 284.45 231.93 C 285.32 227.75 284.77 223.47 285.12 219.26 C 287.90 214.19 292.42 210.34 295.20 205.27 C 298.72 199.49 298.84 192.51 298.93 185.96 C 298.91 177.64 298.95 169.32 299.00 161.00 C 299.02 149.55 296.92 137.51 289.95 128.13 C 292.62 117.51 286.11 107.52 285.96 97.00 C 285.84 94.92 286.22 92.71 285.27 90.78 C 282.10 83.82 281.20 75.43 275.09 70.17 C 275.60 63.89 271.74 58.58 267.78 54.16 C 263.95 49.94 260.79 44.95 259.81 39.25 C 251.85 34.68 247.55 25.78 239.32 21.62 C 235.52 19.52 231.11 19.27 226.89 18.87 C 224.97 17.88 223.31 16.40 221.24 15.68 C 219.09 14.81 216.70 15.24 214.47 14.80 C 212.41 13.08 210.57 11.13 208.73 9.19 C 196.16 7.12 183.64 4.20 170.86 3.87 C 162.98 3.06 155.09 4.21 147.28 5.14 C 146.25 4.07 145.30 2.87 144.03 2.07 C 142.61 1.88 141.28 2.47 139.93 2.77 M 94.49 119.58 C 89.13 120.80 83.02 121.80 79.39 126.39 C 87.61 125.94 95.00 121.55 103.28 121.37 C 101.34 118.35 97.51 118.82 94.49 119.58 M 75.49 131.54 C 71.41 133.46 66.85 133.18 62.47 133.40 C 64.74 137.18 69.57 135.88 73.14 135.31 C 77.38 134.86 80.62 131.86 84.45 130.34 C 87.66 129.41 91.46 129.28 93.49 126.21 C 86.99 125.72 81.23 129.07 75.49 131.54 M 37.58 140.27 C 37.55 142.45 37.56 144.62 37.67 146.79 C 41.00 145.62 41.67 142.04 43.26 139.35 C 49.45 133.76 59.32 133.54 64.19 126.21 C 54.31 128.69 45.85 134.59 37.58 140.27 M 90.00 135.91 C 84.71 138.66 81.28 144.00 79.70 149.62 C 86.96 152.43 94.70 148.62 101.98 151.03 C 107.86 152.62 112.53 157.02 118.49 158.42 C 127.14 160.35 135.89 157.02 144.56 158.26 C 149.71 158.84 153.19 164.27 158.60 163.67 C 161.91 160.43 164.00 154.24 160.67 150.37 C 155.50 145.94 148.98 143.32 142.44 141.68 C 135.68 139.88 128.68 142.35 121.90 141.00 C 116.92 139.64 113.75 134.97 109.00 133.19 C 102.59 132.67 95.77 132.73 90.00 135.91 M 71.21 145.85 C 70.49 152.71 70.60 161.50 77.12 165.66 C 75.87 159.50 72.24 153.56 73.21 147.13 C 73.53 144.51 77.59 142.28 74.89 139.85 C 72.39 140.58 71.88 143.68 71.21 145.85 M 62.71 150.86 C 63.87 156.25 65.27 162.31 70.09 165.66 C 69.16 160.16 67.72 154.10 62.71 150.86 M 162.58 153.15 C 164.62 157.66 170.11 158.30 174.34 159.41 C 172.36 154.75 167.01 153.81 162.58 153.15 M 261.68 160.07 C 261.07 165.77 258.78 171.07 257.79 176.68 C 263.58 175.09 262.13 168.07 263.70 163.63 C 266.86 165.71 270.34 167.35 274.19 167.53 C 271.43 163.15 266.26 161.66 261.68 160.07 M 147.89 172.88 C 146.62 173.28 145.41 174.33 144.00 173.97 C 135.18 171.84 126.14 168.29 116.95 170.08 C 112.09 170.95 108.86 175.62 108.81 180.42 C 112.72 177.31 115.86 172.60 121.07 171.65 C 123.47 171.02 125.85 171.94 128.05 172.81 C 125.03 173.14 121.85 172.81 119.02 174.14 C 114.41 175.80 112.03 180.79 111.79 185.43 C 118.63 182.52 125.57 179.41 133.07 178.74 C 136.57 178.23 140.12 178.61 143.63 178.35 C 146.51 177.06 149.08 175.14 151.99 173.88 C 158.47 170.81 165.65 167.74 169.23 161.10 C 161.94 164.70 155.40 169.70 147.89 172.88 M 287.94 161.92 C 290.72 172.06 290.77 183.59 284.75 192.64 C 290.17 191.34 291.71 185.24 292.31 180.45 C 293.11 174.14 292.64 166.72 287.94 161.92 M 283.98 163.37 C 285.02 167.79 286.12 172.34 285.29 176.90 C 284.62 182.93 281.72 188.38 278.73 193.56 C 284.40 191.66 286.57 185.43 287.72 180.12 C 288.36 174.43 288.66 167.56 283.98 163.37 M 167.65 169.32 C 163.13 174.39 154.85 172.11 150.49 177.42 C 159.03 178.48 165.77 171.80 174.08 171.65 C 175.24 171.78 175.94 171.29 176.18 170.17 C 173.95 167.96 170.44 169.53 167.65 169.32 M 71.68 175.15 C 73.83 180.09 76.54 184.81 78.12 189.99 C 79.83 194.83 79.33 200.06 78.95 205.08 C 77.60 205.06 76.24 205.05 74.89 205.04 C 70.99 209.81 66.98 214.50 63.36 219.49 C 55.70 229.86 50.30 242.65 51.10 255.73 C 53.82 253.60 53.69 250.00 54.18 246.93 C 56.25 236.91 61.46 227.99 66.18 219.05 C 66.74 217.75 67.95 216.96 68.99 216.07 C 72.07 213.60 73.85 209.71 77.61 208.06 C 74.28 219.49 72.84 232.74 63.63 241.26 C 63.76 244.76 62.95 248.49 64.06 251.84 C 68.11 256.34 75.25 256.12 80.28 253.45 C 79.75 249.44 75.15 248.73 71.84 249.11 C 69.97 250.46 72.72 251.97 73.16 253.34 C 66.35 254.12 63.52 244.45 68.52 240.50 C 68.77 243.62 69.33 247.47 73.28 247.68 C 72.66 243.91 69.42 240.26 71.49 236.37 C 75.60 226.96 78.93 217.14 80.52 206.96 C 81.85 196.12 81.70 184.11 74.85 174.99 C 74.06 175.03 72.47 175.11 71.68 175.15 M 95.62 188.98 C 93.67 184.33 95.75 178.87 92.89 174.59 C 91.27 179.20 89.98 186.58 95.62 188.98 M 155.04 179.05 C 152.44 178.99 148.71 179.11 148.50 182.56 C 156.20 182.16 163.51 179.31 171.26 179.22 C 170.11 178.03 168.91 176.62 167.05 176.98 C 162.85 176.49 159.22 179.36 155.04 179.05 M 254.63 177.92 C 255.07 181.68 257.89 184.32 259.66 187.45 C 262.92 193.55 258.08 200.17 259.59 206.59 C 266.12 204.93 271.10 200.00 275.14 194.86 C 272.98 195.14 270.60 195.28 268.89 196.82 C 266.62 198.81 264.84 201.43 261.93 202.59 C 263.14 196.24 263.85 189.24 260.80 183.28 C 259.61 180.66 257.11 179.13 254.63 177.92 M 122.98 193.26 C 119.13 193.49 115.94 191.17 112.73 189.41 C 115.62 196.28 124.14 197.11 130.47 195.33 C 136.95 193.49 143.87 190.34 147.21 184.14 C 139.42 187.77 132.01 193.61 122.98 193.26 M 127.49 221.11 C 128.42 222.69 129.97 224.10 131.94 223.89 C 137.60 223.54 142.25 227.26 146.55 230.42 C 154.57 237.08 161.95 244.81 167.04 253.97 C 170.05 261.25 170.98 269.26 171.15 277.07 C 171.21 279.50 172.25 281.82 173.87 283.61 C 174.13 279.06 174.16 274.49 173.82 269.95 C 171.70 253.85 162.62 239.10 150.02 229.03 C 143.71 223.99 135.66 220.64 127.49 221.11 M 110.58 228.31 C 113.90 227.25 117.46 225.66 120.96 226.90 C 126.40 227.79 128.23 236.77 122.98 239.15 C 120.64 240.32 117.81 241.59 117.71 244.66 C 122.06 244.47 124.97 241.19 127.92 238.46 C 127.94 233.98 128.71 229.09 126.05 225.16 C 122.10 224.29 118.03 223.57 113.99 224.24 C 112.03 224.69 110.91 226.41 110.58 228.31 M 187.77 236.79 C 188.61 246.68 192.71 256.03 193.04 265.99 C 193.44 273.78 189.33 280.73 187.13 287.98 C 182.36 303.13 178.14 318.47 172.81 333.44 C 179.69 326.84 181.35 316.96 183.71 308.15 C 186.41 296.68 191.79 286.05 194.45 274.58 C 196.78 262.30 192.62 250.23 190.84 238.18 C 189.82 237.71 188.79 237.25 187.77 236.79 M 92.67 246.81 C 90.61 249.30 93.62 251.35 95.54 252.56 C 95.36 250.36 95.44 247.93 97.36 246.48 C 103.09 242.52 110.82 241.92 117.25 244.46 C 117.55 241.51 114.27 241.30 112.41 240.07 C 105.42 239.75 97.60 241.57 92.67 246.81 M 173.71 250.09 C 178.05 264.31 178.59 279.33 177.89 294.08 C 176.83 302.39 175.95 311.18 171.37 318.43 C 168.15 323.72 161.48 326.89 160.73 333.55 C 165.10 331.20 168.73 327.60 171.28 323.36 C 178.77 311.00 180.08 296.12 180.47 281.99 C 180.11 271.27 179.52 260.47 176.84 250.03 C 176.05 250.05 174.49 250.08 173.71 250.09 M 57.98 254.14 C 56.20 256.39 54.67 258.87 53.48 261.48 C 51.21 268.01 52.33 275.42 55.65 281.39 C 58.99 287.18 64.40 291.29 69.17 295.83 C 79.24 305.89 84.91 319.30 89.49 332.53 C 90.32 334.98 91.87 337.16 93.98 338.69 C 90.99 325.58 86.68 312.35 78.27 301.65 C 72.38 293.61 63.36 288.41 57.97 279.96 C 55.00 275.33 54.21 269.54 55.27 264.20 C 56.80 260.56 59.79 257.76 61.28 254.08 C 60.46 254.09 58.81 254.13 57.98 254.14 M 94.74 265.76 C 88.15 266.86 81.93 269.66 76.33 273.25 C 72.78 275.62 68.82 279.10 69.64 283.86 C 69.72 287.73 73.10 290.07 76.34 291.35 C 75.49 295.63 78.90 298.65 81.70 301.25 C 86.44 305.39 87.21 312.57 92.50 316.22 C 98.00 319.59 104.73 319.94 111.01 319.75 C 122.55 318.95 134.00 316.31 144.63 311.71 C 149.40 309.51 154.44 307.02 157.38 302.46 C 162.00 295.85 165.44 288.35 167.31 280.50 C 168.36 276.26 168.48 271.13 165.18 267.82 C 161.21 264.16 155.94 262.37 150.87 260.81 C 143.44 258.41 135.56 258.94 127.87 259.12 C 116.61 260.18 105.83 263.79 94.74 265.76 M 289.52 350.05 C 299.21 367.00 314.18 380.73 331.67 389.33 C 337.74 391.87 336.49 400.51 342.11 403.68 C 341.44 398.09 339.09 392.78 335.79 388.26 C 326.75 381.01 314.25 378.77 306.61 369.65 C 301.45 362.74 298.73 352.76 289.52 350.05 Z" />
<path fill="#000000" opacity="1.00" d=" M 139.93 2.77 C 141.28 2.47 142.61 1.88 144.03 2.07 C 145.30 2.87 146.25 4.07 147.28 5.14 C 155.09 4.21 162.98 3.06 170.86 3.87 C 183.64 4.20 196.16 7.12 208.73 9.19 C 210.57 11.13 212.41 13.08 214.47 14.80 C 216.70 15.24 219.09 14.81 221.24 15.68 C 223.31 16.40 224.97 17.88 226.89 18.87 C 231.11 19.27 235.52 19.52 239.32 21.62 C 247.55 25.78 251.85 34.68 259.81 39.25 C 260.79 44.95 263.95 49.94 267.78 54.16 C 271.74 58.58 275.60 63.89 275.09 70.17 C 281.20 75.43 282.10 83.82 285.27 90.78 C 286.22 92.71 285.84 94.92 285.96 97.00 C 286.11 107.52 292.62 117.51 289.95 128.13 C 296.92 137.51 299.02 149.55 299.00 161.00 C 298.95 169.32 298.91 177.64 298.93 185.96 C 298.84 192.51 298.72 199.49 295.20 205.27 C 292.42 210.34 287.90 214.19 285.12 219.26 C 284.77 223.47 285.32 227.75 284.45 231.93 C 282.37 243.57 278.58 255.13 279.88 267.11 C 277.65 271.44 276.15 276.58 271.99 279.51 C 272.08 294.48 273.24 309.50 276.08 324.22 C 276.37 325.72 276.92 327.17 277.61 328.53 C 278.15 326.99 276.79 322.89 279.74 324.07 C 287.50 343.94 291.56 365.32 301.93 384.16 C 301.41 384.40 300.38 384.87 299.86 385.11 C 301.71 394.73 301.07 404.69 298.74 414.17 C 297.82 417.65 296.36 421.08 293.83 423.72 C 293.84 412.88 299.57 402.83 298.94 391.95 C 298.56 386.48 294.60 382.46 292.26 377.80 C 290.50 374.45 291.49 370.54 290.55 367.00 C 287.44 354.05 283.05 341.44 278.40 328.98 C 277.63 330.18 278.53 333.55 276.08 332.80 C 272.14 321.35 271.19 309.06 270.13 297.05 C 270.06 284.02 269.43 270.93 271.00 257.97 C 271.89 246.97 273.89 236.07 276.57 225.37 C 271.86 225.78 267.76 228.60 262.97 228.59 C 262.55 234.80 263.86 241.19 262.14 247.26 C 263.75 250.23 264.83 253.52 264.93 256.91 C 265.16 265.92 264.84 274.94 265.01 283.95 C 265.49 291.49 266.23 299.40 263.70 306.67 C 263.01 309.46 260.20 310.55 258.22 312.26 C 256.04 314.54 254.81 317.52 252.97 320.05 C 250.17 324.11 245.69 326.71 243.16 330.99 C 240.45 335.56 238.86 340.92 234.83 344.60 C 235.19 337.70 238.86 331.42 243.29 326.32 C 250.19 318.48 259.50 311.86 262.62 301.43 C 264.93 289.70 262.21 277.80 262.10 266.01 C 262.43 262.72 262.78 259.44 262.87 256.13 L 262.27 256.13 C 262.30 257.44 262.31 258.74 262.29 260.05 C 262.05 261.30 261.44 262.36 260.46 263.21 C 259.05 261.06 259.66 258.40 259.52 256.00 C 259.92 245.74 261.40 235.43 259.83 225.19 C 266.65 225.72 273.87 224.61 279.38 220.29 C 284.46 216.67 287.87 211.30 291.00 206.02 C 293.50 201.68 296.33 197.12 296.19 191.91 C 296.48 181.89 295.39 171.85 296.41 161.85 C 295.48 158.60 293.51 155.64 292.76 152.28 C 290.94 146.53 289.55 139.50 283.64 136.52 C 279.15 135.49 273.97 135.30 269.97 137.99 C 264.61 141.57 262.37 148.33 256.74 151.62 C 258.86 146.00 261.84 140.34 266.82 136.75 C 272.06 133.19 278.80 133.15 284.82 134.19 C 286.92 136.09 289.50 137.35 291.66 139.17 C 292.45 144.31 294.60 149.07 295.76 154.12 C 296.60 145.28 293.08 135.64 285.63 130.44 C 279.54 126.16 270.80 125.50 264.41 129.48 C 259.27 133.04 257.45 139.32 254.71 144.59 C 248.39 149.59 241.79 154.56 237.33 161.40 C 234.79 165.04 233.25 169.24 231.88 173.43 C 226.21 172.46 220.44 173.27 214.74 172.73 C 214.67 164.57 214.35 156.26 211.55 148.52 C 207.89 137.41 199.98 128.25 190.92 121.12 C 187.97 118.63 184.54 116.75 181.68 114.16 C 178.94 105.36 181.99 96.14 181.49 87.16 C 179.27 84.11 175.11 85.09 171.92 84.12 C 163.53 82.31 159.45 72.55 150.77 71.58 C 141.30 72.11 133.35 78.32 124.10 79.92 C 116.19 81.93 107.68 79.67 100.03 82.98 C 94.62 85.64 90.76 90.75 84.99 92.83 C 79.47 94.83 73.71 96.11 67.95 97.17 C 63.12 98.36 58.01 96.41 53.28 98.27 C 41.43 102.47 33.84 114.79 32.97 126.99 C 33.29 131.37 30.77 135.22 30.36 139.51 C 29.45 146.73 29.24 154.35 31.95 161.24 C 38.19 157.52 43.00 152.02 48.41 147.28 C 53.08 143.20 59.01 140.73 65.18 140.08 C 63.52 145.15 61.26 150.09 61.76 155.57 C 55.82 160.42 50.92 166.35 46.16 172.33 C 54.95 174.99 64.31 177.42 71.40 183.57 C 75.86 187.28 78.11 193.59 76.34 199.21 C 75.40 201.74 75.16 205.32 72.23 206.36 C 63.39 210.75 52.87 216.13 43.03 211.63 C 42.98 212.56 42.93 213.49 42.87 214.42 C 41.58 215.46 38.79 215.66 39.14 217.83 C 41.98 218.06 44.40 215.81 47.30 215.92 C 45.96 220.05 41.24 220.73 38.12 223.04 C 37.04 230.91 33.20 238.08 32.03 245.92 C 31.22 253.37 35.04 260.23 38.44 266.57 C 43.10 275.08 47.83 283.59 53.45 291.52 C 64.03 306.39 79.39 317.60 87.80 334.05 C 88.61 341.42 86.57 349.23 89.91 356.22 C 94.34 367.01 105.86 371.93 115.93 376.05 C 129.63 374.01 144.04 370.98 155.10 362.12 C 160.17 357.94 163.39 351.88 168.92 348.19 C 165.07 358.45 156.20 366.07 146.39 370.47 C 138.67 373.96 130.38 376.14 121.99 377.31 C 125.79 382.95 132.86 385.82 135.22 392.53 C 128.41 389.41 123.73 383.33 118.02 378.70 C 112.85 379.96 109.95 374.49 105.14 373.98 C 110.47 385.13 115.03 396.74 121.87 407.07 C 122.66 408.61 124.61 409.82 124.54 411.66 C 122.28 410.27 119.85 408.99 118.15 406.91 C 111.22 398.81 111.07 386.73 102.94 379.44 C 98.78 385.16 94.50 390.84 91.14 397.08 C 88.48 402.14 86.79 408.15 81.77 411.48 C 85.07 403.23 87.13 394.08 93.42 387.45 C 97.06 383.51 100.92 378.76 99.96 372.99 C 100.72 373.20 102.23 373.61 102.98 373.82 C 100.43 369.28 93.81 370.22 91.47 365.55 C 86.20 356.68 85.31 345.97 84.97 335.88 C 76.15 320.26 63.22 307.63 52.26 293.58 C 45.74 285.20 40.31 276.05 35.30 266.71 C 31.75 260.11 29.27 252.71 29.63 245.14 C 30.32 236.72 35.91 229.54 36.25 221.06 C 36.30 217.26 36.52 213.03 33.95 209.91 C 31.64 207.17 28.56 205.25 26.04 202.72 C 27.09 196.30 22.23 191.49 20.16 185.93 C 18.26 178.10 24.55 172.25 28.20 166.16 C 30.86 162.94 27.47 159.25 27.53 155.68 C 26.53 156.51 25.53 157.35 24.53 158.19 C 21.00 155.38 25.82 147.80 19.77 147.78 C 20.38 145.06 21.24 142.40 22.14 139.77 C 21.13 138.86 20.08 138.01 19.04 137.15 C 19.39 133.62 22.01 130.82 23.89 127.96 C 23.02 128.15 21.30 128.52 20.43 128.71 C 20.63 125.81 22.15 123.38 23.72 121.04 C 21.99 121.74 20.62 124.04 18.66 123.46 C 17.97 121.22 20.03 119.55 20.93 117.71 C 19.22 118.28 17.66 120.71 15.79 119.56 C 15.06 117.04 16.62 114.59 17.14 112.17 C 14.53 111.61 12.03 110.67 9.44 110.08 C 9.30 105.59 12.23 99.59 7.93 96.33 C 8.70 90.14 9.76 83.97 9.68 77.70 C 11.56 78.16 12.40 79.92 13.45 81.35 C 14.32 79.14 13.71 76.82 13.42 74.56 C 15.51 74.05 17.56 73.41 19.61 72.77 C 19.58 71.33 19.55 69.90 19.52 68.46 C 23.52 68.31 25.80 63.78 30.07 64.99 C 29.16 63.86 27.87 62.76 28.63 61.16 C 31.28 60.98 33.93 61.07 36.59 61.03 C 35.19 58.78 33.55 56.59 33.37 53.85 C 35.69 53.98 38.00 54.34 40.20 55.08 C 42.10 52.85 39.82 51.02 38.24 49.53 C 38.07 48.91 37.74 47.68 37.58 47.06 C 39.91 47.06 42.24 47.06 44.57 47.05 C 43.07 45.58 41.62 44.00 41.30 41.83 C 44.07 42.14 46.76 42.92 49.52 43.33 C 48.63 41.86 47.73 40.39 46.86 38.91 C 49.15 36.77 52.27 37.02 55.16 37.00 C 54.47 35.07 53.78 33.13 53.23 31.15 C 55.83 31.35 58.93 33.46 61.13 31.16 C 63.94 28.56 66.85 25.87 70.70 24.97 C 78.37 13.18 95.07 15.89 104.49 6.47 C 106.85 6.80 108.93 5.70 110.92 4.62 C 120.37 1.51 130.48 5.83 139.93 2.77 M 25.81 137.00 C 23.01 141.69 25.34 146.89 27.68 151.19 C 27.65 147.44 28.20 143.70 27.93 139.96 C 27.91 138.62 26.56 137.94 25.81 137.00 M 35.67 184.64 C 32.97 189.02 29.58 193.51 29.50 198.87 C 29.52 202.29 32.26 204.55 34.72 206.45 C 36.84 202.45 39.36 198.58 43.02 195.82 C 51.39 189.20 62.44 187.74 72.78 187.32 C 65.43 180.93 55.77 177.15 46.11 176.55 C 42.19 178.69 40.00 183.10 35.67 184.64 M 60.48 195.61 C 53.02 197.21 47.37 202.74 41.80 207.58 C 46.01 210.12 51.03 211.31 55.91 210.40 C 63.69 209.22 71.92 204.40 73.86 196.26 C 69.50 195.15 64.92 194.56 60.48 195.61 M 38.25 213.29 C 39.80 212.64 41.34 211.97 42.87 211.27 C 38.66 210.67 39.66 206.43 39.38 203.43 C 36.43 206.03 36.74 210.02 38.25 213.29 Z" />
<path fill="#000000" opacity="1.00" d=" M 94.49 119.58 C 97.51 118.82 101.34 118.35 103.28 121.37 C 95.00 121.55 87.61 125.94 79.39 126.39 C 83.02 121.80 89.13 120.80 94.49 119.58 Z" />
<path fill="#000000" opacity="1.00" d=" M 75.49 131.54 C 81.23 129.07 86.99 125.72 93.49 126.21 C 91.46 129.28 87.66 129.41 84.45 130.34 C 80.62 131.86 77.38 134.86 73.14 135.31 C 69.57 135.88 64.74 137.18 62.47 133.40 C 66.85 133.18 71.41 133.46 75.49 131.54 Z" />
<path fill="#000000" opacity="1.00" d=" M 37.58 140.27 C 45.85 134.59 54.31 128.69 64.19 126.21 C 59.32 133.54 49.45 133.76 43.26 139.35 C 41.67 142.04 41.00 145.62 37.67 146.79 C 37.56 144.62 37.55 142.45 37.58 140.27 Z" />
<path fill="#000000" opacity="1.00" d=" M 90.00 135.91 C 95.77 132.73 102.59 132.67 109.00 133.19 C 113.75 134.97 116.92 139.64 121.90 141.00 C 128.68 142.35 135.68 139.88 142.44 141.68 C 148.98 143.32 155.50 145.94 160.67 150.37 C 164.00 154.24 161.91 160.43 158.60 163.67 C 153.19 164.27 149.71 158.84 144.56 158.26 C 135.89 157.02 127.14 160.35 118.49 158.42 C 112.53 157.02 107.86 152.62 101.98 151.03 C 94.70 148.62 86.96 152.43 79.70 149.62 C 81.28 144.00 84.71 138.66 90.00 135.91 Z" />
<path fill="#ffffff" opacity="1.00" d=" M 25.81 137.00 C 26.56 137.94 27.91 138.62 27.93 139.96 C 28.20 143.70 27.65 147.44 27.68 151.19 C 25.34 146.89 23.01 141.69 25.81 137.00 Z" />
<path fill="#000000" opacity="1.00" d=" M 71.21 145.85 C 71.88 143.68 72.39 140.58 74.89 139.85 C 77.59 142.28 73.53 144.51 73.21 147.13 C 72.24 153.56 75.87 159.50 77.12 165.66 C 70.60 161.50 70.49 152.71 71.21 145.85 Z" />
<path fill="#000000" opacity="1.00" d=" M 62.71 150.86 C 67.72 154.10 69.16 160.16 70.09 165.66 C 65.27 162.31 63.87 156.25 62.71 150.86 Z" />
<path fill="#000000" opacity="1.00" d=" M 162.58 153.15 C 167.01 153.81 172.36 154.75 174.34 159.41 C 170.11 158.30 164.62 157.66 162.58 153.15 Z" />
<path fill="#000000" opacity="1.00" d=" M 261.68 160.07 C 266.26 161.66 271.43 163.15 274.19 167.53 C 270.34 167.35 266.86 165.71 263.70 163.63 C 262.13 168.07 263.58 175.09 257.79 176.68 C 258.78 171.07 261.07 165.77 261.68 160.07 Z" />
<path fill="#000000" opacity="1.00" d=" M 147.89 172.88 C 155.40 169.70 161.94 164.70 169.23 161.10 C 165.65 167.74 158.47 170.81 151.99 173.88 C 149.08 175.14 146.51 177.06 143.63 178.35 C 140.12 178.61 136.57 178.23 133.07 178.74 C 125.57 179.41 118.63 182.52 111.79 185.43 C 112.03 180.79 114.41 175.80 119.02 174.14 C 121.85 172.81 125.03 173.14 128.05 172.81 C 125.85 171.94 123.47 171.02 121.07 171.65 C 115.86 172.60 112.72 177.31 108.81 180.42 C 108.86 175.62 112.09 170.95 116.95 170.08 C 126.14 168.29 135.18 171.84 144.00 173.97 C 145.41 174.33 146.62 173.28 147.89 172.88 Z" />
<path fill="#000000" opacity="1.00" d=" M 287.94 161.92 C 292.64 166.72 293.11 174.14 292.31 180.45 C 291.71 185.24 290.17 191.34 284.75 192.64 C 290.77 183.59 290.72 172.06 287.94 161.92 Z" />
<path fill="#000000" opacity="1.00" d=" M 283.98 163.37 C 288.66 167.56 288.36 174.43 287.72 180.12 C 286.57 185.43 284.40 191.66 278.73 193.56 C 281.72 188.38 284.62 182.93 285.29 176.90 C 286.12 172.34 285.02 167.79 283.98 163.37 Z" />
<path fill="#000000" opacity="1.00" d=" M 167.65 169.32 C 170.44 169.53 173.95 167.96 176.18 170.17 C 175.94 171.29 175.24 171.78 174.08 171.65 C 165.77 171.80 159.03 178.48 150.49 177.42 C 154.85 172.11 163.13 174.39 167.65 169.32 Z" />
<path fill="#000000" opacity="1.00" d=" M 71.68 175.15 C 72.47 175.11 74.06 175.03 74.85 174.99 C 81.70 184.11 81.85 196.12 80.52 206.96 C 78.93 217.14 75.60 226.96 71.49 236.37 C 69.42 240.26 72.66 243.91 73.28 247.68 C 69.33 247.47 68.77 243.62 68.52 240.50 C 63.52 244.45 66.35 254.12 73.16 253.34 C 72.72 251.97 69.97 250.46 71.84 249.11 C 75.15 248.73 79.75 249.44 80.28 253.45 C 75.25 256.12 68.11 256.34 64.06 251.84 C 62.95 248.49 63.76 244.76 63.63 241.26 C 72.84 232.74 74.28 219.49 77.61 208.06 C 73.85 209.71 72.07 213.60 68.99 216.07 C 67.95 216.96 66.74 217.75 66.18 219.05 C 61.46 227.99 56.25 236.91 54.18 246.93 C 53.69 250.00 53.82 253.60 51.10 255.73 C 50.30 242.65 55.70 229.86 63.36 219.49 C 66.98 214.50 70.99 209.81 74.89 205.04 C 76.24 205.05 77.60 205.06 78.95 205.08 C 79.33 200.06 79.83 194.83 78.12 189.99 C 76.54 184.81 73.83 180.09 71.68 175.15 Z" />
<path fill="#000000" opacity="1.00" d=" M 95.62 188.98 C 89.98 186.58 91.27 179.20 92.89 174.59 C 95.75 178.87 93.67 184.33 95.62 188.98 Z" />
<path fill="#ffffff" opacity="1.00" d=" M 35.67 184.64 C 40.00 183.10 42.19 178.69 46.11 176.55 C 55.77 177.15 65.43 180.93 72.78 187.32 C 62.44 187.74 51.39 189.20 43.02 195.82 C 39.36 198.58 36.84 202.45 34.72 206.45 C 32.26 204.55 29.52 202.29 29.50 198.87 C 29.58 193.51 32.97 189.02 35.67 184.64 Z" />
<path fill="#000000" opacity="1.00" d=" M 155.04 179.05 C 159.22 179.36 162.85 176.49 167.05 176.98 C 168.91 176.62 170.11 178.03 171.26 179.22 C 163.51 179.31 156.20 182.16 148.50 182.56 C 148.71 179.11 152.44 178.99 155.04 179.05 Z" />
<path fill="#000000" opacity="1.00" d=" M 254.63 177.92 C 257.11 179.13 259.61 180.66 260.80 183.28 C 263.85 189.24 263.14 196.24 261.93 202.59 C 264.84 201.43 266.62 198.81 268.89 196.82 C 270.60 195.28 272.98 195.14 275.14 194.86 C 271.10 200.00 266.12 204.93 259.59 206.59 C 258.08 200.17 262.92 193.55 259.66 187.45 C 257.89 184.32 255.07 181.68 254.63 177.92 Z" />
<path fill="#000000" opacity="1.00" d=" M 122.98 193.26 C 132.01 193.61 139.42 187.77 147.21 184.14 C 143.87 190.34 136.95 193.49 130.47 195.33 C 124.14 197.11 115.62 196.28 112.73 189.41 C 115.94 191.17 119.13 193.49 122.98 193.26 Z" />
<path fill="#ffffff" opacity="1.00" d=" M 60.48 195.61 C 64.92 194.56 69.50 195.15 73.86 196.26 C 71.92 204.40 63.69 209.22 55.91 210.40 C 51.03 211.31 46.01 210.12 41.80 207.58 C 47.37 202.74 53.02 197.21 60.48 195.61 Z" />
<path fill="#ffffff" opacity="1.00" d=" M 38.25 213.29 C 36.74 210.02 36.43 206.03 39.38 203.43 C 39.66 206.43 38.66 210.67 42.87 211.27 C 41.34 211.97 39.80 212.64 38.25 213.29 Z" />
<path fill="#000000" opacity="1.00" d=" M 127.49 221.11 C 135.66 220.64 143.71 223.99 150.02 229.03 C 162.62 239.10 171.70 253.85 173.82 269.95 C 174.16 274.49 174.13 279.06 173.87 283.61 C 172.25 281.82 171.21 279.50 171.15 277.07 C 170.98 269.26 170.05 261.25 167.04 253.97 C 161.95 244.81 154.57 237.08 146.55 230.42 C 142.25 227.26 137.60 223.54 131.94 223.89 C 129.97 224.10 128.42 222.69 127.49 221.11 Z" />
<path fill="#000000" opacity="1.00" d=" M 110.58 228.31 C 110.91 226.41 112.03 224.69 113.99 224.24 C 118.03 223.57 122.10 224.29 126.05 225.16 C 128.71 229.09 127.94 233.98 127.92 238.46 C 124.97 241.19 122.06 244.47 117.71 244.66 C 117.81 241.59 120.64 240.32 122.98 239.15 C 128.23 236.77 126.40 227.79 120.96 226.90 C 117.46 225.66 113.90 227.25 110.58 228.31 Z" />
<path fill="#000000" opacity="1.00" d=" M 187.77 236.79 C 188.79 237.25 189.82 237.71 190.84 238.18 C 192.62 250.23 196.78 262.30 194.45 274.58 C 191.79 286.05 186.41 296.68 183.71 308.15 C 181.35 316.96 179.69 326.84 172.81 333.44 C 178.14 318.47 182.36 303.13 187.13 287.98 C 189.33 280.73 193.44 273.78 193.04 265.99 C 192.71 256.03 188.61 246.68 187.77 236.79 Z" />
<path fill="#000000" opacity="1.00" d=" M 92.67 246.81 C 97.60 241.57 105.42 239.75 112.41 240.07 C 114.27 241.30 117.55 241.51 117.25 244.46 C 110.82 241.92 103.09 242.52 97.36 246.48 C 95.44 247.93 95.36 250.36 95.54 252.56 C 93.62 251.35 90.61 249.30 92.67 246.81 Z" />
<path fill="#000000" opacity="1.00" d=" M 173.71 250.09 C 174.49 250.08 176.05 250.05 176.84 250.03 C 179.52 260.47 180.11 271.27 180.47 281.99 C 180.08 296.12 178.77 311.00 171.28 323.36 C 168.73 327.60 165.10 331.20 160.73 333.55 C 161.48 326.89 168.15 323.72 171.37 318.43 C 175.95 311.18 176.83 302.39 177.89 294.08 C 178.59 279.33 178.05 264.31 173.71 250.09 Z" />
<path fill="#000000" opacity="1.00" d=" M 57.98 254.14 C 58.81 254.13 60.46 254.09 61.28 254.08 C 59.79 257.76 56.80 260.56 55.27 264.20 C 54.21 269.54 55.00 275.33 57.97 279.96 C 63.36 288.41 72.38 293.61 78.27 301.65 C 86.68 312.35 90.99 325.58 93.98 338.69 C 91.87 337.16 90.32 334.98 89.49 332.53 C 84.91 319.30 79.24 305.89 69.17 295.83 C 64.40 291.29 58.99 287.18 55.65 281.39 C 52.33 275.42 51.21 268.01 53.48 261.48 C 54.67 258.87 56.20 256.39 57.98 254.14 Z" />
<path fill="#000000" opacity="1.00" d=" M 94.74 265.76 C 105.83 263.79 116.61 260.18 127.87 259.12 C 135.56 258.94 143.44 258.41 150.87 260.81 C 155.94 262.37 161.21 264.16 165.18 267.82 C 168.48 271.13 168.36 276.26 167.31 280.50 C 165.44 288.35 162.00 295.85 157.38 302.46 C 154.44 307.02 149.40 309.51 144.63 311.71 C 134.00 316.31 122.55 318.95 111.01 319.75 C 104.73 319.94 98.00 319.59 92.50 316.22 C 87.21 312.57 86.44 305.39 81.70 301.25 C 78.90 298.65 75.49 295.63 76.34 291.35 C 73.10 290.07 69.72 287.73 69.64 283.86 C 68.82 279.10 72.78 275.62 76.33 273.25 C 81.93 269.66 88.15 266.86 94.74 265.76 M 112.00 263.99 C 100.04 266.87 87.39 268.89 77.08 276.05 C 75.06 277.65 72.76 279.48 72.24 282.14 C 72.11 284.63 74.40 286.14 76.03 287.61 C 76.30 284.71 74.77 280.96 76.58 278.55 C 83.35 277.61 90.20 276.85 96.77 274.82 C 113.45 269.84 129.78 262.14 147.56 262.45 C 135.79 260.34 123.58 261.16 112.00 263.99 M 124.64 278.96 C 125.14 282.02 128.48 282.83 131.00 283.50 C 134.23 279.33 135.22 272.05 129.92 269.09 C 127.05 271.52 123.99 274.90 124.64 278.96 M 136.20 271.16 C 134.73 272.79 134.83 275.12 134.58 277.16 C 136.50 278.44 138.45 279.69 140.56 280.65 C 142.75 278.33 143.25 275.01 142.95 271.94 C 141.83 269.42 137.87 268.91 136.20 271.16 M 145.36 270.46 C 143.24 272.43 143.02 276.60 145.27 278.51 C 149.54 280.29 151.96 274.45 150.68 271.21 C 149.50 269.44 146.97 268.85 145.36 270.46 M 155.99 277.27 C 158.92 275.25 158.04 270.46 154.97 268.99 C 154.07 271.51 151.24 277.09 155.99 277.27 M 116.74 286.47 C 118.69 286.14 121.17 286.19 122.24 284.17 C 124.80 280.27 123.17 275.04 119.96 272.03 C 115.19 275.21 114.43 281.52 116.74 286.47 M 106.03 278.08 C 104.22 281.70 105.34 286.85 109.01 288.88 C 110.91 289.84 112.96 289.07 114.84 288.51 C 114.57 283.90 114.39 279.06 111.88 275.03 C 109.73 275.51 107.12 275.88 106.03 278.08 M 97.65 278.16 C 96.43 282.52 96.41 287.15 97.68 291.51 C 101.19 292.10 105.21 291.34 107.16 288.05 C 103.85 286.29 103.78 282.43 102.30 279.44 C 101.23 277.94 99.23 278.35 97.65 278.16 M 91.74 280.97 C 90.92 283.81 91.39 286.71 92.15 289.50 C 91.87 289.35 91.32 289.05 91.05 288.90 C 91.06 286.41 89.33 284.61 87.62 283.06 C 86.48 286.94 89.03 290.27 91.39 293.02 C 91.74 291.77 92.16 290.56 92.63 289.35 C 93.25 290.84 94.02 292.26 94.93 293.60 C 96.80 289.28 96.15 283.48 91.74 280.97 M 143.46 299.40 C 130.09 306.23 114.80 308.73 99.89 308.16 C 91.92 305.12 87.51 296.98 79.97 293.16 C 84.80 299.63 87.80 307.55 94.10 312.84 C 99.47 317.68 107.10 317.92 113.92 317.30 C 125.71 316.00 137.76 313.32 148.01 307.12 C 155.47 302.94 159.37 294.59 160.88 286.49 C 155.63 291.48 149.97 296.13 143.46 299.40 M 146.00 292.42 C 145.99 293.00 145.98 294.18 145.97 294.77 C 146.94 295.74 148.89 294.47 148.68 293.22 C 148.00 292.20 147.11 291.93 146.00 292.42 M 140.29 292.36 C 138.00 294.48 134.37 295.76 134.48 299.47 C 137.88 299.07 140.95 297.55 143.72 295.60 C 142.56 294.52 141.44 293.43 140.29 292.36 M 129.06 295.13 C 127.61 297.47 127.74 300.44 129.55 302.55 C 132.06 301.42 134.57 299.68 134.29 296.56 C 132.57 296.03 130.87 295.35 129.06 295.13 M 122.36 297.91 C 121.67 300.00 121.75 302.22 121.68 304.40 C 123.73 303.88 125.79 303.30 127.68 302.33 C 127.19 300.60 126.77 298.86 126.44 297.09 C 125.11 297.39 123.41 296.85 122.36 297.91 M 116.05 300.24 C 115.91 302.14 115.79 304.04 115.72 305.95 C 117.37 305.42 119.09 305.35 120.80 305.20 C 120.30 303.55 119.81 301.91 119.46 300.23 C 118.32 300.23 117.19 300.23 116.05 300.24 M 107.76 305.66 C 108.23 307.45 109.39 306.11 110.29 305.43 C 111.73 305.93 113.20 306.28 114.71 306.50 C 114.73 304.68 114.72 302.86 114.68 301.05 C 111.57 300.40 110.91 302.86 110.66 305.39 C 110.28 304.57 109.54 302.93 109.17 302.11 C 108.57 303.21 107.69 304.39 107.76 305.66 Z" />
<path fill="#ffffff" opacity="1.00" d=" M 112.00 263.99 C 123.58 261.16 135.79 260.34 147.56 262.45 C 129.78 262.14 113.45 269.84 96.77 274.82 C 90.20 276.85 83.35 277.61 76.58 278.55 C 74.77 280.96 76.30 284.71 76.03 287.61 C 74.40 286.14 72.11 284.63 72.24 282.14 C 72.76 279.48 75.06 277.65 77.08 276.05 C 87.39 268.89 100.04 266.87 112.00 263.99 Z" />
<path fill="#ffffff" opacity="1.00" d=" M 124.64 278.96 C 123.99 274.90 127.05 271.52 129.92 269.09 C 135.22 272.05 134.23 279.33 131.00 283.50 C 128.48 282.83 125.14 282.02 124.64 278.96 Z" />
<path fill="#ffffff" opacity="1.00" d=" M 136.20 271.16 C 137.87 268.91 141.83 269.42 142.95 271.94 C 143.25 275.01 142.75 278.33 140.56 280.65 C 138.45 279.69 136.50 278.44 134.58 277.16 C 134.83 275.12 134.73 272.79 136.20 271.16 Z" />
<path fill="#ffffff" opacity="1.00" d=" M 145.36 270.46 C 146.97 268.85 149.50 269.44 150.68 271.21 C 151.96 274.45 149.54 280.29 145.27 278.51 C 143.02 276.60 143.24 272.43 145.36 270.46 Z" />
<path fill="#ffffff" opacity="1.00" d=" M 155.99 277.27 C 151.24 277.09 154.07 271.51 154.97 268.99 C 158.04 270.46 158.92 275.25 155.99 277.27 Z" />
<path fill="#ffffff" opacity="1.00" d=" M 116.74 286.47 C 114.43 281.52 115.19 275.21 119.96 272.03 C 123.17 275.04 124.80 280.27 122.24 284.17 C 121.17 286.19 118.69 286.14 116.74 286.47 Z" />
<path fill="#ffffff" opacity="1.00" d=" M 106.03 278.08 C 107.12 275.88 109.73 275.51 111.88 275.03 C 114.39 279.06 114.57 283.90 114.84 288.51 C 112.96 289.07 110.91 289.84 109.01 288.88 C 105.34 286.85 104.22 281.70 106.03 278.08 Z" />
<path fill="#ffffff" opacity="1.00" d=" M 97.65 278.16 C 99.23 278.35 101.23 277.94 102.30 279.44 C 103.78 282.43 103.85 286.29 107.16 288.05 C 105.21 291.34 101.19 292.10 97.68 291.51 C 96.41 287.15 96.43 282.52 97.65 278.16 Z" />
<path fill="#ffffff" opacity="1.00" d=" M 91.74 280.97 C 96.15 283.48 96.80 289.28 94.93 293.60 C 94.02 292.26 93.25 290.84 92.63 289.35 C 92.16 290.56 91.74 291.77 91.39 293.02 C 89.03 290.27 86.48 286.94 87.62 283.06 C 89.33 284.61 91.06 286.41 91.05 288.90 C 91.32 289.05 91.87 289.35 92.15 289.50 C 91.39 286.71 90.92 283.81 91.74 280.97 Z" />
<path fill="#ffffff" opacity="1.00" d=" M 143.46 299.40 C 149.97 296.13 155.63 291.48 160.88 286.49 C 159.37 294.59 155.47 302.94 148.01 307.12 C 137.76 313.32 125.71 316.00 113.92 317.30 C 107.10 317.92 99.47 317.68 94.10 312.84 C 87.80 307.55 84.80 299.63 79.97 293.16 C 87.51 296.98 91.92 305.12 99.89 308.16 C 114.80 308.73 130.09 306.23 143.46 299.40 Z" />
<path fill="#ffffff" opacity="1.00" d=" M 146.00 292.42 C 147.11 291.93 148.00 292.20 148.68 293.22 C 148.89 294.47 146.94 295.74 145.97 294.77 C 145.98 294.18 145.99 293.00 146.00 292.42 Z" />
<path fill="#ffffff" opacity="1.00" d=" M 140.29 292.36 C 141.44 293.43 142.56 294.52 143.72 295.60 C 140.95 297.55 137.88 299.07 134.48 299.47 C 134.37 295.76 138.00 294.48 140.29 292.36 Z" />
<path fill="#ffffff" opacity="1.00" d=" M 129.06 295.13 C 130.87 295.35 132.57 296.03 134.29 296.56 C 134.57 299.68 132.06 301.42 129.55 302.55 C 127.74 300.44 127.61 297.47 129.06 295.13 Z" />
<path fill="#ffffff" opacity="1.00" d=" M 122.36 297.91 C 123.41 296.85 125.11 297.39 126.44 297.09 C 126.77 298.86 127.19 300.60 127.68 302.33 C 125.79 303.30 123.73 303.88 121.68 304.40 C 121.75 302.22 121.67 300.00 122.36 297.91 Z" />
<path fill="#ffffff" opacity="1.00" d=" M 116.05 300.24 C 117.19 300.23 118.32 300.23 119.46 300.23 C 119.81 301.91 120.30 303.55 120.80 305.20 C 119.09 305.35 117.37 305.42 115.72 305.95 C 115.79 304.04 115.91 302.14 116.05 300.24 Z" />
<path fill="#ffffff" opacity="1.00" d=" M 107.76 305.66 C 107.69 304.39 108.57 303.21 109.17 302.11 C 109.54 302.93 110.28 304.57 110.66 305.39 C 110.91 302.86 111.57 300.40 114.68 301.05 C 114.72 302.86 114.73 304.68 114.71 306.50 C 113.20 306.28 111.73 305.93 110.29 305.43 C 109.39 306.11 108.23 307.45 107.76 305.66 Z" />
<path fill="#000000" opacity="1.00" d=" M 289.52 350.05 C 298.73 352.76 301.45 362.74 306.61 369.65 C 314.25 378.77 326.75 381.01 335.79 388.26 C 339.09 392.78 341.44 398.09 342.11 403.68 C 336.49 400.51 337.74 391.87 331.67 389.33 C 314.18 380.73 299.21 367.00 289.52 350.05 Z" />
</svg>
