<?xml version="1.0" encoding="UTF-8" ?>
<!DOCTYPE svg PUBLIC "-//W3C//DTD SVG 1.1//EN" "http://www.w3.org/Graphics/SVG/1.1/DTD/svg11.dtd">
<svg width="270pt" height="293pt" viewBox="0 0 270 293" version="1.1" xmlns="http://www.w3.org/2000/svg">
<g id="#ffffffff">
<path fill="#ffffff" opacity="1.00" d=" M 0.00 0.00 L 270.00 0.00 L 270.00 293.00 L 0.00 293.00 L 0.00 0.00 M 133.03 36.64 C 129.55 35.80 127.18 32.68 124.00 31.12 C 121.28 29.78 117.77 28.71 114.98 30.44 C 108.72 33.78 107.43 42.11 101.05 45.31 C 96.40 46.90 92.32 43.50 88.44 41.49 C 85.88 39.87 82.75 40.00 79.86 40.25 C 76.57 46.49 78.50 53.97 75.38 60.21 C 71.06 60.65 66.86 62.69 64.08 66.05 C 60.86 70.26 60.27 75.80 60.62 80.93 C 61.33 93.86 67.49 105.53 70.97 117.76 C 66.87 124.60 61.79 131.04 59.34 138.72 C 62.25 139.17 64.13 136.56 66.85 136.19 C 65.89 138.66 64.55 140.97 63.06 143.16 C 53.09 144.71 43.68 149.44 36.46 156.47 C 28.61 163.92 23.16 173.42 18.03 182.83 C 12.83 193.08 7.13 203.07 1.48 213.08 C 4.62 211.02 7.25 208.26 9.12 205.00 C 14.41 197.51 17.28 188.71 22.01 180.91 C 26.04 174.41 29.86 167.72 34.88 161.91 C 41.83 153.37 51.83 146.93 62.97 145.97 C 59.12 160.26 58.53 175.39 61.03 189.96 C 63.21 203.20 64.70 216.69 69.26 229.38 C 74.06 239.44 80.93 248.44 88.43 256.65 C 92.46 261.12 98.17 265.05 104.48 264.24 C 111.62 262.79 116.20 256.65 121.91 252.69 C 127.14 248.65 133.61 246.82 139.20 243.36 C 139.31 242.90 139.55 241.96 139.67 241.49 C 149.87 232.01 157.02 219.65 167.99 210.93 C 169.92 209.42 172.20 208.36 173.93 206.59 C 178.25 204.02 183.63 203.05 187.04 199.10 C 188.93 197.13 189.36 194.32 189.70 191.73 C 194.30 191.15 197.25 187.15 201.44 185.62 C 205.09 184.39 208.13 187.39 211.43 188.40 C 221.33 191.36 231.61 193.47 240.90 198.15 C 246.73 200.91 252.13 205.46 253.73 211.96 C 253.28 214.68 251.71 217.24 252.25 220.09 C 252.26 222.80 254.28 225.25 256.93 225.86 C 255.76 222.98 253.55 220.32 254.20 217.01 C 259.93 216.60 261.17 224.61 266.89 224.65 C 262.90 219.61 259.49 214.14 255.58 209.04 C 249.01 198.62 238.17 190.50 225.77 188.86 C 228.53 186.13 232.23 184.73 235.43 182.62 C 234.06 177.86 233.32 172.83 234.02 167.90 C 235.35 155.87 242.09 145.49 245.59 134.11 C 248.82 123.69 251.52 112.97 251.89 102.02 C 252.51 90.48 250.62 78.04 242.81 69.02 C 246.72 67.96 250.42 66.29 254.25 64.99 C 254.37 64.71 254.59 64.13 254.71 63.84 C 251.61 62.98 248.51 62.14 245.43 61.24 C 246.89 56.94 245.95 52.47 244.34 48.37 C 243.88 48.39 242.96 48.43 242.50 48.46 C 241.99 50.50 241.45 52.56 241.64 54.68 C 240.93 53.53 239.80 52.86 238.49 53.45 C 239.37 57.03 237.06 59.96 235.20 62.69 C 239.58 62.25 240.51 57.17 244.00 55.20 C 244.48 58.85 241.95 62.19 238.63 63.47 C 235.66 64.59 232.75 66.14 229.74 66.95 C 227.41 65.09 230.92 59.47 227.59 58.25 C 226.34 60.18 227.35 62.47 227.37 64.57 C 225.74 63.80 224.12 63.03 222.49 62.29 C 222.38 65.62 223.00 68.88 223.62 72.14 C 222.69 73.20 221.72 75.20 219.95 74.20 C 217.52 73.32 215.09 72.32 212.45 72.34 C 211.94 76.68 215.39 82.06 211.65 85.53 C 208.14 86.26 204.77 83.80 201.24 83.55 C 201.03 86.70 203.13 89.23 204.17 92.03 C 192.20 88.97 180.34 85.51 168.39 82.39 L 168.70 81.52 C 156.29 78.12 144.14 73.56 132.89 67.30 C 131.85 66.73 130.66 66.05 129.46 66.60 C 125.69 68.05 121.96 69.90 117.83 69.96 C 115.07 64.35 113.98 58.15 111.70 52.37 C 108.13 51.37 107.16 56.14 106.64 58.69 C 108.07 58.06 109.42 57.26 110.80 56.54 C 104.95 66.14 93.07 69.47 85.97 77.96 C 78.65 87.27 74.00 98.60 72.16 110.31 C 66.32 97.86 60.06 84.07 63.36 70.03 C 66.82 66.27 71.69 64.40 76.25 62.39 C 80.71 57.05 78.68 49.46 80.73 43.22 C 87.93 43.20 93.66 49.71 100.98 48.43 C 108.91 45.77 109.94 34.88 117.90 32.41 C 123.30 34.02 127.65 37.90 132.97 39.73 C 143.27 33.05 154.59 27.72 166.55 24.80 C 175.24 22.69 184.75 22.92 192.88 26.93 C 207.67 33.68 217.24 48.17 232.19 54.62 C 235.13 55.45 236.13 52.37 236.80 50.22 C 237.13 50.91 237.78 52.28 238.11 52.96 C 238.60 52.20 239.09 51.45 239.58 50.68 C 238.67 48.56 237.73 46.45 236.60 44.43 C 236.11 44.41 235.12 44.37 234.63 44.35 C 234.58 46.57 234.50 48.80 234.08 50.99 C 232.54 50.65 231.00 50.28 229.60 49.55 C 217.55 43.36 208.43 32.83 196.47 26.50 C 189.91 22.98 182.47 20.83 174.98 21.40 C 159.84 22.23 145.74 28.79 133.03 36.64 M 241.83 230.92 C 240.47 232.15 240.44 234.25 241.32 235.77 C 244.34 241.92 249.94 246.10 254.64 250.86 C 250.36 252.43 246.77 249.16 243.04 247.65 C 243.49 249.21 243.47 251.22 245.12 252.10 C 248.75 254.12 253.06 253.21 256.90 252.40 C 256.80 248.74 255.00 245.20 251.81 243.30 C 247.93 240.86 243.75 238.30 242.22 233.69 C 243.55 232.41 245.01 231.03 247.03 231.22 C 249.87 230.96 251.75 233.33 253.76 234.92 C 253.30 233.15 252.73 231.41 252.19 229.67 C 248.74 229.58 244.82 228.71 241.83 230.92 M 204.61 231.72 C 206.84 238.13 209.06 245.35 206.22 251.95 C 198.57 249.44 194.64 241.69 188.62 236.87 C 186.98 242.66 187.91 248.70 187.53 254.62 C 188.00 254.55 188.93 254.41 189.40 254.34 C 190.88 250.75 189.45 246.64 191.35 243.20 C 195.83 247.19 199.48 253.24 206.00 253.90 C 208.30 254.59 208.69 251.73 209.24 250.23 C 210.60 243.87 210.37 236.38 205.53 231.47 C 205.30 231.53 204.84 231.66 204.61 231.72 M 234.44 231.44 C 234.75 238.17 233.57 245.37 229.06 250.63 C 223.04 247.66 224.70 240.14 225.32 234.77 C 218.78 239.47 221.22 252.51 229.56 253.36 C 235.69 248.08 237.36 239.36 237.32 231.63 C 236.36 231.56 235.40 231.50 234.44 231.44 M 147.55 245.90 C 145.17 250.78 143.21 257.36 147.30 261.90 C 151.14 265.86 156.97 264.29 161.84 264.34 C 164.16 266.92 167.31 269.46 170.98 267.91 C 168.56 266.64 166.08 265.36 164.33 263.19 C 164.87 262.13 165.41 261.07 165.94 260.01 C 164.36 260.26 162.78 260.54 161.21 260.81 C 159.50 258.44 158.74 254.81 155.57 253.99 C 155.95 256.85 157.23 259.46 158.11 262.18 C 154.50 262.39 150.43 262.17 147.65 259.55 C 145.25 256.51 146.47 252.41 148.27 249.42 C 151.97 242.95 158.49 239.04 164.22 234.65 C 156.69 233.53 150.70 239.77 147.55 245.90 M 213.56 233.61 C 213.35 240.43 211.76 248.56 217.37 253.78 C 215.74 248.12 216.42 242.17 215.29 236.43 C 215.17 235.25 214.32 234.41 213.56 233.61 M 171.50 238.77 C 166.64 243.53 166.09 252.16 170.47 257.42 C 174.03 260.76 179.33 259.64 183.31 257.74 C 178.79 257.13 173.72 257.06 170.18 253.74 C 174.11 252.71 178.11 251.43 181.04 248.47 C 177.19 248.06 173.54 250.10 169.70 249.27 C 171.68 243.85 176.38 240.15 181.36 237.61 C 178.06 236.52 174.23 236.22 171.50 238.77 Z" />
<path fill="#ffffff" opacity="1.00" d=" M 92.15 74.97 C 99.48 71.56 104.14 63.97 112.20 61.87 C 113.08 65.74 114.35 69.57 116.95 72.65 C 121.15 71.22 125.44 69.54 129.97 70.17 C 138.39 70.77 145.66 75.57 153.20 78.89 C 155.45 79.91 157.86 80.73 159.71 82.43 C 171.13 87.22 183.68 88.00 195.49 91.42 C 198.99 92.43 202.30 93.97 205.83 94.90 C 206.06 91.99 204.38 88.97 205.79 86.21 C 206.97 87.23 208.62 88.16 208.76 89.92 C 208.97 94.97 205.65 99.16 203.65 103.55 C 197.20 105.60 191.52 110.47 189.48 117.05 C 188.58 120.28 187.20 123.71 187.86 127.08 C 189.54 128.79 192.48 129.36 193.16 131.90 C 189.84 134.76 185.85 136.70 182.42 139.41 C 174.45 145.23 167.99 152.99 163.69 161.86 C 163.66 162.29 163.61 163.16 163.59 163.60 C 164.05 163.57 164.97 163.52 165.43 163.50 C 166.84 162.87 168.33 162.44 169.85 162.13 C 166.46 165.33 161.95 168.08 160.81 172.90 C 168.56 172.03 175.22 167.04 183.05 166.55 C 185.70 166.26 188.08 167.60 190.34 168.79 C 191.28 178.51 189.23 188.62 183.94 196.87 C 181.43 200.58 177.65 204.00 172.97 204.24 C 168.72 204.16 165.30 201.38 162.49 198.47 C 162.26 199.13 161.81 200.44 161.58 201.10 C 163.80 203.45 167.88 204.78 167.89 208.54 C 158.57 216.92 150.62 226.70 141.28 235.08 C 134.37 242.03 126.59 248.02 118.61 253.69 C 114.13 256.80 110.23 261.07 104.91 262.76 C 100.50 263.21 96.80 260.07 93.49 257.58 C 84.68 249.56 77.13 240.09 71.46 229.61 C 67.43 220.20 66.03 209.94 64.48 199.90 C 62.79 187.99 61.70 175.92 62.57 163.89 C 63.38 154.88 66.11 146.08 70.33 138.09 C 72.06 134.47 74.87 131.23 75.15 127.06 C 75.65 120.01 73.79 112.93 75.04 105.91 C 76.04 98.77 78.98 92.00 83.25 86.21 C 86.11 82.41 87.91 77.51 92.15 74.97 M 83.02 103.04 C 80.12 105.00 79.11 108.71 79.88 112.02 C 82.62 107.90 85.50 102.96 90.87 102.14 C 100.88 99.57 109.71 106.31 119.07 108.41 C 114.91 102.77 107.68 100.75 101.06 99.86 C 94.96 99.21 88.26 99.48 83.02 103.04 M 138.23 112.77 C 141.55 111.96 144.35 109.90 147.43 108.52 C 152.24 106.29 157.68 104.84 162.99 105.80 C 167.50 108.19 168.18 115.79 174.40 115.10 C 171.20 110.57 167.91 105.96 163.43 102.60 C 154.34 103.06 143.37 104.06 138.23 112.77 M 80.10 119.44 C 79.01 119.50 77.92 119.58 76.84 119.68 C 80.64 123.20 85.60 124.91 90.53 126.14 C 86.36 130.77 81.59 135.00 78.45 140.45 C 77.84 144.86 81.50 148.35 84.99 150.40 C 84.69 146.31 80.11 144.02 80.23 139.90 C 89.84 128.88 102.98 121.95 114.47 113.17 C 115.06 112.64 115.62 112.08 116.15 111.49 C 112.99 111.71 110.15 113.16 107.49 114.78 C 107.16 115.42 106.82 116.06 106.48 116.70 C 106.06 111.91 103.66 105.61 97.99 105.42 C 89.87 105.82 83.32 112.35 80.10 119.44 M 144.44 119.33 C 142.95 122.30 140.54 126.52 144.04 129.05 C 152.01 135.85 163.24 132.50 172.70 134.36 C 171.59 125.30 165.64 116.25 156.60 113.60 C 151.76 112.10 146.63 114.99 144.44 119.33 M 139.30 125.95 C 139.24 131.79 140.36 137.79 143.29 142.89 C 144.65 145.32 147.23 147.15 150.14 146.39 C 147.08 143.12 141.45 138.91 144.55 133.90 C 143.12 131.06 141.83 128.03 139.30 125.95 M 115.88 145.19 C 117.82 145.26 119.91 144.42 121.78 145.26 C 123.50 148.47 120.89 151.81 120.25 154.99 C 127.16 153.81 125.73 142.21 118.91 142.08 C 117.88 143.10 116.87 144.13 115.88 145.19 M 99.59 157.62 C 101.92 155.68 104.70 157.05 107.24 157.71 C 110.66 154.44 112.49 149.77 111.27 145.06 C 105.08 145.99 100.35 151.52 99.59 157.62 M 73.78 151.73 C 69.10 155.77 71.32 165.53 78.01 165.69 C 77.55 161.75 71.67 159.70 74.44 155.31 C 76.41 153.86 78.34 152.34 79.92 150.46 C 77.82 150.20 75.34 149.98 73.78 151.73 M 76.59 156.37 C 76.26 157.63 75.96 158.90 75.69 160.17 C 78.28 163.19 83.01 164.77 86.47 162.25 C 86.56 160.75 86.60 159.25 86.59 157.75 C 83.93 155.43 79.76 154.60 76.59 156.37 M 75.72 177.95 C 76.55 186.22 81.53 193.53 81.76 201.93 C 82.02 208.61 82.20 216.12 87.16 221.22 C 88.96 222.00 91.01 221.86 92.93 222.20 C 99.43 222.74 105.41 226.32 112.05 225.69 C 116.34 225.59 120.42 223.23 122.60 219.53 C 127.85 211.42 127.66 201.33 128.14 192.03 C 127.56 186.48 128.00 180.73 126.58 175.30 C 122.47 171.41 116.53 170.00 111.02 169.52 C 100.59 168.73 89.91 170.23 80.29 174.38 C 80.29 172.22 80.30 170.06 80.21 167.91 C 76.93 169.99 75.78 174.27 75.72 177.95 M 174.48 175.42 C 171.98 178.49 170.69 182.34 169.51 186.07 C 168.64 187.90 170.38 189.31 170.93 190.92 C 170.85 192.46 170.16 193.87 169.70 195.32 C 172.29 196.62 175.15 196.66 177.96 196.23 C 177.92 195.71 177.84 194.69 177.80 194.18 C 176.84 194.17 174.93 194.17 173.98 194.17 C 174.70 193.63 176.13 192.56 176.85 192.02 C 175.16 188.55 172.50 183.81 175.98 180.51 C 177.59 182.97 177.57 187.10 180.86 188.05 C 179.70 184.41 177.75 181.10 176.07 177.70 C 177.21 175.20 179.79 174.11 182.30 173.49 C 183.60 174.51 184.15 176.12 184.92 177.54 C 185.53 177.62 186.74 177.79 187.35 177.88 C 186.72 175.51 185.41 173.45 183.97 171.50 C 180.50 171.65 176.80 172.66 174.48 175.42 M 65.89 178.85 C 69.03 188.71 71.16 198.85 73.06 209.01 C 74.59 216.06 76.51 223.12 79.85 229.55 C 79.97 229.56 80.21 229.56 80.33 229.56 C 76.83 212.51 74.23 195.16 68.40 178.69 C 67.57 178.74 66.73 178.80 65.89 178.85 M 142.93 183.19 C 140.75 192.29 137.77 201.18 135.77 210.32 C 134.83 214.86 133.22 219.33 133.34 224.03 C 135.54 218.77 138.21 213.67 139.55 208.09 C 141.48 199.95 143.57 191.61 142.93 183.19 M 90.76 243.13 C 91.93 248.12 97.11 251.00 102.00 250.88 C 107.60 251.13 114.15 249.36 117.09 244.18 C 112.11 246.62 106.75 249.21 101.02 248.31 C 97.04 247.96 93.62 245.77 90.76 243.13 Z" />
<path fill="#ffffff" opacity="1.00" d=" M 227.03 72.03 C 232.44 67.25 239.87 64.60 247.10 64.57 C 245.27 66.11 243.02 66.95 240.76 67.66 C 240.46 68.20 239.86 69.30 239.55 69.84 C 247.95 78.15 250.19 90.69 249.39 102.05 C 247.55 122.41 238.49 141.01 232.14 160.17 C 229.81 166.60 229.59 173.94 232.45 180.24 C 230.66 183.44 227.90 186.64 223.96 186.83 C 215.70 187.77 208.11 182.91 199.89 183.56 C 197.19 183.71 195.03 185.53 193.06 187.19 C 192.62 187.67 192.18 188.16 191.75 188.65 C 192.04 181.78 194.21 174.78 192.37 168.00 C 191.87 165.97 189.46 165.69 187.77 165.18 C 181.07 163.58 174.48 166.35 167.86 167.00 C 171.31 162.54 177.40 161.72 181.09 157.54 C 176.39 157.86 171.84 159.19 167.23 160.04 C 173.11 150.60 181.26 142.80 190.06 136.09 C 192.05 134.42 194.58 133.10 195.92 130.82 C 194.56 127.49 189.58 126.20 190.48 121.99 C 191.06 113.44 198.72 108.55 204.86 103.86 C 209.09 100.16 211.07 94.72 211.52 89.24 C 213.41 90.79 214.97 92.82 217.24 93.86 C 218.12 88.70 215.25 81.91 220.15 78.20 C 222.22 79.28 224.90 76.56 222.88 74.54 C 225.50 73.69 225.65 76.99 226.55 78.52 C 225.44 78.86 224.34 79.23 223.27 79.65 C 224.85 81.03 226.18 82.80 228.24 83.55 C 228.87 77.32 225.72 71.69 224.38 65.79 C 225.88 66.33 227.44 66.86 228.64 67.98 C 227.06 68.35 226.09 70.80 227.03 72.03 Z" />
<path fill="#ffffff" opacity="1.00" d=" M 214.57 74.10 C 216.14 74.85 217.67 75.71 219.16 76.63 C 218.06 78.05 216.98 79.49 215.86 80.90 C 214.84 78.77 214.49 76.45 214.57 74.10 Z" />
<path fill="#ffffff" opacity="1.00" d=" M 84.01 121.00 C 84.81 116.12 89.24 113.09 91.92 109.24 C 93.61 110.64 95.28 112.11 97.22 113.17 C 99.27 114.33 101.62 113.47 103.79 113.31 C 102.94 115.21 102.37 117.34 100.93 118.91 C 96.35 122.86 89.42 123.67 84.01 121.00 Z" />
<path fill="#ffffff" opacity="1.00" d=" M 144.45 125.31 C 145.88 119.89 150.23 114.01 156.59 115.36 C 156.03 120.16 153.40 126.02 156.89 130.25 C 158.83 130.74 160.84 130.91 162.75 131.50 C 156.29 131.66 148.61 130.93 144.45 125.31 Z" />
<path fill="#ffffff" opacity="1.00" d=" M 63.18 135.37 C 65.81 130.50 68.88 125.88 71.18 120.83 C 75.30 126.91 69.56 134.37 63.18 135.37 Z" />
<path fill="#ffffff" opacity="1.00" d=" M 161.12 121.12 C 162.90 122.43 163.64 124.42 163.59 126.59 C 162.56 126.32 161.52 126.10 160.55 125.68 C 159.66 124.14 160.32 122.51 161.12 121.12 Z" />
<path fill="#ffffff" opacity="1.00" d=" M 96.21 171.69 C 98.49 171.46 100.79 171.32 103.08 171.25 C 105.60 172.74 107.52 175.11 107.85 178.08 C 104.57 178.37 101.42 179.30 98.36 180.48 C 97.47 177.58 96.10 174.79 96.21 171.69 Z" />
<path fill="#ffffff" opacity="1.00" d=" M 110.94 172.92 C 112.68 173.41 114.40 173.96 116.12 174.54 C 115.73 176.42 114.56 177.72 112.70 178.23 C 112.13 176.45 111.53 174.69 110.94 172.92 Z" />
<path fill="#ffffff" opacity="1.00" d=" M 84.37 176.67 C 87.08 175.01 90.04 173.77 93.21 173.33 C 93.50 176.13 94.17 178.87 94.75 181.62 C 91.94 181.55 89.13 181.69 86.32 181.58 C 85.44 180.05 84.96 178.33 84.37 176.67 Z" />
<path fill="#ffffff" opacity="1.00" d=" M 111.99 181.56 C 115.63 180.52 118.64 178.09 121.00 175.20 C 126.65 179.75 125.28 187.79 124.56 194.12 C 124.06 195.54 124.94 198.00 123.17 198.63 C 118.67 197.21 116.27 192.60 112.11 190.51 C 105.54 193.17 98.30 192.87 91.56 194.82 C 88.89 195.57 86.45 197.07 84.98 199.49 C 84.68 199.53 84.08 199.63 83.78 199.67 C 82.49 195.80 81.48 191.83 81.15 187.75 C 90.99 183.73 101.93 184.67 111.99 181.56 Z" />
<path fill="#ffffff" opacity="1.00" d=" M 79.17 179.13 C 80.20 178.29 81.35 177.63 82.50 176.97 C 82.66 179.74 82.95 182.50 83.48 185.22 C 82.53 185.26 81.59 185.31 80.64 185.36 C 80.18 183.28 79.51 181.24 79.17 179.13 Z" />
<path fill="#ffffff" opacity="1.00" d=" M 92.11 204.76 C 100.13 203.99 104.22 194.78 112.05 193.44 C 116.34 195.72 118.94 200.48 123.87 201.69 C 123.00 206.45 122.25 211.30 120.26 215.76 C 116.68 215.50 112.98 213.48 112.23 209.71 C 113.93 208.93 115.65 208.20 117.38 207.50 C 117.86 206.50 118.36 205.51 118.84 204.52 C 117.06 204.87 115.25 205.16 113.55 205.81 C 108.32 209.91 103.86 215.35 97.46 217.69 C 94.62 218.85 91.48 218.39 88.50 218.46 C 83.16 213.92 82.63 204.72 87.83 199.88 C 90.97 196.34 95.96 195.45 100.48 195.59 C 100.74 195.88 101.25 196.44 101.51 196.73 C 98.07 199.01 94.04 200.88 92.11 204.76 Z" />
<path fill="#ffffff" opacity="1.00" d=" M 103.78 218.49 C 105.56 215.98 108.00 213.97 110.99 213.11 C 111.74 213.96 112.49 214.81 113.23 215.69 C 110.27 217.19 107.08 218.16 103.78 218.49 Z" />
<path fill="#ffffff" opacity="1.00" d=" M 110.23 222.53 C 111.48 219.20 115.09 218.95 118.16 219.29 C 116.58 222.10 113.09 222.29 110.23 222.53 Z" />
</g>
<g id="#0d0d0dff">
<path fill="#0d0d0d" opacity="1.00" d=" M 133.03 36.64 C 145.74 28.79 159.84 22.23 174.98 21.40 C 182.47 20.83 189.91 22.98 196.47 26.50 C 208.43 32.83 217.55 43.36 229.60 49.55 C 231.00 50.28 232.54 50.65 234.08 50.99 C 234.50 48.80 234.58 46.57 234.63 44.35 C 235.12 44.37 236.11 44.41 236.60 44.43 C 237.73 46.45 238.67 48.56 239.58 50.68 C 239.09 51.45 238.60 52.20 238.11 52.96 C 237.78 52.28 237.13 50.91 236.80 50.22 C 236.13 52.37 235.13 55.45 232.19 54.62 C 217.24 48.17 207.67 33.68 192.88 26.93 C 184.75 22.92 175.24 22.69 166.55 24.80 C 154.59 27.72 143.27 33.05 132.97 39.73 C 127.65 37.90 123.30 34.02 117.90 32.41 C 109.94 34.88 108.91 45.77 100.98 48.43 C 93.66 49.71 87.93 43.20 80.73 43.22 C 78.68 49.46 80.71 57.05 76.25 62.39 C 71.69 64.40 66.82 66.27 63.36 70.03 C 60.06 84.07 66.32 97.86 72.16 110.31 C 74.00 98.60 78.65 87.27 85.97 77.96 C 93.07 69.47 104.95 66.14 110.80 56.54 C 109.42 57.26 108.07 58.06 106.64 58.69 C 107.16 56.14 108.13 51.37 111.70 52.37 C 113.98 58.15 115.07 64.35 117.83 69.96 C 121.96 69.90 125.69 68.05 129.46 66.60 C 130.66 66.05 131.85 66.73 132.89 67.30 C 144.14 73.56 156.29 78.12 168.70 81.52 L 168.39 82.39 C 180.34 85.51 192.20 88.97 204.17 92.03 C 203.13 89.23 201.03 86.70 201.24 83.55 C 204.77 83.80 208.14 86.26 211.65 85.53 C 215.39 82.06 211.94 76.68 212.45 72.34 C 215.09 72.32 217.52 73.32 219.95 74.20 C 221.72 75.20 222.69 73.20 223.62 72.14 C 223.00 68.88 222.38 65.62 222.49 62.29 C 224.12 63.03 225.74 63.80 227.37 64.57 C 227.35 62.47 226.34 60.18 227.59 58.25 C 230.92 59.47 227.41 65.09 229.74 66.95 C 232.75 66.14 235.66 64.59 238.63 63.47 C 241.95 62.19 244.48 58.85 244.00 55.20 C 240.51 57.17 239.58 62.25 235.20 62.69 C 237.06 59.96 239.37 57.03 238.49 53.45 C 239.80 52.86 240.93 53.53 241.64 54.68 C 241.45 52.56 241.99 50.50 242.50 48.46 C 242.96 48.43 243.88 48.39 244.34 48.37 C 245.95 52.47 246.89 56.94 245.43 61.24 C 248.51 62.14 251.61 62.98 254.71 63.84 C 254.59 64.13 254.37 64.71 254.25 64.99 C 250.42 66.29 246.72 67.96 242.81 69.02 C 250.62 78.04 252.51 90.48 251.89 102.02 C 251.52 112.97 248.82 123.69 245.59 134.11 C 242.09 145.49 235.35 155.87 234.02 167.90 C 233.32 172.83 234.06 177.86 235.43 182.62 C 232.23 184.73 228.53 186.13 225.77 188.86 C 238.17 190.50 249.01 198.62 255.58 209.04 C 259.49 214.14 262.90 219.61 266.89 224.65 C 261.17 224.61 259.93 216.60 254.20 217.01 C 253.55 220.32 255.76 222.98 256.93 225.86 C 254.28 225.25 252.26 222.80 252.25 220.09 C 251.71 217.24 253.28 214.68 253.73 211.96 C 252.13 205.46 246.73 200.91 240.90 198.15 C 231.61 193.47 221.33 191.36 211.43 188.40 C 208.13 187.39 205.09 184.39 201.44 185.62 C 197.25 187.15 194.30 191.15 189.70 191.73 C 189.36 194.32 188.93 197.13 187.04 199.10 C 183.63 203.05 178.25 204.02 173.93 206.59 C 172.20 208.36 169.92 209.42 167.99 210.93 C 157.02 219.65 149.87 232.01 139.67 241.49 C 139.55 241.96 139.31 242.90 139.20 243.36 C 133.61 246.82 127.14 248.65 121.91 252.69 C 116.20 256.65 111.62 262.79 104.48 264.24 C 98.17 265.05 92.46 261.12 88.43 256.65 C 80.93 248.44 74.06 239.44 69.26 229.38 C 64.70 216.69 63.21 203.20 61.03 189.96 C 58.53 175.39 59.12 160.26 62.97 145.97 C 51.83 146.93 41.83 153.37 34.88 161.91 C 29.86 167.72 26.04 174.41 22.01 180.91 C 17.28 188.71 14.41 197.51 9.12 205.00 C 7.25 208.26 4.62 211.02 1.48 213.08 C 7.13 203.07 12.83 193.08 18.03 182.83 C 23.16 173.42 28.61 163.92 36.46 156.47 C 43.68 149.44 53.09 144.71 63.06 143.16 C 64.55 140.97 65.89 138.66 66.85 136.19 C 64.13 136.56 62.25 139.17 59.34 138.72 C 61.79 131.04 66.87 124.60 70.97 117.76 C 67.49 105.53 61.33 93.86 60.62 80.93 C 60.27 75.80 60.86 70.26 64.08 66.05 C 66.86 62.69 71.06 60.65 75.38 60.21 C 78.50 53.97 76.57 46.49 79.86 40.25 C 82.75 40.00 85.88 39.87 88.44 41.49 C 92.32 43.50 96.40 46.90 101.05 45.31 C 107.43 42.11 108.72 33.78 114.98 30.44 C 117.77 28.71 121.28 29.78 124.00 31.12 C 127.18 32.68 129.55 35.80 133.03 36.64 M 92.15 74.97 C 87.91 77.51 86.11 82.41 83.25 86.21 C 78.98 92.00 76.04 98.77 75.04 105.91 C 73.79 112.93 75.65 120.01 75.15 127.06 C 74.87 131.23 72.06 134.47 70.33 138.09 C 66.11 146.08 63.38 154.88 62.57 163.89 C 61.70 175.92 62.79 187.99 64.48 199.90 C 66.03 209.94 67.43 220.20 71.46 229.61 C 77.13 240.09 84.68 249.56 93.49 257.58 C 96.80 260.07 100.50 263.21 104.91 262.76 C 110.23 261.07 114.13 256.80 118.61 253.69 C 126.59 248.02 134.37 242.03 141.28 235.08 C 150.62 226.70 158.57 216.92 167.89 208.54 C 167.88 204.78 163.80 203.45 161.58 201.10 C 161.81 200.44 162.26 199.13 162.49 198.47 C 165.30 201.38 168.72 204.16 172.97 204.24 C 177.65 204.00 181.43 200.58 183.94 196.87 C 189.23 188.62 191.28 178.51 190.34 168.79 C 188.08 167.60 185.70 166.26 183.05 166.55 C 175.22 167.04 168.56 172.03 160.81 172.90 C 161.95 168.08 166.46 165.33 169.85 162.13 C 168.33 162.44 166.84 162.87 165.43 163.50 C 164.97 163.52 164.05 163.57 163.59 163.60 C 163.61 163.16 163.66 162.29 163.69 161.86 C 167.99 152.99 174.45 145.23 182.42 139.41 C 185.85 136.70 189.84 134.76 193.16 131.90 C 192.48 129.36 189.54 128.79 187.86 127.08 C 187.20 123.71 188.58 120.28 189.48 117.05 C 191.52 110.47 197.20 105.60 203.65 103.55 C 205.65 99.16 208.97 94.97 208.76 89.92 C 208.62 88.16 206.97 87.23 205.79 86.21 C 204.38 88.97 206.06 91.99 205.83 94.90 C 202.30 93.97 198.99 92.43 195.49 91.42 C 183.68 88.00 171.13 87.22 159.71 82.43 C 157.86 80.73 155.45 79.91 153.20 78.89 C 145.66 75.57 138.39 70.77 129.97 70.17 C 125.44 69.54 121.15 71.22 116.95 72.65 C 114.35 69.57 113.08 65.74 112.20 61.87 C 104.14 63.97 99.48 71.56 92.15 74.97 M 227.03 72.03 C 226.09 70.80 227.06 68.35 228.64 67.98 C 227.44 66.86 225.88 66.33 224.38 65.79 C 225.72 71.69 228.87 77.32 228.24 83.55 C 226.18 82.80 224.85 81.03 223.27 79.65 C 224.34 79.23 225.44 78.86 226.55 78.52 C 225.65 76.99 225.50 73.69 222.88 74.54 C 224.90 76.56 222.22 79.28 220.15 78.20 C 215.25 81.91 218.12 88.70 217.24 93.86 C 214.97 92.82 213.41 90.79 211.52 89.24 C 211.07 94.72 209.09 100.16 204.86 103.86 C 198.72 108.55 191.06 113.44 190.48 121.99 C 189.58 126.20 194.56 127.49 195.92 130.82 C 194.58 133.10 192.05 134.42 190.06 136.09 C 181.26 142.80 173.11 150.60 167.23 160.04 C 171.84 159.19 176.39 157.86 181.09 157.54 C 177.40 161.72 171.31 162.54 167.86 167.00 C 174.48 166.35 181.07 163.58 187.77 165.18 C 189.46 165.69 191.87 165.97 192.37 168.00 C 194.21 174.78 192.04 181.78 191.75 188.65 C 192.18 188.16 192.62 187.67 193.06 187.19 C 195.03 185.53 197.19 183.71 199.89 183.56 C 208.11 182.91 215.70 187.77 223.96 186.83 C 227.90 186.64 230.66 183.44 232.45 180.24 C 229.59 173.94 229.81 166.60 232.14 160.17 C 238.49 141.01 247.55 122.41 249.39 102.05 C 250.19 90.69 247.95 78.15 239.55 69.84 C 239.86 69.30 240.46 68.20 240.76 67.66 C 243.02 66.95 245.27 66.11 247.10 64.57 C 239.87 64.60 232.44 67.25 227.03 72.03 M 214.57 74.10 C 214.49 76.45 214.84 78.77 215.86 80.90 C 216.98 79.49 218.06 78.05 219.16 76.63 C 217.67 75.71 216.14 74.85 214.57 74.10 M 63.18 135.37 C 69.56 134.37 75.30 126.91 71.18 120.83 C 68.88 125.88 65.81 130.50 63.18 135.37 Z" />
<path fill="#0d0d0d" opacity="1.00" d=" M 83.02 103.04 C 88.26 99.48 94.96 99.21 101.06 99.86 C 107.68 100.75 114.91 102.77 119.07 108.41 C 109.71 106.31 100.88 99.57 90.87 102.14 C 85.50 102.96 82.62 107.90 79.88 112.02 C 79.11 108.71 80.12 105.00 83.02 103.04 Z" />
<path fill="#0d0d0d" opacity="1.00" d=" M 138.23 112.77 C 143.37 104.06 154.34 103.06 163.43 102.60 C 167.91 105.96 171.20 110.57 174.40 115.10 C 168.18 115.79 167.50 108.19 162.99 105.80 C 157.68 104.84 152.24 106.29 147.43 108.52 C 144.35 109.90 141.55 111.96 138.23 112.77 Z" />
<path fill="#0d0d0d" opacity="1.00" d=" M 80.10 119.44 C 83.32 112.35 89.87 105.82 97.99 105.42 C 103.66 105.61 106.06 111.91 106.48 116.70 C 106.82 116.06 107.16 115.42 107.49 114.78 C 110.15 113.16 112.99 111.71 116.15 111.49 C 115.62 112.08 115.06 112.64 114.47 113.17 C 102.98 121.95 89.84 128.88 80.23 139.90 C 80.11 144.02 84.69 146.31 84.99 150.40 C 81.50 148.35 77.84 144.86 78.45 140.45 C 81.59 135.00 86.36 130.77 90.53 126.14 C 85.60 124.91 80.64 123.20 76.84 119.68 C 77.92 119.58 79.01 119.50 80.10 119.44 M 84.01 121.00 C 89.42 123.67 96.35 122.86 100.93 118.91 C 102.37 117.34 102.94 115.21 103.79 113.31 C 101.62 113.47 99.27 114.33 97.22 113.17 C 95.28 112.11 93.61 110.64 91.92 109.24 C 89.24 113.09 84.81 116.12 84.01 121.00 Z" />
<path fill="#0d0d0d" opacity="1.00" d=" M 144.44 119.33 C 146.63 114.99 151.76 112.10 156.60 113.60 C 165.64 116.25 171.59 125.30 172.70 134.36 C 163.24 132.50 152.01 135.85 144.04 129.05 C 140.54 126.52 142.95 122.30 144.44 119.33 M 144.45 125.31 C 148.61 130.93 156.29 131.66 162.75 131.50 C 160.84 130.91 158.83 130.74 156.89 130.25 C 153.40 126.02 156.03 120.16 156.59 115.36 C 150.23 114.01 145.88 119.89 144.45 125.31 M 161.12 121.12 C 160.32 122.51 159.66 124.14 160.55 125.68 C 161.52 126.10 162.56 126.32 163.59 126.59 C 163.64 124.42 162.90 122.43 161.12 121.12 Z" />
<path fill="#0d0d0d" opacity="1.00" d=" M 139.30 125.95 C 141.83 128.03 143.12 131.06 144.55 133.90 C 141.45 138.91 147.08 143.12 150.14 146.39 C 147.23 147.15 144.65 145.32 143.29 142.89 C 140.36 137.79 139.24 131.79 139.30 125.95 Z" />
<path fill="#0d0d0d" opacity="1.00" d=" M 115.88 145.19 C 116.87 144.13 117.88 143.10 118.91 142.08 C 125.73 142.21 127.16 153.81 120.25 154.99 C 120.89 151.81 123.50 148.47 121.78 145.26 C 119.91 144.42 117.82 145.26 115.88 145.19 Z" />
<path fill="#0d0d0d" opacity="1.00" d=" M 99.59 157.62 C 100.35 151.52 105.08 145.99 111.27 145.06 C 112.49 149.77 110.66 154.44 107.24 157.71 C 104.70 157.05 101.92 155.68 99.59 157.62 Z" />
<path fill="#0d0d0d" opacity="1.00" d=" M 73.78 151.73 C 75.34 149.98 77.82 150.20 79.92 150.46 C 78.34 152.34 76.41 153.86 74.44 155.31 C 71.67 159.70 77.55 161.75 78.01 165.69 C 71.32 165.53 69.10 155.77 73.78 151.73 Z" />
<path fill="#0d0d0d" opacity="1.00" d=" M 76.59 156.37 C 79.76 154.60 83.93 155.43 86.59 157.75 C 86.60 159.25 86.56 160.75 86.47 162.25 C 83.01 164.77 78.28 163.19 75.69 160.17 C 75.96 158.90 76.26 157.63 76.59 156.37 Z" />
<path fill="#0d0d0d" opacity="1.00" d=" M 75.72 177.95 C 75.78 174.27 76.93 169.99 80.21 167.91 C 80.30 170.06 80.29 172.22 80.29 174.38 C 89.91 170.23 100.59 168.73 111.02 169.52 C 116.53 170.00 122.47 171.41 126.58 175.30 C 128.00 180.73 127.56 186.48 128.14 192.03 C 127.66 201.33 127.85 211.42 122.60 219.53 C 120.42 223.23 116.34 225.59 112.05 225.69 C 105.41 226.32 99.43 222.74 92.93 222.20 C 91.01 221.86 88.96 222.00 87.16 221.22 C 82.20 216.12 82.02 208.61 81.76 201.93 C 81.53 193.53 76.55 186.22 75.72 177.95 M 96.21 171.69 C 96.10 174.79 97.47 177.58 98.36 180.48 C 101.42 179.30 104.57 178.37 107.85 178.08 C 107.52 175.11 105.60 172.74 103.08 171.25 C 100.79 171.32 98.49 171.46 96.21 171.69 M 110.94 172.92 C 111.53 174.69 112.13 176.45 112.70 178.23 C 114.56 177.72 115.73 176.42 116.12 174.54 C 114.40 173.96 112.68 173.41 110.94 172.92 M 84.37 176.67 C 84.96 178.33 85.44 180.05 86.32 181.58 C 89.13 181.69 91.94 181.55 94.75 181.62 C 94.17 178.87 93.50 176.13 93.21 173.33 C 90.04 173.77 87.08 175.01 84.37 176.67 M 111.99 181.56 C 101.93 184.67 90.99 183.73 81.15 187.75 C 81.48 191.83 82.49 195.80 83.78 199.67 C 84.08 199.63 84.68 199.53 84.98 199.49 C 86.45 197.07 88.89 195.57 91.56 194.82 C 98.30 192.87 105.54 193.17 112.11 190.51 C 116.27 192.60 118.67 197.21 123.17 198.63 C 124.94 198.00 124.06 195.54 124.56 194.12 C 125.28 187.79 126.65 179.75 121.00 175.20 C 118.64 178.09 115.63 180.52 111.99 181.56 M 79.17 179.13 C 79.51 181.24 80.18 183.28 80.64 185.36 C 81.59 185.31 82.53 185.26 83.48 185.22 C 82.95 182.50 82.66 179.74 82.50 176.97 C 81.35 177.63 80.20 178.29 79.17 179.13 M 92.11 204.76 C 94.04 200.88 98.07 199.01 101.51 196.73 C 101.25 196.44 100.74 195.88 100.48 195.59 C 95.96 195.45 90.97 196.34 87.83 199.88 C 82.63 204.72 83.16 213.92 88.50 218.46 C 91.48 218.39 94.62 218.85 97.46 217.69 C 103.86 215.35 108.32 209.91 113.55 205.81 C 115.25 205.16 117.06 204.87 118.84 204.52 C 118.36 205.51 117.86 206.50 117.38 207.50 C 115.65 208.20 113.93 208.93 112.23 209.71 C 112.98 213.48 116.68 215.50 120.26 215.76 C 122.25 211.30 123.00 206.45 123.87 201.69 C 118.94 200.48 116.34 195.72 112.05 193.44 C 104.22 194.78 100.13 203.99 92.11 204.76 M 103.78 218.49 C 107.08 218.16 110.27 217.19 113.23 215.69 C 112.49 214.81 111.74 213.96 110.99 213.11 C 108.00 213.97 105.56 215.98 103.78 218.49 M 110.23 222.53 C 113.09 222.29 116.58 222.10 118.16 219.29 C 115.09 218.95 111.48 219.20 110.23 222.53 Z" />
<path fill="#0d0d0d" opacity="1.00" d=" M 174.48 175.42 C 176.80 172.66 180.50 171.65 183.97 171.50 C 185.41 173.45 186.72 175.51 187.35 177.88 C 186.74 177.79 185.53 177.62 184.92 177.54 C 184.15 176.12 183.60 174.51 182.30 173.49 C 179.79 174.11 177.21 175.20 176.07 177.70 C 177.75 181.10 179.70 184.41 180.86 188.05 C 177.57 187.10 177.59 182.97 175.98 180.51 C 172.50 183.81 175.16 188.55 176.85 192.02 C 176.13 192.56 174.70 193.63 173.98 194.17 C 174.93 194.17 176.84 194.17 177.80 194.18 C 177.84 194.69 177.92 195.71 177.96 196.23 C 175.15 196.66 172.29 196.62 169.70 195.32 C 170.16 193.87 170.85 192.46 170.93 190.92 C 170.38 189.31 168.64 187.90 169.51 186.07 C 170.69 182.34 171.98 178.49 174.48 175.42 Z" />
<path fill="#0d0d0d" opacity="1.00" d=" M 65.89 178.85 C 66.73 178.80 67.57 178.74 68.40 178.69 C 74.23 195.16 76.83 212.51 80.33 229.56 C 80.21 229.56 79.97 229.56 79.85 229.55 C 76.51 223.12 74.59 216.06 73.06 209.01 C 71.16 198.85 69.03 188.71 65.89 178.85 Z" />
<path fill="#0d0d0d" opacity="1.00" d=" M 142.93 183.19 C 143.57 191.61 141.48 199.95 139.55 208.09 C 138.21 213.67 135.54 218.77 133.34 224.03 C 133.22 219.33 134.83 214.86 135.77 210.32 C 137.77 201.18 140.75 192.29 142.93 183.19 Z" />
<path fill="#0d0d0d" opacity="1.00" d=" M 241.83 230.92 C 244.82 228.71 248.74 229.58 252.19 229.67 C 252.73 231.41 253.30 233.15 253.76 234.92 C 251.75 233.33 249.87 230.96 247.03 231.22 C 245.01 231.03 243.55 232.41 242.22 233.69 C 243.75 238.30 247.93 240.86 251.81 243.30 C 255.00 245.20 256.80 248.74 256.90 252.40 C 253.06 253.21 248.75 254.12 245.12 252.10 C 243.47 251.22 243.49 249.21 243.04 247.65 C 246.77 249.16 250.36 252.43 254.64 250.86 C 249.94 246.10 244.34 241.92 241.32 235.77 C 240.44 234.25 240.47 232.15 241.83 230.92 Z" />
<path fill="#0d0d0d" opacity="1.00" d=" M 204.61 231.72 C 204.84 231.66 205.30 231.53 205.53 231.47 C 210.37 236.38 210.60 243.87 209.24 250.23 C 208.69 251.73 208.30 254.59 206.00 253.90 C 199.48 253.24 195.83 247.19 191.35 243.20 C 189.45 246.64 190.88 250.75 189.40 254.34 C 188.93 254.41 188.00 254.55 187.53 254.62 C 187.91 248.70 186.98 242.66 188.62 236.87 C 194.64 241.69 198.57 249.44 206.22 251.95 C 209.06 245.35 206.84 238.13 204.61 231.72 Z" />
<path fill="#0d0d0d" opacity="1.00" d=" M 234.44 231.44 C 235.40 231.50 236.36 231.56 237.32 231.63 C 237.36 239.36 235.69 248.08 229.56 253.36 C 221.22 252.51 218.78 239.47 225.32 234.77 C 224.70 240.14 223.04 247.66 229.06 250.63 C 233.57 245.37 234.75 238.17 234.44 231.44 Z" />
<path fill="#0d0d0d" opacity="1.00" d=" M 147.55 245.90 C 150.70 239.77 156.69 233.53 164.22 234.65 C 158.49 239.04 151.97 242.95 148.27 249.42 C 146.47 252.41 145.25 256.51 147.65 259.55 C 150.43 262.17 154.50 262.39 158.11 262.18 C 157.23 259.46 155.95 256.85 155.57 253.99 C 158.74 254.81 159.50 258.44 161.21 260.81 C 162.78 260.54 164.36 260.26 165.94 260.01 C 165.41 261.07 164.87 262.13 164.33 263.19 C 166.08 265.36 168.56 266.64 170.98 267.91 C 167.31 269.46 164.16 266.92 161.84 264.34 C 156.97 264.29 151.14 265.86 147.30 261.90 C 143.21 257.36 145.17 250.78 147.55 245.90 Z" />
<path fill="#0d0d0d" opacity="1.00" d=" M 213.56 233.61 C 214.32 234.41 215.17 235.25 215.29 236.43 C 216.42 242.17 215.74 248.12 217.37 253.78 C 211.76 248.56 213.35 240.43 213.56 233.61 Z" />
<path fill="#0d0d0d" opacity="1.00" d=" M 171.50 238.77 C 174.23 236.22 178.06 236.52 181.36 237.61 C 176.38 240.15 171.68 243.85 169.70 249.27 C 173.54 250.10 177.19 248.06 181.04 248.47 C 178.11 251.43 174.11 252.71 170.18 253.74 C 173.72 257.06 178.79 257.13 183.31 257.74 C 179.33 259.64 174.03 260.76 170.47 257.42 C 166.09 252.16 166.64 243.53 171.50 238.77 Z" />
<path fill="#0d0d0d" opacity="1.00" d=" M 90.76 243.13 C 93.62 245.77 97.04 247.96 101.02 248.31 C 106.75 249.21 112.11 246.62 117.09 244.18 C 114.15 249.36 107.60 251.13 102.00 250.88 C 97.11 251.00 91.93 248.12 90.76 243.13 Z" />
</g>
</svg>
