<?xml version="1.0" encoding="utf-8"?>
<!-- Generator: Adobe Illustrator 15.0.2, SVG Export Plug-In . SVG Version: 6.00 Build 0)  -->
<!DOCTYPE svg PUBLIC "-//W3C//DTD SVG 1.1//EN" "http://www.w3.org/Graphics/SVG/1.1/DTD/svg11.dtd">
<svg version="1.1" id="Layer_1" xmlns="http://www.w3.org/2000/svg" xmlns:xlink="http://www.w3.org/1999/xlink" x="0px" y="0px"
	 width="352px" height="279px" viewBox="0 0 352 279" enable-background="new 0 0 352 279" xml:space="preserve">
<path fill="#FFFFFF" d="M0,0h352v122.45c-2.3-0.55-4.57-1.37-6.97-1.26c-11.681-0.04-23.351-0.03-35.03-0.01
	c-4.311,0.07-8.82,0.16-12.82,1.94c-2.26,1.48-4.1,4.05-7.15,3.56c-36.069,0.48-72.139,1.51-108.209,1.74
	c13.34-9.94,25.99-22.63,30.279-39.21c2.371-9.99,2.32-20.95-1.859-30.47c-5.53-12.58-16.051-21.97-26.77-30.13
	C170.58,18.22,155.07,11.84,139.57,6.43c2.25-1.68,4.49-3.42,6.26-5.62c-3.66-1.01-6.96,1.84-10.35,2.85
	c-3.31,1.96-6.95-0.13-10.38-0.58c-12.54-2.31-25.79-2.67-38.09,1.08c-6.27,1.94-11.95,5.4-17.06,9.48
	c-3.88-0.74-7.74-1.75-11.71-1.91c1.4,2.98,3.99,5.03,6.55,6.95C55.95,28.51,49.91,40.43,44.5,52.4
	c-3.38,6.99-3.65,14.95-3.91,22.57c0.41,20.7,6.17,41.86,19.14,58.3c5.46,7.21,12.8,13.089,21.38,16.11
	c13.67,4.851,28.44,3.84,42.67,3.07c-2.6,5.7-6.16,10.899-10.01,15.83c-2.17,0.04-4.35,0.069-6.52,0.09
	c-0.38,3.021-0.12,6.12-0.88,9.069c-2.31,2.58-4.58,5.19-7.03,7.641c-0.84-3.75,1.81-9.68-2.78-11.58
	c-12.77-6.84-28.17-8.46-42.16-4.82c-10.62,2.79-19.79,10.521-24.22,20.59c-5.46,12.49-5.32,26.78-2.16,39.86
	c-14.46,6.25-23.99,20.61-26.94,35.761c-0.23,2.27-2.06,5.449,0.86,6.689c0.98-0.54,1.72-1.3,2.23-2.27
	C6.29,265.27,7.9,261,9.98,256.95c0.26-0.341,0.72-0.37,1.08-0.53c0.22,4.55,1.07,9.08,2.3,13.46c0.34,2.17,4.23,2.931,4.08,0.11
	c-0.31-6.01-2.5-11.721-3.83-17.54c-0.86-2.4,1.38-4.271,2.4-6.21c2.64,5.43,4.78,11.08,7.14,16.63c0.8,1.979,2.27,4.319,4.77,3.94
	c2.01-0.711,1.35-3.201,0.64-4.66c-3.1-6.641-6.31-13.23-9.49-19.83c3.08-3.34,7.13-5.521,11.5-6.69
	c4.96,9.55,13.83,17.09,24.4,19.56c15.62,3.78,33.25,1.551,46.4-8.09c0.02-12.069,0.2-24.17-0.07-36.229l-0.44-0.55
	c-5.56-0.471-11.16,0.08-16.73-0.51c10.69-9.98,21.05-20.351,30.33-31.67c4.09-0.44,8.21-0.4,12.3,0.039
	c-1.62,11.7-4.06,23.29-7.19,34.69c-2.56,9.16-5.79,18.12-8.56,27.22c-3.1,9.79-5.96,19.65-9.44,29.301
	c-0.91,3.109-2.89,6.75-0.28,9.609H0V0z"/>
<path d="M135.48,3.66c3.39-1.01,6.69-3.86,10.35-2.85c-1.77,2.2-4.01,3.94-6.26,5.62c15.5,5.41,31.01,11.79,43.901,22.18
	c10.719,8.16,21.239,17.55,26.77,30.13c4.18,9.52,4.23,20.479,1.859,30.47c-4.289,16.58-16.939,29.27-30.279,39.21
	c36.07-0.23,72.14-1.26,108.209-1.74c3.051,0.49,4.891-2.08,7.15-3.56c4-1.78,8.51-1.87,12.82-1.94
	c11.68-0.02,23.35-0.03,35.03,0.01c2.399-0.11,4.67,0.71,6.97,1.26v1.22c-9.58,1.86-19.63,0.07-29.12,2.22
	c-2.52,3.47-0.76,8.74-4.149,11.83c-4.44,4.12-11.12,3.22-16.681,3.011c-5.909-0.301-6.021-9.141-12.03-8.771
	c-38.369,0.64-76.709,2.08-115.08,2.43c-2.35-0.12-4.46,1-6.42,2.15c-10.12,5.83-20.99,10.19-31.94,14.17
	c-0.9,5.84-1.72,11.69-2.34,17.57c-2-0.03-4-0.03-5.99-0.021c0.46-4.46,1.26-8.89,1.55-13.369c-3.73,3.799-5.54,8.969-8.42,13.369
	c-2.54-0.02-5.07-0.02-7.61,0.021c3.85-4.931,7.41-10.13,10.01-15.83c-14.23,0.77-29,1.78-42.67-3.07
	c-8.58-3.021-15.92-8.899-21.38-16.11C46.76,116.83,41,95.67,40.59,74.97c0.26-7.62,0.53-15.58,3.91-22.57
	c5.41-11.97,11.45-23.89,20.29-33.72c-2.56-1.92-5.15-3.97-6.55-6.95c3.97,0.16,7.83,1.17,11.71,1.91
	c5.11-4.08,10.79-7.54,17.06-9.48c12.3-3.75,25.55-3.39,38.09-1.08C128.53,3.53,132.17,5.62,135.48,3.66 M83.17,10.99
	c-2.23,1.38-5.07,2.24-6.46,4.62c4.89,1.93,9.9,4.56,12.67,9.23c-0.45,0.45-1.35,1.36-1.8,1.81c0.13,4.71-2.93,8.7-5.82,12.11
	c-3.01,3.56-7.56,5.04-11.81,6.57c-3.52,1.18-7.32,1.95-11.02,1.36c-2.49-0.29-3.7-2.74-5.09-4.5c-3.61,6.82-7.17,13.9-8.15,21.65
	c-2.49,17.97,1.16,36.52,8.88,52.83c5.33,10.52,12.69,20.73,23.54,26.03c14.65,7.18,31.57,6.27,47.35,4.63
	c2.18-4.63,3.83-9.47,5.6-14.26c0.71-2.47,3.68-2.78,5.81-3.18c10.39-0.93,20.83,0.4,31.22-0.55c1.93-0.18,3.93-0.55,5.52-1.74
	c10.09-6.63,19.71-14.42,26.56-24.49c5.43-7.98,9.26-17.32,9.73-27.04c-0.301-14.43-9.301-27.01-19.66-36.33
	c-7.92-6.92-16.46-13.44-26.29-17.38c-3.45,6.66-11.2,9.44-18.11,10.84c-9.72,1.05-19.93,1.78-29.29-1.59
	c-4.46-1.75-9.09-5.65-9.2-10.75c-2.17,0.91-4.13,2.21-6.18,3.35c-3.05,0.67-4.6-2.4-4.75-4.94c-1.4,0.1-2.8,0.2-4.2,0.29
	c-0.6-3.47,2.81-6.13,6.03-5.8c1.62,0.55,1.7,2.521,2.46,3.81c7.94-2.37,15.8-5.23,23.22-8.96C110.57,5.63,95.68,4.32,83.17,10.99
	 M112.96,18.64c14.57-1.62,29.17,0.35,43.75,0.7c-7.94-3.4-16.12-6.22-24.4-8.63C126.04,13.77,119.48,16.18,112.96,18.64
	 M60.91,31.02c6.75-1.72,13.5-3.41,20.23-5.18c-3.23-2.67-7.31-3.91-11.19-5.31C66.76,23.86,63.49,27.17,60.91,31.02 M114.14,23.59
	c0.69,0.79,1.38,1.58,2.06,2.38c0.03-0.74,0.1-2.229,0.13-2.97C115.78,23.15,114.69,23.44,114.14,23.59 M124.33,28.07
	c7.51,0.65,15.06,0.29,22.55-0.56c3.13-0.03,5.96-1.46,8.69-2.84c-1.35-1.71-3.67-1.27-5.58-1.44c-8.09,0.01-16.18-0.36-24.28-0.36
	C125.75,24.71,125.35,26.52,124.33,28.07 M68.47,34.06c1.16,2.17,1.33,4.62-0.06,6.76c5.01-1.86,11.24-3.82,13.01-9.51
	C76.99,31.66,72.79,33.17,68.47,34.06 M57.46,37.85c0.71,2.01,2.45,2.97,4.36,3.57c-1.3-1.57-1.93-3.5-2.49-5.43
	C58.71,36.61,58.08,37.23,57.46,37.85 M137.58,135.11c-0.09,3.68-0.56,7.33-1.18,10.951c8.33-3.44,16.73-6.82,24.59-11.261
	C153.18,134.72,145.38,134.99,137.58,135.11z"/>
<path fill="#FFFFFF" d="M83.17,10.99c12.51-6.67,27.4-5.36,40.76-2.38c-7.42,3.73-15.28,6.59-23.22,8.96
	c-0.76-1.29-0.84-3.26-2.46-3.81c-3.22-0.33-6.63,2.33-6.03,5.8c1.4-0.09,2.8-0.19,4.2-0.29c0.15,2.54,1.7,5.61,4.75,4.94
	c2.05-1.14,4.01-2.44,6.18-3.35c0.11,5.1,4.74,9,9.2,10.75c9.36,3.37,19.57,2.64,29.29,1.59c6.91-1.4,14.66-4.18,18.11-10.84
	c9.83,3.94,18.37,10.46,26.29,17.38c10.359,9.32,19.359,21.9,19.66,36.33c-0.471,9.72-4.301,19.06-9.73,27.04
	c-6.85,10.07-16.47,17.86-26.56,24.49c-1.59,1.19-3.59,1.56-5.52,1.74c-10.39,0.95-20.83-0.38-31.22,0.55
	c-2.13,0.4-5.1,0.71-5.81,3.18c-1.77,4.79-3.42,9.63-5.6,14.26c-15.78,1.64-32.7,2.55-47.35-4.63
	c-10.85-5.3-18.21-15.51-23.54-26.03c-7.72-16.31-11.37-34.86-8.88-52.83c0.98-7.75,4.54-14.83,8.15-21.65
	c1.39,1.76,2.6,4.21,5.09,4.5c3.7,0.59,7.5-0.18,11.02-1.36c4.25-1.53,8.8-3.01,11.81-6.57c2.89-3.41,5.95-7.4,5.82-12.11
	c0.45-0.45,1.35-1.36,1.8-1.81c-2.77-4.67-7.78-7.3-12.67-9.23C78.1,13.23,80.94,12.37,83.17,10.99 M101.59,45.91
	c-12.84,1.35-25.02,7.51-34.21,16.5c-3.6,2.96-3.56,8.02-6.59,11.39c-1.45,2.08-4.34,6.31-0.71,7.7c2.64-0.98,4.57-3.2,6.28-5.35
	c2.17-2.51,1.85-6.26,4.23-8.66c7.34-8.41,17.46-14.54,28.49-16.58c14.42-2.99,29.48-3.21,43.91-0.12c4.4,0.75,8.82,2.1,13.33,1.51
	c0.07-0.26,0.22-0.78,0.29-1.03c-5.65-4.89-13.6-4.95-20.64-5.62C124.52,45.18,113.03,45.05,101.59,45.91 M159.84,48.72
	c0.18,3.28-0.56,6.46-1.87,9.45c2.22,1.94,6.19,0.88,6.46-2.26C165.22,52.85,164.21,46.97,159.84,48.72 M79.75,63.78
	c-3.03,1.79,0.77,5.6,3.14,3.83c7.99-4.51,17-6.89,26.1-7.73c2.72-0.39,6.17-0.08,7.74-2.88c-1.09-0.77-2.18-1.73-3.6-1.72
	C101.41,54.16,89.76,57.88,79.75,63.78z"/>
<path fill="#FFFFFF" d="M112.96,18.64c6.52-2.46,13.08-4.87,19.35-7.93c8.28,2.41,16.46,5.23,24.4,8.63
	C142.13,18.99,127.53,17.02,112.96,18.64z"/>
<path fill="#FFFFFF" d="M60.91,31.02c2.58-3.85,5.85-7.16,9.04-10.49c3.88,1.4,7.96,2.64,11.19,5.31
	C74.41,27.61,67.66,29.3,60.91,31.02z"/>
<path fill="#FFFFFF" d="M114.14,23.59c0.55-0.15,1.64-0.44,2.19-0.59c-0.03,0.74-0.1,2.23-0.13,2.97
	C115.52,25.17,114.83,24.38,114.14,23.59z"/>
<path fill="#FFFFFF" d="M124.33,28.07c1.02-1.55,1.42-3.36,1.38-5.2c8.1,0,16.19,0.37,24.28,0.36c1.91,0.17,4.23-0.27,5.58,1.44
	c-2.73,1.38-5.56,2.81-8.69,2.84C139.39,28.36,131.84,28.72,124.33,28.07z"/>
<path fill="#FFFFFF" d="M68.47,34.06c4.32-0.89,8.52-2.4,12.95-2.75c-1.77,5.69-8,7.65-13.01,9.51
	C69.8,38.68,69.63,36.23,68.47,34.06z"/>
<path fill="#FFFFFF" d="M57.46,37.85c0.62-0.62,1.25-1.24,1.87-1.86c0.56,1.93,1.19,3.86,2.49,5.43
	C59.91,40.82,58.17,39.86,57.46,37.85z"/>
<path d="M101.59,45.91c11.44-0.86,22.93-0.73,34.38-0.26c7.04,0.67,14.99,0.73,20.64,5.62c-0.07,0.25-0.22,0.77-0.29,1.03
	c-4.51,0.59-8.93-0.76-13.33-1.51c-14.43-3.09-29.49-2.87-43.91,0.12c-11.03,2.04-21.15,8.17-28.49,16.58
	c-2.38,2.4-2.06,6.15-4.23,8.66c-1.71,2.15-3.64,4.37-6.28,5.35c-3.63-1.39-0.74-5.62,0.71-7.7c3.03-3.37,2.99-8.43,6.59-11.39
	C76.57,53.42,88.75,47.26,101.59,45.91z"/>
<path d="M159.84,48.72c4.37-1.75,5.38,4.13,4.59,7.19c-0.27,3.14-4.24,4.2-6.46,2.26C159.28,55.18,160.02,52,159.84,48.72z"/>
<path d="M79.75,63.78c10.01-5.9,21.66-9.62,33.38-8.5c1.42-0.01,2.51,0.95,3.6,1.72c-1.57,2.8-5.02,2.49-7.74,2.88
	c-9.1,0.84-18.11,3.22-26.1,7.73C80.52,69.38,76.72,65.57,79.75,63.78z"/>
<path fill="#FFFFFF" d="M322.88,125.89c9.49-2.15,19.54-0.36,29.12-2.22V279H102.57c2.31-1.93,4.35-4.25,5.2-7.2
	c5.32-15.06,9.76-30.42,14.57-45.64c4.94-15.66,7.8-31.86,10.36-48.051c1.7-0.06,3.4-0.02,5.1,0.011
	c0.13,24.63,0.01,49.271,0.06,73.899c0.12,1.121,0.34,2.221,0.67,3.301c3.57-0.051,7.14-0.03,10.71-0.2
	c0.22-25.63,0.01-51.25,0.1-76.88c10.12-1.01,20.33,0.119,30.45-0.58c0.739-2.82,0.94-6.41-0.101-9.13
	c-15.129-0.49-30.299,0.03-45.449-0.25c0.62-5.88,1.44-11.73,2.34-17.57c10.95-3.979,21.82-8.34,31.94-14.17
	c1.96-1.15,4.07-2.27,6.42-2.15c38.371-0.35,76.71-1.79,115.08-2.43c6.01-0.37,6.121,8.47,12.03,8.771
	c5.561,0.209,12.24,1.109,16.681-3.011C322.12,134.63,320.36,129.36,322.88,125.89 M286.48,167.67
	c-12.791,2.25-23.41,12.15-27.74,24.221c-3.811,10.6-4.11,22.279-1.98,33.279c2.391,11.82,9.891,22.92,21,28.08
	c9.721,4.42,21.09,4.76,31.26,1.689c10.551-3.289,18.94-11.899,22.921-22.1c3.609-9.109,4.09-19.14,3.22-28.81
	c-1.26-11.79-6.79-23.601-16.7-30.5C309.32,166.97,297.32,165.66,286.48,167.67 M192.439,168.35c-1.08,3.48-0.18,7.12-0.33,10.681
	c-0.369,5.67,0.15,11.35-0.229,17.03c0.54,19.56-0.44,39.189,0.479,58.709c3.33,1.141,7.271,0.23,10.83,0.41
	c0.431-13.64-0.1-27.31,0.261-40.939l0.34-0.53c10.05-0.47,20.14-0.09,30.22-0.19c1.15-0.27,2.91,0.5,3.68-0.66
	c0.311-2.85,0.101-5.719,0.11-8.579c-11.409-0.97-22.94-0.05-34.39-0.48c-0.15-8.5-0.03-17-0.07-25.5
	c12.45-1.14,25.04,0.07,37.52-0.62c1.361-2.6,0.261-6.13,0.57-9.08C225.12,168.01,208.77,168.5,192.439,168.35z"/>
<path fill="#FFFFFF" d="M137.58,135.11c7.8-0.12,15.6-0.39,23.41-0.31c-7.86,4.44-16.26,7.82-24.59,11.261
	C137.02,142.439,137.49,138.79,137.58,135.11z"/>
<path fill="#FFFFFF" d="M121.38,168.26c2.88-4.4,4.69-9.57,8.42-13.369c-0.29,4.479-1.09,8.909-1.55,13.369
	C125.96,168.27,123.67,168.27,121.38,168.26z"/>
<path fill="#FC2500" d="M54.4,168.68c13.99-3.64,29.39-2.02,42.16,4.82c4.59,1.9,1.94,7.83,2.78,11.58
	c0.01,0.439,0.03,1.32,0.04,1.76l-1.14-0.14c-10.03-9.47-25.05-12.39-38.3-9.53c-7.65,1.55-14.56,6.65-17.96,13.721
	c-4.89,10.68-5.25,23.219-2.47,34.51c0.68,2.14,1.39,4.279,2.23,6.369c3.12,7.66,10.4,13.07,18.4,14.7
	c8.56,1.74,17.71,1.45,25.96-1.55c1.71-0.76,4.35-1.49,4.01-3.9c-0.04-7.209,0.36-14.449-0.29-21.629
	c-5.69-0.031-11.39-0.291-17.06,0.109c-0.52,0.04-1.56,0.13-2.08,0.18c-0.03-2.18-0.06-4.359,0.02-6.529
	c0.2-0.95,0.42-1.891,0.66-2.83c1.28-0.131,2.57-0.271,3.85-0.4c2.97-0.23,5.95-0.21,8.92-0.109c5.57,0.59,11.17,0.039,16.73,0.51
	l0.44,0.55c0.27,12.06,0.09,24.16,0.07,36.229c-13.15,9.641-30.78,11.87-46.4,8.09c-10.57-2.47-19.44-10.01-24.4-19.56
	c-1.05-2.09-1.91-4.26-2.55-6.5c-3.16-13.08-3.3-27.37,2.16-39.86C34.61,179.2,43.78,171.47,54.4,168.68z"/>
<path fill="#FC2500" d="M286.48,167.67c10.84-2.01,22.84-0.7,31.979,5.86c9.91,6.899,15.44,18.71,16.7,30.5
	c0.87,9.67,0.39,19.7-3.22,28.81c-3.98,10.2-12.37,18.811-22.921,22.1c-10.17,3.07-21.539,2.73-31.26-1.689
	c-11.109-5.16-18.609-16.26-21-28.08c-2.13-11-1.83-22.68,1.98-33.279C263.07,179.82,273.689,169.92,286.48,167.67 M289.51,176.76
	c-6.99,1.37-13.02,6.09-16.529,12.21c-4.881,8.4-5.881,18.49-5.181,28.021c0.671,8.55,3.4,17.4,9.65,23.54
	c6.84,6.909,17.739,8.649,26.8,5.75c7.22-2.28,12.72-8.311,15.66-15.13c3.53-8.19,3.899-17.34,3.16-26.11
	c-0.94-8.64-4.221-17.49-11.011-23.22C305.99,176.48,297.24,175.16,289.51,176.76z"/>
<path fill="#FC2500" d="M107.25,168.37c2.17-0.021,4.35-0.05,6.52-0.09c2.54-0.04,5.07-0.04,7.61-0.021c2.29,0.01,4.58,0.01,6.87,0
	c1.99-0.01,3.99-0.01,5.99,0.021c15.15,0.28,30.32-0.24,45.449,0.25c1.041,2.72,0.84,6.31,0.101,9.13
	c-10.12,0.699-20.33-0.43-30.45,0.58c-0.09,25.63,0.12,51.25-0.1,76.88c-3.57,0.17-7.14,0.149-10.71,0.2
	c-0.33-1.08-0.55-2.18-0.67-3.301c-0.05-24.629,0.07-49.27-0.06-73.899c-1.7-0.03-3.4-0.07-5.1-0.011
	c-1.98,0.101-3.96,0.19-5.94,0.07c-4.09-0.439-8.21-0.479-12.3-0.039c-2.71,0.129-5.55,0.529-8.09-0.701
	C107.13,174.49,106.87,171.391,107.25,168.37z"/>
<path fill="#FC2500" d="M192.439,168.35c16.33,0.15,32.681-0.34,48.99,0.25c-0.31,2.95,0.791,6.48-0.57,9.08
	c-12.479,0.69-25.069-0.52-37.52,0.62c0.04,8.5-0.08,17,0.07,25.5c11.449,0.431,22.98-0.489,34.39,0.48
	c-0.01,2.86,0.2,5.729-0.11,8.579c-0.77,1.16-2.529,0.391-3.68,0.66c-10.08,0.101-20.17-0.279-30.22,0.19l-0.34,0.53
	c-0.36,13.63,0.17,27.3-0.261,40.939c-3.56-0.18-7.5,0.73-10.83-0.41c-0.92-19.52,0.061-39.149-0.479-58.709
	c0.38-5.681-0.14-11.36,0.229-17.03C192.26,175.47,191.359,171.83,192.439,168.35z"/>
<path fill="#FFFFFF" d="M59.94,177.17c13.25-2.859,28.27,0.061,38.3,9.53c-2.95,2.899-5.47,6.21-8.46,9.08
	c-4.83,4.729-8.88,10.37-14.57,14.14c-1.28,0.13-2.57,0.27-3.85,0.4c-0.24,0.939-0.46,1.88-0.66,2.83
	c-9.87,5.279-20.21,9.84-31.19,12.25c-2.78-11.291-2.42-23.83,2.47-34.51C45.38,183.82,52.29,178.72,59.94,177.17z"/>
<path fill="#FFFFFF" d="M289.51,176.76c7.73-1.6,16.48-0.279,22.55,5.061c6.79,5.729,10.07,14.58,11.011,23.22
	c0.739,8.771,0.37,17.92-3.16,26.11c-2.94,6.819-8.44,12.85-15.66,15.13c-9.061,2.899-19.96,1.159-26.8-5.75
	c-6.25-6.14-8.979-14.99-9.65-23.54c-0.7-9.53,0.3-19.62,5.181-28.021C276.49,182.85,282.52,178.13,289.51,176.76z"/>
<path d="M99.34,185.08c2.45-2.45,4.72-5.061,7.03-7.641c2.54,1.23,5.38,0.83,8.09,0.701c-9.28,11.319-19.64,21.689-30.33,31.67
	c-2.97-0.101-5.95-0.121-8.92,0.109c5.69-3.77,9.74-9.41,14.57-14.14c2.99-2.87,5.51-6.181,8.46-9.08l1.14,0.14
	C99.37,186.4,99.35,185.52,99.34,185.08z"/>
<path d="M126.76,178.18c1.98,0.12,3.96,0.03,5.94-0.07c-2.56,16.19-5.42,32.391-10.36,48.051c-4.81,15.22-9.25,30.58-14.57,45.64
	c-0.85,2.95-2.89,5.271-5.2,7.2h-1.28c-2.61-2.859-0.63-6.5,0.28-9.609c3.48-9.65,6.34-19.511,9.44-29.301
	c2.77-9.1,6-18.06,8.56-27.22C122.7,201.47,125.14,189.88,126.76,178.18z"/>
<path d="M39.51,225.4c10.98-2.41,21.32-6.971,31.19-12.25c-0.08,2.17-0.05,4.35-0.02,6.529c0.52-0.05,1.56-0.14,2.08-0.18
	c-9.18,6.63-20.75,8.01-31.02,12.27C40.9,229.68,40.19,227.54,39.51,225.4z"/>
<path fill="#FFFFFF" d="M72.76,219.5c5.67-0.4,11.37-0.141,17.06-0.109c0.65,7.18,0.25,14.42,0.29,21.629
	c0.34,2.41-2.3,3.141-4.01,3.9c-8.25,3-17.4,3.29-25.96,1.55c-8-1.63-15.28-7.04-18.4-14.7C52.01,227.51,63.58,226.13,72.76,219.5z"
	/>
<path d="M1.08,264.891c2.95-15.15,12.48-29.511,26.94-35.761c0.64,2.24,1.5,4.41,2.55,6.5c-4.37,1.17-8.42,3.351-11.5,6.69
	c3.18,6.6,6.39,13.189,9.49,19.83c0.71,1.459,1.37,3.949-0.64,4.66c-2.5,0.379-3.97-1.961-4.77-3.94c-2.36-5.55-4.5-11.2-7.14-16.63
	c-1.02,1.939-3.26,3.81-2.4,6.21c1.33,5.819,3.52,11.53,3.83,17.54c0.15,2.82-3.74,2.06-4.08-0.11c-1.23-4.38-2.08-8.91-2.3-13.46
	c-0.36,0.16-0.82,0.189-1.08,0.53c-2.08,4.05-3.69,8.319-5.81,12.36c-0.51,0.97-1.25,1.729-2.23,2.27
	C-0.98,270.34,0.85,267.16,1.08,264.891z"/>
</svg>
