<?xml version="1.0" encoding="UTF-8" ?>
<!DOCTYPE svg PUBLIC "-//W3C//DTD SVG 1.1//EN" "http://www.w3.org/Graphics/SVG/1.1/DTD/svg11.dtd">
<svg width="500pt" height="492pt" viewBox="0 0 500 492" version="1.1" xmlns="http://www.w3.org/2000/svg">
<path fill="#fdfdfd" opacity="1.00" d=" M 0.00 0.00 L 500.00 0.00 L 500.00 492.00 L 316.18 492.00 C 317.77 490.03 319.22 487.84 321.38 486.45 C 330.93 485.92 340.52 486.57 350.08 486.15 C 353.60 485.16 357.37 485.73 360.85 484.49 C 370.44 481.31 380.26 478.88 389.92 475.95 C 391.54 475.45 393.00 474.60 394.46 473.77 C 396.05 473.07 397.73 472.41 398.87 471.02 C 402.95 466.69 409.62 466.03 413.43 461.37 C 415.40 459.32 418.08 458.21 420.47 456.73 C 422.15 454.45 425.23 453.72 426.59 451.14 C 427.12 450.83 428.18 450.20 428.71 449.89 C 428.90 449.78 429.27 449.56 429.46 449.45 C 434.07 457.99 446.47 459.67 453.89 453.94 C 456.45 452.00 457.65 448.93 458.53 445.95 C 456.52 445.74 454.52 445.54 452.52 445.37 C 450.89 448.00 449.22 451.31 445.84 451.86 C 441.21 453.18 436.13 450.23 434.47 445.86 C 433.29 443.15 436.50 440.74 438.98 440.88 C 445.56 440.65 452.15 441.02 458.73 440.73 C 459.04 434.25 457.01 427.07 451.14 423.54 C 450.65 423.21 449.66 422.54 449.17 422.21 C 454.35 412.67 458.92 402.81 463.09 392.80 C 467.06 379.89 470.80 366.90 474.62 353.95 C 475.69 344.99 477.61 336.06 477.19 326.98 C 476.92 312.33 478.06 297.59 475.79 283.05 C 475.55 276.87 475.54 270.68 474.62 264.54 C 473.60 261.08 472.42 257.61 472.23 253.97 C 471.79 248.10 469.59 242.58 468.43 236.85 C 467.55 224.71 461.82 213.69 459.39 201.89 C 457.09 191.68 451.54 182.66 448.02 172.90 C 443.45 165.43 440.45 157.03 434.87 150.20 C 430.41 144.30 426.75 137.72 421.31 132.63 C 414.05 125.55 407.25 117.94 398.99 111.98 C 394.20 108.66 389.67 104.94 384.47 102.26 C 376.63 96.93 368.67 91.32 359.51 88.50 C 353.46 84.54 346.59 82.16 339.98 79.34 C 342.89 71.19 346.27 63.22 348.94 55.00 C 347.01 55.01 344.11 53.83 343.25 56.32 C 340.24 62.90 338.70 70.08 335.58 76.61 C 335.22 76.72 334.49 76.95 334.13 77.06 C 330.66 69.87 328.82 62.01 325.54 54.73 C 323.74 54.73 321.94 54.73 320.15 54.73 C 321.94 61.14 324.41 67.36 327.24 73.38 C 327.25 73.82 327.28 74.71 327.29 75.15 C 319.02 72.46 310.68 69.94 302.19 68.02 C 300.01 67.50 297.74 67.62 295.52 67.54 C 295.51 64.85 295.52 62.16 295.54 59.47 C 297.23 59.44 298.92 59.42 300.62 59.40 C 300.61 57.84 300.59 56.28 300.58 54.72 C 298.90 54.72 297.22 54.72 295.54 54.72 C 295.51 51.17 295.50 47.62 295.47 44.08 C 293.75 45.10 291.78 45.86 290.41 47.37 C 289.58 49.56 289.88 51.97 289.75 54.27 C 288.39 54.75 286.99 55.16 285.74 55.89 C 285.90 57.15 286.12 58.40 286.40 59.65 C 287.27 59.56 289.02 59.38 289.89 59.29 C 289.90 61.83 289.90 64.37 289.83 66.91 C 287.03 66.18 284.14 65.88 281.25 65.88 C 281.37 61.24 279.49 55.91 274.42 54.86 C 268.97 54.26 262.64 53.53 258.04 57.20 C 255.67 58.85 255.00 61.83 254.03 64.37 C 255.79 64.47 257.56 64.57 259.34 64.65 C 260.46 62.93 261.16 60.70 263.07 59.67 C 266.00 59.02 269.09 59.05 272.05 59.58 C 274.17 60.12 274.84 62.45 275.80 64.13 C 275.58 64.38 275.13 64.88 274.91 65.13 C 265.73 64.85 256.59 66.11 247.57 67.66 C 247.56 63.43 247.04 58.18 242.89 55.93 C 237.84 52.94 231.59 54.67 226.77 57.29 C 226.73 52.42 226.79 47.54 226.60 42.67 C 224.92 42.71 223.23 42.75 221.54 42.78 C 221.30 52.06 221.54 61.34 221.45 70.63 C 219.59 71.16 217.75 71.73 215.88 72.23 C 214.53 72.22 213.18 72.22 211.83 72.24 C 213.52 66.55 215.47 60.95 216.92 55.20 C 215.23 55.20 213.55 55.20 211.88 55.21 C 209.75 61.21 208.47 67.51 206.07 73.39 C 205.42 73.79 204.13 74.59 203.48 74.99 C 201.62 68.44 200.19 61.78 198.43 55.21 C 196.57 55.25 194.19 53.89 192.74 55.55 C 190.06 63.33 188.78 71.54 185.99 79.29 C 183.52 71.17 181.45 62.94 179.15 54.77 C 177.46 54.73 175.77 54.68 174.08 54.63 C 175.53 63.74 179.13 72.34 181.73 81.16 C 176.20 82.29 171.25 85.10 166.09 87.24 C 160.54 89.95 154.59 91.87 149.40 95.27 C 142.71 99.56 135.72 103.41 129.47 108.36 C 126.07 111.14 122.22 113.27 118.62 115.75 C 113.77 119.88 109.13 124.30 103.87 127.92 C 98.32 131.63 94.47 137.26 89.11 141.20 C 84.37 145.88 78.34 149.01 73.78 153.86 C 69.37 158.77 63.54 162.21 59.67 167.62 C 50.01 178.80 40.39 190.18 33.22 203.17 C 30.26 209.41 26.63 215.34 24.09 221.78 C 22.48 228.21 19.53 234.18 17.66 240.52 C 15.58 246.09 15.35 252.05 13.82 257.75 C 9.58 268.98 9.72 281.17 8.19 292.93 C 8.08 299.95 8.08 306.97 8.19 314.00 C 9.70 324.89 9.36 336.20 13.29 346.63 C 15.11 351.61 15.03 357.06 16.99 361.99 C 19.84 369.31 23.21 376.43 26.39 383.60 C 34.41 397.03 44.91 408.88 56.74 419.08 C 62.58 424.65 68.87 429.77 74.53 435.55 C 83.08 441.14 91.33 447.15 99.69 453.01 C 102.52 454.64 105.53 455.93 108.43 457.42 C 108.68 457.86 109.18 458.73 109.43 459.17 C 111.53 460.02 113.35 461.38 114.65 463.25 C 116.86 464.39 118.90 465.81 120.84 467.35 C 124.13 468.98 128.82 467.71 130.89 471.49 C 131.73 471.91 132.58 472.33 133.43 472.75 C 135.81 474.72 138.85 475.35 141.78 476.02 C 145.19 481.04 147.35 486.73 150.31 492.00 L 0.00 492.00 L 0.00 0.00 M 29.46 43.41 C 29.81 57.81 29.49 72.22 29.63 86.62 C 31.58 86.65 33.52 86.66 35.48 86.67 C 35.49 72.02 35.56 57.38 35.44 42.73 C 33.43 42.74 31.41 42.88 29.46 43.41 M 59.50 61.21 C 60.81 63.99 60.69 67.67 63.45 69.62 C 68.01 72.84 73.83 73.06 78.90 75.05 C 81.01 76.07 81.02 79.04 79.64 80.67 C 77.96 83.16 74.62 83.01 71.98 82.89 C 68.43 82.81 65.88 79.64 64.99 76.46 C 63.33 76.71 61.66 76.99 60.01 77.29 C 60.24 81.92 63.74 85.85 68.06 87.22 C 72.77 87.97 78.07 88.04 82.17 85.25 C 86.19 82.56 88.09 76.25 84.58 72.41 C 80.28 67.52 72.93 68.54 67.60 65.57 C 65.01 64.21 66.17 59.71 68.96 59.49 C 71.64 59.13 74.39 59.10 77.04 59.64 C 78.40 60.78 79.25 62.37 80.17 63.85 C 81.76 63.76 83.36 63.66 84.96 63.56 C 84.67 60.94 84.07 58.05 81.59 56.62 C 78.03 53.67 73.13 54.41 68.88 54.73 C 64.80 55.09 62.34 58.72 59.50 61.21 M 133.54 55.42 C 125.88 58.48 123.47 67.97 124.93 75.43 C 126.08 82.41 132.82 88.40 140.06 87.66 C 145.46 88.07 150.23 84.71 153.17 80.43 C 153.34 79.31 153.51 78.18 153.69 77.06 C 151.86 76.84 150.01 76.70 148.17 76.64 C 146.86 80.01 144.04 83.46 140.01 82.94 C 134.18 83.46 130.54 77.60 130.19 72.42 C 138.11 72.38 146.03 72.50 153.94 72.33 C 153.83 68.07 153.93 63.41 151.11 59.89 C 147.48 54.13 139.48 53.26 133.54 55.42 M 359.88 55.18 C 350.79 59.54 349.61 71.53 352.96 79.99 C 357.07 88.37 369.36 90.28 376.16 84.11 C 380.69 80.57 381.44 74.31 381.18 68.95 C 381.00 64.08 378.55 59.38 374.58 56.54 C 370.26 53.74 364.67 54.09 359.88 55.18 M 407.50 54.72 C 407.13 60.81 407.47 66.91 407.32 73.00 C 407.16 75.70 406.96 78.80 404.74 80.69 C 401.32 84.17 393.54 83.60 392.70 78.04 C 392.36 70.47 392.65 62.87 392.61 55.29 C 390.81 54.79 388.97 54.74 387.15 55.05 C 386.65 63.04 386.39 71.14 387.25 79.11 C 387.44 84.96 393.79 88.24 399.07 87.65 C 402.60 87.85 405.25 85.21 407.70 83.06 C 407.80 84.19 407.90 85.33 408.02 86.46 C 409.50 86.74 410.99 87.04 412.48 87.35 C 412.89 76.49 412.73 65.60 412.55 54.73 C 410.86 54.74 409.18 54.73 407.50 54.72 M 94.70 58.78 C 88.69 66.25 88.93 79.06 96.95 85.06 C 102.21 88.99 109.76 88.27 115.20 85.08 C 117.29 82.85 118.96 80.26 120.02 77.39 C 118.08 77.05 116.12 76.77 114.16 76.61 C 112.85 81.50 107.36 84.54 102.60 82.49 C 98.40 80.98 96.82 76.46 96.19 72.43 C 104.09 72.32 111.99 72.54 119.89 72.31 C 119.80 68.27 119.98 63.87 117.43 60.46 C 115.36 56.74 111.18 54.63 107.01 54.51 C 102.60 54.17 97.52 55.02 94.70 58.78 Z" />
<path fill="#d03444" opacity="1.00" d=" M 221.54 42.78 C 223.23 42.75 224.92 42.71 226.60 42.67 C 226.79 47.54 226.73 52.42 226.77 57.29 C 231.59 54.67 237.84 52.94 242.89 55.93 C 247.04 58.18 247.56 63.43 247.57 67.66 C 247.58 69.60 247.54 71.54 247.52 73.49 C 247.45 77.88 247.46 82.28 247.46 86.68 C 245.52 86.66 243.59 86.64 241.65 86.62 C 241.77 82.37 241.76 78.12 241.71 73.87 C 241.69 72.03 241.72 70.19 241.74 68.35 C 241.83 65.31 241.85 61.55 238.82 59.84 C 235.59 58.92 231.49 59.00 229.10 61.71 C 226.86 63.95 226.92 67.37 227.02 70.31 C 227.14 72.36 227.28 74.40 227.46 76.44 L 228.91 76.28 C 228.15 76.61 227.40 76.96 226.65 77.31 C 226.73 80.44 226.72 83.57 226.70 86.70 C 224.94 86.68 223.19 86.66 221.44 86.63 C 221.44 83.46 221.44 80.29 221.44 77.12 C 221.44 74.96 221.43 72.79 221.45 70.63 C 221.54 61.34 221.30 52.06 221.54 42.78 Z" />
<path fill="#d03444" opacity="1.00" d=" M 29.46 43.41 C 31.41 42.88 33.43 42.74 35.44 42.73 C 35.56 57.38 35.49 72.02 35.48 86.67 C 33.52 86.66 31.58 86.65 29.63 86.62 C 29.49 72.22 29.81 57.81 29.46 43.41 Z" />
<path fill="#d03444" opacity="1.00" d=" M 290.41 47.37 C 291.78 45.86 293.75 45.10 295.47 44.08 C 295.50 47.62 295.51 51.17 295.54 54.72 C 297.22 54.72 298.90 54.72 300.58 54.72 C 300.59 56.28 300.61 57.84 300.62 59.40 C 298.92 59.42 297.23 59.44 295.54 59.47 C 295.52 62.16 295.51 64.85 295.52 67.54 C 295.52 69.38 295.51 71.21 295.51 73.05 C 295.50 75.81 295.54 78.56 295.62 81.31 C 297.35 81.70 299.08 82.08 300.81 82.47 C 301.04 84.09 301.25 85.71 301.47 87.33 C 298.01 87.12 293.46 88.10 291.05 84.93 C 289.68 81.01 289.90 76.73 289.73 72.63 C 289.73 70.72 289.77 68.81 289.83 66.91 C 289.90 64.37 289.90 61.83 289.89 59.29 C 289.02 59.38 287.27 59.56 286.40 59.65 C 286.12 58.40 285.90 57.15 285.74 55.89 C 286.99 55.16 288.39 54.75 289.75 54.27 C 289.88 51.97 289.58 49.56 290.41 47.37 Z" />
<path fill="#d03444" opacity="1.00" d=" M 59.50 61.21 C 62.34 58.72 64.80 55.09 68.88 54.73 C 73.13 54.41 78.03 53.67 81.59 56.62 C 84.07 58.05 84.67 60.94 84.96 63.56 C 83.36 63.66 81.76 63.76 80.17 63.85 C 79.25 62.37 78.40 60.78 77.04 59.64 C 74.39 59.10 71.64 59.13 68.96 59.49 C 66.17 59.71 65.01 64.21 67.60 65.57 C 72.93 68.54 80.28 67.52 84.58 72.41 C 88.09 76.25 86.19 82.56 82.17 85.25 C 78.07 88.04 72.77 87.97 68.06 87.22 C 63.74 85.85 60.24 81.92 60.01 77.29 C 61.66 76.99 63.33 76.71 64.99 76.46 C 65.88 79.64 68.43 82.81 71.98 82.89 C 74.62 83.01 77.96 83.16 79.64 80.67 C 81.02 79.04 81.01 76.07 78.90 75.05 C 73.83 73.06 68.01 72.84 63.45 69.62 C 60.69 67.67 60.81 63.99 59.50 61.21 Z" />
<path fill="#d03444" opacity="1.00" d=" M 133.54 55.42 C 139.48 53.26 147.48 54.13 151.11 59.89 C 153.93 63.41 153.83 68.07 153.94 72.33 C 146.03 72.50 138.11 72.38 130.19 72.42 C 130.54 77.60 134.18 83.46 140.01 82.94 C 144.04 83.46 146.86 80.01 148.17 76.64 C 150.01 76.70 151.86 76.84 153.69 77.06 C 153.51 78.18 153.34 79.31 153.17 80.43 C 150.23 84.71 145.46 88.07 140.06 87.66 C 132.82 88.40 126.08 82.41 124.93 75.43 C 123.47 67.97 125.88 58.48 133.54 55.42 M 131.02 67.62 C 136.69 67.68 142.37 67.66 148.04 67.65 C 147.85 65.34 147.45 62.88 145.62 61.25 C 143.29 58.48 139.21 59.19 136.04 59.52 C 132.88 60.90 130.81 64.14 131.02 67.62 Z" />
<path fill="#d03444" opacity="1.00" d=" M 174.08 54.63 C 175.77 54.68 177.46 54.73 179.15 54.77 C 181.45 62.94 183.52 71.17 185.99 79.29 C 188.78 71.54 190.06 63.33 192.74 55.55 C 194.19 53.89 196.57 55.25 198.43 55.21 C 200.19 61.78 201.62 68.44 203.48 74.99 C 204.13 74.59 205.42 73.79 206.07 73.39 C 208.47 67.51 209.75 61.21 211.88 55.21 C 213.55 55.20 215.23 55.20 216.92 55.20 C 215.47 60.95 213.52 66.55 211.83 72.24 C 213.18 72.22 214.53 72.22 215.88 72.23 L 215.67 72.54 C 214.36 72.70 213.06 72.82 211.75 72.91 C 210.93 75.02 210.10 77.23 210.43 79.54 C 208.44 81.36 208.24 84.19 207.55 86.63 C 205.50 86.65 203.45 86.65 201.41 86.66 C 201.03 85.23 200.65 83.81 200.29 82.38 C 199.85 80.64 199.44 78.89 198.95 77.15 C 198.41 77.14 197.34 77.12 196.81 77.11 C 197.29 76.72 198.25 75.93 198.73 75.53 C 197.47 71.41 196.41 67.24 195.23 63.10 C 194.05 68.20 192.54 73.21 191.41 78.32 C 190.73 80.89 190.02 83.48 188.80 85.85 C 186.91 86.39 184.91 86.10 182.98 86.17 C 182.58 84.50 182.21 82.82 181.73 81.16 C 179.13 72.34 175.53 63.74 174.08 54.63 Z" />
<path fill="#d03444" opacity="1.00" d=" M 258.04 57.20 C 262.64 53.53 268.97 54.26 274.42 54.86 C 279.49 55.91 281.37 61.24 281.25 65.88 C 281.28 67.77 281.23 69.66 281.19 71.56 C 280.95 76.65 281.32 81.75 281.89 86.81 C 280.27 86.70 278.66 86.59 277.05 86.48 C 276.58 85.49 276.08 84.51 275.55 83.55 C 271.93 85.49 268.31 88.05 263.98 87.66 C 259.27 88.08 254.07 84.95 253.53 79.98 C 252.94 77.24 254.40 74.72 255.29 72.22 C 256.73 71.53 258.14 70.76 259.55 70.02 C 259.65 69.58 259.76 69.14 259.86 68.70 C 264.89 68.14 271.30 69.39 274.91 65.13 C 275.13 64.88 275.58 64.38 275.80 64.13 C 274.84 62.45 274.17 60.12 272.05 59.58 C 269.09 59.05 266.00 59.02 263.07 59.67 C 261.16 60.70 260.46 62.93 259.34 64.65 C 257.56 64.57 255.79 64.47 254.03 64.37 C 255.00 61.83 255.67 58.85 258.04 57.20 M 262.99 73.63 C 260.12 74.43 258.47 77.74 259.56 80.52 C 262.62 84.68 269.01 83.71 272.57 80.71 C 275.44 78.51 275.41 74.59 275.47 71.32 C 271.35 72.30 267.15 72.87 262.99 73.63 Z" />
<path fill="#d03444" opacity="1.00" d=" M 320.15 54.73 C 321.94 54.73 323.74 54.73 325.54 54.73 C 328.82 62.01 330.66 69.87 334.13 77.06 C 334.49 76.95 335.22 76.72 335.58 76.61 C 338.70 70.08 340.24 62.90 343.25 56.32 C 344.11 53.83 347.01 55.01 348.94 55.00 C 346.27 63.22 342.89 71.19 339.98 79.34 C 339.27 81.29 338.56 83.25 337.83 85.20 C 336.00 89.67 334.88 94.78 331.18 98.16 C 328.89 100.36 325.50 99.35 322.67 99.41 C 322.56 97.76 322.44 96.12 322.32 94.48 C 324.37 94.23 326.72 94.77 328.53 93.59 C 331.62 90.86 332.35 86.19 330.54 82.53 C 329.13 79.60 328.17 76.49 327.24 73.38 C 324.41 67.36 321.94 61.14 320.15 54.73 Z" />
<path fill="#d03444" opacity="1.00" d=" M 359.88 55.18 C 364.67 54.09 370.26 53.74 374.58 56.54 C 378.55 59.38 381.00 64.08 381.18 68.95 C 381.44 74.31 380.69 80.57 376.16 84.11 C 369.36 90.28 357.07 88.37 352.96 79.99 C 349.61 71.53 350.79 59.54 359.88 55.18 M 361.39 60.28 C 356.21 63.60 356.93 70.68 357.54 75.98 C 358.67 83.27 369.36 85.59 373.47 79.50 C 375.96 74.86 376.21 69.00 374.32 64.09 C 372.31 59.21 365.68 57.94 361.39 60.28 Z" />
<path fill="#d03444" opacity="1.00" d=" M 407.50 54.72 C 409.18 54.73 410.86 54.74 412.55 54.73 C 412.73 65.60 412.89 76.49 412.48 87.35 C 410.99 87.04 409.50 86.74 408.02 86.46 C 407.90 85.33 407.80 84.19 407.70 83.06 C 405.25 85.21 402.60 87.85 399.07 87.65 C 393.79 88.24 387.44 84.96 387.25 79.11 C 386.39 71.14 386.65 63.04 387.15 55.05 C 388.97 54.74 390.81 54.79 392.61 55.29 C 392.65 62.87 392.36 70.47 392.70 78.04 C 393.54 83.60 401.32 84.17 404.74 80.69 C 406.96 78.80 407.16 75.70 407.32 73.00 C 407.47 66.91 407.13 60.81 407.50 54.72 Z" />
<path fill="#d03444" opacity="1.00" d=" M 94.70 58.78 C 97.52 55.02 102.60 54.17 107.01 54.51 C 111.18 54.63 115.36 56.74 117.43 60.46 C 119.98 63.87 119.80 68.27 119.89 72.31 C 111.99 72.54 104.09 72.32 96.19 72.43 C 96.82 76.46 98.40 80.98 102.60 82.49 C 107.36 84.54 112.85 81.50 114.16 76.61 C 116.12 76.77 118.08 77.05 120.02 77.39 C 118.96 80.26 117.29 82.85 115.20 85.08 C 109.76 88.27 102.21 88.99 96.95 85.06 C 88.93 79.06 88.69 66.25 94.70 58.78 M 96.79 67.50 C 102.61 67.76 108.44 67.74 114.26 67.53 C 113.70 65.09 113.26 62.29 111.14 60.66 C 108.50 58.73 104.96 59.16 101.92 59.62 C 98.77 60.96 97.12 64.24 96.79 67.50 Z" />
<path fill="#fdfdfd" opacity="1.00" d=" M 131.02 67.62 C 130.81 64.14 132.88 60.90 136.04 59.52 C 139.21 59.19 143.29 58.48 145.62 61.25 C 147.45 62.88 147.85 65.34 148.04 67.65 C 142.37 67.66 136.69 67.68 131.02 67.62 Z" />
<path fill="#fdfdfd" opacity="1.00" d=" M 96.79 67.50 C 97.12 64.24 98.77 60.96 101.92 59.62 C 104.96 59.16 108.50 58.73 111.14 60.66 C 113.26 62.29 113.70 65.09 114.26 67.53 C 108.44 67.74 102.61 67.76 96.79 67.50 Z" />
<path fill="#fdfdfd" opacity="1.00" d=" M 229.10 61.71 C 231.49 59.00 235.59 58.92 238.82 59.84 C 241.85 61.55 241.83 65.31 241.74 68.35 C 236.73 68.00 231.87 69.28 227.02 70.31 C 226.92 67.37 226.86 63.95 229.10 61.71 Z" />
<path fill="#fdfdfd" opacity="1.00" d=" M 361.39 60.28 C 365.68 57.94 372.31 59.21 374.32 64.09 C 376.21 69.00 375.96 74.86 373.47 79.50 C 369.36 85.59 358.67 83.27 357.54 75.98 C 356.93 70.68 356.21 63.60 361.39 60.28 Z" />
<path fill="#fdfdfd" opacity="1.00" d=" M 195.23 63.10 C 196.41 67.24 197.47 71.41 198.73 75.53 C 198.25 75.93 197.29 76.72 196.81 77.11 C 195.00 77.49 193.20 77.89 191.41 78.32 C 192.54 73.21 194.05 68.20 195.23 63.10 Z" />
<path fill="#020202" opacity="1.00" d=" M 247.57 67.66 C 256.59 66.11 265.73 64.85 274.91 65.13 C 271.30 69.39 264.89 68.14 259.86 68.70 C 259.76 69.14 259.65 69.58 259.55 70.02 C 258.14 70.76 256.73 71.53 255.29 72.22 C 252.71 72.69 250.12 73.13 247.52 73.49 C 247.54 71.54 247.58 69.60 247.57 67.66 Z" />
<path fill="#020202" opacity="1.00" d=" M 281.25 65.88 C 284.14 65.88 287.03 66.18 289.83 66.91 C 289.77 68.81 289.73 70.72 289.73 72.63 C 286.86 72.46 284.02 72.02 281.19 71.56 C 281.23 69.66 281.28 67.77 281.25 65.88 Z" />
<path fill="#020202" opacity="1.00" d=" M 295.52 67.54 C 297.74 67.62 300.01 67.50 302.19 68.02 C 310.68 69.94 319.02 72.46 327.29 75.15 C 327.28 74.71 327.25 73.82 327.24 73.38 C 328.17 76.49 329.13 79.60 330.54 82.53 C 318.97 79.05 307.48 74.95 295.51 73.05 C 295.51 71.21 295.52 69.38 295.52 67.54 Z" />
<path fill="#020202" opacity="1.00" d=" M 227.02 70.31 C 231.87 69.28 236.73 68.00 241.74 68.35 C 241.72 70.19 241.69 72.03 241.71 73.87 C 237.37 74.23 233.15 75.35 228.91 76.28 L 227.46 76.44 C 227.28 74.40 227.14 72.36 227.02 70.31 Z" />
<path fill="#020202" opacity="1.00" d=" M 215.88 72.23 C 217.75 71.73 219.59 71.16 221.45 70.63 C 221.43 72.79 221.44 74.96 221.44 77.12 C 217.73 77.75 214.05 78.54 210.43 79.54 C 210.10 77.23 210.93 75.02 211.75 72.91 C 213.06 72.82 214.36 72.70 215.67 72.54 L 215.88 72.23 Z" />
<path fill="#fdfdfd" opacity="1.00" d=" M 262.99 73.63 C 267.15 72.87 271.35 72.30 275.47 71.32 C 275.41 74.59 275.44 78.51 272.57 80.71 C 269.01 83.71 262.62 84.68 259.56 80.52 C 258.47 77.74 260.12 74.43 262.99 73.63 Z" />
<path fill="#fdfdfd" opacity="1.00" d=" M 247.52 73.49 C 250.12 73.13 252.71 72.69 255.29 72.22 C 254.40 74.72 252.94 77.24 253.53 79.98 C 254.07 84.95 259.27 88.08 263.98 87.66 C 268.31 88.05 271.93 85.49 275.55 83.55 C 276.08 84.51 276.58 85.49 277.05 86.48 C 278.66 86.59 280.27 86.70 281.89 86.81 C 281.32 81.75 280.95 76.65 281.19 71.56 C 284.02 72.02 286.86 72.46 289.73 72.63 C 289.90 76.73 289.68 81.01 291.05 84.93 C 293.46 88.10 298.01 87.12 301.47 87.33 C 301.25 85.71 301.04 84.09 300.81 82.47 C 299.08 82.08 297.35 81.70 295.62 81.31 C 295.54 78.56 295.50 75.81 295.51 73.05 C 307.48 74.95 318.97 79.05 330.54 82.53 C 332.35 86.19 331.62 90.86 328.53 93.59 C 326.72 94.77 324.37 94.23 322.32 94.48 C 322.44 96.12 322.56 97.76 322.67 99.41 C 325.50 99.35 328.89 100.36 331.18 98.16 C 334.88 94.78 336.00 89.67 337.83 85.20 C 344.51 87.84 351.22 90.56 357.39 94.29 C 366.93 97.22 374.81 103.60 383.48 108.31 C 389.80 113.03 396.51 117.25 402.44 122.47 C 407.30 126.25 411.25 131.01 415.73 135.21 C 419.95 139.07 422.92 143.99 426.27 148.57 C 429.65 153.39 433.51 157.94 435.92 163.36 C 437.95 168.07 440.93 172.29 443.08 176.93 C 446.76 187.34 452.89 196.94 454.52 208.02 C 455.55 213.45 458.28 218.36 459.38 223.77 C 460.35 228.19 462.44 232.37 462.55 236.96 C 462.85 242.86 465.33 248.34 466.39 254.11 C 466.94 262.17 469.99 269.87 469.89 278.01 C 469.47 285.74 471.75 293.30 471.52 301.02 C 471.43 311.68 471.59 322.35 471.46 333.01 C 470.75 339.31 469.70 345.58 468.72 351.85 C 465.17 364.83 461.12 377.67 457.34 390.58 C 454.66 395.34 453.70 400.90 450.54 405.40 C 449.55 408.24 448.28 410.98 446.51 413.42 C 445.62 415.64 444.71 417.86 443.64 420.00 C 443.03 420.55 442.42 421.10 441.80 421.65 C 438.00 422.17 433.95 423.30 431.52 426.50 C 427.75 430.72 427.21 436.59 427.26 442.00 C 423.77 447.11 418.68 450.60 413.62 453.98 C 413.84 448.31 413.45 442.64 413.72 436.99 C 413.98 433.95 414.41 430.53 416.96 428.49 C 419.59 428.05 422.27 428.29 424.92 428.33 C 425.35 426.71 425.88 425.12 426.18 423.49 C 423.86 421.78 420.77 421.49 418.00 421.91 C 415.62 422.70 414.27 425.01 412.68 426.79 C 412.87 425.31 413.01 423.82 413.16 422.35 C 411.37 422.31 409.59 422.27 407.80 422.24 C 407.41 433.45 407.71 444.67 407.65 455.89 C 408.40 456.11 409.89 456.56 410.63 456.78 C 406.36 459.48 401.53 461.28 397.65 464.60 C 390.53 470.57 381.04 471.78 372.51 474.63 C 365.27 476.15 358.45 479.53 351.01 479.99 C 342.73 481.16 334.33 480.38 326.00 480.61 C 321.18 480.41 316.19 481.26 311.53 479.67 C 308.03 482.79 308.24 487.85 306.80 492.00 L 157.19 492.00 C 153.81 485.94 151.49 479.27 147.34 473.66 C 145.47 470.82 142.05 470.05 139.08 468.90 C 134.85 467.35 131.70 463.83 127.45 462.34 C 124.90 461.08 121.74 461.27 119.60 459.21 C 114.29 454.81 108.89 450.38 102.55 447.53 C 94.38 442.06 86.57 436.06 78.28 430.76 C 74.68 428.43 72.19 424.82 68.79 422.24 C 65.11 419.51 62.28 415.82 58.57 413.11 C 48.38 404.05 39.62 393.42 32.45 381.85 C 28.35 372.31 23.26 363.06 20.84 352.90 C 19.86 344.09 15.42 335.99 15.44 327.02 C 14.39 316.02 13.14 304.97 14.11 293.91 C 15.37 283.75 15.12 273.31 18.49 263.53 C 20.16 259.01 20.51 254.17 21.56 249.51 C 22.79 245.64 23.57 241.65 25.02 237.86 C 28.14 231.14 29.37 223.76 32.88 217.20 C 36.35 211.46 38.65 205.09 42.52 199.59 C 49.64 187.99 58.76 177.89 67.53 167.56 C 69.52 165.57 72.01 164.11 73.80 161.91 C 77.82 156.81 83.66 153.72 88.54 149.57 C 91.83 146.44 95.81 143.99 98.37 140.16 C 105.68 133.78 113.76 128.36 120.81 121.67 C 135.37 112.05 149.13 100.77 165.52 94.33 C 172.89 91.18 180.05 86.92 188.21 86.33 C 191.75 83.77 196.27 83.72 200.29 82.38 C 200.65 83.81 201.03 85.23 201.41 86.66 C 203.45 86.65 205.50 86.65 207.55 86.63 C 208.24 84.19 208.44 81.36 210.43 79.54 C 214.05 78.54 217.73 77.75 221.44 77.12 C 221.44 80.29 221.44 83.46 221.44 86.63 C 223.19 86.66 224.94 86.68 226.70 86.70 C 226.72 83.57 226.73 80.44 226.65 77.31 C 227.40 76.96 228.15 76.61 228.91 76.28 C 233.15 75.35 237.37 74.23 241.71 73.87 C 241.76 78.12 241.77 82.37 241.65 86.62 C 243.59 86.64 245.52 86.66 247.46 86.68 C 247.46 82.28 247.45 77.88 247.52 73.49 M 183.26 94.19 C 181.93 94.95 181.90 95.63 183.18 96.22 C 184.52 95.46 184.54 94.78 183.26 94.19 M 195.45 108.31 C 191.01 111.34 185.74 112.68 181.40 115.90 C 181.51 117.25 181.93 118.50 183.21 119.18 C 186.71 115.94 191.45 114.21 196.22 114.82 L 196.16 113.38 C 201.10 111.84 206.38 112.38 211.47 112.55 C 214.62 114.00 215.61 117.72 217.96 120.06 C 220.07 123.19 223.46 125.01 226.10 127.61 C 228.08 127.94 229.86 129.15 231.83 129.37 C 233.00 127.70 234.46 126.29 236.03 125.01 C 236.39 117.45 228.59 113.42 227.32 106.41 C 224.62 103.96 220.19 102.55 216.78 104.36 C 215.91 103.73 215.02 103.13 214.12 102.55 C 207.92 104.48 201.14 104.81 195.45 108.31 M 369.40 117.43 C 365.38 120.65 360.14 122.43 356.93 126.62 C 355.55 129.68 351.23 133.34 354.83 136.45 C 353.92 137.43 353.87 138.38 354.68 139.31 C 356.95 141.67 360.85 141.29 363.49 139.72 C 368.30 136.30 372.58 131.72 374.90 126.27 C 378.03 126.27 381.19 126.38 384.28 125.75 C 384.69 126.10 385.51 126.80 385.92 127.15 C 387.30 126.54 388.75 126.53 390.09 127.29 C 391.13 126.73 392.80 126.53 392.63 124.98 C 392.39 123.61 390.88 122.86 390.09 121.80 C 389.15 122.24 388.22 122.67 387.29 123.11 C 385.18 121.13 383.41 118.85 381.73 116.50 C 379.43 117.09 377.09 116.60 374.98 115.60 C 373.29 116.72 371.44 117.47 369.40 117.43 M 178.93 153.73 C 173.43 154.08 167.70 154.39 162.65 156.84 C 157.91 159.16 152.43 160.30 148.74 164.36 C 148.32 164.51 147.48 164.82 147.06 164.97 C 146.85 165.43 146.43 166.33 146.22 166.78 C 141.50 170.22 137.78 174.76 133.55 178.75 C 127.73 184.02 124.47 191.34 121.39 198.39 C 120.84 198.55 119.75 198.85 119.20 199.00 C 118.32 199.93 116.63 200.33 116.36 201.70 C 116.70 202.88 117.07 204.05 117.45 205.22 C 119.87 204.93 121.76 206.78 124.08 206.91 C 125.53 207.09 126.05 205.56 126.73 204.62 C 124.99 204.48 123.25 204.40 121.52 204.27 C 122.56 202.32 124.79 201.81 126.51 200.66 C 134.40 198.27 140.26 191.69 148.59 190.45 C 153.05 188.02 157.93 186.50 162.62 184.57 C 164.70 183.65 166.91 183.18 169.18 183.09 C 180.31 180.57 191.73 180.59 203.08 180.94 C 205.69 181.44 208.33 181.79 211.00 181.67 L 211.02 183.30 C 215.96 183.34 220.92 183.05 225.85 183.42 C 229.48 184.21 233.24 184.35 236.93 183.92 C 237.96 183.08 237.73 181.72 237.85 180.56 C 235.71 176.88 233.79 173.08 231.01 169.83 C 228.85 165.71 224.68 163.37 221.10 160.65 C 218.45 160.40 216.09 159.12 213.63 158.25 C 210.97 157.82 208.54 156.66 206.06 155.70 C 200.66 155.74 195.35 154.75 190.01 154.08 C 186.31 153.85 182.59 152.40 178.93 153.73 M 381.47 166.37 C 380.45 166.71 379.43 167.00 378.41 167.26 C 372.28 168.46 367.81 172.98 362.40 175.70 C 361.38 176.90 360.53 178.25 359.40 179.36 C 357.76 181.19 354.86 182.02 354.71 184.85 C 353.58 185.96 352.43 187.04 351.29 188.13 C 352.87 189.41 354.67 191.33 356.92 190.40 C 361.22 188.96 365.51 190.71 369.84 190.79 C 374.90 192.15 380.23 191.04 385.40 191.48 C 387.47 192.53 389.84 192.10 392.07 192.29 C 395.93 192.69 399.70 193.69 403.51 194.44 C 408.29 194.89 413.22 194.88 417.85 196.25 C 418.50 196.27 419.80 196.33 420.45 196.36 C 427.64 199.62 436.49 200.36 442.07 206.35 C 442.56 205.97 443.53 205.20 444.02 204.82 C 443.95 204.20 443.79 202.98 443.72 202.37 C 441.01 199.02 440.59 194.40 437.20 191.51 C 431.11 181.79 421.09 175.65 411.67 169.56 C 406.28 168.38 401.31 165.81 395.93 164.59 C 391.07 164.26 386.14 165.07 381.47 166.37 M 234.71 168.20 C 234.64 168.65 234.51 169.56 234.44 170.01 C 237.56 170.01 238.17 173.67 240.10 175.51 C 240.18 176.87 240.24 178.25 240.30 179.62 C 240.63 180.14 241.30 181.17 241.63 181.69 C 242.60 181.38 243.63 181.16 244.49 180.56 L 242.41 180.84 C 242.54 179.40 242.64 177.96 242.69 176.53 C 242.16 175.32 241.68 174.09 241.18 172.87 C 240.72 172.80 239.81 172.65 239.35 172.57 C 238.15 170.78 236.59 169.26 234.71 168.20 M 350.69 177.07 C 348.66 180.81 347.20 184.95 347.71 189.27 C 349.25 187.89 349.36 185.78 349.44 183.85 C 350.50 182.10 351.32 180.19 352.74 178.68 C 351.99 178.21 351.31 177.67 350.69 177.07 M 240.57 184.00 C 239.61 189.01 234.07 191.15 233.05 196.06 C 232.22 196.13 230.56 196.26 229.73 196.33 C 229.35 197.23 228.98 198.13 228.63 199.04 C 230.59 198.52 232.64 198.21 234.53 197.42 C 237.85 194.47 240.83 191.12 243.51 187.57 C 243.52 186.46 243.54 185.34 243.57 184.23 C 242.56 184.15 241.56 184.08 240.57 184.00 M 348.07 190.67 C 348.33 192.67 350.40 192.87 351.88 193.41 C 354.47 197.03 357.18 200.55 360.27 203.76 C 362.25 207.67 365.67 210.50 368.23 214.00 C 372.87 220.57 380.23 224.40 387.30 227.80 C 391.34 227.63 394.42 230.96 398.43 230.77 C 396.48 228.99 393.42 229.33 391.39 227.52 C 393.03 227.25 394.91 227.56 396.31 226.46 C 393.01 225.76 388.44 228.00 386.41 224.47 C 382.54 223.57 379.45 220.98 376.23 218.79 C 371.04 215.31 368.22 209.50 363.73 205.29 C 362.19 201.75 359.12 199.40 356.73 196.49 C 359.30 196.94 361.81 197.68 364.39 198.07 C 362.67 196.53 360.49 195.68 358.29 195.09 C 355.91 191.86 352.13 189.98 348.07 190.67 M 110.46 196.41 C 107.91 197.97 104.61 198.66 102.87 201.27 C 107.08 201.63 110.18 198.21 114.22 197.74 C 112.72 200.82 110.11 203.10 107.65 205.41 C 107.12 206.95 105.52 208.86 107.90 209.74 C 110.11 206.36 113.13 203.52 115.49 200.22 C 115.93 199.91 116.79 199.30 117.22 199.00 C 116.82 197.80 116.48 196.58 116.18 195.35 C 114.41 196.26 112.42 196.33 110.46 196.41 M 225.74 202.99 C 223.34 205.44 218.73 206.14 217.91 209.72 C 220.00 207.98 222.30 206.53 224.48 204.91 C 226.60 203.24 228.90 201.80 231.02 200.12 C 228.69 199.79 227.13 201.38 225.74 202.99 M 223.83 210.23 C 227.52 207.88 231.31 204.96 233.12 200.84 C 230.34 204.29 226.64 206.81 223.83 210.23 M 123.19 209.50 C 127.54 215.33 135.82 214.50 141.91 217.30 C 144.46 218.77 147.30 219.56 150.00 220.68 C 151.51 220.84 153.98 221.58 154.29 219.43 C 152.26 219.10 150.22 218.70 148.44 217.61 C 147.90 217.54 146.80 217.40 146.26 217.33 C 141.36 213.02 134.21 214.41 128.88 211.09 C 127.13 210.07 125.30 208.99 123.19 209.50 M 443.76 212.84 C 441.43 217.11 438.59 221.05 435.58 224.86 C 435.69 225.40 435.92 226.47 436.03 227.00 C 438.94 224.86 440.95 221.82 442.80 218.78 C 444.63 215.90 446.66 212.64 446.13 209.08 C 444.24 209.16 444.28 211.53 443.76 212.84 M 234.55 245.91 C 234.07 245.92 233.11 245.95 232.63 245.96 C 233.13 244.50 233.60 243.03 234.05 241.55 C 232.28 242.77 231.31 245.40 232.87 247.28 L 231.18 246.01 C 231.23 249.97 229.02 253.40 227.88 257.06 C 230.35 255.44 230.55 252.33 231.51 249.81 C 233.02 248.09 234.71 246.53 236.11 244.72 C 236.61 243.41 236.65 241.98 237.06 240.65 C 235.25 241.82 235.08 244.02 234.55 245.91 M 222.78 252.51 C 220.43 254.88 217.82 256.98 215.64 259.52 C 213.42 260.82 210.70 261.12 208.65 262.73 C 207.27 263.84 205.96 265.03 204.47 265.99 C 204.40 266.97 204.33 267.96 204.26 268.95 C 200.31 270.18 199.26 274.86 196.31 277.43 C 195.64 283.39 192.38 288.94 192.23 295.06 C 192.93 297.71 192.67 301.06 195.49 302.51 C 195.79 300.33 195.35 298.33 194.18 296.52 C 195.87 297.14 197.61 297.40 199.40 297.29 C 199.42 297.86 199.46 299.01 199.48 299.58 C 202.72 301.32 206.44 300.40 209.93 300.33 C 214.29 303.26 220.22 304.23 223.08 308.96 C 224.99 311.42 227.52 313.26 230.27 314.68 C 234.39 316.65 236.38 321.36 240.61 323.15 C 245.74 325.24 249.33 329.72 254.40 331.96 C 256.79 332.85 259.03 334.06 261.40 335.02 C 268.15 337.12 274.48 341.27 281.83 340.63 C 286.75 342.57 291.93 343.47 297.10 344.44 C 301.91 346.35 307.21 344.41 312.04 346.19 C 317.91 344.78 324.09 345.03 330.07 344.17 C 333.91 342.69 338.01 343.00 342.03 342.83 C 346.71 341.99 351.34 340.83 355.94 339.59 C 359.65 338.45 362.44 335.57 364.58 332.45 C 369.50 326.42 374.44 320.09 376.40 312.41 C 378.19 308.57 379.33 302.53 384.33 302.00 C 384.36 304.87 384.36 307.74 384.28 310.62 C 385.57 310.90 386.97 311.12 387.92 312.15 C 387.65 313.75 383.62 316.21 387.92 315.74 C 387.52 317.99 386.33 320.01 385.94 322.27 C 389.25 320.11 387.65 315.73 389.50 312.97 C 388.66 311.41 387.66 309.94 386.82 308.38 C 387.53 308.46 388.95 308.61 389.66 308.68 C 389.39 307.72 388.85 305.78 388.58 304.82 C 388.47 303.38 388.46 301.95 388.20 300.54 C 386.85 294.83 388.22 288.89 387.39 283.13 C 386.17 278.81 387.15 274.31 385.76 270.01 C 384.23 266.91 381.43 265.08 378.65 263.25 C 377.55 261.16 375.66 259.99 373.34 259.67 C 372.04 258.69 370.62 257.85 369.43 256.75 C 368.87 255.37 369.15 253.39 367.45 252.81 L 367.07 255.19 C 365.03 253.38 365.05 249.43 362.12 248.85 C 364.26 251.83 365.57 255.31 367.75 258.27 C 369.85 260.66 373.02 261.53 375.78 262.92 C 376.64 266.32 380.94 266.38 382.54 269.24 C 385.13 272.00 384.50 275.97 384.38 279.43 C 385.62 282.50 385.15 285.88 385.18 289.10 C 385.17 292.01 382.79 294.57 383.91 297.54 C 382.52 296.80 380.86 296.98 379.45 296.30 C 375.44 295.30 372.91 291.70 369.64 289.43 C 362.37 282.23 354.21 276.01 346.62 269.19 C 340.18 267.92 334.60 263.53 327.86 263.75 C 320.46 261.28 312.61 262.59 304.97 262.25 C 299.59 261.94 294.73 264.65 289.61 265.75 C 282.50 267.97 275.81 271.33 268.99 274.26 C 266.92 274.35 265.11 275.29 263.59 276.66 C 260.73 277.63 257.82 278.55 255.10 279.86 C 247.81 285.63 239.03 289.49 229.91 291.20 C 227.05 292.56 224.40 294.73 221.10 294.85 C 216.74 294.92 212.32 295.16 208.04 294.15 C 204.60 293.75 201.39 292.11 197.87 292.38 C 197.87 288.59 197.92 284.80 197.83 281.01 C 199.06 278.79 199.95 276.09 202.47 275.00 C 203.49 273.52 204.20 271.79 205.53 270.55 C 208.11 269.24 210.55 267.67 212.72 265.74 C 216.70 261.17 221.08 256.83 225.95 253.20 C 225.01 255.56 223.72 257.75 222.70 260.07 C 223.18 259.77 224.16 259.18 224.65 258.88 C 225.63 255.61 226.88 252.41 228.66 249.48 L 226.99 249.87 C 227.25 248.43 227.51 246.99 227.71 245.54 C 226.00 247.81 224.85 250.51 222.78 252.51 M 349.64 247.16 C 349.74 248.89 352.85 248.95 352.97 247.19 C 352.73 245.67 349.99 245.76 349.64 247.16 M 228.18 248.54 C 228.87 249.20 228.87 249.20 228.18 248.54 M 355.98 250.26 C 358.16 251.02 361.07 251.58 360.83 254.53 C 361.67 255.67 362.48 256.88 363.61 257.78 C 362.47 255.13 361.11 252.58 359.74 250.04 C 358.48 250.11 357.22 250.19 355.98 250.26 M 190.44 301.88 C 193.61 305.06 194.71 309.59 196.63 313.52 C 196.98 313.67 197.67 313.96 198.02 314.10 C 197.31 312.52 196.51 310.98 195.72 309.44 C 194.36 306.21 192.88 303.04 191.31 299.91 C 191.02 300.56 190.73 301.22 190.44 301.88 M 196.13 306.30 C 194.60 309.29 199.44 306.49 196.13 306.30 M 190.73 309.48 C 192.49 312.41 196.12 315.17 195.10 318.96 C 195.81 318.80 197.25 318.47 197.96 318.31 C 196.14 315.90 193.52 313.39 193.52 310.23 C 192.59 309.97 191.66 309.72 190.73 309.48 M 389.77 319.74 C 388.46 322.02 387.92 324.60 387.29 327.12 C 388.02 326.35 388.64 325.48 389.31 324.66 C 389.02 320.77 392.72 317.75 391.69 313.76 C 390.82 315.68 390.41 317.74 389.77 319.74 M 234.56 409.50 C 234.59 414.87 234.39 420.24 234.63 425.62 C 230.76 421.20 224.19 420.75 219.02 422.86 C 214.99 424.66 212.63 428.88 211.67 433.02 C 210.40 439.63 210.66 447.35 215.44 452.58 C 219.33 457.13 226.52 458.85 231.73 455.57 C 233.35 454.84 233.79 452.60 235.56 452.21 C 235.27 453.56 234.80 454.87 234.45 456.22 C 236.50 456.22 238.56 456.17 240.62 456.04 C 240.42 440.50 240.71 424.96 240.46 409.43 C 238.49 409.43 236.52 409.46 234.56 409.50 M 249.11 409.43 C 248.97 411.72 248.89 414.03 248.86 416.34 C 250.96 416.35 253.07 416.34 255.19 416.31 C 255.16 414.00 255.06 411.69 254.91 409.39 C 252.98 409.41 251.04 409.42 249.11 409.43 M 285.05 409.39 C 284.55 414.63 285.02 419.89 284.65 425.13 C 280.46 421.13 274.10 420.82 268.97 423.03 C 264.22 425.41 261.92 430.83 261.42 435.88 C 260.85 441.43 261.52 447.59 265.17 452.06 C 266.85 454.41 269.74 455.34 271.81 457.27 C 276.63 457.40 282.45 457.31 285.12 452.50 C 285.08 453.76 285.08 455.03 285.11 456.30 C 287.02 456.26 288.95 456.22 290.87 456.16 C 290.80 440.58 291.03 424.99 290.75 409.41 C 288.85 409.40 286.95 409.39 285.05 409.39 M 335.58 409.46 C 335.53 425.07 335.50 440.69 335.58 456.31 C 337.58 456.26 339.59 456.16 341.59 456.01 C 341.51 449.69 341.53 443.37 341.56 437.05 C 341.65 433.84 342.33 430.02 345.29 428.21 C 347.49 426.64 350.39 427.03 352.93 427.22 C 356.05 427.65 357.40 431.20 357.30 433.99 C 357.38 441.35 357.32 448.72 357.27 456.09 C 359.28 456.16 361.29 456.23 363.31 456.27 C 363.33 448.83 363.34 441.38 363.35 433.94 C 363.34 430.20 362.57 425.91 359.27 423.65 C 353.91 420.38 345.99 421.04 341.53 425.64 C 341.50 420.24 341.59 414.85 341.48 409.45 C 339.50 409.44 337.54 409.44 335.58 409.46 M 318.55 413.91 C 318.46 416.69 318.40 419.47 318.37 422.26 C 317.01 422.28 315.66 422.31 314.32 422.35 C 314.37 423.92 314.43 425.49 314.49 427.07 C 315.46 427.08 317.40 427.11 318.37 427.12 C 318.48 433.75 318.41 440.37 318.41 447.00 C 318.49 449.67 318.52 452.65 320.19 454.90 C 323.22 457.24 327.27 456.64 330.83 456.45 C 330.64 454.72 330.44 453.00 330.23 451.29 C 328.36 450.72 324.73 451.75 324.56 448.94 C 324.21 441.73 324.56 434.50 324.35 427.28 C 326.32 427.15 328.30 427.02 330.28 426.88 C 330.21 425.37 330.15 423.88 330.09 422.39 C 328.19 422.28 326.29 422.16 324.39 422.02 C 324.44 418.29 324.46 414.56 324.24 410.84 C 322.32 411.82 320.43 412.85 318.55 413.91 M 249.12 422.29 C 248.70 433.60 249.03 444.92 248.94 456.24 C 251.00 456.25 253.06 456.24 255.12 456.22 C 255.00 444.91 255.41 433.59 254.93 422.29 C 252.99 422.27 251.06 422.27 249.12 422.29 M 375.26 425.09 C 370.07 429.76 368.84 437.43 370.01 444.04 C 370.82 451.70 378.34 457.77 385.98 457.25 C 392.82 457.64 400.04 452.85 400.72 445.70 C 398.72 445.62 396.73 445.53 394.74 445.46 C 393.86 446.98 393.07 448.59 391.92 449.94 C 388.36 453.26 382.06 452.79 378.95 449.07 C 376.59 447.04 376.25 443.82 376.07 440.92 C 384.33 440.67 392.59 440.97 400.85 440.76 C 401.05 436.54 400.71 432.11 398.42 428.44 C 394.07 420.35 381.97 419.76 375.26 425.09 Z" />
<path fill="#020202" opacity="1.00" d=" M 191.41 78.32 C 193.20 77.89 195.00 77.49 196.81 77.11 C 197.34 77.12 198.41 77.14 198.95 77.15 C 199.44 78.89 199.85 80.64 200.29 82.38 C 196.27 83.72 191.75 83.77 188.21 86.33 C 180.05 86.92 172.89 91.18 165.52 94.33 C 149.13 100.77 135.37 112.05 120.81 121.67 C 113.76 128.36 105.68 133.78 98.37 140.16 C 95.81 143.99 91.83 146.44 88.54 149.57 C 83.66 153.72 77.82 156.81 73.80 161.91 C 72.01 164.11 69.52 165.57 67.53 167.56 C 58.76 177.89 49.64 187.99 42.52 199.59 C 38.65 205.09 36.35 211.46 32.88 217.20 C 29.37 223.76 28.14 231.14 25.02 237.86 C 23.57 241.65 22.79 245.64 21.56 249.51 C 20.51 254.17 20.16 259.01 18.49 263.53 C 15.12 273.31 15.37 283.75 14.11 293.91 C 13.14 304.97 14.39 316.02 15.44 327.02 C 15.42 335.99 19.86 344.09 20.84 352.90 C 23.26 363.06 28.35 372.31 32.45 381.85 C 39.62 393.42 48.38 404.05 58.57 413.11 C 62.28 415.82 65.11 419.51 68.79 422.24 C 72.19 424.82 74.68 428.43 78.28 430.76 C 86.57 436.06 94.38 442.06 102.55 447.53 C 108.89 450.38 114.29 454.81 119.60 459.21 C 121.74 461.27 124.90 461.08 127.45 462.34 C 131.70 463.83 134.85 467.35 139.08 468.90 C 142.05 470.05 145.47 470.82 147.34 473.66 C 151.49 479.27 153.81 485.94 157.19 492.00 L 150.31 492.00 C 147.35 486.73 145.19 481.04 141.78 476.02 C 138.85 475.35 135.81 474.72 133.43 472.75 C 132.58 472.33 131.73 471.91 130.89 471.49 C 128.82 467.71 124.13 468.98 120.84 467.35 C 118.90 465.81 116.86 464.39 114.65 463.25 C 113.35 461.38 111.53 460.02 109.43 459.17 C 109.18 458.73 108.68 457.86 108.43 457.42 C 105.53 455.93 102.52 454.64 99.69 453.01 C 91.33 447.15 83.08 441.14 74.53 435.55 C 68.87 429.77 62.58 424.65 56.74 419.08 C 44.91 408.88 34.41 397.03 26.39 383.60 C 23.21 376.43 19.84 369.31 16.99 361.99 C 15.03 357.06 15.11 351.61 13.29 346.63 C 9.36 336.20 9.70 324.89 8.19 314.00 C 8.08 306.97 8.08 299.95 8.19 292.93 C 9.72 281.17 9.58 268.98 13.82 257.75 C 15.35 252.05 15.58 246.09 17.66 240.52 C 19.53 234.18 22.48 228.21 24.09 221.78 C 26.63 215.34 30.26 209.41 33.22 203.17 C 40.39 190.18 50.01 178.80 59.67 167.62 C 63.54 162.21 69.37 158.77 73.78 153.86 C 78.34 149.01 84.37 145.88 89.11 141.20 C 94.47 137.26 98.32 131.63 103.87 127.92 C 109.13 124.30 113.77 119.88 118.62 115.75 C 122.22 113.27 126.07 111.14 129.47 108.36 C 135.72 103.41 142.71 99.56 149.40 95.27 C 154.59 91.87 160.54 89.95 166.09 87.24 C 171.25 85.10 176.20 82.29 181.73 81.16 C 182.21 82.82 182.58 84.50 182.98 86.17 C 184.91 86.10 186.91 86.39 188.80 85.85 C 190.02 83.48 190.73 80.89 191.41 78.32 Z" />
<path fill="#020202" opacity="1.00" d=" M 337.83 85.20 C 338.56 83.25 339.27 81.29 339.98 79.34 C 346.59 82.16 353.46 84.54 359.51 88.50 C 368.67 91.32 376.63 96.93 384.47 102.26 C 389.67 104.94 394.20 108.66 398.99 111.98 C 407.25 117.94 414.05 125.55 421.31 132.63 C 426.75 137.72 430.41 144.30 434.87 150.20 C 440.45 157.03 443.45 165.43 448.02 172.90 C 451.54 182.66 457.09 191.68 459.39 201.89 C 461.82 213.69 467.55 224.71 468.43 236.85 C 469.59 242.58 471.79 248.10 472.23 253.97 C 472.42 257.61 473.60 261.08 474.62 264.54 C 475.54 270.68 475.55 276.87 475.79 283.05 C 478.06 297.59 476.92 312.33 477.19 326.98 C 477.61 336.06 475.69 344.99 474.62 353.95 C 470.80 366.90 467.06 379.89 463.09 392.80 C 458.92 402.81 454.35 412.67 449.17 422.21 C 449.66 422.54 450.65 423.21 451.14 423.54 C 448.63 422.14 445.76 421.68 442.94 421.44 L 443.64 420.00 C 444.71 417.86 445.62 415.64 446.51 413.42 C 448.28 410.98 449.55 408.24 450.54 405.40 C 453.70 400.90 454.66 395.34 457.34 390.58 C 461.12 377.67 465.17 364.83 468.72 351.85 C 469.70 345.58 470.75 339.31 471.46 333.01 C 471.59 322.35 471.43 311.68 471.52 301.02 C 471.75 293.30 469.47 285.74 469.89 278.01 C 469.99 269.87 466.94 262.17 466.39 254.11 C 465.33 248.34 462.85 242.86 462.55 236.96 C 462.44 232.37 460.35 228.19 459.38 223.77 C 458.28 218.36 455.55 213.45 454.52 208.02 C 452.89 196.94 446.76 187.34 443.08 176.93 C 440.93 172.29 437.95 168.07 435.92 163.36 C 433.51 157.94 429.65 153.39 426.27 148.57 C 422.92 143.99 419.95 139.07 415.73 135.21 C 411.25 131.01 407.30 126.25 402.44 122.47 C 396.51 117.25 389.80 113.03 383.48 108.31 C 374.81 103.60 366.93 97.22 357.39 94.29 C 351.22 90.56 344.51 87.84 337.83 85.20 Z" />
<path fill="#d03444" opacity="1.00" d=" M 183.26 94.19 C 184.54 94.78 184.52 95.46 183.18 96.22 C 181.90 95.63 181.93 94.95 183.26 94.19 Z" />
<path fill="#020202" opacity="1.00" d=" M 195.45 108.31 C 201.14 104.81 207.92 104.48 214.12 102.55 C 215.02 103.13 215.91 103.73 216.78 104.36 C 220.19 102.55 224.62 103.96 227.32 106.41 C 228.59 113.42 236.39 117.45 236.03 125.01 C 234.46 126.29 233.00 127.70 231.83 129.37 C 229.86 129.15 228.08 127.94 226.10 127.61 C 223.46 125.01 220.07 123.19 217.96 120.06 C 215.61 117.72 214.62 114.00 211.47 112.55 C 206.38 112.38 201.10 111.84 196.16 113.38 L 196.22 114.82 C 191.45 114.21 186.71 115.94 183.21 119.18 C 181.93 118.50 181.51 117.25 181.40 115.90 C 185.74 112.68 191.01 111.34 195.45 108.31 Z" />
<path fill="#020202" opacity="1.00" d=" M 369.40 117.43 C 371.44 117.47 373.29 116.72 374.98 115.60 C 377.09 116.60 379.43 117.09 381.73 116.50 C 383.41 118.85 385.18 121.13 387.29 123.11 C 388.22 122.67 389.15 122.24 390.09 121.80 C 390.88 122.86 392.39 123.61 392.63 124.98 C 392.80 126.53 391.13 126.73 390.09 127.29 C 388.75 126.53 387.30 126.54 385.92 127.15 C 385.51 126.80 384.69 126.10 384.28 125.75 C 381.19 126.38 378.03 126.27 374.90 126.27 C 372.58 131.72 368.30 136.30 363.49 139.72 C 360.85 141.29 356.95 141.67 354.68 139.31 C 353.87 138.38 353.92 137.43 354.83 136.45 C 351.23 133.34 355.55 129.68 356.93 126.62 C 360.14 122.43 365.38 120.65 369.40 117.43 Z" />
<path fill="#020202" opacity="1.00" d=" M 178.93 153.73 C 182.59 152.40 186.31 153.85 190.01 154.08 C 195.35 154.75 200.66 155.74 206.06 155.70 C 208.54 156.66 210.97 157.82 213.63 158.25 C 216.09 159.12 218.45 160.40 221.10 160.65 C 224.68 163.37 228.85 165.71 231.01 169.83 C 233.79 173.08 235.71 176.88 237.85 180.56 C 237.73 181.72 237.96 183.08 236.93 183.92 C 233.24 184.35 229.48 184.21 225.85 183.42 C 220.92 183.05 215.96 183.34 211.02 183.30 L 211.00 181.67 C 208.33 181.79 205.69 181.44 203.08 180.94 C 191.73 180.59 180.31 180.57 169.18 183.09 C 166.91 183.18 164.70 183.65 162.62 184.57 C 157.93 186.50 153.05 188.02 148.59 190.45 C 140.26 191.69 134.40 198.27 126.51 200.66 C 124.79 201.81 122.56 202.32 121.52 204.27 C 123.25 204.40 124.99 204.48 126.73 204.62 C 126.05 205.56 125.53 207.09 124.08 206.91 C 121.76 206.78 119.87 204.93 117.45 205.22 C 117.07 204.05 116.70 202.88 116.36 201.70 C 116.63 200.33 118.32 199.93 119.20 199.00 C 119.75 198.85 120.84 198.55 121.39 198.39 C 124.47 191.34 127.73 184.02 133.55 178.75 C 137.78 174.76 141.50 170.22 146.22 166.78 C 146.43 166.33 146.85 165.43 147.06 164.97 C 147.48 164.82 148.32 164.51 148.74 164.36 C 152.43 160.30 157.91 159.16 162.65 156.84 C 167.70 154.39 173.43 154.08 178.93 153.73 M 180.00 157.15 C 174.97 157.06 169.82 157.56 165.11 159.42 C 160.38 161.61 155.20 163.02 151.16 166.46 C 150.23 167.73 149.12 168.87 147.96 169.94 C 143.35 173.22 139.81 177.70 135.67 181.51 C 131.04 185.85 128.60 191.79 125.71 197.30 C 128.94 195.77 132.24 194.34 135.16 192.24 C 140.34 188.40 146.93 187.54 152.60 184.66 C 159.93 181.04 167.93 179.33 176.00 178.40 C 184.90 176.82 194.00 177.92 203.00 177.58 C 202.09 174.80 201.79 171.88 201.90 168.96 C 204.71 166.68 207.24 163.68 210.81 162.65 C 211.12 162.35 211.72 161.74 212.03 161.44 C 208.79 161.23 206.23 158.63 202.95 158.86 C 196.87 159.10 191.01 156.88 184.92 157.13 C 183.36 156.13 181.55 156.14 180.00 157.15 M 226.24 169.62 C 227.46 172.64 228.39 175.91 230.66 178.35 C 230.15 179.12 229.66 179.88 229.17 180.66 C 230.74 180.77 232.31 180.86 233.88 180.96 C 231.83 176.87 229.16 173.13 226.24 169.62 Z" />
<path fill="#fdfdfd" opacity="1.00" d=" M 180.00 157.15 C 181.55 156.14 183.36 156.13 184.92 157.13 C 191.01 156.88 196.87 159.10 202.95 158.86 C 206.23 158.63 208.79 161.23 212.03 161.44 C 211.72 161.74 211.12 162.35 210.81 162.65 C 207.24 163.68 204.71 166.68 201.90 168.96 C 201.79 171.88 202.09 174.80 203.00 177.58 C 194.00 177.92 184.90 176.82 176.00 178.40 C 167.93 179.33 159.93 181.04 152.60 184.66 C 146.93 187.54 140.34 188.40 135.16 192.24 C 132.24 194.34 128.94 195.77 125.71 197.30 C 128.60 191.79 131.04 185.85 135.67 181.51 C 139.81 177.70 143.35 173.22 147.96 169.94 C 149.12 168.87 150.23 167.73 151.16 166.46 C 155.20 163.02 160.38 161.61 165.11 159.42 C 169.82 157.56 174.97 157.06 180.00 157.15 Z" />
<path fill="#020202" opacity="1.00" d=" M 381.47 166.37 C 386.14 165.07 391.07 164.26 395.93 164.59 C 401.31 165.81 406.28 168.38 411.67 169.56 C 421.09 175.65 431.11 181.79 437.20 191.51 C 440.59 194.40 441.01 199.02 443.72 202.37 C 443.79 202.98 443.95 204.20 444.02 204.82 C 443.53 205.20 442.56 205.97 442.07 206.35 C 436.49 200.36 427.64 199.62 420.45 196.36 C 419.80 196.33 418.50 196.27 417.85 196.25 C 413.22 194.88 408.29 194.89 403.51 194.44 C 399.70 193.69 395.93 192.69 392.07 192.29 C 389.84 192.10 387.47 192.53 385.40 191.48 C 380.23 191.04 374.90 192.15 369.84 190.79 C 365.51 190.71 361.22 188.96 356.92 190.40 C 354.67 191.33 352.87 189.41 351.29 188.13 C 352.43 187.04 353.58 185.96 354.71 184.85 C 354.86 182.02 357.76 181.19 359.40 179.36 C 360.53 178.25 361.38 176.90 362.40 175.70 C 367.81 172.98 372.28 168.46 378.41 167.26 C 379.43 167.00 380.45 166.71 381.47 166.37 M 376.56 171.57 C 370.05 174.43 364.72 179.22 359.26 183.60 C 358.84 184.57 358.41 185.53 357.98 186.49 C 364.06 186.09 369.99 187.63 376.00 188.16 C 386.77 187.71 397.38 189.59 407.94 191.56 C 407.14 186.98 408.87 182.64 412.15 179.46 C 413.86 178.87 415.52 178.15 417.14 177.36 C 414.28 175.68 411.77 173.30 408.48 172.48 C 406.49 171.81 404.50 171.13 402.55 170.39 C 399.70 169.53 396.91 168.49 394.02 167.78 C 388.09 168.46 382.20 169.53 376.56 171.57 M 437.82 198.81 C 436.53 195.82 434.24 193.49 432.16 191.05 C 433.13 194.05 434.25 198.18 437.82 198.81 Z" />
<path fill="#020202" opacity="1.00" d=" M 234.71 168.20 C 236.59 169.26 238.15 170.78 239.35 172.57 C 239.81 172.65 240.72 172.80 241.18 172.87 C 241.68 174.09 242.16 175.32 242.69 176.53 C 242.64 177.96 242.54 179.40 242.41 180.84 L 244.49 180.56 C 243.63 181.16 242.60 181.38 241.63 181.69 C 241.30 181.17 240.63 180.14 240.30 179.62 C 240.24 178.25 240.18 176.87 240.10 175.51 C 238.17 173.67 237.56 170.01 234.44 170.01 C 234.51 169.56 234.64 168.65 234.71 168.20 Z" />
<path fill="#fdfdfd" opacity="1.00" d=" M 376.56 171.57 C 382.20 169.53 388.09 168.46 394.02 167.78 C 396.91 168.49 399.70 169.53 402.55 170.39 C 404.50 171.13 406.49 171.81 408.48 172.48 C 411.77 173.30 414.28 175.68 417.14 177.36 C 415.52 178.15 413.86 178.87 412.15 179.46 C 408.87 182.64 407.14 186.98 407.94 191.56 C 397.38 189.59 386.77 187.71 376.00 188.16 C 369.99 187.63 364.06 186.09 357.98 186.49 C 358.41 185.53 358.84 184.57 359.26 183.60 C 364.72 179.22 370.05 174.43 376.56 171.57 Z" />
<path fill="#fdfdfd" opacity="1.00" d=" M 226.24 169.62 C 229.16 173.13 231.83 176.87 233.88 180.96 C 232.31 180.86 230.74 180.77 229.17 180.66 C 229.66 179.88 230.15 179.12 230.66 178.35 C 228.39 175.91 227.46 172.64 226.24 169.62 Z" />
<path fill="#020202" opacity="1.00" d=" M 350.69 177.07 C 351.31 177.67 351.99 178.21 352.74 178.68 C 351.32 180.19 350.50 182.10 349.44 183.85 C 349.36 185.78 349.25 187.89 347.71 189.27 C 347.20 184.95 348.66 180.81 350.69 177.07 Z" />
<path fill="#020202" opacity="1.00" d=" M 240.57 184.00 C 241.56 184.08 242.56 184.15 243.57 184.23 C 243.54 185.34 243.52 186.46 243.51 187.57 C 240.83 191.12 237.85 194.47 234.53 197.42 C 232.64 198.21 230.59 198.52 228.63 199.04 C 228.98 198.13 229.35 197.23 229.73 196.33 C 230.56 196.26 232.22 196.13 233.05 196.06 C 234.07 191.15 239.61 189.01 240.57 184.00 Z" />
<path fill="#020202" opacity="1.00" d=" M 348.07 190.67 C 352.13 189.98 355.91 191.86 358.29 195.09 C 360.49 195.68 362.67 196.53 364.39 198.07 C 361.81 197.68 359.30 196.94 356.73 196.49 C 359.12 199.40 362.19 201.75 363.73 205.29 C 368.22 209.50 371.04 215.31 376.23 218.79 C 379.45 220.98 382.54 223.57 386.41 224.47 C 388.44 228.00 393.01 225.76 396.31 226.46 C 394.91 227.56 393.03 227.25 391.39 227.52 C 393.42 229.33 396.48 228.99 398.43 230.77 C 394.42 230.96 391.34 227.63 387.30 227.80 C 380.23 224.40 372.87 220.57 368.23 214.00 C 365.67 210.50 362.25 207.67 360.27 203.76 C 357.18 200.55 354.47 197.03 351.88 193.41 C 350.40 192.87 348.33 192.67 348.07 190.67 Z" />
<path fill="#fdfdfd" opacity="1.00" d=" M 437.82 198.81 C 434.25 198.18 433.13 194.05 432.16 191.05 C 434.24 193.49 436.53 195.82 437.82 198.81 Z" />
<path fill="#020202" opacity="1.00" d=" M 110.46 196.41 C 112.42 196.33 114.41 196.26 116.18 195.35 C 116.48 196.58 116.82 197.80 117.22 199.00 C 116.79 199.30 115.93 199.91 115.49 200.22 C 113.13 203.52 110.11 206.36 107.90 209.74 C 105.52 208.86 107.12 206.95 107.65 205.41 C 110.11 203.10 112.72 200.82 114.22 197.74 C 110.18 198.21 107.08 201.63 102.87 201.27 C 104.61 198.66 107.91 197.97 110.46 196.41 Z" />
<path fill="#020202" opacity="1.00" d=" M 225.74 202.99 C 227.13 201.38 228.69 199.79 231.02 200.12 C 228.90 201.80 226.60 203.24 224.48 204.91 C 222.30 206.53 220.00 207.98 217.91 209.72 C 218.73 206.14 223.34 205.44 225.74 202.99 Z" />
<path fill="#020202" opacity="1.00" d=" M 223.83 210.23 C 226.64 206.81 230.34 204.29 233.12 200.84 C 231.31 204.96 227.52 207.88 223.83 210.23 Z" />
<path fill="#020202" opacity="1.00" d=" M 123.19 209.50 C 125.30 208.99 127.13 210.07 128.88 211.09 C 134.21 214.41 141.36 213.02 146.26 217.33 C 146.80 217.40 147.90 217.54 148.44 217.61 C 150.22 218.70 152.26 219.10 154.29 219.43 C 153.98 221.58 151.51 220.84 150.00 220.68 C 147.30 219.56 144.46 218.77 141.91 217.30 C 135.82 214.50 127.54 215.33 123.19 209.50 Z" />
<path fill="#020202" opacity="1.00" d=" M 443.76 212.84 C 444.28 211.53 444.24 209.16 446.13 209.08 C 446.66 212.64 444.63 215.90 442.80 218.78 C 440.95 221.82 438.94 224.86 436.03 227.00 C 435.92 226.47 435.69 225.40 435.58 224.86 C 438.59 221.05 441.43 217.11 443.76 212.84 Z" />
<path fill="#020202" opacity="1.00" d=" M 234.55 245.91 C 235.08 244.02 235.25 241.82 237.06 240.65 C 236.65 241.98 236.61 243.41 236.11 244.72 C 234.71 246.53 233.02 248.09 231.51 249.81 C 230.55 252.33 230.35 255.44 227.88 257.06 C 229.02 253.40 231.23 249.97 231.18 246.01 L 232.87 247.28 C 231.31 245.40 232.28 242.77 234.05 241.55 C 233.60 243.03 233.13 244.50 232.63 245.96 C 233.11 245.95 234.07 245.92 234.55 245.91 Z" />
<path fill="#020202" opacity="1.00" d=" M 222.78 252.51 C 224.85 250.51 226.00 247.81 227.71 245.54 C 227.51 246.99 227.25 248.43 226.99 249.87 L 228.66 249.48 C 226.88 252.41 225.63 255.61 224.65 258.88 C 224.16 259.18 223.18 259.77 222.70 260.07 C 223.72 257.75 225.01 255.56 225.95 253.20 C 221.08 256.83 216.70 261.17 212.72 265.74 C 210.55 267.67 208.11 269.24 205.53 270.55 C 204.20 271.79 203.49 273.52 202.47 275.00 C 199.95 276.09 199.06 278.79 197.83 281.01 C 197.92 284.80 197.87 288.59 197.87 292.38 C 201.39 292.11 204.60 293.75 208.04 294.15 C 212.32 295.16 216.74 294.92 221.10 294.85 C 224.40 294.73 227.05 292.56 229.91 291.20 C 239.03 289.49 247.81 285.63 255.10 279.86 C 257.82 278.55 260.73 277.63 263.59 276.66 C 265.11 275.29 266.92 274.35 268.99 274.26 C 275.81 271.33 282.50 267.97 289.61 265.75 C 294.73 264.65 299.59 261.94 304.97 262.25 C 312.61 262.59 320.46 261.28 327.86 263.75 C 334.60 263.53 340.18 267.92 346.62 269.19 C 354.21 276.01 362.37 282.23 369.64 289.43 C 372.91 291.70 375.44 295.30 379.45 296.30 C 380.86 296.98 382.52 296.80 383.91 297.54 C 382.79 294.57 385.17 292.01 385.18 289.10 C 385.15 285.88 385.62 282.50 384.38 279.43 C 384.50 275.97 385.13 272.00 382.54 269.24 C 380.94 266.38 376.64 266.32 375.78 262.92 C 373.02 261.53 369.85 260.66 367.75 258.27 C 365.57 255.31 364.26 251.83 362.12 248.85 C 365.05 249.43 365.03 253.38 367.07 255.19 L 367.45 252.81 C 369.15 253.39 368.87 255.37 369.43 256.75 C 370.62 257.85 372.04 258.69 373.34 259.67 C 375.66 259.99 377.55 261.16 378.65 263.25 C 381.43 265.08 384.23 266.91 385.76 270.01 C 387.15 274.31 386.17 278.81 387.39 283.13 C 388.22 288.89 386.85 294.83 388.20 300.54 C 388.46 301.95 388.47 303.38 388.58 304.82 C 388.85 305.78 389.39 307.72 389.66 308.68 C 388.95 308.61 387.53 308.46 386.82 308.38 C 387.66 309.94 388.66 311.41 389.50 312.97 C 387.65 315.73 389.25 320.11 385.94 322.27 C 386.33 320.01 387.52 317.99 387.92 315.74 C 383.62 316.21 387.65 313.75 387.92 312.15 C 386.97 311.12 385.57 310.90 384.28 310.62 C 384.36 307.74 384.36 304.87 384.33 302.00 C 379.33 302.53 378.19 308.57 376.40 312.41 C 374.44 320.09 369.50 326.42 364.58 332.45 C 362.44 335.57 359.65 338.45 355.94 339.59 C 351.34 340.83 346.71 341.99 342.03 342.83 C 338.01 343.00 333.91 342.69 330.07 344.17 C 324.09 345.03 317.91 344.78 312.04 346.19 C 307.21 344.41 301.91 346.35 297.10 344.44 C 291.93 343.47 286.75 342.57 281.83 340.63 C 274.48 341.27 268.15 337.12 261.40 335.02 C 259.03 334.06 256.79 332.85 254.40 331.96 C 249.33 329.72 245.74 325.24 240.61 323.15 C 236.38 321.36 234.39 316.65 230.27 314.68 C 227.52 313.26 224.99 311.42 223.08 308.96 C 220.22 304.23 214.29 303.26 209.93 300.33 C 206.44 300.40 202.72 301.32 199.48 299.58 C 199.46 299.01 199.42 297.86 199.40 297.29 C 197.61 297.40 195.87 297.14 194.18 296.52 C 195.35 298.33 195.79 300.33 195.49 302.51 C 192.67 301.06 192.93 297.71 192.23 295.06 C 192.38 288.94 195.64 283.39 196.31 277.43 C 199.26 274.86 200.31 270.18 204.26 268.95 C 204.33 267.96 204.40 266.97 204.47 265.99 C 205.96 265.03 207.27 263.84 208.65 262.73 C 210.70 261.12 213.42 260.82 215.64 259.52 C 217.82 256.98 220.43 254.88 222.78 252.51 M 291.54 269.02 C 291.01 276.12 292.49 283.08 294.23 289.91 C 299.34 290.85 304.52 290.99 309.71 290.77 C 310.67 290.05 311.64 289.36 312.65 288.71 C 313.95 285.24 315.10 281.68 315.87 278.05 C 316.11 273.89 315.93 269.72 315.94 265.55 C 311.65 265.59 307.36 265.50 303.08 265.58 C 299.06 266.03 295.33 267.73 291.54 269.02 M 317.57 265.46 C 318.23 273.62 316.02 282.24 319.41 289.97 C 321.91 291.39 324.45 292.77 327.13 293.83 C 329.80 294.44 332.76 293.44 335.21 295.02 C 336.52 288.65 339.68 282.63 339.71 276.07 C 340.44 274.48 340.35 272.74 340.35 271.05 C 338.37 270.19 336.39 269.32 334.35 268.63 C 333.31 268.13 332.27 267.64 331.24 267.16 C 326.56 267.66 322.24 265.17 317.57 265.46 M 277.91 274.49 C 277.25 274.49 275.93 274.50 275.27 274.51 C 275.25 275.09 275.22 276.26 275.20 276.85 C 274.80 276.97 273.98 277.20 273.58 277.32 C 274.29 278.79 274.56 280.42 275.07 281.98 C 275.42 285.00 276.20 287.97 277.32 290.80 C 280.62 293.51 285.12 292.21 288.77 291.05 C 290.98 284.06 289.45 276.60 289.94 269.40 C 285.77 270.60 281.37 271.73 277.91 274.49 M 342.13 272.05 C 341.92 277.05 340.35 281.91 340.37 286.94 C 340.36 290.25 340.43 293.56 340.26 296.87 C 342.60 299.02 345.47 300.44 348.00 302.35 C 350.21 302.04 350.55 299.19 351.72 297.65 C 352.83 291.97 352.90 286.09 354.67 280.57 C 351.42 277.69 347.85 275.19 344.81 272.07 C 344.14 272.07 342.80 272.05 342.13 272.05 M 270.76 277.63 C 267.44 277.70 264.91 280.07 261.87 281.03 C 259.42 281.86 257.00 282.78 254.64 283.83 C 255.36 289.26 260.27 293.57 265.47 294.73 C 267.65 292.32 270.15 289.86 270.59 286.48 C 270.73 284.92 271.98 283.94 273.03 282.93 C 272.71 280.50 272.13 278.11 271.72 275.70 C 271.48 276.18 271.00 277.14 270.76 277.63 M 356.83 282.50 C 356.62 284.87 356.03 287.17 355.62 289.51 C 354.73 292.96 353.53 296.42 353.40 300.01 C 354.77 301.70 356.43 303.14 357.92 304.74 C 360.83 300.87 364.09 297.22 365.65 292.52 C 365.66 291.97 365.68 290.85 365.69 290.29 C 362.69 287.75 359.80 285.08 356.83 282.50 M 249.40 288.30 C 247.87 287.97 246.91 288.49 246.53 289.83 C 245.91 289.91 244.68 290.07 244.07 290.14 C 244.47 291.31 244.87 292.48 245.25 293.66 C 246.84 296.27 249.11 298.27 251.57 300.05 C 251.67 299.45 251.87 298.24 251.96 297.64 C 252.38 298.19 253.21 299.30 253.63 299.86 C 254.05 299.85 254.89 299.83 255.31 299.82 C 255.91 298.29 256.68 296.86 258.10 295.96 C 258.12 295.19 258.13 294.42 258.15 293.66 C 255.99 291.78 254.16 289.59 252.77 287.10 C 251.75 285.70 249.88 287.18 249.40 288.30 M 232.04 294.14 C 232.96 296.34 234.04 298.49 235.59 300.34 C 237.92 302.87 238.29 307.19 242.13 308.08 C 244.93 307.44 246.52 304.28 249.60 304.56 C 250.10 303.68 250.61 302.80 251.12 301.94 C 246.58 300.10 243.33 296.12 242.42 291.31 C 239.14 292.84 235.55 293.39 232.04 294.14 M 367.31 292.18 C 367.00 294.40 366.27 296.52 365.44 298.60 C 363.98 300.75 361.23 302.92 363.01 305.69 C 365.46 304.21 367.64 302.33 370.22 301.06 C 370.97 299.62 371.72 298.17 372.49 296.74 C 371.11 294.85 369.12 293.60 367.31 292.18 M 223.87 297.51 C 224.11 301.35 224.36 305.89 227.44 308.64 C 229.78 311.17 233.43 311.52 236.44 312.92 C 237.08 311.42 238.50 310.67 239.79 309.83 C 238.59 308.84 237.25 307.93 236.67 306.42 C 235.01 302.88 232.17 300.07 230.58 296.48 C 230.23 296.20 229.51 295.64 229.16 295.36 C 227.55 296.42 225.80 297.30 223.87 297.51 M 200.86 297.42 C 200.38 298.80 202.85 299.22 203.75 298.71 C 204.18 297.37 201.74 296.84 200.86 297.42 M 213.71 298.23 C 216.64 299.88 219.72 301.24 222.58 303.00 C 222.24 301.38 221.83 299.78 221.41 298.18 C 218.85 298.14 216.28 298.09 213.71 298.23 M 374.15 297.98 C 373.43 299.60 372.65 301.18 371.89 302.78 C 369.90 303.62 367.99 304.73 366.62 306.45 C 367.61 308.57 368.26 310.80 368.34 313.16 C 370.39 312.60 372.32 311.66 373.74 310.05 C 374.17 306.19 377.56 303.27 377.10 299.26 C 376.10 298.84 375.12 298.42 374.15 297.98 M 331.18 335.80 C 330.44 336.93 329.56 337.93 328.26 338.39 C 327.96 339.47 327.66 340.56 327.36 341.65 C 330.30 340.38 333.44 339.50 336.67 339.68 C 335.62 338.62 334.59 337.55 333.56 336.49 C 332.75 336.25 331.97 336.03 331.18 335.80 M 317.42 336.39 C 314.68 338.12 312.05 340.16 310.80 343.27 C 311.45 343.00 312.73 342.47 313.38 342.20 C 317.17 342.46 320.83 341.33 324.59 341.07 C 323.35 339.44 321.97 337.93 320.59 336.42 C 319.53 336.41 318.47 336.40 317.42 336.39 M 296.55 340.89 C 300.02 342.03 303.64 342.34 307.27 342.10 C 306.06 340.24 304.62 338.55 302.93 337.13 C 300.56 337.82 298.33 339.18 296.55 340.89 Z" />
<path fill="#020202" opacity="1.00" d=" M 349.64 247.16 C 349.99 245.76 352.73 245.67 352.97 247.19 C 352.85 248.95 349.74 248.89 349.64 247.16 Z" />
<path fill="#020202" opacity="1.00" d=" M 228.18 248.54 C 228.87 249.20 228.87 249.20 228.18 248.54 Z" />
<path fill="#020202" opacity="1.00" d=" M 355.98 250.26 C 357.22 250.19 358.48 250.11 359.74 250.04 C 361.11 252.58 362.47 255.13 363.61 257.78 C 362.48 256.88 361.67 255.67 360.83 254.53 C 361.07 251.58 358.16 251.02 355.98 250.26 Z" />
<path fill="#fdfdfd" opacity="1.00" d=" M 291.54 269.02 C 295.33 267.73 299.06 266.03 303.08 265.58 C 307.36 265.50 311.65 265.59 315.94 265.55 C 315.93 269.72 316.11 273.89 315.87 278.05 C 315.10 281.68 313.95 285.24 312.65 288.71 C 311.64 289.36 310.67 290.05 309.71 290.77 C 304.52 290.99 299.34 290.85 294.23 289.91 C 292.49 283.08 291.01 276.12 291.54 269.02 Z" />
<path fill="#fdfdfd" opacity="1.00" d=" M 317.57 265.46 C 322.24 265.17 326.56 267.66 331.24 267.16 C 332.27 267.64 333.31 268.13 334.35 268.63 C 336.39 269.32 338.37 270.19 340.35 271.05 C 340.35 272.74 340.44 274.48 339.71 276.07 C 339.68 282.63 336.52 288.65 335.21 295.02 C 332.76 293.44 329.80 294.44 327.13 293.83 C 324.45 292.77 321.91 291.39 319.41 289.97 C 316.02 282.24 318.23 273.62 317.57 265.46 Z" />
<path fill="#fdfdfd" opacity="1.00" d=" M 277.91 274.49 C 281.37 271.73 285.77 270.60 289.94 269.40 C 289.45 276.60 290.98 284.06 288.77 291.05 C 285.12 292.21 280.62 293.51 277.32 290.80 C 276.20 287.97 275.42 285.00 275.07 281.98 C 274.56 280.42 274.29 278.79 273.58 277.32 C 273.98 277.20 274.80 276.97 275.20 276.85 C 275.22 276.26 275.25 275.09 275.27 274.51 C 275.93 274.50 277.25 274.49 277.91 274.49 Z" />
<path fill="#fdfdfd" opacity="1.00" d=" M 342.13 272.05 C 342.80 272.05 344.14 272.07 344.81 272.07 C 347.85 275.19 351.42 277.69 354.67 280.57 C 352.90 286.09 352.83 291.97 351.72 297.65 C 350.55 299.19 350.21 302.04 348.00 302.35 C 345.47 300.44 342.60 299.02 340.26 296.87 C 340.43 293.56 340.36 290.25 340.37 286.94 C 340.35 281.91 341.92 277.05 342.13 272.05 Z" />
<path fill="#fdfdfd" opacity="1.00" d=" M 270.76 277.63 C 271.00 277.14 271.48 276.18 271.72 275.70 C 272.13 278.11 272.71 280.50 273.03 282.93 C 271.98 283.94 270.73 284.92 270.59 286.48 C 270.15 289.86 267.65 292.32 265.47 294.73 C 260.27 293.57 255.36 289.26 254.64 283.83 C 257.00 282.78 259.42 281.86 261.87 281.03 C 264.91 280.07 267.44 277.70 270.76 277.63 Z" />
<path fill="#fdfdfd" opacity="1.00" d=" M 356.83 282.50 C 359.80 285.08 362.69 287.75 365.69 290.29 C 365.68 290.85 365.66 291.97 365.65 292.52 C 364.09 297.22 360.83 300.87 357.92 304.74 C 356.43 303.14 354.77 301.70 353.40 300.01 C 353.53 296.42 354.73 292.96 355.62 289.51 C 356.03 287.17 356.62 284.87 356.83 282.50 Z" />
<path fill="#fdfdfd" opacity="1.00" d=" M 249.40 288.30 C 249.88 287.18 251.75 285.70 252.77 287.10 C 254.16 289.59 255.99 291.78 258.15 293.66 C 258.13 294.42 258.12 295.19 258.10 295.96 C 256.68 296.86 255.91 298.29 255.31 299.82 C 254.89 299.83 254.05 299.85 253.63 299.86 C 253.21 299.30 252.38 298.19 251.96 297.64 C 251.87 298.24 251.67 299.45 251.57 300.05 C 249.11 298.27 246.84 296.27 245.25 293.66 C 244.87 292.48 244.47 291.31 244.07 290.14 C 244.68 290.07 245.91 289.91 246.53 289.83 C 246.91 288.49 247.87 287.97 249.40 288.30 Z" />
<path fill="#fdfdfd" opacity="1.00" d=" M 232.04 294.14 C 235.55 293.39 239.14 292.84 242.42 291.31 C 243.33 296.12 246.58 300.10 251.12 301.94 C 250.61 302.80 250.10 303.68 249.60 304.56 C 246.52 304.28 244.93 307.44 242.13 308.08 C 238.29 307.19 237.92 302.87 235.59 300.34 C 234.04 298.49 232.96 296.34 232.04 294.14 Z" />
<path fill="#fdfdfd" opacity="1.00" d=" M 367.31 292.18 C 369.12 293.60 371.11 294.85 372.49 296.74 C 371.72 298.17 370.97 299.62 370.22 301.06 C 367.64 302.33 365.46 304.21 363.01 305.69 C 361.23 302.92 363.98 300.75 365.44 298.60 C 366.27 296.52 367.00 294.40 367.31 292.18 Z" />
<path fill="#fdfdfd" opacity="1.00" d=" M 223.87 297.51 C 225.80 297.30 227.55 296.42 229.16 295.36 C 229.51 295.64 230.23 296.20 230.58 296.48 C 232.17 300.07 235.01 302.88 236.67 306.42 C 237.25 307.93 238.59 308.84 239.79 309.83 C 238.50 310.67 237.08 311.42 236.44 312.92 C 233.43 311.52 229.78 311.17 227.44 308.64 C 224.36 305.89 224.11 301.35 223.87 297.51 Z" />
<path fill="#fdfdfd" opacity="1.00" d=" M 200.86 297.42 C 201.74 296.84 204.18 297.37 203.75 298.71 C 202.85 299.22 200.38 298.80 200.86 297.42 Z" />
<path fill="#fdfdfd" opacity="1.00" d=" M 213.71 298.23 C 216.28 298.09 218.85 298.14 221.41 298.18 C 221.83 299.78 222.24 301.38 222.58 303.00 C 219.72 301.24 216.64 299.88 213.71 298.23 Z" />
<path fill="#fdfdfd" opacity="1.00" d=" M 374.15 297.98 C 375.12 298.42 376.10 298.84 377.10 299.26 C 377.56 303.27 374.17 306.19 373.74 310.05 C 372.32 311.66 370.39 312.60 368.34 313.16 C 368.26 310.80 367.61 308.57 366.62 306.45 C 367.99 304.73 369.90 303.62 371.89 302.78 C 372.65 301.18 373.43 299.60 374.15 297.98 Z" />
<path fill="#020202" opacity="1.00" d=" M 190.44 301.88 C 190.73 301.22 191.02 300.56 191.31 299.91 C 192.88 303.04 194.36 306.21 195.72 309.44 C 196.51 310.98 197.31 312.52 198.02 314.10 C 197.67 313.96 196.98 313.67 196.63 313.52 C 194.71 309.59 193.61 305.06 190.44 301.88 Z" />
<path fill="#020202" opacity="1.00" d=" M 196.13 306.30 C 199.44 306.49 194.60 309.29 196.13 306.30 Z" />
<path fill="#020202" opacity="1.00" d=" M 190.73 309.48 C 191.66 309.72 192.59 309.97 193.52 310.23 C 193.52 313.39 196.14 315.90 197.96 318.31 C 197.25 318.47 195.81 318.80 195.10 318.96 C 196.12 315.17 192.49 312.41 190.73 309.48 Z" />
<path fill="#020202" opacity="1.00" d=" M 389.77 319.74 C 390.41 317.74 390.82 315.68 391.69 313.76 C 392.72 317.75 389.02 320.77 389.31 324.66 C 388.64 325.48 388.02 326.35 387.29 327.12 C 387.92 324.60 388.46 322.02 389.77 319.74 Z" />
<path fill="#fdfdfd" opacity="1.00" d=" M 331.18 335.80 C 331.97 336.03 332.75 336.25 333.56 336.49 C 334.59 337.55 335.62 338.62 336.67 339.68 C 333.44 339.50 330.30 340.38 327.36 341.65 C 327.66 340.56 327.96 339.47 328.26 338.39 C 329.56 337.93 330.44 336.93 331.18 335.80 Z" />
<path fill="#fdfdfd" opacity="1.00" d=" M 317.42 336.39 C 318.47 336.40 319.53 336.41 320.59 336.42 C 321.97 337.93 323.35 339.44 324.59 341.07 C 320.83 341.33 317.17 342.46 313.38 342.20 C 312.73 342.47 311.45 343.00 310.80 343.27 C 312.05 340.16 314.68 338.12 317.42 336.39 Z" />
<path fill="#fdfdfd" opacity="1.00" d=" M 296.55 340.89 C 298.33 339.18 300.56 337.82 302.93 337.13 C 304.62 338.55 306.06 340.24 307.27 342.10 C 303.64 342.34 300.02 342.03 296.55 340.89 Z" />
<path fill="#d03444" opacity="1.00" d=" M 234.56 409.50 C 236.52 409.46 238.49 409.43 240.46 409.43 C 240.71 424.96 240.42 440.50 240.62 456.04 C 238.56 456.17 236.50 456.22 234.45 456.22 C 234.80 454.87 235.27 453.56 235.56 452.21 C 233.79 452.60 233.35 454.84 231.73 455.57 C 226.52 458.85 219.33 457.13 215.44 452.58 C 210.66 447.35 210.40 439.63 211.67 433.02 C 212.63 428.88 214.99 424.66 219.02 422.86 C 224.19 420.75 230.76 421.20 234.63 425.62 C 234.39 420.24 234.59 414.87 234.56 409.50 M 223.70 426.98 C 219.88 427.68 217.93 431.53 217.53 435.06 C 217.05 439.20 216.98 443.63 218.74 447.50 C 220.34 449.95 222.87 452.36 226.04 451.92 C 230.88 452.38 234.70 447.59 234.70 443.03 C 234.89 438.32 235.31 432.88 231.86 429.14 C 229.89 426.76 226.56 426.29 223.70 426.98 Z" />
<path fill="#d03444" opacity="1.00" d=" M 249.11 409.43 C 251.04 409.42 252.98 409.41 254.91 409.39 C 255.06 411.69 255.16 414.00 255.19 416.31 C 253.07 416.34 250.96 416.35 248.86 416.34 C 248.89 414.03 248.97 411.72 249.11 409.43 Z" />
<path fill="#d03444" opacity="1.00" d=" M 285.05 409.39 C 286.95 409.39 288.85 409.40 290.75 409.41 C 291.03 424.99 290.80 440.58 290.87 456.16 C 288.95 456.22 287.02 456.26 285.11 456.30 C 285.08 455.03 285.08 453.76 285.12 452.50 C 282.45 457.31 276.63 457.40 271.81 457.27 C 269.74 455.34 266.85 454.41 265.17 452.06 C 261.52 447.59 260.85 441.43 261.42 435.88 C 261.92 430.83 264.22 425.41 268.97 423.03 C 274.10 420.82 280.46 421.13 284.65 425.13 C 285.02 419.89 284.55 414.63 285.05 409.39 M 274.06 426.96 C 269.44 427.77 267.75 432.96 267.49 437.03 C 267.21 441.72 267.52 447.45 271.63 450.51 C 274.69 453.17 279.93 452.69 282.39 449.43 C 284.95 446.68 285.34 442.68 285.33 439.09 C 285.13 435.56 284.61 431.67 282.03 429.03 C 280.10 426.77 276.80 426.45 274.06 426.96 Z" />
<path fill="#d03444" opacity="1.00" d=" M 335.58 409.46 C 337.54 409.44 339.50 409.44 341.48 409.45 C 341.59 414.85 341.50 420.24 341.53 425.64 C 345.99 421.04 353.91 420.38 359.27 423.65 C 362.57 425.91 363.34 430.20 363.35 433.94 C 363.34 441.38 363.33 448.83 363.31 456.27 C 361.29 456.23 359.28 456.16 357.27 456.09 C 357.32 448.72 357.38 441.35 357.30 433.99 C 357.40 431.20 356.05 427.65 352.93 427.22 C 350.39 427.03 347.49 426.64 345.29 428.21 C 342.33 430.02 341.65 433.84 341.56 437.05 C 341.53 443.37 341.51 449.69 341.59 456.01 C 339.59 456.16 337.58 456.26 335.58 456.31 C 335.50 440.69 335.53 425.07 335.58 409.46 Z" />
<path fill="#d03444" opacity="1.00" d=" M 318.55 413.91 C 320.43 412.85 322.32 411.82 324.24 410.84 C 324.46 414.56 324.44 418.29 324.39 422.02 C 326.29 422.16 328.19 422.28 330.09 422.39 C 330.15 423.88 330.21 425.37 330.28 426.88 C 328.30 427.02 326.32 427.15 324.35 427.28 C 324.56 434.50 324.21 441.73 324.56 448.94 C 324.73 451.75 328.36 450.72 330.23 451.29 C 330.44 453.00 330.64 454.72 330.83 456.45 C 327.27 456.64 323.22 457.24 320.19 454.90 C 318.52 452.65 318.49 449.67 318.41 447.00 C 318.41 440.37 318.48 433.75 318.37 427.12 C 317.40 427.11 315.46 427.08 314.49 427.07 C 314.43 425.49 314.37 423.92 314.32 422.35 C 315.66 422.31 317.01 422.28 318.37 422.26 C 318.40 419.47 318.46 416.69 318.55 413.91 Z" />
<path fill="#d03444" opacity="1.00" d=" M 441.80 421.65 C 442.42 421.10 443.03 420.55 443.64 420.00 L 442.94 421.44 C 445.76 421.68 448.63 422.14 451.14 423.54 C 457.01 427.07 459.04 434.25 458.73 440.73 C 452.15 441.02 445.56 440.65 438.98 440.88 C 436.50 440.74 433.29 443.15 434.47 445.86 C 436.13 450.23 441.21 453.18 445.84 451.86 C 449.22 451.31 450.89 448.00 452.52 445.37 C 454.52 445.54 456.52 445.74 458.53 445.95 C 457.65 448.93 456.45 452.00 453.89 453.94 C 446.47 459.67 434.07 457.99 429.46 449.45 C 429.27 449.56 428.90 449.78 428.71 449.89 C 428.26 447.25 427.72 444.63 427.26 442.00 C 427.21 436.59 427.75 430.72 431.52 426.50 C 433.95 423.30 438.00 422.17 441.80 421.65 M 439.87 426.85 C 437.24 429.23 435.99 432.73 433.84 435.51 C 439.76 436.96 446.00 436.00 452.04 435.88 L 452.63 435.88 C 451.92 432.16 450.12 427.92 445.96 427.14 L 446.27 426.53 C 444.14 426.57 441.96 426.33 439.87 426.85 Z" />
<path fill="#d03444" opacity="1.00" d=" M 249.12 422.29 C 251.06 422.27 252.99 422.27 254.93 422.29 C 255.41 433.59 255.00 444.91 255.12 456.22 C 253.06 456.24 251.00 456.25 248.94 456.24 C 249.03 444.92 248.70 433.60 249.12 422.29 Z" />
<path fill="#d03444" opacity="1.00" d=" M 375.26 425.09 C 381.97 419.76 394.07 420.35 398.42 428.44 C 400.71 432.11 401.05 436.54 400.85 440.76 C 392.59 440.97 384.33 440.67 376.07 440.92 C 376.25 443.82 376.59 447.04 378.95 449.07 C 382.06 452.79 388.36 453.26 391.92 449.94 C 393.07 448.59 393.86 446.98 394.74 445.46 C 396.73 445.53 398.72 445.62 400.72 445.70 C 400.04 452.85 392.82 457.64 385.98 457.25 C 378.34 457.77 370.82 451.70 370.01 444.04 C 368.84 437.43 370.07 429.76 375.26 425.09 M 381.56 427.51 C 378.55 429.16 376.56 432.30 376.06 435.67 C 382.37 435.75 388.68 435.83 394.99 435.69 C 394.05 432.80 393.31 429.22 390.35 427.73 C 387.62 426.51 384.32 426.26 381.56 427.51 Z" />
<path fill="#d03444" opacity="1.00" d=" M 407.80 422.24 C 409.59 422.27 411.37 422.31 413.16 422.35 C 413.01 423.82 412.87 425.31 412.68 426.79 C 414.27 425.01 415.62 422.70 418.00 421.91 C 420.77 421.49 423.86 421.78 426.18 423.49 C 425.88 425.12 425.35 426.71 424.92 428.33 C 422.27 428.29 419.59 428.05 416.96 428.49 C 414.41 430.53 413.98 433.95 413.72 436.99 C 413.45 442.64 413.84 448.31 413.62 453.98 C 413.60 454.37 413.54 455.17 413.51 455.57 C 412.54 455.96 411.57 456.34 410.63 456.78 C 409.89 456.56 408.40 456.11 407.65 455.89 C 407.71 444.67 407.41 433.45 407.80 422.24 Z" />
<path fill="#fdfdfd" opacity="1.00" d=" M 223.70 426.98 C 226.56 426.29 229.89 426.76 231.86 429.14 C 235.31 432.88 234.89 438.32 234.70 443.03 C 234.70 447.59 230.88 452.38 226.04 451.92 C 222.87 452.36 220.34 449.95 218.74 447.50 C 216.98 443.63 217.05 439.20 217.53 435.06 C 217.93 431.53 219.88 427.68 223.70 426.98 Z" />
<path fill="#020202" opacity="1.00" d=" M 439.87 426.85 C 441.96 426.33 444.14 426.57 446.27 426.53 L 445.96 427.14 C 444.70 430.17 441.73 432.47 441.22 435.76 C 444.82 436.03 448.43 435.82 452.04 435.88 C 446.00 436.00 439.76 436.96 433.84 435.51 C 435.99 432.73 437.24 429.23 439.87 426.85 Z" />
<path fill="#fdfdfd" opacity="1.00" d=" M 274.06 426.96 C 276.80 426.45 280.10 426.77 282.03 429.03 C 284.61 431.67 285.13 435.56 285.33 439.09 C 285.34 442.68 284.95 446.68 282.39 449.43 C 279.93 452.69 274.69 453.17 271.63 450.51 C 267.52 447.45 267.21 441.72 267.49 437.03 C 267.75 432.96 269.44 427.77 274.06 426.96 Z" />
<path fill="#fdfdfd" opacity="1.00" d=" M 381.56 427.51 C 384.32 426.26 387.62 426.51 390.35 427.73 C 393.31 429.22 394.05 432.80 394.99 435.69 C 388.68 435.83 382.37 435.75 376.06 435.67 C 376.56 432.30 378.55 429.16 381.56 427.51 Z" />
<path fill="#fdfdfd" opacity="1.00" d=" M 445.96 427.14 C 450.12 427.92 451.92 432.16 452.63 435.88 L 452.04 435.88 C 448.43 435.82 444.82 436.03 441.22 435.76 C 441.73 432.47 444.70 430.17 445.96 427.14 Z" />
<path fill="#020202" opacity="1.00" d=" M 413.62 453.98 C 418.68 450.60 423.77 447.11 427.26 442.00 C 427.72 444.63 428.26 447.25 428.71 449.89 C 428.18 450.20 427.12 450.83 426.59 451.14 C 425.23 453.72 422.15 454.45 420.47 456.73 C 418.08 458.21 415.40 459.32 413.43 461.37 C 409.62 466.03 402.95 466.69 398.87 471.02 C 397.73 472.41 396.05 473.07 394.46 473.77 C 393.00 474.60 391.54 475.45 389.92 475.95 C 380.26 478.88 370.44 481.31 360.85 484.49 C 357.37 485.73 353.60 485.16 350.08 486.15 C 340.52 486.57 330.93 485.92 321.38 486.45 C 319.22 487.84 317.77 490.03 316.18 492.00 L 306.80 492.00 C 308.24 487.85 308.03 482.79 311.53 479.67 C 316.19 481.26 321.18 480.41 326.00 480.61 C 334.33 480.38 342.73 481.16 351.01 479.99 C 358.45 479.53 365.27 476.15 372.51 474.63 C 381.04 471.78 390.53 470.57 397.65 464.60 C 401.53 461.28 406.36 459.48 410.63 456.78 C 411.57 456.34 412.54 455.96 413.51 455.57 C 413.54 455.17 413.60 454.37 413.62 453.98 Z" />
</svg>
