<?xml version="1.0" encoding="UTF-8" ?>
<!DOCTYPE svg PUBLIC "-//W3C//DTD SVG 1.1//EN" "http://www.w3.org/Graphics/SVG/1.1/DTD/svg11.dtd">
<svg width="420pt" height="317pt" viewBox="0 0 420 317" version="1.1" xmlns="http://www.w3.org/2000/svg">
<g id="#030303ff">
<path fill="#030303" opacity="1.00" d=" M 0.00 0.00 L 0.28 0.00 C 0.21 0.06 0.07 0.18 0.00 0.23 L 0.00 0.00 Z" />
<path fill="#030303" opacity="1.00" d=" M 180.78 89.74 C 186.10 87.11 192.33 89.89 196.36 93.61 C 198.14 95.71 200.46 97.70 200.86 100.56 C 199.87 99.98 198.80 99.53 197.73 99.17 C 196.05 96.89 192.93 96.50 190.50 95.33 C 189.23 93.94 188.20 91.84 186.04 91.81 C 184.12 91.56 181.15 91.30 180.75 93.85 C 181.96 94.28 184.76 94.01 183.01 95.86 C 181.15 96.24 179.38 96.94 177.83 98.01 C 175.00 99.57 173.01 102.12 170.89 104.46 C 170.11 104.46 169.34 104.44 168.57 104.40 C 168.45 102.75 168.11 101.04 168.59 99.41 C 172.24 95.72 176.46 92.63 180.78 89.74 Z" />
<path fill="#030303" opacity="1.00" d=" M 152.32 105.33 C 152.56 104.86 153.03 103.92 153.26 103.44 C 155.17 105.17 157.33 106.57 159.31 108.21 C 158.95 108.50 158.25 109.07 157.90 109.35 C 156.63 108.01 155.25 106.78 153.62 105.90 C 153.47 105.82 153.17 105.67 153.02 105.60 L 152.32 105.33 Z" />
</g>
<g id="#ffffffff">
<path fill="#ffffff" opacity="1.00" d=" M 0.28 0.00 L 420.00 0.00 L 420.00 317.00 L 0.00 317.00 L 0.00 0.23 C 0.07 0.18 0.21 0.06 0.28 0.00 M 213.06 15.76 C 206.70 15.77 200.33 15.54 193.98 15.94 L 193.84 16.45 C 192.26 16.19 190.87 17.10 189.50 17.72 C 185.91 19.52 181.94 20.52 178.59 22.80 C 174.53 25.55 169.53 26.54 165.76 29.75 C 161.24 33.40 156.16 36.23 151.52 39.71 C 149.47 41.96 147.90 44.61 145.55 46.59 C 143.72 48.21 145.26 51.00 144.12 52.91 C 143.07 54.58 141.68 56.09 141.10 58.01 C 140.50 58.89 139.57 59.69 139.62 60.86 C 138.88 65.22 139.54 69.61 139.42 73.99 C 139.17 77.09 141.05 79.88 140.63 83.00 C 141.09 87.43 138.96 91.89 140.31 96.22 C 140.41 97.72 140.01 99.77 141.88 100.33 C 143.50 101.12 144.03 102.94 144.93 104.37 C 145.96 106.21 147.72 107.46 149.03 109.08 C 149.96 110.72 150.33 112.72 151.82 113.99 L 150.95 115.22 L 150.43 115.37 L 150.60 115.86 C 149.51 117.17 149.47 118.49 150.50 119.83 C 150.17 123.22 150.19 126.64 150.30 130.05 L 149.86 130.90 L 150.36 131.85 L 151.26 131.88 L 151.70 133.11 C 151.75 133.17 151.85 133.30 151.90 133.36 C 153.23 134.99 154.94 136.21 156.63 137.43 C 158.18 138.55 159.22 140.40 161.16 140.94 C 162.50 141.41 163.35 142.61 164.46 143.42 L 164.52 143.96 L 165.17 143.81 C 165.61 145.26 167.13 145.98 168.21 146.92 C 169.98 149.90 172.28 152.89 175.44 154.53 C 173.83 157.16 176.33 159.29 177.58 161.38 C 178.81 163.03 178.65 165.18 179.15 167.09 C 177.20 165.56 175.10 164.05 173.83 161.87 C 172.84 159.26 172.03 156.58 170.83 154.05 C 170.65 154.52 170.29 155.45 170.11 155.91 L 168.99 155.55 C 165.53 151.33 163.89 146.04 160.98 141.49 L 159.39 140.65 C 159.23 143.69 161.08 146.28 162.23 148.96 C 164.44 153.47 168.86 156.52 170.86 161.11 C 167.72 163.08 164.68 165.22 161.82 167.58 C 160.20 167.39 158.92 168.79 157.54 169.45 C 154.89 171.44 151.30 171.02 148.54 172.77 C 144.29 174.94 140.62 178.35 135.85 179.36 C 132.69 180.27 130.11 182.46 127.03 183.55 C 124.97 184.23 122.89 184.83 120.97 185.85 C 114.75 189.03 108.07 191.16 101.75 194.09 C 102.18 196.38 100.36 197.75 99.19 199.42 C 98.14 205.22 98.69 211.14 98.54 217.00 C 98.40 222.12 99.40 227.17 100.00 232.23 C 100.70 235.85 101.26 239.68 103.52 242.73 C 102.90 234.17 102.31 225.60 102.63 217.02 C 102.88 209.64 102.10 201.70 105.73 194.97 C 113.55 192.43 120.68 188.22 128.44 185.56 C 131.62 184.00 134.65 182.09 138.10 181.14 C 144.15 179.39 148.52 173.62 154.98 173.13 C 152.86 176.65 150.45 180.05 149.07 183.96 C 147.42 188.69 145.42 193.28 143.71 197.99 C 141.99 200.21 141.77 203.15 141.21 205.81 L 141.85 205.26 C 145.52 208.33 149.16 211.85 153.78 213.41 L 152.89 214.53 C 149.17 216.46 146.07 219.36 142.52 221.57 C 140.21 222.80 140.42 225.73 140.72 227.95 C 142.19 234.01 144.19 239.94 146.28 245.82 C 146.31 249.10 147.98 252.13 149.57 254.92 C 149.26 250.96 150.73 246.48 148.28 242.99 C 146.49 238.18 145.69 233.13 144.91 228.08 C 145.08 227.57 145.42 226.55 145.59 226.04 C 146.89 225.13 147.12 223.34 148.37 222.38 C 151.11 220.05 154.02 217.92 157.16 216.14 C 157.40 215.67 157.89 214.74 158.13 214.28 L 158.48 212.88 C 158.23 212.54 157.75 211.87 157.51 211.53 C 153.15 208.76 148.07 207.37 143.69 204.63 C 144.79 201.73 146.69 199.02 146.78 195.83 C 149.87 187.36 153.37 178.86 158.82 171.59 C 159.64 170.46 161.46 170.17 161.82 168.76 C 165.66 167.81 168.18 164.13 171.92 163.01 C 172.96 163.90 173.85 164.94 174.71 166.00 C 173.12 171.22 170.85 176.41 171.22 182.00 C 170.68 190.81 173.55 199.27 176.44 207.45 C 176.79 209.47 180.13 210.72 181.06 208.46 L 182.06 209.21 C 182.51 212.98 182.53 216.79 182.77 220.57 C 182.82 221.85 184.08 221.69 184.46 220.67 C 185.83 215.12 184.95 209.29 186.16 203.72 C 188.93 204.27 191.78 205.08 194.62 204.55 C 197.22 203.35 198.57 200.53 201.03 199.12 C 202.61 198.22 204.31 197.58 205.91 196.73 C 205.80 200.09 204.31 203.22 203.80 206.53 C 203.57 208.88 201.66 210.57 201.35 212.89 C 199.39 220.43 199.87 228.29 199.84 236.01 C 200.53 246.97 200.17 257.99 201.18 268.94 C 201.22 275.19 202.04 281.37 203.09 287.52 C 203.72 293.81 204.41 300.19 206.97 306.04 C 207.40 306.27 208.26 306.72 208.69 306.94 C 208.80 305.19 208.79 303.43 208.66 301.69 C 207.91 299.92 206.04 298.70 206.72 296.52 C 206.33 296.34 205.54 295.97 205.15 295.78 L 206.76 295.89 C 205.52 289.35 205.01 282.70 203.93 276.13 C 203.23 267.11 203.54 258.04 202.81 249.03 C 202.65 240.01 202.71 230.99 202.63 221.98 C 202.58 219.96 202.73 217.92 203.49 216.03 C 204.26 221.69 205.01 227.36 206.19 232.96 C 207.17 240.42 208.43 247.90 210.94 255.02 C 211.82 258.72 213.34 262.20 215.28 265.47 C 215.77 267.36 217.88 268.76 217.31 270.99 C 217.68 272.25 216.56 274.50 218.21 275.05 C 218.39 280.75 220.96 285.99 222.29 291.47 C 223.21 295.83 225.35 300.02 227.65 303.68 C 226.77 300.44 226.28 297.07 225.23 293.86 C 227.54 292.15 227.88 296.30 229.96 296.43 C 230.60 296.41 231.87 296.38 232.50 296.36 C 232.86 294.99 233.52 293.49 232.99 292.07 C 231.52 286.65 229.01 281.53 228.02 275.98 C 227.71 273.60 226.23 271.52 226.25 269.09 C 226.08 264.39 225.36 259.73 225.34 255.03 C 225.40 250.95 223.48 247.12 223.66 243.04 C 223.88 240.00 225.19 237.07 224.82 233.98 C 223.90 226.69 224.65 219.34 224.33 212.02 C 224.46 209.73 223.81 207.17 225.14 205.13 C 226.25 202.80 229.07 202.34 230.89 200.75 C 232.65 203.01 234.24 205.46 236.49 207.28 L 236.22 207.68 C 238.83 208.65 240.11 205.77 241.35 204.07 C 245.13 197.78 250.18 192.13 252.56 185.10 C 252.53 199.54 248.02 213.62 248.27 228.09 L 247.82 228.97 C 247.05 235.53 245.59 242.18 246.48 248.81 C 246.66 248.73 247.03 248.58 247.22 248.51 C 249.46 243.68 249.00 238.14 250.10 233.01 C 251.74 231.27 253.11 229.25 254.03 227.03 C 255.48 223.20 256.16 219.14 256.62 215.08 C 257.57 207.20 259.26 199.43 261.53 191.83 C 262.95 187.35 262.97 181.35 268.03 179.28 C 274.86 179.13 282.26 180.03 288.01 183.99 C 290.97 189.65 292.61 195.92 295.39 201.69 C 294.14 202.77 292.59 203.38 291.10 204.01 C 288.04 205.24 285.29 207.10 282.42 208.69 C 281.38 210.94 284.23 211.38 285.48 212.44 C 289.80 216.27 294.14 220.09 298.35 224.05 C 297.55 227.01 297.91 230.17 296.71 233.05 C 295.68 237.45 293.32 241.56 293.22 246.16 C 294.43 247.94 295.79 249.62 296.81 251.54 L 298.02 251.85 C 300.82 249.47 301.77 245.69 303.78 242.70 C 306.08 241.95 308.23 240.76 310.61 240.24 C 310.74 239.87 311.01 239.14 311.14 238.78 C 313.66 237.85 316.15 236.34 317.59 234.01 C 317.42 231.05 315.21 234.39 313.84 234.27 C 315.55 232.67 316.70 230.59 317.69 228.50 C 314.83 227.93 314.22 231.53 312.33 232.93 C 312.39 231.42 313.79 229.23 312.00 228.27 C 310.69 228.99 310.37 230.50 309.68 231.68 C 309.18 231.32 308.20 230.59 307.71 230.22 C 307.44 228.78 307.28 227.14 305.95 226.24 L 305.57 225.11 C 305.90 222.71 306.81 219.93 305.27 217.76 C 304.02 216.07 302.31 214.79 300.59 213.63 C 300.63 213.27 300.70 212.54 300.74 212.18 C 302.87 211.65 305.07 211.15 306.96 209.97 C 307.89 208.72 307.53 206.53 309.62 206.51 C 309.73 204.61 310.31 202.44 309.12 200.77 C 308.07 199.25 306.91 197.30 304.89 197.12 C 305.06 192.34 302.16 188.12 302.27 183.39 C 307.46 182.42 312.75 182.25 318.01 182.17 C 321.77 182.04 325.11 184.00 328.48 185.37 C 332.78 187.04 336.84 189.24 341.01 191.21 C 342.35 191.98 344.11 192.64 344.62 194.26 C 346.39 199.49 343.64 204.78 344.07 210.13 C 342.34 215.68 341.32 221.44 339.25 226.89 C 337.41 231.33 336.92 236.20 336.74 240.96 C 336.45 242.97 335.83 244.94 335.72 246.97 C 337.10 249.58 335.38 252.61 336.64 255.23 C 337.32 256.91 339.03 257.78 340.43 258.80 C 340.50 257.64 340.63 256.49 340.82 255.35 C 343.14 254.03 345.12 252.19 346.54 249.92 L 345.87 249.37 C 348.35 247.80 350.15 245.29 352.84 243.98 C 356.14 241.56 360.36 241.57 364.15 240.44 C 365.48 241.07 365.59 242.80 366.32 243.93 C 369.23 250.23 373.59 256.26 373.42 263.51 C 373.92 263.49 374.91 263.44 375.41 263.42 C 375.75 259.18 377.97 255.29 377.63 250.99 C 377.67 247.32 377.98 243.64 377.74 239.96 C 377.51 237.26 376.65 234.66 376.49 231.95 C 376.10 226.03 373.14 220.70 372.35 214.87 C 372.06 212.95 372.33 210.94 371.50 209.13 C 369.37 203.62 366.97 198.19 363.97 193.10 C 361.78 190.01 360.13 186.58 358.10 183.40 C 355.69 183.02 353.26 183.29 350.84 183.27 C 347.99 182.60 345.68 180.62 342.96 179.60 C 336.30 176.97 329.35 175.03 322.96 171.77 C 319.36 170.63 315.71 169.43 311.93 169.23 C 303.25 167.23 295.32 162.94 286.90 160.10 C 284.91 159.34 283.10 158.10 280.94 157.83 C 279.37 157.66 278.39 156.27 276.99 155.73 C 275.31 155.24 273.59 154.93 271.96 154.31 C 269.17 152.24 268.31 148.69 266.44 145.91 C 264.52 143.02 263.23 139.43 259.99 137.72 C 257.46 136.23 255.02 134.54 252.29 133.41 C 252.22 127.61 252.33 121.81 252.25 116.01 C 252.00 111.93 256.25 109.65 257.07 105.90 C 257.33 103.23 260.72 102.63 261.32 100.25 C 260.84 97.17 261.80 94.11 261.43 91.03 C 260.96 86.06 260.34 80.99 260.96 76.02 C 263.63 75.29 261.12 72.66 260.86 71.09 C 260.87 67.33 259.78 63.60 260.71 59.89 C 260.31 58.54 259.39 57.34 259.32 55.90 C 259.14 53.12 257.63 50.72 256.92 48.08 C 256.74 45.32 256.21 42.59 255.37 39.95 C 253.94 38.86 252.24 38.16 250.83 37.04 C 250.66 35.98 250.47 34.92 250.28 33.86 C 248.93 32.88 247.42 32.14 246.20 30.99 C 245.57 29.99 245.80 28.12 244.18 28.12 C 241.72 26.67 238.48 27.29 235.94 25.80 C 235.23 24.46 234.88 22.59 232.88 22.96 C 231.19 21.29 229.52 19.58 227.86 17.87 C 226.39 16.22 223.10 13.66 221.71 16.74 C 218.97 15.52 215.99 15.41 213.06 15.76 M 96.96 195.80 C 94.81 200.48 91.84 204.84 90.73 209.94 C 90.02 214.31 88.89 218.59 87.87 222.90 C 86.82 225.69 86.60 228.71 86.39 231.65 C 86.73 231.68 87.40 231.75 87.74 231.78 C 89.76 230.17 89.51 227.19 89.72 224.88 C 91.19 219.96 92.69 215.05 93.65 210.01 C 94.62 205.83 97.20 202.31 98.60 198.31 C 99.94 196.82 101.60 195.40 101.48 193.19 C 99.67 193.13 97.54 193.95 96.96 195.80 M 195.27 217.14 C 191.76 220.72 191.73 226.34 191.51 231.07 C 190.52 238.68 190.76 246.41 191.22 254.06 C 191.35 258.54 193.02 262.74 194.01 267.06 L 194.75 267.07 C 197.20 253.86 195.99 240.38 196.49 227.04 C 196.74 223.69 199.51 219.02 196.00 216.55 L 195.27 217.14 M 347.42 250.23 C 346.17 252.09 344.47 253.74 343.82 255.93 C 345.79 256.17 347.05 254.57 348.21 253.26 C 349.33 252.42 350.37 249.39 348.01 249.49 L 347.42 250.23 M 347.24 256.17 C 346.05 256.74 343.92 256.87 344.20 258.66 C 346.01 259.84 349.40 258.24 349.11 255.95 C 348.64 256.00 347.70 256.11 347.24 256.17 M 209.26 260.46 C 209.08 260.68 208.72 261.14 208.54 261.36 C 208.48 269.41 207.26 277.85 210.33 285.53 C 211.12 287.62 211.13 290.06 212.57 291.88 C 213.13 286.81 211.35 281.97 210.74 277.01 C 209.61 271.44 210.52 265.72 209.54 260.13 L 209.26 260.46 M 194.16 297.05 C 191.88 298.33 192.33 301.74 193.04 303.84 C 193.84 304.76 195.16 307.09 196.50 305.50 C 199.42 303.50 198.34 299.54 198.32 296.58 C 196.87 296.37 195.48 296.53 194.16 297.05 Z" />
</g>
<g id="#454545ff">
<path fill="#454545" opacity="1.00" d=" M 213.06 15.76 C 215.99 15.41 218.97 15.52 221.71 16.74 C 223.10 13.66 226.39 16.22 227.86 17.87 C 223.79 16.40 219.23 19.57 215.56 16.64 C 213.13 17.32 210.65 18.23 208.11 17.41 C 203.45 16.13 198.60 16.78 193.84 16.45 L 193.98 15.94 C 200.33 15.54 206.70 15.77 213.06 15.76 Z" />
</g>
<g id="#000000ff">
<path fill="#000000" opacity="1.00" d=" M 208.11 17.41 C 210.65 18.23 213.13 17.32 215.56 16.64 C 219.23 19.57 223.79 16.40 227.86 17.87 C 229.52 19.58 231.19 21.29 232.88 22.96 C 233.92 24.31 234.73 25.86 236.04 26.97 C 238.65 27.82 241.47 27.73 244.18 28.12 C 245.80 28.12 245.57 29.99 246.20 30.99 C 247.42 32.14 248.93 32.88 250.28 33.86 C 250.47 34.92 250.66 35.98 250.83 37.04 C 252.24 38.16 253.94 38.86 255.37 39.95 C 256.21 42.59 256.74 45.32 256.92 48.08 C 257.63 50.72 259.14 53.12 259.32 55.90 C 259.39 57.34 260.31 58.54 260.71 59.89 C 259.78 63.60 260.87 67.33 260.86 71.09 C 261.12 72.66 263.63 75.29 260.96 76.02 C 260.34 80.99 260.96 86.06 261.43 91.03 C 261.80 94.11 260.84 97.17 261.32 100.25 C 260.72 102.63 257.33 103.23 257.07 105.90 C 256.25 109.65 252.00 111.93 252.25 116.01 C 252.33 121.81 252.22 127.61 252.29 133.41 C 255.02 134.54 257.46 136.23 259.99 137.72 C 263.23 139.43 264.52 143.02 266.44 145.91 C 268.31 148.69 269.17 152.24 271.96 154.31 C 273.59 154.93 275.31 155.24 276.99 155.73 C 278.39 156.27 279.37 157.66 280.94 157.83 C 283.10 158.10 284.91 159.34 286.90 160.10 C 295.32 162.94 303.25 167.23 311.93 169.23 C 315.71 169.43 319.36 170.63 322.96 171.77 C 329.35 175.03 336.30 176.97 342.96 179.60 C 345.68 180.62 347.99 182.60 350.84 183.27 C 353.26 183.29 355.69 183.02 358.10 183.40 C 360.13 186.58 361.78 190.01 363.97 193.10 C 366.97 198.19 369.37 203.62 371.50 209.13 C 372.33 210.94 372.06 212.95 372.35 214.87 C 373.14 220.70 376.10 226.03 376.49 231.95 C 376.65 234.66 377.51 237.26 377.74 239.96 C 377.98 243.64 377.67 247.32 377.63 250.99 C 377.97 255.29 375.75 259.18 375.41 263.42 C 374.91 263.44 373.92 263.49 373.42 263.51 C 373.59 256.26 369.23 250.23 366.32 243.93 C 365.59 242.80 365.48 241.07 364.15 240.44 C 360.36 241.57 356.14 241.56 352.84 243.98 C 350.15 245.29 348.35 247.80 345.87 249.37 C 343.10 250.47 341.10 252.73 338.88 254.61 C 338.37 254.55 337.35 254.42 336.84 254.36 C 336.44 249.90 336.68 245.42 336.74 240.96 C 336.92 236.20 337.41 231.33 339.25 226.89 C 341.32 221.44 342.34 215.68 344.07 210.13 C 345.76 204.28 346.44 197.90 344.95 191.94 C 344.46 189.21 342.43 187.22 340.97 185.00 C 339.43 182.87 338.08 180.36 335.58 179.23 C 333.03 178.04 330.29 177.39 327.67 176.40 C 324.00 175.08 320.60 172.79 316.62 172.51 C 312.31 172.20 308.17 173.69 303.95 174.27 C 299.61 174.75 295.59 176.54 291.42 177.68 C 294.64 181.96 292.52 187.97 295.83 192.15 C 297.54 194.70 299.85 196.77 301.76 199.17 C 303.15 201.27 304.69 203.26 306.42 205.09 C 306.42 206.52 307.62 208.95 305.63 209.59 C 303.18 210.89 300.48 211.59 297.96 212.72 C 296.09 213.51 294.12 214.02 292.16 214.53 C 294.99 216.69 297.98 218.77 300.01 221.78 C 301.30 224.05 303.70 225.15 305.95 226.24 C 307.28 227.14 307.44 228.78 307.71 230.22 C 308.20 230.59 309.18 231.32 309.68 231.68 C 310.37 230.50 310.69 228.99 312.00 228.27 C 313.79 229.23 312.39 231.42 312.33 232.93 C 314.22 231.53 314.83 227.93 317.69 228.50 C 316.70 230.59 315.55 232.67 313.84 234.27 C 312.73 234.37 311.61 234.33 310.52 234.47 C 309.07 235.30 307.91 236.54 306.80 237.77 C 305.55 239.25 304.69 241.00 303.78 242.70 C 301.77 245.69 300.82 249.47 298.02 251.85 L 296.81 251.54 C 295.79 249.62 294.43 247.94 293.22 246.16 C 293.32 241.56 295.68 237.45 296.71 233.05 C 297.91 230.17 297.55 227.01 298.35 224.05 C 294.14 220.09 289.80 216.27 285.48 212.44 C 284.23 211.38 281.38 210.94 282.42 208.69 C 285.29 207.10 288.04 205.24 291.10 204.01 C 292.59 203.38 294.14 202.77 295.39 201.69 C 292.61 195.92 290.97 189.65 288.01 183.99 C 282.26 180.03 274.86 179.13 268.03 179.28 C 262.97 181.35 262.95 187.35 261.53 191.83 C 259.26 199.43 257.57 207.20 256.62 215.08 C 256.16 219.14 255.48 223.20 254.03 227.03 C 253.55 227.35 252.59 228.00 252.11 228.32 C 250.83 228.25 249.55 228.17 248.27 228.09 C 248.02 213.62 252.53 199.54 252.56 185.10 C 250.18 192.13 245.13 197.78 241.35 204.07 C 240.11 205.77 238.83 208.65 236.22 207.68 L 236.49 207.28 C 237.04 206.51 237.61 205.73 238.10 204.91 C 239.76 201.83 241.61 198.86 243.72 196.07 C 247.13 191.52 249.40 186.28 251.63 181.09 C 253.08 177.66 255.03 174.45 256.24 170.93 C 257.47 166.05 257.24 160.97 257.54 155.99 C 257.53 150.66 258.41 145.03 256.03 140.05 C 255.46 138.01 253.63 136.86 251.94 135.84 C 251.89 136.70 251.81 138.43 251.77 139.29 C 249.50 132.91 251.35 126.02 250.59 119.45 L 250.19 118.87 C 247.76 120.44 245.03 122.29 242.03 121.03 C 239.70 120.74 238.63 116.97 240.97 115.81 C 241.55 116.97 242.21 118.07 242.97 119.12 C 244.40 119.53 245.79 119.07 247.01 118.31 C 248.96 116.99 249.19 114.48 250.37 112.60 C 251.87 109.52 254.84 107.28 255.66 103.87 C 256.71 100.80 255.97 97.44 257.09 94.39 C 257.66 92.38 258.51 90.30 258.08 88.18 C 257.60 85.20 255.49 82.87 253.39 80.86 C 251.69 78.99 248.98 79.79 246.86 80.22 C 243.89 80.72 241.59 82.82 238.92 84.07 C 235.95 84.97 234.62 88.09 234.74 91.00 C 234.92 93.24 233.93 95.16 232.86 97.03 C 232.98 98.17 233.27 99.28 233.40 100.41 C 232.15 103.05 229.06 102.46 226.76 102.04 C 225.14 100.84 223.83 99.05 221.63 98.96 C 220.19 97.02 219.08 94.36 216.26 94.31 C 214.97 92.69 214.27 90.61 212.63 89.27 C 210.38 88.01 207.55 88.05 205.49 86.38 C 205.03 83.92 205.49 81.43 205.46 78.96 C 203.06 74.85 198.64 72.24 196.73 67.81 C 197.46 63.00 198.65 58.16 200.20 53.54 C 202.21 53.86 203.66 52.64 204.72 51.10 C 206.27 49.41 207.18 47.27 207.68 45.06 C 205.41 45.40 203.08 46.09 201.39 47.73 C 200.77 48.67 200.12 49.60 199.44 50.50 C 198.47 51.21 197.04 51.36 196.34 52.39 C 194.48 55.22 193.23 58.45 191.06 61.07 C 189.34 63.11 186.47 63.23 184.03 63.56 C 181.60 63.68 179.52 65.01 177.45 66.11 C 174.09 68.00 170.63 69.72 167.16 71.39 C 162.23 74.11 156.41 73.44 151.00 73.76 C 147.90 74.12 145.09 72.57 142.91 70.51 C 141.98 69.32 141.00 68.14 140.25 66.83 C 139.85 63.87 140.51 60.90 141.10 58.01 C 141.68 56.09 143.07 54.58 144.12 52.91 C 145.26 51.00 143.72 48.21 145.55 46.59 C 147.90 44.61 149.47 41.96 151.52 39.71 C 156.16 36.23 161.24 33.40 165.76 29.75 C 169.53 26.54 174.53 25.55 178.59 22.80 C 181.94 20.52 185.91 19.52 189.50 17.72 C 190.87 17.10 192.26 16.19 193.84 16.45 C 198.60 16.78 203.45 16.13 208.11 17.41 Z" />
</g>
<g id="#6f6f6fff">
<path fill="#6f6f6f" opacity="1.00" d=" M 232.88 22.96 C 234.88 22.59 235.23 24.46 235.94 25.80 C 238.48 27.29 241.72 26.67 244.18 28.12 C 241.47 27.73 238.65 27.82 236.04 26.97 C 234.73 25.86 233.92 24.31 232.88 22.96 Z" />
<path fill="#6f6f6f" opacity="1.00" d=" M 183.01 95.86 C 185.52 96.00 188.04 95.90 190.50 95.33 C 192.93 96.50 196.05 96.89 197.73 99.17 C 196.13 98.88 194.66 98.20 193.15 97.64 C 188.16 96.03 182.74 96.25 177.83 98.01 C 179.38 96.94 181.15 96.24 183.01 95.86 Z" />
</g>
<g id="#2b2b2bff">
<path fill="#2b2b2b" opacity="1.00" d=" M 201.39 47.73 C 203.08 46.09 205.41 45.40 207.68 45.06 C 207.18 47.27 206.27 49.41 204.72 51.10 C 203.95 49.66 202.70 48.64 201.39 47.73 Z" />
</g>
<g id="#565656ff">
<path fill="#565656" opacity="1.00" d=" M 201.39 47.73 C 202.70 48.64 203.95 49.66 204.72 51.10 C 203.66 52.64 202.21 53.86 200.20 53.54 C 201.01 52.36 201.97 51.29 202.84 50.15 C 201.41 50.85 199.88 51.61 199.00 53.00 C 198.09 54.70 197.52 56.60 196.35 58.16 C 196.40 56.23 196.49 54.31 196.34 52.39 C 197.04 51.36 198.47 51.21 199.44 50.50 C 200.12 49.60 200.77 48.67 201.39 47.73 Z" />
</g>
<g id="#fefefeff">
<path fill="#fefefe" opacity="1.00" d=" M 199.00 53.00 C 199.88 51.61 201.41 50.85 202.84 50.15 C 201.97 51.29 201.01 52.36 200.20 53.54 C 198.65 58.16 197.46 63.00 196.73 67.81 C 198.64 72.24 203.06 74.85 205.46 78.96 C 205.49 81.43 205.03 83.92 205.49 86.38 C 207.55 88.05 210.38 88.01 212.63 89.27 C 214.27 90.61 214.97 92.69 216.26 94.31 C 219.08 94.36 220.19 97.02 221.63 98.96 C 222.66 100.56 223.80 102.10 225.09 103.52 C 225.00 104.31 224.82 105.90 224.73 106.69 C 222.76 105.74 220.83 103.50 218.46 104.40 C 217.52 105.99 215.68 108.10 216.99 109.95 C 218.64 112.88 221.94 114.61 223.09 117.87 C 224.05 120.52 225.25 123.17 225.55 125.99 C 224.96 128.89 224.07 131.72 223.45 134.61 C 221.72 141.67 217.08 147.42 213.74 153.73 C 211.61 152.47 209.86 150.13 207.17 150.23 C 206.34 153.10 207.08 156.09 207.29 159.00 C 206.42 159.77 205.57 160.57 204.72 161.36 C 202.80 161.67 200.99 162.37 199.24 163.19 C 196.67 164.35 193.73 164.24 191.00 163.88 C 190.75 160.94 192.94 158.62 193.98 156.03 C 195.60 153.31 194.96 150.06 194.52 147.11 C 194.28 147.30 193.80 147.70 193.56 147.90 C 191.13 149.77 188.90 152.04 186.00 153.21 C 181.91 153.65 177.73 153.12 173.89 151.65 C 176.03 150.35 178.69 151.10 180.96 150.22 C 187.29 147.92 192.22 142.78 198.92 141.30 C 201.99 141.25 203.51 143.80 205.33 145.74 C 204.76 142.70 202.97 139.95 200.13 138.60 C 198.71 137.70 197.05 137.34 195.39 137.30 C 195.28 137.97 195.07 139.33 194.97 140.01 C 193.55 141.40 192.35 143.61 190.04 143.29 C 187.42 143.30 185.28 145.06 182.76 145.49 C 185.41 141.24 186.04 135.38 182.50 131.42 C 182.54 130.96 182.64 130.03 182.69 129.56 C 185.27 131.11 187.83 132.81 190.72 133.74 C 190.29 130.82 187.50 129.22 185.37 127.56 C 182.47 125.39 178.86 123.44 175.14 124.71 C 172.96 125.70 170.09 127.09 170.43 129.95 C 172.07 128.90 173.45 127.51 174.98 126.31 C 176.94 125.99 179.21 126.22 180.59 127.81 C 181.27 130.17 179.86 132.41 178.99 134.50 C 178.13 134.49 177.27 134.50 176.41 134.52 C 175.55 134.42 173.83 134.22 172.96 134.11 C 171.91 134.88 171.09 135.90 170.24 136.88 C 169.20 138.02 168.13 139.14 167.02 140.21 C 164.33 139.96 161.53 139.20 159.52 137.31 C 160.21 135.88 160.24 134.44 159.60 132.97 C 159.65 132.49 159.73 131.53 159.77 131.05 L 160.58 130.74 C 160.67 130.30 160.86 129.43 160.95 128.99 L 160.84 127.98 C 162.82 127.04 162.43 124.71 161.55 123.12 C 161.63 122.55 161.78 121.42 161.85 120.85 C 162.41 119.76 162.08 116.77 160.30 118.01 C 160.19 118.42 159.96 119.24 159.84 119.65 C 158.35 124.45 157.73 129.45 157.05 134.41 C 156.52 134.28 155.48 134.01 154.96 133.87 C 154.79 133.69 154.45 133.33 154.28 133.15 L 153.48 132.14 C 153.33 131.94 153.04 131.54 152.90 131.34 C 153.34 129.58 153.33 127.73 152.59 126.06 C 152.68 125.38 152.87 124.02 152.97 123.34 C 153.74 120.58 154.18 117.63 153.35 114.83 C 155.96 114.76 158.57 114.58 161.13 114.07 C 161.79 111.91 160.75 109.78 159.31 108.21 C 157.33 106.57 155.17 105.17 153.26 103.44 C 149.38 100.29 146.15 96.42 142.15 93.41 C 142.21 92.81 142.32 91.61 142.38 91.02 C 146.42 94.10 151.01 96.43 155.95 97.68 C 153.53 96.32 151.11 94.97 148.75 93.52 C 146.41 92.08 143.65 91.10 141.99 88.79 C 143.08 87.47 144.47 88.78 145.59 89.20 C 150.80 92.08 156.86 93.81 162.83 93.51 C 167.65 91.45 171.76 87.91 176.86 86.43 C 178.96 85.97 181.13 83.66 183.24 85.00 C 180.35 87.04 176.89 88.03 174.01 90.09 L 174.84 90.89 C 178.29 89.70 181.41 87.67 184.95 86.72 C 188.53 86.69 191.88 88.04 194.87 89.90 C 193.95 89.05 193.02 88.23 192.08 87.42 C 194.04 85.16 197.31 86.04 199.93 85.54 C 197.79 83.17 194.63 82.71 191.64 83.49 C 188.15 83.77 184.65 83.50 181.17 83.83 C 176.29 85.50 171.61 87.72 167.24 90.46 C 165.03 91.63 162.76 93.51 160.09 92.86 C 154.30 92.08 148.46 90.57 143.50 87.37 C 143.22 86.64 142.65 85.18 142.37 84.45 C 146.18 84.13 149.11 87.77 152.96 87.54 C 156.92 87.59 161.01 87.74 164.80 86.36 C 169.87 84.66 174.85 82.69 179.74 80.52 C 182.90 78.82 186.62 79.41 190.06 79.39 C 192.63 78.97 194.30 81.55 196.81 81.47 C 194.67 80.30 192.60 78.63 190.05 78.67 C 186.52 78.57 182.76 77.99 179.51 79.70 C 173.85 82.27 167.99 84.34 162.09 86.27 C 158.39 86.62 154.65 86.62 150.95 86.33 C 148.17 85.10 145.11 84.17 142.74 82.21 C 142.68 81.24 142.56 79.29 142.50 78.31 C 143.10 78.37 144.29 78.51 144.88 78.57 C 143.77 77.85 142.52 77.27 141.68 76.22 C 141.49 74.30 141.50 72.38 141.55 70.46 L 142.91 70.51 C 145.09 72.57 147.90 74.12 151.00 73.76 C 156.41 73.44 162.23 74.11 167.16 71.39 C 170.63 69.72 174.09 68.00 177.45 66.11 C 179.52 65.01 181.60 63.68 184.03 63.56 C 186.47 63.23 189.34 63.11 191.06 61.07 C 193.23 58.45 194.48 55.22 196.34 52.39 C 196.49 54.31 196.40 56.23 196.35 58.16 C 197.52 56.60 198.09 54.70 199.00 53.00 M 184.49 66.71 C 184.12 66.91 183.37 67.31 183.00 67.51 C 186.27 67.32 189.47 67.95 192.70 68.29 C 190.61 65.98 187.27 66.56 184.49 66.71 M 182.38 71.56 C 181.36 71.48 180.56 71.84 179.99 72.65 C 183.02 72.71 186.04 72.33 189.03 71.87 C 192.12 71.78 195.11 72.80 197.98 73.83 C 193.90 69.93 187.50 71.56 182.38 71.56 M 183.56 74.75 C 178.46 77.44 172.29 77.63 167.28 80.34 C 169.23 80.58 171.04 79.74 172.86 79.18 C 176.54 77.85 180.49 77.34 183.98 75.50 C 190.45 75.20 197.38 76.18 202.99 79.58 C 202.37 78.81 201.82 77.88 200.82 77.56 C 195.48 75.03 189.43 73.45 183.56 74.75 M 180.78 89.74 C 176.46 92.63 172.24 95.72 168.59 99.41 C 168.11 101.04 168.45 102.75 168.57 104.40 C 165.56 107.45 167.08 112.22 168.36 115.73 C 170.46 118.04 174.66 115.88 175.90 113.49 C 178.26 115.81 181.08 117.98 184.47 118.40 C 186.64 118.59 188.82 118.54 191.00 118.50 C 192.42 119.02 191.54 116.22 190.50 116.71 C 187.63 116.59 184.66 116.80 181.97 115.59 C 179.49 114.86 177.98 112.68 176.36 110.84 C 176.07 110.26 175.71 109.72 175.28 109.20 C 176.50 107.96 177.96 106.94 179.58 106.28 C 179.78 106.67 180.17 107.43 180.37 107.81 C 179.14 108.64 178.62 111.19 180.79 110.97 C 181.52 112.59 183.26 113.50 185.00 113.36 C 187.63 113.34 190.59 113.62 192.80 111.91 C 194.08 110.73 195.29 109.46 196.68 108.40 C 196.94 108.50 197.46 108.71 197.72 108.81 C 197.52 106.99 197.33 104.73 195.24 104.16 C 192.94 103.00 190.70 101.28 188.00 101.41 C 185.79 101.25 183.68 102.03 181.67 102.84 C 182.49 101.63 183.24 100.21 184.72 99.69 C 186.65 98.83 188.77 99.89 190.79 99.73 C 191.67 99.15 192.45 98.45 193.15 97.64 C 194.66 98.20 196.13 98.88 197.73 99.17 C 198.80 99.53 199.87 99.98 200.86 100.56 C 200.46 97.70 198.14 95.71 196.36 93.61 C 192.33 89.89 186.10 87.11 180.78 89.74 M 200.33 104.27 C 200.66 106.65 202.25 109.44 200.19 111.46 C 199.65 111.38 198.56 111.23 198.02 111.16 L 197.83 111.99 C 199.63 114.10 202.27 115.60 204.74 116.93 C 205.85 115.55 204.21 113.88 203.13 113.08 L 202.86 111.84 C 204.54 112.29 206.26 112.66 207.99 112.92 C 207.71 112.39 207.16 111.33 206.88 110.80 C 206.68 109.60 206.97 108.00 205.68 107.32 C 203.96 106.21 202.63 104.02 200.33 104.27 Z" />
<path fill="#fefefe" opacity="1.00" d=" M 146.44 103.51 C 145.22 101.68 148.17 102.17 148.43 103.45 C 148.38 103.81 148.27 104.53 148.21 104.89 C 147.77 104.54 146.88 103.85 146.44 103.51 Z" />
<path fill="#fefefe" opacity="1.00" d=" M 149.88 108.19 C 150.11 106.79 151.15 105.96 152.32 105.33 L 153.02 105.60 C 153.17 105.67 153.47 105.82 153.62 105.90 C 155.25 106.78 156.63 108.01 157.90 109.35 C 155.28 108.61 152.59 108.28 149.88 108.19 Z" />
<path fill="#fefefe" opacity="1.00" d=" M 152.16 109.55 C 152.46 109.64 153.05 109.82 153.34 109.91 C 153.42 110.14 153.58 110.59 153.66 110.82 C 154.83 111.63 154.92 114.17 153.04 112.73 C 152.83 112.52 152.43 112.10 152.23 111.90 L 151.72 110.90 L 151.70 110.16 L 152.16 109.55 Z" />
<path fill="#fefefe" opacity="1.00" d=" M 180.79 110.97 C 181.67 109.70 183.43 108.27 184.99 109.45 C 185.74 109.56 187.24 110.52 186.00 111.18 C 184.23 111.44 182.49 111.37 180.79 110.97 Z" />
<path fill="#fefefe" opacity="1.00" d=" M 150.43 115.37 L 150.95 115.22 L 151.17 115.73 L 150.60 115.86 L 150.43 115.37 Z" />
<path fill="#fefefe" opacity="1.00" d=" M 176.05 167.24 C 179.20 168.75 181.90 171.22 185.37 172.04 C 185.26 174.21 184.10 176.60 185.42 178.60 C 188.14 182.60 191.90 185.76 195.84 188.52 C 196.04 188.75 196.43 189.21 196.63 189.43 C 195.81 190.94 195.20 192.55 194.49 194.12 C 193.33 194.51 192.02 194.66 191.11 195.58 C 188.52 197.90 185.51 199.91 183.83 203.07 C 182.58 204.75 181.22 207.81 178.59 206.73 C 175.43 197.19 172.35 187.20 173.81 177.03 C 174.44 173.74 175.42 170.53 176.05 167.24 Z" />
<path fill="#fefefe" opacity="1.00" d=" M 210.04 181.18 C 211.53 181.64 212.43 179.77 213.81 179.82 C 215.06 180.94 216.20 182.19 217.53 183.23 C 219.97 184.62 222.48 185.89 224.92 187.31 C 228.44 189.36 232.55 190.02 236.17 191.85 C 238.74 193.15 241.22 194.63 243.72 196.07 C 241.61 198.86 239.76 201.83 238.10 204.91 C 236.00 204.57 235.12 202.60 233.97 201.07 C 231.94 198.11 229.57 195.40 227.42 192.53 C 225.87 190.52 224.44 188.32 222.28 186.90 C 222.32 187.46 222.39 188.59 222.42 189.15 C 221.73 189.21 221.05 189.27 220.36 189.33 C 220.43 188.55 220.55 187.00 220.62 186.22 L 218.81 186.26 C 217.27 188.73 216.00 191.35 214.69 193.94 C 213.62 195.42 214.61 197.14 214.94 198.68 C 216.01 203.73 216.40 208.89 216.71 214.04 C 217.91 221.44 217.12 228.97 217.97 236.40 C 219.36 245.94 218.37 255.59 218.16 265.17 C 217.56 264.83 216.37 264.14 215.78 263.79 C 213.26 255.95 210.89 248.03 209.58 239.88 C 208.33 231.23 206.43 222.68 205.51 213.98 C 205.01 208.51 206.85 203.25 208.05 197.99 C 208.94 195.56 211.91 195.29 214.15 195.33 C 213.90 194.70 213.39 193.44 213.14 192.81 C 211.31 191.69 209.68 193.17 208.11 193.98 C 208.42 189.56 208.17 185.14 207.02 180.84 C 207.78 180.92 209.29 181.09 210.04 181.18 Z" />
</g>
<g id="#0e0e0eff">
<path fill="#0e0e0e" opacity="1.00" d=" M 139.62 60.86 C 139.57 59.69 140.50 58.89 141.10 58.01 C 140.51 60.90 139.85 63.87 140.25 66.83 C 141.00 68.14 141.98 69.32 142.91 70.51 L 141.55 70.46 C 141.50 72.38 141.49 74.30 141.68 76.22 C 142.52 77.27 143.77 77.85 144.88 78.57 C 144.29 78.51 143.10 78.37 142.50 78.31 C 142.56 79.29 142.68 81.24 142.74 82.21 C 145.11 84.17 148.17 85.10 150.95 86.33 C 154.65 86.62 158.39 86.62 162.09 86.27 C 167.99 84.34 173.85 82.27 179.51 79.70 C 182.76 77.99 186.52 78.57 190.05 78.67 C 192.60 78.63 194.67 80.30 196.81 81.47 C 194.30 81.55 192.63 78.97 190.06 79.39 C 186.62 79.41 182.90 78.82 179.74 80.52 C 174.85 82.69 169.87 84.66 164.80 86.36 C 161.01 87.74 156.92 87.59 152.96 87.54 C 149.11 87.77 146.18 84.13 142.37 84.45 C 142.65 85.18 143.22 86.64 143.50 87.37 C 148.46 90.57 154.30 92.08 160.09 92.86 C 162.76 93.51 165.03 91.63 167.24 90.46 C 171.61 87.72 176.29 85.50 181.17 83.83 C 184.65 83.50 188.15 83.77 191.64 83.49 C 192.75 83.86 193.86 84.26 194.97 84.67 C 192.04 84.37 189.09 84.17 186.15 84.42 L 186.42 86.01 C 188.30 86.49 190.20 86.93 192.08 87.42 C 193.02 88.23 193.95 89.05 194.87 89.90 C 191.88 88.04 188.53 86.69 184.95 86.72 C 181.41 87.67 178.29 89.70 174.84 90.89 L 174.01 90.09 C 176.89 88.03 180.35 87.04 183.24 85.00 C 181.13 83.66 178.96 85.97 176.86 86.43 C 171.76 87.91 167.65 91.45 162.83 93.51 C 156.86 93.81 150.80 92.08 145.59 89.20 C 144.47 88.78 143.08 87.47 141.99 88.79 C 143.65 91.10 146.41 92.08 148.75 93.52 C 151.11 94.97 153.53 96.32 155.95 97.68 C 151.01 96.43 146.42 94.10 142.38 91.02 C 142.32 91.61 142.21 92.81 142.15 93.41 C 141.54 94.35 140.92 95.28 140.31 96.22 C 138.96 91.89 141.09 87.43 140.63 83.00 C 141.05 79.88 139.17 77.09 139.42 73.99 C 139.54 69.61 138.88 65.22 139.62 60.86 Z" />
<path fill="#0e0e0e" opacity="1.00" d=" M 184.49 66.71 C 187.27 66.56 190.61 65.98 192.70 68.29 C 189.47 67.95 186.27 67.32 183.00 67.51 C 183.37 67.31 184.12 66.91 184.49 66.71 Z" />
<path fill="#0e0e0e" opacity="1.00" d=" M 182.38 71.56 C 187.50 71.56 193.90 69.93 197.98 73.83 C 195.11 72.80 192.12 71.78 189.03 71.87 C 186.04 72.33 183.02 72.71 179.99 72.65 C 180.56 71.84 181.36 71.48 182.38 71.56 Z" />
<path fill="#0e0e0e" opacity="1.00" d=" M 183.56 74.75 C 189.43 73.45 195.48 75.03 200.82 77.56 C 201.82 77.88 202.37 78.81 202.99 79.58 C 197.38 76.18 190.45 75.20 183.98 75.50 C 180.49 77.34 176.54 77.85 172.86 79.18 C 171.04 79.74 169.23 80.58 167.28 80.34 C 172.29 77.63 178.46 77.44 183.56 74.75 Z" />
<path fill="#0e0e0e" opacity="1.00" d=" M 244.45 83.36 C 246.03 82.06 248.20 82.43 250.09 82.53 C 253.01 82.65 254.72 85.58 255.54 88.05 C 256.09 91.08 254.41 94.02 255.03 97.04 C 255.25 99.01 255.61 101.01 255.33 102.99 C 254.52 105.12 253.64 108.13 250.81 108.00 C 249.77 106.66 252.05 105.68 252.50 104.51 C 254.12 102.75 253.39 100.13 253.69 97.96 C 253.14 99.59 252.77 101.29 252.05 102.85 C 250.65 105.10 247.66 104.01 245.62 105.08 C 245.25 105.22 244.51 105.50 244.14 105.64 C 243.87 104.78 243.62 103.91 243.39 103.04 C 243.25 105.61 243.63 108.59 241.63 110.57 C 240.95 107.16 241.27 103.66 241.30 100.21 C 242.49 98.28 241.68 96.33 240.72 94.51 C 240.46 90.54 240.91 85.84 244.45 83.36 M 244.20 85.21 C 242.44 86.43 244.18 87.98 244.71 89.39 C 244.12 89.38 242.94 89.35 242.35 89.34 C 242.43 90.33 242.58 92.31 242.66 93.30 C 246.41 93.63 250.38 94.10 253.07 97.05 C 253.05 94.26 254.00 91.62 254.25 88.90 C 253.39 87.08 252.57 84.24 250.01 84.50 C 248.08 84.65 245.79 83.73 244.20 85.21 M 243.19 96.02 C 243.48 98.27 243.92 100.82 246.09 102.03 C 246.46 103.45 249.02 102.31 250.24 102.28 C 251.60 99.83 250.88 95.85 247.34 96.31 C 246.05 95.95 244.55 96.09 243.19 96.02 Z" />
<path fill="#0e0e0e" opacity="1.00" d=" M 234.74 91.00 C 234.62 88.09 235.95 84.97 238.92 84.07 C 238.06 87.69 237.43 91.34 237.19 95.05 C 235.85 95.82 235.78 97.39 235.29 98.68 C 234.51 100.92 232.79 102.63 231.16 104.28 C 229.21 103.54 227.15 103.44 225.09 103.52 C 223.80 102.10 222.66 100.56 221.63 98.96 C 223.83 99.05 225.14 100.84 226.76 102.04 C 229.06 102.46 232.15 103.05 233.40 100.41 C 233.27 99.28 232.98 98.17 232.86 97.03 C 233.93 95.16 234.92 93.24 234.74 91.00 Z" />
<path fill="#0e0e0e" opacity="1.00" d=" M 151.17 115.73 C 151.57 115.90 152.36 116.25 152.76 116.42 C 153.00 118.71 152.92 121.03 152.97 123.34 C 152.87 124.02 152.68 125.38 152.59 126.06 C 151.39 127.70 151.44 129.87 152.90 131.34 C 153.04 131.54 153.33 131.94 153.48 132.14 L 154.28 133.15 C 154.45 133.33 154.79 133.69 154.96 133.87 C 155.61 135.45 156.31 135.63 157.05 134.41 C 159.24 129.89 160.24 124.64 159.84 119.65 C 160.34 119.95 161.35 120.55 161.85 120.85 C 161.78 121.42 161.63 122.55 161.55 123.12 C 160.82 124.63 160.40 126.31 160.84 127.98 L 160.95 128.99 C 160.65 129.29 160.04 129.90 159.73 130.21 L 159.77 131.05 C 159.73 131.53 159.65 132.49 159.60 132.97 C 158.76 134.18 158.01 136.28 159.52 137.31 C 161.53 139.20 164.33 139.96 167.02 140.21 C 167.52 140.27 168.53 140.39 169.03 140.44 C 169.21 142.76 165.41 140.92 165.10 143.35 L 164.46 143.42 C 163.35 142.61 162.50 141.41 161.16 140.94 C 159.22 140.40 158.18 138.55 156.63 137.43 C 154.94 136.21 153.23 134.99 151.90 133.36 C 151.85 133.30 151.75 133.17 151.70 133.11 L 151.26 131.88 C 151.02 131.42 150.54 130.50 150.30 130.05 C 150.19 126.64 150.17 123.22 150.50 119.83 C 150.94 118.51 151.51 117.14 151.17 115.73 Z" />
<path fill="#0e0e0e" opacity="1.00" d=" M 170.43 129.95 C 170.09 127.09 172.96 125.70 175.14 124.71 C 178.86 123.44 182.47 125.39 185.37 127.56 C 187.50 129.22 190.29 130.82 190.72 133.74 C 187.83 132.81 185.27 131.11 182.69 129.56 C 182.64 130.03 182.54 130.96 182.50 131.42 C 181.76 132.89 181.10 135.23 178.99 134.50 C 179.86 132.41 181.27 130.17 180.59 127.81 C 179.21 126.22 176.94 125.99 174.98 126.31 C 173.45 127.51 172.07 128.90 170.43 129.95 Z" />
<path fill="#0e0e0e" opacity="1.00" d=" M 170.24 136.88 C 171.09 135.90 171.91 134.88 172.96 134.11 C 173.83 134.22 175.55 134.42 176.41 134.52 C 174.72 136.39 171.98 136.65 170.30 138.54 C 170.28 138.12 170.25 137.29 170.24 136.88 Z" />
<path fill="#0e0e0e" opacity="1.00" d=" M 194.97 140.01 C 196.58 139.20 198.28 138.51 200.13 138.60 C 202.97 139.95 204.76 142.70 205.33 145.74 C 203.51 143.80 201.99 141.25 198.92 141.30 C 192.22 142.78 187.29 147.92 180.96 150.22 C 178.69 151.10 176.03 150.35 173.89 151.65 C 177.73 153.12 181.91 153.65 186.00 153.21 C 188.90 152.04 191.13 149.77 193.56 147.90 C 193.38 150.09 191.48 151.48 189.88 152.72 C 185.79 155.80 180.19 155.97 175.44 154.53 C 172.28 152.89 169.98 149.90 168.21 146.92 C 168.20 146.38 168.19 145.29 168.19 144.75 C 171.01 143.66 170.50 147.70 172.82 148.07 C 175.50 148.88 178.41 148.43 181.06 147.66 C 178.76 147.46 176.42 147.36 174.24 146.55 C 174.21 146.25 174.16 145.66 174.13 145.36 C 177.01 145.29 179.88 145.64 182.76 145.49 C 185.28 145.06 187.42 143.30 190.04 143.29 C 192.35 143.61 193.55 141.40 194.97 140.01 Z" />
<path fill="#0e0e0e" opacity="1.00" d=" M 162.23 148.96 C 161.08 146.28 159.23 143.69 159.39 140.65 L 160.98 141.49 C 163.89 146.04 165.53 151.33 168.99 155.55 L 170.11 155.91 C 170.29 155.45 170.65 154.52 170.83 154.05 C 172.03 156.58 172.84 159.26 173.83 161.87 C 175.10 164.05 177.20 165.56 179.15 167.09 C 182.80 169.75 187.51 170.85 191.96 170.52 C 196.43 167.82 201.57 165.72 204.72 161.36 C 205.57 160.57 206.42 159.77 207.29 159.00 C 208.20 158.46 209.10 157.93 210.01 157.40 C 207.42 161.25 205.43 165.94 201.05 168.13 C 197.54 169.94 194.26 172.95 190.05 172.57 C 195.82 175.02 202.24 173.91 208.16 175.67 C 209.74 176.19 211.40 175.87 212.82 175.06 C 217.86 172.60 223.03 170.11 227.03 166.07 C 229.35 163.71 232.04 161.74 234.29 159.31 C 239.05 153.63 244.66 148.73 249.47 143.08 C 250.29 142.66 251.12 142.23 251.95 141.82 C 251.69 144.43 249.17 145.74 247.59 147.53 C 241.24 154.53 234.75 161.41 227.99 168.02 C 224.19 171.73 219.34 174.01 214.57 176.18 C 215.88 178.37 218.31 180.39 217.53 183.23 C 216.20 182.19 215.06 180.94 213.81 179.82 C 212.43 179.77 211.53 181.64 210.04 181.18 C 209.29 181.09 207.78 180.92 207.02 180.84 C 208.17 185.14 208.42 189.56 208.11 193.98 C 209.68 193.17 211.31 191.69 213.14 192.81 C 213.39 193.44 213.90 194.70 214.15 195.33 C 211.91 195.29 208.94 195.56 208.05 197.99 C 206.85 203.25 205.01 208.51 205.51 213.98 C 206.43 222.68 208.33 231.23 209.58 239.88 C 210.89 248.03 213.26 255.95 215.78 263.79 C 215.65 264.21 215.40 265.05 215.28 265.47 C 213.34 262.20 211.82 258.72 210.94 255.02 C 208.43 247.90 207.17 240.42 206.19 232.96 C 205.01 227.36 204.26 221.69 203.49 216.03 C 202.73 217.92 202.58 219.96 202.63 221.98 C 202.71 230.99 202.65 240.01 202.81 249.03 C 203.54 258.04 203.23 267.11 203.93 276.13 C 205.01 282.70 205.52 289.35 206.76 295.89 L 205.15 295.78 C 205.54 295.97 206.33 296.34 206.72 296.52 C 206.04 298.70 207.91 299.92 208.66 301.69 C 208.79 303.43 208.80 305.19 208.69 306.94 C 208.26 306.72 207.40 306.27 206.97 306.04 C 204.41 300.19 203.72 293.81 203.09 287.52 C 202.04 281.37 201.22 275.19 201.18 268.94 C 200.17 257.99 200.53 246.97 199.84 236.01 C 199.87 228.29 199.39 220.43 201.35 212.89 C 201.66 210.57 203.57 208.88 203.80 206.53 C 204.31 203.22 205.80 200.09 205.91 196.73 C 205.92 192.18 206.09 187.60 205.36 183.10 C 202.42 185.09 200.44 188.18 197.63 190.35 C 197.38 190.12 196.88 189.66 196.63 189.43 C 196.43 189.21 196.04 188.75 195.84 188.52 C 196.32 188.74 197.29 189.19 197.77 189.41 C 199.41 185.73 202.49 183.05 205.19 180.16 C 206.63 178.38 209.05 178.95 211.04 178.67 C 210.38 177.52 208.86 177.64 207.74 177.40 C 203.47 177.04 199.19 176.78 194.92 176.50 C 193.18 176.39 191.39 176.14 189.86 175.26 C 188.34 174.20 187.39 172.23 185.37 172.04 C 181.90 171.22 179.20 168.75 176.05 167.24 C 175.42 170.53 174.44 173.74 173.81 177.03 C 172.35 187.20 175.43 197.19 178.59 206.73 C 181.22 207.81 182.58 204.75 183.83 203.07 L 184.96 203.93 C 185.10 207.48 184.88 211.06 184.57 214.60 C 184.26 214.73 183.64 214.99 183.33 215.12 C 183.15 212.68 183.25 210.23 183.00 207.80 L 182.13 207.24 C 181.86 207.54 181.33 208.15 181.06 208.46 C 180.13 210.72 176.79 209.47 176.44 207.45 C 173.55 199.27 170.68 190.81 171.22 182.00 C 170.85 176.41 173.12 171.22 174.71 166.00 C 173.85 164.94 172.96 163.90 171.92 163.01 C 168.18 164.13 165.66 167.81 161.82 168.76 L 161.82 167.58 C 164.68 165.22 167.72 163.08 170.86 161.11 C 168.86 156.52 164.44 153.47 162.23 148.96 Z" />
</g>
<g id="#f9f9f9ff">
<path fill="#f9f9f9" opacity="1.00" d=" M 246.86 80.22 C 248.98 79.79 251.69 78.99 253.39 80.86 C 255.49 82.87 257.60 85.20 258.08 88.18 C 258.51 90.30 257.66 92.38 257.09 94.39 C 255.97 97.44 256.71 100.80 255.66 103.87 C 254.84 107.28 251.87 109.52 250.37 112.60 C 249.19 114.48 248.96 116.99 247.01 118.31 C 245.62 118.06 243.53 118.73 242.75 117.15 C 239.87 113.70 240.28 109.05 239.31 104.92 C 239.00 102.88 238.04 100.68 239.09 98.70 C 239.64 99.08 240.75 99.83 241.30 100.21 C 241.27 103.66 240.95 107.16 241.63 110.57 C 242.30 112.19 243.51 114.52 245.66 113.66 C 247.01 112.24 248.13 110.22 247.64 108.21 C 247.07 107.10 246.32 106.10 245.62 105.08 C 247.66 104.01 250.65 105.10 252.05 102.85 C 252.77 101.29 253.14 99.59 253.69 97.96 C 253.39 100.13 254.12 102.75 252.50 104.51 C 252.05 105.68 249.77 106.66 250.81 108.00 C 253.64 108.13 254.52 105.12 255.33 102.99 C 255.61 101.01 255.25 99.01 255.03 97.04 C 254.41 94.02 256.09 91.08 255.54 88.05 C 254.72 85.58 253.01 82.65 250.09 82.53 C 248.20 82.43 246.03 82.06 244.45 83.36 C 240.91 85.84 240.46 90.54 240.72 94.51 C 239.94 95.08 239.28 95.75 238.72 96.53 C 238.20 96.04 237.69 95.55 237.19 95.05 C 237.43 91.34 238.06 87.69 238.92 84.07 C 241.59 82.82 243.89 80.72 246.86 80.22 Z" />
</g>
<g id="#d4d4d4ff">
<path fill="#d4d4d4" opacity="1.00" d=" M 191.64 83.49 C 194.63 82.71 197.79 83.17 199.93 85.54 C 197.31 86.04 194.04 85.16 192.08 87.42 C 190.20 86.93 188.30 86.49 186.42 86.01 L 186.15 84.42 C 189.09 84.17 192.04 84.37 194.97 84.67 C 193.86 84.26 192.75 83.86 191.64 83.49 Z" />
</g>
<g id="#d6d6d6ff">
<path fill="#d6d6d6" opacity="1.00" d=" M 244.20 85.21 C 245.79 83.73 248.08 84.65 250.01 84.50 C 252.57 84.24 253.39 87.08 254.25 88.90 C 254.00 91.62 253.05 94.26 253.07 97.05 C 250.38 94.10 246.41 93.63 242.66 93.30 C 242.58 92.31 242.43 90.33 242.35 89.34 C 242.94 89.35 244.12 89.38 244.71 89.39 C 244.18 87.98 242.44 86.43 244.20 85.21 Z" />
<path fill="#d6d6d6" opacity="1.00" d=" M 235.29 98.68 C 235.78 97.39 235.85 95.82 237.19 95.05 C 237.69 95.55 238.20 96.04 238.72 96.53 C 239.41 97.17 239.53 97.89 239.09 98.70 C 238.04 100.68 239.00 102.88 239.31 104.92 C 240.28 109.05 239.87 113.70 242.75 117.15 C 243.53 118.73 245.62 118.06 247.01 118.31 C 245.79 119.07 244.40 119.53 242.97 119.12 C 242.21 118.07 241.55 116.97 240.97 115.81 C 238.63 116.97 239.70 120.74 242.03 121.03 C 245.03 122.29 247.76 120.44 250.19 118.87 C 249.78 126.94 250.36 135.04 249.47 143.08 C 244.66 148.73 239.05 153.63 234.29 159.31 C 232.04 161.74 229.35 163.71 227.03 166.07 C 223.03 170.11 217.86 172.60 212.82 175.06 C 211.40 175.87 209.74 176.19 208.16 175.67 C 202.24 173.91 195.82 175.02 190.05 172.57 C 194.26 172.95 197.54 169.94 201.05 168.13 C 205.43 165.94 207.42 161.25 210.01 157.40 C 209.10 157.93 208.20 158.46 207.29 159.00 C 207.08 156.09 206.34 153.10 207.17 150.23 C 209.86 150.13 211.61 152.47 213.74 153.73 C 217.08 147.42 221.72 141.67 223.45 134.61 C 224.07 131.72 224.96 128.89 225.55 125.99 C 225.25 123.17 224.05 120.52 223.09 117.87 C 221.94 114.61 218.64 112.88 216.99 109.95 C 215.68 108.10 217.52 105.99 218.46 104.40 C 220.83 103.50 222.76 105.74 224.73 106.69 C 224.82 105.90 225.00 104.31 225.09 103.52 C 227.15 103.44 229.21 103.54 231.16 104.28 C 232.79 102.63 234.51 100.92 235.29 98.68 Z" />
<path fill="#d6d6d6" opacity="1.00" d=" M 177.83 98.01 C 182.74 96.25 188.16 96.03 193.15 97.64 C 192.45 98.45 191.67 99.15 190.79 99.73 C 188.77 99.89 186.65 98.83 184.72 99.69 C 183.24 100.21 182.49 101.63 181.67 102.84 C 180.65 103.85 180.31 104.96 180.65 106.16 C 183.07 105.25 185.25 103.26 187.98 103.54 C 190.96 103.57 193.32 105.67 195.86 106.93 C 195.70 106.23 195.39 104.85 195.24 104.16 C 197.33 104.73 197.52 106.99 197.72 108.81 C 197.46 108.71 196.94 108.50 196.68 108.40 C 195.58 107.35 194.29 107.09 192.82 107.63 C 192.76 108.22 192.62 109.40 192.55 110.00 C 192.47 109.42 192.31 108.27 192.23 107.70 C 188.35 106.81 184.09 105.77 180.37 107.81 C 180.17 107.43 179.78 106.67 179.58 106.28 C 177.96 106.94 176.50 107.96 175.28 109.20 C 175.71 109.72 176.07 110.26 176.36 110.84 C 176.22 111.72 176.06 112.60 175.90 113.49 C 174.66 115.88 170.46 118.04 168.36 115.73 C 167.08 112.22 165.56 107.45 168.57 104.40 C 169.34 104.44 170.11 104.46 170.89 104.46 C 173.01 102.12 175.00 99.57 177.83 98.01 Z" />
<path fill="#d6d6d6" opacity="1.00" d=" M 243.39 103.04 C 243.62 103.91 243.87 104.78 244.14 105.64 C 244.51 105.50 245.25 105.22 245.62 105.08 C 246.32 106.10 247.07 107.10 247.64 108.21 C 248.13 110.22 247.01 112.24 245.66 113.66 C 243.51 114.52 242.30 112.19 241.63 110.57 C 243.63 108.59 243.25 105.61 243.39 103.04 Z" />
<path fill="#d6d6d6" opacity="1.00" d=" M 200.33 104.27 C 202.63 104.02 203.96 106.21 205.68 107.32 C 206.97 108.00 206.68 109.60 206.88 110.80 C 205.38 110.26 203.83 109.77 202.22 109.83 C 202.38 110.33 202.70 111.34 202.86 111.84 L 203.13 113.08 C 202.16 112.52 201.18 111.98 200.19 111.46 C 202.25 109.44 200.66 106.65 200.33 104.27 Z" />
<path fill="#d6d6d6" opacity="1.00" d=" M 151.82 113.99 L 152.29 114.27 C 152.42 114.34 152.68 114.48 152.81 114.55 L 153.35 114.83 C 154.18 117.63 153.74 120.58 152.97 123.34 C 152.92 121.03 153.00 118.71 152.76 116.42 C 152.36 116.25 151.57 115.90 151.17 115.73 L 150.95 115.22 L 151.82 113.99 Z" />
<path fill="#d6d6d6" opacity="1.00" d=" M 150.60 115.86 L 151.17 115.73 C 151.51 117.14 150.94 118.51 150.50 119.83 C 149.47 118.49 149.51 117.17 150.60 115.86 Z" />
<path fill="#d6d6d6" opacity="1.00" d=" M 160.30 118.01 C 162.08 116.77 162.41 119.76 161.85 120.85 C 161.35 120.55 160.34 119.95 159.84 119.65 C 159.96 119.24 160.19 118.42 160.30 118.01 Z" />
<path fill="#d6d6d6" opacity="1.00" d=" M 157.05 134.41 C 157.73 129.45 158.35 124.45 159.84 119.65 C 160.24 124.64 159.24 129.89 157.05 134.41 Z" />
<path fill="#d6d6d6" opacity="1.00" d=" M 160.84 127.98 C 160.40 126.31 160.82 124.63 161.55 123.12 C 162.43 124.71 162.82 127.04 160.84 127.98 Z" />
<path fill="#d6d6d6" opacity="1.00" d=" M 152.90 131.34 C 151.44 129.87 151.39 127.70 152.59 126.06 C 153.33 127.73 153.34 129.58 152.90 131.34 Z" />
<path fill="#d6d6d6" opacity="1.00" d=" M 159.73 130.21 C 160.04 129.90 160.65 129.29 160.95 128.99 C 160.86 129.43 160.67 130.30 160.58 130.74 L 159.77 131.05 L 159.73 130.21 Z" />
<path fill="#d6d6d6" opacity="1.00" d=" M 150.30 130.05 C 150.54 130.50 151.02 131.42 151.26 131.88 L 150.36 131.85 L 149.86 130.90 L 150.30 130.05 Z" />
<path fill="#d6d6d6" opacity="1.00" d=" M 152.90 131.34 C 153.04 131.54 153.33 131.94 153.48 132.14 C 153.33 131.94 153.04 131.54 152.90 131.34 Z" />
<path fill="#d6d6d6" opacity="1.00" d=" M 178.99 134.50 C 181.10 135.23 181.76 132.89 182.50 131.42 C 186.04 135.38 185.41 141.24 182.76 145.49 C 179.88 145.64 177.01 145.29 174.13 145.36 C 174.16 145.66 174.21 146.25 174.24 146.55 C 176.42 147.36 178.76 147.46 181.06 147.66 C 178.41 148.43 175.50 148.88 172.82 148.07 C 170.50 147.70 171.01 143.66 168.19 144.75 C 168.19 145.29 168.20 146.38 168.21 146.92 C 167.13 145.98 165.61 145.26 165.17 143.81 C 165.16 143.70 165.12 143.47 165.10 143.35 C 165.41 140.92 169.21 142.76 169.03 140.44 C 168.53 140.39 167.52 140.27 167.02 140.21 C 168.13 139.14 169.20 138.02 170.24 136.88 C 170.25 137.29 170.28 138.12 170.30 138.54 C 171.98 136.65 174.72 136.39 176.41 134.52 C 177.27 134.50 178.13 134.49 178.99 134.50 Z" />
<path fill="#d6d6d6" opacity="1.00" d=" M 151.70 133.11 C 151.75 133.17 151.85 133.30 151.90 133.36 C 151.85 133.30 151.75 133.17 151.70 133.11 Z" />
<path fill="#d6d6d6" opacity="1.00" d=" M 154.28 133.15 C 154.45 133.33 154.79 133.69 154.96 133.87 C 154.79 133.69 154.45 133.33 154.28 133.15 Z" />
<path fill="#d6d6d6" opacity="1.00" d=" M 159.52 137.31 C 158.01 136.28 158.76 134.18 159.60 132.97 C 160.24 134.44 160.21 135.88 159.52 137.31 Z" />
<path fill="#d6d6d6" opacity="1.00" d=" M 154.96 133.87 C 155.48 134.01 156.52 134.28 157.05 134.41 C 156.31 135.63 155.61 135.45 154.96 133.87 Z" />
<path fill="#d6d6d6" opacity="1.00" d=" M 164.46 143.42 L 165.10 143.35 L 165.17 143.81 L 164.52 143.96 L 164.46 143.42 Z" />
<path fill="#d6d6d6" opacity="1.00" d=" M 193.56 147.90 C 193.80 147.70 194.28 147.30 194.52 147.11 C 194.96 150.06 195.60 153.31 193.98 156.03 C 192.94 158.62 190.75 160.94 191.00 163.88 C 193.73 164.24 196.67 164.35 199.24 163.19 C 200.99 162.37 202.80 161.67 204.72 161.36 C 201.57 165.72 196.43 167.82 191.96 170.52 C 187.51 170.85 182.80 169.75 179.15 167.09 C 178.65 165.18 178.81 163.03 177.58 161.38 C 176.33 159.29 173.83 157.16 175.44 154.53 C 180.19 155.97 185.79 155.80 189.88 152.72 C 191.48 151.48 193.38 150.09 193.56 147.90 Z" />
<path fill="#d6d6d6" opacity="1.00" d=" M 215.78 263.79 C 216.37 264.14 217.56 264.83 218.16 265.17 C 218.17 268.46 218.17 271.75 218.21 275.05 C 216.56 274.50 217.68 272.25 217.31 270.99 C 217.88 268.76 215.77 267.36 215.28 265.47 C 215.40 265.05 215.65 264.21 215.78 263.79 Z" />
</g>
<g id="#111111ff">
<path fill="#111111" opacity="1.00" d=" M 180.75 93.85 C 181.15 91.30 184.12 91.56 186.04 91.81 C 188.20 91.84 189.23 93.94 190.50 95.33 C 188.04 95.90 185.52 96.00 183.01 95.86 C 184.76 94.01 181.96 94.28 180.75 93.85 Z" />
</g>
<g id="#101010ff">
<path fill="#101010" opacity="1.00" d=" M 140.31 96.22 C 140.92 95.28 141.54 94.35 142.15 93.41 C 146.15 96.42 149.38 100.29 153.26 103.44 C 153.03 103.92 152.56 104.86 152.32 105.33 C 151.15 105.96 150.11 106.79 149.88 108.19 C 152.59 108.28 155.28 108.61 157.90 109.35 C 158.25 109.07 158.95 108.50 159.31 108.21 C 160.75 109.78 161.79 111.91 161.13 114.07 C 158.57 114.58 155.96 114.76 153.35 114.83 L 152.81 114.55 C 152.68 114.48 152.42 114.34 152.29 114.27 L 151.82 113.99 C 150.33 112.72 149.96 110.72 149.03 109.08 C 147.72 107.46 145.96 106.21 144.93 104.37 C 144.03 102.94 143.50 101.12 141.88 100.33 C 140.01 99.77 140.41 97.72 140.31 96.22 M 146.44 103.51 C 146.88 103.85 147.77 104.54 148.21 104.89 L 148.29 105.64 C 150.46 107.46 150.63 102.21 148.43 103.45 C 148.17 102.17 145.22 101.68 146.44 103.51 M 152.16 109.55 L 151.70 110.16 L 151.14 110.18 L 151.15 110.80 L 151.72 110.90 L 152.23 111.90 L 152.35 112.60 L 153.04 112.73 C 154.92 114.17 154.83 111.63 153.66 110.82 L 153.85 110.28 L 153.34 109.91 C 153.05 109.82 152.46 109.64 152.16 109.55 Z" />
<path fill="#101010" opacity="1.00" d=" M 153.02 105.60 C 153.17 105.67 153.47 105.82 153.62 105.90 C 153.47 105.82 153.17 105.67 153.02 105.60 Z" />
</g>
<g id="#7e7e7eff">
<path fill="#7e7e7e" opacity="1.00" d=" M 238.72 96.53 C 239.28 95.75 239.94 95.08 240.72 94.51 C 241.68 96.33 242.49 98.28 241.30 100.21 C 240.75 99.83 239.64 99.08 239.09 98.70 C 239.53 97.89 239.41 97.17 238.72 96.53 Z" />
</g>
<g id="#5e5e5eff">
<path fill="#5e5e5e" opacity="1.00" d=" M 243.19 96.02 C 244.55 96.09 246.05 95.95 247.34 96.31 C 247.95 97.53 249.38 98.61 248.66 100.15 C 249.59 104.04 245.08 98.24 246.09 102.03 C 243.92 100.82 243.48 98.27 243.19 96.02 Z" />
</g>
<g id="#e8e8e8ff">
<path fill="#e8e8e8" opacity="1.00" d=" M 247.34 96.31 C 250.88 95.85 251.60 99.83 250.24 102.28 C 249.02 102.31 246.46 103.45 246.09 102.03 C 245.08 98.24 249.59 104.04 248.66 100.15 C 249.38 98.61 247.95 97.53 247.34 96.31 Z" />
</g>
<g id="#393939ff">
<path fill="#393939" opacity="1.00" d=" M 181.67 102.84 C 183.68 102.03 185.79 101.25 188.00 101.41 C 190.70 101.28 192.94 103.00 195.24 104.16 C 195.39 104.85 195.70 106.23 195.86 106.93 C 193.32 105.67 190.96 103.57 187.98 103.54 C 185.25 103.26 183.07 105.25 180.65 106.16 C 180.31 104.96 180.65 103.85 181.67 102.84 Z" />
</g>
<g id="#808080ff">
<path fill="#808080" opacity="1.00" d=" M 148.43 103.45 C 150.63 102.21 150.46 107.46 148.29 105.64 L 148.21 104.89 C 148.27 104.53 148.38 103.81 148.43 103.45 Z" />
<path fill="#808080" opacity="1.00" d=" M 335.72 246.97 C 335.83 244.94 336.45 242.97 336.74 240.96 C 336.68 245.42 336.44 249.90 336.84 254.36 C 337.35 254.42 338.37 254.55 338.88 254.61 C 341.10 252.73 343.10 250.47 345.87 249.37 L 346.54 249.92 C 345.12 252.19 343.14 254.03 340.82 255.35 C 340.63 256.49 340.50 257.64 340.43 258.80 C 339.03 257.78 337.32 256.91 336.64 255.23 C 335.38 252.61 337.10 249.58 335.72 246.97 Z" />
</g>
<g id="#050505ff">
<path fill="#050505" opacity="1.00" d=" M 180.37 107.81 C 184.09 105.77 188.35 106.81 192.23 107.70 C 192.31 108.27 192.47 109.42 192.55 110.00 C 192.62 109.40 192.76 108.22 192.82 107.63 C 194.29 107.09 195.58 107.35 196.68 108.40 C 195.29 109.46 194.08 110.73 192.80 111.91 C 190.59 113.62 187.63 113.34 185.00 113.36 C 183.26 113.50 181.52 112.59 180.79 110.97 C 182.49 111.37 184.23 111.44 186.00 111.18 C 187.24 110.52 185.74 109.56 184.99 109.45 C 183.43 108.27 181.67 109.70 180.79 110.97 C 178.62 111.19 179.14 108.64 180.37 107.81 Z" />
</g>
<g id="#bfbfbfff">
<path fill="#bfbfbf" opacity="1.00" d=" M 151.14 110.18 L 151.70 110.16 L 151.72 110.90 L 151.15 110.80 L 151.14 110.18 Z" />
<path fill="#bfbfbf" opacity="1.00" d=" M 153.34 109.91 L 153.85 110.28 L 153.66 110.82 C 153.58 110.59 153.42 110.14 153.34 109.91 Z" />
<path fill="#bfbfbf" opacity="1.00" d=" M 152.23 111.90 C 152.43 112.10 152.83 112.52 153.04 112.73 L 152.35 112.60 L 152.23 111.90 Z" />
</g>
<g id="#b5b5b5ff">
<path fill="#b5b5b5" opacity="1.00" d=" M 202.22 109.83 C 203.83 109.77 205.38 110.26 206.88 110.80 C 207.16 111.33 207.71 112.39 207.99 112.92 C 206.26 112.66 204.54 112.29 202.86 111.84 C 202.70 111.34 202.38 110.33 202.22 109.83 Z" />
</g>
<g id="#8c8c8cff">
<path fill="#8c8c8c" opacity="1.00" d=" M 175.90 113.49 C 176.06 112.60 176.22 111.72 176.36 110.84 C 177.98 112.68 179.49 114.86 181.97 115.59 C 184.66 116.80 187.63 116.59 190.50 116.71 C 191.54 116.22 192.42 119.02 191.00 118.50 C 188.82 118.54 186.64 118.59 184.47 118.40 C 181.08 117.98 178.26 115.81 175.90 113.49 Z" />
</g>
<g id="#959595ff">
<path fill="#959595" opacity="1.00" d=" M 198.02 111.16 C 198.56 111.23 199.65 111.38 200.19 111.46 C 201.18 111.98 202.16 112.52 203.13 113.08 C 204.21 113.88 205.85 115.55 204.74 116.93 C 202.27 115.60 199.63 114.10 197.83 111.99 L 198.02 111.16 Z" />
</g>
<g id="#212121ff">
<path fill="#212121" opacity="1.00" d=" M 152.29 114.27 C 152.42 114.34 152.68 114.48 152.81 114.55 C 152.68 114.48 152.42 114.34 152.29 114.27 Z" />
<path fill="#212121" opacity="1.00" d=" M 165.10 143.35 C 165.12 143.47 165.16 143.70 165.17 143.81 L 165.10 143.35 Z" />
</g>
<g id="#606060ff">
<path fill="#606060" opacity="1.00" d=" M 250.19 118.87 L 250.59 119.45 C 251.35 126.02 249.50 132.91 251.77 139.29 C 251.81 139.92 251.91 141.18 251.95 141.82 C 251.12 142.23 250.29 142.66 249.47 143.08 C 250.36 135.04 249.78 126.94 250.19 118.87 Z" />
</g>
<g id="#c3c3c3ff">
<path fill="#c3c3c3" opacity="1.00" d=" M 251.94 135.84 C 253.63 136.86 255.46 138.01 256.03 140.05 C 258.41 145.03 257.53 150.66 257.54 155.99 C 257.24 160.97 257.47 166.05 256.24 170.93 C 255.03 174.45 253.08 177.66 251.63 181.09 C 249.40 186.28 247.13 191.52 243.72 196.07 C 241.22 194.63 238.74 193.15 236.17 191.85 C 232.55 190.02 228.44 189.36 224.92 187.31 C 222.48 185.89 219.97 184.62 217.53 183.23 C 218.31 180.39 215.88 178.37 214.57 176.18 C 219.34 174.01 224.19 171.73 227.99 168.02 C 234.75 161.41 241.24 154.53 247.59 147.53 C 249.17 145.74 251.69 144.43 251.95 141.82 C 251.91 141.18 251.81 139.92 251.77 139.29 C 251.81 138.43 251.89 136.70 251.94 135.84 Z" />
<path fill="#c3c3c3" opacity="1.00" d=" M 185.37 172.04 C 187.39 172.23 188.34 174.20 189.86 175.26 C 191.39 176.14 193.18 176.39 194.92 176.50 C 199.19 176.78 203.47 177.04 207.74 177.40 C 208.86 177.64 210.38 177.52 211.04 178.67 C 209.05 178.95 206.63 178.38 205.19 180.16 C 202.49 183.05 199.41 185.73 197.77 189.41 C 197.29 189.19 196.32 188.74 195.84 188.52 C 191.90 185.76 188.14 182.60 185.42 178.60 C 184.10 176.60 185.26 174.21 185.37 172.04 Z" />
<path fill="#c3c3c3" opacity="1.00" d=" M 303.95 174.27 C 308.17 173.69 312.31 172.20 316.62 172.51 C 320.60 172.79 324.00 175.08 327.67 176.40 C 330.29 177.39 333.03 178.04 335.58 179.23 C 338.08 180.36 339.43 182.87 340.97 185.00 C 342.43 187.22 344.46 189.21 344.95 191.94 C 346.44 197.90 345.76 204.28 344.07 210.13 C 343.64 204.78 346.39 199.49 344.62 194.26 C 344.11 192.64 342.35 191.98 341.01 191.21 C 336.84 189.24 332.78 187.04 328.48 185.37 C 325.11 184.00 321.77 182.04 318.01 182.17 C 312.75 182.25 307.46 182.42 302.27 183.39 C 302.16 188.12 305.06 192.34 304.89 197.12 C 303.50 196.84 302.05 196.79 300.74 196.23 C 299.05 194.93 297.51 193.46 295.83 192.15 C 292.52 187.97 294.64 181.96 291.42 177.68 C 295.59 176.54 299.61 174.75 303.95 174.27 Z" />
<path fill="#c3c3c3" opacity="1.00" d=" M 197.63 190.35 C 200.44 188.18 202.42 185.09 205.36 183.10 C 206.09 187.60 205.92 192.18 205.91 196.73 C 204.31 197.58 202.61 198.22 201.03 199.12 C 198.57 200.53 197.22 203.35 194.62 204.55 C 191.78 205.08 188.93 204.27 186.16 203.72 C 188.27 201.38 191.29 199.50 192.06 196.24 L 191.11 195.58 C 192.02 194.66 193.33 194.51 194.49 194.12 C 195.20 192.55 195.81 190.94 196.63 189.43 C 196.88 189.66 197.38 190.12 197.63 190.35 Z" />
<path fill="#c3c3c3" opacity="1.00" d=" M 220.36 189.33 C 221.05 189.27 221.73 189.21 222.42 189.15 C 224.46 193.55 227.89 197.02 230.89 200.75 C 229.07 202.34 226.25 202.80 225.14 205.13 C 223.81 207.17 224.46 209.73 224.33 212.02 C 224.65 219.34 223.90 226.69 224.82 233.98 C 225.19 237.07 223.88 240.00 223.66 243.04 C 223.48 247.12 225.40 250.95 225.34 255.03 C 225.36 259.73 226.08 264.39 226.25 269.09 C 226.23 271.52 227.71 273.60 228.02 275.98 C 229.01 281.53 231.52 286.65 232.99 292.07 C 233.52 293.49 232.86 294.99 232.50 296.36 C 231.87 296.38 230.60 296.41 229.96 296.43 C 227.88 296.30 227.54 292.15 225.23 293.86 C 223.95 287.43 221.33 281.37 219.80 275.03 C 220.96 270.15 220.64 265.14 220.94 260.18 C 221.61 253.82 221.69 247.39 221.28 241.01 C 220.45 234.71 220.32 228.34 220.22 222.00 C 219.68 213.93 218.96 205.88 217.63 197.91 C 216.84 194.74 219.01 191.99 220.36 189.33 Z" />
</g>
<g id="#a2a2a2ff">
<path fill="#a2a2a2" opacity="1.00" d=" M 195.39 137.30 C 197.05 137.34 198.71 137.70 200.13 138.60 C 198.28 138.51 196.58 139.20 194.97 140.01 C 195.07 139.33 195.28 137.97 195.39 137.30 Z" />
</g>
<g id="#202020ff">
<path fill="#202020" opacity="1.00" d=" M 157.54 169.45 C 158.92 168.79 160.20 167.39 161.82 167.58 L 161.82 168.76 C 161.46 170.17 159.64 170.46 158.82 171.59 C 153.37 178.86 149.87 187.36 146.78 195.83 C 146.08 197.59 145.10 199.23 143.94 200.72 C 143.88 200.04 143.77 198.67 143.71 197.99 C 145.42 193.28 147.42 188.69 149.07 183.96 C 150.45 180.05 152.86 176.65 154.98 173.13 C 148.52 173.62 144.15 179.39 138.10 181.14 C 134.65 182.09 131.62 184.00 128.44 185.56 C 120.68 188.22 113.55 192.43 105.73 194.97 C 105.44 195.11 104.86 195.41 104.57 195.55 C 101.63 202.99 100.49 211.25 101.81 219.18 C 102.63 223.88 102.46 228.71 102.09 233.45 C 101.57 233.14 100.53 232.53 100.00 232.23 C 99.40 227.17 98.40 222.12 98.54 217.00 C 98.69 211.14 98.14 205.22 99.19 199.42 C 100.36 197.75 102.18 196.38 101.75 194.09 C 108.07 191.16 114.75 189.03 120.97 185.85 C 122.89 184.83 124.97 184.23 127.03 183.55 C 130.11 182.46 132.69 180.27 135.85 179.36 C 140.62 178.35 144.29 174.94 148.54 172.77 C 151.30 171.02 154.89 171.44 157.54 169.45 Z" />
</g>
<g id="#181818ff">
<path fill="#181818" opacity="1.00" d=" M 218.81 186.26 L 220.62 186.22 C 220.55 187.00 220.43 188.55 220.36 189.33 C 219.01 191.99 216.84 194.74 217.63 197.91 C 218.96 205.88 219.68 213.93 220.22 222.00 C 220.32 228.34 220.45 234.71 221.28 241.01 C 221.69 247.39 221.61 253.82 220.94 260.18 C 220.64 265.14 220.96 270.15 219.80 275.03 C 221.33 281.37 223.95 287.43 225.23 293.86 C 226.28 297.07 226.77 300.44 227.65 303.68 C 225.35 300.02 223.21 295.83 222.29 291.47 C 220.96 285.99 218.39 280.75 218.21 275.05 C 218.17 271.75 218.17 268.46 218.16 265.17 C 218.37 255.59 219.36 245.94 217.97 236.40 C 217.12 228.97 217.91 221.44 216.71 214.04 C 216.40 208.89 216.01 203.73 214.94 198.68 C 214.61 197.14 213.62 195.42 214.69 193.94 C 216.00 191.35 217.27 188.73 218.81 186.26 Z" />
</g>
<g id="#5c5c5cff">
<path fill="#5c5c5c" opacity="1.00" d=" M 222.28 186.90 C 224.44 188.32 225.87 190.52 227.42 192.53 C 229.57 195.40 231.94 198.11 233.97 201.07 C 235.12 202.60 236.00 204.57 238.10 204.91 C 237.61 205.73 237.04 206.51 236.49 207.28 C 234.24 205.46 232.65 203.01 230.89 200.75 C 227.89 197.02 224.46 193.55 222.42 189.15 C 222.39 188.59 222.32 187.46 222.28 186.90 Z" />
</g>
<g id="#888888ff">
<path fill="#888888" opacity="1.00" d=" M 295.83 192.15 C 297.51 193.46 299.05 194.93 300.74 196.23 C 302.05 196.79 303.50 196.84 304.89 197.12 C 306.91 197.30 308.07 199.25 309.12 200.77 C 310.31 202.44 309.73 204.61 309.62 206.51 C 307.53 206.53 307.89 208.72 306.96 209.97 C 305.07 211.15 302.87 211.65 300.74 212.18 C 300.70 212.54 300.63 213.27 300.59 213.63 C 299.72 213.31 298.84 213.00 297.96 212.72 C 300.48 211.59 303.18 210.89 305.63 209.59 C 307.62 208.95 306.42 206.52 306.42 205.09 C 307.27 205.24 308.13 205.37 308.99 205.49 C 307.53 202.78 305.79 200.20 303.67 197.96 C 303.19 198.26 302.24 198.87 301.76 199.17 C 299.85 196.77 297.54 194.70 295.83 192.15 Z" />
</g>
<g id="#151515ff">
<path fill="#151515" opacity="1.00" d=" M 96.96 195.80 C 97.54 193.95 99.67 193.13 101.48 193.19 C 101.60 195.40 99.94 196.82 98.60 198.31 C 97.20 202.31 94.62 205.83 93.65 210.01 C 92.69 215.05 91.19 219.96 89.72 224.88 C 89.23 226.02 88.86 227.33 87.83 228.14 C 87.66 226.40 87.72 224.64 87.87 222.90 C 88.89 218.59 90.02 214.31 90.73 209.94 C 91.84 204.84 94.81 200.48 96.96 195.80 Z" />
</g>
<g id="#555555ff">
<path fill="#555555" opacity="1.00" d=" M 104.57 195.55 C 104.86 195.41 105.44 195.11 105.73 194.97 C 102.10 201.70 102.88 209.64 102.63 217.02 C 102.31 225.60 102.90 234.17 103.52 242.73 C 101.26 239.68 100.70 235.85 100.00 232.23 C 100.53 232.53 101.57 233.14 102.09 233.45 C 102.46 228.71 102.63 223.88 101.81 219.18 C 100.49 211.25 101.63 202.99 104.57 195.55 Z" />
</g>
<g id="#9f9f9fff">
<path fill="#9f9f9f" opacity="1.00" d=" M 143.94 200.72 C 145.10 199.23 146.08 197.59 146.78 195.83 C 146.69 199.02 144.79 201.73 143.69 204.63 C 142.96 204.43 142.31 204.66 141.85 205.26 L 141.21 205.81 C 141.77 203.15 141.99 200.21 143.71 197.99 C 143.77 198.67 143.88 200.04 143.94 200.72 Z" />
</g>
<g id="#8a8a8aff">
<path fill="#8a8a8a" opacity="1.00" d=" M 183.83 203.07 C 185.51 199.91 188.52 197.90 191.11 195.58 L 192.06 196.24 C 191.29 199.50 188.27 201.38 186.16 203.72 C 184.95 209.29 185.83 215.12 184.46 220.67 C 184.08 221.69 182.82 221.85 182.77 220.57 C 182.53 216.79 182.51 212.98 182.06 209.21 L 181.06 208.46 C 181.33 208.15 181.86 207.54 182.13 207.24 L 183.00 207.80 C 183.25 210.23 183.15 212.68 183.33 215.12 C 183.64 214.99 184.26 214.73 184.57 214.60 C 184.88 211.06 185.10 207.48 184.96 203.93 L 183.83 203.07 Z" />
</g>
<g id="#616161ff">
<path fill="#616161" opacity="1.00" d=" M 301.76 199.17 C 302.24 198.87 303.19 198.26 303.67 197.96 C 305.79 200.20 307.53 202.78 308.99 205.49 C 308.13 205.37 307.27 205.24 306.42 205.09 C 304.69 203.26 303.15 201.27 301.76 199.17 Z" />
</g>
<g id="#131313ff">
<path fill="#131313" opacity="1.00" d=" M 141.85 205.26 C 142.31 204.66 142.96 204.43 143.69 204.63 C 148.07 207.37 153.15 208.76 157.51 211.53 C 157.75 211.87 158.23 212.54 158.48 212.88 L 158.13 214.28 C 156.67 213.99 155.22 213.72 153.78 213.41 C 149.16 211.85 145.52 208.33 141.85 205.26 Z" />
</g>
<g id="#595959ff">
<path fill="#595959" opacity="1.00" d=" M 153.78 213.41 C 155.22 213.72 156.67 213.99 158.13 214.28 C 157.89 214.74 157.40 215.67 157.16 216.14 C 154.02 217.92 151.11 220.05 148.37 222.38 C 147.12 223.34 146.89 225.13 145.59 226.04 C 145.38 225.47 144.96 224.34 144.75 223.77 C 147.86 220.27 151.83 217.45 156.16 215.53 C 155.35 215.28 153.71 214.78 152.89 214.53 L 153.78 213.41 Z" />
</g>
<g id="#c2c2c2ff">
<path fill="#c2c2c2" opacity="1.00" d=" M 292.16 214.53 C 294.12 214.02 296.09 213.51 297.96 212.72 C 298.84 213.00 299.72 213.31 300.59 213.63 C 302.31 214.79 304.02 216.07 305.27 217.76 C 306.81 219.93 305.90 222.71 305.57 225.11 C 304.36 223.35 302.91 221.73 301.13 220.54 C 300.85 220.85 300.29 221.47 300.01 221.78 C 297.98 218.77 294.99 216.69 292.16 214.53 Z" />
</g>
<g id="#080808ff">
<path fill="#080808" opacity="1.00" d=" M 142.52 221.57 C 146.07 219.36 149.17 216.46 152.89 214.53 C 153.71 214.78 155.35 215.28 156.16 215.53 C 151.83 217.45 147.86 220.27 144.75 223.77 C 144.96 224.34 145.38 225.47 145.59 226.04 C 145.42 226.55 145.08 227.57 144.91 228.08 C 145.69 233.13 146.49 238.18 148.28 242.99 C 148.44 244.71 148.49 246.46 148.10 248.16 C 147.46 247.40 146.85 246.62 146.28 245.82 C 144.19 239.94 142.19 234.01 140.72 227.95 C 140.42 225.73 140.21 222.80 142.52 221.57 Z" />
</g>
<g id="#c4c4c4ff">
<path fill="#c4c4c4" opacity="1.00" d=" M 195.27 217.14 L 196.00 216.55 C 199.51 219.02 196.74 223.69 196.49 227.04 C 195.99 240.38 197.20 253.86 194.75 267.07 L 194.01 267.06 C 193.02 262.74 191.35 258.54 191.22 254.06 C 190.76 246.41 190.52 238.68 191.51 231.07 C 191.73 226.34 191.76 220.72 195.27 217.14 Z" />
<path fill="#c4c4c4" opacity="1.00" d=" M 209.26 260.46 L 209.54 260.13 C 210.52 265.72 209.61 271.44 210.74 277.01 C 211.35 281.97 213.13 286.81 212.57 291.88 C 211.13 290.06 211.12 287.62 210.33 285.53 C 207.26 277.85 208.48 269.41 208.54 261.36 C 208.72 261.14 209.08 260.68 209.26 260.46 Z" />
</g>
<g id="#4a4a4aff">
<path fill="#4a4a4a" opacity="1.00" d=" M 301.13 220.54 C 302.91 221.73 304.36 223.35 305.57 225.11 L 305.95 226.24 C 303.70 225.15 301.30 224.05 300.01 221.78 C 300.29 221.47 300.85 220.85 301.13 220.54 Z" />
</g>
<g id="#afafafff">
<path fill="#afafaf" opacity="1.00" d=" M 86.39 231.65 C 86.60 228.71 86.82 225.69 87.87 222.90 C 87.72 224.64 87.66 226.40 87.83 228.14 C 88.86 227.33 89.23 226.02 89.72 224.88 C 89.51 227.19 89.76 230.17 87.74 231.78 C 87.40 231.75 86.73 231.68 86.39 231.65 Z" />
</g>
<g id="#737373ff">
<path fill="#737373" opacity="1.00" d=" M 252.11 228.32 C 252.59 228.00 253.55 227.35 254.03 227.03 C 253.11 229.25 251.74 231.27 250.10 233.01 C 250.32 231.26 250.34 229.26 252.11 228.32 Z" />
</g>
<g id="#1e1e1eff">
<path fill="#1e1e1e" opacity="1.00" d=" M 248.27 228.09 C 249.55 228.17 250.83 228.25 252.11 228.32 C 250.34 229.26 250.32 231.26 250.10 233.01 C 249.00 238.14 249.46 243.68 247.22 248.51 C 247.03 248.58 246.66 248.73 246.48 248.81 C 245.59 242.18 247.05 235.53 247.82 228.97 L 248.27 228.09 Z" />
</g>
<g id="#323232ff">
<path fill="#323232" opacity="1.00" d=" M 313.84 234.27 C 315.21 234.39 317.42 231.05 317.59 234.01 C 316.15 236.34 313.66 237.85 311.14 238.78 C 309.74 238.25 308.29 237.88 306.80 237.77 C 307.91 236.54 309.07 235.30 310.52 234.47 C 311.61 234.33 312.73 234.37 313.84 234.27 Z" />
</g>
<g id="#939393ff">
<path fill="#939393" opacity="1.00" d=" M 303.78 242.70 C 304.69 241.00 305.55 239.25 306.80 237.77 C 308.29 237.88 309.74 238.25 311.14 238.78 C 311.01 239.14 310.74 239.87 310.61 240.24 C 308.23 240.76 306.08 241.95 303.78 242.70 Z" />
</g>
<g id="#bababaff">
<path fill="#bababa" opacity="1.00" d=" M 148.28 242.99 C 150.73 246.48 149.26 250.96 149.57 254.92 C 147.98 252.13 146.31 249.10 146.28 245.82 C 146.85 246.62 147.46 247.40 148.10 248.16 C 148.49 246.46 148.44 244.71 148.28 242.99 Z" />
</g>
<g id="#6b6b6bff">
<path fill="#6b6b6b" opacity="1.00" d=" M 347.42 250.23 L 348.01 249.49 C 350.37 249.39 349.33 252.42 348.21 253.26 C 347.05 254.57 345.79 256.17 343.82 255.93 C 344.47 253.74 346.17 252.09 347.42 250.23 Z" />
</g>
<g id="#a8a8a8ff">
<path fill="#a8a8a8" opacity="1.00" d=" M 347.24 256.17 C 347.70 256.11 348.64 256.00 349.11 255.95 C 349.40 258.24 346.01 259.84 344.20 258.66 C 343.92 256.87 346.05 256.74 347.24 256.17 Z" />
</g>
<g id="#fff8faff">
<path fill="#fff8fa" opacity="1.00" d=" M 194.16 297.05 C 195.48 296.53 196.87 296.37 198.32 296.58 C 198.34 299.54 199.42 303.50 196.50 305.50 C 195.16 307.09 193.84 304.76 193.04 303.84 C 192.33 301.74 191.88 298.33 194.16 297.05 Z" />
</g>
</svg>
