<?xml version="1.0" encoding="UTF-8" ?>
<!DOCTYPE svg PUBLIC "-//W3C//DTD SVG 1.1//EN" "http://www.w3.org/Graphics/SVG/1.1/DTD/svg11.dtd">
<svg width="205pt" height="246pt" viewBox="0 0 205 246" version="1.1" xmlns="http://www.w3.org/2000/svg">
<g id="#ffffffff">
<path fill="#ffffff" opacity="1.00" d=" M 82.05 54.24 C 83.33 55.44 84.58 56.72 86.09 57.65 C 88.06 57.45 89.91 56.50 91.94 56.67 C 95.83 56.18 99.33 58.15 103.04 58.89 C 110.02 58.80 117.05 58.29 124.00 59.21 C 126.46 59.39 128.83 58.58 131.21 58.10 C 132.66 60.03 134.36 61.89 136.96 61.97 C 140.54 68.00 145.04 73.53 147.61 80.15 C 151.07 90.79 154.16 101.76 154.05 113.04 C 153.58 118.07 152.05 123.14 153.43 128.17 C 154.33 136.24 150.57 143.95 150.75 152.03 C 150.91 159.77 146.23 166.26 142.81 172.81 C 136.51 179.51 128.04 183.55 120.27 188.27 C 113.18 191.57 104.81 194.72 97.08 191.66 C 90.71 189.79 83.89 189.83 77.70 187.26 C 68.60 184.84 58.41 182.20 52.57 174.19 C 47.57 167.97 47.48 159.55 47.30 151.96 C 47.36 150.13 46.53 148.46 45.87 146.80 C 45.14 143.93 46.84 139.08 43.31 137.80 C 43.32 139.81 43.49 141.82 43.68 143.83 C 42.94 144.18 41.48 144.89 40.75 145.24 C 39.54 144.83 38.28 144.54 37.16 143.93 C 33.39 135.85 31.69 127.04 28.33 118.80 C 26.84 114.22 26.55 108.37 29.98 104.56 C 32.64 104.62 36.43 104.29 37.58 107.35 C 38.97 111.53 41.22 115.55 41.22 120.07 C 41.42 124.24 42.05 128.37 42.66 132.50 C 43.17 132.49 44.19 132.49 44.70 132.49 C 45.14 121.68 45.44 110.86 45.09 100.04 C 44.67 93.86 48.30 88.58 50.06 82.91 C 51.68 78.37 52.39 73.18 55.79 69.53 C 60.27 66.03 66.25 65.70 71.12 62.93 C 74.25 61.02 78.34 61.61 81.24 59.29 C 81.88 57.68 81.84 55.93 82.05 54.24 M 115.09 74.30 C 115.58 74.37 116.55 74.49 117.04 74.55 C 119.67 72.66 123.81 72.39 125.16 69.13 C 121.35 69.68 117.52 71.18 115.09 74.30 M 74.28 72.92 C 76.86 73.52 79.44 74.11 82.06 74.48 C 81.23 71.25 76.29 70.31 74.28 72.92 M 116.68 77.84 C 116.73 78.31 116.82 79.24 116.86 79.70 C 119.90 78.17 122.37 75.73 125.45 74.27 C 128.92 73.05 132.61 72.80 136.23 72.37 C 136.60 71.98 137.34 71.20 137.70 70.81 C 130.03 69.68 122.21 72.50 116.68 77.84 M 70.52 75.39 C 70.60 75.87 70.77 76.83 70.85 77.30 C 76.36 76.73 81.57 78.66 86.20 81.48 C 88.38 82.31 87.26 79.42 86.05 78.98 C 81.36 76.28 75.97 74.59 70.52 75.39 M 122.54 83.72 C 118.73 86.02 116.23 90.03 114.90 94.19 C 118.09 94.00 118.50 90.41 120.37 88.49 C 122.22 85.78 125.37 84.72 128.15 83.28 C 132.58 82.54 136.23 85.14 140.35 85.96 C 140.37 82.38 138.16 78.19 134.04 78.63 C 129.43 77.95 126.19 81.67 122.54 83.72 M 66.81 83.67 C 63.24 87.63 60.38 92.17 57.46 96.61 C 61.66 96.25 63.88 91.85 66.90 89.40 C 71.76 87.91 76.97 88.42 81.32 91.11 C 86.11 92.61 89.65 96.31 92.28 100.44 C 93.22 102.83 93.91 105.31 95.10 107.60 C 96.78 105.01 95.03 102.08 94.20 99.53 C 89.12 92.46 83.04 85.65 74.97 81.95 C 72.22 81.69 68.81 81.31 66.81 83.67 M 105.97 98.29 C 103.59 99.04 100.06 97.62 98.71 100.32 C 103.45 100.67 109.99 101.36 112.67 96.41 C 110.21 95.72 108.38 98.25 105.97 98.29 M 125.85 100.88 C 121.84 103.17 118.68 106.79 114.34 108.59 C 115.21 109.24 116.24 109.52 117.30 109.68 C 119.06 108.40 120.82 107.12 122.54 105.79 C 125.86 105.85 129.46 106.36 132.42 104.46 C 135.52 102.51 139.27 102.52 142.70 101.60 C 142.68 101.35 142.65 100.87 142.63 100.62 C 137.16 99.49 131.09 98.21 125.85 100.88 M 99.60 102.72 C 99.51 103.19 99.35 104.14 99.27 104.61 C 103.21 104.88 107.37 105.17 110.98 103.24 C 110.76 102.84 110.33 102.04 110.12 101.64 C 106.77 103.01 103.14 103.00 99.60 102.72 M 64.78 105.55 C 65.65 109.28 70.24 107.06 72.83 107.84 C 76.07 109.42 79.78 109.02 83.18 108.21 C 85.32 109.02 87.28 111.25 89.72 110.75 C 89.62 108.69 87.15 108.19 85.73 107.20 C 83.15 106.10 81.06 103.42 78.01 103.84 C 73.46 103.80 69.41 106.84 64.78 105.55 M 139.99 107.83 C 136.20 111.38 131.24 113.74 126.01 113.89 C 122.94 114.14 120.50 112.01 117.72 111.11 C 117.66 111.59 117.52 112.54 117.46 113.02 C 123.11 117.35 130.96 116.16 136.81 112.91 C 139.35 111.19 141.54 108.71 144.75 108.29 C 144.72 107.85 144.68 106.97 144.66 106.53 C 143.03 106.64 141.19 106.48 139.99 107.83 M 29.79 108.08 C 27.87 108.85 28.60 111.37 28.32 113.00 C 28.57 114.75 27.56 117.51 30.18 117.98 C 30.41 115.24 30.42 112.49 30.50 109.75 C 31.28 109.59 32.83 109.28 33.61 109.12 C 33.19 108.46 32.76 107.79 32.34 107.13 C 31.48 107.41 30.63 107.73 29.79 108.08 M 58.57 108.02 C 57.78 111.59 61.59 114.49 64.83 114.76 C 71.52 115.48 78.20 117.76 84.97 116.56 C 86.89 115.83 90.02 115.20 89.64 112.50 C 87.45 113.20 85.39 114.33 83.11 114.76 C 77.15 115.56 71.41 113.25 65.51 112.84 C 62.33 112.78 60.89 109.62 58.57 108.02 M 55.56 117.20 C 57.99 118.24 60.64 118.54 63.26 118.43 C 63.23 118.02 63.18 117.19 63.15 116.78 C 60.67 116.92 57.05 114.23 55.56 117.20 M 32.76 125.15 C 33.11 126.68 33.32 128.33 34.56 129.43 C 36.18 131.00 37.42 134.03 40.17 133.04 C 38.88 130.86 36.97 129.16 35.39 127.20 C 34.85 124.31 35.25 121.35 35.63 118.46 C 36.50 118.11 38.24 117.41 39.11 117.05 C 37.74 116.39 36.27 115.95 34.82 115.51 C 33.46 118.56 33.19 121.88 32.76 125.15 M 87.63 135.44 C 89.54 138.61 93.30 139.61 96.61 140.62 C 100.21 141.66 103.08 144.97 107.10 144.47 C 108.42 143.68 109.51 142.59 110.72 141.64 C 113.17 139.40 116.74 139.62 119.71 138.52 C 121.08 137.53 122.18 136.22 123.39 135.03 C 123.97 131.21 121.71 125.84 117.11 126.54 C 118.64 128.87 122.38 130.63 121.19 133.97 C 119.86 137.44 115.81 137.07 112.88 138.12 C 110.27 138.77 108.47 140.91 106.52 142.61 C 102.74 142.04 99.93 139.17 96.25 138.34 C 92.98 137.54 89.02 135.78 88.52 132.02 C 88.55 129.04 92.32 128.26 92.70 125.43 C 88.17 125.85 84.53 131.61 87.63 135.44 M 74.51 145.24 C 73.42 146.98 73.49 149.47 74.97 150.99 C 75.95 146.46 78.32 142.46 80.72 138.57 C 82.00 136.62 84.10 135.04 84.00 132.47 C 79.08 135.17 77.29 140.74 74.51 145.24 M 126.39 134.06 C 125.67 136.24 128.39 137.27 128.96 139.13 C 130.24 143.78 130.14 148.63 130.43 153.40 C 133.24 152.50 131.96 149.18 132.21 147.00 C 131.58 142.40 132.00 135.61 126.39 134.06 M 132.64 137.98 C 133.58 141.96 138.38 141.65 141.57 141.73 C 141.49 141.29 141.33 140.41 141.26 139.97 C 138.28 139.77 135.47 138.80 132.64 137.98 M 56.39 140.28 C 56.42 142.17 58.68 142.27 60.09 142.43 C 64.76 142.72 69.50 142.55 74.01 141.23 C 73.93 140.75 73.75 139.79 73.66 139.31 C 68.01 140.81 62.16 140.32 56.39 140.28 M 135.32 146.65 C 134.81 149.71 134.57 152.81 133.91 155.85 C 138.05 154.78 136.50 149.20 137.14 146.06 C 136.69 146.21 135.78 146.51 135.32 146.65 M 93.45 148.60 C 89.43 150.26 85.96 152.96 82.28 155.22 C 82.56 155.62 83.12 156.42 83.40 156.82 C 87.11 154.84 90.34 151.94 94.37 150.59 C 98.89 149.75 103.48 150.69 108.03 150.59 C 111.70 150.41 115.38 150.06 119.05 150.44 C 121.56 150.60 122.94 153.01 124.67 154.50 C 126.03 152.87 124.45 151.01 123.10 150.02 C 119.69 147.14 114.97 148.25 110.89 148.13 C 105.10 149.12 99.23 147.57 93.45 148.60 M 67.69 150.21 C 67.67 152.97 67.98 155.71 68.66 158.38 C 69.11 158.35 70.02 158.29 70.47 158.26 C 70.09 155.54 69.78 152.81 69.65 150.07 C 69.16 150.11 68.18 150.18 67.69 150.21 M 100.03 151.38 C 96.84 151.33 93.60 151.98 90.88 153.71 C 88.69 155.18 85.61 156.64 86.03 159.79 C 90.35 161.60 95.23 162.32 99.85 161.40 C 104.76 159.85 110.10 160.05 115.08 161.16 C 118.74 162.14 122.32 159.74 124.77 157.23 C 123.32 154.80 121.94 151.79 118.97 150.98 C 112.69 149.73 106.34 151.40 100.03 151.38 M 74.74 153.72 C 74.59 156.49 74.43 159.26 74.57 162.04 C 74.55 166.56 78.18 170.13 81.93 172.11 C 83.08 172.64 85.33 173.78 85.44 171.75 C 81.99 169.98 78.70 167.83 76.74 164.36 C 76.59 160.74 76.59 157.12 76.60 153.50 C 76.14 153.55 75.21 153.66 74.74 153.72 M 136.84 162.80 C 136.04 166.20 133.10 168.75 132.97 172.36 C 134.00 171.70 135.11 171.05 135.66 169.91 C 138.92 164.91 140.74 158.75 140.20 152.79 C 137.46 155.42 138.13 159.51 136.84 162.80 M 126.18 156.76 C 124.51 161.72 119.50 163.91 114.87 165.21 C 110.84 166.17 106.97 164.02 102.97 164.17 C 99.32 164.91 95.96 167.55 92.07 166.67 C 88.21 165.36 85.43 162.21 82.25 159.83 C 81.97 163.66 85.85 165.77 88.64 167.51 C 92.47 169.86 97.17 168.77 100.96 166.92 C 104.22 165.24 107.70 167.13 111.07 167.31 C 116.35 167.81 121.29 165.24 125.53 162.37 C 127.32 161.05 126.91 158.55 126.18 156.76 M 64.49 158.14 C 64.97 161.89 67.30 164.98 69.03 168.23 C 70.10 170.37 72.22 171.61 74.11 172.92 C 74.48 172.60 75.21 171.97 75.58 171.66 C 73.53 170.02 71.22 168.52 70.13 166.02 C 68.34 163.34 67.68 159.58 64.49 158.14 M 121.56 170.00 C 121.81 170.42 122.32 171.26 122.58 171.68 C 125.59 170.38 128.86 169.49 131.39 167.29 C 132.49 166.59 132.83 165.30 132.66 164.07 C 129.08 166.26 125.60 168.65 121.56 170.00 M 97.11 177.17 C 97.18 177.67 97.33 178.66 97.40 179.15 C 102.41 178.01 107.56 178.33 112.65 178.22 C 112.33 177.80 111.70 176.95 111.39 176.52 C 106.66 175.85 101.79 176.25 97.11 177.17 Z" />
<path fill="#ffffff" opacity="1.00" d=" M 156.05 116.89 C 157.64 112.16 155.71 106.30 159.11 102.25 C 158.94 106.06 157.91 109.75 157.41 113.51 C 156.61 120.49 156.60 127.54 155.56 134.50 C 156.25 128.62 154.35 122.68 156.05 116.89 Z" />
<path fill="#ffffff" opacity="1.00" d=" M 77.35 106.14 C 78.48 105.24 79.16 105.48 79.39 106.86 C 78.25 107.76 77.57 107.52 77.35 106.14 Z" />
<path fill="#ffffff" opacity="1.00" d=" M 96.92 153.95 C 104.21 154.04 111.47 153.28 118.74 153.06 C 120.07 153.83 121.05 155.03 122.14 156.10 C 118.27 158.34 113.55 159.51 109.40 157.21 C 109.08 157.44 108.45 157.89 108.13 158.12 C 106.06 158.11 103.99 157.98 101.93 157.89 C 101.42 158.24 100.40 158.96 99.89 159.32 C 95.89 159.35 91.92 158.64 87.96 158.21 C 90.74 156.44 93.36 153.73 96.92 153.95 Z" />
<path fill="#ffffff" opacity="1.00" d=" M 49.56 219.08 C 51.79 219.32 55.27 218.42 56.19 221.19 C 56.65 225.03 52.07 224.38 49.60 224.55 C 49.59 222.73 49.57 220.90 49.56 219.08 Z" />
<path fill="#ffffff" opacity="1.00" d=" M 68.35 219.28 C 71.70 217.15 76.07 220.23 75.85 224.00 C 76.42 227.39 74.91 231.82 70.90 231.94 C 64.91 231.54 63.98 222.27 68.35 219.28 Z" />
<path fill="#ffffff" opacity="1.00" d=" M 125.59 219.18 C 128.11 219.36 132.92 217.89 132.94 221.83 C 131.57 224.43 128.02 222.95 125.66 223.43 C 125.63 222.01 125.61 220.59 125.59 219.18 Z" />
<path fill="#ffffff" opacity="1.00" d=" M 143.96 219.18 C 146.89 219.20 151.59 218.08 151.83 222.32 C 149.37 223.64 146.56 223.34 143.88 223.40 C 143.90 221.99 143.93 220.58 143.96 219.18 Z" />
<path fill="#ffffff" opacity="1.00" d=" M 125.62 226.56 C 128.61 226.64 132.32 225.81 134.10 228.93 C 132.38 232.21 128.59 231.07 125.58 231.27 C 125.60 229.70 125.61 228.13 125.62 226.56 Z" />
</g>
<g id="#000000ff">
<path fill="#000000" opacity="1.00" d=" M 67.95 17.18 C 74.42 16.85 79.49 11.36 86.06 11.86 C 93.46 12.03 101.07 10.40 108.25 12.90 C 111.10 13.99 114.16 13.37 117.12 13.69 C 122.02 15.51 125.63 19.45 130.14 21.96 C 135.45 25.11 141.04 28.44 144.29 33.89 C 145.75 36.91 149.58 37.58 151.11 40.52 C 154.86 47.70 160.96 54.50 160.57 63.09 C 160.09 67.09 162.50 70.93 161.32 74.93 C 160.05 78.88 161.30 83.08 160.09 87.04 C 158.82 91.46 159.10 96.10 158.73 100.64 C 159.58 101.03 160.43 101.43 161.28 101.82 C 160.90 106.92 159.37 111.85 159.07 116.95 C 158.48 122.58 158.53 128.26 157.61 133.86 C 157.44 135.59 155.92 136.66 154.88 137.90 C 153.63 143.19 152.74 148.59 152.63 154.04 C 152.59 160.38 148.77 165.73 146.09 171.22 C 144.02 175.76 139.68 178.58 135.68 181.26 C 135.61 187.78 138.67 193.63 141.34 199.37 C 142.95 202.81 145.59 205.57 147.74 208.65 C 147.17 208.62 146.02 208.57 145.44 208.54 C 140.96 204.55 138.96 198.73 136.32 193.52 C 134.59 190.10 133.97 186.27 133.62 182.49 C 125.03 188.40 115.62 193.93 105.04 195.02 C 101.02 195.67 97.35 193.59 93.53 192.80 C 88.64 191.87 83.60 191.52 78.89 189.81 C 72.89 187.65 66.36 186.89 60.85 183.50 C 60.25 187.92 57.32 191.38 55.10 195.08 C 52.61 199.15 49.56 202.89 45.84 205.90 C 45.57 205.47 45.01 204.60 44.74 204.16 C 49.77 200.22 53.03 194.63 56.34 189.28 C 57.62 187.24 58.32 184.92 58.99 182.63 C 53.79 179.75 49.91 174.97 47.54 169.58 C 44.69 161.98 46.37 153.62 43.62 146.01 C 42.85 146.49 42.08 146.96 41.31 147.44 C 39.44 146.81 37.30 146.69 35.69 145.43 C 31.78 137.67 30.10 129.04 26.91 120.98 C 25.05 116.59 25.15 111.59 26.02 107.00 C 26.52 104.26 29.19 103.01 31.54 102.19 C 27.38 96.43 25.70 89.14 26.42 82.12 C 26.90 77.72 26.92 73.23 25.81 68.92 C 26.56 65.28 28.47 61.94 28.76 58.19 C 28.93 54.14 32.31 51.38 33.36 47.64 C 35.06 41.30 38.37 34.70 44.35 31.47 C 48.42 28.56 50.90 23.57 55.91 21.97 C 60.02 20.57 63.46 17.39 67.95 17.18 M 82.05 54.24 C 81.84 55.93 81.88 57.68 81.24 59.29 C 78.34 61.61 74.25 61.02 71.12 62.93 C 66.25 65.70 60.27 66.03 55.79 69.53 C 52.39 73.18 51.68 78.37 50.06 82.91 C 48.30 88.58 44.67 93.86 45.09 100.04 C 45.44 110.86 45.14 121.68 44.70 132.49 C 44.19 132.49 43.17 132.49 42.66 132.50 C 42.05 128.37 41.42 124.24 41.22 120.07 C 41.22 115.55 38.97 111.53 37.58 107.35 C 36.43 104.29 32.64 104.62 29.98 104.56 C 26.55 108.37 26.84 114.22 28.33 118.80 C 31.69 127.04 33.39 135.85 37.16 143.93 C 38.28 144.54 39.54 144.83 40.75 145.24 C 41.48 144.89 42.94 144.18 43.68 143.83 C 43.49 141.82 43.32 139.81 43.31 137.80 C 46.84 139.08 45.14 143.93 45.87 146.80 C 46.53 148.46 47.36 150.13 47.30 151.96 C 47.48 159.55 47.57 167.97 52.57 174.19 C 58.41 182.20 68.60 184.84 77.70 187.26 C 83.89 189.83 90.71 189.79 97.08 191.66 C 104.81 194.72 113.18 191.57 120.27 188.27 C 128.04 183.55 136.51 179.51 142.81 172.81 C 146.23 166.26 150.91 159.77 150.75 152.03 C 150.57 143.95 154.33 136.24 153.43 128.17 C 152.05 123.14 153.58 118.07 154.05 113.04 C 154.16 101.76 151.07 90.79 147.61 80.15 C 145.04 73.53 140.54 68.00 136.96 61.97 C 134.36 61.89 132.66 60.03 131.21 58.10 C 128.83 58.58 126.46 59.39 124.00 59.21 C 117.05 58.29 110.02 58.80 103.04 58.89 C 99.33 58.15 95.83 56.18 91.94 56.67 C 89.91 56.50 88.06 57.45 86.09 57.65 C 84.58 56.72 83.33 55.44 82.05 54.24 M 156.05 116.89 C 154.35 122.68 156.25 128.62 155.56 134.50 C 156.60 127.54 156.61 120.49 157.41 113.51 C 157.91 109.75 158.94 106.06 159.11 102.25 C 155.71 106.30 157.64 112.16 156.05 116.89 Z" />
<path fill="#000000" opacity="1.00" d=" M 115.09 74.30 C 117.52 71.18 121.35 69.68 125.16 69.13 C 123.81 72.39 119.67 72.66 117.04 74.55 C 116.55 74.49 115.58 74.37 115.09 74.30 Z" />
<path fill="#000000" opacity="1.00" d=" M 74.28 72.92 C 76.29 70.31 81.23 71.25 82.06 74.48 C 79.44 74.11 76.86 73.52 74.28 72.92 Z" />
<path fill="#000000" opacity="1.00" d=" M 116.68 77.84 C 122.21 72.50 130.03 69.68 137.70 70.81 C 137.34 71.20 136.60 71.98 136.23 72.37 C 132.61 72.80 128.92 73.05 125.45 74.27 C 122.37 75.73 119.90 78.17 116.86 79.70 C 116.82 79.24 116.73 78.31 116.68 77.84 Z" />
<path fill="#000000" opacity="1.00" d=" M 70.52 75.39 C 75.97 74.59 81.36 76.28 86.05 78.98 C 87.26 79.42 88.38 82.31 86.20 81.48 C 81.57 78.66 76.36 76.73 70.85 77.30 C 70.77 76.83 70.60 75.87 70.52 75.39 Z" />
<path fill="#000000" opacity="1.00" d=" M 122.54 83.72 C 126.19 81.67 129.43 77.95 134.04 78.63 C 138.16 78.19 140.37 82.38 140.35 85.96 C 136.23 85.14 132.58 82.54 128.15 83.28 C 125.37 84.72 122.22 85.78 120.37 88.49 C 118.50 90.41 118.09 94.00 114.90 94.19 C 116.23 90.03 118.73 86.02 122.54 83.72 Z" />
<path fill="#000000" opacity="1.00" d=" M 66.81 83.67 C 68.81 81.31 72.22 81.69 74.97 81.95 C 83.04 85.65 89.12 92.46 94.20 99.53 C 95.03 102.08 96.78 105.01 95.10 107.60 C 93.91 105.31 93.22 102.83 92.28 100.44 C 89.65 96.31 86.11 92.61 81.32 91.11 C 76.97 88.42 71.76 87.91 66.90 89.40 C 63.88 91.85 61.66 96.25 57.46 96.61 C 60.38 92.17 63.24 87.63 66.81 83.67 Z" />
<path fill="#000000" opacity="1.00" d=" M 105.97 98.29 C 108.38 98.25 110.21 95.72 112.67 96.41 C 109.99 101.36 103.45 100.67 98.71 100.32 C 100.06 97.62 103.59 99.04 105.97 98.29 Z" />
<path fill="#000000" opacity="1.00" d=" M 125.85 100.88 C 131.09 98.21 137.16 99.49 142.63 100.62 C 142.65 100.87 142.68 101.35 142.70 101.60 C 139.27 102.52 135.52 102.51 132.42 104.46 C 129.46 106.36 125.86 105.85 122.54 105.79 C 120.82 107.12 119.06 108.40 117.30 109.68 C 116.24 109.52 115.21 109.24 114.34 108.59 C 118.68 106.79 121.84 103.17 125.85 100.88 Z" />
<path fill="#000000" opacity="1.00" d=" M 99.60 102.72 C 103.14 103.00 106.77 103.01 110.12 101.64 C 110.33 102.04 110.76 102.84 110.98 103.24 C 107.37 105.17 103.21 104.88 99.27 104.61 C 99.35 104.14 99.51 103.19 99.60 102.72 Z" />
<path fill="#000000" opacity="1.00" d=" M 64.78 105.55 C 69.41 106.84 73.46 103.80 78.01 103.84 C 81.06 103.42 83.15 106.10 85.73 107.20 C 87.15 108.19 89.62 108.69 89.72 110.75 C 87.28 111.25 85.32 109.02 83.18 108.21 C 79.78 109.02 76.07 109.42 72.83 107.84 C 70.24 107.06 65.65 109.28 64.78 105.55 M 77.35 106.14 C 77.57 107.52 78.25 107.76 79.39 106.86 C 79.16 105.48 78.48 105.24 77.35 106.14 Z" />
<path fill="#000000" opacity="1.00" d=" M 139.99 107.83 C 141.19 106.48 143.03 106.64 144.66 106.53 C 144.68 106.97 144.72 107.85 144.75 108.29 C 141.54 108.71 139.35 111.19 136.81 112.91 C 130.96 116.16 123.11 117.35 117.46 113.02 C 117.52 112.54 117.66 111.59 117.72 111.11 C 120.50 112.01 122.94 114.14 126.01 113.89 C 131.24 113.74 136.20 111.38 139.99 107.83 Z" />
<path fill="#000000" opacity="1.00" d=" M 29.79 108.08 C 30.63 107.73 31.48 107.41 32.34 107.13 C 32.76 107.79 33.19 108.46 33.61 109.12 C 32.83 109.28 31.28 109.59 30.50 109.75 C 30.42 112.49 30.41 115.24 30.18 117.98 C 27.56 117.51 28.57 114.75 28.32 113.00 C 28.60 111.37 27.87 108.85 29.79 108.08 Z" />
<path fill="#000000" opacity="1.00" d=" M 58.57 108.02 C 60.89 109.62 62.33 112.78 65.51 112.84 C 71.41 113.25 77.15 115.56 83.11 114.76 C 85.39 114.33 87.45 113.20 89.64 112.50 C 90.02 115.20 86.89 115.83 84.97 116.56 C 78.20 117.76 71.52 115.48 64.83 114.76 C 61.59 114.49 57.78 111.59 58.57 108.02 Z" />
<path fill="#000000" opacity="1.00" d=" M 55.56 117.20 C 57.05 114.23 60.67 116.92 63.15 116.78 C 63.18 117.19 63.23 118.02 63.26 118.43 C 60.64 118.54 57.99 118.24 55.56 117.20 Z" />
<path fill="#000000" opacity="1.00" d=" M 32.76 125.15 C 33.19 121.88 33.46 118.56 34.82 115.51 C 36.27 115.95 37.74 116.39 39.11 117.05 C 38.24 117.41 36.50 118.11 35.63 118.46 C 35.25 121.35 34.85 124.31 35.39 127.20 C 36.97 129.16 38.88 130.86 40.17 133.04 C 37.42 134.03 36.18 131.00 34.56 129.43 C 33.32 128.33 33.11 126.68 32.76 125.15 Z" />
<path fill="#000000" opacity="1.00" d=" M 87.63 135.44 C 84.53 131.61 88.17 125.85 92.70 125.43 C 92.32 128.26 88.55 129.04 88.52 132.02 C 89.02 135.78 92.98 137.54 96.25 138.34 C 99.93 139.17 102.74 142.04 106.52 142.61 C 108.47 140.91 110.27 138.77 112.88 138.12 C 115.81 137.07 119.86 137.44 121.19 133.97 C 122.38 130.63 118.64 128.87 117.11 126.54 C 121.71 125.84 123.97 131.21 123.39 135.03 C 122.18 136.22 121.08 137.53 119.71 138.52 C 116.74 139.62 113.17 139.40 110.72 141.64 C 109.51 142.59 108.42 143.68 107.10 144.47 C 103.08 144.97 100.21 141.66 96.61 140.62 C 93.30 139.61 89.54 138.61 87.63 135.44 Z" />
<path fill="#000000" opacity="1.00" d=" M 74.51 145.24 C 77.29 140.74 79.08 135.17 84.00 132.47 C 84.10 135.04 82.00 136.62 80.72 138.57 C 78.32 142.46 75.95 146.46 74.97 150.99 C 73.49 149.47 73.42 146.98 74.51 145.24 Z" />
<path fill="#000000" opacity="1.00" d=" M 126.39 134.06 C 132.00 135.61 131.58 142.40 132.21 147.00 C 131.96 149.18 133.24 152.50 130.43 153.40 C 130.14 148.63 130.24 143.78 128.96 139.13 C 128.39 137.27 125.67 136.24 126.39 134.06 Z" />
<path fill="#000000" opacity="1.00" d=" M 132.64 137.98 C 135.47 138.80 138.28 139.77 141.26 139.97 C 141.33 140.41 141.49 141.29 141.57 141.73 C 138.38 141.65 133.58 141.96 132.64 137.98 Z" />
<path fill="#000000" opacity="1.00" d=" M 56.39 140.28 C 62.16 140.32 68.01 140.81 73.66 139.31 C 73.75 139.79 73.93 140.75 74.01 141.23 C 69.50 142.55 64.76 142.72 60.09 142.43 C 58.68 142.27 56.42 142.17 56.39 140.28 Z" />
<path fill="#000000" opacity="1.00" d=" M 135.32 146.65 C 135.78 146.51 136.69 146.21 137.14 146.06 C 136.50 149.20 138.05 154.78 133.91 155.85 C 134.57 152.81 134.81 149.71 135.32 146.65 Z" />
<path fill="#000000" opacity="1.00" d=" M 93.45 148.60 C 99.23 147.57 105.10 149.12 110.89 148.13 C 114.97 148.25 119.69 147.14 123.10 150.02 C 124.45 151.01 126.03 152.87 124.67 154.50 C 122.94 153.01 121.56 150.60 119.05 150.44 C 115.38 150.06 111.70 150.41 108.03 150.59 C 103.48 150.69 98.89 149.75 94.37 150.59 C 90.34 151.94 87.11 154.84 83.40 156.82 C 83.12 156.42 82.56 155.62 82.28 155.22 C 85.96 152.96 89.43 150.26 93.45 148.60 Z" />
<path fill="#000000" opacity="1.00" d=" M 67.69 150.21 C 68.18 150.18 69.16 150.11 69.65 150.07 C 69.78 152.81 70.09 155.54 70.47 158.26 C 70.02 158.29 69.11 158.35 68.66 158.38 C 67.98 155.71 67.67 152.97 67.69 150.21 Z" />
<path fill="#000000" opacity="1.00" d=" M 100.03 151.38 C 106.34 151.40 112.69 149.73 118.97 150.98 C 121.94 151.79 123.32 154.80 124.77 157.23 C 122.32 159.74 118.74 162.14 115.08 161.16 C 110.10 160.05 104.76 159.85 99.85 161.40 C 95.23 162.32 90.35 161.60 86.03 159.79 C 85.61 156.64 88.69 155.18 90.88 153.71 C 93.60 151.98 96.84 151.33 100.03 151.38 M 96.92 153.95 C 93.36 153.73 90.74 156.44 87.96 158.21 C 91.92 158.64 95.89 159.35 99.89 159.32 C 100.40 158.96 101.42 158.24 101.93 157.89 C 103.99 157.98 106.06 158.11 108.13 158.12 C 108.45 157.89 109.08 157.44 109.40 157.21 C 113.55 159.51 118.27 158.34 122.14 156.10 C 121.05 155.03 120.07 153.83 118.74 153.06 C 111.47 153.28 104.21 154.04 96.92 153.95 Z" />
<path fill="#000000" opacity="1.00" d=" M 74.74 153.72 C 75.21 153.66 76.14 153.55 76.60 153.50 C 76.59 157.12 76.59 160.74 76.74 164.36 C 78.70 167.83 81.99 169.98 85.44 171.75 C 85.33 173.78 83.08 172.64 81.93 172.11 C 78.18 170.13 74.55 166.56 74.57 162.04 C 74.43 159.26 74.59 156.49 74.74 153.72 Z" />
<path fill="#000000" opacity="1.00" d=" M 136.84 162.80 C 138.13 159.51 137.46 155.42 140.20 152.79 C 140.74 158.75 138.92 164.91 135.66 169.91 C 135.11 171.05 134.00 171.70 132.97 172.36 C 133.10 168.75 136.04 166.20 136.84 162.80 Z" />
<path fill="#000000" opacity="1.00" d=" M 126.18 156.76 C 126.91 158.55 127.32 161.05 125.53 162.37 C 121.29 165.24 116.35 167.81 111.07 167.31 C 107.70 167.13 104.22 165.24 100.96 166.92 C 97.17 168.77 92.47 169.86 88.64 167.51 C 85.85 165.77 81.97 163.66 82.25 159.83 C 85.43 162.21 88.21 165.36 92.07 166.67 C 95.96 167.55 99.32 164.91 102.97 164.17 C 106.97 164.02 110.84 166.17 114.87 165.21 C 119.50 163.91 124.51 161.72 126.18 156.76 Z" />
<path fill="#000000" opacity="1.00" d=" M 64.49 158.14 C 67.68 159.58 68.34 163.34 70.13 166.02 C 71.22 168.52 73.53 170.02 75.58 171.66 C 75.21 171.97 74.48 172.60 74.11 172.92 C 72.22 171.61 70.10 170.37 69.03 168.23 C 67.30 164.98 64.97 161.89 64.49 158.14 Z" />
<path fill="#000000" opacity="1.00" d=" M 121.56 170.00 C 125.60 168.65 129.08 166.26 132.66 164.07 C 132.83 165.30 132.49 166.59 131.39 167.29 C 128.86 169.49 125.59 170.38 122.58 171.68 C 122.32 171.26 121.81 170.42 121.56 170.00 Z" />
<path fill="#000000" opacity="1.00" d=" M 97.11 177.17 C 101.79 176.25 106.66 175.85 111.39 176.52 C 111.70 176.95 112.33 177.80 112.65 178.22 C 107.56 178.33 102.41 178.01 97.40 179.15 C 97.33 178.66 97.18 177.67 97.11 177.17 Z" />
<path fill="#000000" opacity="1.00" d=" M 59.30 195.74 C 59.78 195.55 60.74 195.18 61.21 195.00 C 59.13 201.40 54.63 208.31 47.74 210.00 C 48.98 207.23 51.95 205.99 53.86 203.78 C 56.19 201.47 57.52 198.44 59.30 195.74 Z" />
<path fill="#000000" opacity="1.00" d=" M 131.40 198.45 C 133.68 198.50 134.05 201.19 135.05 202.73 C 136.36 205.99 138.62 209.05 138.63 212.68 C 138.15 212.38 137.20 211.80 136.73 211.51 C 135.21 207.06 132.21 203.12 131.40 198.45 Z" />
<path fill="#000000" opacity="1.00" d=" M 101.03 205.26 C 101.55 205.24 102.58 205.22 103.09 205.20 C 103.34 208.59 103.90 211.95 104.95 215.19 C 108.55 215.46 112.18 217.27 112.59 221.25 C 111.74 221.25 110.02 221.25 109.17 221.25 C 108.28 218.03 101.40 217.40 102.38 221.43 C 104.97 222.83 108.03 223.04 110.60 224.48 C 113.99 226.61 113.52 232.37 109.95 234.08 C 107.31 235.25 104.17 235.30 101.50 234.23 C 99.28 233.26 98.46 230.83 97.54 228.80 C 98.77 228.55 100.00 228.31 101.23 228.07 C 101.78 231.85 106.88 233.33 109.10 230.12 C 109.09 229.60 109.09 228.57 109.08 228.05 C 105.75 225.96 100.19 226.57 98.78 222.14 C 97.65 219.01 100.42 216.58 103.00 215.44 C 101.72 212.19 101.30 208.71 101.03 205.26 Z" />
<path fill="#000000" opacity="1.00" d=" M 68.52 215.74 C 71.93 215.02 76.02 215.90 78.04 218.96 C 80.57 222.96 80.47 228.67 77.44 232.39 C 74.20 235.66 68.52 235.85 64.94 233.03 C 59.83 228.30 61.06 217.32 68.52 215.74 M 68.35 219.28 C 63.98 222.27 64.91 231.54 70.90 231.94 C 74.91 231.82 76.42 227.39 75.85 224.00 C 76.07 220.23 71.70 217.15 68.35 219.28 Z" />
<path fill="#000000" opacity="1.00" d=" M 18.09 216.00 C 19.29 216.00 20.49 216.00 21.69 216.01 C 21.70 222.16 21.68 228.31 21.71 234.47 C 20.80 234.46 18.99 234.45 18.08 234.44 C 18.10 228.29 18.08 222.14 18.09 216.00 Z" />
<path fill="#000000" opacity="1.00" d=" M 24.79 216.04 C 26.65 216.03 28.50 216.03 30.35 216.03 C 31.53 220.21 32.64 224.41 33.86 228.58 C 34.92 224.39 35.99 220.21 37.14 216.05 C 38.98 216.02 40.82 216.01 42.66 216.00 C 42.67 222.15 42.66 228.30 42.68 234.46 C 41.51 234.43 40.34 234.41 39.17 234.39 C 39.15 229.57 39.07 224.75 39.15 219.93 C 37.79 224.72 36.75 229.60 35.58 234.44 C 34.40 234.42 33.22 234.41 32.05 234.40 C 30.84 229.72 29.78 225.01 28.62 220.31 C 28.22 225.02 28.41 229.74 28.24 234.45 C 27.10 234.44 25.95 234.43 24.81 234.41 C 24.81 228.29 24.88 222.16 24.79 216.04 Z" />
<path fill="#000000" opacity="1.00" d=" M 45.89 216.04 C 49.64 216.14 53.55 215.47 57.19 216.66 C 61.46 218.63 60.82 225.81 56.41 227.19 C 54.19 227.75 51.88 227.62 49.61 227.73 C 49.61 229.95 49.62 232.18 49.62 234.41 C 48.36 234.41 47.11 234.41 45.86 234.41 C 45.92 228.29 45.87 222.17 45.89 216.04 M 49.56 219.08 C 49.57 220.90 49.59 222.73 49.60 224.55 C 52.07 224.38 56.65 225.03 56.19 221.19 C 55.27 218.42 51.79 219.32 49.56 219.08 Z" />
<path fill="#000000" opacity="1.00" d=" M 83.29 217.25 C 85.57 215.06 89.10 215.27 91.95 215.98 C 94.36 216.59 95.07 219.16 95.88 221.20 C 95.03 221.23 93.33 221.31 92.48 221.34 C 91.15 218.47 86.90 217.48 85.07 220.40 C 87.44 223.72 92.71 222.43 95.15 225.75 C 97.34 228.70 95.76 233.51 92.16 234.48 C 87.74 236.18 81.57 234.23 81.03 228.95 C 82.10 228.50 83.25 228.26 84.38 227.97 C 85.17 229.24 85.55 231.12 87.19 231.61 C 89.42 232.65 93.43 230.97 92.16 228.08 C 89.57 226.27 86.02 226.57 83.56 224.54 C 81.38 222.79 81.13 219.12 83.29 217.25 Z" />
<path fill="#000000" opacity="1.00" d=" M 115.57 216.04 C 116.49 216.04 118.32 216.05 119.23 216.06 C 119.23 222.18 119.23 228.30 119.23 234.42 C 118.31 234.43 116.45 234.43 115.53 234.43 C 115.63 228.30 115.51 222.17 115.57 216.04 Z" />
<path fill="#000000" opacity="1.00" d=" M 121.88 216.09 C 125.86 216.15 130.00 215.44 133.87 216.63 C 137.18 218.15 137.06 222.56 134.41 224.64 C 138.16 226.31 138.36 231.97 134.60 233.72 C 130.54 235.10 126.11 234.16 121.90 234.42 C 121.87 228.31 121.93 222.20 121.88 216.09 M 125.59 219.18 C 125.61 220.59 125.63 222.01 125.66 223.43 C 128.02 222.95 131.57 224.43 132.94 221.83 C 132.92 217.89 128.11 219.36 125.59 219.18 M 125.62 226.56 C 125.61 228.13 125.60 229.70 125.58 231.27 C 128.59 231.07 132.38 232.21 134.10 228.93 C 132.32 225.81 128.61 226.64 125.62 226.56 Z" />
<path fill="#000000" opacity="1.00" d=" M 140.27 216.07 C 143.90 216.12 147.56 215.77 151.18 216.22 C 154.58 216.42 156.42 220.87 154.67 223.60 C 153.96 225.07 152.28 225.53 150.96 226.26 C 153.54 228.47 155.07 231.56 156.92 234.35 C 155.80 234.39 153.58 234.47 152.47 234.51 C 149.96 231.46 148.69 226.10 143.88 226.34 C 143.91 229.03 144.01 231.73 144.10 234.43 C 142.83 234.42 141.57 234.41 140.31 234.40 C 140.32 228.29 140.34 222.18 140.27 216.07 M 143.96 219.18 C 143.93 220.58 143.90 221.99 143.88 223.40 C 146.56 223.34 149.37 223.64 151.83 222.32 C 151.59 218.08 146.89 219.20 143.96 219.18 Z" />
<path fill="#000000" opacity="1.00" d=" M 158.17 216.04 C 159.37 216.02 160.59 216.01 161.80 216.00 C 161.88 220.39 161.57 224.80 161.97 229.18 C 162.23 232.79 168.89 232.86 168.92 229.08 C 169.31 224.73 168.99 220.35 169.09 216.00 C 170.30 216.00 171.50 216.01 172.71 216.02 C 172.64 220.40 172.88 224.80 172.63 229.19 C 172.69 236.62 159.53 237.21 158.29 230.17 C 157.91 225.47 158.18 220.75 158.17 216.04 Z" />
<path fill="#000000" opacity="1.00" d=" M 176.85 216.09 C 177.84 216.06 179.82 216.00 180.81 215.98 C 180.76 220.92 180.40 225.90 179.34 230.74 C 176.25 226.64 177.44 220.94 176.85 216.09 Z" />
<path fill="#000000" opacity="1.00" d=" M 184.80 216.07 C 185.76 216.05 187.70 216.00 188.66 215.98 C 188.70 220.80 188.15 225.59 187.48 230.36 L 185.84 229.21 C 184.97 224.89 184.77 220.46 184.80 216.07 Z" />
<path fill="#000000" opacity="1.00" d=" M 176.97 230.81 C 178.20 230.88 179.42 230.95 180.66 231.01 C 180.60 232.17 180.55 233.32 180.51 234.48 C 179.28 234.44 178.05 234.41 176.82 234.37 C 176.86 233.48 176.93 231.70 176.97 230.81 Z" />
<path fill="#000000" opacity="1.00" d=" M 184.78 230.86 C 185.70 230.86 187.56 230.86 188.49 230.86 C 188.47 231.75 188.43 233.54 188.41 234.44 C 187.50 234.43 185.69 234.41 184.79 234.41 C 184.79 233.52 184.78 231.74 184.78 230.86 Z" />
</g>
</svg>
