<?xml version="1.0" encoding="utf-8"?>
<!-- Generator: Adobe Illustrator 15.0.2, SVG Export Plug-In . SVG Version: 6.00 Build 0)  -->
<!DOCTYPE svg PUBLIC "-//W3C//DTD SVG 1.1//EN" "http://www.w3.org/Graphics/SVG/1.1/DTD/svg11.dtd">
<svg version="1.1" id="Layer_1" xmlns="http://www.w3.org/2000/svg" xmlns:xlink="http://www.w3.org/1999/xlink" x="0px" y="0px"
	 width="200px" height="150px" viewBox="0 0 200 150" enable-background="new 0 0 200 150" xml:space="preserve">
<path fill="#FFFFFF" d="M0,0h200v150H0V0 M27.52,11.47c-5.34,4.25-10.95,8.49-14.44,14.49c-3.49,4.63-3.87,10.56-5.09,16.03
	C5.91,51.2,5.68,60.74,6.27,70.14c2.42,12.39,5.96,24.66,11.55,36.02c2.93,6.9,6.84,13.59,12.68,18.439
	c5.71,4.99,12.74,8.041,19.42,11.471c3.49,1.83,7.45,2.31,11.13,3.619c3.67,1.42,7,3.811,10.96,4.391c4.3,0.67,8.98,0.04,12.57-2.55
	c3.32-2.36,7.85-1.98,10.91-4.811c3.22-2.86,7.289-4.3,11.119-6.09c4.49-2.069,7.32-6.43,9.33-10.771
	c3.291-6.829,1.521-14.59,1.98-21.869c0.43-4.78-2.04-9.18-1.84-13.93c-0.221-7.261,3.939-13.791,3.87-21.03
	c0.01-3.09,0.149-6.271-0.75-9.271c-0.81-2.84-3.341-4.71-4.54-7.34c-0.42-2.42-0.1-4.9-0.381-7.33
	c-0.139-2.79-1.809-5.21-1.989-7.99c-0.37-2.88,0.34-6.22-1.78-8.57c-3.16-2.72-7.15-4.39-9.98-7.53
	c4.871,1.97,9.061,5.91,14.5,6.17c-2.59-3.12-4.909-7.09-9.079-8.21c-3.9-1.02-7.78-2.27-11.83-2.57c-4.68-0.3-8.68-2.94-13.06-4.3
	c-9.34-3.27-19.38-2.54-29.11-2.67C43.22,3.23,34.36,5.98,27.52,11.47 M159.471,69.56c-7.771,0.35-10.311,9.03-10.391,15.48
	c0.54,3.91,2.25,7.979,5.67,10.21c3.27,2.141,7.43,1.859,11.13,1.37c4.521-0.82,7.2-5.271,7.92-9.49
	c0.591-4.79,0.61-10.29-2.88-14.06C168.221,69.71,163.5,69.05,159.471,69.56 M128.77,69.91c-0.449,8.98-0.439,17.97,0.09,26.949
	c5.99,0.021,11.98,0.011,17.971,0.011c-0.01-1.61-0.02-3.22-0.02-4.82c-4.61-0.239-9.221-0.34-13.83-0.35
	c0.189-7.37,0.31-14.75-0.01-22.12C131.57,69.69,130.17,69.8,128.77,69.91 M178.45,96.87c5.85,0.021,11.71-0.021,17.56,0.04
	C196,95.27,196,93.63,196,91.99c-4.13-0.19-8.26-0.25-12.4-0.23c-0.029-7.279,0.551-14.6-0.39-21.84c-1.46-0.1-2.92-0.19-4.37-0.27
	C177.73,78.68,177.92,87.811,178.45,96.87z"/>
<path fill="#070906" d="M27.52,11.47c6.84-5.49,15.7-8.24,24.43-8.05c9.73,0.13,19.77-0.6,29.11,2.67c4.38,1.36,8.38,4,13.06,4.3
	c4.05,0.3,7.93,1.55,11.83,2.57c4.17,1.12,6.489,5.09,9.079,8.21c-5.439-0.26-9.629-4.2-14.5-6.17c2.83,3.14,6.82,4.81,9.98,7.53
	c2.12,2.35,1.41,5.689,1.78,8.57c0.181,2.78,1.851,5.2,1.989,7.99c0.281,2.43-0.039,4.91,0.381,7.33c1.199,2.63,3.73,4.5,4.54,7.34
	c0.899,3,0.76,6.18,0.75,9.271c0.069,7.24-4.091,13.77-3.87,21.03c-0.2,4.75,2.27,9.149,1.84,13.93
	c-0.46,7.279,1.311,15.04-1.98,21.869c-2.01,4.341-4.84,8.701-9.33,10.771c-3.83,1.79-7.899,3.229-11.119,6.09
	c-3.06,2.83-7.59,2.45-10.91,4.811c-3.59,2.59-8.27,3.22-12.57,2.55c-3.96-0.58-7.29-2.971-10.96-4.391
	c-3.68-1.31-7.64-1.789-11.13-3.619c-6.68-3.43-13.71-6.48-19.42-11.471c-5.84-4.85-9.75-11.539-12.68-18.439
	C12.23,94.8,8.69,82.53,6.27,70.14c-0.59-9.4-0.36-18.94,1.72-28.15c1.22-5.47,1.6-11.4,5.09-16.03
	C16.57,19.96,22.18,15.72,27.52,11.47 M46.56,6.61c-0.38-0.01-1.13-0.03-1.51-0.04c-0.19,0.14-0.57,0.41-0.77,0.54
	c-4.47,0.3-9.14,1.8-12.17,5.27c-3.07,0.69-5.19,3.25-7.57,5.11c-5.21,4.27-10.06,9.59-11.78,16.27
	c-2.42,8.89-3.66,18.05-4.37,27.22c-0.23,3.01,0,6.04,0.63,8.99c2.5,11.94,6.08,23.7,11.23,34.78c2.8,5.891,5.75,11.92,10.56,16.46
	c5.04,5.021,11.74,7.729,18.08,10.681c5.81,2.81,12.3,3.949,17.89,7.25c4.51,2.699,10.37,2.89,15.17,0.859
	c0.71-1.26,1.15-2.65,1.69-3.99c3.96,1.131,8.22,0.51,11.48-2.119c-3.4-1.57-7.66-1.4-10.72-3.99c-1.52-2.15-3.26-4.131-5.17-5.94
	c-1.5-5.17-5.78-9-9.92-12.2c-4.51-3.699-10.11-5.4-15.72-6.57c2.69-1.729,5.97-0.75,8.74,0.291c5.91,2.359,10.68,6.72,15.22,11.06
	c0.22-3.54,0.33-7.101,0.7-10.63c0.6-5.86,3.8-11.1,4.19-17c0.43-5.98,0.44-12.13-1.35-17.92c-0.81-2.76-1.38-5.76-0.6-8.59
	c1.1-3.04,3.03-5.69,4.66-8.45c-5.02,0.91-10.02,2.48-15.18,1.99c-3.15-0.26-6.53,0.18-9.34-1.57c5.38-0.92,10.86,0.15,16.24-0.59
	c5.46-1.17,11.53-3.17,14.31-8.45c-3.5-0.93-8.34-0.78-9.96-4.72c-2.27-4.68-1.7-10.65,1.59-14.72c2.33-3.84,6.74-5.32,10.03-8.1
	c1.86,0.03,3.72,0.02,5.59-0.04c-4.05-5.9-12.4-3.77-18.42-3.33c-0.09-2.89,3.1-2.83,5.06-3.76C75.77,5.98,65.18,5.88,55,5.58
	C52.15,5.48,49.32,5.89,46.56,6.61 M83.51,30.65c-1.65,3.3-1,7.84,1.91,10.24c5.57,2.65,11.74,0.68,17.551,0.18
	c2.139-0.23,3.459-2.2,4.289-4c2.051-4.37,3.6-9.99,0.08-14.05c-0.25,2.4-0.119,5.37-2.439,6.83c-2.58,0.57-5.581-0.21-6.67-2.84
	c0.79-2.66,3.56-3.979,5.48-5.75c-2.81-0.44-5.71-1.55-8.56-0.79C90.1,22.12,85.95,25.98,83.51,30.65 M110.939,36.88
	c-1.199,1.87-2.319,3.79-3.359,5.74c1.32,0.53,2.63,1.06,3.949,1.59C111.41,41.76,111.27,39.31,110.939,36.88 M97.45,44.69
	c-7.4,4.14-11.14,12.65-13.14,20.56c-1.53,4.33,1.37,8.42,1.31,12.75c0.05,5.53,0.63,11.26-1.23,16.59
	c-1.57,5.051-3.63,10.061-3.74,15.43c-0.2,5.34-0.04,11.36,3.61,15.641c4.79,5,12.69,5.59,18.961,3.5
	c7.829-2.78,11.629-11.43,12.029-19.21c0.25-6.92,0.57-14.021-1.55-20.72c-3.24-10.32,4.909-19.891,3.319-30.28
	C116.939,49.49,106.34,42.14,97.45,44.69z"/>
<path fill="#9C9895" d="M46.56,6.61c2.76-0.72,5.59-1.13,8.44-1.03c10.18,0.3,20.77,0.4,30.07,5.08c-1.96,0.93-5.15,0.87-5.06,3.76
	c6.02-0.44,14.37-2.57,18.42,3.33c-1.87,0.06-3.73,0.07-5.59,0.04c0.47-0.42,1.42-1.28,1.89-1.7c-3.12-0.62-6.34-1.38-9.53-0.79
	c-4.76,0.84-9.29,2.99-14.21,2.81c-6.52-0.1-13.06-0.56-19.54,0.42c0.08-0.85,0.23-2.561,0.31-3.41c-0.44-0.69-1.01-1.27-1.71-1.75
	c-3.39,0.81-6.85,1.21-10.31,1.61c1.7-0.95,3.33-2.01,4.98-3.05c-4.2,0.12-8.41,0.24-12.61,0.45c3.03-3.47,7.7-4.97,12.17-5.27
	c-1.18,0.83-2.38,1.65-3.57,2.48c5.09-0.36,10.18,0,15.25,0.46C62.57,10.69,69.3,9.43,75.82,11c-9.6,1.68-19.46,0.45-29.15,0.12
	c5.06,1.51,9.81,4.24,15.18,4.58c4.99,0.36,10.12,1.29,15.06,0.13c1.61-1.87,2.73-4.08,3.9-6.23C69.78,5.58,58.01,7.23,46.56,6.61z"
	/>
<path fill="#FFFFFF" d="M45.05,6.57c0.38,0.01,1.13,0.03,1.51,0.04C58.01,7.23,69.78,5.58,80.81,9.6c-1.17,2.15-2.29,4.36-3.9,6.23
	c-4.94,1.16-10.07,0.23-15.06-0.13c-5.37-0.34-10.12-3.07-15.18-4.58c9.69,0.33,19.55,1.56,29.15-0.12
	c-6.52-1.57-13.25-0.31-19.86-0.95C50.89,9.59,45.8,9.23,40.71,9.59c1.19-0.83,2.39-1.65,3.57-2.48
	C44.48,6.98,44.86,6.71,45.05,6.57z"/>
<path fill="#FFFFFF" d="M24.54,17.49c2.38-1.86,4.5-4.42,7.57-5.11c4.2-0.21,8.41-0.33,12.61-0.45c-1.65,1.04-3.28,2.1-4.98,3.05
	c-5.66,1.68-11.27,4.07-15.71,8.07c-2.85,2.59-5.61,5.29-8.55,7.79c3.23-1.15,6.65-1.74,10.07-1.28c4.86-4.27,9.44-9.31,15.72-11.49
	c3.4-1.33,7.03-1.84,10.49-2.95c-0.08,0.85-0.23,2.56-0.31,3.41c6.48-0.98,13.02-0.521,19.54-0.42c4.92,0.18,9.45-1.97,14.21-2.81
	c3.19-0.59,6.41,0.17,9.53,0.79c-0.47,0.42-1.42,1.28-1.89,1.7c-3.29,2.78-7.7,4.26-10.03,8.1c-3.29,4.07-3.86,10.04-1.59,14.72
	c1.62,3.94,6.46,3.79,9.96,4.72c-2.78,5.28-8.85,7.28-14.31,8.45c-5.38,0.74-10.86-0.33-16.24,0.59c2.81,1.75,6.19,1.31,9.34,1.57
	c5.16,0.49,10.16-1.08,15.18-1.99c-1.63,2.76-3.56,5.41-4.66,8.45c-0.78,2.83-0.21,5.83,0.6,8.59c1.79,5.79,1.78,11.939,1.35,17.92
	c-0.39,5.9-3.59,11.14-4.19,17c-0.37,3.529-0.48,7.09-0.7,10.63c-4.54-4.34-9.31-8.7-15.22-11.06c-2.77-1.041-6.05-2.021-8.74-0.291
	c5.61,1.17,11.21,2.871,15.72,6.57c4.14,3.2,8.42,7.03,9.92,12.2c0.14,1.021,0.41,3.06,0.55,4.08c-5.73-1.81-11.7-2.32-17.67-2.58
	c-7.75-2.351-13.67-8.3-20.93-11.68c-2.33-1.13-4.77-2.48-5.86-4.97c-3.07-6.181-5.75-12.561-8.07-19.061
	c-1.89-5.061-2.2-10.66-5-15.37c-0.59,5.181,0.55,10.3,1.78,15.29c-4.86-5.32-5.86-12.779-10.18-18.41
	c0.07,7.19,4.07,13.35,7.45,19.4c3.46,5.949,4.19,13.1,8,18.88c3.57,5.34,7.92,10.44,13.75,13.37c8.61,4.49,17.96,7.33,27.34,9.73
	c3.7,0.989,7.55,1.109,11.37,1.149c0.02-0.56,0.08-1.681,0.1-2.229c-5.08-0.291-10.49-0.371-14.78-3.5
	c5.72,1.06,11.47,2.159,17.32,1.84c3.06,2.59,7.32,2.42,10.72,3.99c-3.26,2.629-7.52,3.25-11.48,2.119
	c-0.54,1.34-0.98,2.73-1.69,3.99c-4.8,2.03-10.66,1.84-15.17-0.859c-5.59-3.301-12.08-4.44-17.89-7.25
	c-6.34-2.951-13.04-5.66-18.08-10.681c-4.81-4.54-7.76-10.569-10.56-16.46C15.1,93.67,11.52,81.91,9.02,69.97
	c-0.63-2.95-0.86-5.979-0.63-8.99c0.71-9.17,1.95-18.33,4.37-27.22C14.48,27.08,19.33,21.76,24.54,17.49 M42.25,20.26l-0.06,0.91
	c-2.52,0.4-4.24,2.43-5.94,4.15c-2.42,2.58-4.85,5.74-4.45,9.51c-0.52,1.18-1.04,2.37-1.57,3.56c-1.44,0.09-2.88,0.19-4.32,0.29
	c0.25,0.56,0.73,1.69,0.97,2.25c-2.2,1.08-4.32,2.34-6.11,4.03c3.48-0.36,6.93-0.99,10.37-1.66c-1.57,2.52-2.97,5.16-3.86,8
	c2.74-1.97,5.02-5.25,8.81-4.73c4.25,3.87,10.32,5.05,15.92,4.74c3.41-0.16,5.99-2.78,8.32-5c4.31-4.55,4.29-11.57,2.29-17.17
	c-0.77-2.88-2.83-5.37-5.69-6.37c0.3-0.37,0.88-1.1,1.18-1.46c7.57-1.61,15.61,1.06,23.08-1.76C77.8,19,74.39,19.44,71,19.58
	C61.4,18.82,51.87,20.84,42.25,20.26 M56.45,58.66c0.35,1.54-1.03,4.07,0.86,4.81c5.05,1.73,10.41,2.95,15.77,2.71
	c2.47-0.08,4.05-2.27,5.83-3.66c-5.79,1.13-11.79,1.72-17.51-0.11c6.01-0.89,12.98-0.24,17.68-4.83
	C71.55,58.22,64.02,59.98,56.45,58.66 M55.71,68.07c1.26,1.13,2.26,2.95,4.19,2.88c6.21,0.59,12.45,0.17,18.68,0.21l0.07-1.81
	C70.97,69.56,63.32,69.01,55.71,68.07 M27.85,77.48c2.01,5.43,6.69,9.119,9.54,14.02c2.1,3.41,1.01,7.561,1.83,11.28
	c1.01,2.17,2.88,3.76,4.52,5.45c5.12,4.879,10.19,10.08,16.62,13.25c-5.22-7.67-15.01-11.121-19.33-19.561
	c-0.67-3.23-0.09-6.63-1.08-9.8c-1.72-3.74-5-6.42-7.22-9.84C31.33,80.48,30.42,77.85,27.85,77.48 M49.47,88.41
	c3.22,1.92,7.24,1.439,10.66,2.88c-2.47,0.29-5.03,0.58-7.13,2.05c3.56,0.35,7.41,0.07,10.54,2.12c3.43,2.13,6.84,4.33,10.69,5.67
	C69.27,92.82,59.61,85.561,49.47,88.41 M55.43,97.141c3.67,1.84,7.96,2.579,11.05,5.479c3.26,2.489,5.91,6.399,10.4,6.6
	C73.27,104.77,68.83,101,63.97,98C61.41,96.391,58.26,96.939,55.43,97.141z"/>
<path fill="#070906" d="M39.74,14.98c3.46-0.4,6.92-0.8,10.31-1.61c0.7,0.48,1.27,1.06,1.71,1.75c-3.46,1.11-7.09,1.62-10.49,2.95
	c-6.28,2.18-10.86,7.22-15.72,11.49c-3.42-0.46-6.84,0.13-10.07,1.28c2.94-2.5,5.7-5.2,8.55-7.79
	C28.47,19.05,34.08,16.66,39.74,14.98z"/>
<path fill="#9A9693" d="M42.25,20.26c9.62,0.58,19.15-1.44,28.75-0.68c3.39-0.14,6.8-0.58,10.19-0.03
	c-7.47,2.82-15.51,0.15-23.08,1.76c-0.3,0.36-0.88,1.09-1.18,1.46c-4.65-1.89-9.79-2.86-14.74-1.6L42.25,20.26z"/>
<path fill="#FFFFFF" d="M83.51,30.65c2.44-4.67,6.59-8.53,11.64-10.18c2.85-0.76,5.75,0.35,8.56,0.79
	c-1.92,1.771-4.69,3.09-5.48,5.75c1.09,2.63,4.09,3.41,6.67,2.84c2.32-1.46,2.189-4.43,2.439-6.83c3.52,4.06,1.971,9.68-0.08,14.05
	c-0.83,1.8-2.15,3.77-4.289,4c-5.811,0.5-11.98,2.47-17.551-0.18C82.51,38.49,81.86,33.95,83.51,30.65z"/>
<path fill="#060805" d="M42.19,21.17c4.95-1.26,10.09-0.29,14.74,1.6c2.86,1,4.92,3.49,5.69,6.37c2,5.6,2.02,12.62-2.29,17.17
	c-2.33,2.22-4.91,4.84-8.32,5c-5.6,0.31-11.67-0.87-15.92-4.74c-2.3-1.87-4.03-5.47-7.5-4.82c2.5-1.5,3.64-4.04,3.21-6.92
	c-0.4-3.77,2.03-6.93,4.45-9.51C37.95,23.6,39.67,21.57,42.19,21.17 M42.32,24.28c-5.56,2.76-9.36,9.29-8.06,15.5
	c1.29,5.6,7.79,7.5,12.75,8.43c6.32,1.35,13.73-3.36,13.8-10.13c0.01-4.05-0.28-8.65-3.15-11.81
	C53.28,23.24,47.33,22.56,42.32,24.28z"/>
<path fill="#FFFFFF" d="M42.32,24.28c5.01-1.72,10.96-1.04,15.34,1.99c2.87,3.16,3.16,7.76,3.15,11.81
	c-0.07,6.77-7.48,11.48-13.8,10.13c-4.96-0.93-11.46-2.83-12.75-8.43C32.96,33.57,36.76,27.04,42.32,24.28 M39.2,35.43
	c-1.18,2.5-2.06,5.91,0.01,8.19c3.88,1.25,8.56-1.68,9.41-5.56C47.18,34.38,42.35,34.26,39.2,35.43z"/>
<path fill="#9B9794" d="M30.23,38.39c0.53-1.19,1.05-2.38,1.57-3.56c0.43,2.88-0.71,5.42-3.21,6.92c3.47-0.65,5.2,2.95,7.5,4.82
	c-3.79-0.52-6.07,2.76-8.81,4.73c0.89-2.84,2.29-5.48,3.86-8c-3.44,0.67-6.89,1.3-10.37,1.66c1.79-1.69,3.91-2.95,6.11-4.03
	c-0.24-0.56-0.72-1.69-0.97-2.25C27.35,38.58,28.79,38.48,30.23,38.39z"/>
<path fill="#070906" d="M39.2,35.43c3.15-1.17,7.98-1.05,9.42,2.63c-0.85,3.88-5.53,6.81-9.41,5.56
	C37.14,41.34,38.02,37.93,39.2,35.43z"/>
<path fill="#FFFFFF" d="M110.939,36.88c0.33,2.43,0.471,4.88,0.59,7.33c-1.319-0.53-2.629-1.06-3.949-1.59
	C108.62,40.67,109.74,38.75,110.939,36.88z"/>
<path fill="#FFFFFF" d="M97.45,44.69c8.89-2.55,19.489,4.8,19.569,14.26c1.59,10.39-6.56,19.96-3.319,30.28
	c2.12,6.699,1.8,13.8,1.55,20.72c-0.4,7.78-4.2,16.43-12.029,19.21c-6.271,2.09-14.171,1.5-18.961-3.5
	c-3.65-4.28-3.81-10.301-3.61-15.641c0.11-5.369,2.17-10.379,3.74-15.43c1.86-5.33,1.28-11.06,1.23-16.59
	c0.06-4.33-2.84-8.42-1.31-12.75C86.31,57.34,90.05,48.83,97.45,44.69 M98.24,50.11c-5.09,2.66-7.63,8.42-8.8,13.79
	c-0.92,7.68,0.22,15.45-0.57,23.14c-1.19,7.29-3.13,14.55-2.79,21.99c-0.01,3.5,0.32,7.319,2.61,10.149
	c4.07,5.84,14.76,6.271,18.089-0.56c3.801-6.65,5.941-15.04,3.08-22.45c-1.449-4.16-1.209-8.71-0.629-13.01
	c1.5-6.2,5.899-12.13,4.209-18.77c-1.069-4.19-1.64-8.94-4.609-12.28C105.859,50.01,101.779,48.77,98.24,50.11z"/>
<path fill="#060805" d="M98.24,50.11c3.539-1.34,7.619-0.1,10.59,2c2.97,3.34,3.54,8.09,4.609,12.28
	c1.69,6.64-2.709,12.57-4.209,18.77c-0.58,4.3-0.82,8.85,0.629,13.01c2.861,7.41,0.721,15.8-3.08,22.45
	c-3.329,6.83-14.02,6.399-18.089,0.56c-2.29-2.83-2.62-6.649-2.61-10.149c-0.34-7.44,1.6-14.7,2.79-21.99
	c0.79-7.69-0.35-15.46,0.57-23.14C90.61,58.53,93.15,52.77,98.24,50.11 M96.48,56.99c4.12-0.15,8.18,0.57,12.07,1.88
	c0.431-5.11-5.319-7.28-9.47-6.11C97.85,53.9,97.32,55.58,96.48,56.99 M97.06,63.83c1.63,0.27,3.27,0.55,4.911,0.81
	c-0.271-2.28-0.681-4.54-1.271-6.76C99.39,59.8,98.18,61.79,97.06,63.83 M92.36,64.54c1.22-0.01,2.45-0.02,3.68-0.04
	c-0.02-1.96-0.03-3.92-0.08-5.89C94.02,60.11,92.52,62.02,92.36,64.54 M102.95,64.49c0.76,0,2.29,0,3.05,0
	c-0.46-1.95-0.91-3.91-1.45-5.84C103.95,60.57,103.46,62.53,102.95,64.49 M107.689,64.7c1.101-0.12,2.211-0.25,3.32-0.37
	c-0.65-1.39-1.3-2.79-1.96-4.17C108.59,61.67,108.13,63.18,107.689,64.7 M92.02,66.36c0,9.621,0.68,19.36-1.7,28.791
	c3.21,0.33,6.6,0.38,9.5,1.99c3.81,1.969,5.901,5.93,8.401,9.209c0.879-6.67-3.301-12.67-2.551-19.33c0.2-7.25,5.42-13.29,5.2-20.6
	C104.59,66.26,98.3,66.17,92.02,66.36 M90.03,97.09c-0.8,3.141-1.09,6.37-1.3,9.59c5.65,0.021,11.32,0.141,16.959-0.39
	c-1.739-2.81-3.52-5.82-6.54-7.41C96.46,97.04,93.12,97.22,90.03,97.09 M88.23,108.891c0.83,2.189,2.11,4.14,3.65,5.899
	c0.45-1.99,0.78-4.01,1.04-6.04C91.35,108.79,89.79,108.83,88.23,108.891 M94.5,108.73c0.17,1.399,0.34,2.8,0.51,4.199
	c0.66,0.061,1.97,0.18,2.63,0.24c-0.04-1.47-0.06-2.93-0.09-4.4C96.53,108.76,95.51,108.75,94.5,108.73 M99.45,108.71
	c-0.07,2.729,0.03,5.66,2.069,7.72c0.221-2.5,0.271-5,0.301-7.51C101.029,108.85,100.24,108.78,99.45,108.71 M103.359,108.43
	c0.17,2.32,0.541,4.68,1.98,6.58c0.939-2.17,1.74-4.4,2.391-6.67C106.27,108.359,104.82,108.391,103.359,108.43 M90.35,116.359
	c2.74,5.421,10.85,5.421,14.55,1.051c-2.83-0.09-5.601-0.68-8.17-1.91C94.63,114.22,92.41,115.83,90.35,116.359z"/>
<path fill="#FFFFFF" d="M96.48,56.99c0.84-1.41,1.37-3.09,2.6-4.23c4.15-1.17,9.9,1,9.47,6.11C104.66,57.56,100.6,56.84,96.48,56.99
	z"/>
<path fill="#9B9794" d="M56.45,58.66c7.57,1.32,15.1-0.44,22.63-1.08c-4.7,4.59-11.67,3.94-17.68,4.83
	c5.72,1.83,11.72,1.24,17.51,0.11c-1.78,1.39-3.36,3.58-5.83,3.66c-5.36,0.24-10.72-0.98-15.77-2.71
	C55.42,62.73,56.8,60.2,56.45,58.66z"/>
<path fill="#FFFFFF" d="M97.06,63.83c1.12-2.04,2.33-4.03,3.64-5.95c0.59,2.22,1,4.48,1.271,6.76
	C100.33,64.38,98.69,64.1,97.06,63.83z"/>
<path fill="#FFFFFF" d="M92.36,64.54c0.16-2.52,1.66-4.43,3.6-5.93c0.05,1.97,0.06,3.93,0.08,5.89
	C94.81,64.52,93.58,64.53,92.36,64.54z"/>
<path fill="#FEFEFE" d="M102.95,64.49c0.51-1.96,1-3.92,1.6-5.84c0.54,1.93,0.99,3.89,1.45,5.84
	C105.24,64.49,103.71,64.49,102.95,64.49z"/>
<path fill="#FEFEFE" d="M107.689,64.7c0.44-1.52,0.9-3.03,1.36-4.54c0.66,1.38,1.31,2.78,1.96,4.17
	C109.9,64.45,108.79,64.58,107.689,64.7z"/>
<path fill="#FFFFFF" d="M92.02,66.36c6.28-0.19,12.57-0.1,18.85,0.06c0.22,7.31-5,13.35-5.2,20.6c-0.75,6.66,3.43,12.66,2.551,19.33
	c-2.5-3.279-4.591-7.24-8.401-9.209c-2.9-1.61-6.29-1.66-9.5-1.99C92.7,85.72,92.02,75.98,92.02,66.36z"/>
<path fill="#9A9693" d="M55.71,68.07c7.61,0.94,15.26,1.49,22.94,1.28l-0.07,1.81c-6.23-0.04-12.47,0.38-18.68-0.21
	C57.97,71.02,56.97,69.2,55.71,68.07z"/>
<path fill="#C00205" d="M159.471,69.56c4.029-0.51,8.75,0.15,11.449,3.51c3.49,3.77,3.471,9.27,2.88,14.06
	c-0.72,4.22-3.399,8.67-7.92,9.49c-3.7,0.489-7.86,0.771-11.13-1.37c-3.42-2.23-5.13-6.3-5.67-10.21
	C149.16,78.59,151.7,69.91,159.471,69.56 M159.54,74.46c-3.28,0.93-4.61,4.45-4.74,7.55c-0.159,3.061,0.05,6.73,2.64,8.811
	c2.59,1.279,5.91,1.539,8.531,0.189c3.309-2.56,2.549-7.32,2.42-11C168.46,75.67,163.3,73.13,159.54,74.46z"/>
<path fill="#C00205" d="M128.77,69.91c1.4-0.11,2.801-0.22,4.201-0.33c0.319,7.37,0.199,14.75,0.01,22.12
	c4.609,0.01,9.22,0.11,13.83,0.35c0,1.601,0.01,3.21,0.02,4.82c-5.99,0-11.98,0.01-17.971-0.011
	C128.33,87.88,128.32,78.891,128.77,69.91z"/>
<path fill="#C00205" d="M178.45,96.87c-0.53-9.06-0.72-18.19,0.39-27.22c1.45,0.08,2.91,0.17,4.37,0.27
	c0.94,7.24,0.36,14.561,0.39,21.84c4.141-0.02,8.271,0.04,12.4,0.23c0,1.64,0,3.279,0.01,4.92
	C190.16,96.85,184.3,96.891,178.45,96.87z"/>
<path fill="#9C9895" d="M13.85,71.26c4.32,5.631,5.32,13.09,10.18,18.41c-1.23-4.99-2.37-10.109-1.78-15.29
	c2.8,4.71,3.11,10.31,5,15.37c2.32,6.5,5,12.88,8.07,19.061c1.09,2.489,3.53,3.84,5.86,4.97c7.26,3.38,13.18,9.329,20.93,11.68
	c5.97,0.26,11.94,0.771,17.67,2.58c-0.14-1.021-0.41-3.06-0.55-4.08c1.91,1.81,3.65,3.79,5.17,5.94
	c-5.85,0.319-11.6-0.78-17.32-1.84c4.29,3.129,9.7,3.209,14.78,3.5c-0.02,0.549-0.08,1.67-0.1,2.229
	c-3.82-0.04-7.67-0.16-11.37-1.149c-9.38-2.4-18.73-5.24-27.34-9.73c-5.83-2.93-10.18-8.03-13.75-13.37
	c-3.81-5.78-4.54-12.931-8-18.88C17.92,84.609,13.92,78.45,13.85,71.26 M29.24,102.87c0.19,3.1,1.41,6.01,3.98,7.87
	C32.7,107.77,31.53,104.91,29.24,102.87 M35.68,114.1c3.08,5.131,8.91,7.59,14.53,8.76C46.65,118.21,41.26,115.53,35.68,114.1z"/>
<path fill="#FFFFFF" d="M159.54,74.46c3.76-1.33,8.92,1.21,8.851,5.55c0.129,3.68,0.889,8.44-2.42,11
	c-2.621,1.35-5.941,1.09-8.531-0.189c-2.59-2.08-2.799-5.75-2.64-8.811C154.93,78.91,156.26,75.39,159.54,74.46z"/>
<path fill="#9B9794" d="M27.85,77.48c2.57,0.369,3.48,3,4.88,4.8c2.22,3.42,5.5,6.1,7.22,9.84c0.99,3.17,0.41,6.569,1.08,9.8
	c4.32,8.439,14.11,11.891,19.33,19.561c-6.43-3.17-11.5-8.371-16.62-13.25c-1.64-1.69-3.51-3.28-4.52-5.45
	c-0.82-3.72,0.27-7.87-1.83-11.28C34.54,86.6,29.86,82.91,27.85,77.48z"/>
<path fill="#9C9895" d="M49.47,88.41c10.14-2.85,19.8,4.41,24.76,12.72c-3.85-1.34-7.26-3.54-10.69-5.67
	c-3.13-2.05-6.98-1.771-10.54-2.12c2.1-1.47,4.66-1.76,7.13-2.05C56.71,89.85,52.69,90.33,49.47,88.41z"/>
<path fill="#9B9794" d="M55.43,97.141c2.83-0.201,5.98-0.75,8.54,0.859c4.86,3,9.3,6.77,12.91,11.22c-4.49-0.2-7.14-4.11-10.4-6.6
	C63.39,99.72,59.1,98.98,55.43,97.141z"/>
<path fill="#FFFFFF" d="M90.03,97.09c3.09,0.13,6.43-0.05,9.12,1.79c3.02,1.59,4.8,4.601,6.54,7.41
	c-5.64,0.53-11.31,0.41-16.959,0.39C88.94,103.46,89.23,100.23,90.03,97.09z"/>
<path fill="#FEFEFE" d="M29.24,102.87c2.29,2.04,3.46,4.899,3.98,7.87C30.65,108.88,29.43,105.97,29.24,102.87z"/>
<path fill="#FEFEFE" d="M88.23,108.891c1.56-0.061,3.12-0.101,4.69-0.141c-0.26,2.03-0.59,4.05-1.04,6.04
	C90.34,113.03,89.06,111.08,88.23,108.891z"/>
<path fill="#FFFFFF" d="M94.5,108.73c1.01,0.02,2.03,0.029,3.05,0.039c0.03,1.471,0.05,2.931,0.09,4.4
	c-0.66-0.061-1.97-0.18-2.63-0.24C94.84,111.53,94.67,110.13,94.5,108.73z"/>
<path fill="#FFFFFF" d="M99.45,108.71c0.79,0.07,1.579,0.14,2.37,0.21c-0.03,2.51-0.08,5.01-0.301,7.51
	C99.48,114.37,99.38,111.439,99.45,108.71z"/>
<path fill="#FFFFFF" d="M103.359,108.43c1.461-0.039,2.91-0.07,4.371-0.09c-0.65,2.27-1.451,4.5-2.391,6.67
	C103.9,113.109,103.529,110.75,103.359,108.43z"/>
<path fill="#FEFEFE" d="M35.68,114.1c5.58,1.431,10.97,4.11,14.53,8.76C44.59,121.689,38.76,119.23,35.68,114.1z"/>
<path fill="#FFFFFF" d="M90.35,116.359c2.06-0.529,4.28-2.14,6.38-0.859c2.57,1.23,5.34,1.82,8.17,1.91
	C101.2,121.78,93.09,121.78,90.35,116.359z"/>
</svg>
