<?xml version="1.0" encoding="utf-8"?>
<!-- Generator: Adobe Illustrator 15.0.2, SVG Export Plug-In . SVG Version: 6.00 Build 0)  -->
<!DOCTYPE svg PUBLIC "-//W3C//DTD SVG 1.1//EN" "http://www.w3.org/Graphics/SVG/1.1/DTD/svg11.dtd">
<svg version="1.1" id="Layer_1" xmlns="http://www.w3.org/2000/svg" xmlns:xlink="http://www.w3.org/1999/xlink" x="0px" y="0px"
	 width="218px" height="161px" viewBox="0 0 218 161" enable-background="new 0 0 218 161" xml:space="preserve">
<path fill="#FFFFFF" d="M0,0h218v161H0V0 M112.609,12.73c-1.409,0.87-2.739,1.87-4.089,2.83c-2.94,2.41-7.08,2.81-9.54,5.88
	c-0.32,1.41-0.61,2.91,0.87,3.78c1.41-0.75,2.24-2.229,3.35-3.33c-1.02,4.85-3.36,9.31-4.21,14.21c-0.79,4.44-2.75,8.88-6.31,11.76
	c-1.68,1.12-4.91,0.53-5.16,3.08c0.14,0.64,0.43,1.9,0.58,2.53c1.44,2.021,2.88,4.23,5.2,5.34c2.68,0.99,5.56,1.08,8.38,1.23
	c4.13,2.54,7.07,6.81,11.929,8.24c7.471,3.439,15.451,5.75,23.531,7.29c4.27,0.77,8.59,1.68,12.959,1.2
	c8.33-0.3,15.59-5.33,21.391-10.92c3.15,0.14,4.029,4.47,3.699,7.03c-2.06,5.59-7.039,9.28-11.539,12.86
	c-8.23,5.939-17.041,11.05-26.131,15.54c-2.609,1.229-5.359,2.12-7.91,3.479c-1.719,0.54-3.409,1.17-5.01,1.99
	c-1.729,0.53-3.47,1.09-4.99,2.08c-1.819,0.48-3.67,0.939-5.56,0.79c-11.73-0.31-23.45-0.75-35.18-0.63
	c-4.82-0.04-8.39-3.811-12.86-5c-3.58-1.061-7.22-2.01-10.98-2.11c-7.42-1.069-15.04-1.28-22.38,0.44
	c-2.28,0.64-4.36,1.85-6.03,3.529c-4.67,1.69-9.63,2.09-14.53,2.471c-1.77,0.46-6.38,1.06-3.78,3.64c3.6-0.12,7.1-1.3,10.73-1
	c9.28,0.3,18.94-0.99,27.85,2.12c0.8,4.3,3.01,8.17,3.75,12.49c1.63,6.92,5.14,15.01,12.72,16.899c7.99,1.841,16.23,1.9,24.23,3.74
	c1.6,0.84,3.3,1.479,5.01,2.05c1.59,0.84,3.28,1.471,5.01,2c1.56,0.87,3.25,1.5,4.98,1.99c9.32,3.939,19.34,6.05,29.311,7.6
	c10.359,0.28,20.74,0.11,31.109,0.01c7.69-0.109,14.83-3.229,21.891-5.92c1.32-0.459,2.33-1.459,2.32-2.92
	c-6.301,0.271-12.551-0.55-18.801-1.18c-3.9-0.52-4.77-4.9-7.859-6.6c-2.771-1.66-5.101-3.891-7.23-6.29
	c3.57-1.181,7.32-2.03,10.47-4.19c4.54-2.74,7.36-7.33,10.32-11.56c9.92,2.43,19.96,4.6,29.46,8.42c4.33,1.85,8.49,4.11,12.92,5.7
	c0.17-1.461-0.27-2.641-1.311-3.561c-4.299-3.64-10.77-4.15-14.449-8.529c-4.01-10.801-6.711-22.051-10.12-33.051
	c-3.81-9.58-10.011-17.939-14.771-27.02c1.041-5.58,4.17-10.72,4.311-16.52c0.71-10.85-1.6-23.17-10.53-30.33
	c-9.26-7.08-21.45-7.56-32.55-8.94C128.74,6.85,119.17,6.65,112.609,12.73z"/>
<path d="M112.609,12.73c6.561-6.08,16.131-5.88,24.471-5.36c11.1,1.38,23.29,1.86,32.55,8.94c8.931,7.16,11.24,19.48,10.53,30.33
	c-0.141,5.8-3.27,10.94-4.311,16.52c4.76,9.08,10.961,17.44,14.771,27.02c3.409,11,6.11,22.25,10.12,33.051
	c3.68,4.379,10.15,4.89,14.449,8.529c1.041,0.92,1.48,2.1,1.311,3.561c-4.43-1.59-8.59-3.851-12.92-5.7
	c-9.5-3.82-19.54-5.99-29.46-8.42c-2.96,4.229-5.78,8.819-10.32,11.56c-3.149,2.16-6.899,3.01-10.47,4.19
	c2.13,2.399,4.46,4.63,7.23,6.29c3.09,1.699,3.959,6.08,7.859,6.6c6.25,0.63,12.5,1.45,18.801,1.18c0.01,1.461-1,2.461-2.32,2.92
	c-7.061,2.69-14.2,5.811-21.891,5.92c-10.369,0.101-20.75,0.271-31.109-0.01c-9.971-1.55-19.99-3.66-29.311-7.6
	c-1.73-0.49-3.42-1.12-4.98-1.99c-1.73-0.529-3.42-1.16-5.01-2c-1.71-0.57-3.41-1.21-5.01-2.05c-8-1.84-16.24-1.899-24.23-3.74
	c-7.58-1.89-11.09-9.979-12.72-16.899c-0.74-4.32-2.95-8.19-3.75-12.49c-8.91-3.11-18.57-1.82-27.85-2.12
	c-3.63-0.3-7.13,0.88-10.73,1c-2.6-2.58,2.01-3.18,3.78-3.64c4.9-0.381,9.86-0.78,14.53-2.471c1.67-1.68,3.75-2.89,6.03-3.529
	c7.34-1.721,14.96-1.51,22.38-0.44c3.76,0.101,7.4,1.05,10.98,2.11c4.47,1.189,8.04,4.96,12.86,5c11.73-0.12,23.45,0.32,35.18,0.63
	c1.89,0.149,3.74-0.31,5.56-0.79c1.521-0.99,3.261-1.55,4.99-2.08c1.601-0.82,3.291-1.45,5.01-1.99
	c2.551-1.359,5.301-2.25,7.91-3.479c9.09-4.49,17.9-9.601,26.131-15.54c4.5-3.58,9.479-7.271,11.539-12.86
	c0.33-2.56-0.549-6.89-3.699-7.03c-5.801,5.59-13.061,10.62-21.391,10.92c-4.369,0.48-8.689-0.43-12.959-1.2
	c-8.08-1.54-16.061-3.85-23.531-7.29c-4.859-1.43-7.799-5.7-11.929-8.24c-2.82-0.15-5.7-0.24-8.38-1.23
	c-2.32-1.11-3.76-3.32-5.2-5.34c-0.15-0.63-0.44-1.89-0.58-2.53c0.25-2.55,3.48-1.96,5.16-3.08c3.56-2.88,5.52-7.32,6.31-11.76
	c0.85-4.9,3.19-9.36,4.21-14.21c-1.11,1.1-1.94,2.58-3.35,3.33c-1.48-0.87-1.19-2.37-0.87-3.78c2.46-3.07,6.6-3.47,9.54-5.88
	C109.87,14.6,111.2,13.6,112.609,12.73 M111.46,18.08c1.19,1.58,2.511,3.13,3.16,5.03c-1.92,2.75-4.149-1.97-6.25-1.05
	c-2.32,3.09-3.63,6.8-4.89,10.42c3.02,1.71,8.831,0.57,9.049,5.23c-1.729-0.11-3.459-0.47-5.199-0.37c-1.51,1.64-2.8,3.55-4.96,4.41
	c-0.86,2.42-3,6.21,0.03,7.92c6.12,2.71,13.04,2.34,19.59,2.68c7.609,0.43,15.24,0.34,22.85,0.49c9.24-9.02,18.32-18.28,28.75-25.96
	c-2.23-4.12-5.279-7.94-9.57-10.03c-12.299-6.5-26.629-6.07-40.129-5.77C118.99,11.5,114.79,14.67,111.46,18.08 M148.721,54.78
	c-2.781,2.25-1.791,7.06-5.48,8.41c-4.381,1.52-9.32,1.66-13.84,0.64c-4.19-1.56-6.541-6.09-10.94-7.26
	c-5.22-1.41-10.65-1.61-15.95-2.61c3.08,4.37,7.08,8.23,11.711,10.91c8.34,3.32,16.829,6.42,25.549,8.57
	c0.971-1.8,2.221-3.65,4.391-4.05c3.5-0.74,7.91-1.94,10.869,0.76c-3.279,2.42-7.6,1.21-11.189,2.81
	c3.79,1.61,8.301,1.63,11.96-0.33c5.53-2.79,10.431-6.73,14.82-11.07c4.17-4.08,5.62-10,6.47-15.58c0.35-5.12,0.46-10.7-1.9-15.38
	C165.17,37.19,156.82,46.01,148.721,54.78 M92.37,53.86c1.56,2.14,4.44,3.22,6.98,2.33c-0.19-0.77-0.57-2.32-0.76-3.09
	C96.57,53.11,93.94,52.17,92.37,53.86 M125.3,56.18c2.04,3.62,6.511,4.85,10.36,5.33c3.13-0.14,8.061-1.38,7.63-5.42
	C137.29,55.89,131.29,55.78,125.3,56.18 M179.061,75.09c-0.41,6.88-0.25,13.79-0.75,20.66c-0.641,5.22,0.039,10.55-1.051,15.73
	c-0.52,2.08-1.34,4.109-1.49,6.279c6.601,1.811,13.16,4.36,19.971,5.051c0.91-2.851-0.631-5.61-1.4-8.291
	c-3.23-8.939-4.79-18.42-8.75-27.1C183.8,83.12,181.34,79.14,179.061,75.09 M150.37,98.24c-3.13,2.109-6.54,3.74-9.87,5.49
	c-3.609,1.709-7.27,3.379-11.13,4.439c-1.11,0.54-2.19,1.13-3.25,1.77c11.08-0.229,21.96,2.301,32.81,4.32
	c3.19,0.85,6.711,0.96,9.57,2.771c0.529-0.101,1.6-0.311,2.13-0.41c3.38-3.261,4.46-8.14,4.649-12.67
	c0.381-7.98,0.15-15.98,0.211-23.96C168.43,87.67,159.391,93.17,150.37,98.24 M29.35,107.95c5.49,0.21,11.01-0.181,16.49,0.25
	c3.91,1.29,7.17,4.02,10.35,6.56c3.97,3.28,5.65,8.28,7.58,12.86c5.87-4.57,12.53-7.851,19.4-10.601
	c-3.02-2.729-7.09-3.689-10.49-5.81c-4.48-2.7-9.37-4.7-14.52-5.68C48.68,103.76,37.86,102.3,29.35,107.95 M83.03,111.9
	c2.17,1.81,4.23,4.08,7.09,4.76c5.48,0.529,12.05,1.25,15.87-3.66C98.31,113.21,90.68,112.38,83.03,111.9 M107.35,116.95
	c6.77,0.3,13.71-1.851,20.339,0.149c6.391,2.931,12.48,6.681,17.451,11.7c2.25,1.95,4.479,5.101,7.889,4.39
	c7.631-0.97,13.541-6.569,17.541-12.789c-12.711-3.061-25.51-6.25-38.62-6.801C123.65,112.65,114.7,112.311,107.35,116.95
	 M87.58,120.42c1.1,1,6.02-0.24,5.17,2.51c-2.87,2.33-6.9,1.76-10.34,1.67c3.35-0.619,6.74-1.01,10.06-1.8
	c-2.03-0.909-4.09-2.409-6.45-1.84c-6.68,0.74-12.63,4.09-18.03,7.899c9.31,0.021,18.88-0.409,27.86,2.541
	c4.09,1.3,7.66,3.72,11.17,6.109c0.23-2.729,0.39-5.46,0.37-8.199c-3.79-0.75-7.62-1.341-11.43-1.971c3.93-0.6,7.86,0.75,11.74,0.42
	c2.34-1.9,3.35-4.9,4.829-7.439C104.23,119.52,95.89,120.141,87.58,120.42 M123.98,122.641c3.76,2.67,7.779,5.59,9.319,10.17
	c-4.79,1.83-9.35,4.819-14.579,5.069c-1.921-2.5-3.781-6.78-7.361-6.64c-1.469,4.55,0.101,9.42-0.359,14.1
	c-2.39,0.93-3.11-2.46-4.66-3.59c-5.8-5.02-13.24-7.83-20.56-9.78c0.88,3.47,2.43,6.82,4.71,9.591c2.59,1.34,4.99,2.93,7.36,4.629
	c14.621,8.15,31.669,10.69,48.19,10.951c9.489,0.489,19.3,0.5,28.28-2.99c-2.891-0.551-5.971-0.5-8.7-1.711
	c-6.41-3.729-10.79-10-16.8-14.239c-2.09-1.63-4.83-0.71-7.221-0.72c-0.459-2.34,2.15-3.16,3.521-4.381
	c-5.46-4.899-11.54-9.22-18.11-12.49C126.25,121.12,124.73,122.13,123.98,122.641 M112.029,129.29c3.15,1.91,5.281,4.979,7.4,7.899
	c4.53-1.09,8.711-3.239,13.11-4.76c-2.99-4.97-7.7-9.22-13.47-10.5C114.939,121.6,113.52,126.32,112.029,129.29 M53.6,122.43
	c0.54,6.4,3.86,13.15,9.56,16.4c7.24,2.029,14.92,3.09,22.43,2.74c-1.34-3.311-2.88-6.53-4.49-9.721
	c-5.76-0.149-11.62,0.42-17.31-0.68c-3.5-0.76-3.74-4.89-5.66-7.27C57.01,122.561,55.13,122.77,53.6,122.43z"/>
<path fill="#FFFFFF" d="M111.46,18.08c3.33-3.41,7.53-6.58,12.431-7c13.5-0.3,27.83-0.73,40.129,5.77
	c4.291,2.09,7.34,5.91,9.57,10.03c-10.43,7.68-19.51,16.94-28.75,25.96c-7.609-0.15-15.24-0.06-22.85-0.49
	c-6.551-0.34-13.47,0.03-19.59-2.68c-3.03-1.71-0.89-5.5-0.03-7.92c2.16-0.86,3.45-2.77,4.96-4.41c1.74-0.1,3.47,0.26,5.199,0.37
	c-0.219-4.66-6.029-3.52-9.049-5.23c1.26-3.62,2.57-7.33,4.89-10.42c2.101-0.92,4.33,3.8,6.25,1.05
	C113.971,21.21,112.65,19.66,111.46,18.08 M118.09,28.4c3.79,2.48,8.65,0.87,12.92,1.33c7.03-0.65,12.641,4.29,19.12,5.95
	c0.39-0.15,1.149-0.45,1.53-0.6c-0.75-2.7-3.82-3.54-5.98-4.85C137.3,25.77,126.9,24.63,118.09,28.4 M123.52,36.33
	c0.351,2.68,0.051,6.45,3.061,7.69c0.811-1.24,1.27-2.78,2.47-3.72c3.931-0.78,8.06-0.04,11.9-1.37c-0.49-0.36-1.479-1.07-1.97-1.43
	C133.891,36.53,128.68,36.23,123.52,36.33z"/>
<path d="M118.09,28.4c8.811-3.77,19.21-2.63,27.59,1.83c2.16,1.31,5.23,2.15,5.98,4.85c-0.381,0.15-1.141,0.45-1.53,0.6
	c-6.479-1.66-12.09-6.6-19.12-5.95C126.74,29.27,121.88,30.88,118.09,28.4z"/>
<path fill="#FFFFFF" d="M148.721,54.78c8.1-8.771,16.449-17.59,26.469-24.18c2.36,4.68,2.25,10.26,1.9,15.38
	c-0.85,5.58-2.3,11.5-6.47,15.58c-4.39,4.34-9.29,8.28-14.82,11.07c-3.659,1.96-8.17,1.94-11.96,0.33
	c3.59-1.6,7.91-0.39,11.189-2.81c-2.959-2.7-7.369-1.5-10.869-0.76c-2.17,0.4-3.42,2.25-4.391,4.05
	c-8.72-2.15-17.209-5.25-25.549-8.57c-4.631-2.68-8.631-6.54-11.711-10.91c5.3,1,10.73,1.2,15.95,2.61
	c4.399,1.17,6.75,5.7,10.94,7.26c4.52,1.02,9.459,0.88,13.84-0.64C146.93,61.84,145.939,57.03,148.721,54.78z"/>
<path d="M123.52,36.33c5.16-0.1,10.371,0.2,15.461,1.17c0.49,0.36,1.479,1.07,1.97,1.43c-3.841,1.33-7.97,0.59-11.9,1.37
	c-1.2,0.94-1.659,2.48-2.47,3.72C123.57,42.78,123.87,39.01,123.52,36.33z"/>
<path fill="#FFFFFF" d="M92.37,53.86c1.57-1.69,4.2-0.75,6.22-0.76c0.19,0.77,0.57,2.32,0.76,3.09C96.81,57.08,93.93,56,92.37,53.86
	z"/>
<path fill="#FFFFFF" d="M125.3,56.18c5.99-0.4,11.99-0.29,17.99-0.09c0.431,4.04-4.5,5.28-7.63,5.42
	C131.811,61.03,127.34,59.8,125.3,56.18z"/>
<path fill="#FFFFFF" d="M179.061,75.09c2.279,4.05,4.739,8.03,6.529,12.33c3.96,8.68,5.52,18.16,8.75,27.1
	c0.77,2.681,2.311,5.44,1.4,8.291c-6.811-0.69-13.37-3.24-19.971-5.051c0.15-2.17,0.971-4.199,1.49-6.279
	c1.09-5.181,0.41-10.511,1.051-15.73C178.811,88.88,178.65,81.97,179.061,75.09z"/>
<path fill="#FFFFFF" d="M150.37,98.24c9.021-5.07,18.06-10.57,25.12-18.25c-0.061,7.979,0.17,15.979-0.211,23.96
	c-0.189,4.53-1.27,9.409-4.649,12.67c-0.53,0.1-1.601,0.31-2.13,0.41c-2.859-1.811-6.38-1.921-9.57-2.771
	c-10.85-2.02-21.729-4.55-32.81-4.32c1.06-0.64,2.14-1.229,3.25-1.77c3.86-1.061,7.521-2.73,11.13-4.439
	C143.83,101.98,147.24,100.35,150.37,98.24z"/>
<path fill="#FFFFFF" d="M29.35,107.95c8.51-5.65,19.33-4.19,28.81-2.42c5.15,0.979,10.04,2.979,14.52,5.68
	c3.4,2.12,7.47,3.08,10.49,5.81c-6.87,2.75-13.53,6.03-19.4,10.601c-1.93-4.58-3.61-9.58-7.58-12.86
	c-3.18-2.54-6.44-5.27-10.35-6.56C40.36,107.77,34.84,108.16,29.35,107.95z"/>
<path fill="#FFFFFF" d="M83.03,111.9c7.65,0.479,15.28,1.31,22.96,1.1c-3.82,4.91-10.39,4.189-15.87,3.66
	C87.26,115.98,85.2,113.71,83.03,111.9z"/>
<path fill="#FFFFFF" d="M107.35,116.95c7.35-4.64,16.3-4.3,24.6-3.351c13.11,0.551,25.909,3.74,38.62,6.801
	c-4,6.22-9.91,11.819-17.541,12.789c-3.409,0.711-5.639-2.439-7.889-4.39c-4.971-5.02-11.061-8.77-17.451-11.7
	C121.061,115.1,114.12,117.25,107.35,116.95z"/>
<path fill="#FFFFFF" d="M87.58,120.42c8.31-0.279,16.65-0.9,24.949-0.1c-1.479,2.539-2.489,5.539-4.829,7.439
	c-3.88,0.33-7.81-1.02-11.74-0.42c3.81,0.63,7.64,1.221,11.43,1.971c0.02,2.739-0.14,5.47-0.37,8.199
	c-3.51-2.39-7.08-4.81-11.17-6.109c-8.98-2.95-18.55-2.521-27.86-2.541c5.4-3.81,11.35-7.159,18.03-7.899
	c2.36-0.569,4.42,0.931,6.45,1.84c-3.32,0.79-6.71,1.181-10.06,1.8c3.44,0.09,7.47,0.66,10.34-1.67
	C93.6,120.18,88.68,121.42,87.58,120.42 M97.2,125.59c2.43,0.311,4.98,0.54,7.3-0.43C102.09,124.52,99.49,124.49,97.2,125.59z"/>
<path fill="#FFFFFF" d="M123.98,122.641c0.75-0.511,2.27-1.521,3.029-2.031c6.57,3.271,12.65,7.591,18.11,12.49
	c-1.37,1.221-3.979,2.041-3.521,4.381c2.391,0.01,5.131-0.91,7.221,0.72c6.01,4.239,10.39,10.51,16.8,14.239
	c2.729,1.211,5.81,1.16,8.7,1.711c-8.98,3.49-18.791,3.479-28.28,2.99c-16.521-0.261-33.569-2.801-48.19-10.951
	c-2.37-1.699-4.77-3.289-7.36-4.629c-2.28-2.771-3.83-6.121-4.71-9.591c7.32,1.95,14.76,4.761,20.56,9.78
	c1.55,1.13,2.27,4.52,4.66,3.59c0.46-4.68-1.109-9.55,0.359-14.1c3.58-0.141,5.44,4.14,7.361,6.64
	c5.229-0.25,9.789-3.239,14.579-5.069C131.76,128.23,127.74,125.311,123.98,122.641 M124.77,143.9
	c4.541-0.431,9.061-1.971,12.431-5.141C133.061,140.47,129.09,142.59,124.77,143.9 M128.609,146.939
	c-1.1,0.091-2.209,0.17-3.31,0.261c0.21,0.38,0.65,1.13,0.87,1.5c4.88-1.4,8.971-4.57,13.49-6.78
	C135.55,142.38,132.279,145.27,128.609,146.939 M130.62,150.4c-0.32-0.381-0.97-1.141-1.3-1.521c-0.48,1.09-0.971,2.19-1.44,3.29
	c5.011-0.92,9.87-2.64,14.39-5c2.371-1.29,4.99-2.609,6.131-5.24C143.32,146.13,137.109,149.22,130.62,150.4 M138.189,153.561
	c3,0.89,5.84-0.791,8.631-1.65c3.05-1.32,6.41-2.391,8.65-4.98C149.87,149.52,144.37,152.59,138.189,153.561z"/>
<path fill="#FFFFFF" d="M112.029,129.29c1.49-2.97,2.91-7.69,7.041-7.36c5.77,1.28,10.479,5.53,13.47,10.5
	c-4.399,1.521-8.58,3.67-13.11,4.76C117.311,134.27,115.18,131.2,112.029,129.29z"/>
<path fill="#FFFFFF" d="M53.6,122.43c1.53,0.34,3.41,0.131,4.53,1.471c1.92,2.38,2.16,6.51,5.66,7.27
	c5.69,1.1,11.55,0.53,17.31,0.68c1.61,3.19,3.15,6.41,4.49,9.721c-7.51,0.35-15.19-0.711-22.43-2.74
	C57.46,135.58,54.14,128.83,53.6,122.43z"/>
<path d="M97.2,125.59c2.29-1.1,4.89-1.07,7.3-0.43C102.18,126.13,99.63,125.9,97.2,125.59z"/>
<path d="M124.77,143.9c4.32-1.311,8.291-3.431,12.431-5.141C133.83,141.93,129.311,143.47,124.77,143.9z"/>
<path d="M128.609,146.939c3.67-1.67,6.94-4.56,11.051-5.02c-4.52,2.21-8.61,5.38-13.49,6.78c-0.22-0.37-0.66-1.12-0.87-1.5
	C126.4,147.109,127.51,147.03,128.609,146.939z"/>
<path d="M130.62,150.4c6.489-1.181,12.7-4.271,17.78-8.471c-1.141,2.631-3.76,3.95-6.131,5.24c-4.52,2.36-9.379,4.08-14.39,5
	c0.47-1.1,0.96-2.2,1.44-3.29C129.65,149.26,130.3,150.02,130.62,150.4z"/>
<path d="M138.189,153.561c6.181-0.971,11.681-4.041,17.281-6.631c-2.24,2.59-5.601,3.66-8.65,4.98
	C144.029,152.77,141.189,154.45,138.189,153.561z"/>
</svg>
