<?xml version="1.0" encoding="utf-8"?>
<!-- Generator: Adobe Illustrator 15.0.2, SVG Export Plug-In . SVG Version: 6.00 Build 0)  -->
<!DOCTYPE svg PUBLIC "-//W3C//DTD SVG 1.1//EN" "http://www.w3.org/Graphics/SVG/1.1/DTD/svg11.dtd">
<svg version="1.1" id="Layer_1" xmlns="http://www.w3.org/2000/svg" xmlns:xlink="http://www.w3.org/1999/xlink" x="0px" y="0px"
	 width="162px" height="200px" viewBox="0 0 162 200" enable-background="new 0 0 162 200" xml:space="preserve">
<path fill="#FFFFFF" d="M0,0h162v200H0V0 M67.11,3.57c-6.93,0.07-12.21,5.08-18.7,6.81c-4.12,1.67-7.88,4.06-11.86,6.02
	c-5.2,2.55-8.18,7.86-10.53,12.91c-3.2,5.23-7.51,9.65-11.43,14.33c-0.82,2.21-1.37,4.5-1.84,6.8c-1.5,2.99-2.02,6.39-4.04,9.16
	c-0.5,0.96-1.02,1.92-1.53,2.88c-0.3,5.95-3.07,11.54-2.73,17.55C4.4,83.71,5.41,87.3,5.47,90.97c0.15,3.55,0.09,7.33,1.97,10.48
	c2.17,3.979,3.27,8.39,4.44,12.729c2.13,5.4,6.33,9.66,8.68,14.961c4.18,3.209,7.8,7.1,12.02,10.26c2.99,2.35,5.26,5.479,8.28,7.779
	c2.39,1.69,4.94,3.141,7.49,4.561c3.19,1.26,6.19,2.939,9.17,4.64c4.01,1.101,8.4,1.24,12.01,3.55c3.12,0.351,6.29,0.141,9.4,0.54
	c4.91,1.39,10.06,0.55,15.089,0.79c5.36,0.33,10.16-2.439,15.021-4.24c4-1.5,7.601-3.819,11.38-5.739c1.08-0.45,2.141-0.921,3.2-1.4
	c5.03-3.771,10.11-7.53,14.26-12.29c0.25,1.301,0.54,2.6,0.851,3.9c0.72,6.68,2.17,13.26,2.72,19.96
	c0.489,0.25,1.479,0.76,1.979,1.02c-1.1-9.069-2.81-18.05-3.729-27.14c2.37-2.721,4.11-5.891,5.94-8.971
	c-0.201-0.84-0.381-1.68-0.521-2.52c0.36,0.4,1.09,1.2,1.45,1.6c1.63-3.319,3.729-6.379,5.529-9.59
	c1.551-3.66,2.381-7.55,3.61-11.31c2.24-6.05,2.021-12.67,4.431-18.65c0.049-6.1,1.379-12.65-1.49-18.33
	c-0.28-0.49-0.84-1.47-1.121-1.96c-0.76-6.32-3.299-12.24-5.85-18.02c-0.74-2.97-2.479-5.51-3.869-8.19
	c-4.58-5.18-8.521-10.9-13.131-16.06c-5.279-3.79-10.34-8.05-14.359-13.18C115.51,7.5,109.77,7,105.18,3.86
	c-4.06-2.9-9.209-3.14-14-2.63C83.08,0.14,74.97,1.67,67.11,3.57 M0.98,170.98c-0.24,9.35-0.27,18.729,0.09,28.08
	c1.66-0.041,3.32-0.091,4.98-0.15c0.09-7.98-0.16-15.971,0.14-23.94c3.29,7.49,7.21,14.681,10.91,21.96
	c1.27,3.08,5.06,2.391,7.65,1.771c0.7-2.17,0.41-4.48,0.48-6.71c-0.08-7.641,0.13-15.29-0.11-22.93c-1.62,0.01-3.24-0.03-4.84,0.209
	c-0.6,7.03,0.17,14.11-0.46,21.141c-3.86-7.141-6.94-14.801-11.7-21.391C5.83,169.46,1.53,167.72,0.98,170.98 M39.36,169.51
	c-8.43,2.9-9.81,13.381-7.99,20.95c0.95,4.24,4.28,7.979,8.7,8.601c4.59,0.459,9.84,0.81,13.67-2.25
	c4.9-3.99,5.76-11.011,5.02-16.91c-0.85-3.74-2.29-8.01-6.07-9.7C48.6,168.2,43.64,167.97,39.36,169.51 M63.95,193.641
	c0.01,1.5,0.02,3.01,0.02,4.51c1.62,0.709,3.38,1.209,5.16,0.869c0.77-0.979,1.38-2.09,2.05-3.14c-0.88-1.319-1.38-3.649-3.35-3.6
	C66.36,192.05,65.14,192.939,63.95,193.641z"/>
<path fill="#040404" d="M67.11,3.57c7.86-1.9,15.97-3.43,24.07-2.34c4.791-0.51,9.94-0.27,14,2.63c4.59,3.14,10.33,3.64,15.141,6.29
	c4.02,5.13,9.08,9.39,14.359,13.18c4.61,5.16,8.551,10.88,13.131,16.06c1.39,2.68,3.129,5.22,3.869,8.19
	c2.551,5.78,5.09,11.7,5.85,18.02c0.281,0.49,0.841,1.47,1.121,1.96c2.869,5.68,1.539,12.23,1.49,18.33
	c-2.41,5.98-2.19,12.6-4.431,18.65c-1.229,3.76-2.06,7.649-3.61,11.31c-1.8,3.211-3.899,6.271-5.529,9.59
	c-0.36-0.399-1.09-1.199-1.45-1.6c0.14,0.84,0.319,1.68,0.521,2.52c-1.83,3.08-3.57,6.25-5.94,8.971
	c0.92,9.09,2.63,18.07,3.729,27.14c-0.5-0.26-1.49-0.77-1.979-1.02c-0.55-6.7-2-13.28-2.72-19.96c-0.311-1.301-0.601-2.6-0.851-3.9
	c-4.149,4.76-9.229,8.52-14.26,12.29c-1.06,0.479-2.12,0.95-3.2,1.4c-3.779,1.92-7.38,4.239-11.38,5.739
	c-4.86,1.801-9.66,4.57-15.021,4.24c-5.029-0.24-10.18,0.6-15.089-0.79c-3.11-0.399-6.28-0.189-9.4-0.54
	c-3.61-2.31-8-2.449-12.01-3.55c-2.98-1.7-5.98-3.38-9.17-4.64c-2.55-1.42-5.1-2.87-7.49-4.561c-3.02-2.3-5.29-5.43-8.28-7.779
	c-4.22-3.16-7.84-7.051-12.02-10.26c-2.35-5.301-6.55-9.561-8.68-14.961c-1.17-4.34-2.27-8.75-4.44-12.729
	c-1.88-3.15-1.82-6.93-1.97-10.48C5.41,87.3,4.4,83.71,4.45,80.03c-0.34-6.01,2.43-11.6,2.73-17.55c0.51-0.96,1.03-1.92,1.53-2.88
	c2.02-2.77,2.54-6.17,4.04-9.16c0.47-2.3,1.02-4.59,1.84-6.8c3.92-4.68,8.23-9.1,11.43-14.33c2.35-5.05,5.33-10.36,10.53-12.91
	c3.98-1.96,7.74-4.35,11.86-6.02C54.9,8.65,60.18,3.64,67.11,3.57 M74.94,3.11c-0.11,0.47-0.33,1.4-0.44,1.87
	c-6.98,0.46-13.8,2.35-20.14,5.28c-6.67,2.72-14.29,5.1-18.63,11.23c-0.35-0.55-0.71-1.09-1.06-1.64c-0.34,1.13-0.72,2.25-1.14,3.35
	c-1.73,2.74-5.89,4.8-4.71,8.59c0.71-0.15,2.11-0.43,2.82-0.57c-0.57,0.49-1.71,1.47-2.28,1.96c0.08,1.32,0.14,2.63,0.26,3.94
	c0.76-1.06,1.5-2.13,2.23-3.21c-0.06,1.48-0.11,2.95-0.15,4.43c2.01-0.48,4.1-2.07,6.2-1.02c2.14,0.86,4.28,1.73,6.4,2.67
	c-4.44-0.82-9.48-3.11-13.54,0.16c0.09-0.83,0.26-2.48,0.35-3.31c-1.28,1.04-3.22,1.47-3.97,3.05c-0.02,1.37,0.01,2.73,0.1,4.1
	c1.57,0.69,3.23,1.17,4.94,1.41l-0.21-0.89c-0.74-0.42-2.22-1.27-2.96-1.7c3.55-0.32,5.86,2.64,8.16,4.8
	c-0.73-0.01-2.19-0.02-2.92-0.03l1.2-1.64c-2.8-0.69-5.75-0.05-8.51-0.86c-0.65,1.03-1.34,2.03-2.05,3.02
	c0.07-1.54,0.95-2.7,1.97-3.76c-0.8-1.17-1.53-2.38-2.27-3.59c0.12,1.34,0.19,2.69,0.26,4.03l-2.22-1.35l0.91,1.74
	c-0.6,0.12-1.8,0.36-2.39,0.47c0.22-1.04,0.66-3.13,0.89-4.18c-2.12,3.31-3.23,7.34-4.52,11.12c-0.51-0.04-1.51-0.12-2.01-0.17
	c0.43,0.3,1.28,0.89,1.71,1.18c-0.62,1.29-1.2,2.6-1.73,3.92c-0.46,1.57-0.76,3.18-1.24,4.75c-3.59-0.41-2.92,3.93-2.92,6.24
	l-0.86-0.14c0.02,0.96,0.06,2.89,0.08,3.86c0.52-0.52,1.56-1.55,2.08-2.07c-0.42,2.75-0.05,5.58-0.63,8.31l-2.61,0.21l1.04,1.96
	c-1.1-0.42-2.19-0.85-3.26-1.34c0.14-1.95,0.21-3.9,0.22-5.85c-1.71,3.25-1,6.96-0.4,10.4l0.36-1.23l-0.11-2.6
	c0.64,0.38,1.94,1.13,2.58,1.5c-0.19,0.89-0.57,2.67-0.76,3.56c0.76-1.06,1.57-2.06,2.45-3.01c-0.4,2.54-1.74,5.02-0.94,7.63
	c0.23-0.49,0.71-1.46,0.94-1.95c1.31-0.08,2.62-0.2,3.92-0.35c0.82,0.08,2.47,0.23,3.3,0.3c-1.15,0.42-2.31,0.82-3.48,1.19
	c0.01,2.65,0.01,5.3-0.03,7.94c2.01,1.06,4.02,2.1,6.04,3.14c-1.34,0.14-2.68,0.32-4.01,0.51c1.2,0.271,2.44,0.101,3.65,0.171
	c2.67,2.079,4.86,4.739,6.64,7.6c1.14,2.939,2.99,5.5,4.6,8.18c-0.28-1.54-0.99-2.95-1.59-4.38c1.27-0.32,1.87-1.19,1.8-2.601
	c0.88-1.27,1.64-2.619,2.39-3.97c0.28,0.45,0.85,1.341,1.13,1.79c1.58-3.65,0.74-7.59-0.25-11.26l-0.41-0.03
	c-0.36,1.67-0.76,3.33-1.15,5c-1.35-1.2-0.74-2.92-0.77-4.42c0.27-0.62,0.8-1.87,1.07-2.49c-0.59,0.41-1.79,1.24-2.39,1.65
	c-0.29-0.58-0.88-1.72-1.18-2.3c-1.37,0.25-3.33,1.34-4.16-0.49c-3.38,0.69-1.26-3.15-3.69-3.9c0.67-0.48,1.35-0.95,2.02-1.43
	c0.85,4.75,7.55,4.99,10.72,2.51c-2.13-0.09-4.26-0.03-6.39,0.13c-0.28-0.41-0.84-1.24-1.12-1.66c2.69,0.41,5.59,0.85,8.25,0.02
	c1.01-1.52,1.45-3.33,2.09-5.02c0.21-0.73,0.64-2.2,0.85-2.93c-1.4-0.77-2.74-2.67-4.51-1.65c-1.1,0.79-2.16,0.25-2.97-0.63
	c-1.67-0.43-3.33-0.85-4.99-1.31c-0.6,0.19-1.79,0.58-2.39,0.77c0.19,1.78,0.4,3.55,0.65,5.33c-0.57,0.19-1.13,0.38-1.69,0.57
	c1.47,2.05-0.79,3.09-1.78,4.36c0.8,2.09,1.93,4.02,3.42,5.71l-3.98-1.21c1.2,0.53,2.4,1.04,3.61,1.54l-1.26,1.39
	c-3.4-1.93-2.31-5.64-3.58-8.59c0.89-0.42,1.77-0.86,2.65-1.29l-2.38,0.75c0.34-2.26,0.57-4.52,0.76-6.79l-1.55-0.23
	c0.2,1.12,0.59,3.37,0.78,4.49c-0.36,0.64-0.73,1.27-1.13,1.89c-0.39-2.85-2.04-6.1-0.15-8.73c-0.65,0.16-1.95,0.49-2.6,0.66
	c0.27,1.09,0.82,3.26,1.09,4.35c-1.58-1.59-2.08-3.74-2.58-5.83c0.06-1.57,0.09-3.13,0.1-4.69c-0.75-1.16-1.57-2.28-2.59-3.22
	c0.57,0.08,1.72,0.24,2.3,0.32c0.61-3.63,4.22-5.7,5.26-9.23c-0.17,1.45-0.74,2.9-0.33,4.37c-0.75,0.479-1.49,0.97-2.22,1.47
	c-0.78,2.26-1.08,4.6-0.82,6.98c2.51,2,4.96,5.05,8.53,4.45c3.17-0.15,6.23,1.23,9.41,0.77c3.73,0.85,6.19,4.61,10.21,4.3
	c-0.15-3.8-0.15-7.6-0.1-11.4c-0.46-0.58-1.4-1.72-1.86-2.3c0.98-0.47,1.95-0.96,2.92-1.46c-0.65-0.14-1.96-0.41-2.62-0.55
	c-0.01-0.8-0.03-2.39-0.04-3.19c0.59,0.21,1.77,0.64,2.36,0.85c-0.29-0.65-0.86-1.96-1.14-2.61c-1.36,1.51-2.95,2.1-4.69,0.89
	c2.47,0.3,4.44-1.18,6.38-2.47c-0.52-0.34-1.56-1.02-2.08-1.36c0.62,0.13,1.85,0.4,2.47,0.54c0.27-2.14,0.78-4.4,3.02-5.28
	c-0.64,1.4-1.35,2.78-1.98,4.2c-0.54,1.14-1.06,2.3-1.46,3.51c-0.36,6.25-0.09,12.54,0.43,18.77c2.04,2.17,4.92,2.61,7.6,1.41
	c-1.46,2.5-5.7,0.71-8.27,1.25c0,1.38-0.01,2.76-0.02,4.14c1.23,0.69,2.47,1.4,3.67,2.14c-2.08-0.46-4.25-0.84-5.86-2.39
	c0.61,3.17-3.83,5.87-0.86,8.64c-0.84,0.07-1.67,0.13-2.51,0.19l-0.01,0.9c0.5-0.24,1.51-0.71,2.01-0.94
	c0.02,1.45,0.04,2.91,0.06,4.37c0.58,1.049,1.13,2.11,1.67,3.18l0.7-0.69c-0.55,3.25-0.71,6.54-0.89,9.83l1.27-1.09
	c-0.09,3.271-0.1,6.55-0.18,9.83c2.3,0.54,4.7,0.229,5.75-2.15c1.2-4.28,3.8-8.03,4.46-12.479c0.96-0.44,1.92-0.87,2.89-1.311
	c0.07,0.93,0.22,2.79,0.3,3.721c-0.81,0.18-1.61,0.359-2.41,0.539c0.1,1.11,0.31,3.33,0.41,4.44c1.88-0.89,3.91-1.34,5.92-1.76
	c-1.19-0.521-2.37-1.08-3.54-1.66c1.17,0.2,3.51,0.61,4.68,0.82l-0.73-1.021c0.5-1.79,0.71-3.64,1.01-5.47
	c1.65-0.42,3.35-0.62,4.99-1.09c-1.74,0.02-3.47,0.37-5.21,0.3c-1.82-1.35-3.93-2.02-6.19-1.55c0.21-0.72,0.63-2.18,0.84-2.9
	c0.25,0.38,0.75,1.13,1.01,1.511c2.47-0.051,5.19-0.621,7.08,1.439c0.51-0.311,1.54-0.939,2.05-1.25l0.2,1.72
	c0.52-0.1,1.56-0.3,2.09-0.399l-1.5,1.74c2.48,0.629,5.24,0.979,6.88,3.189c2.3,1.68,4.62,3.37,7.179,4.66
	c-0.049,0.46-0.159,1.39-0.219,1.859c1.26,1.61,2.469,3.24,3.739,4.84c0.33,1.48,0.74,2.94,1.261,4.36
	c-0.121,0.65-0.36,1.931-0.471,2.57c0.71,1.05,1.391,2.13,2.02,3.229c-3.569-1.779-3.029-5.8-3.469-9.129
	c-0.351-0.07-1.051-0.211-1.4-0.271c-0.4-2.681-2.23-4.59-3.87-6.58c-1.76-1-3.48-2.101-4.92-3.55c-1.86-0.36-3.75-0.53-5.63-0.631
	c-0.83-0.869-1.69-1.709-2.54-2.549c0.05,0.699,0.17,2.09,0.22,2.779c-0.87,0.28-2.63,0.85-3.5,1.13
	c0.32-0.689,0.96-2.05,1.27-2.729L64.45,107c-0.34,0.74-1.02,2.2-1.35,2.93c0.43,0.37,1.29,1.101,1.72,1.471
	c3.01-0.311,6.04-0.65,9.04-0.021c1.92,4.09,6.44,6.71,6.92,11.511c0.12,4.789,3.14,9.06,2.21,13.969
	c-0.58-1.43-1.09-2.899-1.65-4.34c-0.54-1.709-1.16-3.379-1.75-5.069c-0.89-2.58-0.19-5.71-2.2-7.841
	c-1.68-1.819-2.94-3.959-4.53-5.84c-2.53-2.3-5.94-0.739-8.93-0.8c-3.46,0.011-6.24,2.37-9.42,3.38c0.1-0.939,0.29-2.84,0.38-3.779
	c-0.51,1.35-0.76,2.779-1.07,4.199l-0.73-0.8c-0.97,2.97-2.25,6.101-0.94,9.23l-2.6-3.12c0.38,0.939,1.14,2.83,1.52,3.779
	l-2.34-0.619c0.51,0.359,1.51,1.07,2.01,1.42c0.02,0.76,0.05,2.26,0.06,3.01c-1.18-0.99-2.28-2.109-2.59-3.689
	c-1.53-1.121-3.22-1.99-5-2.65c-1.2-1.85-1.33-4.03-1.45-6.17c-1.54-0.38-3.1-0.73-4.66-1.02c-0.84,2.899,0,5.709,1.1,8.409
	c2.99,2.25,2.67,6.47,5.47,8.86c2.26,2,3.24,4.87,4.09,7.66c-0.4,2.49,0.33,4.92,0.72,7.35c-1.32-2.29-1.22-5.01-1.93-7.49
	c-1.88-3.76-6.19-6.35-6.99-10.67c-2.13-3.479-4.83-7.08-4.62-11.35c-0.14-1.54,0.67-3.16,1.96-3.971
	c1.98-0.25,3.95,0.181,5.92,0.351c-1.02-1.71-2.12-3.37-3.13-5.08c-0.91-1.06-1.77-2.16-2.62-3.271c0.17,0.521,0.5,1.541,0.66,2.061
	l-1.37-0.02c-0.54,3.25-3.71,5.58-3.12,9.069c0.52,5.62,2.08,11.14,3.33,16.65c-0.07,0.21-0.21,0.62-0.28,0.819
	c1.95,2.221,4.01,4.371,5.54,6.91c1.28,1.461-0.29,3.75,1.51,5.061c-0.12-1.021-0.36-3.07-0.48-4.09
	c1.17,1.779,2.38,3.529,3.48,5.359c0.5,0.28,1.52,0.84,2.03,1.12c0.75-0.319,2.25-0.95,3-1.26l-1.33,2.04
	c2.97,1.37,6.18,2.23,9,3.93c3.46,0.79,6.85,1.86,10.17,3.12c4.15,1.38,8.62,0.229,12.761,1.66
	c7.629,0.521,15.439,0.11,22.719-2.431c6.24-3.209,12.701-6.069,18.721-9.67c2.4-1.47,4.41-3.47,6.74-5.05
	c2.64-1.78,3.789-4.97,6.39-6.81c2.58-3.221,4.729-6.74,6.36-10.54c0.979-2.71,3.66-4.229,4.879-6.78
	c1.381-2.48,2.471-5.1,3.601-7.689c0.36-1.62,0.79-3.23,1.32-4.811c0.55-1.42,1.11-2.82,1.7-4.22c0.289-1.34,0.64-2.67,1.05-3.98
	c0.11-2.08-0.2-4.26,0.729-6.21c2.35-6.26,1.19-13.05,0.721-19.53c0.129-0.23,0.39-0.7,0.52-0.93c-2.57-5.8-3.67-12.29-6.01-18.27
	c-1.221-2.53-1.85-5.3-3.01-7.86c-2.9-4.94-6.271-9.56-10.23-13.7c-2.62-2.75-4.42-6.33-7.68-8.41c-4.36-3.04-7.94-7-11.92-10.49
	c-1.69-0.88-3.34-1.86-5.17-2.44c-1.021-0.43-2.021-0.89-3.021-1.38c-0.25,0-0.771,0.01-1.03,0.01c-4.779-2.26-9.83-6.01-15.34-4.57
	c-3.67-1.04-7.31,1.18-10.98,0.11c-2.889-0.81-5.509,1.19-8.25,1.71l0.82-2.15C75.44,3.24,75.11,3.15,74.94,3.11 M31.18,23.19
	C31.86,23.88,31.86,23.88,31.18,23.19 M26.3,33.61c1.22,0.16,2.33-1.81,1.71-2.85C26.7,30.47,25.73,32.58,26.3,33.61 M26.59,37.85
	c1.43,0.41,1.97-0.07,1.64-1.43C26.82,36.02,26.28,36.49,26.59,37.85 M20.02,40.19C18.64,43.36,23.32,40.08,20.02,40.19 M7.23,71.24
	C7.78,71.84,7.78,71.84,7.23,71.24 M158.2,73.26C156.359,75.99,161.471,73.78,158.2,73.26 M42.85,82.33
	C43.59,82.94,43.59,82.94,42.85,82.33 M10.88,94.93c-1.21,0.91-2.4,1.86-3.41,2.98l3.38-1.68c-0.43,1.27-1.28,3.82-1.71,5.09
	c0.34-0.04,1.02-0.12,1.36-0.15c0.02,0.7,0.07,2.1,0.09,2.8c2.19,0.79,1.52,3.351,2.04,5.14l0.36-0.319
	c-0.19-2.28,0.19-4.86-1.32-6.78c0.61-4.47-1.38-9.28,0.7-13.44C9.48,89.69,10.44,92.71,10.88,94.93 M8.19,93.24
	C8.86,93.79,8.86,93.79,8.19,93.24 M13.84,99.55c0.07,4.48,0.43,8.98,1.24,13.39c-0.46-0.439-1.38-1.319-1.84-1.76
	c1,2.62,2.2,5.23,3.59,7.69c-0.3-1.61-0.99-3.11-1.24-4.72C16.54,109.311,16.25,103.95,13.84,99.55 M41.86,103.21
	c-0.03,2.5-1.09,5.57,1.19,7.47C43.33,108.141,44.12,105.109,41.86,103.21 M17.3,109.3c-0.12,2.091-0.09,4.19-0.07,6.28
	c1.07,1.85,1.7,3.91,1.08,6.029c0.36,0.69,1.08,2.07,1.44,2.761C19.89,119.27,19.51,113.98,17.3,109.3 M24.2,112.359
	c-0.86,1.24-0.65,2.011,0.62,2.32C25.68,113.439,25.47,112.67,24.2,112.359 M23.54,116.2c-0.36,1.819-0.67,3.659-0.92,5.5
	c-0.68-1.81-1.12-3.71-1.96-5.47c-0.4,3-0.01,6,0.19,8.989c1.04,0.98,2.08,1.96,3.1,2.97c0.93,2.061,3.15,3,4.55,4.69l0.87-2.68
	c-0.32,3,1.26,5.53,3.94,6.62c0.5,0.92,1.01,1.84,1.53,2.76c0.07-0.51,0.19-1.52,0.25-2.03c-0.96-0.739-1.89-1.5-2.8-2.29
	c0.36-0.67,1.08-1.99,1.44-2.66c-0.7,0.49-2.11,1.461-2.82,1.95c-0.74-3.89-1.84-7.96-1-11.899c-0.37-0.391-1.13-1.17-1.5-1.551
	c-0.47,0.57-0.94,1.16-1.41,1.74c0-1.77-0.07-3.55-0.21-5.31c-0.58,3.409-2.3,6.489-2.77,9.92
	C21.93,123.96,24.74,119.95,23.54,116.2 M36.09,139.63C34.58,142.62,39.36,139.78,36.09,139.63z"/>
<path fill="#FFFFFF" d="M74.94,3.11c0.17,0.04,0.5,0.13,0.66,0.17l-0.82,2.15c2.74-0.52,5.36-2.52,8.25-1.71
	C86.7,4.79,90.34,2.57,94.01,3.61c5.51-1.44,10.561,2.31,15.34,4.57c0.26,0,0.78-0.01,1.03-0.01c1,0.49,2,0.95,3.021,1.38
	c1.83,0.58,3.479,1.56,5.17,2.44c3.979,3.49,7.56,7.45,11.92,10.49c3.26,2.08,5.06,5.66,7.68,8.41c3.96,4.14,7.33,8.76,10.23,13.7
	c1.16,2.56,1.789,5.33,3.01,7.86c2.34,5.98,3.439,12.47,6.01,18.27c-0.13,0.23-0.391,0.7-0.52,0.93
	c0.47,6.48,1.629,13.27-0.721,19.53c-0.93,1.95-0.619,4.13-0.729,6.21c-0.41,1.31-0.761,2.64-1.05,3.98
	c-0.59,1.399-1.15,2.8-1.7,4.22c-0.53,1.58-0.96,3.19-1.32,4.811c-1.13,2.59-2.22,5.209-3.601,7.689
	c-1.219,2.551-3.899,4.07-4.879,6.78c-1.631,3.8-3.78,7.319-6.36,10.54c-2.601,1.84-3.75,5.029-6.39,6.81
	c-2.33,1.58-4.34,3.58-6.74,5.05c-6.02,3.601-12.48,6.461-18.721,9.67c-7.279,2.541-15.09,2.951-22.719,2.431
	c-4.141-1.431-8.611-0.28-12.761-1.66c-3.32-1.26-6.71-2.33-10.17-3.12c-2.82-1.699-6.03-2.56-9-3.93l1.33-2.04
	c-0.75,0.31-2.25,0.94-3,1.26c-0.51-0.28-1.53-0.84-2.03-1.12c-1.1-1.83-2.31-3.58-3.48-5.359c0.12,1.02,0.36,3.069,0.48,4.09
	c-1.8-1.311-0.23-3.6-1.51-5.061c-1.53-2.539-3.59-4.689-5.54-6.91c0.07-0.199,0.21-0.609,0.28-0.819
	c-1.25-5.511-2.81-11.03-3.33-16.65c-0.59-3.489,2.58-5.819,3.12-9.069l1.37,0.02c-0.16-0.52-0.49-1.54-0.66-2.061
	c0.85,1.11,1.71,2.211,2.62,3.271c1.01,1.71,2.11,3.37,3.13,5.08c-1.97-0.17-3.94-0.601-5.92-0.351
	c-1.29,0.811-2.1,2.431-1.96,3.971c-0.21,4.27,2.49,7.87,4.62,11.35c0.8,4.32,5.11,6.91,6.99,10.67c0.71,2.48,0.61,5.2,1.93,7.49
	c-0.39-2.43-1.12-4.859-0.72-7.35c-0.85-2.79-1.83-5.66-4.09-7.66c-2.8-2.391-2.48-6.61-5.47-8.86c-1.1-2.7-1.94-5.51-1.1-8.409
	c1.56,0.289,3.12,0.64,4.66,1.02c0.12,2.14,0.25,4.32,1.45,6.17c1.78,0.66,3.47,1.529,5,2.65c0.31,1.58,1.41,2.699,2.59,3.689
	c-0.01-0.75-0.04-2.25-0.06-3.01c-0.5-0.35-1.5-1.061-2.01-1.42l2.34,0.619c-0.38-0.949-1.14-2.84-1.52-3.779l2.6,3.12
	c-1.31-3.13-0.03-6.261,0.94-9.23l0.73,0.8c0.31-1.42,0.56-2.85,1.07-4.199c-0.09,0.939-0.28,2.84-0.38,3.779
	c3.18-1.01,5.96-3.369,9.42-3.38c2.99,0.061,6.4-1.5,8.93,0.8c1.59,1.881,2.85,4.021,4.53,5.84c2.01,2.131,1.31,5.261,2.2,7.841
	c0.59,1.69,1.21,3.36,1.75,5.069c0.561,1.44,1.07,2.91,1.65,4.34c0.93-4.909-2.09-9.18-2.21-13.969c-0.48-4.801-5-7.421-6.92-11.511
	c-3-0.63-6.03-0.29-9.04,0.021c-0.43-0.37-1.29-1.101-1.72-1.471c0.33-0.729,1.01-2.189,1.35-2.93l0.82-0.01
	c-0.31,0.68-0.95,2.04-1.27,2.729c0.87-0.28,2.63-0.85,3.5-1.13c-0.05-0.689-0.17-2.08-0.22-2.779c0.85,0.84,1.71,1.68,2.54,2.549
	c1.88,0.101,3.77,0.271,5.63,0.631c1.44,1.449,3.16,2.55,4.92,3.55c1.64,1.99,3.47,3.899,3.87,6.58c0.35,0.06,1.05,0.2,1.4,0.271
	c0.439,3.329-0.101,7.35,3.469,9.129c-0.629-1.1-1.31-2.18-2.02-3.229c0.11-0.64,0.35-1.92,0.471-2.57
	c-0.521-1.42-0.931-2.88-1.261-4.36c-1.271-1.6-2.479-3.229-3.739-4.84c0.06-0.47,0.17-1.399,0.219-1.859
	c-2.559-1.29-4.879-2.98-7.179-4.66c-1.64-2.21-4.4-2.561-6.88-3.189l1.5-1.74c-0.53,0.1-1.57,0.3-2.09,0.399l-0.2-1.72
	c-0.51,0.311-1.54,0.939-2.05,1.25c-1.89-2.06-4.61-1.49-7.08-1.439c-0.26-0.38-0.76-1.13-1.01-1.511
	c-0.21,0.72-0.63,2.181-0.84,2.9c2.26-0.47,4.37,0.2,6.19,1.55c1.74,0.07,3.47-0.28,5.21-0.3c-1.64,0.47-3.34,0.67-4.99,1.09
	c-0.3,1.83-0.51,3.68-1.01,5.47l0.73,1.021c-1.17-0.21-3.51-0.62-4.68-0.82c1.17,0.58,2.35,1.14,3.54,1.66
	c-2.01,0.42-4.04,0.87-5.92,1.76c-0.1-1.11-0.31-3.33-0.41-4.44c0.8-0.18,1.6-0.359,2.41-0.539c-0.08-0.931-0.23-2.791-0.3-3.721
	c-0.97,0.44-1.93,0.87-2.89,1.311c-0.66,4.449-3.26,8.199-4.46,12.479c-1.05,2.38-3.45,2.69-5.75,2.15
	c0.08-3.28,0.09-6.56,0.18-9.83l-1.27,1.09c0.18-3.29,0.34-6.58,0.89-9.83l-0.7,0.69c-0.54-1.07-1.09-2.131-1.67-3.18
	c-0.02-1.46-0.04-2.92-0.06-4.37c-0.5,0.23-1.51,0.7-2.01,0.94l0.01-0.9c0.84-0.06,1.67-0.12,2.51-0.19
	c-2.97-2.77,1.47-5.47,0.86-8.64c1.61,1.55,3.78,1.93,5.86,2.39c-1.2-0.74-2.44-1.45-3.67-2.14c0.01-1.38,0.02-2.76,0.02-4.14
	c2.57-0.54,6.81,1.25,8.27-1.25c-2.68,1.2-5.56,0.76-7.6-1.41c-0.52-6.23-0.79-12.52-0.43-18.77c0.4-1.21,0.92-2.37,1.46-3.51
	c0.63-1.42,1.34-2.8,1.98-4.2c-2.24,0.88-2.75,3.14-3.02,5.28c-0.62-0.14-1.85-0.41-2.47-0.54c0.52,0.34,1.56,1.02,2.08,1.36
	c-1.94,1.29-3.91,2.771-6.38,2.47c1.74,1.21,3.33,0.62,4.69-0.89c0.28,0.65,0.85,1.96,1.14,2.61c-0.59-0.21-1.77-0.64-2.36-0.85
	c0.01,0.8,0.03,2.39,0.04,3.19c0.66,0.14,1.97,0.41,2.62,0.55c-0.97,0.5-1.94,0.99-2.92,1.46c0.46,0.58,1.4,1.72,1.86,2.3
	c-0.05,3.8-0.05,7.6,0.1,11.4c-4.02,0.31-6.48-3.45-10.21-4.3c-3.18,0.46-6.24-0.92-9.41-0.77c-3.57,0.6-6.02-2.45-8.53-4.45
	c-0.26-2.38,0.04-4.72,0.82-6.98c0.73-0.5,1.47-0.99,2.22-1.47c-0.41-1.47,0.16-2.92,0.33-4.37c-1.04,3.53-4.65,5.6-5.26,9.23
	c-0.58-0.08-1.73-0.24-2.3-0.32c1.02,0.939,1.84,2.06,2.59,3.22c-0.01,1.56-0.04,3.12-0.1,4.69c0.5,2.09,1,4.24,2.58,5.83
	c-0.27-1.09-0.82-3.26-1.09-4.35c0.65-0.17,1.95-0.5,2.6-0.66c-1.89,2.63-0.24,5.88,0.15,8.73c0.4-0.62,0.77-1.25,1.13-1.89
	c-0.19-1.12-0.58-3.37-0.78-4.49l1.55,0.23c-0.19,2.27-0.42,4.53-0.76,6.79l2.38-0.75c-0.88,0.43-1.76,0.87-2.65,1.29
	c1.27,2.95,0.18,6.66,3.58,8.59l1.26-1.39c-1.21-0.5-2.41-1.01-3.61-1.54l3.98,1.21c-1.49-1.69-2.62-3.62-3.42-5.71
	c0.99-1.27,3.25-2.31,1.78-4.36c0.56-0.189,1.12-0.38,1.69-0.57c-0.25-1.78-0.46-3.55-0.65-5.33c0.6-0.19,1.79-0.58,2.39-0.77
	c1.66,0.46,3.32,0.88,4.99,1.31c0.81,0.88,1.87,1.42,2.97,0.63c1.77-1.021,3.11,0.88,4.51,1.65c-0.21,0.73-0.64,2.2-0.85,2.93
	c-0.64,1.69-1.08,3.5-2.09,5.02c-2.66,0.83-5.56,0.39-8.25-0.02c0.28,0.42,0.84,1.25,1.12,1.66c2.13-0.16,4.26-0.22,6.39-0.13
	c-3.17,2.48-9.87,2.24-10.72-2.51c-0.67,0.48-1.35,0.95-2.02,1.43c2.43,0.75,0.31,4.59,3.69,3.9c0.83,1.83,2.79,0.74,4.16,0.49
	c0.3,0.58,0.89,1.72,1.18,2.3c0.6-0.41,1.8-1.24,2.39-1.65c-0.27,0.62-0.8,1.87-1.07,2.49c0.03,1.5-0.58,3.22,0.77,4.42
	c0.39-1.67,0.79-3.33,1.15-5L35.62,96c0.99,3.67,1.83,7.609,0.25,11.26c-0.28-0.449-0.85-1.34-1.13-1.79
	c-0.75,1.351-1.51,2.7-2.39,3.97c0.07,1.41-0.53,2.28-1.8,2.601c0.6,1.43,1.31,2.84,1.59,4.38c-1.61-2.68-3.46-5.24-4.6-8.18
	c-1.78-2.86-3.97-5.521-6.64-7.6c-1.21-0.07-2.45,0.1-3.65-0.171c1.33-0.189,2.67-0.37,4.01-0.51c-2.02-1.04-4.03-2.08-6.04-3.14
	c0.04-2.64,0.04-5.29,0.03-7.94c1.17-0.37,2.33-0.77,3.48-1.19c-0.83-0.07-2.48-0.22-3.3-0.3c-1.3,0.15-2.61,0.27-3.92,0.35
	c-0.23,0.49-0.71,1.46-0.94,1.95c-0.8-2.61,0.54-5.09,0.94-7.63c-0.88,0.95-1.69,1.95-2.45,3.01c0.19-0.89,0.57-2.67,0.76-3.56
	c-0.64-0.37-1.94-1.12-2.58-1.5l0.11,2.6l-0.36,1.23c-0.6-3.44-1.31-7.15,0.4-10.4c-0.01,1.95-0.08,3.9-0.22,5.85
	c1.07,0.49,2.16,0.92,3.26,1.34l-1.04-1.96L12,78.46c0.58-2.73,0.21-5.56,0.63-8.31c-0.52,0.52-1.56,1.55-2.08,2.07
	c-0.02-0.97-0.06-2.9-0.08-3.86l0.86,0.14c0-2.31-0.67-6.65,2.92-6.24c0.48-1.57,0.78-3.18,1.24-4.75c0.53-1.32,1.11-2.63,1.73-3.92
	c-0.43-0.29-1.28-0.88-1.71-1.18c0.5,0.05,1.5,0.13,2.01,0.17c1.29-3.78,2.4-7.81,4.52-11.12c-0.23,1.05-0.67,3.14-0.89,4.18
	c0.59-0.11,1.79-0.35,2.39-0.47l-0.91-1.74l2.22,1.35c-0.07-1.34-0.14-2.69-0.26-4.03c0.74,1.21,1.47,2.42,2.27,3.59
	c-1.02,1.06-1.9,2.22-1.97,3.76c0.71-0.99,1.4-1.99,2.05-3.02c2.76,0.81,5.71,0.17,8.51,0.86l-1.2,1.64
	c0.73,0.01,2.19,0.02,2.92,0.03c-2.3-2.16-4.61-5.12-8.16-4.8c0.74,0.43,2.22,1.28,2.96,1.7l0.21,0.89
	c-1.71-0.24-3.37-0.72-4.94-1.41c-0.09-1.37-0.12-2.73-0.1-4.1c0.75-1.58,2.69-2.01,3.97-3.05c-0.09,0.83-0.26,2.48-0.35,3.31
	c4.06-3.27,9.1-0.98,13.54-0.16c-2.12-0.94-4.26-1.81-6.4-2.67c-2.1-1.05-4.19,0.54-6.2,1.02c0.04-1.48,0.09-2.95,0.15-4.43
	c-0.73,1.08-1.47,2.15-2.23,3.21c-0.12-1.31-0.18-2.62-0.26-3.94c0.57-0.49,1.71-1.47,2.28-1.96c-0.71,0.14-2.11,0.42-2.82,0.57
	c-1.18-3.79,2.98-5.85,4.71-8.59c0.42-1.1,0.8-2.22,1.14-3.35c0.35,0.55,0.71,1.09,1.06,1.64c4.34-6.13,11.96-8.51,18.63-11.23
	C60.7,7.33,67.52,5.44,74.5,4.98C74.61,4.51,74.83,3.58,74.94,3.11 M91.439,18.25c-3.129,2.42-7.219,2.44-10.609,4.14
	c-7.45,1.97-15.2,0.7-22.72,2.22c-5-1.06-10.57-2.34-15.38,0.15c3.45,0.5,6.46-1.7,9.93-0.96c1.33,0.82,2.49,2.55,4.26,2.18
	c5.14-0.49,10.3-0.2,15.45-0.34c2.23-0.78,4.63-0.85,6.85-1.61c5.459-2.38,11.33-3.76,16.469-6.86
	C94.26,17.47,92.85,17.86,91.439,18.25 M66.9,33.05c-4.77,1.84-9.25,4.58-12.82,8.28c7.89-5.87,17.83-9.36,27.73-8.45l0.02-0.65
	C76.85,32.03,71.79,31.95,66.9,33.05 M108.37,45.81c0.01,0.64,0.05,1.92,0.06,2.56c0.44,1.43,1.16,2.97,0.61,4.48
	c-1.14,3.48-0.38,7.23-1.45,10.73c-0.369,2.03-1.09,3.96-1.71,5.93c-1.659-0.63-2.05-0.11-1.17,1.53
	c-0.56,0.36-1.67,1.07-2.229,1.43c-5.201,2.28-10.931,2.22-16.371,3.521c-2.5,0.63-5.069,0.95-7.649,0.7l0.36,1.11
	c-3.15-0.42-6.33-0.42-9.5-0.53c0.16,0.35,0.47,1.06,0.63,1.42c-0.7,0.01-2.09,0.02-2.79,0.03l0.56-1.65
	c-4.04,2.38-8.81,4.4-13.54,2.93l3.72,1.87c-0.85,0.18-2.57,0.55-3.42,0.73l2.01,0.6c-0.01,2.7-0.33,5.39-0.91,8.04
	c0.42,0.06,1.25,0.19,1.67,0.26l-2.66-0.01c0.92,1.54,1.74,3.17,1.95,4.979c0.55,0.34,1.1,0.68,1.66,1.03
	c0.44-1.09,1.01-2.13,1.5-3.2c0.09-1.28,0.33-2.55,0.48-3.82c0.4,0.07,1.2,0.21,1.59,0.28c0.16-0.31,0.46-0.92,0.61-1.22L63.15,89
	c-0.29,1.33-0.58,2.67-1.1,3.93v0.64l2.42-1.97c-0.3,0.7-0.91,2.1-1.21,2.8c0.53,1.12,1.03,2.25,1.53,3.39
	c1.36-0.7,2.72-1.4,4.14-1.96c-1.24,1.9-1.7,5.02,1.29,5.75l-1.37-3.23c2.3,1.62,3.87,4.07,6.34,5.48c2.1-0.27,4.4-0.84,6.4,0.18
	c3.27,1.51,7.25,1,10.311-0.779c-0.24,0.66-0.74,1.97-0.98,2.619c3.63-3.289,6.63-7.28,10.62-10.14c-2.24-4.02,0.14-1.38,1.05-0.73
	c2.04-1.57,4-3.35,6.4-4.35c2.91,0.63,3.65,3.47,3.49,6.08c0.52,1.83,0.77,3.71,1.01,5.601c-0.29,2.68-0.57,5.43,0.02,8.09
	c0.52-4.631,1.44-9.62-0.08-14.141c-0.33-1.8,0.45-4.19-1.13-5.54c-2.06-2.39-5.489-0.85-7.94,0.021l-1.43-0.97
	c0.43,0.5,1.28,1.51,1.711,2.02c-2.011-0.97-3.611,0.62-5.141,1.58c-0.38-0.12-1.12-0.36-1.49-0.48c-0.779,1.83-2.59,3.59-1.26,5.76
	c-1.48-1.53-2.811-3.18-4.16-4.82c0.551,1.9,1.4,3.67,2.57,5.28c-1.439-1.32-3.141-1.88-5.08-1.68c0.9-1.25,1.59-2.59,2.09-4.03
	c-1.07,1.22-1.83,2.65-2.68,4.02c0.23,0.77,0.48,1.54,0.74,2.31c0.97-0.53,1.91-1.13,2.81-1.79c-0.521,0.96-1.55,2.871-2.069,3.82
	c-0.381-0.119-1.15-0.38-1.541-0.5l0.08,1.16c-2.06,0.98-4.34,1.1-6.56,1.38l0.989-1.02c-1.469-0.011-2.489-0.57-3.049-1.681
	c3.06-1.24,6.459-0.199,9.65-0.68c-3.761-1.05-8.851-2.23-11.98,0.71l-1.13,0.5c0.48-1.34,1.11-2.6,1.89-3.8
	c-1.02,0.92-1.97,1.91-3.01,2.8c-0.61-0.6-1.81-1.79-2.41-2.39c0.94-0.24,2.83-0.73,3.77-0.97c-0.68-0.24-1.36-0.49-2.04-0.74
	c-0.89,0.5-2.66,1.49-3.55,1.99c0.67-0.95,2.01-2.83,2.68-3.77c-0.79,0.58-2.38,1.73-3.17,2.31c-0.74-2.96-0.59-5.99-0.04-8.96
	c0.87,0.16,2.62,0.47,3.49,0.62c-0.23-0.49-0.68-1.49-0.9-1.99c0.34,0.36,1.03,1.08,1.37,1.44c0.91-1.3,1.83-2.61,2.86-3.83
	c1.76-1.12,3.851-1.61,5.54-2.88c2.17-0.2,4.47,0.06,6.279,1.37c2.431,1.39,2.541,4.62,2.431,7.08l0.909-1
	c0.041,1.35,0.381,2.62,1,3.81c-0.799-4.61,0.951-9.02,0.531-13.65c1.469-1.03,3.06-1.87,4.75-2.49c-0.23-0.37-0.681-1.11-0.91-1.48
	c0.49,0.47,1.449,1.41,1.939,1.87c2.54-1.25,5-2.65,7.311-4.28l-1.34-1.62l1.869,0.46c1.03-2.66,1.45-5.49,1.43-8.33
	C110.18,57.38,111.04,51.23,108.37,45.81 M116.811,55.5c-1.65,1.82-3.281,3.69-4.551,5.81c-0.01,0.58-0.039,1.74-0.05,2.32
	c3.06,5.66,7.79,10.12,12.25,14.66c-2.989-3.95-5.92-7.95-9.08-11.77c-0.56-2.22-0.63-4.54-1.101-6.77l0.961,0.68
	c1.02-1.86,2.34-3.53,3.74-5.12l-0.891-0.81c1.18-1.24,2.45-2.43,3.37-3.9C119.52,51.81,118.04,53.59,116.811,55.5 M37.19,60.21
	C37.89,60.83,37.89,60.83,37.19,60.21 M30.95,86.76c0.71-0.14,2.13-0.4,2.84-0.53l-0.22,2.26c2.05-1.62,2.57-4.03,2.51-6.53
	c-1.74-0.37-3.5-0.68-5.24-1.01C30.37,82.83,29.6,85.05,30.95,86.76 M24.82,85.4c-0.36,1.42,2.14,3.87,2.87,1.95
	C27.13,86.5,26.02,84.46,24.82,85.4 M82.05,88.88c0.58,1.43,0.99,3.1,2.62,3.68c0.03-0.93,0.09-2.78,0.12-3.71
	C83.88,88.84,82.96,88.85,82.05,88.88 M72.69,93.86c0.54-1.5,0.83-3.39,0.31-4.91C71.52,89.33,71.48,93.3,72.69,93.86 M53.76,94.01
	c-0.61,0.98-1.29,1.93-2.04,2.771c1.42,0.28,3.27-0.04,3.96-1.48C55.7,94.03,55.06,93.6,53.76,94.01 M27.78,95.37
	c-2.25,3.3,2.78,2.49,4.46,3.46c0.25-2.34-1.97-2.71-3.55-3.61C28.46,95.26,28,95.33,27.78,95.37 M30.06,94.83l0.11,0.64l0.64-0.1
	l-0.1-0.65L30.06,94.83 M35.28,101.15c-0.56,1.33-0.57,2.68-0.01,4.029C36.5,105,36.63,101.29,35.28,101.15 M104.54,116.21
	c-3.17,2.14-7.149,2.63-10.22,4.99c-1.26,2.21-2.94,4.29-3.32,6.88c0.971,0.16,1.93,0.38,2.891,0.561
	c0.049-1.291-1.021-2.171-1.66-3.16c2.229,1.229,3.24-1.271,4.89-2.03c2.47-1.19,5.06-2.44,6.479-4.92
	c2.33-0.8,4.67-1.561,7.051-2.181C108.609,116.38,106.57,116.359,104.54,116.21 M60.34,117.78c2.21,1.61,4.28,3.39,6.49,4.989
	c0,0.65,0,1.961,0,2.621c0.84-2.19,0.46-4.521-0.93-6.4C64.06,118.561,62.22,118.08,60.34,117.78 M94.77,126.82
	c0.4,0.05,1.211,0.16,1.621,0.21l0.67-0.591c0.239-0.379,0.719-1.14,0.959-1.51C97.5,123.26,95.01,125.811,94.77,126.82 M52,125.42
	C52.67,126.08,52.67,126.08,52,125.42 M67.15,126C67.29,129.32,70.05,124.33,67.15,126 M50.52,130.38c0.99,0.71,2.73,1.03,2.69,2.59
	c0.6,5.74,0.62,11.69-1.87,17.03c0.35,0.02,1.03,0.07,1.38,0.09l0.54-0.6l0.69-0.721c0.5,1.19,0.99,2.4,1.52,3.59
	c0.39-3.1-0.04-6.209-0.14-9.31l1.82,1.431c-0.57-2.371-0.78-4.931-2.39-6.891c0.43-3.67-3.16-6.62-1.69-10.24
	C52.21,128.35,51.37,129.37,50.52,130.38 M95.23,128.18C95.91,128.88,95.91,128.88,95.23,128.18 M91.27,132.34l2.471-1
	c-0.5,2-0.891,4.04-1.44,6.03c0.671,1.94,0.91,3.979,1.41,5.96c0.47-3.7-1.681-7.7,1.069-10.939
	c-0.149-0.75-0.439-2.271-0.579-3.031C93.08,130.2,92.061,131.17,91.27,132.34 M68.76,130.439c0.12,1.971,2.1,3.33,1.78,5.391
	c0.84,1.67,1.47,3.63,3.19,4.63c-0.96,1.16-0.86,2.28,0.3,3.351c0.05,0.52,0.16,1.56,0.21,2.09l0.67,0.029
	c0.06-0.619,0.2-1.869,0.27-2.49c1.37,0.48,2.72,0.99,4.07,1.53c-0.57,0.591-1.72,1.78-2.3,2.38c0.71-0.319,2.13-0.959,2.83-1.279
	c0.5,0.51,0.99,1.029,1.49,1.56c1.11,0.3,2.22,0.63,3.32,0.99c0.52,0.05,1.57,0.14,2.1,0.19c0.08-1.471,0.15-2.951,0.211-4.431
	c-0.34,0.69-1.01,2.08-1.34,2.771c-1.051-0.471-2.09-0.95-3.141-1.4c-0.55-1.01-1.11-2.01-1.68-3.01
	c-0.29,0.29-0.87,0.859-1.16,1.15c-0.79-1.33-1.61-2.711-2.97-3.521C72.83,138.15,71.09,133.93,68.76,130.439 M84.77,142.22
	c-0.14-1.63-0.289-3.61-1.18-5.03C81.67,137.71,83.32,141.88,84.77,142.22z"/>
<path fill="#040404" d="M91.439,18.25c1.41-0.39,2.82-0.78,4.25-1.08c-5.14,3.1-11.01,4.48-16.469,6.86
	c-2.22,0.76-4.62,0.83-6.85,1.61c-5.15,0.14-10.31-0.15-15.45,0.34c-1.77,0.37-2.93-1.36-4.26-2.18c-3.47-0.74-6.48,1.46-9.93,0.96
	c4.81-2.49,10.38-1.21,15.38-0.15c7.52-1.52,15.27-0.25,22.72-2.22C84.221,20.69,88.311,20.67,91.439,18.25z"/>
<path fill="#FFFFFF" d="M31.18,23.19C31.86,23.88,31.86,23.88,31.18,23.19z"/>
<path fill="#FFFFFF" d="M26.3,33.61c-0.57-1.03,0.4-3.14,1.71-2.85C28.63,31.8,27.52,33.77,26.3,33.61z"/>
<path fill="#040404" d="M66.9,33.05c4.89-1.1,9.95-1.02,14.93-0.82l-0.02,0.65c-9.9-0.91-19.84,2.58-27.73,8.45
	C57.65,37.63,62.13,34.89,66.9,33.05z"/>
<path fill="#FFFFFF" d="M26.59,37.85c-0.31-1.36,0.23-1.83,1.64-1.43C28.56,37.78,28.02,38.26,26.59,37.85z"/>
<path fill="#FFFFFF" d="M20.02,40.19C23.32,40.08,18.64,43.36,20.02,40.19z"/>
<path fill="#040404" d="M108.37,45.81c2.67,5.42,1.81,11.57,1.739,17.39c0.021,2.84-0.399,5.67-1.43,8.33l-1.869-0.46l1.34,1.62
	c-2.311,1.63-4.771,3.03-7.311,4.28c-0.49-0.46-1.449-1.4-1.939-1.87c0.229,0.37,0.68,1.11,0.91,1.48
	c-1.69,0.62-3.281,1.46-4.75,2.49c0.42,4.63-1.33,9.04-0.531,13.65c-0.619-1.189-0.959-2.46-1-3.81l-0.909,1
	c0.11-2.46,0-5.69-2.431-7.08c-1.81-1.31-4.109-1.57-6.279-1.37c-1.689,1.27-3.78,1.76-5.54,2.88c-1.03,1.22-1.95,2.53-2.86,3.83
	c-0.34-0.36-1.03-1.08-1.37-1.44c0.22,0.5,0.67,1.5,0.9,1.99c-0.87-0.15-2.62-0.46-3.49-0.62c-0.55,2.97-0.7,6,0.04,8.96
	c0.79-0.58,2.38-1.73,3.17-2.31c-0.67,0.94-2.01,2.82-2.68,3.77c0.89-0.5,2.66-1.49,3.55-1.99c0.68,0.25,1.36,0.5,2.04,0.74
	c-0.94,0.24-2.83,0.73-3.77,0.97c0.6,0.6,1.8,1.79,2.41,2.39c1.04-0.89,1.99-1.88,3.01-2.8c-0.78,1.2-1.41,2.46-1.89,3.8l1.13-0.5
	c3.129-2.94,8.219-1.76,11.98-0.71c-3.19,0.48-6.59-0.56-9.65,0.68c0.56,1.11,1.581,1.67,3.049,1.681l-0.989,1.02
	c2.22-0.28,4.5-0.399,6.56-1.38l-0.08-1.16c0.391,0.12,1.16,0.381,1.541,0.5c0.52-0.949,1.549-2.86,2.069-3.82
	c-0.899,0.66-1.84,1.26-2.81,1.79c-0.26-0.77-0.51-1.54-0.74-2.31c0.85-1.37,1.609-2.8,2.68-4.02c-0.5,1.44-1.189,2.78-2.09,4.03
	c1.939-0.2,3.641,0.36,5.08,1.68c-1.17-1.61-2.02-3.38-2.57-5.28c1.35,1.64,2.68,3.29,4.16,4.82c-1.33-2.17,0.48-3.93,1.26-5.76
	c0.37,0.12,1.11,0.36,1.49,0.48c1.529-0.96,3.13-2.55,5.141-1.58c-0.431-0.51-1.281-1.52-1.711-2.02l1.43,0.97
	c2.451-0.87,5.881-2.41,7.94-0.021c1.58,1.35,0.8,3.74,1.13,5.54c1.521,4.521,0.6,9.51,0.08,14.141c-0.59-2.66-0.31-5.41-0.02-8.09
	c-0.24-1.891-0.49-3.771-1.01-5.601c0.16-2.61-0.58-5.45-3.49-6.08c-2.4,1-4.36,2.78-6.4,4.35c-0.91-0.65-3.29-3.29-1.05,0.73
	c-3.99,2.86-6.99,6.851-10.62,10.14c0.24-0.649,0.74-1.959,0.98-2.619c-3.061,1.779-7.041,2.289-10.311,0.779
	c-2-1.02-4.3-0.449-6.4-0.18c-2.47-1.41-4.04-3.86-6.34-5.48l1.37,3.23c-2.99-0.73-2.53-3.85-1.29-5.75
	c-1.42,0.56-2.78,1.26-4.14,1.96c-0.5-1.14-1-2.27-1.53-3.39c0.3-0.7,0.91-2.1,1.21-2.8l-2.42,1.97v-0.64
	c0.52-1.26,0.81-2.6,1.1-3.93l-0.77,0.54c-0.15,0.3-0.45,0.91-0.61,1.22c-0.39-0.07-1.19-0.21-1.59-0.28
	c-0.15,1.27-0.39,2.54-0.48,3.82c-0.49,1.07-1.06,2.11-1.5,3.2c-0.56-0.35-1.11-0.69-1.66-1.03c-0.21-1.81-1.03-3.439-1.95-4.979
	l2.66,0.01c-0.42-0.07-1.25-0.2-1.67-0.26c0.58-2.65,0.9-5.34,0.91-8.04l-2.01-0.6c0.85-0.18,2.57-0.55,3.42-0.73L54.18,80
	c4.73,1.47,9.5-0.55,13.54-2.93l-0.56,1.65c0.7-0.01,2.09-0.02,2.79-0.03c-0.16-0.36-0.47-1.07-0.63-1.42
	c3.17,0.11,6.35,0.11,9.5,0.53l-0.36-1.11c2.58,0.25,5.149-0.07,7.649-0.7c5.44-1.3,11.17-1.24,16.371-3.521
	c0.56-0.36,1.67-1.07,2.229-1.43c-0.88-1.64-0.489-2.16,1.17-1.53c0.62-1.97,1.341-3.9,1.71-5.93c1.07-3.5,0.311-7.25,1.45-10.73
	c0.55-1.51-0.17-3.05-0.61-4.48C108.42,47.73,108.38,46.45,108.37,45.81 M85.8,77.91c0.2,0.52,0.61,1.56,0.81,2.08
	c3.041,0.91,5.341,3.16,7.711,5.15c-0.87-2.71-3.09-5.1-6.051-5.31C87.45,79.18,86.63,78.55,85.8,77.91 M84.25,79.25
	C84.87,79.78,84.87,79.78,84.25,79.25 M73.19,84.26C73.83,84.79,73.83,84.79,73.19,84.26 M65.84,90.11
	c-0.35,1.99-1.05,3.92-1.08,5.96c0.27-0.07,0.82-0.2,1.09-0.27c0.59-1.41,0.48-2.98,0.52-4.47l2.28,0.5
	C67.76,91.19,66.79,90.66,65.84,90.11 M70.29,96.22C70.98,96.85,70.98,96.85,70.29,96.22 M97.2,96.36
	C97.84,97.01,97.84,97.01,97.2,96.36 M74.25,101.08C75.07,101.6,75.07,101.6,74.25,101.08z"/>
<path fill="#040404" d="M116.811,55.5c1.229-1.91,2.709-3.69,4.649-4.9c-0.92,1.47-2.19,2.66-3.37,3.9l0.891,0.81
	c-1.4,1.59-2.721,3.26-3.74,5.12l-0.961-0.68c0.471,2.23,0.541,4.55,1.101,6.77c3.16,3.82,6.091,7.82,9.08,11.77
	c-4.46-4.54-9.19-9-12.25-14.66c0.011-0.58,0.04-1.74,0.05-2.32C113.529,59.19,115.16,57.32,116.811,55.5z"/>
<path fill="#040404" d="M37.19,60.21C37.89,60.83,37.89,60.83,37.19,60.21z"/>
<path fill="#FFFFFF" d="M7.23,71.24C7.78,71.84,7.78,71.84,7.23,71.24z"/>
<path fill="#FFFFFF" d="M158.2,73.26C161.471,73.78,156.359,75.99,158.2,73.26z"/>
<path fill="#FFFFFF" d="M85.8,77.91c0.83,0.64,1.65,1.27,2.47,1.92c2.961,0.21,5.181,2.6,6.051,5.31
	c-2.37-1.99-4.67-4.24-7.711-5.15C86.41,79.47,86,78.43,85.8,77.91z"/>
<path fill="#FFFFFF" d="M84.25,79.25C84.87,79.78,84.87,79.78,84.25,79.25z"/>
<path fill="#040404" d="M30.95,86.76c-1.35-1.71-0.58-3.93-0.11-5.81c1.74,0.33,3.5,0.64,5.24,1.01c0.06,2.5-0.46,4.91-2.51,6.53
	l0.22-2.26C33.08,86.36,31.66,86.62,30.95,86.76 M30.87,82.06c0.1,1.47,0.22,2.94,0.37,4.41c0.88-0.47,1.75-0.96,2.61-1.47h-1.96
	l0.52-2.54c2,0.89,1.42,3.23,1.94,4.95c0.6-1.78,0.96-3.61,1.09-5.49C33.92,81.96,32.39,82,30.87,82.06z"/>
<path fill="#FFFFFF" d="M30.87,82.06c1.52-0.06,3.05-0.1,4.57-0.14c-0.13,1.88-0.49,3.71-1.09,5.49c-0.52-1.72,0.06-4.06-1.94-4.95
	L31.89,85h1.96c-0.86,0.51-1.73,1-2.61,1.47C31.09,85,30.97,83.53,30.87,82.06z"/>
<path fill="#FFFFFF" d="M42.85,82.33C43.59,82.94,43.59,82.94,42.85,82.33z"/>
<path fill="#FFFFFF" d="M73.19,84.26C73.83,84.79,73.83,84.79,73.19,84.26z"/>
<path fill="#040404" d="M24.82,85.4c1.2-0.94,2.31,1.1,2.87,1.95C26.96,89.27,24.46,86.82,24.82,85.4z"/>
<path fill="#040404" d="M82.05,88.88c0.91-0.03,1.83-0.04,2.74-0.03c-0.03,0.93-0.09,2.78-0.12,3.71
	C83.04,91.98,82.63,90.31,82.05,88.88z"/>
<path fill="#040404" d="M72.69,93.86c-1.21-0.56-1.17-4.53,0.31-4.91C73.52,90.47,73.23,92.36,72.69,93.86z"/>
<path fill="#FFFFFF" d="M10.88,94.93c-0.44-2.22-1.4-5.24,1.49-6.36c-2.08,4.16-0.09,8.97-0.7,13.44c1.51,1.92,1.13,4.5,1.32,6.78
	l-0.36,0.319c-0.52-1.789,0.15-4.35-2.04-5.14c-0.02-0.7-0.07-2.1-0.09-2.8c-0.34,0.03-1.02,0.11-1.36,0.15
	c0.43-1.271,1.28-3.82,1.71-5.09l-3.38,1.68C8.48,96.79,9.67,95.84,10.88,94.93z"/>
<path fill="#FFFFFF" d="M65.84,90.11c0.95,0.55,1.92,1.08,2.81,1.72l-2.28-0.5c-0.04,1.49,0.07,3.06-0.52,4.47
	c-0.27,0.07-0.82,0.2-1.09,0.27C64.79,94.03,65.49,92.1,65.84,90.11z"/>
<path fill="#FFFFFF" d="M8.19,93.24C8.86,93.79,8.86,93.79,8.19,93.24z"/>
<path fill="#040404" d="M53.76,94.01c1.3-0.41,1.94,0.021,1.92,1.29c-0.69,1.44-2.54,1.76-3.96,1.48
	C52.47,95.94,53.15,94.99,53.76,94.01z"/>
<path fill="#040404" d="M27.78,95.37c0.22-0.04,0.68-0.11,0.91-0.15c1.58,0.9,3.8,1.271,3.55,3.61
	C30.56,97.86,25.53,98.67,27.78,95.37z"/>
<path fill="#040404" d="M30.06,94.83l0.65-0.11l0.1,0.65l-0.64,0.1L30.06,94.83z"/>
<path fill="#FFFFFF" d="M70.29,96.22C70.98,96.85,70.98,96.85,70.29,96.22z"/>
<path fill="#FFFFFF" d="M97.2,96.36C97.84,97.01,97.84,97.01,97.2,96.36z"/>
<path fill="#FFFFFF" d="M13.84,99.55c2.41,4.4,2.7,9.761,1.75,14.601c0.25,1.609,0.94,3.109,1.24,4.72
	c-1.39-2.46-2.59-5.07-3.59-7.69c0.46,0.44,1.38,1.32,1.84,1.76C14.27,108.53,13.91,104.03,13.84,99.55z"/>
<path fill="#040404" d="M35.28,101.15c1.35,0.14,1.22,3.85-0.01,4.029C34.71,103.83,34.72,102.48,35.28,101.15z"/>
<path fill="#FFFFFF" d="M74.25,101.08C75.07,101.6,75.07,101.6,74.25,101.08z"/>
<path fill="#FFFFFF" d="M41.86,103.21c2.26,1.899,1.47,4.931,1.19,7.47C40.77,108.78,41.83,105.71,41.86,103.21z"/>
<path fill="#FFFFFF" d="M17.3,109.3c2.21,4.681,2.59,9.97,2.45,15.07c-0.36-0.69-1.08-2.07-1.44-2.761
	c0.62-2.119-0.01-4.18-1.08-6.029C17.21,113.49,17.18,111.391,17.3,109.3z"/>
<path fill="#FFFFFF" d="M24.2,112.359c1.27,0.311,1.48,1.08,0.62,2.32C23.55,114.37,23.34,113.6,24.2,112.359z"/>
<path fill="#040404" d="M104.54,116.21c2.03,0.149,4.069,0.17,6.11,0.14c-2.381,0.62-4.721,1.381-7.051,2.181
	c-1.42,2.479-4.01,3.729-6.479,4.92c-1.649,0.76-2.66,3.26-4.89,2.03c0.64,0.989,1.709,1.869,1.66,3.16
	c-0.961-0.181-1.92-0.4-2.891-0.561c0.38-2.59,2.061-4.67,3.32-6.88C97.391,118.84,101.37,118.35,104.54,116.21z"/>
<path fill="#FFFFFF" d="M23.54,116.2c1.2,3.75-1.61,7.76,0.48,11.25c0.47-3.431,2.19-6.511,2.77-9.92c0.14,1.76,0.21,3.54,0.21,5.31
	c0.47-0.58,0.94-1.17,1.41-1.74c0.37,0.381,1.13,1.16,1.5,1.551c-0.84,3.939,0.26,8.01,1,11.899c0.71-0.489,2.12-1.46,2.82-1.95
	c-0.36,0.67-1.08,1.99-1.44,2.66c0.91,0.79,1.84,1.551,2.8,2.29c-0.06,0.511-0.18,1.521-0.25,2.03c-0.52-0.92-1.03-1.84-1.53-2.76
	c-2.68-1.09-4.26-3.62-3.94-6.62l-0.87,2.68c-1.4-1.69-3.62-2.63-4.55-4.69c-1.02-1.01-2.06-1.989-3.1-2.97
	c-0.2-2.989-0.59-5.989-0.19-8.989c0.84,1.76,1.28,3.66,1.96,5.47C22.87,119.859,23.18,118.02,23.54,116.2 M25.48,123.53
	c1.06,2.05,0.65,4.28,0.39,6.439c0.35-0.37,1.06-1.11,1.41-1.479c0.29,0.55,0.8,3.199,1.65,1.93c0.16-2.13,0.38-4.311,0.13-6.45
	C28.74,122.32,26.29,124.12,25.48,123.53z"/>
<path fill="#040404" d="M60.34,117.78c1.88,0.3,3.72,0.78,5.56,1.21c1.39,1.88,1.77,4.21,0.93,6.4c0-0.66,0-1.971,0-2.621
	C64.62,121.17,62.55,119.391,60.34,117.78z"/>
<path fill="#040404" d="M25.48,123.53c0.81,0.59,3.26-1.21,3.58,0.439c0.25,2.14,0.03,4.32-0.13,6.45
	c-0.85,1.27-1.36-1.38-1.65-1.93c-0.35,0.369-1.06,1.109-1.41,1.479C26.13,127.811,26.54,125.58,25.48,123.53z"/>
<path fill="#040404" d="M94.77,126.82c0.24-1.01,2.73-3.561,3.25-1.891c-0.24,0.37-0.72,1.131-0.959,1.51l-0.67,0.591
	C95.98,126.98,95.17,126.87,94.77,126.82z"/>
<path fill="#040404" d="M52,125.42C52.67,126.08,52.67,126.08,52,125.42z"/>
<path fill="#040404" d="M67.15,126C70.05,124.33,67.29,129.32,67.15,126z"/>
<path fill="#040404" d="M50.52,130.38c0.85-1.01,1.69-2.03,2.55-3.03c-1.47,3.62,2.12,6.57,1.69,10.24
	c1.61,1.96,1.82,4.52,2.39,6.891l-1.82-1.431c0.1,3.101,0.53,6.21,0.14,9.31c-0.53-1.189-1.02-2.399-1.52-3.59l-0.69,0.721
	l-0.54,0.6c-0.35-0.02-1.03-0.07-1.38-0.09c2.49-5.34,2.47-11.29,1.87-17.03C53.25,131.41,51.51,131.09,50.52,130.38z"/>
<path fill="#040404" d="M95.23,128.18C95.91,128.88,95.91,128.88,95.23,128.18z"/>
<path fill="#040404" d="M91.27,132.34c0.791-1.17,1.811-2.14,2.931-2.98c0.14,0.761,0.43,2.281,0.579,3.031
	c-2.75,3.239-0.6,7.239-1.069,10.939c-0.5-1.98-0.739-4.02-1.41-5.96c0.55-1.99,0.94-4.03,1.44-6.03L91.27,132.34z"/>
<path fill="#040404" d="M68.76,130.439c2.33,3.49,4.07,7.711,7.85,9.931c1.36,0.81,2.18,2.19,2.97,3.521
	c0.29-0.291,0.87-0.86,1.16-1.15c0.57,1,1.13,2,1.68,3.01c1.051,0.45,2.09,0.93,3.141,1.4c0.33-0.69,1-2.08,1.34-2.771
	c-0.061,1.479-0.131,2.96-0.211,4.431c-0.529-0.051-1.58-0.141-2.1-0.19c-1.1-0.36-2.21-0.69-3.32-0.99
	c-0.5-0.53-0.99-1.05-1.49-1.56c-0.7,0.32-2.12,0.96-2.83,1.279c0.58-0.6,1.73-1.789,2.3-2.38c-1.35-0.54-2.7-1.05-4.07-1.53
	c-0.07,0.621-0.21,1.871-0.27,2.49l-0.67-0.029c-0.05-0.53-0.16-1.57-0.21-2.09c-1.16-1.07-1.26-2.19-0.3-3.351
	c-1.72-1-2.35-2.96-3.19-4.63C70.86,133.77,68.88,132.41,68.76,130.439z"/>
<path fill="#040404" d="M84.77,142.22c-1.449-0.34-3.1-4.51-1.18-5.03C84.48,138.609,84.63,140.59,84.77,142.22z"/>
<path fill="#FFFFFF" d="M36.09,139.63C39.36,139.78,34.58,142.62,36.09,139.63z"/>
<path fill="#040404" d="M0.98,170.98c0.55-3.261,4.85-1.521,7.14-1.961c4.76,6.59,7.84,14.25,11.7,21.391
	c0.63-7.03-0.14-14.11,0.46-21.141c1.6-0.239,3.22-0.199,4.84-0.209c0.24,7.64,0.03,15.289,0.11,22.93
	c-0.07,2.229,0.22,4.54-0.48,6.71c-2.59,0.62-6.38,1.31-7.65-1.771c-3.7-7.279-7.62-14.47-10.91-21.96
	c-0.3,7.97-0.05,15.96-0.14,23.94c-1.66,0.06-3.32,0.109-4.98,0.15C0.71,189.71,0.74,180.33,0.98,170.98z"/>
<path fill="#040404" d="M39.36,169.51c4.28-1.54,9.24-1.31,13.33,0.69c3.78,1.69,5.22,5.96,6.07,9.7
	c0.74,5.899-0.12,12.92-5.02,16.91c-3.83,3.06-9.08,2.709-13.67,2.25c-4.42-0.621-7.75-4.36-8.7-8.601
	C29.55,182.891,30.93,172.41,39.36,169.51 M43.47,173.21c-1.73,0.89-4,1.34-4.88,3.31c-2.35,4.121-2.12,9.32-0.89,13.75
	c1.57,5.61,9.92,6.291,13.08,1.771c2.74-4.33,2.63-10,0.9-14.69c-0.82-2.289-3.07-3.27-5.12-4.16
	C45.53,173.189,44.5,173.2,43.47,173.21z"/>
<path fill="#FFFFFF" d="M43.47,173.21c1.03-0.01,2.06-0.021,3.09-0.021c2.05,0.891,4.3,1.871,5.12,4.16
	c1.73,4.69,1.84,10.36-0.9,14.69c-3.16,4.521-11.51,3.84-13.08-1.771c-1.23-4.43-1.46-9.629,0.89-13.75
	C39.47,174.55,41.74,174.1,43.47,173.21z"/>
<path fill="#040404" d="M63.95,193.641c1.19-0.701,2.41-1.591,3.88-1.36c1.97-0.05,2.47,2.28,3.35,3.6
	c-0.67,1.05-1.28,2.16-2.05,3.14c-1.78,0.34-3.54-0.16-5.16-0.869C63.97,196.65,63.96,195.141,63.95,193.641z"/>
</svg>
