<?xml version="1.0" encoding="UTF-8" ?>
<!DOCTYPE svg PUBLIC "-//W3C//DTD SVG 1.1//EN" "http://www.w3.org/Graphics/SVG/1.1/DTD/svg11.dtd">
<svg width="288pt" height="288pt" viewBox="0 0 288 288" version="1.1" xmlns="http://www.w3.org/2000/svg">
<path fill="#ffffff" opacity="1.00" d=" M 0.00 0.00 L 288.00 0.00 L 288.00 288.00 L 0.00 288.00 L 0.00 0.00 M 125.15 31.23 C 119.07 34.94 113.11 38.98 108.38 44.37 C 104.45 48.44 102.06 53.61 99.46 58.55 C 95.54 66.39 95.71 75.41 95.54 83.97 C 95.65 92.31 95.00 100.72 96.36 109.01 C 97.64 116.76 97.07 124.71 98.80 132.41 C 100.55 142.02 105.28 150.74 110.25 159.03 C 108.51 161.09 108.05 164.09 105.94 165.93 C 102.71 170.10 98.35 173.14 94.04 176.07 C 90.68 178.80 87.27 181.50 83.46 183.59 C 71.34 190.48 57.10 191.92 44.53 197.75 C 37.46 201.05 30.14 203.80 23.11 207.20 C 18.32 209.70 13.27 211.71 9.11 215.24 C 6.50 219.82 4.17 224.95 4.86 230.36 C 6.21 224.23 7.51 217.50 12.70 213.35 C 15.15 214.80 17.79 216.25 19.31 218.76 C 21.70 222.61 22.77 227.08 24.88 231.07 C 24.14 223.93 20.38 217.51 15.25 212.61 C 22.19 207.83 30.23 205.12 37.92 201.81 C 41.90 200.15 45.75 198.19 49.79 196.65 C 55.78 194.35 61.99 192.71 68.15 190.94 C 74.36 189.19 80.20 186.38 86.03 183.67 C 83.03 192.05 80.19 200.78 74.11 207.53 C 75.91 208.52 77.69 209.53 79.47 210.55 C 80.79 212.63 82.09 214.72 83.35 216.84 C 79.20 220.54 74.74 223.89 70.82 227.84 C 76.23 225.15 80.21 220.50 84.83 216.73 C 90.50 212.13 95.28 206.57 100.53 201.51 C 104.23 197.99 106.63 193.42 109.79 189.46 C 109.82 190.38 109.86 192.23 109.89 193.16 C 109.63 193.39 109.11 193.86 108.85 194.09 C 107.88 202.08 108.53 210.14 109.73 218.06 C 111.93 217.91 114.14 217.77 116.35 217.62 C 116.97 222.98 117.67 228.45 120.16 233.32 C 120.07 230.85 119.38 228.48 118.70 226.12 C 117.71 222.77 117.66 219.26 117.50 215.80 C 120.78 214.23 124.09 212.72 127.42 211.25 C 127.64 210.81 128.07 209.93 128.28 209.49 C 130.68 210.02 132.88 208.55 135.30 208.67 C 135.81 214.93 134.88 221.29 136.22 227.47 C 136.66 220.92 137.45 214.37 137.23 207.80 C 141.06 206.55 145.11 206.47 148.94 207.75 C 150.97 209.96 153.33 211.85 155.23 214.19 C 156.59 220.57 153.42 227.11 155.17 233.48 C 155.87 227.52 156.00 221.51 156.95 215.59 C 162.16 219.08 167.28 223.22 173.60 224.41 C 175.17 224.09 175.91 222.25 177.07 221.28 C 177.28 226.12 177.41 230.98 177.28 235.83 L 177.67 235.83 C 177.67 231.14 177.71 226.43 178.30 221.78 C 178.75 218.13 180.03 214.67 180.70 211.08 C 181.43 207.16 182.00 203.22 182.93 199.35 C 189.71 203.00 193.29 210.13 199.28 214.71 C 204.71 219.23 209.26 224.71 214.74 229.17 C 213.37 227.32 211.89 225.55 210.38 223.82 C 212.65 219.43 217.56 217.42 220.01 213.26 C 215.48 208.03 210.72 202.99 206.22 197.74 C 202.77 192.64 199.38 187.35 197.40 181.48 C 202.65 183.20 207.03 186.75 212.22 188.57 C 221.65 191.78 231.12 195.08 239.81 200.00 C 245.76 202.84 251.88 205.29 257.97 207.80 C 264.45 210.47 271.92 211.37 277.26 216.29 C 275.34 217.95 273.17 219.47 271.91 221.73 C 270.25 224.66 269.66 228.04 269.37 231.36 C 271.03 228.42 271.54 225.03 272.92 221.99 C 274.05 219.48 276.75 218.43 279.02 217.23 C 281.05 220.76 282.52 224.57 284.25 228.25 C 283.79 222.89 281.30 217.36 276.62 214.41 C 270.51 210.07 262.96 208.85 256.16 206.00 C 249.67 203.25 243.09 200.65 236.88 197.28 C 229.43 193.18 221.30 190.60 213.27 187.91 C 207.29 185.97 202.22 182.11 196.51 179.58 C 192.07 177.62 188.75 174.00 185.48 170.53 C 182.48 167.44 181.54 163.00 178.65 159.83 C 178.42 155.29 179.09 150.78 180.15 146.38 C 181.61 140.26 182.47 134.01 183.36 127.79 L 181.81 127.67 L 182.37 130.02 C 181.04 129.61 180.78 128.34 180.49 127.16 C 179.50 131.22 178.10 135.21 175.83 138.75 C 173.13 142.78 168.95 145.43 164.98 148.05 C 158.96 152.12 152.48 155.44 146.44 159.49 C 142.04 162.49 136.62 162.94 131.52 163.80 C 125.97 164.64 119.96 165.14 114.88 162.27 C 110.92 158.15 107.37 153.60 105.37 148.19 C 106.10 148.00 107.56 147.64 108.29 147.45 C 107.47 146.23 106.64 145.01 105.80 143.80 C 105.31 140.43 105.49 136.98 106.63 133.75 C 108.41 128.28 110.33 122.82 111.06 117.09 L 112.19 117.05 L 112.57 118.40 C 113.73 117.47 114.84 116.49 115.88 115.43 C 117.75 116.37 119.35 117.74 121.25 118.61 C 123.83 118.68 125.54 116.20 127.49 114.86 C 128.17 115.82 128.85 116.79 129.52 117.77 C 132.38 118.78 135.40 118.59 138.23 117.56 C 138.96 116.25 139.69 114.94 140.44 113.65 C 143.50 119.40 146.39 125.26 148.93 131.26 C 150.31 134.39 150.82 137.83 150.33 141.23 C 148.99 141.02 147.65 140.82 146.31 140.62 C 145.94 141.00 145.57 141.39 145.20 141.78 C 146.66 141.98 148.13 142.29 149.61 142.27 C 152.56 140.96 151.69 137.18 151.12 134.71 C 148.79 126.72 144.20 119.65 140.88 112.06 C 139.59 110.44 138.25 108.85 136.89 107.28 C 136.72 107.45 136.37 107.78 136.20 107.94 C 137.27 110.38 139.39 113.01 138.20 115.80 C 136.47 118.58 132.91 117.27 130.38 116.74 C 131.01 116.45 132.27 115.86 132.90 115.57 C 132.75 115.05 132.45 114.00 132.29 113.48 C 130.83 113.56 129.36 113.64 127.90 113.73 C 125.86 115.17 123.84 116.63 121.82 118.10 C 120.51 116.87 119.22 115.61 117.96 114.33 C 115.87 114.60 113.80 115.01 111.74 115.49 C 111.41 114.88 110.73 113.68 110.39 113.07 C 114.72 108.15 117.29 102.07 120.06 96.20 C 121.40 93.15 122.61 89.66 121.55 86.34 C 120.68 84.11 119.25 82.10 117.48 80.51 C 112.31 79.45 106.91 80.28 101.93 81.85 C 100.17 83.77 99.35 86.33 98.07 88.57 C 98.67 89.03 99.34 89.31 100.08 89.41 C 102.48 87.77 105.01 86.00 108.02 85.85 C 111.92 85.67 115.86 85.66 119.64 84.51 C 120.72 87.04 121.07 89.78 120.51 92.48 C 118.97 91.60 117.45 90.70 115.92 89.79 C 117.12 89.15 118.19 88.29 119.29 87.50 C 114.71 87.70 109.85 87.56 105.71 89.81 C 103.37 91.02 102.19 93.50 100.83 95.62 C 102.61 95.12 104.59 95.13 106.25 94.33 C 105.43 94.17 103.80 93.85 102.98 93.69 C 104.23 92.52 105.48 91.36 106.74 90.21 C 107.18 91.54 107.61 92.87 108.04 94.20 C 109.04 94.43 110.03 94.66 111.03 94.89 C 111.47 94.58 112.34 93.97 112.78 93.66 C 114.44 93.87 116.09 94.09 117.75 94.33 C 114.90 96.55 111.35 97.28 107.90 97.99 C 112.02 98.76 115.82 96.79 119.40 95.02 C 117.01 101.55 113.56 107.59 109.35 113.11 C 109.76 114.66 110.65 116.18 110.02 117.80 C 109.19 125.20 105.40 131.84 104.35 139.17 C 103.83 142.09 105.67 144.61 106.94 147.06 C 106.38 146.88 105.24 146.54 104.67 146.36 C 100.28 138.29 98.85 129.02 98.49 119.95 C 98.30 113.27 96.86 106.70 96.67 100.03 C 96.53 95.32 96.60 90.61 96.68 85.90 L 97.70 85.79 C 100.30 76.36 102.03 66.66 105.54 57.51 C 106.97 53.35 110.39 50.37 113.82 47.83 C 115.68 46.51 117.66 45.11 120.00 44.91 C 127.34 44.11 134.71 45.15 142.06 45.35 C 147.16 45.47 152.21 46.32 157.10 47.77 C 161.42 50.06 166.09 52.30 169.11 56.30 C 170.70 58.81 167.90 61.02 167.63 63.45 C 166.45 66.74 167.42 70.15 168.69 73.24 C 172.42 77.62 177.16 81.43 179.12 87.04 C 181.03 91.43 181.27 96.26 181.26 100.98 C 181.72 101.59 182.18 102.20 182.64 102.82 C 184.77 98.92 187.73 95.59 191.02 92.63 C 195.47 92.08 199.94 92.57 204.25 93.74 C 205.45 98.21 206.22 102.99 204.71 107.50 C 202.80 113.53 200.23 119.41 196.83 124.76 C 195.16 127.46 191.86 130.23 188.52 128.76 C 185.49 127.09 184.45 123.67 183.68 120.53 C 183.13 121.80 182.59 123.07 182.05 124.35 C 182.84 126.33 184.85 127.23 186.44 128.46 C 189.10 130.62 193.50 130.42 195.65 127.63 C 200.42 122.20 202.92 115.24 205.43 108.56 C 207.27 103.91 206.63 98.84 205.71 94.07 C 203.01 92.46 200.01 91.49 196.95 90.87 C 198.74 81.91 198.94 72.73 198.31 63.64 C 197.10 58.97 195.36 54.37 192.64 50.36 C 187.47 43.33 181.12 36.85 173.26 32.91 C 164.57 29.48 155.35 27.01 145.94 27.13 C 138.89 26.21 131.17 27.08 125.15 31.23 M 135.59 78.69 C 135.54 79.18 135.44 80.17 135.39 80.67 C 136.47 81.55 137.55 82.44 138.63 83.34 C 143.24 83.69 147.93 83.55 152.48 84.46 C 156.82 85.71 160.68 88.14 164.76 90.00 C 164.62 89.47 164.33 88.40 164.19 87.87 C 161.57 85.52 159.06 83.06 156.58 80.57 C 150.18 77.16 142.54 77.61 135.59 78.69 M 136.80 91.47 C 141.97 95.41 148.99 98.01 155.38 95.65 C 149.96 95.57 144.37 95.34 139.55 92.55 L 140.84 92.14 C 144.32 91.40 139.47 91.07 138.68 90.79 C 140.02 89.79 141.36 88.81 142.71 87.82 C 142.67 89.38 142.62 90.94 142.57 92.50 C 147.34 93.20 152.23 93.04 156.76 91.28 C 155.32 90.04 153.63 89.29 151.80 88.86 L 152.33 88.57 C 149.06 87.69 145.63 86.46 142.22 87.32 C 139.89 87.85 138.38 89.84 136.80 91.47 M 156.76 91.28 L 156.73 92.09 L 157.44 92.55 L 158.20 92.21 L 158.21 91.38 L 157.50 90.92 L 156.76 91.28 M 158.20 92.21 L 158.33 92.71 L 158.84 92.62 L 158.71 92.11 L 158.20 92.21 M 158.84 92.62 C 159.58 94.11 161.59 95.07 163.22 94.72 C 162.92 93.19 160.19 91.71 158.84 92.62 M 164.30 92.03 L 164.23 92.85 L 164.90 93.32 L 165.65 92.97 L 165.72 92.14 L 165.05 91.67 L 164.30 92.03 M 165.71 94.38 L 165.42 94.79 L 165.85 95.05 L 166.12 94.65 L 165.71 94.38 M 187.19 103.81 C 187.68 104.84 188.18 105.88 188.67 106.91 C 188.35 110.17 187.68 113.40 186.41 116.43 L 185.17 116.18 C 185.91 116.92 186.66 117.66 187.40 118.41 C 189.28 118.62 191.13 118.66 192.81 117.67 C 194.12 115.90 195.33 114.06 196.42 112.15 C 195.55 112.71 194.70 113.28 193.85 113.86 C 194.67 112.47 194.36 109.15 196.47 109.38 C 196.18 108.08 195.71 105.96 194.20 105.68 C 194.75 105.22 195.30 104.77 195.85 104.32 C 193.30 104.45 190.76 104.59 188.21 104.72 C 189.49 101.76 192.40 99.91 194.56 97.60 C 195.97 95.96 198.16 95.77 200.14 95.41 C 200.26 101.34 200.21 107.32 199.40 113.21 C 198.97 116.59 196.56 119.16 194.42 121.61 C 193.20 121.12 191.99 120.64 190.78 120.15 C 191.86 121.06 192.94 121.98 194.02 122.90 C 197.91 120.16 200.29 115.76 201.09 111.13 C 203.44 107.78 203.17 103.62 202.83 99.75 C 202.75 99.16 202.58 97.97 202.50 97.37 C 200.60 97.37 200.46 95.08 199.46 93.91 C 194.22 95.54 190.98 100.17 187.19 103.81 M 163.22 94.72 C 162.78 96.29 165.96 96.42 165.42 94.79 C 165.03 94.66 164.25 94.40 163.86 94.27 L 163.22 94.72 M 126.22 105.12 L 126.07 105.94 L 127.25 106.18 C 127.27 106.55 127.29 107.28 127.31 107.64 C 128.67 107.57 129.82 108.52 130.23 109.54 C 131.41 109.59 132.59 109.64 133.77 109.69 C 133.53 109.39 133.07 108.80 132.83 108.50 C 129.35 109.29 128.91 105.48 126.22 105.12 M 116.73 123.79 C 114.40 124.65 113.18 126.99 112.08 129.05 C 110.20 132.98 107.50 136.67 107.14 141.15 C 108.48 139.09 109.56 136.88 110.87 134.80 C 111.45 134.63 112.61 134.27 113.19 134.10 C 118.82 133.90 124.43 133.32 130.01 132.53 C 133.47 131.96 136.91 132.82 140.24 133.71 C 142.51 136.00 145.08 137.84 148.19 138.80 C 146.45 136.87 145.14 134.39 142.80 133.13 C 139.87 130.11 137.10 126.80 133.43 124.63 C 130.79 122.98 127.58 123.74 124.66 123.66 C 122.02 123.79 119.34 123.28 116.73 123.79 M 119.23 141.39 C 114.72 143.29 111.91 147.49 108.50 150.77 C 108.70 151.02 109.09 151.53 109.29 151.78 C 112.67 147.89 115.90 143.22 121.16 141.82 C 125.81 140.33 130.39 142.64 134.60 144.38 C 136.68 147.55 138.84 150.70 141.58 153.34 C 139.98 149.89 137.79 146.66 134.97 144.08 C 130.60 140.75 124.43 139.05 119.23 141.39 M 148.89 146.87 C 146.57 145.87 144.30 144.73 142.09 143.48 C 140.80 143.81 139.50 144.15 138.21 144.48 C 140.38 146.01 142.08 148.12 144.30 149.58 C 147.05 151.14 150.31 151.26 153.39 151.53 C 149.30 150.05 144.93 149.28 141.26 146.83 C 141.70 145.88 142.44 145.29 143.45 145.08 C 145.18 146.16 146.98 147.11 148.80 148.03 C 151.88 145.76 154.88 143.33 157.25 140.31 C 154.33 142.32 151.61 144.60 148.89 146.87 M 74.71 249.00 C 74.54 258.99 74.55 268.98 74.70 278.97 C 76.84 278.97 78.97 278.98 81.10 278.99 C 81.11 274.60 81.18 270.22 81.39 265.84 C 82.62 270.18 83.86 274.51 85.08 278.85 C 87.39 278.92 89.70 278.98 92.00 279.04 C 92.02 269.03 91.97 259.02 92.03 249.01 C 89.93 249.01 87.83 249.01 85.73 249.02 C 85.61 253.39 85.60 257.76 85.60 262.13 C 83.96 257.83 82.48 253.47 81.08 249.08 C 78.96 249.05 76.83 249.02 74.71 249.00 M 102.45 249.54 C 99.34 250.58 97.12 253.67 97.36 256.99 C 97.38 262.49 96.96 268.05 97.66 273.52 C 99.62 279.96 108.97 280.62 113.41 276.47 C 115.88 273.61 115.22 269.49 115.44 266.00 C 115.24 261.59 116.00 256.91 114.30 252.72 C 111.87 248.91 106.46 248.31 102.45 249.54 M 119.22 249.10 C 119.23 251.01 119.24 252.93 119.24 254.85 C 120.78 254.92 122.32 255.00 123.87 255.08 C 123.87 263.06 123.81 271.04 123.90 279.02 C 126.51 278.97 129.13 278.93 131.75 278.87 C 131.55 270.93 131.61 262.99 131.71 255.05 C 133.22 255.01 134.74 254.98 136.26 254.95 C 136.24 252.97 136.22 251.00 136.20 249.03 C 130.54 248.98 124.88 248.98 119.22 249.10 M 148.71 248.99 C 148.55 258.98 148.54 268.97 148.72 278.96 C 153.41 278.93 158.15 279.37 162.81 278.68 C 164.50 278.50 166.05 277.26 166.37 275.55 C 167.01 272.26 167.05 268.81 166.36 265.53 C 165.56 264.44 164.50 263.58 163.51 262.68 C 167.53 259.30 166.75 253.06 163.19 249.64 C 158.38 249.07 153.54 248.86 148.71 248.99 M 173.95 249.08 C 172.85 259.08 171.06 268.99 169.81 278.97 C 172.30 278.97 174.79 278.96 177.29 278.95 C 177.30 277.35 177.30 275.75 177.30 274.16 C 178.77 274.13 180.25 274.11 181.74 274.10 C 181.74 275.72 181.75 277.34 181.76 278.96 C 184.26 278.97 186.76 278.98 189.26 278.98 C 188.17 268.95 186.22 259.06 184.74 249.10 C 181.14 249.01 177.54 249.01 173.95 249.08 M 192.71 249.02 C 192.55 259.00 192.54 268.99 192.72 278.97 C 197.40 278.92 202.13 279.38 206.79 278.66 C 208.50 278.43 209.92 277.02 210.26 275.34 C 210.89 272.27 210.64 269.12 210.68 266.01 C 210.59 262.09 210.91 258.16 210.49 254.25 C 210.29 251.79 208.16 249.79 205.78 249.42 C 201.46 248.67 197.06 249.04 192.71 249.02 Z" />
<path fill="#000000" opacity="1.00" d=" M 125.15 31.23 C 131.17 27.08 138.89 26.21 145.94 27.13 C 155.35 27.01 164.57 29.48 173.26 32.91 C 181.12 36.85 187.47 43.33 192.64 50.36 C 195.36 54.37 197.10 58.97 198.31 63.64 C 198.94 72.73 198.74 81.91 196.95 90.87 C 200.01 91.49 203.01 92.46 205.71 94.07 C 206.63 98.84 207.27 103.91 205.43 108.56 C 202.92 115.24 200.42 122.20 195.65 127.63 C 193.50 130.42 189.10 130.62 186.44 128.46 C 184.85 127.23 182.84 126.33 182.05 124.35 C 182.59 123.07 183.13 121.80 183.68 120.53 C 184.45 123.67 185.49 127.09 188.52 128.76 C 191.86 130.23 195.16 127.46 196.83 124.76 C 200.23 119.41 202.80 113.53 204.71 107.50 C 206.22 102.99 205.45 98.21 204.25 93.74 C 199.94 92.57 195.47 92.08 191.02 92.63 C 187.73 95.59 184.77 98.92 182.64 102.82 C 182.18 102.20 181.72 101.59 181.26 100.98 C 181.27 96.26 181.03 91.43 179.12 87.04 C 177.16 81.43 172.42 77.62 168.69 73.24 C 167.42 70.15 166.45 66.74 167.63 63.45 C 167.90 61.02 170.70 58.81 169.11 56.30 C 166.09 52.30 161.42 50.06 157.10 47.77 C 152.21 46.32 147.16 45.47 142.06 45.35 C 134.71 45.15 127.34 44.11 120.00 44.91 C 117.66 45.11 115.68 46.51 113.82 47.83 C 110.39 50.37 106.97 53.35 105.54 57.51 C 102.03 66.66 100.30 76.36 97.70 85.79 L 96.68 85.90 C 96.60 90.61 96.53 95.32 96.67 100.03 C 96.86 106.70 98.30 113.27 98.49 119.95 C 98.85 129.02 100.28 138.29 104.67 146.36 C 105.24 146.54 106.38 146.88 106.94 147.06 C 105.67 144.61 103.83 142.09 104.35 139.17 C 105.40 131.84 109.19 125.20 110.02 117.80 C 110.65 116.18 109.76 114.66 109.35 113.11 C 113.56 107.59 117.01 101.55 119.40 95.02 C 115.82 96.79 112.02 98.76 107.90 97.99 C 111.35 97.28 114.90 96.55 117.75 94.33 C 116.09 94.09 114.44 93.87 112.78 93.66 C 112.34 93.97 111.47 94.58 111.03 94.89 C 110.03 94.66 109.04 94.43 108.04 94.20 C 107.61 92.87 107.18 91.54 106.74 90.21 C 105.48 91.36 104.23 92.52 102.98 93.69 C 103.80 93.85 105.43 94.17 106.25 94.33 C 104.59 95.13 102.61 95.12 100.83 95.62 C 102.19 93.50 103.37 91.02 105.71 89.81 C 109.85 87.56 114.71 87.70 119.29 87.50 C 118.19 88.29 117.12 89.15 115.92 89.79 C 117.45 90.70 118.97 91.60 120.51 92.48 C 121.07 89.78 120.72 87.04 119.64 84.51 C 115.86 85.66 111.92 85.67 108.02 85.85 C 105.01 86.00 102.48 87.77 100.08 89.41 C 99.34 89.31 98.67 89.03 98.07 88.57 C 99.35 86.33 100.17 83.77 101.93 81.85 C 106.91 80.28 112.31 79.45 117.48 80.51 C 119.25 82.10 120.68 84.11 121.55 86.34 C 122.61 89.66 121.40 93.15 120.06 96.20 C 117.29 102.07 114.72 108.15 110.39 113.07 C 110.73 113.68 111.41 114.88 111.74 115.49 C 113.80 115.01 115.87 114.60 117.96 114.33 C 119.22 115.61 120.51 116.87 121.82 118.10 C 123.84 116.63 125.86 115.17 127.90 113.73 C 129.36 113.64 130.83 113.56 132.29 113.48 C 132.45 114.00 132.75 115.05 132.90 115.57 C 132.27 115.86 131.01 116.45 130.38 116.74 C 132.91 117.27 136.47 118.58 138.20 115.80 C 139.39 113.01 137.27 110.38 136.20 107.94 C 136.37 107.78 136.72 107.45 136.89 107.28 C 138.25 108.85 139.59 110.44 140.88 112.06 C 144.20 119.65 148.79 126.72 151.12 134.71 C 151.69 137.18 152.56 140.96 149.61 142.27 C 148.13 142.29 146.66 141.98 145.20 141.78 C 145.57 141.39 145.94 141.00 146.31 140.62 C 147.65 140.82 148.99 141.02 150.33 141.23 C 150.82 137.83 150.31 134.39 148.93 131.26 C 146.39 125.26 143.50 119.40 140.44 113.65 C 139.69 114.94 138.96 116.25 138.23 117.56 C 135.40 118.59 132.38 118.78 129.52 117.77 C 128.85 116.79 128.17 115.82 127.49 114.86 C 125.54 116.20 123.83 118.68 121.25 118.61 C 119.35 117.74 117.75 116.37 115.88 115.43 C 114.84 116.49 113.73 117.47 112.57 118.40 L 112.19 117.05 L 111.06 117.09 C 110.33 122.82 108.41 128.28 106.63 133.75 C 105.49 136.98 105.31 140.43 105.80 143.80 C 106.64 145.01 107.47 146.23 108.29 147.45 C 107.56 147.64 106.10 148.00 105.37 148.19 C 107.37 153.60 110.92 158.15 114.88 162.27 C 119.96 165.14 125.97 164.64 131.52 163.80 C 136.62 162.94 142.04 162.49 146.44 159.49 C 152.48 155.44 158.96 152.12 164.98 148.05 C 168.95 145.43 173.13 142.78 175.83 138.75 C 178.10 135.21 179.50 131.22 180.49 127.16 C 180.78 128.34 181.04 129.61 182.37 130.02 L 181.81 127.67 L 183.36 127.79 C 182.47 134.01 181.61 140.26 180.15 146.38 C 179.09 150.78 178.42 155.29 178.65 159.83 C 181.54 163.00 182.48 167.44 185.48 170.53 C 188.75 174.00 192.07 177.62 196.51 179.58 C 202.22 182.11 207.29 185.97 213.27 187.91 C 221.30 190.60 229.43 193.18 236.88 197.28 C 243.09 200.65 249.67 203.25 256.16 206.00 C 262.96 208.85 270.51 210.07 276.62 214.41 C 281.30 217.36 283.79 222.89 284.25 228.25 C 282.52 224.57 281.05 220.76 279.02 217.23 C 276.75 218.43 274.05 219.48 272.92 221.99 C 271.54 225.03 271.03 228.42 269.37 231.36 C 269.66 228.04 270.25 224.66 271.91 221.73 C 273.17 219.47 275.34 217.95 277.26 216.29 C 271.92 211.37 264.45 210.47 257.97 207.80 C 251.88 205.29 245.76 202.84 239.81 200.00 C 231.12 195.08 221.65 191.78 212.22 188.57 C 207.03 186.75 202.65 183.20 197.40 181.48 C 199.38 187.35 202.77 192.64 206.22 197.74 C 210.72 202.99 215.48 208.03 220.01 213.26 C 217.56 217.42 212.65 219.43 210.38 223.82 C 211.89 225.55 213.37 227.32 214.74 229.17 C 209.26 224.71 204.71 219.23 199.28 214.71 C 193.29 210.13 189.71 203.00 182.93 199.35 C 182.00 203.22 181.43 207.16 180.70 211.08 C 180.03 214.67 178.75 218.13 178.30 221.78 C 177.71 226.43 177.67 231.14 177.67 235.83 L 177.28 235.83 C 177.41 230.98 177.28 226.12 177.07 221.28 C 175.91 222.25 175.17 224.09 173.60 224.41 C 167.28 223.22 162.16 219.08 156.95 215.59 C 156.00 221.51 155.87 227.52 155.17 233.48 C 153.42 227.11 156.59 220.57 155.23 214.19 C 153.33 211.85 150.97 209.96 148.94 207.75 C 145.11 206.47 141.06 206.55 137.23 207.80 C 137.45 214.37 136.66 220.92 136.22 227.47 C 134.88 221.29 135.81 214.93 135.30 208.67 C 132.88 208.55 130.68 210.02 128.28 209.49 C 128.07 209.93 127.64 210.81 127.42 211.25 C 124.09 212.72 120.78 214.23 117.50 215.80 C 117.66 219.26 117.71 222.77 118.70 226.12 C 119.38 228.48 120.07 230.85 120.16 233.32 C 117.67 228.45 116.97 222.98 116.35 217.62 C 114.14 217.77 111.93 217.91 109.73 218.06 C 108.53 210.14 107.88 202.08 108.85 194.09 C 109.11 193.86 109.63 193.39 109.89 193.16 C 109.86 192.23 109.82 190.38 109.79 189.46 C 106.63 193.42 104.23 197.99 100.53 201.51 C 95.28 206.57 90.50 212.13 84.83 216.73 C 80.21 220.50 76.23 225.15 70.82 227.84 C 74.74 223.89 79.20 220.54 83.35 216.84 C 82.09 214.72 80.79 212.63 79.47 210.55 C 77.69 209.53 75.91 208.52 74.11 207.53 C 80.19 200.78 83.03 192.05 86.03 183.67 C 80.20 186.38 74.36 189.19 68.15 190.94 C 61.99 192.71 55.78 194.35 49.79 196.65 C 45.75 198.19 41.90 200.15 37.92 201.81 C 30.23 205.12 22.19 207.83 15.25 212.61 C 20.38 217.51 24.14 223.93 24.88 231.07 C 22.77 227.08 21.70 222.61 19.31 218.76 C 17.79 216.25 15.15 214.80 12.70 213.35 C 7.51 217.50 6.21 224.23 4.86 230.36 C 4.17 224.95 6.50 219.82 9.11 215.24 C 13.27 211.71 18.32 209.70 23.11 207.20 C 30.14 203.80 37.46 201.05 44.53 197.75 C 57.10 191.92 71.34 190.48 83.46 183.59 C 87.27 181.50 90.68 178.80 94.04 176.07 C 98.35 173.14 102.71 170.10 105.94 165.93 C 108.05 164.09 108.51 161.09 110.25 159.03 C 105.28 150.74 100.55 142.02 98.80 132.41 C 97.07 124.71 97.64 116.76 96.36 109.01 C 95.00 100.72 95.65 92.31 95.54 83.97 C 95.71 75.41 95.54 66.39 99.46 58.55 C 102.06 53.61 104.45 48.44 108.38 44.37 C 113.11 38.98 119.07 34.94 125.15 31.23 M 109.15 90.15 C 108.69 91.55 109.17 92.02 110.57 91.55 C 111.03 90.14 110.56 89.67 109.15 90.15 M 114.00 89.85 C 114.01 91.06 113.71 92.12 113.07 93.05 C 114.72 93.12 116.37 93.19 118.02 93.26 L 117.89 91.93 C 117.48 91.83 116.66 91.64 116.25 91.54 L 116.15 90.88 L 115.37 90.62 L 115.28 89.86 L 114.00 89.85 M 182.27 99.26 L 182.26 99.72 L 182.71 99.73 L 182.73 99.28 L 182.27 99.26 M 180.33 130.26 C 179.44 136.48 175.44 141.78 170.45 145.41 C 164.37 149.75 157.94 153.59 151.54 157.44 C 148.20 159.43 145.03 161.92 141.22 162.96 C 132.75 164.75 124.01 166.42 115.37 164.76 C 116.95 169.36 119.32 173.80 123.41 176.63 C 130.07 182.77 138.08 187.01 145.92 191.41 C 146.39 191.50 147.33 191.69 147.80 191.79 C 151.24 189.19 154.90 186.89 158.55 184.59 C 162.98 181.82 166.64 178.07 170.66 174.78 C 172.90 172.85 175.55 170.93 176.22 167.86 C 177.50 162.47 176.72 156.85 177.72 151.42 C 178.82 145.24 180.26 139.14 181.36 132.97 C 181.10 132.29 180.59 130.93 180.33 130.26 M 110.39 161.11 C 109.22 164.16 106.89 166.58 105.27 169.40 C 101.59 173.79 96.07 176.15 92.22 180.39 C 91.70 180.42 90.66 180.46 90.14 180.48 C 89.61 180.90 88.56 181.73 88.03 182.15 C 84.07 190.30 82.51 199.90 75.87 206.50 C 79.03 209.24 81.89 212.30 84.34 215.69 C 87.08 213.70 89.68 211.50 91.99 209.01 C 95.90 204.90 100.07 201.00 103.60 196.57 C 106.15 193.13 108.06 189.20 110.94 186.03 C 108.84 180.12 108.13 173.84 108.59 167.60 C 109.31 166.27 110.04 164.94 110.79 163.62 C 110.75 170.02 109.24 176.64 111.64 182.82 C 112.56 181.62 113.47 180.41 114.38 179.20 C 117.76 180.52 121.28 181.43 124.73 182.56 C 130.44 184.48 135.20 188.35 139.57 192.38 C 141.56 194.29 144.43 194.48 146.97 195.12 C 148.65 194.49 150.49 194.25 152.02 193.27 C 161.33 190.45 171.19 189.35 180.90 189.63 C 181.62 180.34 181.07 171.02 180.09 161.78 C 179.62 161.84 178.67 161.96 178.20 162.02 C 177.49 165.00 177.99 168.48 175.95 171.00 C 173.68 173.73 170.73 175.77 168.11 178.13 C 161.92 183.73 154.85 188.22 147.92 192.81 C 143.16 191.41 139.08 188.52 134.80 186.13 C 129.81 183.28 125.43 179.55 121.10 175.81 C 116.90 172.26 115.22 166.84 112.77 162.11 C 111.73 162.25 110.93 161.91 110.39 161.11 M 181.95 168.42 C 181.72 178.28 181.68 188.18 182.89 197.98 C 186.28 200.59 189.68 203.25 192.46 206.54 C 194.60 209.09 196.88 211.57 199.63 213.48 C 203.27 216.00 206.15 219.39 209.25 222.50 C 212.54 219.48 215.72 216.35 218.74 213.06 C 214.35 208.51 210.25 203.69 206.17 198.87 C 202.03 193.39 198.81 187.25 196.10 180.95 C 190.57 177.73 186.70 172.57 181.95 168.42 Z" />
<path fill="#000000" opacity="1.00" d=" M 135.59 78.69 C 142.54 77.61 150.18 77.16 156.58 80.57 C 159.06 83.06 161.57 85.52 164.19 87.87 C 164.33 88.40 164.62 89.47 164.76 90.00 C 160.68 88.14 156.82 85.71 152.48 84.46 C 147.93 83.55 143.24 83.69 138.63 83.34 C 137.55 82.44 136.47 81.55 135.39 80.67 C 135.44 80.17 135.54 79.18 135.59 78.69 Z" />
<path fill="#000000" opacity="1.00" d=" M 136.80 91.47 C 138.38 89.84 139.89 87.85 142.22 87.32 C 145.63 86.46 149.06 87.69 152.33 88.57 L 151.80 88.86 C 150.48 89.38 149.61 90.61 149.41 91.98 C 150.68 92.09 152.19 91.98 153.01 90.84 C 152.71 90.35 152.10 89.36 151.80 88.86 C 153.63 89.29 155.32 90.04 156.76 91.28 C 152.23 93.04 147.34 93.20 142.57 92.50 C 142.62 90.94 142.67 89.38 142.71 87.82 C 141.36 88.81 140.02 89.79 138.68 90.79 C 139.47 91.07 144.32 91.40 140.84 92.14 L 139.55 92.55 C 144.37 95.34 149.96 95.57 155.38 95.65 C 148.99 98.01 141.97 95.41 136.80 91.47 M 145.14 88.11 C 143.80 88.75 143.77 89.42 145.05 90.13 C 146.39 89.49 146.42 88.82 145.14 88.11 Z" />
<path fill="#ffffff" opacity="1.00" d=" M 145.14 88.11 C 146.42 88.82 146.39 89.49 145.05 90.13 C 143.77 89.42 143.80 88.75 145.14 88.11 Z" />
<path fill="#ffffff" opacity="1.00" d=" M 149.41 91.98 C 149.61 90.61 150.48 89.38 151.80 88.86 C 152.10 89.36 152.71 90.35 153.01 90.84 C 152.19 91.98 150.68 92.09 149.41 91.98 Z" />
<path fill="#ffffff" opacity="1.00" d=" M 109.15 90.15 C 110.56 89.67 111.03 90.14 110.57 91.55 C 109.17 92.02 108.69 91.55 109.15 90.15 Z" />
<path fill="#ffffff" opacity="1.00" d=" M 114.00 89.85 L 115.28 89.86 L 115.37 90.62 L 116.15 90.88 L 116.25 91.54 C 116.66 91.64 117.48 91.83 117.89 91.93 L 118.02 93.26 C 116.37 93.19 114.72 93.12 113.07 93.05 C 113.71 92.12 114.01 91.06 114.00 89.85 Z" />
<path fill="#000000" opacity="1.00" d=" M 156.76 91.28 L 157.50 90.92 L 158.21 91.38 L 158.20 92.21 L 157.44 92.55 L 156.73 92.09 L 156.76 91.28 Z" />
<path fill="#000000" opacity="1.00" d=" M 158.20 92.21 L 158.71 92.11 L 158.84 92.62 L 158.33 92.71 L 158.20 92.21 Z" />
<path fill="#000000" opacity="1.00" d=" M 158.84 92.62 C 160.19 91.71 162.92 93.19 163.22 94.72 C 161.59 95.07 159.58 94.11 158.84 92.62 Z" />
<path fill="#000000" opacity="1.00" d=" M 164.30 92.03 L 165.05 91.67 L 165.72 92.14 L 165.65 92.97 L 164.90 93.32 L 164.23 92.85 L 164.30 92.03 Z" />
<path fill="#000000" opacity="1.00" d=" M 165.71 94.38 L 166.12 94.65 L 165.85 95.05 L 165.42 94.79 L 165.71 94.38 Z" />
<path fill="#000000" opacity="1.00" d=" M 187.19 103.81 C 190.98 100.17 194.22 95.54 199.46 93.91 C 200.46 95.08 200.60 97.37 202.50 97.37 C 202.58 97.97 202.75 99.16 202.83 99.75 L 201.47 99.69 C 201.37 103.50 201.36 107.32 201.09 111.13 C 200.29 115.76 197.91 120.16 194.02 122.90 C 192.94 121.98 191.86 121.06 190.78 120.15 C 191.99 120.64 193.20 121.12 194.42 121.61 C 196.56 119.16 198.97 116.59 199.40 113.21 C 200.21 107.32 200.26 101.34 200.14 95.41 C 198.16 95.77 195.97 95.96 194.56 97.60 C 192.40 99.91 189.49 101.76 188.21 104.72 C 190.76 104.59 193.30 104.45 195.85 104.32 C 195.30 104.77 194.75 105.22 194.20 105.68 C 195.71 105.96 196.18 108.08 196.47 109.38 C 194.36 109.15 194.67 112.47 193.85 113.86 C 194.70 113.28 195.55 112.71 196.42 112.15 C 195.33 114.06 194.12 115.90 192.81 117.67 C 191.13 118.66 189.28 118.62 187.40 118.41 C 186.66 117.66 185.91 116.92 185.17 116.18 L 186.41 116.43 C 187.68 113.40 188.35 110.17 188.67 106.91 C 188.18 105.88 187.68 104.84 187.19 103.81 M 189.08 105.90 C 188.82 109.73 188.39 113.54 187.72 117.32 C 189.68 116.89 191.63 116.45 193.58 116.01 C 192.85 113.67 192.05 111.36 191.20 109.07 L 190.33 108.76 C 190.76 107.40 190.34 106.45 189.08 105.90 Z" />
<path fill="#000000" opacity="1.00" d=" M 163.22 94.72 L 163.86 94.27 C 164.25 94.40 165.03 94.66 165.42 94.79 C 165.96 96.42 162.78 96.29 163.22 94.72 Z" />
<path fill="#b5b5b5" opacity="1.00" d=" M 182.27 99.26 L 182.73 99.28 L 182.71 99.73 L 182.26 99.72 L 182.27 99.26 Z" />
<path fill="#b5b5b5" opacity="1.00" d=" M 201.47 99.69 L 202.83 99.75 C 203.17 103.62 203.44 107.78 201.09 111.13 C 201.36 107.32 201.37 103.50 201.47 99.69 Z" />
<path fill="#000000" opacity="1.00" d=" M 126.22 105.12 C 128.91 105.48 129.35 109.29 132.83 108.50 C 133.07 108.80 133.53 109.39 133.77 109.69 C 132.59 109.64 131.41 109.59 130.23 109.54 C 129.82 108.52 128.67 107.57 127.31 107.64 C 127.29 107.28 127.27 106.55 127.25 106.18 L 126.07 105.94 L 126.22 105.12 Z" />
<path fill="#ffffff" opacity="1.00" d=" M 189.08 105.90 C 190.34 106.45 190.76 107.40 190.33 108.76 L 191.20 109.07 C 192.05 111.36 192.85 113.67 193.58 116.01 C 191.63 116.45 189.68 116.89 187.72 117.32 C 188.39 113.54 188.82 109.73 189.08 105.90 Z" />
<path fill="#000000" opacity="1.00" d=" M 116.73 123.79 C 119.34 123.28 122.02 123.79 124.66 123.66 C 127.58 123.74 130.79 122.98 133.43 124.63 C 137.10 126.80 139.87 130.11 142.80 133.13 C 145.14 134.39 146.45 136.87 148.19 138.80 C 145.08 137.84 142.51 136.00 140.24 133.71 C 136.91 132.82 133.47 131.96 130.01 132.53 C 124.43 133.32 118.82 133.90 113.19 134.10 C 118.79 131.80 125.11 132.80 130.66 130.29 C 123.96 129.13 115.54 128.95 110.87 134.80 C 109.56 136.88 108.48 139.09 107.14 141.15 C 107.50 136.67 110.20 132.98 112.08 129.05 C 113.18 126.99 114.40 124.65 116.73 123.79 M 112.48 131.32 C 116.45 130.17 120.36 128.05 124.62 128.57 C 129.32 129.03 133.94 130.04 138.52 131.18 C 136.50 128.24 133.97 124.61 129.98 124.68 C 126.01 124.94 122.04 125.07 118.07 124.82 C 114.44 124.46 113.55 128.74 112.48 131.32 Z" />
<path fill="#b5b5b5" opacity="1.00" d=" M 112.48 131.32 C 113.55 128.74 114.44 124.46 118.07 124.82 C 122.04 125.07 126.01 124.94 129.98 124.68 C 133.97 124.61 136.50 128.24 138.52 131.18 C 133.94 130.04 129.32 129.03 124.62 128.57 C 120.36 128.05 116.45 130.17 112.48 131.32 Z" />
<path fill="#b5b5b5" opacity="1.00" d=" M 110.87 134.80 C 115.54 128.95 123.96 129.13 130.66 130.29 C 125.11 132.80 118.79 131.80 113.19 134.10 C 112.61 134.27 111.45 134.63 110.87 134.80 Z" />
<path fill="#ffffff" opacity="1.00" d=" M 180.33 130.26 C 180.59 130.93 181.10 132.29 181.36 132.97 C 180.26 139.14 178.82 145.24 177.72 151.42 C 176.72 156.85 177.50 162.47 176.22 167.86 C 175.55 170.93 172.90 172.85 170.66 174.78 C 166.64 178.07 162.98 181.82 158.55 184.59 C 154.90 186.89 151.24 189.19 147.80 191.79 C 147.33 191.69 146.39 191.50 145.92 191.41 C 138.08 187.01 130.07 182.77 123.41 176.63 C 119.32 173.80 116.95 169.36 115.37 164.76 C 124.01 166.42 132.75 164.75 141.22 162.96 C 145.03 161.92 148.20 159.43 151.54 157.44 C 157.94 153.59 164.37 149.75 170.45 145.41 C 175.44 141.78 179.44 136.48 180.33 130.26 Z" />
<path fill="#000000" opacity="1.00" d=" M 119.23 141.39 C 124.43 139.05 130.60 140.75 134.97 144.08 C 137.79 146.66 139.98 149.89 141.58 153.34 C 138.84 150.70 136.68 147.55 134.60 144.38 C 130.39 142.64 125.81 140.33 121.16 141.82 C 115.90 143.22 112.67 147.89 109.29 151.78 C 109.09 151.53 108.70 151.02 108.50 150.77 C 111.91 147.49 114.72 143.29 119.23 141.39 Z" />
<path fill="#000000" opacity="1.00" d=" M 148.89 146.87 C 151.61 144.60 154.33 142.32 157.25 140.31 C 154.88 143.33 151.88 145.76 148.80 148.03 C 146.98 147.11 145.18 146.16 143.45 145.08 C 142.44 145.29 141.70 145.88 141.26 146.83 C 144.93 149.28 149.30 150.05 153.39 151.53 C 150.31 151.26 147.05 151.14 144.30 149.58 C 142.08 148.12 140.38 146.01 138.21 144.48 C 139.50 144.15 140.80 143.81 142.09 143.48 C 144.30 144.73 146.57 145.87 148.89 146.87 Z" />
<path fill="#ffffff" opacity="1.00" d=" M 110.39 161.11 C 110.93 161.91 111.73 162.25 112.77 162.11 C 115.22 166.84 116.90 172.26 121.10 175.81 C 125.43 179.55 129.81 183.28 134.80 186.13 C 139.08 188.52 143.16 191.41 147.92 192.81 C 154.85 188.22 161.92 183.73 168.11 178.13 C 170.73 175.77 173.68 173.73 175.95 171.00 C 177.99 168.48 177.49 165.00 178.20 162.02 C 178.67 161.96 179.62 161.84 180.09 161.78 C 181.07 171.02 181.62 180.34 180.90 189.63 C 171.19 189.35 161.33 190.45 152.02 193.27 C 150.49 194.25 148.65 194.49 146.97 195.12 C 144.43 194.48 141.56 194.29 139.57 192.38 C 135.20 188.35 130.44 184.48 124.73 182.56 C 121.28 181.43 117.76 180.52 114.38 179.20 C 113.47 180.41 112.56 181.62 111.64 182.82 C 109.24 176.64 110.75 170.02 110.79 163.62 C 110.04 164.94 109.31 166.27 108.59 167.60 C 108.13 173.84 108.84 180.12 110.94 186.03 C 108.06 189.20 106.15 193.13 103.60 196.57 C 100.07 201.00 95.90 204.90 91.99 209.01 C 89.68 211.50 87.08 213.70 84.34 215.69 C 81.89 212.30 79.03 209.24 75.87 206.50 C 82.51 199.90 84.07 190.30 88.03 182.15 C 88.56 181.73 89.61 180.90 90.14 180.48 C 90.66 180.46 91.70 180.42 92.22 180.39 C 96.07 176.15 101.59 173.79 105.27 169.40 C 106.89 166.58 109.22 164.16 110.39 161.11 Z" />
<path fill="#ffffff" opacity="1.00" d=" M 181.95 168.42 C 186.70 172.57 190.57 177.73 196.10 180.95 C 198.81 187.25 202.03 193.39 206.17 198.87 C 210.25 203.69 214.35 208.51 218.74 213.06 C 215.72 216.35 212.54 219.48 209.25 222.50 C 206.15 219.39 203.27 216.00 199.63 213.48 C 196.88 211.57 194.60 209.09 192.46 206.54 C 189.68 203.25 186.28 200.59 182.89 197.98 C 181.68 188.18 181.72 178.28 181.95 168.42 Z" />
<path fill="#fe0000" opacity="1.00" d=" M 74.71 249.00 C 76.83 249.02 78.96 249.05 81.08 249.08 C 82.48 253.47 83.96 257.83 85.60 262.13 C 85.60 257.76 85.61 253.39 85.73 249.02 C 87.83 249.01 89.93 249.01 92.03 249.01 C 91.97 259.02 92.02 269.03 92.00 279.04 C 89.70 278.98 87.39 278.92 85.08 278.85 C 83.86 274.51 82.62 270.18 81.39 265.84 C 81.18 270.22 81.11 274.60 81.10 278.99 C 78.97 278.98 76.84 278.97 74.70 278.97 C 74.55 268.98 74.54 258.99 74.71 249.00 Z" />
<path fill="#fe0000" opacity="1.00" d=" M 102.45 249.54 C 106.46 248.31 111.87 248.91 114.30 252.72 C 116.00 256.91 115.24 261.59 115.44 266.00 C 115.22 269.49 115.88 273.61 113.41 276.47 C 108.97 280.62 99.62 279.96 97.66 273.52 C 96.96 268.05 97.38 262.49 97.36 256.99 C 97.12 253.67 99.34 250.58 102.45 249.54 M 105.98 274.84 C 108.72 271.88 107.35 267.62 107.66 264.00 C 107.36 260.38 108.71 256.12 105.97 253.15 C 104.67 260.28 104.69 267.72 105.98 274.84 Z" />
<path fill="#fe0000" opacity="1.00" d=" M 119.22 249.10 C 124.88 248.98 130.54 248.98 136.20 249.03 C 136.22 251.00 136.24 252.97 136.26 254.95 C 134.74 254.98 133.22 255.01 131.71 255.05 C 131.61 262.99 131.55 270.93 131.75 278.87 C 129.13 278.93 126.51 278.97 123.90 279.02 C 123.81 271.04 123.87 263.06 123.87 255.08 C 122.32 255.00 120.78 254.92 119.24 254.85 C 119.24 252.93 119.23 251.01 119.22 249.10 Z" />
<path fill="#fe0000" opacity="1.00" d=" M 148.71 248.99 C 153.54 248.86 158.38 249.07 163.19 249.64 C 166.75 253.06 167.53 259.30 163.51 262.68 C 164.50 263.58 165.56 264.44 166.36 265.53 C 167.05 268.81 167.01 272.26 166.37 275.55 C 166.05 277.26 164.50 278.50 162.81 278.68 C 158.15 279.37 153.41 278.93 148.72 278.96 C 148.54 268.97 148.55 258.98 148.71 248.99 M 156.32 254.23 C 156.32 256.08 156.32 257.92 156.31 259.77 C 156.92 259.79 158.14 259.82 158.75 259.83 C 158.76 257.95 158.77 256.06 158.77 254.18 C 158.16 254.19 156.93 254.22 156.32 254.23 M 156.38 264.76 C 156.28 267.75 156.28 270.73 156.34 273.72 C 156.93 273.75 158.13 273.79 158.73 273.81 C 158.93 271.07 158.94 268.31 158.63 265.57 C 158.07 265.37 156.94 264.96 156.38 264.76 Z" />
<path fill="#fe0000" opacity="1.00" d=" M 173.95 249.08 C 177.54 249.01 181.14 249.01 184.74 249.10 C 186.22 259.06 188.17 268.95 189.26 278.98 C 186.76 278.98 184.26 278.97 181.76 278.96 C 181.75 277.34 181.74 275.72 181.74 274.10 C 180.25 274.11 178.77 274.13 177.30 274.16 C 177.30 275.75 177.30 277.35 177.29 278.95 C 174.79 278.96 172.30 278.97 169.81 278.97 C 171.06 268.99 172.85 259.08 173.95 249.08 M 179.52 255.90 C 178.63 260.22 178.15 264.61 177.79 269.01 C 178.63 269.01 180.32 269.01 181.16 269.01 C 180.88 264.62 180.48 260.21 179.52 255.90 Z" />
<path fill="#fe0000" opacity="1.00" d=" M 192.71 249.02 C 197.06 249.04 201.46 248.67 205.78 249.42 C 208.16 249.79 210.29 251.79 210.49 254.25 C 210.91 258.16 210.59 262.09 210.68 266.01 C 210.64 269.12 210.89 272.27 210.26 275.34 C 209.92 277.02 208.50 278.43 206.79 278.66 C 202.13 279.38 197.40 278.92 192.72 278.97 C 192.54 268.99 192.55 259.00 192.71 249.02 M 200.31 254.20 C 200.39 260.73 200.39 267.26 200.32 273.79 C 200.91 273.80 202.09 273.82 202.68 273.83 C 202.88 267.28 202.88 260.72 202.72 254.16 C 202.12 254.17 200.91 254.19 200.31 254.20 Z" />
<path fill="#ffffff" opacity="1.00" d=" M 105.98 274.84 C 104.69 267.72 104.67 260.28 105.97 253.15 C 108.71 256.12 107.36 260.38 107.66 264.00 C 107.35 267.62 108.72 271.88 105.98 274.84 Z" />
<path fill="#ffffff" opacity="1.00" d=" M 156.32 254.23 C 156.93 254.22 158.16 254.19 158.77 254.18 C 158.77 256.06 158.76 257.95 158.75 259.83 C 158.14 259.82 156.92 259.79 156.31 259.77 C 156.32 257.92 156.32 256.08 156.32 254.23 Z" />
<path fill="#ffffff" opacity="1.00" d=" M 200.31 254.20 C 200.91 254.19 202.12 254.17 202.72 254.16 C 202.88 260.72 202.88 267.28 202.68 273.83 C 202.09 273.82 200.91 273.80 200.32 273.79 C 200.39 267.26 200.39 260.73 200.31 254.20 Z" />
<path fill="#ffffff" opacity="1.00" d=" M 179.52 255.90 C 180.48 260.21 180.88 264.62 181.16 269.01 C 180.32 269.01 178.63 269.01 177.79 269.01 C 178.15 264.61 178.63 260.22 179.52 255.90 Z" />
<path fill="#ffffff" opacity="1.00" d=" M 156.38 264.76 C 156.94 264.96 158.07 265.37 158.63 265.57 C 158.94 268.31 158.93 271.07 158.73 273.81 C 158.13 273.79 156.93 273.75 156.34 273.72 C 156.28 270.73 156.28 267.75 156.38 264.76 Z" />
</svg>
