<?xml version="1.0" encoding="UTF-8" ?>
<!DOCTYPE svg PUBLIC "-//W3C//DTD SVG 1.1//EN" "http://www.w3.org/Graphics/SVG/1.1/DTD/svg11.dtd">
<svg width="692pt" height="540pt" viewBox="0 0 692 540" version="1.1" xmlns="http://www.w3.org/2000/svg">
<g id="#ffffffff">
<path fill="#ffffff" opacity="1.00" d=" M 173.91 91.42 C 177.35 92.19 180.88 91.82 184.35 92.26 C 183.45 94.55 182.78 96.92 183.62 99.35 C 183.18 99.98 182.73 100.61 182.27 101.23 C 180.23 100.81 178.16 100.24 176.05 100.46 C 177.07 105.92 175.38 111.22 175.14 116.63 C 177.35 117.64 178.82 115.72 180.13 114.29 C 181.50 116.09 182.89 117.90 183.95 119.90 C 184.48 124.21 183.38 128.49 183.30 132.77 C 183.29 135.07 186.01 136.52 187.69 134.73 C 184.00 133.85 186.83 131.80 188.30 130.23 C 190.13 129.88 192.05 129.84 193.85 130.36 C 192.37 132.85 194.63 134.98 195.43 137.25 C 195.05 138.67 193.28 139.87 193.86 141.39 C 196.39 142.43 196.75 138.22 199.39 138.56 C 206.82 135.48 214.84 135.25 222.76 134.78 C 225.42 138.73 224.21 143.22 224.68 147.49 C 228.18 148.48 231.87 148.07 235.45 148.43 C 234.99 150.36 234.41 152.27 233.97 154.21 C 231.73 159.66 231.82 165.48 233.14 171.15 C 233.66 176.13 230.47 180.83 232.36 185.81 C 232.52 188.64 236.07 187.74 237.98 188.28 C 241.42 192.79 248.59 192.08 250.32 186.46 C 251.29 185.37 252.22 184.22 252.81 182.87 C 253.99 182.18 255.18 181.52 256.36 180.82 C 254.16 178.10 250.45 181.49 248.55 178.45 C 244.55 175.60 247.66 170.57 249.15 167.16 C 251.16 165.05 254.21 164.13 256.82 162.89 C 260.29 163.85 264.16 165.63 264.32 169.76 C 265.20 174.37 271.58 171.26 271.08 167.45 C 271.23 167.13 271.51 166.50 271.66 166.19 C 274.88 167.97 277.08 164.55 279.56 163.06 C 279.65 164.85 279.59 166.66 279.81 168.45 C 280.09 171.51 284.74 173.45 286.71 170.76 C 287.88 169.03 287.29 165.21 290.26 165.73 C 293.12 166.16 294.41 163.49 295.64 161.44 C 296.20 163.18 296.72 166.79 299.33 165.18 C 302.86 162.75 306.89 162.27 311.07 162.40 C 310.21 160.98 307.55 158.82 309.47 157.19 C 313.83 155.30 311.52 147.78 307.03 148.01 C 302.31 148.40 304.27 142.89 304.87 140.10 L 305.94 140.14 C 307.86 140.24 310.26 140.36 311.55 138.62 C 312.02 135.82 310.56 133.22 310.01 130.54 C 312.13 129.01 312.57 126.54 311.87 124.12 C 303.65 126.38 295.31 123.61 286.97 124.43 C 286.92 122.43 287.64 120.52 289.19 119.21 C 294.28 114.37 299.05 109.20 304.24 104.47 C 311.75 115.13 320.04 125.33 325.88 137.05 C 334.73 148.57 340.69 162.50 341.92 177.05 C 346.87 196.92 344.78 217.51 343.56 237.67 C 341.64 245.45 337.06 253.19 338.62 261.43 C 336.05 267.49 329.17 268.55 325.15 273.15 C 319.65 277.65 310.37 278.53 308.24 286.25 C 305.24 287.68 301.85 288.22 298.99 290.01 C 293.92 293.00 287.93 293.79 282.82 296.73 C 274.66 298.35 266.34 299.31 258.01 298.99 C 239.80 298.83 221.55 299.31 203.38 298.75 C 203.12 297.81 202.50 297.40 201.52 297.54 C 198.09 297.59 195.49 294.76 192.11 294.57 C 186.71 293.99 180.62 293.66 176.61 289.48 C 174.12 286.67 170.30 285.83 167.53 283.45 C 161.70 277.26 155.40 271.48 150.56 264.44 C 145.58 260.86 143.59 254.91 141.75 249.34 C 139.67 243.28 134.89 238.16 134.49 231.57 C 132.71 217.43 128.54 203.77 126.18 189.74 C 125.93 186.64 125.68 183.42 126.40 180.37 C 132.16 164.65 128.90 146.16 139.05 132.03 C 140.97 126.17 144.93 121.23 146.25 115.19 C 149.28 110.07 153.84 106.16 157.71 101.71 C 158.51 101.19 159.46 99.39 160.54 100.30 C 161.44 101.22 162.32 102.16 163.28 103.02 C 164.75 101.95 166.01 100.62 167.51 99.59 C 170.27 99.13 174.01 100.63 175.72 97.59 C 177.71 95.36 175.07 93.24 173.91 91.42 M 314.12 178.07 C 314.61 182.26 313.03 185.86 310.98 189.38 C 309.12 189.78 309.49 191.54 309.50 193.01 C 307.92 191.72 308.46 189.65 308.34 187.87 C 304.54 187.69 305.57 192.22 304.64 194.67 C 303.94 196.67 306.09 198.54 305.15 200.51 C 303.78 203.99 304.41 207.94 305.65 211.36 C 308.27 212.36 311.25 212.26 313.61 213.94 C 313.03 220.54 309.98 226.62 306.44 232.10 C 299.46 227.81 293.09 235.39 285.93 234.04 C 282.03 234.14 278.57 232.27 275.02 230.96 C 274.67 231.21 273.99 231.71 273.65 231.96 C 275.65 235.14 279.73 236.39 281.33 239.85 C 281.76 240.37 281.81 241.56 282.82 241.25 C 284.98 244.52 288.76 244.43 292.12 243.37 C 291.97 244.35 291.83 245.80 293.12 246.03 C 293.81 242.18 298.74 245.57 301.28 244.01 C 301.77 239.97 306.99 244.49 309.12 242.09 C 310.95 241.48 309.21 239.44 310.61 238.65 C 312.92 237.56 309.33 235.49 311.05 234.07 C 313.06 231.90 312.61 227.53 316.22 227.27 C 315.67 228.90 320.33 227.85 321.83 227.84 C 322.57 229.51 323.56 231.42 325.57 231.73 C 326.43 227.90 329.98 225.43 333.24 223.70 C 331.80 221.58 333.95 219.29 332.56 217.15 C 333.73 217.44 334.89 217.77 336.07 218.03 C 335.62 216.81 334.53 216.13 333.56 215.39 C 334.32 213.40 336.25 211.40 335.00 209.20 C 333.97 206.63 332.60 202.60 335.76 201.01 C 335.61 199.52 335.07 198.07 334.26 196.82 C 330.64 196.85 326.22 196.62 322.34 195.92 C 323.15 195.00 324.03 194.13 324.88 193.24 C 322.37 193.46 319.85 193.88 317.33 193.59 C 317.19 190.84 321.38 188.56 318.54 186.07 C 317.55 189.43 316.93 185.12 315.33 185.27 C 314.71 183.13 315.97 178.99 314.12 178.07 Z" />
</g>
<g id="#070707ff">
<path fill="#070707" opacity="1.00" d=" M 497.33 5.13 C 500.07 3.97 502.87 6.17 503.07 8.98 C 504.26 15.73 508.59 21.64 508.25 28.64 C 510.89 31.21 513.49 33.84 514.56 37.48 C 516.56 40.02 516.95 44.14 513.68 45.83 C 508.99 46.87 504.32 45.45 500.40 42.90 C 498.95 47.32 499.10 51.95 498.81 56.52 C 497.10 57.62 495.40 59.52 493.17 59.00 C 489.23 57.13 485.89 54.03 483.81 50.19 C 482.47 47.26 478.92 46.36 477.57 43.43 C 475.94 40.14 472.80 37.94 471.22 34.65 C 469.80 31.98 472.67 27.97 475.65 29.15 C 479.46 32.79 482.22 37.38 485.59 41.41 C 488.03 43.29 489.89 45.71 491.67 48.20 C 492.99 43.67 492.95 38.97 493.15 34.30 C 496.99 28.59 502.41 35.96 506.18 38.15 C 505.91 35.19 502.79 33.88 501.21 31.66 C 501.27 23.87 496.74 17.14 495.28 9.61 C 494.24 7.69 495.92 6.19 497.33 5.13 Z" />
<path fill="#070707" opacity="1.00" d=" M 420.34 25.13 C 421.89 24.46 423.51 25.37 424.30 26.73 C 427.12 33.45 430.26 40.15 431.69 47.31 C 435.90 53.27 436.22 60.96 436.02 68.01 C 436.36 71.41 431.38 73.69 429.23 70.77 C 426.65 67.77 422.25 68.21 419.31 65.74 C 413.63 62.74 409.44 57.41 403.00 55.88 C 402.85 57.66 403.01 59.47 404.00 61.01 C 406.52 65.46 408.00 70.36 409.83 75.10 C 409.84 78.69 411.46 83.68 407.67 85.89 C 405.75 86.70 404.21 85.08 403.18 83.69 C 403.28 75.84 399.02 68.93 396.13 61.89 C 396.44 56.75 394.11 51.95 390.77 48.17 C 388.47 45.66 390.47 40.68 394.02 40.90 C 397.55 40.64 400.05 43.44 402.27 45.74 C 404.56 48.41 408.09 49.27 411.02 51.01 C 415.69 54.82 420.97 57.81 426.12 60.96 C 426.57 60.98 427.48 61.03 427.94 61.05 C 428.72 57.09 426.70 53.54 424.66 50.34 C 423.32 44.22 421.08 38.27 418.32 32.62 C 417.31 30.01 417.70 26.63 420.34 25.13 Z" />
<path fill="#070707" opacity="1.00" d=" M 250.75 102.86 C 255.96 91.52 271.97 89.98 281.68 96.10 C 283.46 98.77 287.50 100.32 287.10 104.00 C 287.88 110.19 281.62 114.67 276.43 116.46 C 269.57 117.52 261.73 117.98 255.81 113.66 C 253.25 110.69 248.89 107.27 250.75 102.86 M 263.36 96.33 C 259.56 97.23 255.69 99.54 254.00 103.12 C 252.61 107.84 257.02 111.42 260.94 112.90 C 264.49 111.58 268.27 110.75 271.64 109.01 C 271.32 107.50 270.57 105.03 272.98 104.96 C 275.32 105.19 274.68 108.16 274.68 109.80 C 271.21 111.59 267.07 111.83 263.78 113.92 C 271.07 114.71 280.12 114.18 284.12 106.95 C 280.99 106.95 278.28 108.88 275.18 109.05 C 277.41 106.75 281.12 106.90 283.99 105.68 C 284.16 104.10 284.21 102.26 282.79 101.20 C 278.18 95.44 270.03 95.35 263.36 96.33 Z" />
<path fill="#070707" opacity="1.00" d=" M 485.38 281.30 C 489.05 280.05 492.45 283.26 494.22 286.19 C 491.30 285.95 489.96 282.63 487.14 282.15 C 484.37 282.75 481.72 283.91 478.87 284.09 C 480.01 281.91 483.26 282.13 485.38 281.30 Z" />
<path fill="#070707" opacity="1.00" d=" M 478.44 310.30 C 482.83 309.90 487.76 309.11 491.83 311.26 C 492.08 313.47 492.08 315.70 491.92 317.92 C 487.46 318.25 482.21 317.19 478.74 320.75 C 475.93 323.73 471.64 323.14 467.96 322.90 C 467.11 316.32 472.43 311.55 478.44 310.30 M 479.23 311.15 C 476.22 312.16 472.52 313.49 471.62 316.93 C 475.36 315.88 479.26 315.13 481.86 311.91 C 480.85 317.46 487.81 313.76 489.25 311.07 C 485.91 310.94 482.55 310.81 479.23 311.15 Z" />
</g>
<g id="#080808ff">
<path fill="#080808" opacity="1.00" d=" M 449.28 33.10 C 454.32 32.59 457.50 37.20 461.22 39.78 C 464.09 42.83 468.69 43.41 471.33 46.73 C 474.08 52.24 470.53 60.38 464.02 61.01 C 458.82 60.88 453.55 61.42 448.41 60.73 C 445.28 58.47 442.74 55.52 440.24 52.61 C 439.57 48.60 439.26 43.62 442.75 40.76 C 445.33 38.55 447.02 35.58 449.28 33.10 M 452.20 42.37 C 449.36 43.37 446.46 46.50 447.19 49.63 C 449.02 51.60 450.85 54.53 453.96 54.02 C 457.68 53.64 464.24 55.63 465.03 50.41 C 459.75 49.70 456.26 44.60 452.20 42.37 Z" />
<path fill="#080808" opacity="1.00" d=" M 198.27 87.24 C 203.12 86.33 207.97 85.31 212.90 84.84 C 214.69 86.92 216.39 89.08 218.10 91.24 C 209.70 88.84 199.95 90.47 193.28 96.27 C 189.35 100.72 186.55 106.00 184.49 111.54 C 182.34 112.43 180.03 112.86 177.74 113.10 C 179.45 109.22 181.60 105.50 182.27 101.23 C 182.73 100.61 183.18 99.98 183.62 99.35 C 187.12 93.93 192.28 89.63 198.27 87.24 Z" />
<path fill="#080808" opacity="1.00" d=" M 217.78 99.47 C 219.24 99.75 220.29 100.93 221.38 101.86 C 215.88 101.66 210.23 102.52 205.77 105.98 C 214.01 103.96 224.33 103.67 230.33 110.72 C 233.15 113.27 233.20 117.19 233.47 120.69 C 227.85 133.03 209.65 134.49 200.16 126.05 C 198.08 123.18 195.35 119.57 196.78 115.85 C 197.64 112.14 200.72 109.73 203.37 107.28 C 205.47 105.40 206.53 102.34 209.32 101.30 C 212.17 100.75 215.43 101.59 217.78 99.47 M 209.40 108.43 C 205.96 109.60 202.07 110.94 200.60 114.63 C 197.66 120.53 203.60 127.62 209.83 126.88 C 213.45 125.36 217.18 124.16 220.85 122.77 C 220.75 121.16 219.22 119.07 221.28 118.12 C 223.76 117.19 224.40 120.52 222.96 121.97 C 225.31 121.00 228.02 120.57 229.92 118.74 C 230.64 115.84 228.86 113.04 226.75 111.21 C 221.71 107.73 215.26 107.27 209.40 108.43 M 228.41 121.34 C 222.93 123.64 216.98 125.18 211.78 127.93 C 218.00 128.57 226.67 127.67 229.35 121.06 L 228.41 121.34 Z" />
<path fill="#080808" opacity="1.00" d=" M 269.22 139.24 C 275.29 138.66 280.82 135.38 287.01 135.94 C 291.27 136.14 297.16 134.90 299.65 139.40 C 300.22 143.65 301.31 147.81 302.06 152.03 C 302.44 154.01 301.99 157.66 299.18 157.01 C 297.51 154.46 297.81 151.19 296.90 148.35 C 293.93 149.11 290.95 149.83 287.95 150.41 C 288.88 155.00 292.36 158.93 292.16 163.87 C 289.74 161.99 290.48 155.55 287.14 153.25 C 284.29 154.59 281.16 155.11 278.26 156.28 C 276.37 157.66 277.63 160.45 276.38 162.22 C 275.65 161.04 276.66 158.01 274.89 157.99 C 270.06 156.78 272.73 163.39 271.66 166.19 C 271.51 166.50 271.23 167.13 271.08 167.45 C 270.63 167.31 269.74 167.04 269.29 166.90 C 271.00 164.03 272.20 159.85 269.77 157.05 C 266.15 157.84 262.64 157.20 259.15 156.17 C 254.72 157.04 251.61 160.56 247.99 162.95 C 244.62 164.82 245.74 169.27 243.92 172.14 C 241.42 172.92 240.55 169.91 240.77 168.00 C 240.60 163.89 244.55 161.59 246.31 158.32 C 248.05 155.14 250.35 152.35 252.27 149.29 C 255.36 142.89 262.97 141.07 269.22 139.24 M 282.40 140.42 C 274.05 143.43 264.05 143.31 257.02 149.46 C 259.29 151.75 262.41 153.46 265.73 152.93 C 267.70 151.54 266.69 148.88 267.12 146.88 C 268.67 147.59 267.63 150.03 268.71 151.25 C 270.40 153.97 274.06 153.02 276.73 152.85 C 278.69 151.54 277.68 148.91 278.13 146.96 C 280.27 147.13 277.59 152.39 280.88 150.93 C 284.46 150.66 284.97 146.87 285.22 144.01 C 286.80 144.20 285.22 147.95 287.61 146.95 C 288.08 145.55 288.24 143.93 289.46 142.94 C 289.83 144.79 291.20 145.35 292.94 145.02 C 293.05 143.39 293.06 141.74 292.92 140.11 C 289.44 140.04 285.81 139.56 282.40 140.42 Z" />
</g>
<g id="#f7f7f7ff">
<path fill="#f7f7f7" opacity="1.00" d=" M 486.24 293.22 C 488.90 292.63 492.26 292.63 493.84 295.29 C 494.11 297.69 494.68 300.80 492.29 302.35 C 489.09 304.40 483.37 302.77 483.81 298.23 C 485.24 298.45 487.08 299.67 487.84 297.73 C 488.87 295.10 485.14 294.50 483.56 295.84 C 484.41 294.93 485.26 294.01 486.24 293.22 Z" />
<path fill="#f7f7f7" opacity="1.00" d=" M 460.34 295.27 C 462.79 294.58 465.59 294.79 467.72 296.32 C 469.39 298.83 469.61 302.26 467.69 304.72 C 464.52 306.91 458.77 306.81 457.22 302.71 C 455.37 300.06 457.63 296.26 460.34 295.27 M 459.19 297.21 C 456.33 298.48 459.41 302.65 461.34 300.33 C 463.25 299.17 460.83 296.08 459.19 297.21 Z" />
</g>
<g id="#cc2a35ff">
<path fill="#cc2a35" opacity="1.00" d=" M 554.30 61.06 C 555.93 60.19 557.47 61.41 558.31 62.76 C 563.98 70.25 573.38 73.54 579.31 80.77 C 580.69 82.43 582.44 83.73 583.94 85.28 C 584.93 88.61 580.92 90.92 578.02 90.20 C 574.53 90.15 573.82 86.22 572.04 84.01 C 565.52 79.25 559.27 74.12 553.22 68.79 C 550.56 66.84 551.57 62.47 554.30 61.06 Z" />
</g>
<g id="#060606ff">
<path fill="#060606" opacity="1.00" d=" M 198.40 71.39 C 204.49 69.57 210.48 66.54 217.00 66.95 C 231.99 67.11 246.98 66.85 261.97 67.07 C 267.51 67.06 271.34 71.54 276.58 72.47 C 283.47 74.02 288.11 80.95 295.65 80.29 C 304.76 85.58 314.25 90.68 321.27 98.74 C 327.32 103.46 328.98 111.45 334.15 116.87 C 335.80 119.33 336.55 122.30 338.25 124.74 C 340.20 127.89 344.52 129.33 344.44 133.57 C 349.65 140.48 354.39 147.78 358.92 155.12 C 359.14 177.42 358.93 199.74 359.02 222.05 C 359.28 224.00 357.90 225.48 357.18 227.15 C 356.50 232.28 357.66 237.54 356.67 242.63 C 355.26 245.96 352.69 248.74 352.62 252.55 C 350.39 255.19 350.15 258.69 348.70 261.68 C 346.06 264.41 343.47 267.17 341.28 270.27 C 333.40 276.24 325.15 281.81 316.53 286.57 C 315.22 290.65 311.23 292.84 307.62 294.59 C 300.72 296.99 294.79 301.46 287.88 303.84 C 280.23 304.43 272.70 306.38 265.00 306.02 C 246.66 305.99 228.32 306.02 209.98 306.01 C 202.30 306.58 194.50 306.26 187.02 304.29 C 185.63 308.96 184.84 314.18 182.93 318.91 C 194.95 319.10 206.98 318.92 219.00 318.99 C 226.40 319.45 233.61 317.21 241.03 317.97 C 264.91 321.92 288.35 330.86 312.87 328.84 C 318.42 325.64 324.94 327.42 331.00 326.98 C 342.82 327.58 354.41 324.99 366.01 323.12 C 373.85 323.21 381.46 321.14 389.21 320.31 C 393.13 320.22 396.09 317.00 399.98 316.97 C 405.38 316.74 410.56 314.73 415.99 314.93 C 422.98 315.01 430.27 315.48 436.89 312.77 C 435.87 301.47 437.51 288.51 446.74 280.74 C 452.80 273.45 462.56 269.36 471.99 269.95 C 491.77 268.15 510.43 287.28 508.00 307.03 C 516.76 301.13 527.30 297.09 538.00 297.99 C 560.65 296.53 582.42 313.90 586.95 335.99 C 587.17 339.65 586.94 343.33 587.04 347.00 C 587.77 355.71 582.94 363.48 578.59 370.61 C 572.39 378.07 564.60 384.60 555.15 387.41 C 555.34 395.62 553.58 404.30 556.98 412.04 C 560.86 435.06 564.82 458.06 568.77 481.07 C 566.87 481.12 564.96 481.09 563.08 480.90 C 561.63 465.14 557.47 449.71 555.81 433.98 L 555.07 434.09 C 554.91 449.75 555.12 465.42 554.96 481.07 C 553.33 481.13 551.70 481.09 550.10 480.92 C 549.73 470.95 550.09 460.96 549.96 450.99 L 549.18 451.01 C 548.45 461.08 545.57 470.88 544.89 480.96 C 542.93 481.14 540.95 481.13 539.00 481.01 C 543.33 459.79 546.01 438.28 549.82 416.97 C 550.18 407.67 549.96 398.34 549.93 389.04 C 546.06 390.30 541.99 390.05 538.00 390.01 C 524.04 390.94 510.07 384.52 500.72 374.28 C 496.59 370.76 494.82 365.48 491.75 361.16 C 485.86 360.83 479.94 361.01 474.04 361.10 C 477.09 379.04 479.02 397.16 481.73 415.16 C 482.11 420.01 483.71 424.84 482.84 429.74 C 481.96 431.56 479.04 431.56 478.16 429.75 C 477.24 415.08 473.78 400.65 472.91 385.98 L 472.08 386.04 C 471.97 409.70 472.08 433.36 471.98 457.02 C 471.63 460.74 474.31 463.75 474.63 467.38 C 475.06 472.02 477.30 476.35 477.12 481.07 C 475.49 481.12 473.87 481.10 472.26 480.92 C 471.63 478.23 471.25 475.49 470.73 472.78 C 469.08 475.12 469.35 478.22 468.77 480.92 C 466.92 481.11 465.07 481.12 463.22 481.05 C 464.28 474.68 466.53 468.51 466.98 462.04 C 466.99 441.04 467.01 420.04 466.93 399.05 L 466.12 399.06 C 465.67 410.32 463.50 421.41 462.85 432.67 C 461.78 434.09 460.26 435.72 458.31 434.87 C 455.90 433.65 457.78 430.94 457.79 428.97 C 460.77 406.41 462.70 383.67 465.95 361.19 C 462.76 361.01 459.51 360.55 456.72 358.89 C 456.03 356.47 456.11 353.90 457.87 351.93 C 460.85 351.43 464.73 355.92 466.74 352.67 C 467.28 348.62 467.15 344.47 466.78 340.40 C 461.30 338.44 455.25 337.25 450.78 333.28 C 446.98 329.60 442.94 326.03 440.43 321.30 C 438.15 320.59 435.72 321.15 433.43 321.47 C 426.27 322.86 418.89 321.09 411.76 322.70 C 407.79 323.63 403.62 323.57 399.73 324.76 C 392.62 328.39 384.40 327.97 376.77 329.74 C 364.38 329.96 352.38 333.87 339.99 334.05 C 334.31 334.03 328.63 333.94 322.96 333.98 C 319.48 333.79 316.53 336.23 313.06 336.05 C 306.39 335.89 299.71 336.26 293.06 335.81 C 274.74 333.79 257.01 328.43 238.93 325.10 C 234.91 324.50 231.01 326.03 227.01 326.03 C 212.02 326.01 197.02 325.99 182.02 326.00 C 178.79 325.59 178.71 329.70 177.96 331.89 C 188.65 332.20 199.35 331.84 210.04 332.03 C 220.48 333.17 230.90 334.59 241.20 336.69 C 253.37 337.01 263.92 343.88 275.61 346.35 C 280.38 347.19 284.38 350.03 288.73 351.98 C 288.93 355.82 283.22 354.31 284.76 358.02 C 280.80 357.69 278.13 354.18 274.22 353.78 C 261.90 351.51 250.94 343.98 238.19 343.77 C 227.91 341.54 217.44 340.30 207.03 338.99 C 196.46 339.11 185.88 338.81 175.32 339.13 C 172.16 349.50 168.68 359.76 164.85 369.90 C 160.03 381.50 152.74 392.00 149.00 404.03 C 144.91 408.51 141.99 413.82 139.10 419.13 C 138.75 422.46 139.53 425.96 138.19 429.15 C 133.66 440.61 135.02 453.19 131.91 464.95 C 130.74 470.23 130.87 475.81 128.79 480.88 C 126.51 481.13 124.22 481.12 121.94 481.02 C 121.68 476.90 123.47 473.03 123.80 468.97 C 124.34 461.21 127.57 453.81 127.03 445.95 C 128.20 439.31 128.59 432.43 131.14 426.13 C 132.48 422.95 131.68 419.45 132.05 416.12 C 134.74 411.81 136.60 406.89 140.25 403.24 C 143.30 400.30 143.50 395.81 145.17 392.13 C 149.42 384.59 153.07 376.72 156.98 369.00 C 162.24 355.55 166.61 341.75 170.98 327.98 C 173.80 320.71 177.13 313.56 179.00 305.97 C 179.69 301.04 172.78 301.65 170.28 298.75 C 168.43 296.41 164.70 297.53 163.06 295.02 C 155.78 288.42 146.08 283.77 141.45 274.58 C 139.57 270.54 135.61 267.70 134.74 263.19 C 130.55 257.95 127.47 251.66 124.56 245.46 C 122.54 242.86 122.24 239.57 121.55 236.49 C 120.28 234.18 118.80 231.79 118.98 229.04 C 118.99 213.01 119.03 196.98 118.96 180.96 C 118.75 177.81 120.30 174.98 121.05 172.01 C 123.48 161.62 123.38 150.80 126.57 140.57 C 127.26 134.89 131.84 130.90 133.55 125.60 C 134.90 120.85 138.65 117.18 139.17 112.15 C 142.35 106.03 148.10 101.75 152.72 96.73 C 157.35 91.53 164.46 89.31 168.88 83.86 C 170.64 81.93 171.99 79.66 173.74 77.73 C 177.13 75.99 181.15 76.19 184.87 75.81 C 189.03 73.36 193.95 73.11 198.40 71.39 M 190.16 81.21 C 187.01 84.52 181.49 82.17 177.48 84.35 C 175.48 90.21 169.01 91.94 165.41 96.46 C 163.90 98.06 160.50 97.47 160.54 100.30 C 159.46 99.39 158.51 101.19 157.71 101.71 C 153.84 106.16 149.28 110.07 146.25 115.19 C 144.93 121.23 140.97 126.17 139.05 132.03 C 128.90 146.16 132.16 164.65 126.40 180.37 C 125.68 183.42 125.93 186.64 126.18 189.74 C 125.80 201.50 126.11 213.27 125.98 225.03 C 125.44 229.95 129.57 233.56 129.59 238.41 C 133.11 245.11 135.43 252.63 140.76 258.24 C 143.21 264.88 147.94 270.37 151.62 276.42 C 160.36 285.23 171.30 291.23 182.37 296.65 C 189.31 297.55 196.52 297.46 203.23 299.74 L 203.38 298.75 C 221.55 299.31 239.80 298.83 258.01 298.99 C 266.34 299.31 274.66 298.35 282.82 296.73 C 287.93 293.79 293.92 293.00 298.99 290.01 C 301.85 288.22 305.24 287.68 308.24 286.25 C 310.37 278.53 319.65 277.65 325.15 273.15 C 329.17 268.55 336.05 267.49 338.62 261.43 C 343.39 259.46 342.38 253.67 345.18 250.17 C 346.25 247.81 346.08 244.98 347.97 242.96 C 352.91 236.47 347.10 227.32 351.94 220.87 C 351.99 199.97 352.13 179.04 351.87 158.14 C 346.87 149.38 340.54 141.33 335.26 132.73 C 331.58 129.09 329.45 124.40 327.17 119.87 C 322.24 114.83 320.67 107.40 315.29 102.72 C 309.61 97.54 303.58 92.76 296.65 89.38 C 294.09 86.51 290.17 86.84 286.67 86.78 C 282.90 83.03 277.05 79.79 271.38 78.55 C 267.21 76.40 262.91 73.85 258.04 73.98 C 244.01 74.04 229.99 73.95 215.96 74.02 C 207.03 75.04 199.02 79.84 190.16 81.21 M 465.38 275.37 C 457.16 276.86 450.86 282.56 445.99 288.99 C 441.49 297.19 440.12 307.37 443.83 316.14 C 445.38 322.20 450.58 326.02 454.81 330.20 C 465.30 336.92 479.74 336.87 490.25 330.23 C 493.79 323.64 496.91 316.57 502.78 311.65 C 504.06 301.78 502.41 290.37 494.27 283.72 C 487.39 275.30 475.49 273.82 465.38 275.37 M 529.38 303.38 C 520.51 305.41 511.03 308.87 505.69 316.68 C 503.15 319.50 500.80 322.47 498.42 325.41 C 493.23 333.52 493.29 343.50 494.22 352.74 C 496.63 355.16 500.83 353.72 503.97 353.86 C 509.65 352.06 515.96 354.20 521.36 351.32 C 526.15 348.59 529.80 344.38 533.40 340.34 C 534.12 337.60 538.99 339.06 537.77 341.68 C 534.74 347.19 528.81 350.31 524.80 354.99 C 530.45 355.29 536.09 351.96 539.75 347.73 C 541.21 346.37 540.84 343.39 543.01 342.87 C 545.58 343.37 545.33 346.68 544.79 348.63 C 541.45 352.57 537.64 356.27 532.80 357.98 C 536.73 358.38 541.03 357.76 543.85 354.74 C 545.30 352.49 549.72 355.31 547.31 357.21 C 543.52 362.86 535.91 362.04 529.98 362.03 C 519.37 360.25 508.53 361.16 497.81 361.13 C 504.72 376.16 521.54 385.88 537.99 385.00 C 541.98 385.02 546.12 385.33 549.87 383.69 C 550.42 380.76 549.66 377.86 549.05 375.01 C 548.76 373.01 551.31 372.76 552.72 373.02 C 555.27 375.38 554.93 378.99 555.16 382.14 C 568.54 377.20 579.12 365.01 581.90 350.98 C 582.08 346.33 582.08 341.66 581.90 337.02 C 578.87 321.67 566.51 308.61 551.38 304.64 C 544.33 302.17 536.67 302.87 529.38 303.38 M 487.36 337.39 C 482.48 339.42 477.39 340.49 472.09 340.09 C 471.93 344.69 471.90 349.31 472.08 353.91 C 477.67 354.06 483.27 354.09 488.86 353.88 C 489.28 348.25 488.49 342.63 488.95 337.00 C 488.55 337.10 487.76 337.30 487.36 337.39 Z" />
<path fill="#060606" opacity="1.00" d=" M 247.40 82.41 C 253.51 81.45 259.84 82.24 266.03 82.00 C 267.92 82.13 271.47 82.25 271.10 84.92 C 262.17 85.02 253.10 84.65 244.48 87.38 C 241.76 88.90 239.41 90.98 236.71 92.53 C 232.75 92.54 229.67 89.83 226.11 88.53 C 226.01 86.79 225.01 83.49 227.79 83.77 C 227.47 85.14 227.07 86.49 226.90 87.89 C 230.41 87.91 234.54 89.00 237.44 86.42 C 240.37 84.23 244.15 83.94 247.40 82.41 Z" />
<path fill="#060606" opacity="1.00" d=" M 280.77 92.83 C 284.13 93.43 287.27 94.82 290.58 95.64 C 289.40 98.48 287.12 97.11 285.32 95.75 C 283.79 94.79 282.24 93.87 280.77 92.83 Z" />
<path fill="#060606" opacity="1.00" d=" M 252.27 113.60 C 253.37 114.79 254.16 116.36 255.68 117.09 C 256.34 117.42 257.67 118.06 258.33 118.39 C 256.60 118.82 254.89 119.35 253.15 119.74 C 252.82 117.70 252.57 115.65 252.27 113.60 Z" />
<path fill="#060606" opacity="1.00" d=" M 236.32 128.19 L 237.09 127.87 C 236.96 131.17 235.84 134.33 235.72 137.64 C 234.29 138.99 232.13 143.40 230.09 140.87 C 232.56 136.85 235.90 133.13 236.32 128.19 Z" />
</g>
<g id="#fafafaff">
<path fill="#fafafa" opacity="1.00" d=" M 190.16 81.21 C 199.02 79.84 207.03 75.04 215.96 74.02 C 229.99 73.95 244.01 74.04 258.04 73.98 C 262.91 73.85 267.21 76.40 271.38 78.55 C 277.05 79.79 282.90 83.03 286.67 86.78 C 285.70 88.82 288.41 89.15 289.60 90.07 C 291.71 91.03 292.71 94.12 290.58 95.64 C 287.27 94.82 284.13 93.43 280.77 92.83 C 282.24 93.87 283.79 94.79 285.32 95.75 C 284.41 95.84 282.59 96.01 281.68 96.10 C 271.97 89.98 255.96 91.52 250.75 102.86 C 248.89 107.27 253.25 110.69 255.81 113.66 C 255.76 114.80 255.71 115.95 255.68 117.09 C 254.16 116.36 253.37 114.79 252.27 113.60 C 252.57 115.65 252.82 117.70 253.15 119.74 C 254.89 119.35 256.60 118.82 258.33 118.39 C 260.88 119.25 263.56 119.58 266.25 119.28 C 269.64 118.84 273.04 120.59 276.36 119.42 C 279.92 118.20 284.91 118.73 286.56 114.57 C 290.71 110.92 291.05 105.21 293.52 100.57 C 293.92 100.08 294.74 99.09 295.14 98.60 C 299.31 95.23 302.00 101.79 304.24 104.47 C 299.05 109.20 294.28 114.37 289.19 119.21 C 287.64 120.52 286.92 122.43 286.97 124.43 C 295.31 123.61 303.65 126.38 311.87 124.12 C 312.57 126.54 312.13 129.01 310.01 130.54 C 310.56 133.22 312.02 135.82 311.55 138.62 C 310.26 140.36 307.86 140.24 305.94 140.14 C 306.00 137.17 306.18 134.19 305.81 131.24 C 302.35 129.71 296.73 128.96 293.91 130.89 C 297.01 131.28 300.35 130.46 303.29 131.65 C 305.29 133.99 305.01 137.23 304.87 140.10 C 304.27 142.89 302.31 148.40 307.03 148.01 C 311.52 147.78 313.83 155.30 309.47 157.19 C 307.55 158.82 310.21 160.98 311.07 162.40 C 306.89 162.27 302.86 162.75 299.33 165.18 C 296.72 166.79 296.20 163.18 295.64 161.44 C 294.41 163.49 293.12 166.16 290.26 165.73 C 287.29 165.21 287.88 169.03 286.71 170.76 C 284.74 173.45 280.09 171.51 279.81 168.45 C 279.59 166.66 279.65 164.85 279.56 163.06 C 277.08 164.55 274.88 167.97 271.66 166.19 C 272.73 163.39 270.06 156.78 274.89 157.99 C 276.66 158.01 275.65 161.04 276.38 162.22 C 277.63 160.45 276.37 157.66 278.26 156.28 C 281.16 155.11 284.29 154.59 287.14 153.25 C 290.48 155.55 289.74 161.99 292.16 163.87 C 292.36 158.93 288.88 155.00 287.95 150.41 C 290.95 149.83 293.93 149.11 296.90 148.35 C 297.81 151.19 297.51 154.46 299.18 157.01 C 301.99 157.66 302.44 154.01 302.06 152.03 C 301.31 147.81 300.22 143.65 299.65 139.40 C 297.16 134.90 291.27 136.14 287.01 135.94 C 280.82 135.38 275.29 138.66 269.22 139.24 C 262.97 141.07 255.36 142.89 252.27 149.29 C 250.35 152.35 248.05 155.14 246.31 158.32 C 244.55 161.59 240.60 163.89 240.77 168.00 C 240.55 169.91 241.42 172.92 243.92 172.14 C 245.74 169.27 244.62 164.82 247.99 162.95 C 251.61 160.56 254.72 157.04 259.15 156.17 C 262.64 157.20 266.15 157.84 269.77 157.05 C 272.20 159.85 271.00 164.03 269.29 166.90 C 269.74 167.04 270.63 167.31 271.08 167.45 C 271.58 171.26 265.20 174.37 264.32 169.76 C 264.16 165.63 260.29 163.85 256.82 162.89 C 254.21 164.13 251.16 165.05 249.15 167.16 C 247.66 170.57 244.55 175.60 248.55 178.45 C 250.45 181.49 254.16 178.10 256.36 180.82 C 255.18 181.52 253.99 182.18 252.81 182.87 C 249.37 184.03 245.33 184.85 241.94 183.08 C 238.06 180.71 238.26 174.76 235.83 171.99 C 236.06 175.72 237.27 179.29 238.36 182.84 C 238.34 184.66 238.17 186.47 237.98 188.28 C 236.07 187.74 232.52 188.64 232.36 185.81 C 230.47 180.83 233.66 176.13 233.14 171.15 C 233.75 168.13 233.96 165.07 234.11 162.00 C 234.25 157.56 238.81 155.29 240.54 151.53 C 243.02 146.39 248.24 142.80 249.26 136.97 C 245.46 138.89 243.96 143.12 240.98 145.93 C 238.37 148.45 236.05 151.24 233.97 154.21 C 234.41 152.27 234.99 150.36 235.45 148.43 C 231.87 148.07 228.18 148.48 224.68 147.49 C 224.21 143.22 225.42 138.73 222.76 134.78 C 229.75 135.25 235.28 127.11 233.47 120.69 C 233.20 117.19 233.15 113.27 230.33 110.72 C 224.33 103.67 214.01 103.96 205.77 105.98 C 210.23 102.52 215.88 101.66 221.38 101.86 C 220.29 100.93 219.24 99.75 217.78 99.47 C 215.43 101.59 212.17 100.75 209.32 101.30 C 206.53 102.34 205.47 105.40 203.37 107.28 C 200.72 109.73 197.64 112.14 196.78 115.85 C 195.35 119.57 198.08 123.18 200.16 126.05 C 200.38 127.30 200.70 128.56 200.56 129.84 C 199.71 130.23 198.86 130.61 198.00 130.97 C 198.12 129.68 199.46 127.56 197.14 127.85 C 197.02 124.34 192.74 129.69 190.31 127.97 C 189.32 124.68 189.90 120.74 188.13 117.80 C 188.31 122.63 187.97 127.79 184.06 131.19 C 185.47 130.89 186.88 130.53 188.30 130.23 C 186.83 131.80 184.00 133.85 187.69 134.73 C 186.01 136.52 183.29 135.07 183.30 132.77 C 183.38 128.49 184.48 124.21 183.95 119.90 C 182.89 117.90 181.50 116.09 180.13 114.29 C 178.82 115.72 177.35 117.64 175.14 116.63 C 175.38 111.22 177.07 105.92 176.05 100.46 C 178.16 100.24 180.23 100.81 182.27 101.23 C 181.60 105.50 179.45 109.22 177.74 113.10 C 180.03 112.86 182.34 112.43 184.49 111.54 C 186.55 106.00 189.35 100.72 193.28 96.27 C 199.95 90.47 209.70 88.84 218.10 91.24 C 220.38 92.27 220.12 88.94 220.59 87.50 C 221.48 84.38 217.23 85.01 216.02 83.12 C 213.56 78.82 208.02 79.06 203.71 78.91 C 206.87 80.76 210.81 81.51 212.90 84.84 C 207.97 85.31 203.12 86.33 198.27 87.24 C 192.28 89.63 187.12 93.93 183.62 99.35 C 182.78 96.92 183.45 94.55 184.35 92.26 C 180.88 91.82 177.35 92.19 173.91 91.42 C 175.07 93.24 177.71 95.36 175.72 97.59 C 174.01 100.63 170.27 99.13 167.51 99.59 C 166.01 100.62 164.75 101.95 163.28 103.02 C 162.32 102.16 161.44 101.22 160.54 100.30 C 160.50 97.47 163.90 98.06 165.41 96.46 C 169.01 91.94 175.48 90.21 177.48 84.35 C 181.49 82.17 187.01 84.52 190.16 81.21 M 247.40 82.41 C 244.15 83.94 240.37 84.23 237.44 86.42 C 234.54 89.00 230.41 87.91 226.90 87.89 C 227.07 86.49 227.47 85.14 227.79 83.77 C 225.01 83.49 226.01 86.79 226.11 88.53 C 229.67 89.83 232.75 92.54 236.71 92.53 C 239.41 90.98 241.76 88.90 244.48 87.38 C 253.10 84.65 262.17 85.02 271.10 84.92 C 271.47 82.25 267.92 82.13 266.03 82.00 C 259.84 82.24 253.51 81.45 247.40 82.41 M 248.40 91.24 C 243.69 93.27 243.19 101.91 249.20 102.18 C 247.40 100.07 244.01 96.60 247.02 94.10 C 248.23 93.30 252.02 89.84 248.40 91.24 M 231.75 108.90 C 232.64 112.70 237.73 114.52 236.97 118.97 C 237.46 120.09 236.07 123.19 237.91 122.97 C 238.11 119.47 238.24 115.93 237.81 112.45 C 235.91 111.07 233.88 109.87 231.75 108.90 M 265.96 122.07 C 266.09 124.09 269.52 122.54 271.00 123.00 C 276.22 121.84 279.95 127.31 285.20 126.04 C 283.46 124.66 281.14 124.02 279.56 122.29 C 275.09 121.61 270.48 122.05 265.96 122.07 M 236.32 128.19 C 235.90 133.13 232.56 136.85 230.09 140.87 C 232.13 143.40 234.29 138.99 235.72 137.64 C 235.84 134.33 236.96 131.17 237.09 127.87 L 236.32 128.19 M 304.28 155.36 C 302.88 156.04 302.93 158.84 304.94 158.14 C 306.77 157.85 305.95 154.74 304.28 155.36 M 301.10 159.27 C 299.56 162.30 304.39 159.42 301.10 159.27 M 282.30 160.27 C 281.69 161.74 281.25 164.80 282.67 165.69 C 283.24 164.21 283.80 161.08 282.30 160.27 Z" />
<path fill="#fafafa" opacity="1.00" d=" M 465.38 275.37 C 475.49 273.82 487.39 275.30 494.27 283.72 C 502.41 290.37 504.06 301.78 502.78 311.65 C 496.91 316.57 493.79 323.64 490.25 330.23 C 479.74 336.87 465.30 336.92 454.81 330.20 C 450.58 326.02 445.38 322.20 443.83 316.14 C 440.12 307.37 441.49 297.19 445.99 288.99 C 450.86 282.56 457.16 276.86 465.38 275.37 M 485.38 281.30 C 483.26 282.13 480.01 281.91 478.87 284.09 C 481.72 283.91 484.37 282.75 487.14 282.15 C 489.96 282.63 491.30 285.95 494.22 286.19 C 492.45 283.26 489.05 280.05 485.38 281.30 M 460.38 285.36 C 457.75 286.96 453.13 287.46 452.78 291.10 C 456.34 289.12 459.73 286.07 463.99 286.01 C 465.08 285.50 468.25 286.90 467.95 285.07 C 465.44 284.97 462.81 284.61 460.38 285.36 M 485.37 291.22 C 480.49 293.92 480.48 302.09 485.35 304.81 C 487.77 305.24 490.29 305.17 492.73 304.85 C 497.19 301.62 497.21 294.38 492.71 291.17 C 490.28 290.82 487.77 290.74 485.37 291.22 M 459.34 293.31 C 455.16 295.12 452.84 301.15 456.12 304.87 C 458.05 308.80 463.05 308.33 466.68 307.75 C 472.64 305.38 472.63 295.63 466.69 293.25 C 464.29 292.71 461.73 292.80 459.34 293.31 M 490.41 308.13 C 490.53 309.38 492.64 310.66 493.89 310.57 C 494.61 308.81 491.84 307.19 490.41 308.13 M 478.44 310.30 C 472.43 311.55 467.11 316.32 467.96 322.90 C 471.64 323.14 475.93 323.73 478.74 320.75 C 482.21 317.19 487.46 318.25 491.92 317.92 C 492.08 315.70 492.08 313.47 491.83 311.26 C 487.76 309.11 482.83 309.90 478.44 310.30 M 464.94 321.80 C 463.23 325.86 469.93 327.45 470.93 325.24 C 468.22 325.39 466.23 324.11 464.94 321.80 Z" />
</g>
<g id="#dfdfdfff">
<path fill="#dfdfdf" opacity="1.00" d=" M 203.71 78.91 C 208.02 79.06 213.56 78.82 216.02 83.12 C 217.23 85.01 221.48 84.38 220.59 87.50 C 220.12 88.94 220.38 92.27 218.10 91.24 C 216.39 89.08 214.69 86.92 212.90 84.84 C 210.81 81.51 206.87 80.76 203.71 78.91 Z" />
</g>
<g id="#cd2a32ff">
<path fill="#cd2a32" opacity="1.00" d=" M 530.39 86.21 C 533.06 84.48 537.07 87.79 535.91 90.71 C 534.25 92.74 531.59 93.70 530.09 95.89 C 539.69 98.19 550.02 95.61 559.79 97.13 C 562.35 98.39 562.28 101.55 562.27 104.00 C 562.15 109.01 562.44 114.02 562.18 119.03 C 562.01 124.65 553.12 127.88 550.04 122.72 C 548.81 119.67 552.44 118.41 554.51 117.32 C 555.03 113.02 554.73 108.64 554.66 104.31 C 545.11 103.58 535.36 105.24 525.93 103.28 C 521.18 102.67 521.05 96.88 522.19 93.34 C 524.31 90.37 527.29 88.09 530.39 86.21 Z" />
</g>
<g id="#dcdcdcff">
<path fill="#dcdcdc" opacity="1.00" d=" M 289.60 90.07 C 288.41 89.15 285.70 88.82 286.67 86.78 C 290.17 86.84 294.09 86.51 296.65 89.38 C 303.58 92.76 309.61 97.54 315.29 102.72 C 320.67 107.40 322.24 114.83 327.17 119.87 C 329.45 124.40 331.58 129.09 335.26 132.73 C 340.54 141.33 346.87 149.38 351.87 158.14 C 352.13 179.04 351.99 199.97 351.94 220.87 C 347.10 227.32 352.91 236.47 347.97 242.96 C 346.08 244.98 346.25 247.81 345.18 250.17 C 342.38 253.67 343.39 259.46 338.62 261.43 C 337.06 253.19 341.64 245.45 343.56 237.67 C 344.78 217.51 346.87 196.92 341.92 177.05 C 340.69 162.50 334.73 148.57 325.88 137.05 C 320.04 125.33 311.75 115.13 304.24 104.47 C 302.00 101.79 299.31 95.23 295.14 98.60 C 294.85 95.92 291.45 97.33 289.64 96.88 C 290.63 97.40 291.61 97.95 292.58 98.53 C 292.80 99.43 291.92 101.98 293.52 100.57 C 291.05 105.21 290.71 110.92 286.56 114.57 C 284.91 118.73 279.92 118.20 276.36 119.42 C 273.04 120.59 269.64 118.84 266.25 119.28 C 263.56 119.58 260.88 119.25 258.33 118.39 C 257.67 118.06 256.34 117.42 255.68 117.09 C 255.71 115.95 255.76 114.80 255.81 113.66 C 261.73 117.98 269.57 117.52 276.43 116.46 C 281.62 114.67 287.88 110.19 287.10 104.00 C 287.50 100.32 283.46 98.77 281.68 96.10 C 282.59 96.01 284.41 95.84 285.32 95.75 C 287.12 97.11 289.40 98.48 290.58 95.64 C 292.71 94.12 291.71 91.03 289.60 90.07 Z" />
<path fill="#dcdcdc" opacity="1.00" d=" M 233.47 120.69 C 235.28 127.11 229.75 135.25 222.76 134.78 C 214.84 135.25 206.82 135.48 199.39 138.56 C 196.75 138.22 196.39 142.43 193.86 141.39 C 193.28 139.87 195.05 138.67 195.43 137.25 C 194.63 134.98 192.37 132.85 193.85 130.36 C 197.14 131.72 199.75 134.21 202.76 136.04 C 202.61 134.68 204.02 131.39 201.49 132.70 C 199.09 133.91 200.57 131.11 200.56 129.84 C 200.70 128.56 200.38 127.30 200.16 126.05 C 209.65 134.49 227.85 133.03 233.47 120.69 Z" />
<path fill="#dcdcdc" opacity="1.00" d=" M 238.36 182.84 C 240.88 187.21 245.82 187.88 250.32 186.46 C 248.59 192.08 241.42 192.79 237.98 188.28 C 238.17 186.47 238.34 184.66 238.36 182.84 Z" />
<path fill="#dcdcdc" opacity="1.00" d=" M 126.18 189.74 C 128.54 203.77 132.71 217.43 134.49 231.57 C 134.89 238.16 139.67 243.28 141.75 249.34 C 143.59 254.91 145.58 260.86 150.56 264.44 C 155.40 271.48 161.70 277.26 167.53 283.45 C 170.30 285.83 174.12 286.67 176.61 289.48 C 180.62 293.66 186.71 293.99 192.11 294.57 C 195.49 294.76 198.09 297.59 201.52 297.54 C 202.50 297.40 203.12 297.81 203.38 298.75 L 203.23 299.74 C 196.52 297.46 189.31 297.55 182.37 296.65 C 171.30 291.23 160.36 285.23 151.62 276.42 C 147.94 270.37 143.21 264.88 140.76 258.24 C 135.43 252.63 133.11 245.11 129.59 238.41 C 129.57 233.56 125.44 229.95 125.98 225.03 C 126.11 213.27 125.80 201.50 126.18 189.74 Z" />
<path fill="#dcdcdc" opacity="1.00" d=" M 273.65 231.96 C 273.99 231.71 274.67 231.21 275.02 230.96 C 278.57 232.27 282.03 234.14 285.93 234.04 C 293.09 235.39 299.46 227.81 306.44 232.10 C 304.32 235.16 300.85 236.75 298.21 239.29 C 294.18 243.52 287.91 241.52 282.82 241.25 C 281.81 241.56 281.76 240.37 281.33 239.85 C 279.73 236.39 275.65 235.14 273.65 231.96 Z" />
</g>
<g id="#020202ff">
<path fill="#020202" opacity="1.00" d=" M 248.40 91.24 C 252.02 89.84 248.23 93.30 247.02 94.10 C 244.01 96.60 247.40 100.07 249.20 102.18 C 243.19 101.91 243.69 93.27 248.40 91.24 Z" />
<path fill="#020202" opacity="1.00" d=" M 289.64 96.88 C 291.45 97.33 294.85 95.92 295.14 98.60 C 294.74 99.09 293.92 100.08 293.52 100.57 C 291.92 101.98 292.80 99.43 292.58 98.53 C 291.61 97.95 290.63 97.40 289.64 96.88 Z" />
<path fill="#020202" opacity="1.00" d=" M 188.13 117.80 C 189.90 120.74 189.32 124.68 190.31 127.97 C 192.74 129.69 197.02 124.34 197.14 127.85 C 193.87 127.03 196.02 130.99 197.14 127.85 C 199.46 127.56 198.12 129.68 198.00 130.97 C 198.86 130.61 199.71 130.23 200.56 129.84 C 200.57 131.11 199.09 133.91 201.49 132.70 C 204.02 131.39 202.61 134.68 202.76 136.04 C 199.75 134.21 197.14 131.72 193.85 130.36 C 192.05 129.84 190.13 129.88 188.30 130.23 C 186.88 130.53 185.47 130.89 184.06 131.19 C 187.97 127.79 188.31 122.63 188.13 117.80 Z" />
<path fill="#020202" opacity="1.00" d=" M 310.19 200.49 C 313.78 202.65 314.62 207.15 315.00 211.00 C 315.04 215.88 316.02 221.50 312.35 225.41 C 307.78 233.33 301.88 241.89 292.12 243.37 C 288.76 244.43 284.98 244.52 282.82 241.25 C 287.91 241.52 294.18 243.52 298.21 239.29 C 300.85 236.75 304.32 235.16 306.44 232.10 C 309.98 226.62 313.03 220.54 313.61 213.94 C 315.09 209.08 310.39 205.27 310.19 200.49 Z" />
<path fill="#020202" opacity="1.00" d=" M 288.73 351.98 C 345.11 351.98 401.49 352.08 457.87 351.93 C 456.11 353.90 456.03 356.47 456.72 358.89 C 399.49 359.06 342.25 359.13 285.03 358.86 L 284.76 358.02 C 283.22 354.31 288.93 355.82 288.73 351.98 Z" />
</g>
<g id="#9e3e45ff">
<path fill="#9e3e45" opacity="1.00" d=" M 588.34 93.16 C 590.25 92.05 591.95 93.88 593.00 95.30 C 594.40 98.47 589.26 101.99 587.08 98.91 C 584.66 97.29 586.05 94.07 588.34 93.16 Z" />
</g>
<g id="#c62e3fff">
<path fill="#c62e3f" opacity="1.00" d=" M 435.68 95.65 C 437.14 92.42 441.63 94.05 442.12 97.05 C 443.32 101.98 439.22 105.89 438.75 110.62 C 438.39 115.66 435.15 119.84 434.91 124.89 C 433.79 128.68 431.18 131.85 429.96 135.63 C 427.49 134.04 429.91 130.84 431.02 129.05 C 433.55 126.05 433.43 122.02 434.59 118.47 C 436.84 113.15 437.57 107.37 439.61 101.96 C 438.21 101.64 436.78 101.40 435.35 101.45 C 432.69 106.71 432.60 112.79 430.48 118.24 C 429.15 121.28 429.34 125.66 425.76 127.06 C 429.16 116.61 431.34 105.82 435.68 95.65 Z" />
</g>
<g id="#f9f9f9ff">
<path fill="#f9f9f9" opacity="1.00" d=" M 263.36 96.33 C 270.03 95.35 278.18 95.44 282.79 101.20 C 284.21 102.26 284.16 104.10 283.99 105.68 C 281.12 106.90 277.41 106.75 275.18 109.05 C 278.28 108.88 280.99 106.95 284.12 106.95 C 280.12 114.18 271.07 114.71 263.78 113.92 C 267.07 111.83 271.21 111.59 274.68 109.80 C 274.68 108.16 275.32 105.19 272.98 104.96 C 270.57 105.03 271.32 107.50 271.64 109.01 C 268.27 110.75 264.49 111.58 260.94 112.90 C 257.02 111.42 252.61 107.84 254.00 103.12 C 255.69 99.54 259.56 97.23 263.36 96.33 Z" />
<path fill="#f9f9f9" opacity="1.00" d=" M 209.40 108.43 C 215.26 107.27 221.71 107.73 226.75 111.21 C 228.86 113.04 230.64 115.84 229.92 118.74 C 228.02 120.57 225.31 121.00 222.96 121.97 C 224.40 120.52 223.76 117.19 221.28 118.12 C 219.22 119.07 220.75 121.16 220.85 122.77 C 217.18 124.16 213.45 125.36 209.83 126.88 C 203.60 127.62 197.66 120.53 200.60 114.63 C 202.07 110.94 205.96 109.60 209.40 108.43 Z" />
<path fill="#f9f9f9" opacity="1.00" d=" M 228.41 121.34 L 229.35 121.06 C 226.67 127.67 218.00 128.57 211.78 127.93 C 216.98 125.18 222.93 123.64 228.41 121.34 Z" />
<path fill="#f9f9f9" opacity="1.00" d=" M 197.14 127.85 C 193.87 127.03 196.02 130.99 197.14 127.85 Z" />
</g>
<g id="#d8222dff">
<path fill="#d8222d" opacity="1.00" d=" M 435.35 101.45 C 436.78 101.40 438.21 101.64 439.61 101.96 C 437.57 107.37 436.84 113.15 434.59 118.47 C 433.43 122.02 433.55 126.05 431.02 129.05 C 429.91 130.84 427.49 134.04 429.96 135.63 C 435.49 138.04 440.47 141.54 446.06 143.85 C 457.61 146.82 467.34 154.13 478.26 158.73 C 482.97 161.54 477.10 167.00 473.28 164.83 C 465.54 160.81 457.85 156.72 449.87 153.21 C 445.87 152.00 441.86 150.77 438.16 148.78 C 434.48 147.01 431.05 144.77 427.40 142.95 C 428.37 145.75 430.09 148.46 429.79 151.52 C 429.23 155.07 432.21 157.65 433.50 160.67 C 435.04 163.28 433.65 166.78 435.83 169.11 C 439.26 173.18 442.15 178.36 441.71 183.85 C 438.31 184.20 437.21 180.41 436.31 177.87 C 435.18 173.08 431.37 169.50 430.43 164.64 C 429.31 159.70 425.71 155.92 423.87 151.29 C 419.68 138.50 409.21 128.60 406.48 115.24 C 407.14 114.22 408.13 112.81 409.53 113.48 C 413.22 116.27 411.33 122.42 415.79 124.59 C 418.87 126.95 419.14 131.79 422.41 133.82 C 423.53 131.61 423.31 128.33 425.76 127.06 C 429.34 125.66 429.15 121.28 430.48 118.24 C 432.60 112.79 432.69 106.71 435.35 101.45 Z" />
</g>
<g id="#a52e45ff">
<path fill="#a52e45" opacity="1.00" d=" M 466.33 101.08 C 469.84 99.44 473.15 105.58 469.34 107.45 C 465.29 110.46 461.37 102.72 466.33 101.08 Z" />
</g>
<g id="#cd2932ff">
<path fill="#cd2932" opacity="1.00" d=" M 499.35 101.22 C 502.67 100.17 509.10 100.13 509.09 104.88 C 508.68 109.84 500.43 106.22 502.25 111.68 C 508.18 112.15 514.20 111.21 520.07 112.56 C 523.63 112.90 527.81 114.36 528.99 118.10 C 529.36 121.26 529.52 124.55 528.79 127.67 C 525.53 131.23 522.28 135.90 516.98 136.15 C 514.32 136.73 510.96 134.10 512.16 131.28 C 513.84 128.23 518.11 128.74 520.26 126.19 C 522.03 124.83 521.82 122.47 521.74 120.48 C 513.91 118.74 505.90 119.38 497.97 119.16 C 495.69 119.29 493.90 117.23 493.82 115.07 C 493.53 110.02 494.54 103.94 499.35 101.22 Z" />
</g>
<g id="#c82b34ff">
<path fill="#c82b34" opacity="1.00" d=" M 404.05 104.02 C 405.91 101.73 409.53 103.42 409.95 106.01 C 409.64 112.85 415.47 117.80 415.79 124.59 C 411.33 122.42 413.22 116.27 409.53 113.48 C 408.13 112.81 407.14 114.22 406.48 115.24 C 409.21 128.60 419.68 138.50 423.87 151.29 C 425.71 155.92 429.31 159.70 430.43 164.64 C 431.37 169.50 435.18 173.08 436.31 177.87 C 437.21 180.41 438.31 184.20 441.71 183.85 C 442.15 178.36 439.26 173.18 435.83 169.11 C 433.65 166.78 435.04 163.28 433.50 160.67 C 432.21 157.65 429.23 155.07 429.79 151.52 C 434.12 155.56 436.25 161.77 437.64 167.46 C 440.70 171.47 442.59 176.28 444.19 181.01 C 445.30 184.08 441.75 189.07 438.62 186.45 C 435.34 182.03 434.67 176.14 431.17 171.82 C 429.88 170.32 429.90 168.24 429.33 166.45 C 427.68 161.19 423.92 156.90 422.19 151.68 C 419.10 141.64 411.07 134.12 407.73 124.15 C 406.70 120.47 404.94 117.11 402.90 113.90 C 402.82 110.67 401.93 106.75 404.05 104.02 Z" />
</g>
<g id="#0c0c0cff">
<path fill="#0c0c0c" opacity="1.00" d=" M 231.75 108.90 C 233.88 109.87 235.91 111.07 237.81 112.45 C 238.24 115.93 238.11 119.47 237.91 122.97 C 236.07 123.19 237.46 120.09 236.97 118.97 C 237.73 114.52 232.64 112.70 231.75 108.90 Z" />
</g>
<g id="#ce2a34ff">
<path fill="#ce2a34" opacity="1.00" d=" M 470.31 115.24 C 471.78 114.18 473.50 115.39 474.27 116.72 C 475.87 120.13 476.67 123.83 477.73 127.43 C 480.93 133.57 485.29 139.02 490.38 143.71 C 493.45 147.73 485.64 151.38 483.12 147.89 C 477.30 141.09 470.77 134.10 468.81 125.11 C 467.50 122.04 466.76 117.07 470.31 115.24 Z" />
</g>
<g id="#0a0a0aff">
<path fill="#0a0a0a" opacity="1.00" d=" M 265.96 122.07 C 270.48 122.05 275.09 121.61 279.56 122.29 C 281.14 124.02 283.46 124.66 285.20 126.04 C 279.95 127.31 276.22 121.84 271.00 123.00 C 269.52 122.54 266.09 124.09 265.96 122.07 Z" />
<path fill="#0a0a0a" opacity="1.00" d=" M 301.10 159.27 C 304.39 159.42 299.56 162.30 301.10 159.27 Z" />
<path fill="#0a0a0a" opacity="1.00" d=" M 317.78 198.06 C 320.53 197.54 328.63 197.42 324.93 201.93 C 322.80 200.16 320.05 199.49 317.78 198.06 Z" />
<path fill="#0a0a0a" opacity="1.00" d=" M 485.37 291.22 C 487.77 290.74 490.28 290.82 492.71 291.17 C 497.21 294.38 497.19 301.62 492.73 304.85 C 490.29 305.17 487.77 305.24 485.35 304.81 C 480.48 302.09 480.49 293.92 485.37 291.22 M 486.24 293.22 C 485.26 294.01 484.41 294.93 483.56 295.84 C 485.14 294.50 488.87 295.10 487.84 297.73 C 487.08 299.67 485.24 298.45 483.81 298.23 C 483.37 302.77 489.09 304.40 492.29 302.35 C 494.68 300.80 494.11 297.69 493.84 295.29 C 492.26 292.63 488.90 292.63 486.24 293.22 Z" />
<path fill="#0a0a0a" opacity="1.00" d=" M 459.34 293.31 C 461.73 292.80 464.29 292.71 466.69 293.25 C 472.63 295.63 472.64 305.38 466.68 307.75 C 463.05 308.33 458.05 308.80 456.12 304.87 C 452.84 301.15 455.16 295.12 459.34 293.31 M 460.34 295.27 C 457.63 296.26 455.37 300.06 457.22 302.71 C 458.77 306.81 464.52 306.91 467.69 304.72 C 469.61 302.26 469.39 298.83 467.72 296.32 C 465.59 294.79 462.79 294.58 460.34 295.27 Z" />
<path fill="#0a0a0a" opacity="1.00" d=" M 490.41 308.13 C 491.84 307.19 494.61 308.81 493.89 310.57 C 492.64 310.66 490.53 309.38 490.41 308.13 Z" />
</g>
<g id="#0e0e0eff">
<path fill="#0e0e0e" opacity="1.00" d=" M 293.91 130.89 C 296.73 128.96 302.35 129.71 305.81 131.24 C 306.18 134.19 306.00 137.17 305.94 140.14 L 304.87 140.10 C 305.01 137.23 305.29 133.99 303.29 131.65 C 300.35 130.46 297.01 131.28 293.91 130.89 Z" />
<path fill="#0e0e0e" opacity="1.00" d=" M 314.12 178.07 C 315.97 178.99 314.71 183.13 315.33 185.27 C 314.21 186.94 312.88 188.55 310.98 189.38 C 313.03 185.86 314.61 182.26 314.12 178.07 Z" />
<path fill="#0e0e0e" opacity="1.00" d=" M 327.82 202.62 C 331.37 204.66 332.39 209.11 331.98 212.92 C 330.59 218.95 326.74 224.15 321.83 227.84 C 320.33 227.85 315.67 228.90 316.22 227.27 C 321.20 226.23 324.92 222.70 327.75 218.68 C 331.93 214.21 329.84 207.60 327.82 202.62 Z" />
</g>
<g id="#dbdbdbff">
<path fill="#dbdbdb" opacity="1.00" d=" M 240.98 145.93 C 243.96 143.12 245.46 138.89 249.26 136.97 C 248.24 142.80 243.02 146.39 240.54 151.53 C 238.81 155.29 234.25 157.56 234.11 162.00 C 233.96 165.07 233.75 168.13 233.14 171.15 C 231.82 165.48 231.73 159.66 233.97 154.21 C 236.05 151.24 238.37 148.45 240.98 145.93 Z" />
</g>
<g id="#f8f8f8ff">
<path fill="#f8f8f8" opacity="1.00" d=" M 282.40 140.42 C 285.81 139.56 289.44 140.04 292.92 140.11 C 293.06 141.74 293.05 143.39 292.94 145.02 C 291.20 145.35 289.83 144.79 289.46 142.94 C 288.24 143.93 288.08 145.55 287.61 146.95 C 285.22 147.95 286.80 144.20 285.22 144.01 C 284.97 146.87 284.46 150.66 280.88 150.93 C 277.59 152.39 280.27 147.13 278.13 146.96 C 277.68 148.91 278.69 151.54 276.73 152.85 C 274.06 153.02 270.40 153.97 268.71 151.25 C 267.63 150.03 268.67 147.59 267.12 146.88 C 266.69 148.88 267.70 151.54 265.73 152.93 C 262.41 153.46 259.29 151.75 257.02 149.46 C 264.05 143.31 274.05 143.43 282.40 140.42 Z" />
<path fill="#f8f8f8" opacity="1.00" d=" M 315.33 185.27 C 316.93 185.12 317.55 189.43 318.54 186.07 C 321.38 188.56 317.19 190.84 317.33 193.59 C 319.85 193.88 322.37 193.46 324.88 193.24 C 324.03 194.13 323.15 195.00 322.34 195.92 C 326.22 196.62 330.64 196.85 334.26 196.82 C 335.07 198.07 335.61 199.52 335.76 201.01 C 332.60 202.60 333.97 206.63 335.00 209.20 C 336.25 211.40 334.32 213.40 333.56 215.39 C 334.53 216.13 335.62 216.81 336.07 218.03 C 334.89 217.77 333.73 217.44 332.56 217.15 C 333.95 219.29 331.80 221.58 333.24 223.70 C 329.98 225.43 326.43 227.90 325.57 231.73 C 323.56 231.42 322.57 229.51 321.83 227.84 C 326.74 224.15 330.59 218.95 331.98 212.92 C 332.39 209.11 331.37 204.66 327.82 202.62 C 329.84 207.60 331.93 214.21 327.75 218.68 C 324.92 222.70 321.20 226.23 316.22 227.27 C 312.61 227.53 313.06 231.90 311.05 234.07 C 309.33 235.49 312.92 237.56 310.61 238.65 C 309.21 239.44 310.95 241.48 309.12 242.09 C 306.99 244.49 301.77 239.97 301.28 244.01 C 298.74 245.57 293.81 242.18 293.12 246.03 C 291.83 245.80 291.97 244.35 292.12 243.37 C 301.88 241.89 307.78 233.33 312.35 225.41 C 316.02 221.50 315.04 215.88 315.00 211.00 C 314.62 207.15 313.78 202.65 310.19 200.49 C 310.39 205.27 315.09 209.08 313.61 213.94 C 311.25 212.26 308.27 212.36 305.65 211.36 C 304.41 207.94 303.78 203.99 305.15 200.51 C 306.09 198.54 303.94 196.67 304.64 194.67 C 305.57 192.22 304.54 187.69 308.34 187.87 C 308.46 189.65 307.92 191.72 309.50 193.01 C 309.49 191.54 309.12 189.78 310.98 189.38 C 312.88 188.55 314.21 186.94 315.33 185.27 M 317.78 198.06 C 320.05 199.49 322.80 200.16 324.93 201.93 C 328.63 197.42 320.53 197.54 317.78 198.06 Z" />
</g>
<g id="#f8eae7ff">
<path fill="#f8eae7" opacity="1.00" d=" M 438.16 148.78 C 441.86 150.77 445.87 152.00 449.87 153.21 C 457.85 156.72 465.54 160.81 473.28 164.83 C 470.97 166.76 469.08 164.56 467.09 163.45 C 463.97 163.50 459.22 164.62 459.55 159.85 C 456.09 158.85 453.19 156.69 449.99 155.13 C 446.96 153.55 443.41 154.89 440.26 153.90 C 439.04 152.46 438.59 150.58 438.16 148.78 Z" />
</g>
<g id="#0b0b0bff">
<path fill="#0b0b0b" opacity="1.00" d=" M 304.28 155.36 C 305.95 154.74 306.77 157.85 304.94 158.14 C 302.93 158.84 302.88 156.04 304.28 155.36 Z" />
<path fill="#0b0b0b" opacity="1.00" d=" M 459.19 297.21 C 460.83 296.08 463.25 299.17 461.34 300.33 C 459.41 302.65 456.33 298.48 459.19 297.21 Z" />
<path fill="#0b0b0b" opacity="1.00" d=" M 464.94 321.80 C 466.23 324.11 468.22 325.39 470.93 325.24 C 469.93 327.45 463.23 325.86 464.94 321.80 Z" />
</g>
<g id="#101010ff">
<path fill="#101010" opacity="1.00" d=" M 282.30 160.27 C 283.80 161.08 283.24 164.21 282.67 165.69 C 281.25 164.80 281.69 161.74 282.30 160.27 Z" />
</g>
<g id="#090909ff">
<path fill="#090909" opacity="1.00" d=" M 235.83 171.99 C 238.26 174.76 238.06 180.71 241.94 183.08 C 245.33 184.85 249.37 184.03 252.81 182.87 C 252.22 184.22 251.29 185.37 250.32 186.46 C 245.82 187.88 240.88 187.21 238.36 182.84 C 237.27 179.29 236.06 175.72 235.83 171.99 Z" />
<path fill="#090909" opacity="1.00" d=" M 460.38 285.36 C 462.81 284.61 465.44 284.97 467.95 285.07 C 468.25 286.90 465.08 285.50 463.99 286.01 C 459.73 286.07 456.34 289.12 452.78 291.10 C 453.13 287.46 457.75 286.96 460.38 285.36 Z" />
</g>
<g id="#fefefeff">
<path fill="#fefefe" opacity="1.00" d=" M 529.38 303.38 C 536.67 302.87 544.33 302.17 551.38 304.64 C 566.51 308.61 578.87 321.67 581.90 337.02 C 582.08 341.66 582.08 346.33 581.90 350.98 C 579.12 365.01 568.54 377.20 555.16 382.14 C 554.93 378.99 555.27 375.38 552.72 373.02 C 551.31 372.76 548.76 373.01 549.05 375.01 C 549.66 377.86 550.42 380.76 549.87 383.69 C 546.12 385.33 541.98 385.02 537.99 385.00 C 521.54 385.88 504.72 376.16 497.81 361.13 C 508.53 361.16 519.37 360.25 529.98 362.03 C 535.91 362.04 543.52 362.86 547.31 357.21 C 549.72 355.31 545.30 352.49 543.85 354.74 C 541.03 357.76 536.73 358.38 532.80 357.98 C 537.64 356.27 541.45 352.57 544.79 348.63 C 545.33 346.68 545.58 343.37 543.01 342.87 C 540.84 343.39 541.21 346.37 539.75 347.73 C 536.09 351.96 530.45 355.29 524.80 354.99 C 528.81 350.31 534.74 347.19 537.77 341.68 C 538.99 339.06 534.12 337.60 533.40 340.34 C 529.80 344.38 526.15 348.59 521.36 351.32 C 515.96 354.20 509.65 352.06 503.97 353.86 C 500.83 353.72 496.63 355.16 494.22 352.74 C 493.29 343.50 493.23 333.52 498.42 325.41 C 500.80 322.47 503.15 319.50 505.69 316.68 C 511.03 308.87 520.51 305.41 529.38 303.38 Z" />
</g>
<g id="#f6f6f6ff">
<path fill="#f6f6f6" opacity="1.00" d=" M 479.23 311.15 C 482.55 310.81 485.91 310.94 489.25 311.07 C 487.81 313.76 480.85 317.46 481.86 311.91 C 479.26 315.13 475.36 315.88 471.62 316.93 C 472.52 313.49 476.22 312.16 479.23 311.15 Z" />
</g>
</svg>
