<?xml version="1.0" encoding="UTF-8" ?>
<!DOCTYPE svg PUBLIC "-//W3C//DTD SVG 1.1//EN" "http://www.w3.org/Graphics/SVG/1.1/DTD/svg11.dtd">
<svg width="781pt" height="750pt" viewBox="0 0 781 750" version="1.1" xmlns="http://www.w3.org/2000/svg">
<g id="#ffffffff">
<path fill="#ffffff" opacity="1.00" d=" M 0.00 0.00 L 781.00 0.00 L 781.00 750.00 L 488.17 750.00 C 486.33 742.14 485.20 734.14 483.80 726.20 C 482.39 710.78 479.94 695.44 479.23 679.96 C 478.53 672.96 478.04 665.95 477.36 658.96 C 476.43 650.26 476.58 641.50 475.77 632.80 C 475.64 605.85 476.08 578.91 475.64 551.97 C 475.40 542.83 475.20 533.58 477.03 524.58 C 477.20 523.44 478.17 522.71 478.95 521.97 C 488.02 514.28 498.11 507.88 507.19 500.20 C 512.29 496.00 516.80 491.14 521.18 486.21 C 531.87 474.53 542.35 462.60 551.37 449.57 C 557.92 440.12 564.86 430.80 569.47 420.20 C 571.93 414.18 573.56 407.79 573.75 401.27 C 574.20 399.22 574.52 397.12 574.43 395.02 C 574.30 391.52 574.81 387.96 573.80 384.55 C 573.42 374.84 571.34 365.28 568.89 355.91 C 559.73 325.95 551.12 295.69 538.61 266.91 C 529.87 249.59 519.46 232.98 506.49 218.50 C 494.59 206.09 482.76 193.57 469.95 182.08 C 451.68 166.48 428.92 157.91 407.90 146.84 C 394.13 139.43 378.88 135.25 363.53 132.69 C 353.76 130.84 343.82 130.21 333.96 129.00 C 322.01 127.27 310.04 125.55 297.98 124.64 C 280.76 123.74 263.77 128.31 247.87 134.58 C 239.17 138.01 230.87 142.36 222.30 146.10 C 207.04 152.70 191.43 158.45 176.15 165.00 C 171.15 167.22 165.91 169.14 161.59 172.58 C 156.68 176.42 152.53 181.19 149.29 186.51 C 141.65 198.68 136.98 212.37 131.81 225.70 C 124.71 244.97 118.59 264.67 114.54 284.82 C 112.99 291.12 112.53 297.63 110.82 303.90 C 107.10 320.88 104.40 338.20 104.19 355.61 C 103.87 357.72 103.56 359.86 103.64 362.01 C 103.73 368.08 103.49 374.19 104.35 380.23 C 104.96 390.85 106.42 401.44 108.76 411.82 C 113.66 430.99 122.34 448.93 131.78 466.23 C 144.37 487.37 164.77 502.41 186.14 513.84 C 196.92 519.95 208.72 524.15 219.11 530.97 C 220.57 531.56 219.61 533.13 219.34 534.15 C 212.28 552.13 202.56 569.03 196.86 587.56 C 191.98 604.56 184.87 620.84 180.22 637.92 C 176.86 651.44 173.70 665.04 171.82 678.87 C 170.74 683.84 170.06 688.89 169.63 693.96 C 169.23 698.03 168.48 702.11 168.69 706.23 C 168.19 712.01 167.71 717.80 167.31 723.60 C 166.20 732.36 166.45 741.25 165.18 750.00 L 0.00 750.00 L 0.00 75.75 C 0.20 80.71 0.94 85.90 3.93 90.03 C 7.86 96.03 14.98 99.10 21.93 99.72 C 28.77 100.33 36.05 99.66 42.01 95.97 C 47.56 92.65 51.21 86.53 51.75 80.11 C 52.52 71.77 52.18 63.38 52.25 55.01 C 52.16 46.31 52.54 37.59 51.74 28.91 C 51.16 21.73 46.47 15.10 39.97 12.04 C 34.07 9.23 27.33 8.80 20.92 9.51 C 15.04 10.22 9.15 12.69 5.27 17.30 C 1.38 21.62 0.18 27.53 0.00 33.17 L 0.00 0.00 M 159.60 9.69 C 152.56 10.80 145.91 15.13 142.61 21.52 C 140.67 26.09 140.69 31.16 140.41 36.04 C 140.32 48.36 140.40 60.69 140.38 73.02 C 140.52 78.09 140.55 83.41 142.89 88.05 C 146.40 95.57 154.80 100.25 163.01 99.91 C 167.16 99.93 171.39 98.25 174.13 95.08 C 175.00 94.19 175.57 92.91 176.78 92.41 C 177.40 94.17 177.54 96.07 178.37 97.75 C 183.15 98.28 188.04 97.95 192.86 97.92 C 192.83 82.41 193.00 66.88 192.77 51.36 C 183.98 51.57 175.11 51.02 166.36 51.63 C 166.37 55.95 166.32 60.28 166.43 64.60 C 167.84 64.57 169.26 64.57 170.68 64.59 C 171.14 68.38 170.79 72.21 170.80 76.03 C 170.62 78.58 170.87 81.34 169.57 83.65 C 168.20 85.94 163.88 85.41 163.58 82.55 C 162.89 79.08 163.10 75.52 162.99 72.00 C 163.05 58.99 162.91 45.98 163.07 32.98 C 163.20 30.60 163.01 28.15 163.72 25.85 C 164.67 23.01 169.81 23.68 169.75 26.81 C 170.41 32.14 170.13 37.53 170.26 42.89 C 177.74 43.39 185.32 43.08 192.83 43.04 C 192.99 36.64 193.01 30.10 191.25 23.88 C 189.79 18.73 185.57 14.93 181.00 12.46 C 174.46 9.06 166.77 8.69 159.60 9.69 M 220.61 9.70 C 211.67 10.86 203.38 17.52 201.73 26.61 C 200.51 34.67 200.97 42.87 200.87 51.00 C 200.99 60.69 200.54 70.41 201.36 80.08 C 201.95 87.61 206.99 94.59 213.99 97.46 C 219.66 99.95 226.02 100.26 232.10 99.64 C 237.33 99.01 242.51 97.02 246.40 93.39 C 250.03 89.92 252.33 85.10 252.75 80.09 C 253.51 71.75 253.18 63.37 253.25 55.01 C 253.17 46.31 253.53 37.59 252.74 28.91 C 252.16 21.74 247.48 15.11 240.99 12.05 C 234.68 9.06 227.43 8.71 220.61 9.70 M 60.58 11.03 C 60.44 40.01 60.45 68.99 60.58 97.97 C 68.07 98.01 75.58 98.05 83.07 97.95 C 83.20 85.86 83.08 73.77 83.12 61.68 C 85.35 61.35 87.65 61.31 89.88 61.70 C 89.92 73.78 89.80 85.87 89.93 97.95 C 97.42 98.05 104.92 98.01 112.42 97.97 C 112.55 68.99 112.55 40.01 112.42 11.03 C 104.92 10.99 97.42 10.95 89.93 11.05 C 89.77 21.38 89.98 31.71 89.83 42.04 C 87.61 42.20 85.38 42.21 83.16 42.04 C 83.02 31.71 83.23 21.38 83.07 11.05 C 75.58 10.95 68.08 10.99 60.58 11.03 M 261.58 11.03 C 261.45 40.01 261.44 69.00 261.58 97.97 C 272.06 98.05 282.53 97.97 293.01 98.01 C 298.30 97.89 304.08 97.70 308.53 94.44 C 311.49 92.30 313.00 88.68 313.37 85.13 C 314.28 76.78 313.72 68.37 313.88 60.00 C 313.73 49.31 314.22 38.60 313.54 27.93 C 313.37 22.47 310.53 17.00 305.63 14.38 C 299.97 11.30 293.31 11.41 287.05 11.06 C 278.56 10.95 270.07 10.99 261.58 11.03 M 505.88 582.04 C 509.15 611.02 512.53 639.99 516.03 668.94 C 524.01 669.11 532.01 668.92 540.00 669.02 C 541.36 668.86 543.08 669.39 544.23 668.55 C 546.32 654.14 548.21 639.69 550.35 625.29 L 550.65 625.20 C 552.36 639.83 554.49 654.43 557.23 668.90 C 566.69 668.99 576.20 669.22 585.63 668.78 C 588.67 642.21 591.80 615.65 594.87 589.08 C 595.11 586.72 595.56 584.39 595.55 582.02 C 588.32 582.02 581.07 581.91 573.85 582.07 L 573.48 582.40 C 570.91 600.87 568.84 619.43 567.69 638.04 C 567.42 639.43 568.23 641.69 567.39 642.65 C 565.61 622.58 564.28 602.46 562.44 582.39 L 562.11 582.13 C 555.75 581.79 549.37 582.13 543.00 581.98 C 541.58 582.07 539.99 581.68 538.71 582.40 C 536.17 601.79 533.77 621.22 532.51 640.74 C 531.03 621.17 529.53 601.60 527.90 582.04 C 520.56 581.96 513.21 581.97 505.88 582.04 M 600.04 582.05 C 599.97 611.01 599.97 639.99 600.04 668.96 C 607.56 668.88 615.19 669.34 622.65 668.72 C 622.64 656.67 622.55 644.62 622.68 632.57 C 624.88 632.42 627.10 632.42 629.32 632.58 C 629.44 644.62 629.36 656.67 629.35 668.72 C 636.81 669.34 644.43 668.88 651.96 668.96 C 652.03 639.99 652.03 611.01 651.96 582.04 C 644.43 582.12 636.80 581.64 629.35 582.29 C 629.34 592.54 629.49 602.81 629.29 613.06 C 627.09 613.18 624.89 613.18 622.70 613.06 C 622.52 602.80 622.65 592.53 622.65 582.28 C 615.18 581.66 607.56 582.11 600.04 582.05 M 656.56 582.02 L 656.56 582.79 C 661.57 600.57 666.70 618.33 671.77 636.10 C 672.13 637.37 672.29 638.67 672.27 640.00 C 672.23 649.62 672.26 659.25 672.24 668.88 C 679.21 669.13 686.21 668.98 693.19 668.96 C 693.35 658.96 693.19 648.96 693.26 638.96 C 693.28 637.94 693.45 636.95 693.76 635.99 C 699.15 618.07 704.39 600.11 709.81 582.20 C 702.90 581.78 695.94 582.03 689.02 582.07 C 687.21 589.65 685.83 597.33 684.41 604.99 C 683.74 608.29 683.54 611.72 682.43 614.92 C 681.62 604.79 679.38 594.85 677.75 584.84 C 677.38 583.86 677.87 581.82 676.16 582.03 C 669.63 581.96 663.09 582.00 656.56 582.02 Z" />
<path fill="#ffffff" opacity="1.00" d=" M 24.37 24.54 C 25.92 23.59 28.49 24.01 28.97 25.99 C 29.84 29.92 29.48 34.00 29.63 38.00 C 29.52 51.98 29.86 65.97 29.38 79.94 C 29.34 82.05 28.84 85.29 26.01 85.06 C 22.68 85.26 22.72 81.30 22.66 78.98 C 22.37 63.31 22.49 47.63 22.58 31.97 C 22.87 29.51 22.20 26.28 24.37 24.54 Z" />
<path fill="#ffffff" opacity="1.00" d=" M 225.36 24.54 C 226.90 23.59 229.49 24.00 229.97 25.99 C 230.80 29.59 230.48 33.33 230.62 37.00 C 230.58 49.36 230.71 61.71 230.56 74.07 C 230.44 77.06 230.64 80.10 229.90 83.03 C 229.36 85.75 224.64 85.77 224.11 83.04 C 223.36 79.08 223.67 75.02 223.50 71.02 C 223.56 57.69 223.37 44.35 223.61 31.02 C 223.86 28.86 223.40 26.02 225.36 24.54 Z" />
<path fill="#ffffff" opacity="1.00" d=" M 284.14 26.04 C 286.90 25.59 290.88 26.44 290.94 29.90 C 291.53 42.59 291.15 55.31 291.23 68.01 C 291.05 72.17 291.40 76.44 290.33 80.51 C 289.42 82.95 286.33 83.03 284.15 82.99 C 284.10 64.01 284.12 45.02 284.14 26.04 Z" />
<path fill="#ffffff" opacity="1.00" d=" M 308.91 133.79 C 311.58 133.48 314.26 133.85 316.90 134.26 C 326.94 134.80 336.87 136.54 346.91 137.20 C 350.07 137.64 353.37 137.29 356.43 138.37 C 365.34 141.68 374.79 143.74 384.32 143.52 C 384.66 146.51 387.92 146.81 390.11 147.90 C 403.21 153.66 415.61 160.90 428.72 166.63 C 429.92 167.08 430.21 168.51 431.01 169.40 C 434.00 170.12 437.21 168.62 440.09 169.83 C 441.33 171.38 441.35 173.78 443.15 174.90 C 445.96 176.10 449.10 175.76 452.04 176.39 C 454.54 177.33 453.79 180.76 455.97 182.07 C 470.43 193.83 483.45 207.24 496.05 220.94 C 501.98 226.97 507.70 233.20 513.40 239.44 C 515.28 247.45 520.17 254.33 525.92 260.07 C 529.97 264.20 529.15 271.39 534.50 274.46 C 534.57 280.14 536.07 285.91 539.75 290.35 C 543.15 297.46 542.39 306.15 547.08 312.74 C 547.95 314.19 549.43 315.05 550.65 316.17 C 551.35 321.44 550.35 326.84 551.15 332.10 C 551.41 333.48 554.01 331.59 554.24 333.51 C 557.45 347.16 561.99 360.45 566.00 373.88 C 567.47 385.14 566.78 396.55 567.21 407.87 C 564.07 408.65 562.59 411.80 561.81 414.65 C 561.24 417.27 560.84 419.93 560.47 422.59 C 559.44 424.14 557.87 425.23 556.63 426.61 C 548.77 434.86 543.91 445.32 537.52 454.64 C 536.44 456.16 535.04 457.42 533.75 458.76 C 524.55 468.34 515.90 478.42 507.11 488.37 C 505.12 490.98 502.42 492.90 499.76 494.78 C 495.88 497.88 492.00 500.98 488.50 504.52 C 487.03 505.85 485.76 507.48 484.02 508.47 C 479.07 510.30 473.70 511.24 469.23 514.18 C 467.40 515.26 466.36 517.30 464.51 518.33 C 460.33 519.96 456.00 521.45 452.34 524.11 C 450.74 525.20 449.85 527.14 448.04 527.94 C 438.42 532.76 428.65 537.25 418.98 541.95 C 417.71 542.48 417.32 544.14 416.00 544.58 C 406.88 546.21 397.98 548.94 388.89 550.78 C 378.00 552.84 367.04 554.97 355.89 554.55 C 352.89 551.16 350.22 547.40 347.49 543.77 C 351.14 542.39 355.14 542.45 358.96 541.82 C 363.15 541.05 367.44 541.34 371.67 541.12 C 372.63 540.29 373.88 541.12 375.00 540.80 C 383.49 540.30 391.94 541.55 400.42 541.23 C 402.99 535.70 409.64 534.97 415.02 534.59 C 416.51 534.53 417.00 532.83 417.92 531.94 C 421.32 527.54 427.08 526.58 432.06 524.98 C 433.54 524.98 433.81 523.38 434.06 522.29 C 436.43 511.69 437.11 500.76 436.62 489.93 C 436.67 486.06 434.26 482.75 432.24 479.66 C 429.38 479.61 426.53 479.64 423.67 479.62 C 424.54 485.25 427.74 490.18 430.55 495.04 C 430.85 496.51 429.52 497.62 429.00 498.88 C 425.42 505.23 423.22 512.88 417.02 517.29 C 414.07 518.45 410.92 518.53 407.82 518.74 C 407.65 519.00 407.30 519.51 407.13 519.77 C 406.23 521.60 405.43 523.51 404.10 525.09 C 402.90 525.98 401.33 525.97 399.93 526.29 C 393.43 527.84 386.64 529.29 379.96 527.99 C 373.85 526.45 368.17 523.60 362.08 522.01 C 359.73 521.66 357.88 520.03 356.07 518.64 C 350.31 514.22 344.85 509.43 339.35 504.69 C 333.89 500.35 331.94 492.47 334.10 485.93 C 335.22 481.73 337.95 478.13 341.30 475.44 C 343.11 471.35 344.15 466.96 345.83 462.81 C 354.80 459.48 364.61 460.13 374.00 460.65 C 378.67 461.34 383.41 461.68 388.00 462.89 C 389.95 463.64 392.02 464.00 394.12 464.04 C 395.09 461.65 394.61 458.86 394.60 456.33 C 390.42 455.59 386.04 457.45 382.00 455.99 L 381.55 454.93 L 381.75 453.74 C 388.82 453.21 395.96 453.88 403.01 453.17 C 403.27 452.97 403.78 452.57 404.03 452.36 C 406.20 450.12 408.52 447.89 409.75 444.96 C 411.10 442.61 410.62 439.83 410.76 437.25 C 412.47 436.90 414.57 437.41 415.85 435.86 C 418.39 432.68 417.94 428.31 419.61 424.76 C 416.19 421.59 417.09 416.17 415.43 412.04 C 413.98 406.76 411.56 401.33 406.89 398.15 C 404.37 397.14 401.66 398.36 399.08 398.50 C 389.68 399.41 380.45 401.49 371.28 403.60 C 366.87 403.73 362.46 403.62 358.06 403.62 C 348.04 403.75 338.16 401.70 328.32 400.06 C 330.89 393.11 332.27 385.73 332.49 378.33 C 338.68 378.03 344.90 378.37 351.10 378.17 C 352.81 375.98 352.83 372.84 353.95 370.30 C 355.56 369.89 357.30 370.34 358.65 371.28 C 359.34 373.90 356.49 375.35 355.12 377.12 C 352.77 379.11 352.96 382.41 352.42 385.17 C 352.35 387.46 351.17 389.67 351.44 391.97 C 353.77 392.64 356.24 392.73 358.58 393.48 C 364.01 394.60 369.73 394.51 375.20 393.56 C 377.29 393.15 379.39 392.76 381.43 392.15 C 381.46 385.40 381.20 378.65 381.27 371.91 C 388.45 371.46 395.85 371.61 403.11 371.24 C 405.70 369.07 408.25 366.72 410.27 364.01 C 410.46 359.11 410.47 354.20 410.64 349.29 L 411.74 349.44 C 419.94 356.19 421.41 367.29 423.80 376.97 C 423.44 378.86 426.13 377.63 426.42 378.94 C 427.77 389.34 430.90 399.43 435.17 408.99 C 437.50 413.31 436.61 418.32 436.80 423.01 C 436.71 431.05 436.74 439.75 441.20 446.79 C 444.08 446.29 446.53 444.32 449.12 443.02 C 451.83 436.02 451.93 428.30 452.57 420.91 C 452.95 417.92 453.33 414.92 453.29 411.91 C 453.21 410.41 451.12 410.70 450.42 409.64 C 446.80 406.15 446.52 400.72 446.42 396.01 C 446.63 394.14 444.24 395.12 443.59 394.06 C 440.67 385.87 437.44 377.70 436.14 369.05 C 435.85 367.26 435.29 365.54 434.41 363.96 C 429.68 354.75 425.18 345.41 420.13 336.37 C 417.56 335.23 414.50 336.63 411.79 335.65 C 408.40 335.12 408.75 330.33 405.55 329.47 C 402.69 329.01 399.76 329.65 396.92 329.06 C 394.69 328.59 393.13 326.81 391.42 325.46 C 386.45 321.25 380.71 317.73 377.00 312.25 C 375.65 310.04 374.00 308.04 372.59 305.89 C 368.51 297.98 370.42 287.82 364.21 280.88 C 364.88 278.12 367.16 275.96 368.57 273.51 C 376.17 271.82 383.97 271.23 391.59 269.67 C 391.57 269.87 391.53 270.27 391.51 270.47 C 389.60 273.02 387.57 275.47 385.32 277.73 C 384.32 278.52 384.53 279.84 384.46 280.96 C 384.43 291.47 384.33 301.98 384.41 312.49 L 384.97 312.67 C 393.44 313.70 395.48 325.09 403.96 325.90 C 409.18 326.66 414.22 328.32 419.23 329.93 C 424.24 331.80 429.68 331.38 434.87 332.35 C 437.56 332.69 440.29 332.76 443.01 332.68 C 444.38 327.95 449.74 326.61 454.04 326.21 C 455.99 325.91 458.12 326.69 459.98 325.97 C 460.79 321.41 462.10 316.95 462.84 312.37 C 456.68 316.63 449.65 320.14 442.00 320.24 C 439.32 320.08 438.85 324.31 436.14 323.94 C 434.95 322.90 434.04 321.59 432.90 320.52 C 431.43 319.68 429.67 319.77 428.04 319.69 C 421.72 319.73 415.45 318.33 409.53 316.19 C 408.22 315.79 406.30 314.64 407.62 313.09 C 421.08 313.07 434.54 313.07 448.00 313.10 C 449.66 313.04 451.38 313.30 453.00 312.78 C 454.66 310.19 454.93 306.99 456.62 304.41 C 457.22 303.16 459.38 303.59 459.55 301.99 C 459.70 298.98 459.36 295.98 459.31 292.99 C 459.55 290.96 457.78 289.73 456.52 288.51 C 452.37 284.61 448.10 280.29 442.36 278.97 C 437.92 278.46 433.50 277.90 429.04 277.82 C 420.79 276.76 412.47 277.48 404.19 277.13 C 404.05 275.28 404.10 273.42 404.29 271.57 C 418.66 268.84 433.33 267.12 448.00 267.21 C 449.68 267.13 451.47 267.39 453.06 266.66 C 455.26 263.50 456.82 259.92 459.21 256.88 C 459.76 256.10 460.29 255.29 460.78 254.46 C 458.59 253.62 456.19 254.50 453.95 254.64 C 437.04 255.79 419.94 257.21 403.08 254.72 C 396.92 253.93 390.82 252.33 385.13 249.82 C 384.05 246.76 385.14 243.24 384.19 240.07 C 383.52 233.29 382.11 226.62 380.55 220.00 C 380.13 218.94 378.59 219.00 378.08 218.00 C 378.29 214.75 381.40 212.57 381.72 209.36 C 378.42 209.26 375.15 208.39 371.85 208.83 C 370.13 212.08 369.57 216.19 366.41 218.48 C 365.10 219.72 363.15 219.13 361.55 219.38 C 362.56 225.42 364.15 231.42 366.95 236.90 C 368.30 242.50 367.96 248.30 368.85 253.97 L 368.67 254.60 C 364.26 255.87 360.01 257.98 355.45 258.49 C 355.12 256.12 355.40 253.74 355.23 251.38 C 352.94 250.93 350.60 251.30 348.29 251.15 C 347.77 249.14 348.40 247.10 348.54 245.08 C 348.95 235.00 349.38 224.81 351.97 215.00 C 347.48 216.79 342.89 218.49 338.03 218.81 C 335.56 219.12 335.73 222.17 335.08 223.95 C 332.25 233.46 329.30 242.95 327.30 252.67 C 323.54 249.09 319.72 245.52 316.45 241.48 C 315.70 238.35 316.45 235.00 316.09 231.80 C 314.88 231.64 313.67 231.53 312.46 231.47 C 316.45 225.58 319.68 218.87 325.71 214.72 C 327.54 209.72 328.31 204.34 328.60 199.04 C 329.46 193.75 329.40 188.35 328.60 183.06 C 328.32 179.70 328.47 176.17 327.02 173.03 C 322.81 164.58 320.91 155.23 317.19 146.58 C 316.36 144.71 318.68 142.99 317.60 141.08 C 315.24 138.07 310.58 137.28 308.91 133.79 M 393.59 215.61 C 394.62 222.50 395.88 229.35 397.07 236.22 C 397.29 237.32 397.35 238.91 398.94 238.76 C 409.41 240.98 420.17 241.76 430.86 241.26 C 434.60 241.77 438.35 241.21 442.06 240.70 C 446.49 240.41 450.88 239.68 455.20 238.67 L 454.70 238.52 C 457.38 238.19 460.04 237.63 462.68 237.06 C 462.80 235.31 462.93 233.51 462.52 231.79 C 457.53 230.69 452.66 229.01 447.75 227.58 C 445.93 228.28 447.55 231.10 446.12 232.11 C 434.66 234.38 422.92 235.35 411.26 234.66 C 404.03 231.32 399.95 223.20 400.68 215.39 C 398.31 215.42 395.94 215.51 393.59 215.61 M 479.59 319.58 C 483.49 336.52 482.67 354.02 482.28 371.25 C 480.68 372.29 478.77 372.99 477.65 374.62 C 474.72 378.43 473.89 383.28 472.37 387.72 C 475.27 387.81 478.31 387.83 481.16 387.17 C 483.26 384.57 484.97 381.68 487.01 379.04 C 487.56 378.11 488.57 377.30 488.41 376.11 C 489.08 357.36 488.82 338.60 488.79 319.85 C 485.76 319.35 482.65 319.67 479.59 319.58 Z" />
<path fill="#ffffff" opacity="1.00" d=" M 334.91 267.55 C 339.27 267.13 343.63 267.54 347.99 267.56 C 351.34 267.60 354.70 267.39 358.03 267.80 C 358.65 271.67 358.19 275.60 358.72 279.48 C 359.29 283.76 359.03 288.18 360.30 292.35 C 361.86 296.84 363.30 301.37 364.60 305.94 C 365.44 308.27 365.30 311.03 367.06 312.97 C 369.25 315.80 370.50 319.38 373.35 321.69 C 374.45 322.77 376.22 322.63 377.32 323.66 C 379.22 326.45 380.17 329.82 382.29 332.44 C 388.94 333.46 395.63 334.43 402.16 336.04 C 403.44 343.88 403.95 351.88 404.72 359.82 C 398.69 357.10 393.18 353.30 387.11 350.62 C 384.94 349.42 382.04 349.04 380.85 346.59 C 379.60 346.19 378.32 345.98 377.03 345.90 C 371.59 344.94 367.21 341.33 362.75 338.34 C 362.59 343.09 361.79 347.79 361.67 352.55 C 358.74 352.70 355.82 352.27 352.90 352.32 C 351.87 353.82 351.29 355.67 349.81 356.83 C 347.47 358.96 344.12 359.44 341.07 359.30 C 339.82 359.45 338.53 358.40 338.88 357.05 C 339.13 350.87 338.38 344.60 339.17 338.48 C 343.56 339.74 347.88 341.33 352.38 342.21 C 351.20 337.60 349.86 332.99 348.44 328.49 C 346.95 328.95 345.45 329.37 343.90 329.54 C 340.10 330.04 336.47 331.66 332.63 331.80 C 331.49 327.85 330.64 323.80 329.67 319.80 L 329.89 319.06 C 330.33 318.89 331.21 318.54 331.65 318.37 C 338.45 309.75 337.53 298.14 339.77 287.97 C 337.28 286.05 334.35 284.84 331.76 283.08 C 331.87 277.83 333.88 272.72 334.91 267.55 Z" />
<path fill="#ffffff" opacity="1.00" d=" M 286.65 280.76 L 286.97 280.45 C 291.30 280.31 295.63 280.37 299.96 280.22 C 298.04 283.98 297.93 289.50 293.23 290.97 C 294.19 296.59 298.19 301.23 299.90 306.59 C 293.54 306.46 287.14 306.79 280.80 306.37 C 276.16 302.66 272.00 296.78 273.60 290.55 C 277.68 286.93 283.24 285.19 286.65 280.76 Z" />
<path fill="#ffffff" opacity="1.00" d=" M 419.91 282.90 C 420.75 282.03 421.01 283.88 420.40 284.29 C 418.35 286.83 415.91 289.04 413.95 291.65 C 414.16 296.86 416.44 302.00 416.24 307.21 C 412.58 306.44 408.82 306.84 405.16 306.28 C 402.39 303.67 399.45 301.25 396.68 298.64 C 398.60 294.81 398.88 290.40 400.55 286.47 C 406.94 285.01 413.60 284.51 419.91 282.90 Z" />
<path fill="#ffffff" opacity="1.00" d=" M 398.41 403.25 C 398.69 403.30 399.25 403.39 399.52 403.43 C 402.57 407.67 405.58 411.95 408.68 416.16 L 408.40 417.23 C 386.93 417.78 365.45 417.12 343.98 417.48 C 336.57 417.97 329.17 418.65 321.80 419.52 C 321.63 417.06 322.20 414.59 323.28 412.39 C 324.72 409.87 327.58 408.82 330.02 407.53 C 333.31 406.80 336.14 409.11 339.18 409.93 C 358.18 411.63 377.50 410.86 396.16 406.73 C 398.09 406.75 397.50 404.33 398.41 403.25 Z" />
<path fill="#ffffff" opacity="1.00" d=" M 332.49 424.44 L 332.91 423.88 C 354.33 423.80 375.76 423.79 397.18 423.88 C 399.39 425.66 400.41 428.57 402.15 430.81 C 403.01 432.56 404.89 434.00 404.92 436.04 C 390.25 437.03 375.72 440.35 360.94 439.55 C 354.52 439.60 348.31 437.63 341.90 437.49 C 336.74 436.53 331.46 437.17 326.28 436.61 C 324.82 434.63 322.79 432.78 322.26 430.32 C 325.59 428.24 330.61 428.42 332.49 424.44 Z" />
<path fill="#ffffff" opacity="1.00" d=" M 465.12 549.37 C 466.38 548.74 467.59 546.70 469.17 547.58 C 469.48 554.08 469.26 560.60 469.47 567.11 C 470.00 582.73 469.28 598.37 469.38 614.00 C 469.38 623.59 469.35 633.19 469.40 642.79 C 469.20 655.26 471.08 667.62 471.70 680.05 C 473.25 694.00 473.87 708.09 476.13 721.97 C 477.39 731.32 478.57 740.68 480.06 750.00 L 407.57 750.00 C 407.12 743.00 405.78 736.07 405.37 729.05 C 404.47 722.49 404.24 715.86 403.39 709.29 C 403.57 705.84 403.47 702.41 402.96 699.00 C 402.14 685.86 401.39 672.72 400.80 659.57 C 400.39 654.37 400.20 649.17 400.11 643.96 C 398.90 630.07 396.38 616.16 397.84 602.19 C 398.21 597.48 400.07 592.82 403.42 589.44 C 409.31 583.12 417.67 580.18 425.14 576.21 C 439.97 569.69 452.05 558.68 465.12 549.37 Z" />
</g>
<g id="#ff0000ff">
<path fill="#ff0000" opacity="1.00" d=" M 5.27 17.30 C 9.15 12.69 15.04 10.22 20.92 9.51 C 27.33 8.80 34.07 9.23 39.97 12.04 C 46.47 15.10 51.16 21.73 51.74 28.91 C 52.54 37.59 52.16 46.31 52.25 55.01 C 52.18 63.38 52.52 71.77 51.75 80.11 C 51.21 86.53 47.56 92.65 42.01 95.97 C 36.05 99.66 28.77 100.33 21.93 99.72 C 14.98 99.10 7.86 96.03 3.93 90.03 C 0.94 85.90 0.20 80.71 0.00 75.75 L 0.00 33.17 C 0.18 27.53 1.38 21.62 5.27 17.30 M 24.37 24.54 C 22.20 26.28 22.87 29.51 22.58 31.97 C 22.49 47.63 22.37 63.31 22.66 78.98 C 22.72 81.30 22.68 85.26 26.01 85.06 C 28.84 85.29 29.34 82.05 29.38 79.94 C 29.86 65.97 29.52 51.98 29.63 38.00 C 29.48 34.00 29.84 29.92 28.97 25.99 C 28.49 24.01 25.92 23.59 24.37 24.54 Z" />
<path fill="#ff0000" opacity="1.00" d=" M 159.60 9.69 C 166.77 8.69 174.46 9.06 181.00 12.46 C 185.57 14.93 189.79 18.73 191.25 23.88 C 193.01 30.10 192.99 36.64 192.83 43.04 C 185.32 43.08 177.74 43.39 170.26 42.89 C 170.13 37.53 170.41 32.14 169.75 26.81 C 169.81 23.68 164.67 23.01 163.72 25.85 C 163.01 28.15 163.20 30.60 163.07 32.98 C 162.91 45.98 163.05 58.99 162.99 72.00 C 163.10 75.52 162.89 79.08 163.58 82.55 C 163.88 85.41 168.20 85.94 169.57 83.65 C 170.87 81.34 170.62 78.58 170.80 76.03 C 170.79 72.21 171.14 68.38 170.68 64.59 C 169.26 64.57 167.84 64.57 166.43 64.60 C 166.32 60.28 166.37 55.95 166.36 51.63 C 175.11 51.02 183.98 51.57 192.77 51.36 C 193.00 66.88 192.83 82.41 192.86 97.92 C 188.04 97.95 183.15 98.28 178.37 97.75 C 177.54 96.07 177.40 94.17 176.78 92.41 C 175.57 92.91 175.00 94.19 174.13 95.08 C 171.39 98.25 167.16 99.93 163.01 99.91 C 154.80 100.25 146.40 95.57 142.89 88.05 C 140.55 83.41 140.52 78.09 140.38 73.02 C 140.40 60.69 140.32 48.36 140.41 36.04 C 140.69 31.16 140.67 26.09 142.61 21.52 C 145.91 15.13 152.56 10.80 159.60 9.69 Z" />
<path fill="#ff0000" opacity="1.00" d=" M 220.61 9.70 C 227.43 8.71 234.68 9.06 240.99 12.05 C 247.48 15.11 252.16 21.74 252.74 28.91 C 253.53 37.59 253.17 46.31 253.25 55.01 C 253.18 63.37 253.51 71.75 252.75 80.09 C 252.33 85.10 250.03 89.92 246.40 93.39 C 242.51 97.02 237.33 99.01 232.10 99.64 C 226.02 100.26 219.66 99.95 213.99 97.46 C 206.99 94.59 201.95 87.61 201.36 80.08 C 200.54 70.41 200.99 60.69 200.87 51.00 C 200.97 42.87 200.51 34.67 201.73 26.61 C 203.38 17.52 211.67 10.86 220.61 9.70 M 225.36 24.54 C 223.40 26.02 223.86 28.86 223.61 31.02 C 223.37 44.35 223.56 57.69 223.50 71.02 C 223.67 75.02 223.36 79.08 224.11 83.04 C 224.64 85.77 229.36 85.75 229.90 83.03 C 230.64 80.10 230.44 77.06 230.56 74.07 C 230.71 61.71 230.58 49.36 230.62 37.00 C 230.48 33.33 230.80 29.59 229.97 25.99 C 229.49 24.00 226.90 23.59 225.36 24.54 Z" />
<path fill="#ff0000" opacity="1.00" d=" M 60.58 11.03 C 68.08 10.99 75.58 10.95 83.07 11.05 C 83.23 21.38 83.02 31.71 83.16 42.04 C 85.38 42.21 87.61 42.20 89.83 42.04 C 89.98 31.71 89.77 21.38 89.93 11.05 C 97.42 10.95 104.92 10.99 112.42 11.03 C 112.55 40.01 112.55 68.99 112.42 97.97 C 104.92 98.01 97.42 98.05 89.93 97.95 C 89.80 85.87 89.92 73.78 89.88 61.70 C 87.65 61.31 85.35 61.35 83.12 61.68 C 83.08 73.77 83.20 85.86 83.07 97.95 C 75.58 98.05 68.07 98.01 60.58 97.97 C 60.45 68.99 60.44 40.01 60.58 11.03 Z" />
<path fill="#ff0000" opacity="1.00" d=" M 261.58 11.03 C 270.07 10.99 278.56 10.95 287.05 11.06 C 293.31 11.41 299.97 11.30 305.63 14.38 C 310.53 17.00 313.37 22.47 313.54 27.93 C 314.22 38.60 313.73 49.31 313.88 60.00 C 313.72 68.37 314.28 76.78 313.37 85.13 C 313.00 88.68 311.49 92.30 308.53 94.44 C 304.08 97.70 298.30 97.89 293.01 98.01 C 282.53 97.97 272.06 98.05 261.58 97.97 C 261.44 69.00 261.45 40.01 261.58 11.03 M 284.14 26.04 C 284.12 45.02 284.10 64.01 284.15 82.99 C 286.33 83.03 289.42 82.95 290.33 80.51 C 291.40 76.44 291.05 72.17 291.23 68.01 C 291.15 55.31 291.53 42.59 290.94 29.90 C 290.88 26.44 286.90 25.59 284.14 26.04 Z" />
<path fill="#ff0000" opacity="1.00" d=" M 505.88 582.04 C 513.21 581.97 520.56 581.96 527.90 582.04 C 529.53 601.60 531.03 621.17 532.51 640.74 C 533.77 621.22 536.17 601.79 538.71 582.40 C 539.99 581.68 541.58 582.07 543.00 581.98 C 549.37 582.13 555.75 581.79 562.11 582.13 L 562.44 582.39 C 564.28 602.46 565.61 622.58 567.39 642.65 C 568.23 641.69 567.42 639.43 567.69 638.04 C 568.84 619.43 570.91 600.87 573.48 582.40 L 573.85 582.07 C 581.07 581.91 588.32 582.02 595.55 582.02 C 595.56 584.39 595.11 586.72 594.87 589.08 C 591.80 615.65 588.67 642.21 585.63 668.78 C 576.20 669.22 566.69 668.99 557.23 668.90 C 554.49 654.43 552.36 639.83 550.65 625.20 L 550.35 625.29 C 548.21 639.69 546.32 654.14 544.23 668.55 C 543.08 669.39 541.36 668.86 540.00 669.02 C 532.01 668.92 524.01 669.11 516.03 668.94 C 512.53 639.99 509.15 611.02 505.88 582.04 Z" />
<path fill="#ff0000" opacity="1.00" d=" M 600.04 582.05 C 607.56 582.11 615.18 581.66 622.65 582.28 C 622.65 592.53 622.52 602.80 622.70 613.06 C 624.89 613.18 627.09 613.18 629.29 613.06 C 629.49 602.81 629.34 592.54 629.35 582.29 C 636.80 581.64 644.43 582.12 651.96 582.04 C 652.03 611.01 652.03 639.99 651.96 668.96 C 644.43 668.88 636.81 669.34 629.35 668.72 C 629.36 656.67 629.44 644.62 629.32 632.58 C 627.10 632.42 624.88 632.42 622.68 632.57 C 622.55 644.62 622.64 656.67 622.65 668.72 C 615.19 669.34 607.56 668.88 600.04 668.96 C 599.97 639.99 599.97 611.01 600.04 582.05 Z" />
<path fill="#ff0000" opacity="1.00" d=" M 656.56 582.02 C 663.09 582.00 669.63 581.96 676.16 582.03 C 677.87 581.82 677.38 583.86 677.75 584.84 C 679.38 594.85 681.62 604.79 682.43 614.92 C 683.54 611.72 683.74 608.29 684.41 604.99 C 685.83 597.33 687.21 589.65 689.02 582.07 C 695.94 582.03 702.90 581.78 709.81 582.20 C 704.39 600.11 699.15 618.07 693.76 635.99 C 693.45 636.95 693.28 637.94 693.26 638.96 C 693.19 648.96 693.35 658.96 693.19 668.96 C 686.21 668.98 679.21 669.13 672.24 668.88 C 672.26 659.25 672.23 649.62 672.27 640.00 C 672.29 638.67 672.13 637.37 671.77 636.10 C 666.70 618.33 661.57 600.57 656.56 582.79 L 656.56 582.02 Z" />
</g>
<g id="#010101ff">
<path fill="#010101" opacity="1.00" d=" M 247.87 134.58 C 263.77 128.31 280.76 123.74 297.98 124.64 C 310.04 125.55 322.01 127.27 333.96 129.00 C 343.82 130.21 353.76 130.84 363.53 132.69 C 378.88 135.25 394.13 139.43 407.90 146.84 C 428.92 157.91 451.68 166.48 469.95 182.08 C 482.76 193.57 494.59 206.09 506.49 218.50 C 519.46 232.98 529.87 249.59 538.61 266.91 C 551.12 295.69 559.73 325.95 568.89 355.91 C 571.34 365.28 573.42 374.84 573.80 384.55 C 573.56 390.12 573.55 395.70 573.75 401.27 C 573.56 407.79 571.93 414.18 569.47 420.20 C 564.86 430.80 557.92 440.12 551.37 449.57 C 542.35 462.60 531.87 474.53 521.18 486.21 C 516.80 491.14 512.29 496.00 507.19 500.20 C 498.11 507.88 488.02 514.28 478.95 521.97 C 478.17 522.71 477.20 523.44 477.03 524.58 C 475.20 533.58 475.40 542.83 475.64 551.97 C 476.08 578.91 475.64 605.85 475.77 632.80 C 475.04 641.25 476.51 649.63 476.56 658.07 C 479.25 680.75 479.63 703.72 483.80 726.20 C 485.20 734.14 486.33 742.14 488.17 750.00 L 480.06 750.00 C 478.57 740.68 477.39 731.32 476.13 721.97 C 474.70 702.90 472.30 683.93 471.10 664.84 C 469.89 657.53 470.97 650.06 469.40 642.79 C 469.35 633.19 469.38 623.59 469.38 614.00 C 469.28 598.37 470.00 582.73 469.47 567.11 C 469.26 560.60 469.48 554.08 469.17 547.58 C 467.59 546.70 466.38 548.74 465.12 549.37 C 452.05 558.68 439.97 569.69 425.14 576.21 C 417.67 580.18 409.31 583.12 403.42 589.44 C 400.07 592.82 398.21 597.48 397.84 602.19 C 396.38 616.16 398.90 630.07 400.11 643.96 C 400.20 649.17 400.39 654.37 400.80 659.57 C 400.51 665.40 400.35 671.28 401.22 677.07 C 401.77 681.04 401.13 685.06 401.64 689.04 C 401.92 691.69 402.51 694.32 402.34 697.01 C 402.17 701.14 403.13 705.19 403.39 709.29 C 404.24 715.86 404.47 722.49 405.37 729.05 C 405.78 736.07 407.12 743.00 407.57 750.00 L 166.14 750.00 C 166.88 744.69 166.20 739.30 167.05 734.00 C 167.60 730.55 167.42 727.07 167.31 723.60 C 167.71 717.80 168.19 712.01 168.69 706.23 C 169.04 704.51 169.45 702.81 169.52 701.07 C 170.07 693.64 171.42 686.30 171.82 678.87 C 173.70 665.04 176.86 651.44 180.22 637.92 C 184.87 620.84 191.98 604.56 196.86 587.56 C 202.56 569.03 212.28 552.13 219.34 534.15 C 219.61 533.13 220.57 531.56 219.11 530.97 C 208.72 524.15 196.92 519.95 186.14 513.84 C 164.77 502.41 144.37 487.37 131.78 466.23 C 122.34 448.93 113.66 430.99 108.76 411.82 C 106.42 401.44 104.96 390.85 104.35 380.23 C 105.04 375.83 104.52 371.39 104.53 366.98 C 104.45 363.18 104.88 359.37 104.19 355.61 C 104.40 338.20 107.10 320.88 110.82 303.90 C 112.53 297.63 112.99 291.12 114.54 284.82 C 118.59 264.67 124.71 244.97 131.81 225.70 C 136.98 212.37 141.65 198.68 149.29 186.51 C 152.53 181.19 156.68 176.42 161.59 172.58 C 165.91 169.14 171.15 167.22 176.15 165.00 C 191.43 158.45 207.04 152.70 222.30 146.10 C 230.87 142.36 239.17 138.01 247.87 134.58 M 308.91 133.79 C 310.58 137.28 315.24 138.07 317.60 141.08 C 318.68 142.99 316.36 144.71 317.19 146.58 C 320.91 155.23 322.81 164.58 327.02 173.03 C 328.47 176.17 328.32 179.70 328.60 183.06 C 329.40 188.35 329.46 193.75 328.60 199.04 C 328.31 204.34 327.54 209.72 325.71 214.72 C 319.68 218.87 316.45 225.58 312.46 231.47 C 313.67 231.53 314.88 231.64 316.09 231.80 C 316.45 235.00 315.70 238.35 316.45 241.48 C 319.72 245.52 323.54 249.09 327.30 252.67 C 329.30 242.95 332.25 233.46 335.08 223.95 C 335.73 222.17 335.56 219.12 338.03 218.81 C 342.89 218.49 347.48 216.79 351.97 215.00 C 349.38 224.81 348.95 235.00 348.54 245.08 C 348.40 247.10 347.77 249.14 348.29 251.15 C 350.60 251.30 352.94 250.93 355.23 251.38 C 355.40 253.74 355.12 256.12 355.45 258.49 C 360.01 257.98 364.26 255.87 368.67 254.60 L 368.85 253.97 L 369.50 253.54 C 369.51 250.99 368.31 248.56 368.58 245.99 C 368.39 242.97 369.29 239.29 366.95 236.90 C 364.15 231.42 362.56 225.42 361.55 219.38 C 363.15 219.13 365.10 219.72 366.41 218.48 C 369.57 216.19 370.13 212.08 371.85 208.83 C 375.15 208.39 378.42 209.26 381.72 209.36 C 381.40 212.57 378.29 214.75 378.08 218.00 C 378.59 219.00 380.13 218.94 380.55 220.00 C 382.11 226.62 383.52 233.29 384.19 240.07 C 385.14 243.24 384.05 246.76 385.13 249.82 C 390.82 252.33 396.92 253.93 403.08 254.72 L 403.43 255.45 C 407.30 255.51 411.10 256.49 414.99 256.38 C 423.34 256.96 431.71 256.30 440.07 256.20 C 446.40 255.13 452.88 255.96 459.19 254.70 C 459.19 255.25 459.20 256.34 459.21 256.88 C 456.82 259.92 455.26 263.50 453.06 266.66 C 451.47 267.39 449.68 267.13 448.00 267.21 C 433.33 267.12 418.66 268.84 404.29 271.57 C 404.10 273.42 404.05 275.28 404.19 277.13 C 412.47 277.48 420.79 276.76 429.04 277.82 C 433.50 277.90 437.92 278.46 442.36 278.97 C 448.10 280.29 452.37 284.61 456.52 288.51 C 457.78 289.73 459.55 290.96 459.31 292.99 C 459.36 295.98 459.70 298.98 459.55 301.99 C 459.38 303.59 457.22 303.16 456.62 304.41 C 454.93 306.99 454.66 310.19 453.00 312.78 C 451.38 313.30 449.66 313.04 448.00 313.10 C 434.54 313.07 421.08 313.07 407.62 313.09 C 406.30 314.64 408.22 315.79 409.53 316.19 C 415.45 318.33 421.72 319.73 428.04 319.69 C 429.67 319.77 431.43 319.68 432.90 320.52 C 434.04 321.59 434.95 322.90 436.14 323.94 C 438.85 324.31 439.32 320.08 442.00 320.24 C 449.65 320.14 456.68 316.63 462.84 312.37 C 462.10 316.95 460.79 321.41 459.98 325.97 C 458.12 326.69 455.99 325.91 454.04 326.21 C 449.74 326.61 444.38 327.95 443.01 332.68 C 440.29 332.76 437.56 332.69 434.87 332.35 C 429.68 331.38 424.24 331.80 419.23 329.93 C 414.22 328.32 409.18 326.66 403.96 325.90 C 395.48 325.09 393.44 313.70 384.97 312.67 C 384.77 301.02 385.14 289.37 385.32 277.73 C 387.57 275.47 389.60 273.02 391.51 270.47 C 391.53 270.27 391.57 269.87 391.59 269.67 C 383.97 271.23 376.17 271.82 368.57 273.51 C 367.16 275.96 364.88 278.12 364.21 280.88 C 370.42 287.82 368.51 297.98 372.59 305.89 C 374.00 308.04 375.65 310.04 377.00 312.25 C 380.71 317.73 386.45 321.25 391.42 325.46 C 393.13 326.81 394.69 328.59 396.92 329.06 C 399.76 329.65 402.69 329.01 405.55 329.47 C 408.75 330.33 408.40 335.12 411.79 335.65 C 414.50 336.63 417.56 335.23 420.13 336.37 C 425.18 345.41 429.68 354.75 434.41 363.96 C 435.29 365.54 435.85 367.26 436.14 369.05 C 437.44 377.70 440.67 385.87 443.59 394.06 C 444.24 395.12 446.63 394.14 446.42 396.01 C 446.52 400.72 446.80 406.15 450.42 409.64 C 451.12 410.70 453.21 410.41 453.29 411.91 C 453.33 414.92 452.95 417.92 452.57 420.91 C 451.93 428.30 451.83 436.02 449.12 443.02 C 446.53 444.32 444.08 446.29 441.20 446.79 C 436.74 439.75 436.71 431.05 436.80 423.01 C 436.61 418.32 437.50 413.31 435.17 408.99 C 430.90 399.43 427.77 389.34 426.42 378.94 C 426.13 377.63 423.44 378.86 423.80 376.97 C 421.41 367.29 419.94 356.19 411.74 349.44 L 410.64 349.29 C 410.47 354.20 410.46 359.11 410.27 364.01 C 408.25 366.72 405.70 369.07 403.11 371.24 C 395.85 371.61 388.45 371.46 381.27 371.91 C 381.20 378.65 381.46 385.40 381.43 392.15 C 379.39 392.76 377.29 393.15 375.20 393.56 C 369.66 393.38 364.12 393.50 358.58 393.48 C 356.24 392.73 353.77 392.64 351.44 391.97 C 351.17 389.67 352.35 387.46 352.42 385.17 C 352.96 382.41 352.77 379.11 355.12 377.12 C 356.49 375.35 359.34 373.90 358.65 371.28 C 357.30 370.34 355.56 369.89 353.95 370.30 C 352.83 372.84 352.81 375.98 351.10 378.17 C 344.90 378.37 338.68 378.03 332.49 378.33 C 332.27 385.73 330.89 393.11 328.32 400.06 C 338.16 401.70 348.04 403.75 358.06 403.62 L 358.43 404.31 C 362.67 404.08 367.27 405.31 371.28 403.60 C 380.45 401.49 389.68 399.41 399.08 398.50 C 401.66 398.36 404.37 397.14 406.89 398.15 C 411.56 401.33 413.98 406.76 415.43 412.04 C 417.09 416.17 416.19 421.59 419.61 424.76 C 417.94 428.31 418.39 432.68 415.85 435.86 C 414.57 437.41 412.47 436.90 410.76 437.25 C 410.62 439.83 411.10 442.61 409.75 444.96 C 408.52 447.89 406.20 450.12 404.03 452.36 C 396.40 453.00 388.73 452.88 381.09 453.12 C 380.76 454.65 380.81 456.85 382.79 457.16 C 386.53 457.98 390.27 455.80 394.07 456.72 C 394.13 458.97 393.95 461.24 393.60 463.47 C 391.74 463.11 389.87 462.95 388.00 462.89 C 383.41 461.68 378.67 461.34 374.00 460.65 C 364.61 460.13 354.80 459.48 345.83 462.81 C 344.15 466.96 343.11 471.35 341.30 475.44 C 337.95 478.13 335.22 481.73 334.10 485.93 C 331.94 492.47 333.89 500.35 339.35 504.69 C 344.85 509.43 350.31 514.22 356.07 518.64 C 357.88 520.03 359.73 521.66 362.08 522.01 C 368.17 523.60 373.85 526.45 379.96 527.99 C 386.64 529.29 393.43 527.84 399.93 526.29 C 401.33 525.97 402.90 525.98 404.10 525.09 C 405.43 523.51 406.23 521.60 407.13 519.77 C 410.40 518.97 414.45 520.03 417.02 517.29 C 423.22 512.88 425.42 505.23 429.00 498.88 C 429.52 497.62 430.85 496.51 430.55 495.04 C 427.74 490.18 424.54 485.25 423.67 479.62 C 426.53 479.64 429.38 479.61 432.24 479.66 C 434.26 482.75 436.67 486.06 436.62 489.93 C 437.11 500.76 436.43 511.69 434.06 522.29 C 433.81 523.38 433.54 524.98 432.06 524.98 C 427.08 526.58 421.32 527.54 417.92 531.94 C 417.00 532.83 416.51 534.53 415.02 534.59 C 409.64 534.97 402.99 535.70 400.42 541.23 C 391.94 541.55 383.49 540.30 375.00 540.80 C 373.88 541.12 372.63 540.29 371.67 541.12 C 367.44 541.34 363.15 541.05 358.96 541.82 C 355.14 542.45 351.14 542.39 347.49 543.77 C 350.22 547.40 352.89 551.16 355.89 554.55 C 356.05 554.74 356.36 555.13 356.51 555.33 C 361.42 555.82 366.19 554.37 371.07 554.53 C 376.94 553.70 382.74 552.51 388.52 551.27 L 388.89 550.78 C 397.98 548.94 406.88 546.21 416.00 544.58 C 417.32 544.14 417.71 542.48 418.98 541.95 C 428.65 537.25 438.42 532.76 448.04 527.94 C 449.85 527.14 450.74 525.20 452.34 524.11 C 456.00 521.45 460.33 519.96 464.51 518.33 C 466.36 517.30 467.40 515.26 469.23 514.18 C 473.70 511.24 479.07 510.30 484.02 508.47 C 485.76 507.48 487.03 505.85 488.50 504.52 C 492.00 500.98 495.88 497.88 499.76 494.78 C 502.42 492.90 505.12 490.98 507.11 488.37 C 515.90 478.42 524.55 468.34 533.75 458.76 C 535.04 457.42 536.44 456.16 537.52 454.64 C 543.91 445.32 548.77 434.86 556.63 426.61 C 557.87 425.23 559.44 424.14 560.47 422.59 C 560.84 419.93 561.24 417.27 561.81 414.65 C 562.59 411.80 564.07 408.65 567.21 407.87 L 567.64 407.58 C 567.60 398.71 567.63 389.83 567.48 380.96 C 567.30 378.57 567.36 375.94 566.00 373.88 C 561.99 360.45 557.45 347.16 554.24 333.51 C 554.01 331.59 551.41 333.48 551.15 332.10 C 550.35 326.84 551.35 321.44 550.65 316.17 C 549.43 315.05 547.95 314.19 547.08 312.74 C 542.39 306.15 543.15 297.46 539.75 290.35 C 536.07 285.91 534.57 280.14 534.50 274.46 C 529.15 271.39 529.97 264.20 525.92 260.07 C 520.17 254.33 515.28 247.45 513.40 239.44 C 507.70 233.20 501.98 226.97 496.05 220.94 C 483.45 207.24 470.43 193.83 455.97 182.07 C 453.79 180.76 454.54 177.33 452.04 176.39 C 449.10 175.76 445.96 176.10 443.15 174.90 C 441.35 173.78 441.33 171.38 440.09 169.83 C 437.21 168.62 434.00 170.12 431.01 169.40 C 430.21 168.51 429.92 167.08 428.72 166.63 C 415.61 160.90 403.21 153.66 390.11 147.90 C 387.92 146.81 384.66 146.51 384.32 143.52 C 374.79 143.74 365.34 141.68 356.43 138.37 C 353.37 137.29 350.07 137.64 346.91 137.20 C 336.87 136.54 326.94 134.80 316.90 134.26 C 314.26 133.85 311.58 133.48 308.91 133.79 M 334.98 266.73 L 334.91 267.55 C 333.88 272.72 331.87 277.83 331.76 283.08 C 334.35 284.84 337.28 286.05 339.77 287.97 C 337.53 298.14 338.45 309.75 331.65 318.37 C 331.21 318.54 330.33 318.89 329.89 319.06 L 329.67 319.80 C 330.64 323.80 331.49 327.85 332.63 331.80 C 336.47 331.66 340.10 330.04 343.90 329.54 C 345.45 329.37 346.95 328.95 348.44 328.49 C 349.86 332.99 351.20 337.60 352.38 342.21 C 347.88 341.33 343.56 339.74 339.17 338.48 C 338.38 344.60 339.13 350.87 338.88 357.05 C 338.53 358.40 339.82 359.45 341.07 359.30 C 344.12 359.44 347.47 358.96 349.81 356.83 C 351.29 355.67 351.87 353.82 352.90 352.32 C 355.82 352.27 358.74 352.70 361.67 352.55 C 361.79 347.79 362.59 343.09 362.75 338.34 C 367.21 341.33 371.59 344.94 377.03 345.90 C 378.32 345.98 379.60 346.19 380.85 346.59 C 382.04 349.04 384.94 349.42 387.11 350.62 C 393.18 353.30 398.69 357.10 404.72 359.82 C 403.95 351.88 403.44 343.88 402.16 336.04 C 395.63 334.43 388.94 333.46 382.29 332.44 C 380.17 329.82 379.22 326.45 377.32 323.66 C 376.22 322.63 374.45 322.77 373.35 321.69 C 370.50 319.38 369.25 315.80 367.06 312.97 C 365.30 311.03 365.44 308.27 364.60 305.94 C 363.30 301.37 361.86 296.84 360.30 292.35 C 360.75 288.50 359.11 284.82 359.51 280.97 C 359.17 276.42 358.47 271.91 358.61 267.33 C 350.75 267.12 342.85 266.41 334.98 266.73 M 286.65 280.76 C 283.24 285.19 277.68 286.93 273.60 290.55 C 272.00 296.78 276.16 302.66 280.80 306.37 C 287.14 306.79 293.54 306.46 299.90 306.59 C 298.19 301.23 294.19 296.59 293.23 290.97 C 297.93 289.50 298.04 283.98 299.96 280.22 C 295.63 280.37 291.30 280.31 286.97 280.45 L 286.65 280.76 M 320.50 282.41 C 321.08 287.26 322.26 292.05 321.87 296.99 C 322.35 300.85 320.50 304.33 318.55 307.50 C 323.83 304.53 328.86 301.12 333.96 297.86 C 333.98 296.56 332.72 295.86 332.00 294.98 C 327.97 290.99 325.27 285.65 320.50 282.41 M 419.91 282.90 C 413.60 284.51 406.94 285.01 400.55 286.47 C 398.88 290.40 398.60 294.81 396.68 298.64 C 399.45 301.25 402.39 303.67 405.16 306.28 C 408.82 306.84 412.58 306.44 416.24 307.21 C 416.44 302.00 414.16 296.86 413.95 291.65 C 415.91 289.04 418.35 286.83 420.40 284.29 C 421.01 283.88 420.75 282.03 419.91 282.90 M 440.77 286.74 C 439.78 290.17 441.64 293.56 441.44 297.01 C 441.15 300.69 442.02 304.29 442.16 307.95 C 441.28 309.53 444.39 308.99 443.69 307.87 C 446.01 303.73 448.68 299.81 451.33 295.88 L 451.28 295.11 C 448.61 292.44 445.45 290.34 442.75 287.71 C 442.32 287.02 441.66 285.87 440.77 286.74 M 361.25 377.36 C 361.27 381.50 362.10 385.63 362.67 389.74 C 362.96 389.75 363.55 389.76 363.85 389.77 C 367.54 387.65 371.06 385.21 374.33 382.47 C 375.35 381.60 376.63 380.79 376.91 379.37 C 371.67 378.86 366.47 377.96 361.25 377.36 M 398.41 403.25 C 397.50 404.33 398.09 406.75 396.16 406.73 C 377.50 410.86 358.18 411.63 339.18 409.93 C 336.14 409.11 333.31 406.80 330.02 407.53 C 327.58 408.82 324.72 409.87 323.28 412.39 C 322.20 414.59 321.63 417.06 321.80 419.52 C 329.17 418.65 336.57 417.97 343.98 417.48 C 365.45 417.12 386.93 417.78 408.40 417.23 L 408.68 416.16 C 405.58 411.95 402.57 407.67 399.52 403.43 C 399.25 403.39 398.69 403.30 398.41 403.25 M 332.49 424.44 C 330.61 428.42 325.59 428.24 322.26 430.32 C 322.79 432.78 324.82 434.63 326.28 436.61 C 331.46 437.17 336.74 436.53 341.90 437.49 C 348.31 437.63 354.52 439.60 360.94 439.55 C 375.72 440.35 390.25 437.03 404.92 436.04 C 404.89 434.00 403.01 432.56 402.15 430.81 C 400.41 428.57 399.39 425.66 397.18 423.88 C 375.76 423.79 354.33 423.80 332.91 423.88 L 332.49 424.44 Z" />
<path fill="#010101" opacity="1.00" d=" M 393.59 215.61 C 395.94 215.51 398.31 215.42 400.68 215.39 C 399.95 223.20 404.03 231.32 411.26 234.66 C 422.92 235.35 434.66 234.38 446.12 232.11 C 447.55 231.10 445.93 228.28 447.75 227.58 C 452.66 229.01 457.53 230.69 462.52 231.79 C 462.93 233.51 462.80 235.31 462.68 237.06 C 460.04 237.63 457.38 238.19 454.70 238.52 C 450.75 238.71 446.90 239.69 442.97 240.01 C 438.94 240.51 434.88 240.65 430.86 241.26 C 420.17 241.76 409.41 240.98 398.94 238.76 C 397.35 238.91 397.29 237.32 397.07 236.22 C 395.88 229.35 394.62 222.50 393.59 215.61 Z" />
<path fill="#010101" opacity="1.00" d=" M 479.59 319.58 C 482.65 319.67 485.76 319.35 488.79 319.85 C 488.82 338.60 489.08 357.36 488.41 376.11 C 488.57 377.30 487.56 378.11 487.01 379.04 C 484.97 381.68 483.26 384.57 481.16 387.17 C 478.31 387.83 475.27 387.81 472.37 387.72 C 473.89 383.28 474.72 378.43 477.65 374.62 C 478.77 372.99 480.68 372.29 482.28 371.25 C 482.67 354.02 483.49 336.52 479.59 319.58 Z" />
</g>
<g id="#707070ff">
<path fill="#707070" opacity="1.00" d=" M 366.95 236.90 C 369.29 239.29 368.39 242.97 368.58 245.99 C 368.31 248.56 369.51 250.99 369.50 253.54 L 368.85 253.97 C 367.96 248.30 368.30 242.50 366.95 236.90 Z" />
<path fill="#707070" opacity="1.00" d=" M 358.58 393.48 C 364.12 393.50 369.66 393.38 375.20 393.56 C 369.73 394.51 364.01 394.60 358.58 393.48 Z" />
</g>
<g id="#828282ff">
<path fill="#828282" opacity="1.00" d=" M 442.97 240.01 C 446.90 239.69 450.75 238.71 454.70 238.52 L 455.20 238.67 C 450.88 239.68 446.49 240.41 442.06 240.70 C 438.35 241.21 434.60 241.77 430.86 241.26 C 434.88 240.65 438.94 240.51 442.97 240.01 Z" />
<path fill="#828282" opacity="1.00" d=" M 358.06 403.62 C 362.46 403.62 366.87 403.73 371.28 403.60 C 367.27 405.31 362.67 404.08 358.43 404.31 L 358.06 403.62 Z" />
</g>
<g id="#6e6e6eff">
<path fill="#6e6e6e" opacity="1.00" d=" M 403.08 254.72 C 419.94 257.21 437.04 255.79 453.95 254.64 C 456.19 254.50 458.59 253.62 460.78 254.46 C 460.29 255.29 459.76 256.10 459.21 256.88 C 459.20 256.34 459.19 255.25 459.19 254.70 C 452.88 255.96 446.40 255.13 440.07 256.20 C 431.71 256.30 423.34 256.96 414.99 256.38 C 411.10 256.49 407.30 255.51 403.43 255.45 L 403.08 254.72 Z" />
</g>
<g id="#8e8e8eff">
<path fill="#8e8e8e" opacity="1.00" d=" M 334.98 266.73 C 342.85 266.41 350.75 267.12 358.61 267.33 C 358.47 271.91 359.17 276.42 359.51 280.97 C 359.11 284.82 360.75 288.50 360.30 292.35 C 359.03 288.18 359.29 283.76 358.72 279.48 C 358.19 275.60 358.65 271.67 358.03 267.80 C 354.70 267.39 351.34 267.60 347.99 267.56 C 343.63 267.54 339.27 267.13 334.91 267.55 L 334.98 266.73 Z" />
</g>
<g id="#a1a1a1ff">
<path fill="#a1a1a1" opacity="1.00" d=" M 384.46 280.96 C 384.53 279.84 384.32 278.52 385.32 277.73 C 385.14 289.37 384.77 301.02 384.97 312.67 L 384.41 312.49 C 384.33 301.98 384.43 291.47 384.46 280.96 Z" />
</g>
<g id="#fefefeff">
<path fill="#fefefe" opacity="1.00" d=" M 320.50 282.41 C 325.27 285.65 327.97 290.99 332.00 294.98 C 332.72 295.86 333.98 296.56 333.96 297.86 C 328.86 301.12 323.83 304.53 318.55 307.50 C 320.50 304.33 322.35 300.85 321.87 296.99 C 322.26 292.05 321.08 287.26 320.50 282.41 Z" />
<path fill="#fefefe" opacity="1.00" d=" M 441.23 287.48 L 442.75 287.71 C 445.45 290.34 448.61 292.44 451.28 295.11 L 451.33 295.88 C 448.68 299.81 446.01 303.73 443.69 307.87 L 442.95 307.04 C 441.95 300.58 441.63 294.00 441.23 287.48 Z" />
<path fill="#fefefe" opacity="1.00" d=" M 361.25 377.36 C 366.47 377.96 371.67 378.86 376.91 379.37 C 376.63 380.79 375.35 381.60 374.33 382.47 C 371.06 385.21 367.54 387.65 363.85 389.77 C 363.55 389.76 362.96 389.75 362.67 389.74 C 362.10 385.63 361.27 381.50 361.25 377.36 Z" />
</g>
<g id="#747474ff">
<path fill="#747474" opacity="1.00" d=" M 440.77 286.74 C 441.66 285.87 442.32 287.02 442.75 287.71 L 441.23 287.48 C 441.63 294.00 441.95 300.58 442.95 307.04 L 443.69 307.87 C 444.39 308.99 441.28 309.53 442.16 307.95 C 442.02 304.29 441.15 300.69 441.44 297.01 C 441.64 293.56 439.78 290.17 440.77 286.74 Z" />
<path fill="#747474" opacity="1.00" d=" M 400.80 659.57 C 401.39 672.72 402.14 685.86 402.96 699.00 C 403.47 702.41 403.57 705.84 403.39 709.29 C 403.13 705.19 402.17 701.14 402.34 697.01 C 402.51 694.32 401.92 691.69 401.64 689.04 C 401.13 685.06 401.77 681.04 401.22 677.07 C 400.35 671.28 400.51 665.40 400.80 659.57 Z" />
</g>
<g id="#474747ff">
<path fill="#474747" opacity="1.00" d=" M 104.19 355.61 C 104.88 359.37 104.45 363.18 104.53 366.98 C 104.52 371.39 105.04 375.83 104.35 380.23 C 103.49 374.19 103.73 368.08 103.64 362.01 C 103.56 359.86 103.87 357.72 104.19 355.61 Z" />
</g>
<g id="#5f5f5fff">
<path fill="#5f5f5f" opacity="1.00" d=" M 566.00 373.88 C 567.36 375.94 567.30 378.57 567.48 380.96 C 567.63 389.83 567.60 398.71 567.64 407.58 L 567.21 407.87 C 566.78 396.55 567.47 385.14 566.00 373.88 Z" />
</g>
<g id="#7d7d7dff">
<path fill="#7d7d7d" opacity="1.00" d=" M 573.75 401.27 C 573.55 395.70 573.56 390.12 573.80 384.55 C 574.81 387.96 574.30 391.52 574.43 395.02 C 574.52 397.12 574.20 399.22 573.75 401.27 Z" />
<path fill="#7d7d7d" opacity="1.00" d=" M 407.82 518.74 C 410.92 518.53 414.07 518.45 417.02 517.29 C 414.45 520.03 410.40 518.97 407.13 519.77 C 407.30 519.51 407.65 519.00 407.82 518.74 Z" />
<path fill="#7d7d7d" opacity="1.00" d=" M 476.56 658.07 C 476.51 649.63 475.04 641.25 475.77 632.80 C 476.58 641.50 476.43 650.26 477.36 658.96 C 478.04 665.95 478.53 672.96 479.23 679.96 C 479.94 695.44 482.39 710.78 483.80 726.20 C 479.63 703.72 479.25 680.75 476.56 658.07 Z" />
</g>
<g id="#9b9b9bff">
<path fill="#9b9b9b" opacity="1.00" d=" M 381.09 453.12 C 388.73 452.88 396.40 453.00 404.03 452.36 C 403.78 452.57 403.27 452.97 403.01 453.17 C 395.96 453.88 388.82 453.21 381.75 453.74 L 381.55 454.93 L 382.00 455.99 C 386.04 457.45 390.42 455.59 394.60 456.33 C 394.61 458.86 395.09 461.65 394.12 464.04 C 392.02 464.00 389.95 463.64 388.00 462.89 C 389.87 462.95 391.74 463.11 393.60 463.47 C 393.95 461.24 394.13 458.97 394.07 456.72 C 390.27 455.80 386.53 457.98 382.79 457.16 C 380.81 456.85 380.76 454.65 381.09 453.12 Z" />
</g>
<g id="#7c7c7cff">
<path fill="#7c7c7c" opacity="1.00" d=" M 355.89 554.55 C 367.04 554.97 378.00 552.84 388.89 550.78 L 388.52 551.27 C 382.74 552.51 376.94 553.70 371.07 554.53 C 366.19 554.37 361.42 555.82 356.51 555.33 C 356.36 555.13 356.05 554.74 355.89 554.55 Z" />
</g>
<g id="#808080ff">
<path fill="#808080" opacity="1.00" d=" M 469.40 642.79 C 470.97 650.06 469.89 657.53 471.10 664.84 C 472.30 683.93 474.70 702.90 476.13 721.97 C 473.87 708.09 473.25 694.00 471.70 680.05 C 471.08 667.62 469.20 655.26 469.40 642.79 Z" />
</g>
<g id="#787878ff">
<path fill="#787878" opacity="1.00" d=" M 169.63 693.96 C 170.06 688.89 170.74 683.84 171.82 678.87 C 171.42 686.30 170.07 693.64 169.52 701.07 C 169.45 702.81 169.04 704.51 168.69 706.23 C 168.48 702.11 169.23 698.03 169.63 693.96 Z" />
</g>
<g id="#696969ff">
<path fill="#696969" opacity="1.00" d=" M 165.18 750.00 C 166.45 741.25 166.20 732.36 167.31 723.60 C 167.42 727.07 167.60 730.55 167.05 734.00 C 166.20 739.30 166.88 744.69 166.14 750.00 L 165.18 750.00 Z" />
</g>
</svg>
