<?xml version="1.0" encoding="utf-8"?> <!-- Generator: Adobe Illustrator 14.0.0, SVG Export Plug-In . SVG Version: 6.00 Build 43363) --> <!DOCTYPE svg PUBLIC "-//W3C//DTD SVG 1.0//EN" "http://www.w3.org/TR/2001/REC-SVG-20010904/DTD/svg10.dtd"> <svg version="1.0" xmlns="http://www.w3.org/2000/svg" xmlns:xlink="http://www.w3.org/1999/xlink" x="0px" y="0px" width="500px" height="500px" viewBox="0 0 500 500" enable-background="new 0 0 500 500" xml:space="preserve">
<g id="Oh_Noes">
	<g>
		<g id="XMLID_10_">
			<g>
				<path fill="#FFFFFF" d="M271.98,157.34c1.779,0,4.079,0.51,5.5,0.15c-1.051,4.02-4.061-0.13-8,1
					C269.78,157.58,270.76,157.34,271.98,157.34z"/>
				<path fill="#FFFFFF" d="M320.47,156.49c2.09-1.58,5.261-2.07,9-2C328.44,158.63,323.17,159.07,320.47,156.49z"/>
				<path fill="#FFFFFF" d="M294.48,158.49c5.1-1.76,17.22-1.17,21-1C312.56,161.45,299.05,159.47,294.48,158.49z"/>
				<path fill="#FFFFFF" d="M348.62,213.16c2.61,11.77,10.08,18.7,7.85,35.32c-2.64-13.73-9.22-23.51-12.62-36.48
					c-0.13-0.5-0.26-1-0.38-1.51c-0.01-4.43,2.91,2.21,5,2C348.52,212.72,348.56,212.94,348.62,213.16z"/>
				<path fill="#FFFFFF" d="M127.47,250.3c0,10.101,0.99,19.45,2.47,28.271c3.06,18.29,8.22,34.35,10.99,50.38
					c-1.65-6.66-6.08-10.53-9.43-15.48c-0.82-2.92-1.5-5.97-2.06-9.149c-2.84-16.09-2.68-35.181-2.77-54.021H127.47z"/>
				<path fill="#FFFFFF" d="M164.5,219.71c-0.93,3.64-3.06,7.75-3.01,11.77c-1.32-0.98-2.12-2.08-2.54-3.26
					c-1.69-4.76,2.95-10.66,5.54-13.73C165.13,216.05,164.98,217.82,164.5,219.71z"/>
				<path fill="#FFFFFF" d="M179.49,227.48c-0.35,4.32-2.68,6.66-7,7C169,229.91,177.03,220.32,179.49,227.48z"/>
				<path fill="#FFFFFF" d="M219.49,207.49c5.4,23.1-16.22,35.51-27,48.99c-5.28,0.869-9.66,1.039-13.29,0.63
					c-18.77-2.13-17.27-19.78-13.04-36.98c1.72-6.97,3.88-13.88,5.33-19.64c1.51-1.29,3.04-2.33,4.59-3.15
					C190.61,189.62,206.29,201.34,219.49,207.49z M170.49,236.48c9.26,2.08,13.26-5.82,10-12.99
					C172.48,218.84,166.8,229.42,170.49,236.48z"/>
				<path fill="#FFFFFF" d="M290.48,192.49c0.1-8.58,12.21-9.05,11,1C297.76,196.27,294.22,194.64,290.48,192.49z"/>
				<path fill="#FFFFFF" d="M327.47,204.49c2.59,15.25-4.739,20.59-11.989,25.99c-22.73,2.07-38.681-2.65-49-12.99
					c-1.601-6.4-5.641-10.36-10-14c-1.53-12.53,6.189-15.81,8-25c11.199-4.92,16.77-20.39,35-15c-0.23,7.57,8.76,5.91,8,14
					c10.01,0.65,8.01,13.32,15.989,16c-0.01,0.06-0.02,0.13-0.029,0.19C322.63,199.44,324.25,202.77,327.47,204.49z M303.48,195.49
					c0-2.67,0-5.33,0-8c-4.391-6.61-17.54-4.47-15,7C292.22,197.14,299.28,198.82,303.48,195.49z"/>
				<path fill="#FFFFFF" d="M282.48,239.48c5.02-0.3,18.279,13.4,25,5c4.789,4.07-8.341,6.8-14,7
					C288.96,248.33,284.96,244.67,282.48,239.48z"/>
				<path fill="#FFFFFF" d="M220.49,248.48c11.82,8.55,9.39,30.33-3.5,35.77c-1.66,0.7-3.5,1.13-5.5,1.23
					c2.19-12.66,1.8-27.9,8.35-36.221C220.05,249,220.26,248.73,220.49,248.48z"/>
				<path fill="#FFFFFF" d="M267.48,232.48c0.05,0.48,0.079,0.93,0.079,1.36c0,7.24-7.109,7.38-9.079,12.64
					c-2.631-6.03-5.4-11.92-10-16C252.95,229.04,263.14,230.47,267.48,232.48z"/>
				<path fill="#FFFFFF" d="M255.48,245.48c-2.671,10-11.26,14.07-20.99,17c-1.89-7.78-7.92-11.41-11-18
					c5.55-6.78,11.82-12.83,21.99-15c0.42,0.66,0.84,1.33,1.26,1.99C249.64,236.15,252.37,241.01,255.48,245.48z"/>
				<path fill="#FFFFFF" d="M311.48,244.48c11.64,5.69,14.81,19.85,21.989,30c-13.22,12.93-32.7,13-50.989,16
					c-37.521,6.14-71.76,27.96-87.99,49.989c7.99-14.34,14.39-30.27,16-50.989c2.48-1.15,5.01-2.261,7.39-3.5
					c8.35-4.351,15.06-10.351,12.61-25.5c0.96,0.35,1.33,1.289,1.67,2.26c0.43,1.26,0.81,2.569,2.33,2.74
					c16.939-3.391,22.939-17.721,34.99-26c0-1.88,0-3.75,0-5.64c0-0.45,0-0.91,0-1.36c1.529-0.26,2.649-0.11,3.55,0.25
					c2.67,1.07,3.479,3.99,7.45,3.75c-2.131,7.54,4.789,13.99,12.699,16.13C300.66,254.64,309.02,252.84,311.48,244.48z"/>
				<path fill="#FFFFFF" d="M320.47,169.49c-1.109,9.45,8.641,14.57,13,22c3.57,6.09,5.91,13.52,7.82,21.19
					c1.15,4.6,2.15,9.28,3.18,13.81c6.431,8.95,11.57,30.47,13,42.99c3.79,33.109,2.25,79.22-12,91.989c1.181,0.15,2.84-0.17,3,1
					c-2.8,4.86-5.319,10-9,14c-86.52,36.46-152.979-7-152.979-7c0.05-5.05-3.44-6.56-9-6c-3.78-7.22-15.07-6.93-19.99-13
					c-0.97-8.029-7.02-10.989-11-16c-0.98-5.359-1.72-10.29-3-16c-1.5-6.68-5.77-12.779-8-19.989c-1.66-5.381-0.33-11.44-2-16
					c-0.68-1.841-2.69-2.211-3-4c-3.28-19.011,1.68-52.101,8-60.99c-0.97-11.64,1.87-19.46,5-27c7.55-4.78,15.38-9.28,16-21
					c15.36-8.96,22.89-25.76,37.99-34.99c3.95-0.73,8.05-1.84,12.27-3.14c15.58-4.81,32.76-12.2,49.94-12.77
					c6.54-0.22,13.08,0.55,19.53,2.83c-1.631-0.46,9.619,5.19,12.25,7.08c6.22,4.46,13.5,12.13,18,17c-0.091,1.57-2.551,0.78-2,3
					c2.439,0.55,3.649,2.34,5,3.99c-15.28,2.94-33.271,0.85-42-5.99c-1.461,6.79,3.859,6.8,7,8.99c-1.86,0.07-3.7,0.11-5.48,0.09
					c-5.49-0.03-10.52-0.55-14.52-2.09c-2.08-1.58,0.609-7.93-4-6.99c-0.721,3.05,1.729,2.94,1,5.99c-3.99-1.33-5.49-5.17-11-4.99
					c2.89,9.32,15.12,11.39,25.59,13.25c4.39,0.78,8.46,1.52,11.41,2.74c-6.2,4.55-12.73,8.77-17.711,14.55
					c-5.52,6.39-9.14,14.69-8.289,27.45c3.829,4.5,8.77,7.89,10,15c8.439,9.47,34.56,16.89,51.46,11.48
					c10.26-3.28,17.119-11.3,14.529-26.48c-1.41-4.27-3.38-7.99-5.46-11.59c-3.06-5.26-6.359-10.28-8.529-16.41
					c-8.58-1.42-9.221-10.78-15-15c5,0,10,0,15,0c0.909,1.76,0.34,4.99,2,6c0.569-1.76-1.211-5.87,0.989-6
					c4.19,5.5,12.7,11.96,10,21C325.8,179.5,326.16,171.47,320.47,169.49z M156.5,226.49c0.47,0.73,0.87,1.48,1.2,2.26
					c4.33,9.97-1.85,23.24-8.2,28.73c-0.23-1.771,1-5.011-2-4c0,2.329,0,4.67,0,7c9.31-0.351,9.15-10.17,13-16
					c1.32,9.83,8.43,13.88,18.45,15.01c4.65,0.529,9.92,0.43,15.54-0.01c8.76-8.9,16.19-19.141,25-28c0.13-4.43,10.1-21.68,0-23.99
					c-8.01-10.67-29.12-21.51-45-12c3.52-7.15,7.22-14.11,6-26c-7.95,7.66-5.15,19.15-11,27c-5.7,7.65-17.41,10.27-18.99,21
					c4.24-0.46,5.89-8.73,9-7c-4,7.33-10.08,12.58-11,22.99C153.78,233.77,153.29,228.28,156.5,226.49z M339.47,268.48
					c-3.63-0.961-0.84,4.489-4,4c-6.689-10.511-13.149-32.641-28.33-29.98c-1.76,0.3-3.649,0.95-5.659,1.98
					c-8.011-4.11-17.681-9.44-27.91-13.21c-14.931-5.49-31.07-7.64-45.08,2.21c-1.39,6.62-10.18,5.82-9,15c-1.34,0-2.67,0-4,0
					c-4.59,12.08-3.66,29.68-9,41c1.48,22.039-10.08,35.3-13.97,50.489c-0.46,1.8-0.82,3.63-1.03,5.5c10.99-4.76,15.61-16.939,25-24
					c18.65-14.02,43.31-24.95,67.99-28.989C307.62,288.69,333.65,287.63,339.47,268.48z"/>
				<path d="M359.47,233.48c1.141,41.82,10.84,102.96-7,133.99c-6.62,0.71-5.26,9.4-13,9c3.681-4,6.2-9.14,9-14
					c-0.16-1.17-1.819-0.85-3-1c14.25-12.77,15.79-58.88,12-91.989c-1.43-12.521-6.569-34.041-13-42.99
					c-1.029-4.53-2.029-9.21-3.18-13.81l2.56-0.68c3.4,12.97,9.98,22.75,12.62,36.48c2.23-16.62-5.239-23.55-7.85-35.32l1.64-0.36
					C354.11,218.91,357.62,225.37,359.47,233.48z"/>
				<path d="M315.48,230.48c7.25-5.4,14.579-10.74,11.989-25.99c-3.22-1.72-4.84-5.05-4.029-10.81l1.569,0.22
					c2.08,3.6,4.05,7.32,5.46,11.59c2.59,15.18-4.27,23.2-14.529,26.48L315.48,230.48z"/>
				<path d="M301.48,193.49c1.21-10.05-10.9-9.58-11-1C294.22,194.64,297.76,196.27,301.48,193.49z M303.48,187.49
					c0,2.67,0,5.33,0,8c-4.2,3.33-11.261,1.65-15-1C285.94,183.02,299.09,180.88,303.48,187.49z"/>
				<path d="M307.48,244.48c-6.721,8.4-19.98-5.3-25-5c2.479,5.19,6.479,8.85,11,12l-0.301,1.13c-7.91-2.14-14.83-8.59-12.699-16.13
					c-3.971,0.24-4.78-2.68-7.45-3.75l0.54-1.46c10.229,3.77,19.899,9.1,27.91,13.21c2.01-1.03,3.899-1.68,5.659-1.98L307.48,244.48
					z"/>
				<path d="M294.48,158.49c4.569,0.98,18.079,2.96,21-1C311.7,157.32,299.58,156.73,294.48,158.49z M320.47,156.49
					c2.7,2.58,7.971,2.14,9-2C325.73,154.42,322.56,154.91,320.47,156.49z M269.48,158.49c3.939-1.13,6.949,3.02,8-1
					c-1.421,0.36-3.721-0.15-5.5-0.15l0.02-1.76c1.78,0.02,3.62-0.02,5.48-0.09c-3.141-2.19-8.461-2.2-7-8.99
					c8.729,6.84,26.72,8.93,42,5.99c-1.351-1.65-2.561-3.44-5-3.99c-0.551-2.22,1.909-1.43,2-3c-4.5-4.87-11.78-12.54-18-17
					c-2.631-1.89-13.881-7.54-12.25-7.08c-6.45-2.28-12.99-3.05-19.53-2.83l-0.05-1.47c6.989-0.21,14.05-0.08,20.83,0.38
					c12.659,10.33,27.34,18.65,36,32.99c6.09-0.23,8-4.66,13.989-4.99c-0.319,7.6-1.819,4.86,1,9.99c0.87,4.21-3.319,3.35-5,5
					c2.16,4.18,2.04,10.63,7,12c0.79,18.24,9.431,28.64,16.79,40.31l-1.64,0.36c-0.061-0.22-0.101-0.44-0.15-0.67
					c-2.09,0.21-5.01-6.43-5-2c0.12,0.51,0.25,1.01,0.38,1.51l-2.56,0.68c-1.91-7.67-4.25-15.1-7.82-21.19
					c-4.359-7.43-14.109-12.55-13-22c5.69,1.98,5.33,10.01,9,14c2.7-9.04-5.81-15.5-10-21c-2.2,0.13-0.42,4.24-0.989,6
					c-1.66-1.01-1.091-4.24-2-6c-5,0-10,0-15,0c5.779,4.22,6.42,13.58,15,15c2.17,6.13,5.47,11.15,8.529,16.41l-1.569-0.22
					c0.01-0.06,0.02-0.13,0.029-0.19c-7.979-2.68-5.979-15.35-15.989-16c0.76-8.09-8.23-6.43-8-14c-18.23-5.39-23.801,10.08-35,15
					l-1.711-0.45c4.98-5.78,11.511-10,17.711-14.55c-2.95-1.22-7.021-1.96-11.41-2.74L269.48,158.49z"/>
				<path d="M253.48,146.5c4.609-0.94,1.92,5.41,4,6.99c4,1.54,9.029,2.06,14.52,2.09l-0.02,1.76c-1.221,0-2.2,0.24-2.5,1.15
					l-0.41,2.26c-10.471-1.86-22.7-3.93-25.59-13.25c5.51-0.18,7.01,3.66,11,4.99C255.21,149.44,252.76,149.55,253.48,146.5z"/>
				<path d="M266.48,217.49c10.319,10.34,26.27,15.06,49,12.99l0.46,1.49c-16.9,5.41-43.021-2.01-51.46-11.48
					c-1.23-7.11-6.171-10.5-10-15c-0.851-12.76,2.77-21.06,8.289-27.45l1.711,0.45c-1.811,9.19-9.53,12.47-8,25
					C260.84,207.13,264.88,211.09,266.48,217.49z"/>
				<path d="M258.48,246.48c1.97-5.26,9.079-5.4,9.079-12.64h1.921c0,1.89,0,3.76,0,5.64c-12.051,8.28-18.051,22.61-34.99,26
					c-1.52-0.171-1.9-1.48-2.33-2.74l2.33-0.26c9.73-2.931,18.319-7,20.99-17c-3.11-4.47-5.84-9.33-8.74-14.01l1.74-0.99
					C253.08,234.56,255.85,240.45,258.48,246.48z"/>
				<path d="M228.49,233.48c14.01-9.85,30.149-7.7,45.08-2.21l-0.54,1.46c-0.9-0.36-2.021-0.51-3.55-0.25c0,0.45,0,0.91,0,1.36
					h-1.921c0-0.43-0.029-0.88-0.079-1.36c-4.341-2.01-14.53-3.44-19-2l-1.74,0.99c-0.42-0.66-0.84-1.33-1.26-1.99
					c-10.17,2.17-16.44,8.22-21.99,15c3.08,6.59,9.11,10.22,11,18l-2.33,0.26c-0.34-0.971-0.71-1.91-1.67-2.26
					c2.45,15.149-4.26,21.149-12.61,25.5l-0.89-1.73c12.89-5.44,15.32-27.22,3.5-35.77c-0.23,0.25-0.44,0.52-0.65,0.78l-0.35-0.78
					C218.31,239.3,227.1,240.1,228.49,233.48z"/>
				<path d="M210.49,128.5c2.88-1.01,4.86-3.89,8-5c10.95-3.87,25.89-5.94,41.16-6.38l0.05,1.47c-17.18,0.57-34.36,7.96-49.94,12.77
					l-0.74-2.39C209.51,128.83,210,128.67,210.49,128.5z"/>
				<path d="M209.02,128.97l0.74,2.39c-4.22,1.3-8.32,2.41-12.27,3.14c-15.1,9.23-22.63,26.03-37.99,34.99l-0.58-0.24
					c0.96-1.41,1.58-3.21,1.58-5.76c5.17-2.48,13.69-8.49,15.99-16.99c6.85-0.2,6.99-8.47,12-12
					C194.26,130.44,201.65,131.12,209.02,128.97z"/>
				<path d="M194.49,340.47c16.23-22.029,50.47-43.85,87.99-49.989c18.289-3,37.77-3.07,50.989-16
					c-7.18-10.15-10.35-24.311-21.989-30c-2.461,8.36-10.82,10.16-18.301,8.13l0.301-1.13c5.659-0.2,18.789-2.931,14-7l-0.341-1.98
					c15.181-2.66,21.641,19.47,28.33,29.98c3.16,0.489,0.37-4.961,4-4c-5.819,19.149-31.85,20.21-54.989,24
					c-24.681,4.039-49.34,14.97-67.99,28.989c-9.39,7.061-14.01,19.24-25,24c0.21-1.87,0.57-3.7,1.03-5.5L194.49,340.47z"/>
				<path d="M210.49,289.48c-1.61,20.72-8.01,36.649-16,50.989l-1.97-0.5c3.89-15.189,15.45-28.45,13.97-50.489
					c5.34-11.32,4.41-28.921,9-41c1.33,0,2.66,0,4,0l0.35,0.78c-6.55,8.32-6.16,23.561-8.35,36.221c2-0.101,3.84-0.53,5.5-1.23
					l0.89,1.73C215.5,287.22,212.97,288.33,210.49,289.48z"/>
				<path d="M219.49,207.49c-13.2-6.15-28.88-17.87-43.41-10.15l-1.59-1.85C190.37,185.98,211.48,196.82,219.49,207.49z"/>
				<path d="M219.49,231.48c-8.81,8.86-16.24,19.1-25,28c-5.62,0.439-10.89,0.539-15.54,0.01l0.25-2.38
					c3.63,0.409,8.01,0.239,13.29-0.63c10.78-13.48,32.4-25.891,27-48.99C229.59,209.8,219.62,227.05,219.49,231.48z"/>
				<path d="M172.49,234.48c4.32-0.34,6.65-2.68,7-7C177.03,220.32,169,229.91,172.49,234.48z M180.49,223.49
					c3.26,7.17-0.74,15.07-10,12.99C166.8,229.42,172.48,218.84,180.49,223.49z"/>
				<path d="M150.5,176.49c2.52-2.98,6.3-4.15,8.42-7.24l0.58,0.24c-0.62,11.72-8.45,16.22-16,21l-1.49-0.13
					c2.43-2.82,4.79-5.45,6.49-7.87C149.59,180.93,149.49,177.68,150.5,176.49z"/>
				<path d="M164.49,214.49c-2.59,3.07-7.23,8.97-5.54,13.73l-1.25,0.53c-0.33-0.78-0.73-1.53-1.2-2.26c-3.21,1.79-2.72,7.28-8,6.99
					c0.92-10.41,7-15.66,11-22.99c-3.11-1.73-4.76,6.54-9,7c1.58-10.73,13.29-13.35,18.99-21c5.85-7.85,3.05-19.34,11-27
					c1.22,11.89-2.48,18.85-6,26l1.59,1.85c-1.55,0.82-3.08,1.86-4.59,3.15c-1.45,5.76-3.61,12.67-5.33,19.64l-1.66-0.42
					C164.98,217.82,165.13,216.05,164.49,214.49z"/>
				<path d="M166.16,220.13c-4.23,17.2-5.73,34.851,13.04,36.98l-0.25,2.38c-10.02-1.13-17.13-5.181-18.45-15.01
					c-3.85,5.83-3.69,15.65-13,16c0-2.33,0-4.671,0-7c3-1.011,1.77,2.229,2,4c6.35-5.49,12.53-18.76,8.2-28.73l1.25-0.53
					c0.42,1.18,1.22,2.28,2.54,3.26c-0.05-4.02,2.08-8.13,3.01-11.77L166.16,220.13z"/>
				<path d="M140.93,328.95c-2.77-16.03-7.93-32.09-10.99-50.38l0.56-0.09c0.31,1.789,2.32,2.159,3,4c1.67,4.56,0.34,10.619,2,16
					c2.23,7.21,6.5,13.31,8,19.989c1.28,5.71,2.02,10.641,3,16c3.98,5.011,10.03,7.971,11,16c4.92,6.07,16.21,5.78,19.99,13
					c5.56-0.56,9.05,0.95,9,6c-4.35-2.31-10.03-3.3-12-8c-16.04-0.63-19.51-13.819-27.99-22c-0.76,13.09,4.15,20.511,7,30
					c0.16,1.17,1.82,0.84,3,1c-9.79,3.11-7.69-14.31-13-19c0.45-5.45-1.79-8.22-1-14c-0.38-1.3-1.16-2.88-2.18-4.62l1.18-0.38
					C141.4,331.21,141.2,330.04,140.93,328.95z"/>
				<path d="M140.32,332.85c-3.62-6.21-10.23-14.449-11.82-19.38c-0.89-2.76,0.54-5.96,0-8.989l0.94-0.16
					c0.56,3.18,1.24,6.229,2.06,9.149c3.35,4.95,7.78,8.82,9.43,15.48c0.2,1.17,0.39,2.35,0.57,3.52L140.32,332.85z"/>
				<path d="M129.94,278.57c-1.48-8.82-2.47-18.17-2.47-28.271c0-5.69,0.31-11.61,1.03-17.82c2.94-6.72,5.53-13.79,7-21.99
					c-3.64-0.3-1.34,5.33-3,7c-4.85-9.83,2.64-19.18,9.51-27.13l1.49,0.13c-3.13,7.54-5.97,15.36-5,27
					c-6.32,8.89-11.28,41.979-8,60.99L129.94,278.57z"/>
				<path d="M126.67,250.3c0.09,18.84-0.07,37.931,2.77,54.021l-0.94,0.16c-0.69-3.83-4.29-12.41-5-20
					c-2.2-23.551,0.85-52.46,1-75.99C126.39,221.26,126.61,235.7,126.67,250.3z"/>
			</g>
			<g>
			</g>
		</g>
	</g>
</g>

</svg>
