<?xml version="1.0" encoding="UTF-8" ?>
<!DOCTYPE svg PUBLIC "-//W3C//DTD SVG 1.1//EN" "http://www.w3.org/Graphics/SVG/1.1/DTD/svg11.dtd">
<svg width="500pt" height="418pt" viewBox="0 0 500 418" version="1.1" xmlns="http://www.w3.org/2000/svg">
<g id="#ffffffff">
<path fill="#ffffff" opacity="1.00" d=" M 172.93 17.40 C 175.60 17.26 178.37 17.78 180.91 16.73 C 189.26 16.39 197.64 16.71 206.00 16.58 C 209.75 16.31 213.27 17.86 217.05 17.42 C 220.82 18.37 224.74 18.31 228.50 19.42 C 257.18 24.47 284.58 37.31 306.51 56.49 C 309.48 59.51 312.48 62.51 315.51 65.50 C 324.80 76.44 333.03 88.48 338.52 101.81 C 344.45 114.93 348.58 128.83 350.96 143.02 C 351.91 145.58 351.07 148.39 352.10 150.93 C 352.44 152.75 352.11 154.64 352.65 156.43 C 353.64 159.91 352.80 163.57 353.24 167.12 C 354.34 171.69 353.73 176.46 353.76 181.11 C 352.15 185.97 354.15 191.25 352.43 196.05 C 352.14 198.03 352.39 200.04 352.28 202.03 C 351.15 206.97 351.09 212.07 349.90 217.00 C 347.42 231.73 343.34 246.28 336.97 259.84 C 328.38 278.05 315.71 294.92 298.43 305.65 C 295.23 308.00 291.65 309.74 288.07 311.43 C 279.66 315.96 270.41 318.65 261.17 320.89 C 254.28 322.81 247.15 323.52 240.07 324.22 C 236.42 325.30 232.59 324.39 228.88 324.86 C 225.35 326.02 221.61 325.41 217.97 325.57 C 215.91 325.82 214.04 324.66 212.00 324.74 C 207.37 324.53 202.62 325.34 198.11 323.99 C 194.00 324.12 190.03 322.97 185.92 323.15 C 183.20 311.24 180.33 299.36 177.34 287.52 C 174.63 274.91 171.02 262.53 167.90 250.02 C 167.51 248.51 167.06 246.99 166.29 245.63 C 165.32 245.57 163.29 245.90 163.81 247.26 C 167.30 259.47 170.44 271.76 173.48 284.09 C 174.88 291.46 177.10 298.65 178.74 305.96 C 180.05 310.97 180.83 316.10 182.44 321.03 L 182.39 322.35 C 147.46 317.44 113.48 304.06 85.07 282.98 C 79.44 279.39 74.70 274.64 69.47 270.56 C 65.11 266.24 60.81 261.86 56.44 257.55 C 49.77 249.76 43.72 241.39 38.93 232.29 C 36.24 228.60 35.36 224.03 33.01 220.16 C 31.53 216.19 30.38 212.09 28.87 208.13 C 27.74 202.43 26.20 196.77 25.93 190.93 C 24.76 187.06 25.46 182.97 25.29 179.00 C 25.46 175.33 24.77 171.54 25.92 167.98 C 27.51 147.77 33.99 128.13 43.29 110.18 C 46.57 103.04 50.98 96.51 54.96 89.76 C 60.23 82.05 65.82 74.51 72.25 67.74 C 75.49 62.81 80.67 59.80 84.66 55.59 C 86.65 54.30 88.34 52.64 90.11 51.07 C 97.09 46.05 103.69 40.35 111.52 36.66 C 125.64 29.60 140.61 24.31 155.95 20.61 C 159.99 20.51 164.05 20.43 168.08 20.66 C 170.48 21.35 173.55 22.02 175.77 20.74 C 176.23 18.75 173.29 19.11 172.93 17.40 M 261.60 47.72 C 259.16 48.60 256.54 47.94 254.05 48.40 C 250.79 49.32 247.81 51.00 244.97 52.82 C 242.89 54.09 240.34 54.83 238.97 57.01 C 237.84 58.96 236.89 61.00 235.85 63.00 C 233.97 67.14 236.56 72.23 240.89 73.46 C 245.35 73.79 249.85 73.30 254.10 71.92 C 257.55 70.71 260.30 68.22 263.45 66.47 C 266.25 66.31 269.08 66.25 271.88 66.50 C 276.48 68.23 280.72 70.76 285.25 72.63 C 290.15 72.92 296.39 72.84 299.38 68.21 C 299.60 65.07 299.03 61.84 297.70 59.00 C 294.09 54.32 288.89 50.77 283.10 49.45 C 279.79 48.50 276.51 47.06 272.99 47.39 C 269.20 47.60 265.34 47.02 261.60 47.72 M 113.98 50.10 C 110.51 51.09 106.83 51.48 103.61 53.24 C 99.58 55.08 96.19 58.00 92.86 60.85 C 90.73 63.80 87.83 66.30 86.83 69.93 C 86.72 73.15 88.36 76.04 90.93 77.90 C 94.16 80.09 98.22 79.08 101.87 79.20 C 103.21 78.93 105.10 79.05 105.90 77.77 C 111.58 76.79 115.92 71.15 122.03 71.84 C 126.40 72.64 130.96 72.94 135.04 74.89 C 139.43 75.77 144.62 74.55 147.52 70.93 C 148.79 64.73 145.98 57.87 140.56 54.54 C 138.03 53.24 135.54 51.84 132.93 50.73 C 126.83 48.97 120.09 47.78 113.98 50.10 M 220.50 67.33 C 219.53 68.74 219.90 70.61 219.12 72.02 C 216.46 73.73 213.93 75.69 210.90 76.69 C 204.54 79.90 197.42 82.44 190.21 81.18 C 184.59 79.89 178.67 79.34 173.51 76.56 C 171.20 74.72 169.26 71.61 165.94 71.82 C 163.48 73.14 162.43 75.99 161.40 78.42 C 158.36 79.43 154.26 81.20 154.04 84.86 C 156.10 83.15 158.10 79.93 161.14 80.75 C 161.14 81.35 161.14 82.53 161.14 83.12 C 157.98 86.52 154.49 90.18 154.09 95.07 C 154.43 94.96 155.11 94.73 155.45 94.62 C 156.54 90.93 158.38 87.46 161.20 84.80 C 162.23 83.98 163.47 84.75 164.17 85.56 C 166.80 88.18 171.45 89.91 174.67 87.46 C 175.29 92.89 172.48 97.83 171.44 103.02 C 171.74 103.58 172.07 104.13 172.43 104.66 C 173.84 100.73 174.94 96.69 175.82 92.61 C 178.75 93.50 181.34 95.57 184.64 94.83 C 184.07 96.85 183.03 98.81 183.22 100.98 C 183.36 103.17 182.46 106.40 185.25 107.31 C 185.10 104.86 184.59 102.42 184.84 99.96 C 185.10 96.58 186.93 93.66 189.15 91.20 C 190.72 91.90 192.08 93.44 193.93 93.30 C 197.07 93.56 201.22 92.56 202.51 89.40 C 204.37 90.32 206.30 91.07 208.20 91.89 C 209.74 95.62 211.38 99.45 211.84 103.49 C 212.22 103.50 212.97 103.50 213.34 103.50 C 213.23 99.44 211.16 95.76 210.02 91.93 C 213.15 91.64 216.20 88.73 215.75 85.43 C 217.04 85.97 218.33 86.54 219.60 87.13 C 219.42 90.03 220.63 92.72 220.49 95.62 C 220.79 95.67 221.38 95.76 221.68 95.80 C 222.73 92.67 221.06 89.78 220.17 86.88 C 223.27 86.90 226.54 87.25 229.15 85.25 C 231.46 86.89 232.72 89.63 234.05 92.07 C 234.99 93.68 234.01 96.91 236.72 96.96 C 236.44 92.17 233.70 87.97 230.42 84.64 C 230.49 82.85 230.59 81.05 230.68 79.25 C 234.57 78.61 238.44 80.15 242.01 81.54 C 241.86 81.09 241.55 80.19 241.39 79.74 C 238.18 78.05 234.44 77.38 230.82 77.32 C 231.22 73.41 227.19 71.58 224.75 69.40 C 224.17 67.51 222.38 66.61 220.50 67.33 M 260.67 73.47 C 260.23 73.63 259.36 73.97 258.92 74.13 C 256.84 74.00 254.73 75.84 254.92 77.97 C 256.40 80.17 258.23 82.62 260.95 83.27 C 264.93 82.68 268.96 82.86 272.96 82.60 C 274.96 82.10 277.81 81.44 278.10 79.01 C 278.90 75.47 275.72 72.47 272.59 71.56 C 268.57 71.00 264.15 71.09 260.67 73.47 M 121.51 77.53 C 121.34 77.79 120.98 78.32 120.81 78.58 C 119.07 78.55 117.77 79.94 116.52 80.95 C 115.25 80.13 114.28 82.20 113.57 82.96 C 113.20 85.21 114.94 87.00 116.45 88.41 C 121.02 89.85 125.97 89.49 130.58 88.37 C 132.99 87.58 135.85 86.46 136.62 83.77 C 136.22 82.26 135.50 80.78 134.43 79.63 C 130.46 77.61 125.91 77.00 121.51 77.53 M 196.21 94.10 L 195.83 94.85 C 196.46 97.79 197.21 100.86 196.45 103.86 C 195.89 105.15 195.22 106.42 195.04 107.84 C 196.83 106.45 198.44 104.43 198.31 102.04 C 198.33 99.39 198.46 95.91 196.21 94.10 Z" />
<path fill="#ffffff" opacity="1.00" d=" M 261.96 50.84 C 266.60 50.25 271.37 50.65 276.06 50.62 C 281.36 52.23 286.98 53.31 291.53 56.66 C 292.58 58.27 293.84 59.72 295.13 61.14 C 295.78 63.20 296.96 65.70 295.90 67.74 C 292.80 69.63 289.06 69.92 285.55 69.37 C 280.54 67.82 276.36 64.18 271.11 63.26 C 268.22 63.26 265.28 62.98 262.42 63.45 C 259.71 64.97 257.34 67.06 254.47 68.30 C 250.47 69.92 246.13 70.71 241.82 70.32 C 238.97 69.88 237.66 66.46 238.90 64.04 C 239.80 62.20 240.63 60.28 241.89 58.64 C 245.33 55.38 249.88 53.70 254.01 51.50 C 256.64 51.11 259.39 51.77 261.96 50.84 M 273.33 53.23 C 272.00 54.50 271.98 57.28 273.57 58.41 C 274.61 59.25 275.36 60.88 276.88 60.83 C 279.65 61.54 281.50 58.83 282.55 56.69 C 282.14 54.76 281.40 52.17 278.92 52.27 C 277.10 52.34 274.55 51.43 273.33 53.23 Z" />
<path fill="#ffffff" opacity="1.00" d=" M 114.68 53.03 C 117.95 51.62 121.59 52.31 125.04 52.19 C 130.66 52.80 135.87 55.43 140.66 58.30 C 143.13 61.35 145.40 65.02 144.52 69.13 C 142.47 72.37 138.30 72.07 134.98 71.78 C 131.86 69.34 127.60 70.06 123.99 68.97 C 117.65 67.50 112.11 71.82 106.70 74.39 C 102.72 76.26 98.29 75.91 94.02 75.76 C 90.91 75.35 89.38 71.78 90.25 68.99 C 92.98 66.16 95.59 63.11 98.92 60.95 C 100.60 59.69 101.75 57.67 103.82 56.98 C 103.16 57.98 101.61 58.58 101.85 59.99 C 102.15 61.34 102.54 62.66 102.99 63.96 C 105.03 65.70 107.59 67.24 110.35 66.18 C 111.51 65.21 112.61 64.14 113.56 62.96 C 114.23 61.03 113.56 58.95 112.35 57.39 C 110.57 55.89 108.09 56.27 105.94 55.85 C 108.25 53.71 111.93 54.44 114.68 53.03 Z" />
<path fill="#ffffff" opacity="1.00" d=" M 222.64 72.33 C 224.71 72.35 225.78 74.99 227.33 76.16 C 227.58 78.36 227.68 80.64 227.30 82.82 C 225.06 84.19 222.34 83.72 219.85 83.72 C 217.02 83.30 215.56 80.60 214.17 78.41 C 217.28 76.90 221.09 75.73 222.64 72.33 Z" />
<path fill="#ffffff" opacity="1.00" d=" M 166.35 75.91 L 166.97 75.07 C 169.57 77.46 172.27 80.22 175.91 80.80 C 175.04 82.33 174.22 83.87 173.27 85.35 C 170.02 85.68 166.38 84.77 164.45 81.94 C 163.56 79.62 164.98 77.62 166.35 75.91 Z" />
<path fill="#ffffff" opacity="1.00" d=" M 211.80 79.73 C 212.58 80.88 212.53 82.68 213.21 84.00 C 212.89 85.40 212.48 86.78 212.05 88.15 C 210.11 88.66 207.83 88.93 206.08 87.72 C 204.39 87.06 204.17 84.96 203.30 83.60 L 203.63 82.94 C 206.33 81.82 209.24 81.23 211.80 79.73 Z" />
<path fill="#ffffff" opacity="1.00" d=" M 177.74 81.56 C 180.66 82.37 183.65 82.91 186.60 83.62 C 186.36 86.30 186.92 89.23 185.35 91.60 C 182.64 92.16 180.06 91.22 177.81 89.76 C 177.60 87.04 177.70 84.29 177.74 81.56 Z" />
</g>
<g id="#000000ff">
<path fill="#000000" opacity="1.00" d=" M 159.99 16.78 C 167.56 15.09 175.29 14.41 182.96 13.44 C 191.65 13.47 200.36 13.33 209.05 13.51 C 213.31 14.41 217.68 14.19 221.95 15.03 C 234.85 17.37 247.85 19.95 260.00 25.01 C 278.12 32.07 295.50 41.83 309.55 55.41 C 311.84 57.09 314.06 58.94 315.70 61.29 C 317.62 64.09 320.43 66.11 322.39 68.87 C 330.01 78.84 336.96 89.47 341.63 101.16 C 346.47 112.24 350.40 123.77 352.64 135.68 C 354.74 143.28 354.95 151.19 356.19 158.94 C 356.41 161.63 356.05 164.34 356.40 167.02 C 357.48 172.59 357.44 178.40 356.38 183.98 C 355.95 187.59 356.68 191.28 355.86 194.85 C 355.32 197.21 355.53 199.64 355.36 202.03 C 354.28 210.05 353.01 218.04 351.34 225.95 C 346.33 248.23 337.98 270.38 323.04 287.98 C 319.66 291.62 316.89 295.89 312.64 298.64 C 309.04 302.16 304.94 305.10 300.71 307.81 C 287.36 317.13 271.48 321.73 255.81 325.37 C 247.57 326.49 239.33 328.05 230.99 327.89 C 228.31 328.02 225.71 328.87 223.01 328.73 C 216.82 329.18 210.78 327.13 204.59 327.97 C 204.41 330.00 205.06 331.96 205.30 333.96 C 205.48 336.46 205.20 339.00 205.74 341.47 C 206.72 345.70 205.68 350.09 206.59 354.34 C 207.38 358.78 206.35 363.34 207.27 367.77 C 207.71 369.80 207.74 371.87 207.88 373.94 C 211.86 369.86 216.23 366.17 220.94 362.96 C 226.72 359.33 232.42 355.48 238.72 352.78 C 249.07 348.67 259.81 345.11 271.00 344.35 C 276.60 343.23 282.33 343.89 288.00 343.69 C 298.22 343.89 308.10 346.88 317.92 349.43 C 319.85 349.93 318.19 351.84 317.12 352.36 C 311.65 351.44 306.49 349.25 301.01 348.37 C 296.04 347.57 291.05 346.60 286.00 346.83 C 281.01 346.93 275.98 346.49 271.05 347.50 C 251.23 349.12 232.39 357.58 216.92 369.89 C 213.79 372.86 209.93 375.19 207.89 379.15 C 207.46 383.46 207.60 387.83 208.45 392.08 C 208.65 400.72 208.46 409.36 208.53 418.00 L 205.36 418.00 C 205.40 410.33 205.35 402.67 205.40 395.00 C 205.47 392.20 204.87 389.45 204.39 386.71 C 203.56 386.12 202.73 385.53 201.91 384.94 C 201.19 383.55 201.55 381.79 200.62 380.48 C 198.62 376.99 196.69 373.44 195.41 369.62 C 190.85 356.28 187.46 342.59 184.14 328.90 C 183.78 327.81 183.65 326.42 182.65 325.73 C 178.75 324.78 174.74 324.39 170.81 323.60 C 148.89 319.21 127.55 311.81 107.85 301.22 C 92.65 292.60 77.88 282.86 65.40 270.56 C 61.39 267.63 57.87 264.07 54.92 260.09 C 47.05 251.99 40.88 242.43 35.44 232.57 C 27.77 218.23 23.32 202.23 22.15 186.00 C 22.16 181.32 22.11 176.64 22.18 171.96 C 23.59 159.17 25.38 146.28 29.94 134.17 C 34.06 121.06 39.93 108.50 47.09 96.78 C 52.62 81.15 62.87 67.44 75.24 56.52 C 81.09 52.21 86.81 47.71 92.89 43.72 C 98.96 40.14 104.98 36.46 110.87 32.59 C 121.86 25.60 133.98 20.15 146.85 17.87 C 151.17 16.80 155.69 18.02 159.99 16.78 M 172.93 17.40 C 173.29 19.11 176.23 18.75 175.77 20.74 C 173.55 22.02 170.48 21.35 168.08 20.66 C 164.05 20.43 159.99 20.51 155.95 20.61 C 140.61 24.31 125.64 29.60 111.52 36.66 C 103.69 40.35 97.09 46.05 90.11 51.07 C 88.34 52.64 86.65 54.30 84.66 55.59 C 80.67 59.80 75.49 62.81 72.25 67.74 C 65.82 74.51 60.23 82.05 54.96 89.76 C 50.98 96.51 46.57 103.04 43.29 110.18 C 33.99 128.13 27.51 147.77 25.92 167.98 C 24.77 171.54 25.46 175.33 25.29 179.00 C 25.46 182.97 24.76 187.06 25.93 190.93 C 26.20 196.77 27.74 202.43 28.87 208.13 C 30.38 212.09 31.53 216.19 33.01 220.16 C 35.36 224.03 36.24 228.60 38.93 232.29 C 43.72 241.39 49.77 249.76 56.44 257.55 C 60.81 261.86 65.11 266.24 69.47 270.56 C 74.70 274.64 79.44 279.39 85.07 282.98 C 113.48 304.06 147.46 317.44 182.39 322.35 L 182.44 321.03 C 180.83 316.10 180.05 310.97 178.74 305.96 C 177.10 298.65 174.88 291.46 173.48 284.09 C 170.44 271.76 167.30 259.47 163.81 247.26 C 163.29 245.90 165.32 245.57 166.29 245.63 C 167.06 246.99 167.51 248.51 167.90 250.02 C 171.02 262.53 174.63 274.91 177.34 287.52 C 180.33 299.36 183.20 311.24 185.92 323.15 C 190.03 322.97 194.00 324.12 198.11 323.99 C 202.62 325.34 207.37 324.53 212.00 324.74 C 214.04 324.66 215.91 325.82 217.97 325.57 C 221.61 325.41 225.35 326.02 228.88 324.86 C 232.59 324.39 236.42 325.30 240.07 324.22 C 247.15 323.52 254.28 322.81 261.17 320.89 C 270.41 318.65 279.66 315.96 288.07 311.43 C 291.65 309.74 295.23 308.00 298.43 305.65 C 315.71 294.92 328.38 278.05 336.97 259.84 C 343.34 246.28 347.42 231.73 349.90 217.00 C 351.09 212.07 351.15 206.97 352.28 202.03 C 352.39 200.04 352.14 198.03 352.43 196.05 C 354.15 191.25 352.15 185.97 353.76 181.11 C 353.73 176.46 354.34 171.69 353.24 167.12 C 352.80 163.57 353.64 159.91 352.65 156.43 C 352.11 154.64 352.44 152.75 352.10 150.93 C 351.07 148.39 351.91 145.58 350.96 143.02 C 348.58 128.83 344.45 114.93 338.52 101.81 C 333.03 88.48 324.80 76.44 315.51 65.50 C 312.48 62.51 309.48 59.51 306.51 56.49 C 284.58 37.31 257.18 24.47 228.50 19.42 C 224.74 18.31 220.82 18.37 217.05 17.42 C 213.27 17.86 209.75 16.31 206.00 16.58 C 197.64 16.71 189.26 16.39 180.91 16.73 C 178.37 17.78 175.60 17.26 172.93 17.40 M 186.46 326.31 C 190.07 339.22 192.85 352.35 197.09 365.08 C 198.44 370.26 201.25 374.87 203.65 379.61 C 204.05 378.81 204.69 378.05 204.57 377.10 C 204.50 373.76 205.03 370.29 203.92 367.07 C 203.28 362.39 204.51 357.55 203.16 352.97 C 202.29 348.99 203.77 344.81 202.48 340.90 C 201.85 338.29 202.56 335.57 202.07 332.94 C 201.60 331.52 201.40 330.03 201.39 328.55 C 199.24 326.12 195.73 327.70 192.99 326.98 C 190.89 326.24 188.65 326.24 186.46 326.31 Z" />
<path fill="#000000" opacity="1.00" d=" M 261.60 47.72 C 265.34 47.02 269.20 47.60 272.99 47.39 C 276.51 47.06 279.79 48.50 283.10 49.45 C 288.89 50.77 294.09 54.32 297.70 59.00 C 299.03 61.84 299.60 65.07 299.38 68.21 C 296.39 72.84 290.15 72.92 285.25 72.63 C 280.72 70.76 276.48 68.23 271.88 66.50 C 269.08 66.25 266.25 66.31 263.45 66.47 C 260.30 68.22 257.55 70.71 254.10 71.92 C 249.85 73.30 245.35 73.79 240.89 73.46 C 236.56 72.23 233.97 67.14 235.85 63.00 C 236.89 61.00 237.84 58.96 238.97 57.01 C 240.34 54.83 242.89 54.09 244.97 52.82 C 247.81 51.00 250.79 49.32 254.05 48.40 C 256.54 47.94 259.16 48.60 261.60 47.72 M 261.96 50.84 C 259.39 51.77 256.64 51.11 254.01 51.50 C 249.88 53.70 245.33 55.38 241.89 58.64 C 240.63 60.28 239.80 62.20 238.90 64.04 C 237.66 66.46 238.97 69.88 241.82 70.32 C 246.13 70.71 250.47 69.92 254.47 68.30 C 257.34 67.06 259.71 64.97 262.42 63.45 C 265.28 62.98 268.22 63.26 271.11 63.26 C 276.36 64.18 280.54 67.82 285.55 69.37 C 289.06 69.92 292.80 69.63 295.90 67.74 C 296.96 65.70 295.78 63.20 295.13 61.14 C 293.84 59.72 292.58 58.27 291.53 56.66 C 286.98 53.31 281.36 52.23 276.06 50.62 C 271.37 50.65 266.60 50.25 261.96 50.84 Z" />
<path fill="#000000" opacity="1.00" d=" M 113.98 50.10 C 120.09 47.78 126.83 48.97 132.93 50.73 C 135.54 51.84 138.03 53.24 140.56 54.54 C 145.98 57.87 148.79 64.73 147.52 70.93 C 144.62 74.55 139.43 75.77 135.04 74.89 C 130.96 72.94 126.40 72.64 122.03 71.84 C 115.92 71.15 111.58 76.79 105.90 77.77 C 101.04 79.27 95.82 79.33 90.93 77.90 C 88.36 76.04 86.72 73.15 86.83 69.93 C 87.83 66.30 90.73 63.80 92.86 60.85 C 96.19 58.00 99.58 55.08 103.61 53.24 C 106.83 51.48 110.51 51.09 113.98 50.10 M 114.68 53.03 C 111.93 54.44 108.25 53.71 105.94 55.85 C 108.09 56.27 110.57 55.89 112.35 57.39 C 113.56 58.95 114.23 61.03 113.56 62.96 C 112.61 64.14 111.51 65.21 110.35 66.18 C 107.59 67.24 105.03 65.70 102.99 63.96 C 102.54 62.66 102.15 61.34 101.85 59.99 C 101.61 58.58 103.16 57.98 103.82 56.98 C 101.75 57.67 100.60 59.69 98.92 60.95 C 95.59 63.11 92.98 66.16 90.25 68.99 C 89.38 71.78 90.91 75.35 94.02 75.76 C 98.29 75.91 102.72 76.26 106.70 74.39 C 112.11 71.82 117.65 67.50 123.99 68.97 C 127.60 70.06 131.86 69.34 134.98 71.78 C 138.30 72.07 142.47 72.37 144.52 69.13 C 145.40 65.02 143.13 61.35 140.66 58.30 C 135.87 55.43 130.66 52.80 125.04 52.19 C 121.59 52.31 117.95 51.62 114.68 53.03 Z" />
<path fill="#000000" opacity="1.00" d=" M 273.33 53.23 C 274.55 51.43 277.10 52.34 278.92 52.27 C 281.40 52.17 282.14 54.76 282.55 56.69 C 281.50 58.83 279.65 61.54 276.88 60.83 C 275.36 60.88 274.61 59.25 273.57 58.41 C 271.98 57.28 272.00 54.50 273.33 53.23 Z" />
<path fill="#000000" opacity="1.00" d=" M 196.21 94.10 C 198.46 95.91 198.33 99.39 198.31 102.04 C 198.44 104.43 196.83 106.45 195.04 107.84 C 195.22 106.42 195.89 105.15 196.45 103.86 C 197.21 100.86 196.46 97.79 195.83 94.85 L 196.21 94.10 Z" />
<path fill="#000000" opacity="1.00" d=" M 411.65 188.51 L 411.86 188.11 C 412.34 188.10 413.30 188.09 413.78 188.09 C 414.24 192.00 414.02 196.24 411.09 199.21 C 408.84 199.57 408.72 196.26 409.98 195.13 C 411.24 193.12 410.27 190.51 411.65 188.51 Z" />
</g>
<g id="#010101ff">
<path fill="#010101" opacity="1.00" d=" M 220.50 67.33 C 222.38 66.61 224.17 67.51 224.75 69.40 C 227.19 71.58 231.22 73.41 230.82 77.32 C 234.44 77.38 238.18 78.05 241.39 79.74 C 241.55 80.19 241.86 81.09 242.01 81.54 C 238.44 80.15 234.57 78.61 230.68 79.25 C 230.59 81.05 230.49 82.85 230.42 84.64 C 233.70 87.97 236.44 92.17 236.72 96.96 C 234.01 96.91 234.99 93.68 234.05 92.07 C 232.72 89.63 231.46 86.89 229.15 85.25 C 226.54 87.25 223.27 86.90 220.17 86.88 C 221.06 89.78 222.73 92.67 221.68 95.80 C 221.38 95.76 220.79 95.67 220.49 95.62 C 220.63 92.72 219.42 90.03 219.60 87.13 C 218.33 86.54 217.04 85.97 215.75 85.43 C 216.20 88.73 213.15 91.64 210.02 91.93 C 211.16 95.76 213.23 99.44 213.34 103.50 C 212.97 103.50 212.22 103.50 211.84 103.49 C 211.38 99.45 209.74 95.62 208.20 91.89 C 206.30 91.07 204.37 90.32 202.51 89.40 C 201.22 92.56 197.07 93.56 193.93 93.30 C 192.08 93.44 190.72 91.90 189.15 91.20 C 186.93 93.66 185.10 96.58 184.84 99.96 C 184.59 102.42 185.10 104.86 185.25 107.31 C 182.46 106.40 183.36 103.17 183.22 100.98 C 183.03 98.81 184.07 96.85 184.64 94.83 C 181.34 95.57 178.75 93.50 175.82 92.61 C 174.94 96.69 173.84 100.73 172.43 104.66 C 172.07 104.13 171.74 103.58 171.44 103.02 C 172.48 97.83 175.29 92.89 174.67 87.46 C 171.45 89.91 166.80 88.18 164.17 85.56 C 163.47 84.75 162.23 83.98 161.20 84.80 C 158.38 87.46 156.54 90.93 155.45 94.62 C 155.11 94.73 154.43 94.96 154.09 95.07 C 154.49 90.18 157.98 86.52 161.14 83.12 C 161.14 82.53 161.14 81.35 161.14 80.75 C 158.10 79.93 156.10 83.15 154.04 84.86 C 154.26 81.20 158.36 79.43 161.40 78.42 C 162.43 75.99 163.48 73.14 165.94 71.82 C 169.26 71.61 171.20 74.72 173.51 76.56 C 178.67 79.34 184.59 79.89 190.21 81.18 C 197.42 82.44 204.54 79.90 210.90 76.69 C 213.93 75.69 216.46 73.73 219.12 72.02 C 219.90 70.61 219.53 68.74 220.50 67.33 M 222.64 72.33 C 221.09 75.73 217.28 76.90 214.17 78.41 C 215.56 80.60 217.02 83.30 219.85 83.72 C 222.34 83.72 225.06 84.19 227.30 82.82 C 227.68 80.64 227.58 78.36 227.33 76.16 C 225.78 74.99 224.71 72.35 222.64 72.33 M 166.35 75.91 C 164.98 77.62 163.56 79.62 164.45 81.94 C 166.38 84.77 170.02 85.68 173.27 85.35 C 174.22 83.87 175.04 82.33 175.91 80.80 C 172.27 80.22 169.57 77.46 166.97 75.07 L 166.35 75.91 M 211.80 79.73 C 209.24 81.23 206.33 81.82 203.63 82.94 L 203.30 83.60 C 204.17 84.96 204.39 87.06 206.08 87.72 C 207.83 88.93 210.11 88.66 212.05 88.15 C 212.48 86.78 212.89 85.40 213.21 84.00 C 212.53 82.68 212.58 80.88 211.80 79.73 M 177.74 81.56 C 177.70 84.29 177.60 87.04 177.81 89.76 C 180.06 91.22 182.64 92.16 185.35 91.60 C 186.92 89.23 186.36 86.30 186.60 83.62 C 183.65 82.91 180.66 82.37 177.74 81.56 M 199.79 83.76 C 196.60 85.43 192.80 84.08 189.35 84.65 C 190.04 86.44 190.82 88.23 191.93 89.80 C 194.87 90.79 198.49 90.03 200.49 87.55 C 200.89 86.29 200.71 84.64 199.79 83.76 Z" />
<path fill="#010101" opacity="1.00" d=" M 416.26 105.39 C 417.62 104.62 419.21 105.34 419.54 106.85 C 420.84 109.40 421.62 112.18 422.98 114.70 C 424.47 114.77 426.10 114.34 427.46 115.21 C 426.82 116.24 425.94 117.08 425.19 118.01 C 426.08 119.59 427.24 121.00 428.15 122.57 C 428.26 123.91 428.40 125.68 427.00 126.43 C 425.47 125.62 425.10 123.87 424.36 122.46 C 423.48 121.31 422.67 120.13 421.92 118.91 C 420.11 117.98 417.95 118.66 416.10 119.12 C 413.39 119.34 410.78 120.22 408.06 120.20 C 407.94 122.96 409.69 124.99 411.44 126.87 C 411.17 128.39 409.88 129.46 408.38 128.54 C 406.32 126.48 405.33 123.63 404.73 120.85 C 403.91 117.50 402.61 114.30 401.26 111.14 C 401.26 110.63 401.26 109.62 401.26 109.11 C 401.89 109.18 403.14 109.31 403.76 109.38 C 405.13 111.57 405.55 114.18 406.57 116.53 C 410.84 117.14 415.39 116.31 419.54 115.06 C 418.72 111.83 416.96 109.00 415.51 106.04 L 416.26 105.39 Z" />
<path fill="#010101" opacity="1.00" d=" M 373.57 107.82 C 374.16 107.61 375.36 107.19 375.95 106.97 C 376.26 107.45 376.88 108.39 377.20 108.86 C 379.78 109.33 382.47 108.91 385.04 109.63 C 389.76 109.92 393.24 113.67 395.98 117.15 C 398.80 124.20 392.85 133.41 385.00 132.76 C 379.87 133.26 374.11 131.99 370.75 127.81 C 369.71 125.45 368.16 122.79 369.27 120.18 C 370.01 115.91 370.22 111.02 373.57 107.82 M 376.31 112.30 C 375.25 113.32 373.77 114.30 373.65 115.91 C 373.35 118.40 371.80 120.63 372.05 123.21 C 373.05 126.43 376.05 128.45 379.09 129.52 C 382.16 129.62 385.25 129.74 388.32 129.45 C 393.31 127.43 395.51 119.54 391.11 115.86 C 387.11 112.35 381.40 111.85 376.31 112.30 Z" />
<path fill="#010101" opacity="1.00" d=" M 458.41 127.49 C 460.20 127.13 462.14 125.95 463.97 126.78 C 466.41 127.31 467.90 129.46 469.51 131.18 C 471.36 134.03 472.82 138.29 470.03 141.08 C 466.55 144.07 461.55 143.80 457.24 143.84 C 457.81 147.05 459.73 150.09 459.59 153.34 C 458.91 153.31 457.53 153.25 456.84 153.22 C 455.08 147.86 451.30 142.95 451.27 137.20 C 453.31 133.83 454.26 128.96 458.41 127.49 M 459.35 130.58 C 456.53 132.57 454.62 136.19 454.86 139.67 C 455.65 139.53 457.25 139.24 458.04 139.10 C 460.98 141.87 465.06 140.37 468.26 138.88 C 469.06 135.14 466.63 130.98 463.10 129.54 C 461.80 129.69 460.55 130.03 459.35 130.58 Z" />
<path fill="#010101" opacity="1.00" d=" M 420.37 134.64 C 420.93 134.55 422.04 134.37 422.59 134.28 C 422.50 135.46 423.24 137.78 421.21 137.61 C 418.70 138.36 416.05 138.68 413.61 139.60 C 412.40 141.38 413.37 143.64 414.25 145.37 C 416.09 149.03 415.83 153.24 417.11 157.05 L 416.79 157.88 C 416.27 158.07 415.24 158.46 414.72 158.66 C 413.19 156.81 413.37 154.21 412.96 151.97 C 412.01 148.04 409.99 144.37 409.82 140.27 C 406.79 140.46 402.58 141.93 400.63 138.82 L 400.72 137.91 C 403.68 136.88 406.96 138.09 409.93 136.95 C 413.50 136.63 416.92 135.54 420.37 134.64 Z" />
<path fill="#010101" opacity="1.00" d=" M 433.31 135.34 C 436.86 134.68 440.60 135.23 443.76 137.00 C 447.03 139.79 450.62 143.33 450.30 148.00 C 450.74 152.03 448.12 155.61 445.05 157.92 C 442.38 158.47 439.69 157.98 437.09 157.38 C 433.20 157.12 429.11 156.48 425.94 154.02 C 422.93 150.43 424.61 145.48 426.77 141.92 C 428.17 140.23 429.34 138.38 430.34 136.43 C 431.29 135.97 432.28 135.61 433.31 135.34 M 435.49 138.53 C 433.07 139.59 430.50 140.94 429.42 143.52 C 428.41 145.74 427.00 148.09 427.38 150.62 C 429.00 152.64 431.58 153.36 433.98 153.99 C 437.57 154.08 441.16 155.49 444.75 154.59 C 446.80 151.50 448.47 147.14 446.07 143.79 C 444.07 140.19 439.68 137.30 435.49 138.53 Z" />
<path fill="#010101" opacity="1.00" d=" M 387.00 136.07 C 391.44 135.31 396.30 137.89 398.37 141.91 L 397.93 142.86 C 394.49 143.82 392.56 138.71 389.05 139.08 C 387.63 138.95 386.25 139.22 385.13 140.10 C 383.25 141.49 380.85 142.17 379.31 143.98 C 379.14 145.69 378.71 147.75 379.92 149.20 C 385.15 149.63 390.43 149.10 395.68 149.43 C 397.37 149.85 399.05 150.44 400.54 151.36 C 402.49 153.96 403.60 157.34 402.51 160.52 C 400.78 162.04 398.38 161.88 396.26 162.31 C 391.20 163.64 384.97 161.97 382.23 157.23 C 382.27 156.62 382.36 155.41 382.40 154.80 C 383.10 154.82 384.51 154.87 385.21 154.89 C 384.99 157.95 388.26 158.63 390.53 159.43 C 393.61 160.23 396.62 158.83 399.68 158.63 C 399.74 157.51 399.73 156.39 399.64 155.27 C 398.47 153.94 396.98 152.44 395.08 152.51 C 390.02 152.42 384.96 152.59 379.90 152.48 C 378.37 151.85 376.55 151.07 375.99 149.37 C 375.75 146.94 375.63 144.23 377.24 142.21 C 379.74 139.22 383.20 137.01 387.00 136.07 Z" />
<path fill="#010101" opacity="1.00" d=" M 479.40 166.23 C 480.55 165.57 481.54 165.76 482.38 166.81 C 482.82 169.59 483.65 172.27 484.28 175.00 C 483.92 176.67 483.28 178.28 483.41 180.02 C 483.45 183.00 481.91 185.95 479.81 187.97 C 475.26 190.30 469.16 187.55 466.80 183.25 C 466.79 179.10 466.75 174.94 466.84 170.78 C 467.51 170.79 468.83 170.81 469.50 170.81 C 469.94 174.21 469.78 177.63 469.78 181.04 C 469.68 182.02 469.98 182.96 470.52 183.76 C 472.76 184.78 475.04 186.26 477.62 185.61 C 481.13 183.11 479.78 178.60 481.13 175.09 C 480.63 172.12 479.15 169.31 479.40 166.23 Z" />
<path fill="#010101" opacity="1.00" d=" M 443.00 166.40 C 444.13 166.89 445.32 168.25 444.54 169.52 C 443.23 172.94 440.36 175.40 438.69 178.60 C 439.89 182.27 438.52 185.89 438.28 189.58 C 437.19 190.47 436.07 189.54 435.35 188.69 C 434.78 186.35 436.58 184.21 436.09 181.85 C 435.15 179.10 431.67 179.11 430.01 177.01 C 427.89 175.25 426.70 172.50 427.46 169.76 C 429.56 168.94 429.86 171.35 430.69 172.50 C 431.94 174.37 433.67 176.24 435.94 176.78 C 438.52 173.47 440.58 169.79 443.00 166.40 Z" />
<path fill="#010101" opacity="1.00" d=" M 405.48 172.53 C 406.82 171.89 408.28 172.31 409.34 173.26 C 409.01 173.75 408.36 174.74 408.03 175.23 C 404.68 175.71 401.51 177.09 398.10 177.24 C 397.99 181.79 401.30 185.78 400.44 190.41 C 399.43 190.47 398.42 190.48 397.42 190.44 C 397.54 185.96 395.53 181.84 394.65 177.52 C 393.09 178.69 390.32 180.65 389.15 177.90 C 389.65 177.34 390.66 176.24 391.16 175.68 C 395.79 173.99 400.82 174.09 405.48 172.53 Z" />
<path fill="#010101" opacity="1.00" d=" M 447.34 173.14 C 451.04 173.22 455.20 172.38 458.46 174.57 C 459.67 175.81 461.69 176.91 461.33 178.96 C 461.21 180.60 461.67 182.38 461.01 183.93 C 459.28 185.74 457.63 187.94 455.15 188.74 C 451.64 188.97 447.13 189.29 444.78 186.11 C 444.62 184.07 444.56 181.99 444.82 179.95 C 445.90 177.77 447.11 175.62 447.34 173.14 M 450.35 176.40 C 448.15 178.74 446.35 183.01 448.94 185.62 C 451.52 185.65 454.48 186.29 456.63 184.43 C 458.85 183.03 458.21 180.10 458.03 177.91 C 455.94 175.97 452.99 175.92 450.35 176.40 Z" />
</g>
<g id="#ffc0b6ff">
<path fill="#ffc0b6" opacity="1.00" d=" M 260.67 73.47 C 264.15 71.09 268.57 71.00 272.59 71.56 C 275.72 72.47 278.90 75.47 278.10 79.01 C 277.81 81.44 274.96 82.10 272.96 82.60 C 268.96 82.86 264.93 82.68 260.95 83.27 C 258.23 82.62 256.40 80.17 254.92 77.97 C 254.73 75.84 256.84 74.00 258.92 74.13 C 259.04 74.78 259.28 76.08 259.40 76.73 C 261.83 79.43 265.22 81.70 269.01 81.48 C 271.53 81.41 274.73 81.63 276.35 79.28 C 277.67 76.95 275.72 74.34 273.64 73.32 C 269.44 71.73 264.96 73.04 260.67 73.47 Z" />
</g>
<g id="#ff907fff">
<path fill="#ff907f" opacity="1.00" d=" M 258.92 74.13 C 259.36 73.97 260.23 73.63 260.67 73.47 C 264.96 73.04 269.44 71.73 273.64 73.32 C 275.72 74.34 277.67 76.95 276.35 79.28 C 274.73 81.63 271.53 81.41 269.01 81.48 C 265.22 81.70 261.83 79.43 259.40 76.73 C 259.28 76.08 259.04 74.78 258.92 74.13 Z" />
</g>
<g id="#ffb5a9ff">
<path fill="#ffb5a9" opacity="1.00" d=" M 121.51 77.53 C 125.91 77.00 130.46 77.61 134.43 79.63 C 135.50 80.78 136.22 82.26 136.62 83.77 C 135.85 86.46 132.99 87.58 130.58 88.37 C 125.97 89.49 121.02 89.85 116.45 88.41 C 114.94 87.00 113.20 85.21 113.57 82.96 C 114.28 82.20 115.25 80.13 116.52 80.95 C 117.39 83.07 117.65 85.93 119.97 87.05 C 122.95 88.53 126.48 88.12 129.63 87.46 C 132.20 86.86 133.74 84.40 134.61 82.09 C 131.58 77.71 125.42 78.81 120.81 78.58 C 120.98 78.32 121.34 77.79 121.51 77.53 Z" />
</g>
<g id="#898989ff">
<path fill="#898989" opacity="1.00" d=" M 90.93 77.90 C 95.82 79.33 101.04 79.27 105.90 77.77 C 105.10 79.05 103.21 78.93 101.87 79.20 C 98.22 79.08 94.16 80.09 90.93 77.90 Z" />
</g>
<g id="#ff9786ff">
<path fill="#ff9786" opacity="1.00" d=" M 116.52 80.95 C 117.77 79.94 119.07 78.55 120.81 78.58 C 125.42 78.81 131.58 77.71 134.61 82.09 C 133.74 84.40 132.20 86.86 129.63 87.46 C 126.48 88.12 122.95 88.53 119.97 87.05 C 117.65 85.93 117.39 83.07 116.52 80.95 Z" />
</g>
<g id="#fefefeff">
<path fill="#fefefe" opacity="1.00" d=" M 199.79 83.76 C 200.71 84.64 200.89 86.29 200.49 87.55 C 198.49 90.03 194.87 90.79 191.93 89.80 C 190.82 88.23 190.04 86.44 189.35 84.65 C 192.80 84.08 196.60 85.43 199.79 83.76 Z" />
</g>
<g id="#808080ff">
<path fill="#808080" opacity="1.00" d=" M 469.50 170.81 C 471.23 174.87 469.37 179.52 470.52 183.76 C 469.98 182.96 469.68 182.02 469.78 181.04 C 469.78 177.63 469.94 174.21 469.50 170.81 Z" />
</g>
<g id="#060606ff">
<path fill="#060606" opacity="1.00" d=" M 383.90 174.73 C 384.43 174.74 385.49 174.77 386.02 174.78 C 387.68 178.66 386.97 182.91 387.11 187.00 C 387.04 188.95 388.04 190.78 387.86 192.75 C 387.10 192.74 385.60 192.72 384.85 192.72 C 383.32 186.84 383.90 180.74 383.90 174.73 Z" />
</g>
<g id="#606060ff">
<path fill="#606060" opacity="1.00" d=" M 491.17 183.18 C 493.23 182.25 494.76 183.74 493.82 185.82 C 491.73 186.75 490.24 185.27 491.17 183.18 Z" />
</g>
</svg>
