<?xml version="1.0" encoding="UTF-8" ?>
<!DOCTYPE svg PUBLIC "-//W3C//DTD SVG 1.1//EN" "http://www.w3.org/Graphics/SVG/1.1/DTD/svg11.dtd">
<svg width="161pt" height="236pt" viewBox="0 0 161 236" version="1.1" xmlns="http://www.w3.org/2000/svg">
<path fill="#fefefe" opacity="1.00" d=" M 0.00 0.00 L 62.06 0.00 C 62.30 0.32 62.77 0.96 63.00 1.28 L 63.73 0.80 L 63.92 0.00 L 67.38 0.00 L 67.18 0.33 C 64.37 2.38 61.14 3.81 57.82 4.83 C 51.74 5.48 45.59 4.50 39.51 5.20 C 38.84 9.09 34.51 9.45 31.44 10.45 C 29.50 10.94 28.04 12.35 26.51 13.55 C 23.77 15.85 20.53 17.48 17.89 19.90 C 15.59 22.48 13.84 25.61 13.07 29.00 C 12.63 32.09 9.03 33.38 8.45 36.43 C 7.69 40.24 5.65 43.55 4.03 47.02 C 2.56 51.24 0.76 55.49 0.88 60.05 L 0.00 60.26 L 0.00 0.00 Z" />
<path fill="#c3c3c3" opacity="1.00" d=" M 62.06 0.00 L 63.92 0.00 L 63.73 0.80 L 63.00 1.28 C 62.77 0.96 62.30 0.32 62.06 0.00 Z" />
<path fill="#c3c3c3" opacity="1.00" d=" M 67.38 0.00 L 67.68 0.00 C 67.56 0.08 67.30 0.25 67.18 0.33 L 67.38 0.00 Z" />
<path fill="#030303" opacity="1.00" d=" M 67.68 0.00 L 98.15 0.00 L 98.31 0.42 C 98.43 0.79 98.69 1.55 98.82 1.92 C 102.59 3.42 106.03 5.57 109.67 7.33 C 114.98 9.47 118.73 14.40 124.53 15.48 C 128.67 18.73 131.80 23.03 134.44 27.54 C 136.89 30.53 139.31 33.60 140.85 37.18 C 143.23 43.59 143.71 50.73 147.51 56.55 C 149.24 63.82 153.33 70.29 155.62 77.39 C 156.60 80.79 156.75 84.44 158.48 87.59 C 159.89 92.52 159.25 97.92 161.00 102.76 L 161.00 132.25 C 160.12 136.20 158.14 139.89 157.93 143.97 C 157.85 146.48 156.78 148.79 156.18 151.20 C 155.59 154.30 156.34 157.51 155.70 160.61 C 152.54 165.75 150.02 171.26 147.94 176.92 C 146.11 180.42 143.98 183.79 142.52 187.49 C 141.33 190.42 138.66 192.28 136.71 194.66 C 133.51 198.50 129.94 202.01 126.82 205.92 C 125.25 208.02 122.93 209.30 120.85 210.82 C 118.90 212.24 117.48 214.21 115.80 215.91 C 113.33 218.25 110.36 220.05 107.13 221.14 C 104.07 222.19 101.67 224.55 98.63 225.66 C 96.45 226.21 94.15 225.89 91.93 226.05 C 92.85 228.03 93.98 230.02 95.81 231.30 C 100.94 234.64 108.18 231.18 112.67 236.00 L 60.33 236.00 C 63.43 232.62 69.03 231.68 72.65 234.72 C 73.54 233.53 74.07 231.99 75.37 231.16 C 77.77 230.89 80.20 231.13 82.60 230.80 C 84.39 229.84 85.17 227.85 86.02 226.12 C 84.41 225.98 82.79 225.98 81.20 225.75 C 73.33 223.56 65.44 221.44 57.50 219.57 C 54.02 218.24 52.17 214.77 49.20 212.74 C 46.22 210.77 44.17 207.69 41.04 205.94 C 38.22 204.37 37.68 200.72 35.16 198.84 C 31.95 196.44 28.75 193.83 26.44 190.53 C 25.53 186.03 22.78 182.29 20.69 178.30 C 18.67 174.77 17.45 170.87 15.84 167.15 C 13.04 161.71 14.15 155.32 12.55 149.56 C 10.55 145.18 8.29 140.91 6.60 136.39 C 5.93 134.53 4.94 132.82 3.72 131.27 C 1.90 129.23 1.93 126.24 0.00 124.25 L 0.00 87.64 C 0.14 87.47 0.42 87.15 0.56 86.98 L 1.04 86.12 L 0.90 85.13 L 1.09 84.24 C 0.82 83.96 0.27 83.40 0.00 83.12 L 0.00 71.92 C 0.27 71.64 0.80 71.09 1.07 70.81 L 0.83 69.90 C 0.88 69.36 0.98 68.29 1.02 67.75 L 0.45 66.90 C 0.34 66.75 0.11 66.44 0.00 66.28 L 0.00 62.08 C 0.28 61.78 0.84 61.19 1.12 60.90 L 0.88 60.05 C 0.76 55.49 2.56 51.24 4.03 47.02 C 5.65 43.55 7.69 40.24 8.45 36.43 C 9.03 33.38 12.63 32.09 13.07 29.00 C 13.84 25.61 15.59 22.48 17.89 19.90 C 20.53 17.48 23.77 15.85 26.51 13.55 C 28.04 12.35 29.50 10.94 31.44 10.45 C 34.51 9.45 38.84 9.09 39.51 5.20 C 45.59 4.50 51.74 5.48 57.82 4.83 C 61.14 3.81 64.37 2.38 67.18 0.33 C 67.30 0.25 67.56 0.08 67.68 0.00 M 67.40 4.24 C 65.16 6.76 61.93 7.72 58.88 8.88 C 54.65 9.35 50.38 8.67 46.15 9.14 C 42.67 9.95 39.46 11.59 36.56 13.64 C 35.17 13.97 33.74 14.02 32.34 14.31 C 28.75 15.82 26.27 18.96 23.14 21.17 C 19.19 23.92 17.66 28.74 16.04 33.04 C 15.75 34.43 14.32 34.80 13.22 35.34 C 12.33 38.09 12.26 41.15 10.59 43.59 C 8.59 46.62 7.49 50.12 6.58 53.60 C 5.27 57.00 2.96 60.18 2.99 63.97 C 3.00 80.98 3.04 98.00 2.97 115.02 C 2.83 117.69 4.02 120.17 4.17 122.81 C 6.97 123.84 5.17 127.12 7.16 128.84 C 10.80 133.20 12.46 138.76 13.85 144.17 C 14.19 145.66 15.45 146.70 15.96 148.12 C 16.10 149.69 16.04 151.26 16.04 152.84 C 16.52 153.17 17.49 153.84 17.97 154.17 C 17.98 156.40 17.85 158.65 18.11 160.87 C 19.11 163.11 19.66 165.66 21.25 167.56 L 21.26 167.62 C 21.71 171.85 24.67 175.17 25.78 179.17 C 26.47 183.50 30.41 186.39 31.28 190.65 C 33.49 191.68 35.02 193.66 37.02 194.99 C 39.76 196.68 40.42 200.19 42.75 202.26 C 44.00 203.07 45.39 203.61 46.67 204.38 C 49.23 207.38 52.52 209.65 55.17 212.58 C 55.23 212.64 55.36 212.76 55.42 212.82 C 57.11 214.95 59.84 215.58 62.14 216.81 C 66.69 219.10 71.82 219.88 76.86 220.19 C 79.26 220.69 81.45 222.12 83.97 222.00 C 88.27 221.91 92.58 222.19 96.87 221.90 C 101.36 219.91 106.38 218.46 109.81 214.78 C 111.73 213.34 114.32 212.79 115.76 210.74 C 116.68 209.68 117.21 208.25 118.39 207.43 C 121.98 205.08 124.64 201.65 127.76 198.76 C 129.73 196.31 132.00 193.97 133.32 191.09 C 133.92 191.05 135.11 190.95 135.71 190.91 C 137.45 185.94 142.18 182.50 143.23 177.18 C 144.52 174.37 144.76 171.11 146.60 168.57 C 147.98 166.46 148.26 163.82 149.78 161.78 C 151.11 159.56 153.12 157.36 152.71 154.61 L 152.73 154.38 C 152.56 150.72 153.67 147.27 154.84 143.87 C 154.84 138.72 156.76 133.75 156.73 128.66 L 156.75 128.35 C 157.30 121.24 156.84 114.10 157.03 106.98 C 157.19 104.91 156.39 102.98 156.03 100.98 C 155.85 97.05 156.06 93.11 155.98 89.18 C 155.50 88.84 154.55 88.18 154.07 87.84 C 154.64 82.80 150.81 78.89 149.83 74.13 C 147.41 70.55 147.03 65.90 144.19 62.64 C 144.09 60.41 143.78 58.18 142.89 56.11 C 141.55 52.88 141.01 49.41 139.89 46.12 C 138.51 43.95 137.58 41.57 136.85 39.12 C 135.01 35.72 133.29 32.07 130.08 29.73 C 130.01 28.58 129.94 27.42 129.88 26.27 C 125.97 22.05 121.12 18.91 116.57 15.44 C 111.17 13.93 107.14 9.59 101.68 8.26 L 101.52 8.19 C 98.84 5.89 95.41 4.97 92.14 3.85 C 88.28 2.28 84.04 3.27 79.99 2.99 C 75.72 2.53 71.63 3.97 67.40 4.24 Z" />
<path fill="#c3c3c3" opacity="1.00" d=" M 98.15 0.00 L 98.51 0.00 C 98.46 0.10 98.36 0.31 98.31 0.42 L 98.15 0.00 Z" />
<path fill="#fefefe" opacity="1.00" d=" M 98.51 0.00 L 161.00 0.00 L 161.00 102.76 C 159.25 97.92 159.89 92.52 158.48 87.59 C 156.75 84.44 156.60 80.79 155.62 77.39 C 153.33 70.29 149.24 63.82 147.51 56.55 C 143.71 50.73 143.23 43.59 140.85 37.18 C 139.31 33.60 136.89 30.53 134.44 27.54 C 131.80 23.03 128.67 18.73 124.53 15.48 C 118.73 14.40 114.98 9.47 109.67 7.33 C 106.03 5.57 102.59 3.42 98.82 1.92 C 98.69 1.55 98.43 0.79 98.31 0.42 C 98.36 0.31 98.46 0.10 98.51 0.00 Z" />
<path fill="#fefefe" opacity="1.00" d=" M 67.40 4.24 C 71.63 3.97 75.72 2.53 79.99 2.99 C 84.04 3.27 88.28 2.28 92.14 3.85 C 95.41 4.97 98.84 5.89 101.52 8.19 C 101.56 8.20 101.64 8.24 101.68 8.26 C 107.14 9.59 111.17 13.93 116.57 15.44 C 121.12 18.91 125.97 22.05 129.88 26.27 C 129.94 27.42 130.01 28.58 130.08 29.73 C 133.29 32.07 135.01 35.72 136.85 39.12 C 137.58 41.57 138.51 43.95 139.89 46.12 C 141.01 49.41 141.55 52.88 142.89 56.11 C 143.78 58.18 144.09 60.41 144.19 62.64 C 147.03 65.90 147.41 70.55 149.83 74.13 C 150.81 78.89 154.64 82.80 154.07 87.84 C 154.55 88.18 155.50 88.84 155.98 89.18 C 156.06 93.11 155.85 97.05 156.03 100.98 C 156.39 102.98 157.19 104.91 157.03 106.98 C 156.84 114.10 157.30 121.24 156.75 128.35 C 156.75 128.43 156.74 128.59 156.73 128.66 C 156.76 133.75 154.84 138.72 154.84 143.87 C 153.67 147.27 152.56 150.72 152.73 154.38 C 152.73 154.44 152.72 154.55 152.71 154.61 C 153.12 157.36 151.11 159.56 149.78 161.78 C 148.26 163.82 147.98 166.46 146.60 168.57 C 144.76 171.11 144.52 174.37 143.23 177.18 C 142.18 182.50 137.45 185.94 135.71 190.91 C 135.11 190.95 133.92 191.05 133.32 191.09 C 132.00 193.97 129.73 196.31 127.76 198.76 C 124.64 201.65 121.98 205.08 118.39 207.43 C 117.21 208.25 116.68 209.68 115.76 210.74 C 114.32 212.79 111.73 213.34 109.81 214.78 C 106.38 218.46 101.36 219.91 96.87 221.90 C 92.58 222.19 88.27 221.91 83.97 222.00 C 81.45 222.12 79.26 220.69 76.86 220.19 C 71.82 219.88 66.69 219.10 62.14 216.81 C 59.84 215.58 57.11 214.95 55.42 212.82 C 55.36 212.76 55.23 212.64 55.17 212.58 C 52.52 209.65 49.23 207.38 46.67 204.38 C 45.39 203.61 44.00 203.07 42.75 202.26 C 40.42 200.19 39.76 196.68 37.02 194.99 C 35.02 193.66 33.49 191.68 31.28 190.65 C 30.41 186.39 26.47 183.50 25.78 179.17 C 24.67 175.17 21.71 171.85 21.26 167.62 C 21.26 167.61 21.25 167.58 21.25 167.56 C 19.66 165.66 19.11 163.11 18.11 160.87 C 17.85 158.65 17.98 156.40 17.97 154.17 C 17.49 153.84 16.52 153.17 16.04 152.84 C 16.04 151.26 16.10 149.69 15.96 148.12 C 15.45 146.70 14.19 145.66 13.85 144.17 C 12.46 138.76 10.80 133.20 7.16 128.84 C 5.17 127.12 6.97 123.84 4.17 122.81 C 4.02 120.17 2.83 117.69 2.97 115.02 C 3.04 98.00 3.00 80.98 2.99 63.97 C 2.96 60.18 5.27 57.00 6.58 53.60 C 7.49 50.12 8.59 46.62 10.59 43.59 C 12.26 41.15 12.33 38.09 13.22 35.34 C 14.32 34.80 15.75 34.43 16.04 33.04 C 17.66 28.74 19.19 23.92 23.14 21.17 C 26.27 18.96 28.75 15.82 32.34 14.31 C 33.74 14.02 35.17 13.97 36.56 13.64 C 39.46 11.59 42.67 9.95 46.15 9.14 C 50.38 8.67 54.65 9.35 58.88 8.88 C 61.93 7.72 65.16 6.76 67.40 4.24 M 55.28 10.27 C 55.76 10.77 55.76 10.77 55.28 10.27 M 102.31 10.28 L 102.30 10.73 L 102.76 10.74 L 102.76 10.28 L 102.31 10.28 M 104.28 11.28 C 104.77 11.76 104.77 11.76 104.28 11.28 M 29.27 19.26 L 29.27 19.71 L 29.72 19.71 L 29.72 19.26 L 29.27 19.26 M 29.28 21.28 C 29.76 21.77 29.76 21.77 29.28 21.28 M 20.28 26.27 C 20.77 26.76 20.77 26.76 20.28 26.27 M 50.86 43.79 C 51.59 44.75 51.95 46.27 53.24 46.65 C 56.50 47.72 59.86 48.52 62.94 50.08 C 65.62 51.58 68.86 51.17 71.75 50.63 C 74.99 49.83 78.65 50.17 81.42 48.02 C 77.18 48.40 73.02 49.56 68.78 49.95 L 68.76 49.44 L 68.25 49.44 L 68.25 49.96 C 66.17 49.88 63.57 50.76 62.84 48.14 C 58.66 47.45 54.21 46.54 50.86 43.79 M 76.28 47.29 C 76.77 47.77 76.77 47.77 76.28 47.29 M 34.27 48.28 L 34.27 48.73 L 34.72 48.74 L 34.73 48.28 L 34.27 48.28 M 87.29 48.28 C 87.76 48.77 87.76 48.77 87.29 48.28 M 37.36 49.31 C 36.07 49.74 34.80 50.24 33.56 50.81 C 36.32 50.79 38.99 51.24 41.42 52.59 C 45.71 53.34 49.84 54.76 54.05 55.87 C 55.72 56.41 57.41 55.86 58.95 55.18 C 61.27 55.90 63.66 56.35 66.04 56.79 C 69.16 57.40 72.44 56.47 75.49 57.57 C 77.19 58.10 79.08 57.99 80.68 58.88 C 79.98 58.92 78.59 59.00 77.89 59.04 L 78.22 60.24 C 81.03 59.23 83.81 57.92 86.85 57.86 C 87.18 57.44 87.85 56.60 88.18 56.19 C 90.46 55.96 94.43 55.96 94.16 52.74 C 92.75 52.96 91.64 53.78 90.65 54.75 C 87.94 55.01 85.43 56.08 82.86 56.86 C 80.16 57.27 77.38 57.09 74.75 56.39 C 71.91 55.57 68.94 56.28 66.07 55.85 C 63.44 54.92 60.60 54.92 57.97 53.99 C 56.12 53.47 54.57 52.24 52.69 51.79 C 53.50 53.32 54.73 54.35 56.55 54.28 C 56.13 54.45 55.30 54.80 54.88 54.97 C 51.74 54.44 48.72 53.00 45.47 52.67 C 46.89 52.00 48.47 51.97 50.01 51.89 L 50.01 50.98 C 46.73 50.96 43.46 50.96 40.18 50.99 C 39.40 49.96 38.90 48.10 37.36 49.31 M 84.28 49.28 C 84.75 49.77 84.75 49.77 84.28 49.28 M 93.28 49.28 C 93.77 49.76 93.77 49.76 93.28 49.28 M 77.28 51.27 C 77.78 51.75 77.78 51.75 77.28 51.27 M 80.28 51.28 L 80.29 51.74 L 80.74 51.73 L 80.74 51.28 L 80.28 51.28 M 63.28 52.27 C 63.77 52.76 63.77 52.76 63.28 52.27 M 77.28 53.27 C 77.76 53.76 77.76 53.76 77.28 53.27 M 39.27 56.28 C 39.76 56.76 39.76 56.76 39.27 56.28 M 24.26 58.29 C 24.76 58.77 24.76 58.77 24.26 58.29 M 40.27 58.28 L 40.27 58.73 L 40.73 58.73 L 40.73 58.27 L 40.27 58.28 M 69.28 58.28 C 69.76 58.76 69.76 58.76 69.28 58.28 M 73.28 58.27 C 73.76 58.76 73.76 58.76 73.28 58.27 M 101.29 58.26 L 101.29 58.71 L 101.73 58.71 L 101.73 58.26 L 101.29 58.26 M 33.81 58.99 C 34.09 59.49 34.64 60.50 34.92 61.00 C 36.49 61.00 38.05 61.04 39.62 61.10 C 37.58 62.65 34.94 61.83 32.59 61.88 C 33.42 63.54 35.53 62.82 36.99 63.03 C 46.67 62.97 56.36 63.03 66.05 62.99 C 67.62 62.90 68.83 64.09 70.23 64.62 C 76.69 66.24 83.31 67.43 90.00 67.04 C 94.60 67.54 98.89 65.65 103.06 64.00 C 103.02 63.18 102.93 61.53 102.89 60.70 C 101.23 61.36 99.63 62.15 98.20 63.21 C 95.53 65.19 92.08 65.61 88.87 65.91 L 89.19 65.21 C 89.07 62.49 85.61 65.01 88.12 65.95 C 87.28 65.96 85.61 65.97 84.77 65.98 L 84.76 65.46 L 84.25 65.46 L 84.24 65.98 C 82.65 66.01 81.04 65.96 79.52 65.42 C 76.46 64.71 73.28 64.60 70.26 63.69 C 69.05 63.34 68.26 62.36 67.76 61.26 C 62.28 62.29 56.67 62.02 51.13 61.93 C 50.60 61.70 49.53 61.23 49.00 61.00 C 46.29 62.52 42.72 62.53 40.02 60.96 C 38.09 59.86 35.72 60.14 33.81 58.99 M 25.29 60.27 L 25.29 60.72 L 25.73 60.73 L 25.74 60.28 L 25.29 60.27 M 27.32 60.33 C 27.34 62.57 31.04 62.62 32.59 61.88 L 32.65 61.41 C 31.11 60.49 29.02 60.71 27.32 60.33 M 26.45 62.24 L 26.46 62.78 L 27.01 62.77 L 27.00 62.23 L 26.45 62.24 M 27.31 62.86 C 30.81 65.32 35.32 64.45 39.17 65.84 C 43.42 66.31 47.72 65.82 51.99 66.00 L 51.99 65.02 C 46.97 64.84 41.86 65.56 36.95 64.25 C 33.66 64.20 30.60 62.81 27.31 62.86 M 36.28 66.26 L 36.28 66.71 L 36.73 66.70 L 36.73 66.25 L 36.28 66.26 M 79.28 68.28 C 79.76 68.77 79.76 68.77 79.28 68.28 M 89.27 70.28 C 89.76 70.76 89.76 70.76 89.27 70.28 M 48.11 72.26 C 47.70 73.58 49.61 75.24 50.88 74.73 C 51.30 73.41 49.38 71.75 48.11 72.26 M 69.24 78.03 L 69.66 77.73 L 69.39 77.30 L 68.97 77.57 C 68.50 76.11 65.08 73.31 68.09 72.79 L 67.81 71.87 C 64.37 72.57 66.03 78.54 69.24 78.03 M 46.13 72.64 C 45.98 75.75 45.99 78.88 46.05 82.00 C 44.59 81.15 42.97 80.86 41.30 80.98 C 40.17 82.28 39.06 83.64 37.67 84.69 C 33.67 87.06 28.61 86.22 24.63 88.62 C 21.19 90.31 18.31 93.97 18.93 97.98 C 19.25 101.62 22.25 104.21 25.32 105.77 C 26.18 107.59 26.21 110.15 28.81 110.22 C 28.54 109.67 28.01 108.57 27.74 108.02 C 30.99 109.75 33.31 113.17 37.27 113.45 C 35.72 114.26 33.95 114.76 32.71 116.06 C 35.69 115.51 38.82 115.01 41.17 112.92 C 40.85 113.46 40.22 114.53 39.90 115.07 C 42.06 116.74 39.29 118.42 39.04 120.36 C 42.17 117.92 44.79 114.73 45.91 110.87 C 46.18 107.59 46.03 104.28 46.00 100.99 C 46.00 99.81 45.52 98.85 44.55 98.12 C 45.58 94.39 47.46 90.01 44.89 86.47 C 46.76 85.53 47.19 83.30 47.87 81.52 L 48.37 81.65 L 48.50 81.16 L 48.01 81.02 C 48.34 78.09 48.22 74.94 46.13 72.64 M 70.92 75.72 C 70.69 78.80 72.49 81.47 74.86 83.24 C 74.48 84.10 74.10 84.97 73.73 85.84 C 74.12 86.04 74.89 86.45 75.27 86.66 C 74.95 90.33 74.43 94.10 75.14 97.76 C 76.23 99.06 77.42 100.32 77.86 102.02 C 77.88 102.55 77.92 103.62 77.94 104.15 C 77.39 103.83 76.29 103.17 75.74 102.85 C 75.86 104.92 77.59 106.12 79.03 107.34 C 78.77 107.66 78.25 108.30 77.99 108.61 C 78.94 109.63 79.87 110.66 80.79 111.72 C 81.26 111.26 82.19 110.34 82.65 109.88 C 85.05 112.78 88.38 114.72 91.13 117.28 C 89.80 114.86 87.67 113.04 85.86 111.00 C 89.81 110.67 93.85 111.60 97.74 110.74 C 100.83 108.51 102.84 105.11 104.04 101.55 C 105.06 95.53 101.71 89.17 95.88 87.12 C 94.30 86.97 92.72 87.02 91.15 86.86 C 87.73 86.20 84.84 83.77 81.25 83.81 C 80.56 83.12 79.87 82.44 79.19 81.75 C 78.24 82.26 77.28 82.76 76.33 83.25 C 74.89 80.50 72.88 78.12 70.92 75.72 M 115.78 83.45 C 115.30 82.46 114.94 81.43 114.72 80.35 C 113.14 79.38 111.65 78.08 109.72 77.92 L 109.33 78.28 L 109.66 78.68 L 110.06 78.34 C 112.79 80.45 112.32 84.08 110.80 86.77 C 108.82 87.44 106.64 88.03 105.65 90.08 C 107.06 89.53 108.29 88.35 109.80 88.14 C 109.90 88.65 110.10 89.66 110.21 90.17 C 112.50 88.83 114.40 86.90 116.77 85.67 C 117.37 82.33 118.51 79.03 117.91 75.58 C 115.91 77.76 115.87 80.67 115.78 83.45 M 10.06 86.65 C 10.01 88.72 10.02 90.78 10.02 92.85 C 11.21 93.83 12.45 94.79 13.91 95.36 C 12.94 92.34 12.88 88.67 10.06 86.65 M 112.37 103.78 C 111.97 108.96 109.87 113.79 107.98 118.57 C 107.82 118.07 107.51 117.06 107.36 116.56 C 106.34 117.90 106.33 120.68 104.00 120.01 C 104.02 120.56 104.04 121.66 104.05 122.21 C 104.55 122.12 105.53 121.94 106.03 121.85 C 105.50 122.65 104.92 123.41 104.28 124.12 L 104.09 123.28 L 103.34 123.01 C 102.37 124.87 100.73 125.27 98.75 125.01 C 99.10 125.57 99.79 126.68 100.14 127.24 C 99.55 126.86 98.39 126.12 97.81 125.74 C 97.17 126.47 96.52 127.19 95.85 127.88 C 94.01 127.96 92.16 128.01 90.38 128.52 C 90.02 128.44 89.30 128.28 88.94 128.20 C 90.76 129.72 92.55 131.40 94.84 132.17 C 98.10 133.24 100.47 135.85 102.97 138.06 C 103.96 139.96 103.94 142.21 104.48 144.26 C 105.43 137.03 106.55 129.62 110.25 123.18 C 111.88 120.32 114.16 117.52 114.10 114.05 C 114.12 110.59 114.76 106.66 112.37 103.78 M 18.22 104.60 C 18.38 110.09 16.30 115.44 17.10 120.92 C 18.10 123.93 20.91 125.87 22.30 128.70 C 24.45 132.69 27.43 136.12 30.64 139.30 C 31.06 141.62 31.07 144.00 31.29 146.35 C 32.47 141.03 35.31 136.16 39.27 132.42 L 38.80 131.22 C 38.13 131.14 36.80 130.98 36.14 130.90 C 34.62 128.61 32.15 127.36 30.02 125.75 C 29.83 126.17 29.44 127.02 29.25 127.44 C 29.21 125.89 29.16 124.35 29.10 122.80 C 28.53 123.15 27.40 123.86 26.83 124.21 C 26.26 122.74 26.06 121.10 25.15 119.79 C 21.57 115.42 20.05 109.84 18.22 104.60 M 59.77 111.09 C 60.18 112.99 60.89 114.85 60.97 116.81 C 60.23 118.63 59.30 120.38 58.76 122.29 C 60.52 121.45 61.46 119.68 61.97 117.89 C 62.54 115.49 60.93 113.36 60.87 111.00 L 59.77 111.09 M 80.56 111.70 C 81.93 113.51 80.27 115.12 79.13 116.37 C 78.84 115.96 78.25 115.14 77.95 114.73 C 77.75 116.72 79.21 116.96 80.81 117.04 C 82.14 119.18 83.28 122.08 86.25 122.19 C 84.34 119.82 82.26 117.57 80.68 114.95 C 81.39 114.87 82.80 114.70 83.50 114.61 L 82.90 116.09 C 85.23 114.23 84.38 118.00 85.16 119.03 C 85.87 119.02 87.31 119.01 88.02 119.00 L 88.00 117.96 C 87.31 117.70 85.95 117.19 85.26 116.93 C 85.49 116.24 85.96 114.86 86.19 114.17 C 85.20 113.93 81.17 113.86 83.11 112.12 C 82.47 112.01 81.20 111.81 80.56 111.70 M 32.29 113.27 C 32.75 113.77 32.75 113.77 32.29 113.27 M 96.28 124.28 C 96.76 124.77 96.76 124.77 96.28 124.28 M 74.97 125.76 C 75.01 127.04 75.05 128.33 75.11 129.62 C 75.87 130.49 76.62 131.37 77.36 132.26 L 77.04 133.05 C 77.46 135.65 80.44 131.94 77.90 131.74 C 77.99 130.57 78.04 129.40 78.04 128.22 C 77.01 127.40 75.99 126.58 74.97 125.76 M 14.24 128.26 L 14.24 128.71 L 14.70 128.71 L 14.70 128.26 L 14.24 128.26 M 61.19 128.11 C 60.85 128.42 60.16 129.04 59.81 129.35 C 60.57 130.07 61.33 130.78 62.08 131.50 C 63.02 130.51 63.94 129.47 64.33 128.13 C 63.27 128.40 62.15 128.93 61.19 128.11 M 58.28 131.20 C 57.99 131.49 57.43 132.05 57.14 132.34 C 56.63 136.30 60.01 139.21 61.34 142.66 C 62.96 143.55 64.63 144.38 66.38 144.99 C 64.72 142.83 62.47 141.22 60.77 139.10 C 59.85 137.18 59.14 135.15 58.15 133.26 C 58.88 132.47 59.60 131.68 60.31 130.88 C 59.80 130.96 58.78 131.12 58.28 131.20 M 151.29 132.26 L 151.29 132.71 L 151.75 132.71 L 151.74 132.26 L 151.29 132.26 M 80.29 132.96 C 79.51 133.94 78.73 134.93 77.96 135.93 C 78.33 136.23 79.06 136.83 79.43 137.13 L 79.31 137.65 L 79.82 137.84 L 79.94 138.85 C 79.96 139.64 80.00 141.24 80.02 142.04 C 78.29 141.93 78.66 139.21 77.81 138.01 C 76.59 138.01 75.38 138.00 74.16 137.99 C 73.20 139.18 72.25 140.40 71.69 141.85 C 73.74 141.79 75.50 142.65 77.37 143.32 C 77.45 143.34 77.61 143.38 77.70 143.40 L 78.46 143.54 C 79.68 145.03 80.77 146.67 82.30 147.86 C 84.09 148.50 85.97 148.08 87.77 147.72 C 88.86 144.16 86.84 140.72 85.61 137.48 C 83.89 135.91 82.00 134.54 80.29 132.96 M 54.37 134.28 C 51.90 135.97 51.85 139.22 51.92 141.91 C 55.18 143.95 59.00 144.83 62.81 145.05 C 60.38 142.50 57.59 139.81 53.82 139.77 C 54.00 137.69 54.53 135.67 55.08 133.67 L 54.37 134.28 M 94.49 136.96 C 93.99 137.48 93.01 138.50 92.52 139.02 C 94.96 139.96 93.65 142.64 93.91 144.60 C 94.45 144.43 95.54 144.10 96.09 143.94 C 95.84 141.47 94.89 139.13 94.80 136.64 L 94.52 136.30 C 94.51 136.47 94.49 136.80 94.49 136.96 M 153.29 140.29 C 153.78 140.78 153.78 140.78 153.29 140.29 M 48.80 143.06 C 48.84 145.27 50.81 147.86 48.89 149.75 C 48.92 148.91 49.00 147.22 49.04 146.37 C 47.94 148.12 46.73 149.93 46.74 152.09 L 48.03 152.09 C 46.49 153.57 46.60 155.99 44.93 157.38 C 45.01 156.12 45.40 154.99 46.12 153.96 C 45.62 153.71 44.62 153.19 44.12 152.94 C 43.35 155.13 44.05 159.28 40.81 159.22 C 41.60 160.11 42.38 161.01 43.15 161.93 C 41.78 164.94 40.70 168.09 38.94 170.92 C 39.62 172.14 39.88 173.50 40.10 174.86 C 40.08 176.48 41.95 176.84 43.05 177.49 C 43.03 176.55 43.00 174.67 42.98 173.73 C 42.48 174.24 41.50 175.26 41.00 175.77 C 40.30 169.90 44.09 164.78 44.21 158.98 C 45.43 158.66 46.75 157.98 47.81 159.05 C 47.59 157.41 50.02 155.18 47.91 154.25 C 49.42 153.97 49.80 152.34 50.22 151.13 C 51.25 148.52 51.03 145.69 51.03 142.95 C 50.47 142.98 49.35 143.03 48.80 143.06 M 101.28 143.28 C 101.77 143.76 101.77 143.76 101.28 143.28 M 93.52 144.32 L 93.28 144.69 C 93.44 144.66 93.75 144.62 93.91 144.60 L 93.52 144.32 M 69.28 145.28 C 69.77 145.76 69.77 145.76 69.28 145.28 M 95.33 145.28 L 94.60 145.81 L 95.05 147.22 C 95.58 146.89 96.64 146.22 97.17 145.88 C 96.17 147.28 95.38 149.03 97.31 150.10 C 97.65 149.81 98.35 149.22 98.70 148.93 C 100.28 149.98 99.31 151.55 101.09 152.46 C 101.23 151.86 101.52 150.66 101.66 150.06 C 99.50 148.47 98.49 146.02 96.86 143.97 C 96.48 144.30 95.71 144.96 95.33 145.28 M 67.27 146.28 C 67.76 146.76 67.76 146.76 67.27 146.28 M 102.04 151.43 C 100.94 152.55 102.34 154.97 103.80 154.65 C 104.20 153.57 103.36 151.25 102.04 151.43 M 75.90 155.95 C 73.67 159.10 69.51 160.19 67.29 163.38 L 66.47 163.18 L 65.83 163.88 L 66.05 164.75 L 66.80 164.90 L 67.43 164.55 C 68.80 164.75 70.19 164.92 71.58 165.05 C 72.21 164.74 73.48 164.10 74.12 163.78 C 73.78 163.31 73.10 162.36 72.76 161.89 C 72.21 162.13 71.12 162.60 70.58 162.84 C 70.72 162.34 71.00 161.35 71.14 160.86 C 72.28 160.96 73.41 161.13 74.53 161.37 C 75.18 162.30 75.78 163.25 76.35 164.23 C 76.68 163.91 77.35 163.26 77.68 162.94 C 79.92 163.73 82.08 164.87 84.49 165.00 C 85.72 164.31 87.00 163.75 88.35 163.33 L 87.59 162.76 C 88.77 160.43 83.64 159.74 83.51 161.93 C 81.95 161.83 80.39 161.84 78.83 161.97 C 79.73 161.31 80.73 160.87 81.86 160.65 C 80.17 158.80 79.34 156.47 78.63 154.13 C 77.22 153.27 76.60 155.13 75.90 155.95 M 101.27 156.28 C 101.76 156.76 101.76 156.76 101.27 156.28 M 104.23 156.46 L 104.23 157.02 L 104.78 157.01 L 104.77 156.46 L 104.23 156.46 M 103.28 161.40 C 103.91 161.99 106.87 162.90 103.78 162.97 C 103.87 166.06 106.28 168.66 105.99 171.77 C 105.71 172.51 105.16 173.99 104.89 174.74 C 104.37 174.24 103.33 173.26 102.81 172.76 C 102.95 175.13 105.09 176.47 106.50 178.11 L 106.90 177.46 L 107.32 177.68 L 107.56 177.27 L 107.15 177.04 C 107.78 175.98 108.52 174.96 109.02 173.83 C 108.97 172.07 108.23 170.43 107.90 168.73 C 108.82 169.97 109.78 171.19 110.82 172.34 C 110.87 174.31 111.06 176.32 112.99 177.36 C 113.11 173.14 112.33 168.66 109.82 165.17 C 108.87 163.69 108.49 161.93 107.89 160.30 C 107.40 160.51 106.41 160.94 105.91 161.15 C 106.54 160.15 106.99 159.08 107.25 157.93 C 104.70 157.05 104.19 159.71 103.28 161.40 M 46.30 160.02 C 44.88 161.16 45.08 163.06 44.57 164.63 C 43.08 168.79 44.86 173.33 43.42 177.50 C 42.44 179.90 43.85 182.33 44.87 184.46 C 45.19 179.28 44.93 174.10 44.99 168.93 C 44.97 165.59 46.33 162.48 46.97 159.26 L 46.30 160.02 M 40.46 161.22 L 40.45 161.76 L 41.00 161.77 L 41.01 161.23 L 40.46 161.22 M 93.28 163.29 C 93.77 163.77 93.77 163.77 93.28 163.29 M 99.85 164.66 C 100.38 165.87 100.99 167.04 101.68 168.17 L 101.45 168.61 L 101.86 168.90 L 101.80 170.11 L 101.32 170.11 L 101.31 170.60 L 101.78 170.64 C 102.64 170.75 104.38 170.98 105.24 171.10 C 105.03 169.12 103.24 167.95 102.79 166.07 C 101.84 165.53 100.86 165.06 99.85 164.66 M 56.35 169.32 C 54.73 170.12 53.14 171.51 51.21 170.96 C 51.07 170.39 50.81 169.24 50.67 168.67 C 48.84 169.50 47.87 171.42 46.99 173.12 C 46.61 175.79 48.26 178.24 48.04 180.93 C 49.00 180.44 50.00 180.08 50.89 180.93 C 51.18 178.95 52.04 177.04 52.06 175.03 L 52.55 174.84 L 52.38 174.37 L 51.89 174.54 C 51.61 173.87 51.06 172.52 50.78 171.85 C 51.91 172.68 53.02 173.35 54.01 171.93 C 53.95 172.48 53.82 173.57 53.76 174.11 C 54.84 173.28 55.80 172.27 57.05 171.68 C 60.84 171.82 63.19 174.95 65.69 177.33 C 69.08 178.61 72.32 180.70 76.00 180.95 C 79.26 180.24 82.38 178.89 85.41 177.51 C 88.34 176.24 89.68 172.76 92.87 171.96 C 94.80 171.03 97.67 170.70 98.20 168.22 L 98.03 167.02 C 94.25 167.58 90.76 165.64 87.00 165.95 C 80.33 166.04 73.65 165.94 66.97 165.98 C 63.15 165.78 59.64 167.62 56.35 169.32 M 113.28 170.27 C 113.76 170.76 113.76 170.76 113.28 170.27 M 44.26 186.29 L 44.25 186.74 L 44.70 186.75 L 44.70 186.30 L 44.26 186.29 M 100.22 194.30 L 99.31 194.38 L 98.89 195.37 L 99.40 196.21 C 99.06 196.49 98.37 197.06 98.03 197.35 C 97.82 197.12 97.40 196.68 97.20 196.45 C 97.95 194.90 98.57 193.30 98.98 191.62 C 97.31 191.95 96.72 193.56 95.77 194.75 C 94.73 195.60 93.56 196.25 92.48 197.04 C 92.58 197.58 92.80 198.65 92.90 199.19 C 92.62 198.91 92.06 198.35 91.78 198.07 C 88.08 200.78 83.43 200.09 79.13 199.89 C 77.01 199.05 74.86 198.25 72.80 197.28 C 72.10 196.07 71.45 194.81 69.88 194.69 C 70.16 195.36 70.72 196.69 71.00 197.36 C 69.63 196.18 68.30 194.96 66.96 193.75 C 67.25 195.10 67.69 196.48 67.28 197.86 C 67.88 198.17 69.06 198.81 69.65 199.13 C 63.39 198.03 58.15 193.88 51.89 192.72 C 51.36 196.85 53.50 200.98 57.03 203.13 C 60.20 205.18 62.34 208.75 66.10 209.89 C 71.18 211.36 76.42 212.15 81.53 213.50 C 85.68 214.51 90.31 214.54 94.04 212.21 C 99.07 210.27 103.51 206.30 105.17 201.08 C 106.86 197.60 108.88 194.09 108.20 190.05 C 108.64 190.37 109.52 191.01 109.97 191.33 C 109.98 189.44 109.98 187.55 109.96 185.66 C 107.46 189.26 104.21 192.41 100.22 194.30 M 55.27 210.28 C 55.76 210.76 55.76 210.76 55.27 210.28 M 69.28 217.28 C 69.77 217.76 69.77 217.76 69.28 217.28 M 80.28 218.27 L 80.27 218.73 L 80.73 218.73 L 80.73 218.27 L 80.28 218.27 Z" />
<path fill="#c3c3c3" opacity="1.00" d=" M 101.52 8.19 L 101.68 8.26 C 101.64 8.24 101.56 8.20 101.52 8.19 Z" />
<path fill="#c3c3c3" opacity="1.00" d=" M 55.28 10.27 C 55.76 10.77 55.76 10.77 55.28 10.27 Z" />
<path fill="#c3c3c3" opacity="1.00" d=" M 102.31 10.28 L 102.76 10.28 L 102.76 10.74 L 102.30 10.73 L 102.31 10.28 Z" />
<path fill="#c3c3c3" opacity="1.00" d=" M 104.28 11.28 C 104.77 11.76 104.77 11.76 104.28 11.28 Z" />
<path fill="#c3c3c3" opacity="1.00" d=" M 29.27 19.26 L 29.72 19.26 L 29.72 19.71 L 29.27 19.71 L 29.27 19.26 Z" />
<path fill="#c3c3c3" opacity="1.00" d=" M 29.28 21.28 C 29.76 21.77 29.76 21.77 29.28 21.28 Z" />
<path fill="#c3c3c3" opacity="1.00" d=" M 20.28 26.27 C 20.77 26.76 20.77 26.76 20.28 26.27 Z" />
<path fill="#030303" opacity="1.00" d=" M 50.86 43.79 C 54.21 46.54 58.66 47.45 62.84 48.14 C 63.57 50.76 66.17 49.88 68.25 49.96 L 68.78 49.95 C 73.02 49.56 77.18 48.40 81.42 48.02 C 78.65 50.17 74.99 49.83 71.75 50.63 C 68.86 51.17 65.62 51.58 62.94 50.08 C 59.86 48.52 56.50 47.72 53.24 46.65 C 51.95 46.27 51.59 44.75 50.86 43.79 Z" />
<path fill="#c3c3c3" opacity="1.00" d=" M 76.28 47.29 C 76.77 47.77 76.77 47.77 76.28 47.29 Z" />
<path fill="#c3c3c3" opacity="1.00" d=" M 34.27 48.28 L 34.73 48.28 L 34.72 48.74 L 34.27 48.73 L 34.27 48.28 Z" />
<path fill="#c3c3c3" opacity="1.00" d=" M 87.29 48.28 C 87.76 48.77 87.76 48.77 87.29 48.28 Z" />
<path fill="#030303" opacity="1.00" d=" M 37.36 49.31 C 38.90 48.10 39.40 49.96 40.18 50.99 C 43.46 50.96 46.73 50.96 50.01 50.98 L 50.01 51.89 C 48.47 51.97 46.89 52.00 45.47 52.67 C 48.72 53.00 51.74 54.44 54.88 54.97 C 55.30 54.80 56.13 54.45 56.55 54.28 C 54.73 54.35 53.50 53.32 52.69 51.79 C 54.57 52.24 56.12 53.47 57.97 53.99 C 60.60 54.92 63.44 54.92 66.07 55.85 C 68.94 56.28 71.91 55.57 74.75 56.39 C 77.38 57.09 80.16 57.27 82.86 56.86 C 85.43 56.08 87.94 55.01 90.65 54.75 C 91.64 53.78 92.75 52.96 94.16 52.74 C 94.43 55.96 90.46 55.96 88.18 56.19 C 87.85 56.60 87.18 57.44 86.85 57.86 C 83.81 57.92 81.03 59.23 78.22 60.24 L 77.89 59.04 C 78.59 59.00 79.98 58.92 80.68 58.88 C 79.08 57.99 77.19 58.10 75.49 57.57 C 72.44 56.47 69.16 57.40 66.04 56.79 C 63.66 56.35 61.27 55.90 58.95 55.18 C 57.41 55.86 55.72 56.41 54.05 55.87 C 49.84 54.76 45.71 53.34 41.42 52.59 C 38.99 51.24 36.32 50.79 33.56 50.81 C 34.80 50.24 36.07 49.74 37.36 49.31 Z" />
<path fill="#c3c3c3" opacity="1.00" d=" M 68.25 49.44 L 68.76 49.44 L 68.78 49.95 L 68.25 49.96 L 68.25 49.44 Z" />
<path fill="#c3c3c3" opacity="1.00" d=" M 84.28 49.28 C 84.75 49.77 84.75 49.77 84.28 49.28 Z" />
<path fill="#c3c3c3" opacity="1.00" d=" M 93.28 49.28 C 93.77 49.76 93.77 49.76 93.28 49.28 Z" />
<path fill="#c3c3c3" opacity="1.00" d=" M 77.28 51.27 C 77.78 51.75 77.78 51.75 77.28 51.27 Z" />
<path fill="#c3c3c3" opacity="1.00" d=" M 80.28 51.28 L 80.74 51.28 L 80.74 51.73 L 80.29 51.74 L 80.28 51.28 Z" />
<path fill="#c3c3c3" opacity="1.00" d=" M 63.28 52.27 C 63.77 52.76 63.77 52.76 63.28 52.27 Z" />
<path fill="#c3c3c3" opacity="1.00" d=" M 77.28 53.27 C 77.76 53.76 77.76 53.76 77.28 53.27 Z" />
<path fill="#c3c3c3" opacity="1.00" d=" M 39.27 56.28 C 39.76 56.76 39.76 56.76 39.27 56.28 Z" />
<path fill="#c3c3c3" opacity="1.00" d=" M 24.26 58.29 C 24.76 58.77 24.76 58.77 24.26 58.29 Z" />
<path fill="#c3c3c3" opacity="1.00" d=" M 40.27 58.28 L 40.73 58.27 L 40.73 58.73 L 40.27 58.73 L 40.27 58.28 Z" />
<path fill="#c3c3c3" opacity="1.00" d=" M 69.28 58.28 C 69.76 58.76 69.76 58.76 69.28 58.28 Z" />
<path fill="#c3c3c3" opacity="1.00" d=" M 73.28 58.27 C 73.76 58.76 73.76 58.76 73.28 58.27 Z" />
<path fill="#c3c3c3" opacity="1.00" d=" M 101.29 58.26 L 101.73 58.26 L 101.73 58.71 L 101.29 58.71 L 101.29 58.26 Z" />
<path fill="#030303" opacity="1.00" d=" M 33.81 58.99 C 35.72 60.14 38.09 59.86 40.02 60.96 C 42.72 62.53 46.29 62.52 49.00 61.00 C 49.53 61.23 50.60 61.70 51.13 61.93 C 56.67 62.02 62.28 62.29 67.76 61.26 C 68.26 62.36 69.05 63.34 70.26 63.69 C 73.28 64.60 76.46 64.71 79.52 65.42 C 81.04 65.96 82.65 66.01 84.24 65.98 L 84.77 65.98 C 85.61 65.97 87.28 65.96 88.12 65.95 L 88.87 65.91 C 92.08 65.61 95.53 65.19 98.20 63.21 C 99.63 62.15 101.23 61.36 102.89 60.70 C 102.93 61.53 103.02 63.18 103.06 64.00 C 98.89 65.65 94.60 67.54 90.00 67.04 C 83.31 67.43 76.69 66.24 70.23 64.62 C 68.83 64.09 67.62 62.90 66.05 62.99 C 56.36 63.03 46.67 62.97 36.99 63.03 C 35.53 62.82 33.42 63.54 32.59 61.88 C 34.94 61.83 37.58 62.65 39.62 61.10 C 38.05 61.04 36.49 61.00 34.92 61.00 C 34.64 60.50 34.09 59.49 33.81 58.99 M 100.24 63.23 L 100.23 63.77 L 100.77 63.77 L 100.77 63.24 L 100.24 63.23 Z" />
<path fill="#c3c3c3" opacity="1.00" d=" M 0.00 60.26 L 0.88 60.05 L 1.12 60.90 C 0.84 61.19 0.28 61.78 0.00 62.08 L 0.00 60.26 Z" />
<path fill="#c3c3c3" opacity="1.00" d=" M 25.29 60.27 L 25.74 60.28 L 25.73 60.73 L 25.29 60.72 L 25.29 60.27 Z" />
<path fill="#030303" opacity="1.00" d=" M 27.32 60.33 C 29.02 60.71 31.11 60.49 32.65 61.41 L 32.59 61.88 C 31.04 62.62 27.34 62.57 27.32 60.33 Z" />
<path fill="#030303" opacity="1.00" d=" M 26.45 62.24 L 27.00 62.23 L 27.01 62.77 L 26.46 62.78 L 26.45 62.24 Z" />
<path fill="#030303" opacity="1.00" d=" M 27.31 62.86 C 30.60 62.81 33.66 64.20 36.95 64.25 C 41.86 65.56 46.97 64.84 51.99 65.02 L 51.99 66.00 C 47.72 65.82 43.42 66.31 39.17 65.84 C 35.32 64.45 30.81 65.32 27.31 62.86 Z" />
<path fill="#fefefe" opacity="1.00" d=" M 100.24 63.23 L 100.77 63.24 L 100.77 63.77 L 100.23 63.77 L 100.24 63.23 Z" />
<path fill="#c3c3c3" opacity="1.00" d=" M 88.12 65.95 C 85.61 65.01 89.07 62.49 89.19 65.21 L 88.87 65.91 L 88.12 65.95 Z" />
<path fill="#c3c3c3" opacity="1.00" d=" M 84.25 65.46 L 84.76 65.46 L 84.77 65.98 L 84.24 65.98 L 84.25 65.46 Z" />
<path fill="#c3c3c3" opacity="1.00" d=" M 0.00 66.28 C 0.11 66.44 0.34 66.75 0.45 66.90 L 0.00 66.86 L 0.00 66.28 Z" />
<path fill="#c3c3c3" opacity="1.00" d=" M 36.28 66.26 L 36.73 66.25 L 36.73 66.70 L 36.28 66.71 L 36.28 66.26 Z" />
<path fill="#fefefe" opacity="1.00" d=" M 0.00 66.86 L 0.45 66.90 L 1.02 67.75 C 0.98 68.29 0.88 69.36 0.83 69.90 L 0.00 69.92 L 0.00 66.86 Z" />
<path fill="#c3c3c3" opacity="1.00" d=" M 79.28 68.28 C 79.76 68.77 79.76 68.77 79.28 68.28 Z" />
<path fill="#c3c3c3" opacity="1.00" d=" M 0.00 69.92 L 0.83 69.90 L 1.07 70.81 C 0.80 71.09 0.27 71.64 0.00 71.92 L 0.00 69.92 Z" />
<path fill="#c3c3c3" opacity="1.00" d=" M 89.27 70.28 C 89.76 70.76 89.76 70.76 89.27 70.28 Z" />
<path fill="#030303" opacity="1.00" d=" M 48.11 72.26 C 49.38 71.75 51.30 73.41 50.88 74.73 C 49.61 75.24 47.70 73.58 48.11 72.26 Z" />
<path fill="#030303" opacity="1.00" d=" M 69.24 78.03 C 66.03 78.54 64.37 72.57 67.81 71.87 L 68.09 72.79 C 65.08 73.31 68.50 76.11 68.97 77.57 L 69.24 78.03 Z" />
<path fill="#030303" opacity="1.00" d=" M 46.13 72.64 C 48.22 74.94 48.34 78.09 48.01 81.02 L 47.87 81.52 C 47.19 83.30 46.76 85.53 44.89 86.47 C 42.68 87.75 40.53 89.13 38.27 90.29 C 34.45 92.19 29.52 91.15 26.21 94.15 C 23.49 96.24 23.66 99.99 22.81 103.00 C 24.18 103.32 25.57 103.53 26.97 103.33 C 27.08 104.91 26.82 106.62 27.74 108.02 C 28.01 108.57 28.54 109.67 28.81 110.22 C 26.21 110.15 26.18 107.59 25.32 105.77 C 22.25 104.21 19.25 101.62 18.93 97.98 C 18.31 93.97 21.19 90.31 24.63 88.62 C 28.61 86.22 33.67 87.06 37.67 84.69 C 39.06 83.64 40.17 82.28 41.30 80.98 C 42.97 80.86 44.59 81.15 46.05 82.00 C 45.99 78.88 45.98 75.75 46.13 72.64 Z" />
<path fill="#030303" opacity="1.00" d=" M 70.92 75.72 C 72.88 78.12 74.89 80.50 76.33 83.25 C 77.28 82.76 78.24 82.26 79.19 81.75 C 79.87 82.44 80.56 83.12 81.25 83.81 C 84.84 83.77 87.73 86.20 91.15 86.86 C 92.72 87.02 94.30 86.97 95.88 87.12 C 101.71 89.17 105.06 95.53 104.04 101.55 C 100.37 100.11 99.20 96.00 96.27 93.68 C 94.35 91.75 91.58 91.18 88.97 91.05 C 84.11 90.82 79.57 88.77 75.27 86.66 C 74.89 86.45 74.12 86.04 73.73 85.84 C 74.10 84.97 74.48 84.10 74.86 83.24 C 72.49 81.47 70.69 78.80 70.92 75.72 Z" />
<path fill="#030303" opacity="1.00" d=" M 115.78 83.45 C 115.87 80.67 115.91 77.76 117.91 75.58 C 118.51 79.03 117.37 82.33 116.77 85.67 C 114.40 86.90 112.50 88.83 110.21 90.17 C 110.10 89.66 109.90 88.65 109.80 88.14 C 108.29 88.35 107.06 89.53 105.65 90.08 C 106.64 88.03 108.82 87.44 110.80 86.77 C 112.32 84.08 112.79 80.45 110.06 78.34 L 109.72 77.92 C 111.65 78.08 113.14 79.38 114.72 80.35 C 114.94 81.43 115.30 82.46 115.78 83.45 M 113.10 81.26 L 112.71 82.01 L 113.10 82.76 L 113.90 82.76 L 114.29 82.01 L 113.89 81.26 L 113.10 81.26 M 114.23 84.23 L 114.23 84.77 L 114.77 84.77 L 114.77 84.23 L 114.23 84.23 Z" />
<path fill="#c3c3c3" opacity="1.00" d=" M 68.97 77.57 L 69.39 77.30 L 69.66 77.73 L 69.24 78.03 L 68.97 77.57 Z" />
<path fill="#c3c3c3" opacity="1.00" d=" M 109.33 78.28 L 109.72 77.92 L 110.06 78.34 L 109.66 78.68 L 109.33 78.28 Z" />
<path fill="#c3c3c3" opacity="1.00" d=" M 48.01 81.02 L 48.50 81.16 L 48.37 81.65 L 47.87 81.52 L 48.01 81.02 Z" />
<path fill="#fefefe" opacity="1.00" d=" M 113.10 81.26 L 113.89 81.26 L 114.29 82.01 L 113.90 82.76 L 113.10 82.76 L 112.71 82.01 L 113.10 81.26 Z" />
<path fill="#c3c3c3" opacity="1.00" d=" M 0.00 83.12 C 0.27 83.40 0.82 83.96 1.09 84.24 L 0.90 85.13 L 0.00 85.07 L 0.00 83.12 Z" />
<path fill="#fefefe" opacity="1.00" d=" M 114.23 84.23 L 114.77 84.23 L 114.77 84.77 L 114.23 84.77 L 114.23 84.23 Z" />
<path fill="#fefefe" opacity="1.00" d=" M 0.00 85.07 L 0.90 85.13 L 1.04 86.12 L 0.56 86.98 L 0.00 87.00 L 0.00 85.07 Z" />
<path fill="#c3c3c3" opacity="1.00" d=" M 0.00 87.00 L 0.56 86.98 C 0.42 87.15 0.14 87.47 0.00 87.64 L 0.00 87.00 Z" />
<path fill="#030303" opacity="1.00" d=" M 10.06 86.65 C 12.88 88.67 12.94 92.34 13.91 95.36 C 12.45 94.79 11.21 93.83 10.02 92.85 C 10.02 90.78 10.01 88.72 10.06 86.65 Z" />
<path fill="#c3c3c3" opacity="1.00" d=" M 38.27 90.29 C 40.53 89.13 42.68 87.75 44.89 86.47 C 47.46 90.01 45.58 94.39 44.55 98.12 C 43.05 96.54 41.63 94.88 40.48 93.03 C 39.34 93.33 37.97 93.20 37.10 94.11 C 34.62 96.44 31.72 98.22 28.91 100.11 C 30.64 103.82 32.89 107.43 36.41 109.68 C 37.75 109.93 39.10 110.13 40.46 110.27 C 39.76 111.67 38.70 112.79 37.27 113.45 C 33.31 113.17 30.99 109.75 27.74 108.02 C 26.82 106.62 27.08 104.91 26.97 103.33 C 25.57 103.53 24.18 103.32 22.81 103.00 C 23.66 99.99 23.49 96.24 26.21 94.15 C 29.52 91.15 34.45 92.19 38.27 90.29 M 43.32 89.19 L 43.25 89.63 L 43.69 89.70 L 43.76 89.26 L 43.32 89.19 M 28.16 104.34 C 27.43 105.75 29.28 107.88 30.72 107.67 C 31.04 106.32 29.75 103.91 28.16 104.34 Z" />
<path fill="#c3c3c3" opacity="1.00" d=" M 75.27 86.66 C 79.57 88.77 84.11 90.82 88.97 91.05 C 91.58 91.18 94.35 91.75 96.27 93.68 C 99.20 96.00 100.37 100.11 104.04 101.55 C 102.84 105.11 100.83 108.51 97.74 110.74 C 93.85 111.60 89.81 110.67 85.86 111.00 C 85.64 110.81 85.21 110.42 85.00 110.23 L 86.14 110.37 C 88.78 110.14 90.56 108.10 92.63 106.70 C 94.38 105.45 96.34 104.54 98.26 103.59 C 93.21 102.56 92.15 97.10 89.39 93.58 C 86.32 93.39 83.23 94.28 80.36 95.34 C 77.63 96.32 77.83 99.65 77.86 102.02 C 77.42 100.32 76.23 99.06 75.14 97.76 C 74.43 94.10 74.95 90.33 75.27 86.66 M 99.36 103.32 C 98.46 104.05 97.63 105.55 98.24 106.69 C 99.86 107.33 101.02 103.63 99.36 103.32 Z" />
<path fill="#fefefe" opacity="1.00" d=" M 43.32 89.19 L 43.76 89.26 L 43.69 89.70 L 43.25 89.63 L 43.32 89.19 Z" />
<path fill="#030303" opacity="1.00" d=" M 37.10 94.11 C 37.97 93.20 39.34 93.33 40.48 93.03 C 41.63 94.88 43.05 96.54 44.55 98.12 C 45.52 98.85 46.00 99.81 46.00 100.99 C 46.03 104.28 46.18 107.59 45.91 110.87 C 44.79 114.73 42.17 117.92 39.04 120.36 C 39.29 118.42 42.06 116.74 39.90 115.07 C 40.22 114.53 40.85 113.46 41.17 112.92 C 38.82 115.01 35.69 115.51 32.71 116.06 C 33.95 114.76 35.72 114.26 37.27 113.45 C 38.70 112.79 39.76 111.67 40.46 110.27 C 39.10 110.13 37.75 109.93 36.41 109.68 C 32.89 107.43 30.64 103.82 28.91 100.11 C 31.72 98.22 34.62 96.44 37.10 94.11 M 39.28 95.34 C 36.45 96.86 34.54 99.34 32.87 102.01 C 36.73 100.28 41.08 101.22 45.18 101.01 C 43.70 98.71 41.85 96.70 39.64 95.09 L 39.28 95.34 M 40.97 101.95 C 41.44 103.11 42.65 104.38 41.86 105.69 C 40.66 107.87 37.81 106.72 35.83 107.02 C 36.17 107.51 36.85 108.50 37.19 108.99 C 38.70 108.97 40.21 108.94 41.72 108.89 C 42.75 107.80 43.80 106.73 44.89 105.70 C 44.94 104.47 44.99 103.25 45.03 102.03 C 43.67 102.01 42.32 101.98 40.97 101.95 M 32.47 103.02 C 31.89 103.89 32.64 106.06 33.86 105.68 C 34.71 104.76 33.88 102.35 32.47 103.02 M 42.24 110.23 L 42.24 110.77 L 42.78 110.77 L 42.78 110.23 L 42.24 110.23 M 42.23 112.23 L 42.23 112.76 L 42.77 112.76 L 42.77 112.23 L 42.23 112.23 Z" />
<path fill="#030303" opacity="1.00" d=" M 80.36 95.34 C 83.23 94.28 86.32 93.39 89.39 93.58 C 92.15 97.10 93.21 102.56 98.26 103.59 C 96.34 104.54 94.38 105.45 92.63 106.70 C 90.56 108.10 88.78 110.14 86.14 110.37 C 85.71 109.74 84.86 108.46 84.44 107.82 C 85.61 108.16 86.78 108.52 87.95 108.89 C 90.30 106.99 92.53 104.92 95.10 103.30 C 93.35 102.59 91.63 101.80 89.96 100.93 C 90.75 102.75 91.89 105.32 89.70 106.67 C 87.30 107.00 84.84 107.10 82.58 108.06 C 83.38 108.80 84.18 109.52 85.00 110.23 C 85.21 110.42 85.64 110.81 85.86 111.00 C 87.67 113.04 89.80 114.86 91.13 117.28 C 88.38 114.72 85.05 112.78 82.65 109.88 C 82.19 110.34 81.26 111.26 80.79 111.72 C 79.87 110.66 78.94 109.63 77.99 108.61 C 78.25 108.30 78.77 107.66 79.03 107.34 C 77.59 106.12 75.86 104.92 75.74 102.85 C 76.29 103.17 77.39 103.83 77.94 104.15 C 77.92 103.62 77.88 102.55 77.86 102.02 C 77.83 99.65 77.63 96.32 80.36 95.34 M 86.25 95.10 L 86.25 95.90 L 87.00 96.29 L 87.75 95.90 L 87.75 95.10 L 87.00 94.71 L 86.25 95.10 M 79.63 98.82 C 82.55 100.73 86.13 99.93 89.39 99.73 L 89.63 99.73 C 92.11 100.46 90.70 96.44 88.87 97.07 C 85.78 97.22 81.72 95.83 79.63 98.82 M 80.39 101.39 C 79.98 101.58 79.16 101.97 78.75 102.16 C 79.88 102.53 81.51 106.66 79.00 104.90 L 79.00 106.12 L 80.34 105.58 L 79.87 107.10 C 80.45 107.35 81.62 107.85 82.21 108.09 C 81.39 107.30 80.80 106.37 80.44 105.29 C 82.96 104.74 82.03 102.58 81.81 100.75 C 81.46 100.91 80.75 101.23 80.39 101.39 Z" />
<path fill="#fefefe" opacity="1.00" d=" M 39.28 95.34 L 39.64 95.09 C 41.85 96.70 43.70 98.71 45.18 101.01 C 41.08 101.22 36.73 100.28 32.87 102.01 C 34.54 99.34 36.45 96.86 39.28 95.34 M 36.42 99.26 C 36.63 100.77 40.27 100.74 40.58 99.36 C 39.40 98.62 37.61 98.45 36.42 99.26 Z" />
<path fill="#fefefe" opacity="1.00" d=" M 86.25 95.10 L 87.00 94.71 L 87.75 95.10 L 87.75 95.90 L 87.00 96.29 L 86.25 95.90 L 86.25 95.10 Z" />
<path fill="#fefefe" opacity="1.00" d=" M 79.63 98.82 C 81.72 95.83 85.78 97.22 88.87 97.07 C 90.70 96.44 92.11 100.46 89.63 99.73 C 89.57 99.73 89.45 99.73 89.39 99.73 C 86.13 99.93 82.55 100.73 79.63 98.82 Z" />
<path fill="#c3c3c3" opacity="1.00" d=" M 36.42 99.26 C 37.61 98.45 39.40 98.62 40.58 99.36 C 40.27 100.74 36.63 100.77 36.42 99.26 Z" />
<path fill="#c3c3c3" opacity="1.00" d=" M 89.39 99.73 C 89.45 99.73 89.57 99.73 89.63 99.73 L 89.39 99.73 Z" />
<path fill="#fefefe" opacity="1.00" d=" M 80.39 101.39 C 80.75 101.23 81.46 100.91 81.81 100.75 C 82.03 102.58 82.96 104.74 80.44 105.29 C 80.80 106.37 81.39 107.30 82.21 108.09 C 81.62 107.85 80.45 107.35 79.87 107.10 L 80.34 105.58 L 79.00 106.12 L 79.00 104.90 C 81.51 106.66 79.88 102.53 78.75 102.16 C 79.16 101.97 79.98 101.58 80.39 101.39 Z" />
<path fill="#fefefe" opacity="1.00" d=" M 89.96 100.93 C 91.63 101.80 93.35 102.59 95.10 103.30 C 92.53 104.92 90.30 106.99 87.95 108.89 C 86.78 108.52 85.61 108.16 84.44 107.82 C 84.86 108.46 85.71 109.74 86.14 110.37 L 85.00 110.23 C 84.18 109.52 83.38 108.80 82.58 108.06 C 84.84 107.10 87.30 107.00 89.70 106.67 C 91.89 105.32 90.75 102.75 89.96 100.93 Z" />
<path fill="#fefefe" opacity="1.00" d=" M 40.97 101.95 C 42.32 101.98 43.67 102.01 45.03 102.03 C 44.99 103.25 44.94 104.47 44.89 105.70 C 43.80 106.73 42.75 107.80 41.72 108.89 C 40.21 108.94 38.70 108.97 37.19 108.99 C 36.85 108.50 36.17 107.51 35.83 107.02 C 37.81 106.72 40.66 107.87 41.86 105.69 C 42.65 104.38 41.44 103.11 40.97 101.95 Z" />
<path fill="#fefefe" opacity="1.00" d=" M 32.47 103.02 C 33.88 102.35 34.71 104.76 33.86 105.68 C 32.64 106.06 31.89 103.89 32.47 103.02 Z" />
<path fill="#030303" opacity="1.00" d=" M 99.36 103.32 C 101.02 103.63 99.86 107.33 98.24 106.69 C 97.63 105.55 98.46 104.05 99.36 103.32 Z" />
<path fill="#030303" opacity="1.00" d=" M 28.16 104.34 C 29.75 103.91 31.04 106.32 30.72 107.67 C 29.28 107.88 27.43 105.75 28.16 104.34 Z" />
<path fill="#c3c3c3" opacity="1.00" d=" M 112.37 103.78 C 114.76 106.66 114.12 110.59 114.10 114.05 C 114.16 117.52 111.88 120.32 110.25 123.18 C 106.55 129.62 105.43 137.03 104.48 144.26 C 103.94 142.21 103.96 139.96 102.97 138.06 C 100.47 135.85 98.10 133.24 94.84 132.17 C 92.55 131.40 90.76 129.72 88.94 128.20 C 89.30 128.28 90.02 128.44 90.38 128.52 C 95.34 129.87 100.88 127.88 104.28 124.12 C 104.92 123.41 105.50 122.65 106.03 121.85 C 106.37 121.31 107.06 120.25 107.40 119.72 C 107.47 119.60 107.59 119.37 107.66 119.25 L 107.98 118.57 C 109.87 113.79 111.97 108.96 112.37 103.78 Z" />
<path fill="#c3c3c3" opacity="1.00" d=" M 18.22 104.60 C 20.05 109.84 21.57 115.42 25.15 119.79 C 26.06 121.10 26.26 122.74 26.83 124.21 C 27.72 126.46 28.86 128.76 30.93 130.12 L 31.61 130.56 C 33.85 132.12 36.60 132.50 39.27 132.42 C 35.31 136.16 32.47 141.03 31.29 146.35 C 31.07 144.00 31.06 141.62 30.64 139.30 C 27.43 136.12 24.45 132.69 22.30 128.70 C 20.91 125.87 18.10 123.93 17.10 120.92 C 16.30 115.44 18.38 110.09 18.22 104.60 Z" />
<path fill="#fefefe" opacity="1.00" d=" M 42.24 110.23 L 42.78 110.23 L 42.78 110.77 L 42.24 110.77 L 42.24 110.23 Z" />
<path fill="#030303" opacity="1.00" d=" M 59.77 111.09 L 60.87 111.00 C 60.93 113.36 62.54 115.49 61.97 117.89 C 61.46 119.68 60.52 121.45 58.76 122.29 C 59.30 120.38 60.23 118.63 60.97 116.81 C 60.89 114.85 60.18 112.99 59.77 111.09 Z" />
<path fill="#fefefe" opacity="1.00" d=" M 42.23 112.23 L 42.77 112.23 L 42.77 112.76 L 42.23 112.76 L 42.23 112.23 Z" />
<path fill="#030303" opacity="1.00" d=" M 80.56 111.70 C 81.20 111.81 82.47 112.01 83.11 112.12 C 81.17 113.86 85.20 113.93 86.19 114.17 C 85.96 114.86 85.49 116.24 85.26 116.93 C 85.95 117.19 87.31 117.70 88.00 117.96 L 88.02 119.00 C 87.31 119.01 85.87 119.02 85.16 119.03 C 84.38 118.00 85.23 114.23 82.90 116.09 L 83.50 114.61 C 82.80 114.70 81.39 114.87 80.68 114.95 C 82.26 117.57 84.34 119.82 86.25 122.19 C 83.28 122.08 82.14 119.18 80.81 117.04 C 79.21 116.96 77.75 116.72 77.95 114.73 C 78.25 115.14 78.84 115.96 79.13 116.37 C 80.27 115.12 81.93 113.51 80.56 111.70 Z" />
<path fill="#c3c3c3" opacity="1.00" d=" M 32.29 113.27 C 32.75 113.77 32.75 113.77 32.29 113.27 Z" />
<path fill="#030303" opacity="1.00" d=" M 107.36 116.56 C 107.51 117.06 107.82 118.07 107.98 118.57 L 107.66 119.25 C 107.59 119.37 107.47 119.60 107.40 119.72 C 107.06 120.25 106.37 121.31 106.03 121.85 C 105.53 121.94 104.55 122.12 104.05 122.21 C 104.04 121.66 104.02 120.56 104.00 120.01 C 106.33 120.68 106.34 117.90 107.36 116.56 Z" />
<path fill="#fefefe" opacity="1.00" d=" M 107.40 119.72 C 107.47 119.60 107.59 119.37 107.66 119.25 C 107.59 119.37 107.47 119.60 107.40 119.72 Z" />
<path fill="#030303" opacity="1.00" d=" M 26.83 124.21 C 27.40 123.86 28.53 123.15 29.10 122.80 C 29.16 124.35 29.21 125.89 29.25 127.44 C 29.44 127.02 29.83 126.17 30.02 125.75 C 32.15 127.36 34.62 128.61 36.14 130.90 C 36.80 130.98 38.13 131.14 38.80 131.22 L 39.27 132.42 C 36.60 132.50 33.85 132.12 31.61 130.56 C 32.30 130.55 33.66 130.53 34.35 130.53 C 33.69 128.95 31.99 128.26 30.40 128.07 C 30.53 128.58 30.80 129.61 30.93 130.12 C 28.86 128.76 27.72 126.46 26.83 124.21 Z" />
<path fill="#030303" opacity="1.00" d=" M 103.34 123.01 L 104.09 123.28 L 104.28 124.12 C 100.88 127.88 95.34 129.87 90.38 128.52 C 92.16 128.01 94.01 127.96 95.85 127.88 C 96.52 127.19 97.17 126.47 97.81 125.74 C 98.39 126.12 99.55 126.86 100.14 127.24 C 99.79 126.68 99.10 125.57 98.75 125.01 C 100.73 125.27 102.37 124.87 103.34 123.01 Z" />
<path fill="#c3c3c3" opacity="1.00" d=" M 96.28 124.28 C 96.76 124.77 96.76 124.77 96.28 124.28 Z" />
<path fill="#fefefe" opacity="1.00" d=" M 0.00 124.25 C 1.93 126.24 1.90 129.23 3.72 131.27 C 4.94 132.82 5.93 134.53 6.60 136.39 C 8.29 140.91 10.55 145.18 12.55 149.56 C 14.15 155.32 13.04 161.71 15.84 167.15 C 17.45 170.87 18.67 174.77 20.69 178.30 C 22.78 182.29 25.53 186.03 26.44 190.53 C 28.75 193.83 31.95 196.44 35.16 198.84 C 37.68 200.72 38.22 204.37 41.04 205.94 C 44.17 207.69 46.22 210.77 49.20 212.74 C 52.17 214.77 54.02 218.24 57.50 219.57 C 65.44 221.44 73.33 223.56 81.20 225.75 C 82.79 225.98 84.41 225.98 86.02 226.12 C 85.17 227.85 84.39 229.84 82.60 230.80 C 80.20 231.13 77.77 230.89 75.37 231.16 C 74.07 231.99 73.54 233.53 72.65 234.72 C 69.03 231.68 63.43 232.62 60.33 236.00 L 0.00 236.00 L 0.00 124.25 Z" />
<path fill="#030303" opacity="1.00" d=" M 74.97 125.76 C 75.99 126.58 77.01 127.40 78.04 128.22 C 78.04 129.40 77.99 130.57 77.90 131.74 L 77.36 132.26 C 76.62 131.37 75.87 130.49 75.11 129.62 C 75.05 128.33 75.01 127.04 74.97 125.76 Z" />
<path fill="#c3c3c3" opacity="1.00" d=" M 14.24 128.26 L 14.70 128.26 L 14.70 128.71 L 14.24 128.71 L 14.24 128.26 Z" />
<path fill="#fefefe" opacity="1.00" d=" M 30.40 128.07 C 31.99 128.26 33.69 128.95 34.35 130.53 C 33.66 130.53 32.30 130.55 31.61 130.56 L 30.93 130.12 C 30.80 129.61 30.53 128.58 30.40 128.07 Z" />
<path fill="#030303" opacity="1.00" d=" M 61.19 128.11 C 62.15 128.93 63.27 128.40 64.33 128.13 C 63.94 129.47 63.02 130.51 62.08 131.50 C 61.33 130.78 60.57 130.07 59.81 129.35 C 60.16 129.04 60.85 128.42 61.19 128.11 Z" />
<path fill="#c3c3c3" opacity="1.00" d=" M 156.73 128.66 C 156.74 128.59 156.75 128.43 156.75 128.35 L 156.73 128.66 Z" />
<path fill="#030303" opacity="1.00" d=" M 58.28 131.20 C 58.78 131.12 59.80 130.96 60.31 130.88 C 59.60 131.68 58.88 132.47 58.15 133.26 C 59.14 135.15 59.85 137.18 60.77 139.10 C 62.47 141.22 64.72 142.83 66.38 144.99 C 64.63 144.38 62.96 143.55 61.34 142.66 C 60.01 139.21 56.63 136.30 57.14 132.34 C 57.43 132.05 57.99 131.49 58.28 131.20 Z" />
<path fill="#c3c3c3" opacity="1.00" d=" M 77.36 132.26 L 77.90 131.74 C 80.44 131.94 77.46 135.65 77.04 133.05 L 77.36 132.26 Z" />
<path fill="#c3c3c3" opacity="1.00" d=" M 151.29 132.26 L 151.74 132.26 L 151.75 132.71 L 151.29 132.71 L 151.29 132.26 Z" />
<path fill="#c3c3c3" opacity="1.00" d=" M 80.29 132.96 C 82.00 134.54 83.89 135.91 85.61 137.48 C 86.84 140.72 88.86 144.16 87.77 147.72 C 85.97 148.08 84.09 148.50 82.30 147.86 C 80.77 146.67 79.68 145.03 78.46 143.54 C 79.23 143.66 80.00 143.78 80.78 143.90 C 81.14 141.87 81.58 139.87 82.07 137.88 C 81.54 138.12 80.47 138.60 79.94 138.85 L 79.82 137.84 C 79.72 137.66 79.53 137.30 79.43 137.13 C 79.06 136.83 78.33 136.23 77.96 135.93 C 78.73 134.93 79.51 133.94 80.29 132.96 Z" />
<path fill="#fefefe" opacity="1.00" d=" M 157.93 143.97 C 158.14 139.89 160.12 136.20 161.00 132.25 L 161.00 236.00 L 112.67 236.00 C 108.18 231.18 100.94 234.64 95.81 231.30 C 93.98 230.02 92.85 228.03 91.93 226.05 C 94.15 225.89 96.45 226.21 98.63 225.66 C 101.67 224.55 104.07 222.19 107.13 221.14 C 110.36 220.05 113.33 218.25 115.80 215.91 C 117.48 214.21 118.90 212.24 120.85 210.82 C 122.93 209.30 125.25 208.02 126.82 205.92 C 129.94 202.01 133.51 198.50 136.71 194.66 C 138.66 192.28 141.33 190.42 142.52 187.49 C 143.98 183.79 146.11 180.42 147.94 176.92 C 150.02 171.26 152.54 165.75 155.70 160.61 C 156.34 157.51 155.59 154.30 156.18 151.20 C 156.78 148.79 157.85 146.48 157.93 143.97 Z" />
<path fill="#030303" opacity="1.00" d=" M 54.37 134.28 L 55.08 133.67 C 54.53 135.67 54.00 137.69 53.82 139.77 C 57.59 139.81 60.38 142.50 62.81 145.05 C 59.00 144.83 55.18 143.95 51.92 141.91 C 51.85 139.22 51.90 135.97 54.37 134.28 Z" />
<path fill="#c3c3c3" opacity="1.00" d=" M 94.49 136.96 C 94.49 136.80 94.51 136.47 94.52 136.30 L 94.80 136.64 L 94.49 136.96 Z" />
<path fill="#030303" opacity="1.00" d=" M 79.43 137.13 C 79.53 137.30 79.72 137.66 79.82 137.84 L 79.31 137.65 L 79.43 137.13 Z" />
<path fill="#030303" opacity="1.00" d=" M 94.49 136.96 L 94.80 136.64 C 94.89 139.13 95.84 141.47 96.09 143.94 C 95.54 144.10 94.45 144.43 93.91 144.60 C 93.65 142.64 94.96 139.96 92.52 139.02 C 93.01 138.50 93.99 137.48 94.49 136.96 Z" />
<path fill="#030303" opacity="1.00" d=" M 74.16 137.99 C 75.38 138.00 76.59 138.01 77.81 138.01 C 78.66 139.21 78.29 141.93 80.02 142.04 C 80.00 141.24 79.96 139.64 79.94 138.85 C 80.47 138.60 81.54 138.12 82.07 137.88 C 81.58 139.87 81.14 141.87 80.78 143.90 C 80.00 143.78 79.23 143.66 78.46 143.54 L 77.70 143.40 C 77.61 143.38 77.45 143.34 77.37 143.32 C 75.50 142.65 73.74 141.79 71.69 141.85 C 72.25 140.40 73.20 139.18 74.16 137.99 Z" />
<path fill="#c3c3c3" opacity="1.00" d=" M 153.29 140.29 C 153.78 140.78 153.78 140.78 153.29 140.29 Z" />
<path fill="#030303" opacity="1.00" d=" M 48.80 143.06 C 49.35 143.03 50.47 142.98 51.03 142.95 C 51.03 145.69 51.25 148.52 50.22 151.13 C 49.80 152.34 49.42 153.97 47.91 154.25 C 50.02 155.18 47.59 157.41 47.81 159.05 C 46.75 157.98 45.43 158.66 44.21 158.98 C 44.09 164.78 40.30 169.90 41.00 175.77 C 41.50 175.26 42.48 174.24 42.98 173.73 C 43.00 174.67 43.03 176.55 43.05 177.49 C 41.95 176.84 40.08 176.48 40.10 174.86 C 39.88 173.50 39.62 172.14 38.94 170.92 C 40.70 168.09 41.78 164.94 43.15 161.93 C 42.38 161.01 41.60 160.11 40.81 159.22 C 44.05 159.28 43.35 155.13 44.12 152.94 C 44.62 153.19 45.62 153.71 46.12 153.96 C 45.40 154.99 45.01 156.12 44.93 157.38 C 46.60 155.99 46.49 153.57 48.03 152.09 L 46.74 152.09 C 46.73 149.93 47.94 148.12 49.04 146.37 C 49.00 147.22 48.92 148.91 48.89 149.75 C 50.81 147.86 48.84 145.27 48.80 143.06 M 48.23 150.02 L 48.23 150.56 L 48.77 150.56 L 48.77 150.02 L 48.23 150.02 Z" />
<path fill="#c3c3c3" opacity="1.00" d=" M 77.37 143.32 C 77.45 143.34 77.61 143.38 77.70 143.40 C 77.61 143.38 77.45 143.34 77.37 143.32 Z" />
<path fill="#c3c3c3" opacity="1.00" d=" M 101.28 143.28 C 101.77 143.76 101.77 143.76 101.28 143.28 Z" />
<path fill="#c3c3c3" opacity="1.00" d=" M 93.52 144.32 L 93.91 144.60 C 93.75 144.62 93.44 144.66 93.28 144.69 L 93.52 144.32 Z" />
<path fill="#c3c3c3" opacity="1.00" d=" M 69.28 145.28 C 69.77 145.76 69.77 145.76 69.28 145.28 Z" />
<path fill="#030303" opacity="1.00" d=" M 95.33 145.28 C 95.71 144.96 96.48 144.30 96.86 143.97 C 98.49 146.02 99.50 148.47 101.66 150.06 C 101.52 150.66 101.23 151.86 101.09 152.46 C 99.31 151.55 100.28 149.98 98.70 148.93 C 98.35 149.22 97.65 149.81 97.31 150.10 C 95.38 149.03 96.17 147.28 97.17 145.88 C 96.64 146.22 95.58 146.89 95.05 147.22 L 94.60 145.81 L 95.33 145.28 Z" />
<path fill="#c3c3c3" opacity="1.00" d=" M 67.27 146.28 C 67.76 146.76 67.76 146.76 67.27 146.28 Z" />
<path fill="#fefefe" opacity="1.00" d=" M 48.23 150.02 L 48.77 150.02 L 48.77 150.56 L 48.23 150.56 L 48.23 150.02 Z" />
<path fill="#030303" opacity="1.00" d=" M 102.04 151.43 C 103.36 151.25 104.20 153.57 103.80 154.65 C 102.34 154.97 100.94 152.55 102.04 151.43 Z" />
<path fill="#c3c3c3" opacity="1.00" d=" M 75.90 155.95 C 76.60 155.13 77.22 153.27 78.63 154.13 C 79.34 156.47 80.17 158.80 81.86 160.65 C 80.73 160.87 79.73 161.31 78.83 161.97 C 78.54 162.22 77.97 162.70 77.68 162.94 C 77.35 163.26 76.68 163.91 76.35 164.23 C 75.78 163.25 75.18 162.30 74.53 161.37 C 73.41 161.13 72.28 160.96 71.14 160.86 C 71.00 161.35 70.72 162.34 70.58 162.84 C 69.52 163.38 68.47 163.96 67.43 164.55 L 66.80 164.90 C 66.92 164.52 67.17 163.76 67.29 163.38 C 69.51 160.19 73.67 159.10 75.90 155.95 Z" />
<path fill="#c3c3c3" opacity="1.00" d=" M 152.71 154.61 C 152.72 154.55 152.73 154.44 152.73 154.38 L 152.71 154.61 Z" />
<path fill="#c3c3c3" opacity="1.00" d=" M 101.27 156.28 C 101.76 156.76 101.76 156.76 101.27 156.28 Z" />
<path fill="#030303" opacity="1.00" d=" M 104.23 156.46 L 104.77 156.46 L 104.78 157.01 L 104.23 157.02 L 104.23 156.46 Z" />
<path fill="#030303" opacity="1.00" d=" M 103.28 161.40 C 104.19 159.71 104.70 157.05 107.25 157.93 C 106.99 159.08 106.54 160.15 105.91 161.15 C 106.41 160.94 107.40 160.51 107.89 160.30 C 108.49 161.93 108.87 163.69 109.82 165.17 C 112.33 168.66 113.11 173.14 112.99 177.36 C 111.06 176.32 110.87 174.31 110.82 172.34 C 109.78 171.19 108.82 169.97 107.90 168.73 C 108.23 170.43 108.97 172.07 109.02 173.83 C 108.52 174.96 107.78 175.98 107.15 177.04 L 106.90 177.46 L 106.50 178.11 C 105.09 176.47 102.95 175.13 102.81 172.76 C 103.33 173.26 104.37 174.24 104.89 174.74 C 105.16 173.99 105.71 172.51 105.99 171.77 C 106.28 168.66 103.87 166.06 103.78 162.97 C 106.87 162.90 103.91 161.99 103.28 161.40 M 107.22 164.23 L 107.23 164.77 L 107.77 164.76 L 107.76 164.22 L 107.22 164.23 M 108.10 166.25 L 107.71 167.00 L 108.10 167.75 L 108.90 167.75 L 109.29 167.00 L 108.90 166.25 L 108.10 166.25 Z" />
<path fill="#030303" opacity="1.00" d=" M 46.30 160.02 L 46.97 159.26 C 46.33 162.48 44.97 165.59 44.99 168.93 C 44.93 174.10 45.19 179.28 44.87 184.46 C 43.85 182.33 42.44 179.90 43.42 177.50 C 44.86 173.33 43.08 168.79 44.57 164.63 C 45.08 163.06 44.88 161.16 46.30 160.02 Z" />
<path fill="#030303" opacity="1.00" d=" M 40.46 161.22 L 41.01 161.23 L 41.00 161.77 L 40.45 161.76 L 40.46 161.22 Z" />
<path fill="#c3c3c3" opacity="1.00" d=" M 83.51 161.93 C 83.64 159.74 88.77 160.43 87.59 162.76 C 86.24 162.43 84.88 162.17 83.51 161.93 Z" />
<path fill="#030303" opacity="1.00" d=" M 70.58 162.84 C 71.12 162.60 72.21 162.13 72.76 161.89 C 73.10 162.36 73.78 163.31 74.12 163.78 C 73.48 164.10 72.21 164.74 71.58 165.05 C 70.19 164.92 68.80 164.75 67.43 164.55 C 68.47 163.96 69.52 163.38 70.58 162.84 Z" />
<path fill="#030303" opacity="1.00" d=" M 77.68 162.94 C 77.97 162.70 78.54 162.22 78.83 161.97 C 80.39 161.84 81.95 161.83 83.51 161.93 C 84.88 162.17 86.24 162.43 87.59 162.76 L 88.35 163.33 C 87.00 163.75 85.72 164.31 84.49 165.00 C 82.08 164.87 79.92 163.73 77.68 162.94 Z" />
<path fill="#030303" opacity="1.00" d=" M 66.47 163.18 L 67.29 163.38 C 67.17 163.76 66.92 164.52 66.80 164.90 L 66.05 164.75 L 65.83 163.88 L 66.47 163.18 Z" />
<path fill="#c3c3c3" opacity="1.00" d=" M 93.28 163.29 C 93.77 163.77 93.77 163.77 93.28 163.29 Z" />
<path fill="#fefefe" opacity="1.00" d=" M 107.22 164.23 L 107.76 164.22 L 107.77 164.76 L 107.23 164.77 L 107.22 164.23 Z" />
<path fill="#030303" opacity="1.00" d=" M 99.85 164.66 C 100.86 165.06 101.84 165.53 102.79 166.07 C 103.24 167.95 105.03 169.12 105.24 171.10 C 104.38 170.98 102.64 170.75 101.78 170.64 L 101.80 170.11 L 101.86 168.90 C 101.81 168.72 101.72 168.35 101.68 168.17 C 100.99 167.04 100.38 165.87 99.85 164.66 Z" />
<path fill="#030303" opacity="1.00" d=" M 56.35 169.32 C 59.64 167.62 63.15 165.78 66.97 165.98 C 73.65 165.94 80.33 166.04 87.00 165.95 C 90.76 165.64 94.25 167.58 98.03 167.02 L 98.20 168.22 C 94.70 168.14 91.22 167.71 87.84 166.82 C 88.18 167.36 88.86 168.44 89.20 168.98 C 88.07 169.43 86.93 169.88 85.80 170.32 C 85.77 169.86 85.71 168.94 85.68 168.48 C 84.74 166.84 83.49 170.29 85.11 170.57 C 79.45 171.50 73.66 170.85 67.95 171.02 C 65.42 171.15 63.66 168.49 61.11 168.87 C 58.62 169.53 56.15 170.48 54.01 171.93 C 53.02 173.35 51.91 172.68 50.78 171.85 C 51.06 172.52 51.61 173.87 51.89 174.54 L 52.06 175.03 C 52.04 177.04 51.18 178.95 50.89 180.93 C 50.00 180.08 49.00 180.44 48.04 180.93 C 48.26 178.24 46.61 175.79 46.99 173.12 C 47.87 171.42 48.84 169.50 50.67 168.67 C 50.81 169.24 51.07 170.39 51.21 170.96 C 53.14 171.51 54.73 170.12 56.35 169.32 M 64.38 167.15 C 63.93 168.99 67.75 171.29 68.68 169.42 C 67.31 168.71 66.05 166.73 64.38 167.15 M 78.25 167.31 C 79.11 168.76 82.24 168.25 83.75 167.69 C 82.90 166.20 79.76 166.78 78.25 167.31 M 70.23 168.30 C 70.61 169.65 74.39 169.64 74.77 168.29 C 73.42 167.60 71.58 167.60 70.23 168.30 M 78.24 169.23 L 78.24 169.76 L 78.77 169.76 L 78.77 169.23 L 78.24 169.23 M 49.24 172.23 L 49.24 172.77 L 49.78 172.77 L 49.78 172.23 L 49.24 172.23 Z" />
<path fill="#fefefe" opacity="1.00" d=" M 108.10 166.25 L 108.90 166.25 L 109.29 167.00 L 108.90 167.75 L 108.10 167.75 L 107.71 167.00 L 108.10 166.25 Z" />
<path fill="#c3c3c3" opacity="1.00" d=" M 21.25 167.56 C 21.25 167.58 21.26 167.61 21.26 167.62 L 21.25 167.56 Z" />
<path fill="#fefefe" opacity="1.00" d=" M 64.38 167.15 C 66.05 166.73 67.31 168.71 68.68 169.42 C 67.75 171.29 63.93 168.99 64.38 167.15 Z" />
<path fill="#fefefe" opacity="1.00" d=" M 78.25 167.31 C 79.76 166.78 82.90 166.20 83.75 167.69 C 82.24 168.25 79.11 168.76 78.25 167.31 Z" />
<path fill="#c3c3c3" opacity="1.00" d=" M 87.84 166.82 C 91.22 167.71 94.70 168.14 98.20 168.22 C 97.67 170.70 94.80 171.03 92.87 171.96 C 89.68 172.76 88.34 176.24 85.41 177.51 C 82.38 178.89 79.26 180.24 76.00 180.95 C 72.32 180.70 69.08 178.61 65.69 177.33 C 63.19 174.95 60.84 171.82 57.05 171.68 C 55.80 172.27 54.84 173.28 53.76 174.11 C 53.82 173.57 53.95 172.48 54.01 171.93 C 56.15 170.48 58.62 169.53 61.11 168.87 C 63.66 168.49 65.42 171.15 67.95 171.02 C 73.66 170.85 79.45 171.50 85.11 170.57 L 85.80 170.32 C 86.93 169.88 88.07 169.43 89.20 168.98 C 88.86 168.44 88.18 167.36 87.84 166.82 Z" />
<path fill="#fefefe" opacity="1.00" d=" M 70.23 168.30 C 71.58 167.60 73.42 167.60 74.77 168.29 C 74.39 169.64 70.61 169.65 70.23 168.30 Z" />
<path fill="#fefefe" opacity="1.00" d=" M 85.11 170.57 C 83.49 170.29 84.74 166.84 85.68 168.48 C 85.71 168.94 85.77 169.86 85.80 170.32 L 85.11 170.57 Z" />
<path fill="#c3c3c3" opacity="1.00" d=" M 101.68 168.17 C 101.72 168.35 101.81 168.72 101.86 168.90 L 101.45 168.61 L 101.68 168.17 Z" />
<path fill="#fefefe" opacity="1.00" d=" M 78.24 169.23 L 78.77 169.23 L 78.77 169.76 L 78.24 169.76 L 78.24 169.23 Z" />
<path fill="#c3c3c3" opacity="1.00" d=" M 101.32 170.11 L 101.80 170.11 L 101.78 170.64 L 101.31 170.60 L 101.32 170.11 Z" />
<path fill="#c3c3c3" opacity="1.00" d=" M 113.28 170.27 C 113.76 170.76 113.76 170.76 113.28 170.27 Z" />
<path fill="#fefefe" opacity="1.00" d=" M 49.24 172.23 L 49.78 172.23 L 49.78 172.77 L 49.24 172.77 L 49.24 172.23 Z" />
<path fill="#c3c3c3" opacity="1.00" d=" M 51.89 174.54 L 52.38 174.37 L 52.55 174.84 L 52.06 175.03 L 51.89 174.54 Z" />
<path fill="#c3c3c3" opacity="1.00" d=" M 107.15 177.04 L 107.56 177.27 L 107.32 177.68 L 106.90 177.46 L 107.15 177.04 Z" />
<path fill="#c3c3c3" opacity="1.00" d=" M 44.26 186.29 L 44.70 186.30 L 44.70 186.75 L 44.25 186.74 L 44.26 186.29 Z" />
<path fill="#c3c3c3" opacity="1.00" d=" M 100.22 194.30 C 104.21 192.41 107.46 189.26 109.96 185.66 C 109.98 187.55 109.98 189.44 109.97 191.33 C 109.52 191.01 108.64 190.37 108.20 190.05 C 108.88 194.09 106.86 197.60 105.17 201.08 C 103.51 206.30 99.07 210.27 94.04 212.21 C 90.31 214.54 85.68 214.51 81.53 213.50 C 76.42 212.15 71.18 211.36 66.10 209.89 C 62.34 208.75 60.20 205.18 57.03 203.13 C 53.50 200.98 51.36 196.85 51.89 192.72 C 58.15 193.88 63.39 198.03 69.65 199.13 L 70.37 199.29 C 70.52 199.31 70.83 199.37 70.98 199.40 L 72.02 199.59 L 72.37 199.72 C 72.82 200.27 73.73 201.37 74.18 201.92 C 78.66 200.69 83.27 203.04 87.79 201.74 C 91.33 200.63 94.87 199.33 98.03 197.35 C 98.37 197.06 99.06 196.49 99.40 196.21 C 99.61 195.73 100.02 194.78 100.22 194.30 Z" />
<path fill="#030303" opacity="1.00" d=" M 95.77 194.75 C 96.72 193.56 97.31 191.95 98.98 191.62 C 98.57 193.30 97.95 194.90 97.20 196.45 C 97.40 196.68 97.82 197.12 98.03 197.35 C 94.87 199.33 91.33 200.63 87.79 201.74 C 83.27 203.04 78.66 200.69 74.18 201.92 C 73.73 201.37 72.82 200.27 72.37 199.72 C 72.28 199.69 72.11 199.62 72.02 199.59 L 70.98 199.40 C 70.83 199.37 70.52 199.31 70.37 199.29 L 69.65 199.13 C 69.06 198.81 67.88 198.17 67.28 197.86 C 67.69 196.48 67.25 195.10 66.96 193.75 C 68.30 194.96 69.63 196.18 71.00 197.36 C 70.72 196.69 70.16 195.36 69.88 194.69 C 71.45 194.81 72.10 196.07 72.80 197.28 C 74.86 198.25 77.01 199.05 79.13 199.89 C 83.43 200.09 88.08 200.78 91.78 198.07 C 92.06 198.35 92.62 198.91 92.90 199.19 C 92.80 198.65 92.58 197.58 92.48 197.04 C 93.56 196.25 94.73 195.60 95.77 194.75 Z" />
<path fill="#030303" opacity="1.00" d=" M 99.31 194.38 L 100.22 194.30 C 100.02 194.78 99.61 195.73 99.40 196.21 L 98.89 195.37 L 99.31 194.38 Z" />
<path fill="#fefefe" opacity="1.00" d=" M 70.37 199.29 C 70.52 199.31 70.83 199.37 70.98 199.40 C 70.83 199.37 70.52 199.31 70.37 199.29 Z" />
<path fill="#fefefe" opacity="1.00" d=" M 72.02 199.59 C 72.11 199.62 72.28 199.69 72.37 199.72 L 72.02 199.59 Z" />
<path fill="#c3c3c3" opacity="1.00" d=" M 55.27 210.28 C 55.76 210.76 55.76 210.76 55.27 210.28 Z" />
<path fill="#c3c3c3" opacity="1.00" d=" M 55.17 212.58 C 55.23 212.64 55.36 212.76 55.42 212.82 C 55.36 212.76 55.23 212.64 55.17 212.58 Z" />
<path fill="#c3c3c3" opacity="1.00" d=" M 69.28 217.28 C 69.77 217.76 69.77 217.76 69.28 217.28 Z" />
<path fill="#c3c3c3" opacity="1.00" d=" M 80.28 218.27 L 80.73 218.27 L 80.73 218.73 L 80.27 218.73 L 80.28 218.27 Z" />
</svg>
