<?xml version="1.0" encoding="UTF-8" ?>
<!DOCTYPE svg PUBLIC "-//W3C//DTD SVG 1.1//EN" "http://www.w3.org/Graphics/SVG/1.1/DTD/svg11.dtd">
<svg width="343pt" height="395pt" viewBox="0 0 343 395" version="1.1" xmlns="http://www.w3.org/2000/svg">
<g id="#ffffffff">
<path fill="#ffffff" opacity="1.00" d=" M 180.92 142.02 C 184.70 140.05 187.86 137.13 190.80 134.08 C 194.89 143.11 199.55 151.92 202.63 161.39 C 206.44 170.92 208.66 180.98 210.76 191.00 C 212.54 199.56 211.69 208.33 211.90 216.99 C 212.06 225.04 211.47 233.10 209.89 241.00 C 208.79 246.53 207.85 252.21 205.22 257.26 C 202.47 262.01 198.15 265.54 194.00 269.01 C 189.07 273.15 183.13 275.97 178.53 280.52 C 175.12 283.78 171.80 287.63 167.03 288.86 C 159.21 290.99 150.98 290.72 142.97 290.25 C 136.43 289.42 129.75 289.42 123.35 287.71 C 115.95 285.72 108.50 283.69 101.60 280.30 C 94.21 276.64 86.90 272.72 80.17 267.92 C 74.99 264.18 70.06 259.62 67.58 253.59 C 63.79 244.47 61.59 234.72 57.02 225.91 C 52.82 217.59 53.66 208.02 53.73 199.00 C 54.00 189.07 53.43 179.13 54.17 169.21 C 59.16 170.88 64.21 172.36 69.31 173.67 C 70.84 180.09 74.34 185.72 77.40 191.49 C 82.59 192.26 87.77 193.21 93.00 193.60 C 95.82 193.72 98.86 193.98 101.42 192.53 C 105.84 190.33 108.72 185.95 110.19 181.35 C 111.60 177.19 111.41 172.75 111.50 168.43 C 118.70 164.62 125.77 160.49 133.40 157.58 C 142.31 154.31 151.76 152.82 160.74 149.76 C 167.55 147.42 174.65 145.69 180.92 142.02 M 175.67 159.45 C 175.23 161.11 174.78 162.77 174.34 164.44 C 179.15 166.94 184.55 168.42 189.97 167.21 C 188.30 165.70 186.62 164.21 184.98 162.67 C 184.87 161.57 184.77 160.46 184.67 159.36 C 181.67 159.41 178.67 159.44 175.67 159.45 M 182.56 191.59 C 173.83 194.04 165.11 196.58 156.15 198.06 C 151.14 198.81 146.03 198.39 141.05 199.32 C 128.34 201.81 115.56 203.93 102.87 206.51 C 93.32 207.65 83.65 208.85 74.65 212.45 C 74.66 213.56 74.68 215.78 74.69 216.89 C 78.86 216.19 82.99 215.27 87.11 214.31 C 99.82 211.65 112.72 210.13 125.45 207.56 C 132.02 206.68 138.41 204.85 145.00 204.14 C 150.68 203.47 156.25 202.14 161.96 201.69 C 167.08 201.32 172.11 200.22 177.11 199.11 C 182.11 198.01 186.75 195.56 191.91 195.13 C 195.68 194.59 199.52 194.69 203.28 194.03 C 205.41 193.85 205.78 191.43 206.63 189.91 C 198.59 188.82 190.45 190.05 182.56 191.59 M 131.61 213.34 C 131.22 214.75 130.84 216.16 130.47 217.58 C 133.42 217.52 136.39 217.30 139.23 216.45 C 145.74 214.50 152.60 215.17 159.29 215.18 C 159.33 213.02 159.35 210.86 159.35 208.70 C 150.24 211.00 140.84 211.64 131.61 213.34 Z" />
</g>
<g id="#010101ff">
<path fill="#010101" opacity="1.00" d=" M 88.98 21.96 C 97.56 13.71 109.35 9.67 120.96 8.16 C 130.71 6.73 140.68 8.13 150.03 11.01 C 156.59 13.04 162.67 16.63 167.50 21.52 C 175.69 29.83 180.99 40.40 186.00 50.81 C 189.08 57.46 192.74 63.92 197.67 69.40 C 201.67 73.66 207.29 76.21 212.97 77.30 C 225.35 78.10 236.45 68.88 248.93 71.27 C 248.71 73.92 248.79 76.80 247.15 79.07 C 239.14 91.46 227.58 100.87 217.46 111.44 C 211.64 117.78 204.55 123.14 200.36 130.81 C 197.65 130.12 194.96 129.37 192.27 128.63 C 190.23 128.07 188.18 127.55 186.11 127.15 C 180.15 126.27 174.16 125.67 168.22 124.62 C 160.97 123.31 153.56 123.46 146.27 122.40 C 137.25 121.08 128.11 121.31 119.02 121.41 C 112.29 121.50 105.68 122.85 98.98 123.30 C 88.56 123.93 78.30 126.03 68.08 128.03 C 67.39 128.88 66.71 129.73 66.03 130.58 C 65.28 129.65 64.54 128.71 63.78 127.79 C 62.56 128.31 61.35 128.84 60.12 129.36 C 59.07 129.76 58.02 130.15 56.96 130.52 C 52.14 125.18 47.69 119.50 42.51 114.49 C 36.93 109.07 31.62 103.37 26.06 97.93 C 20.34 92.35 14.50 86.75 10.08 80.05 C 8.28 77.45 8.32 74.20 8.11 71.18 C 19.93 69.19 30.42 77.13 42.03 77.45 C 47.82 77.22 53.41 74.58 57.58 70.60 C 61.59 66.80 65.03 62.38 67.62 57.50 C 71.74 49.53 75.25 41.26 79.50 33.36 C 81.83 28.94 85.31 25.29 88.98 21.96 M 95.03 43.41 C 94.57 46.44 94.29 49.51 94.32 52.58 C 92.31 53.81 90.19 54.91 88.44 56.51 C 87.61 57.99 87.40 59.70 86.95 61.31 C 91.21 62.86 95.77 62.76 100.10 61.56 C 102.50 62.87 104.90 64.18 107.28 65.52 C 108.24 69.47 109.46 73.35 110.92 77.14 C 108.19 78.63 105.48 80.74 102.21 80.62 C 98.55 80.60 94.91 80.34 91.26 80.26 C 90.90 81.91 90.55 83.56 90.22 85.21 C 92.60 86.88 95.01 88.52 97.43 90.15 C 97.64 93.27 98.02 96.37 98.45 99.47 C 99.47 99.51 101.52 99.59 102.54 99.63 C 104.49 96.95 105.91 93.95 107.13 90.88 C 108.07 88.19 110.81 86.95 112.93 85.34 C 114.31 90.93 116.83 96.99 122.33 99.63 C 127.76 101.37 134.60 101.16 138.80 96.82 C 142.07 94.07 143.09 89.77 143.94 85.79 C 145.84 86.90 148.04 87.72 149.51 89.43 C 151.37 92.69 151.35 97.45 155.18 99.25 C 156.75 99.35 158.25 98.69 159.76 98.33 C 159.71 95.60 159.71 92.86 159.71 90.12 C 162.25 88.51 164.73 86.81 167.17 85.05 C 166.48 83.56 165.78 82.06 164.90 80.66 C 160.80 80.07 156.64 80.96 152.53 80.41 C 150.05 79.80 148.07 78.06 145.98 76.68 C 147.81 73.16 148.98 69.35 149.66 65.44 C 152.31 64.06 155.01 62.76 157.73 61.50 C 160.71 62.12 163.80 63.09 166.86 62.44 C 168.53 61.72 169.73 60.29 171.11 59.15 C 168.98 56.59 166.42 54.47 163.59 52.73 C 163.21 49.53 162.61 46.35 161.74 43.24 C 160.70 43.32 158.64 43.49 157.61 43.58 C 155.25 46.58 153.66 50.08 153.32 53.91 C 151.34 54.49 149.35 55.03 147.36 55.54 C 145.25 51.85 142.60 48.33 138.83 46.22 C 132.89 42.45 124.97 42.43 118.92 45.95 C 114.68 48.12 111.76 52.00 108.98 55.72 C 107.54 55.26 106.10 54.79 104.66 54.32 C 103.73 50.39 102.09 46.70 100.07 43.23 C 98.39 43.29 96.71 43.35 95.03 43.41 Z" />
</g>
<g id="#fafafaff">
<path fill="#fafafa" opacity="1.00" d=" M 95.03 43.41 C 96.71 43.35 98.39 43.29 100.07 43.23 C 102.09 46.70 103.73 50.39 104.66 54.32 C 106.10 54.79 107.54 55.26 108.98 55.72 C 111.76 52.00 114.68 48.12 118.92 45.95 C 124.97 42.43 132.89 42.45 138.83 46.22 C 142.60 48.33 145.25 51.85 147.36 55.54 C 149.35 55.03 151.34 54.49 153.32 53.91 C 153.66 50.08 155.25 46.58 157.61 43.58 C 158.64 43.49 160.70 43.32 161.74 43.24 C 162.61 46.35 163.21 49.53 163.59 52.73 C 166.42 54.47 168.98 56.59 171.11 59.15 C 169.73 60.29 168.53 61.72 166.86 62.44 C 163.80 63.09 160.71 62.12 157.73 61.50 C 155.01 62.76 152.31 64.06 149.66 65.44 C 148.98 69.35 147.81 73.16 145.98 76.68 C 148.07 78.06 150.05 79.80 152.53 80.41 C 156.64 80.96 160.80 80.07 164.90 80.66 C 165.78 82.06 166.48 83.56 167.17 85.05 C 164.73 86.81 162.25 88.51 159.71 90.12 C 159.71 92.86 159.71 95.60 159.76 98.33 C 158.25 98.69 156.75 99.35 155.18 99.25 C 151.35 97.45 151.37 92.69 149.51 89.43 C 148.04 87.72 145.84 86.90 143.94 85.79 C 143.09 89.77 142.07 94.07 138.80 96.82 C 134.60 101.16 127.76 101.37 122.33 99.63 C 116.83 96.99 114.31 90.93 112.93 85.34 C 110.81 86.95 108.07 88.19 107.13 90.88 C 105.91 93.95 104.49 96.95 102.54 99.63 C 101.52 99.59 99.47 99.51 98.45 99.47 C 98.02 96.37 97.64 93.27 97.43 90.15 C 95.01 88.52 92.60 86.88 90.22 85.21 C 90.55 83.56 90.90 81.91 91.26 80.26 C 94.91 80.34 98.55 80.60 102.21 80.62 C 105.48 80.74 108.19 78.63 110.92 77.14 C 109.46 73.35 108.24 69.47 107.28 65.52 C 104.90 64.18 102.50 62.87 100.10 61.56 C 95.77 62.76 91.21 62.86 86.95 61.31 C 87.40 59.70 87.61 57.99 88.44 56.51 C 90.19 54.91 92.31 53.81 94.32 52.58 C 94.29 49.51 94.57 46.44 95.03 43.41 M 131.26 59.17 C 130.95 61.44 130.51 63.70 130.57 65.99 C 130.79 68.58 132.36 71.56 135.27 71.71 C 137.93 71.99 141.16 72.30 143.20 70.18 C 145.60 68.09 145.33 64.62 145.81 61.76 C 143.50 59.84 141.20 57.18 137.92 57.32 C 135.61 57.57 133.45 58.49 131.26 59.17 M 114.61 58.59 C 111.45 60.34 111.78 64.67 112.35 67.71 C 113.83 72.30 120.19 73.40 123.87 70.81 C 127.64 68.26 127.48 62.41 124.90 59.09 C 121.93 57.01 117.79 56.96 114.61 58.59 M 122.87 79.50 C 126.64 79.46 130.41 79.46 134.19 79.47 C 132.33 76.66 130.56 73.80 128.84 70.92 C 126.86 73.78 124.91 76.67 122.87 79.50 Z" />
</g>
<g id="#040404ff">
<path fill="#040404" opacity="1.00" d=" M 131.26 59.17 C 133.45 58.49 135.61 57.57 137.92 57.32 C 141.20 57.18 143.50 59.84 145.81 61.76 C 145.33 64.62 145.60 68.09 143.20 70.18 C 141.16 72.30 137.93 71.99 135.27 71.71 C 132.36 71.56 130.79 68.58 130.57 65.99 C 130.51 63.70 130.95 61.44 131.26 59.17 Z" />
<path fill="#040404" opacity="1.00" d=" M 186.11 127.15 C 188.18 127.55 190.23 128.07 192.27 128.63 C 201.02 143.41 207.37 159.52 211.94 176.05 C 214.39 185.87 216.48 195.86 216.61 206.02 C 216.68 211.67 216.66 217.33 216.49 222.98 C 216.34 229.02 215.08 234.95 214.30 240.93 C 213.48 246.03 212.52 251.15 210.84 256.04 C 209.00 261.28 204.97 265.29 201.08 269.07 C 196.61 273.41 190.92 276.14 186.22 280.18 C 180.99 284.63 175.94 289.48 169.79 292.66 C 165.25 295.11 159.95 294.54 154.98 294.58 C 149.01 294.46 143.01 294.78 137.05 294.30 C 131.57 293.64 126.14 292.63 120.67 291.96 C 120.03 304.27 121.44 316.55 121.36 328.85 C 121.94 338.90 121.31 348.98 122.18 359.01 C 122.59 365.11 122.38 371.22 122.54 377.33 C 126.87 373.39 130.84 369.04 135.56 365.54 C 139.17 362.88 142.26 359.56 146.02 357.10 C 149.72 354.64 153.71 352.66 157.47 350.29 C 162.15 347.40 166.27 343.68 171.21 341.20 C 176.93 338.28 182.43 334.93 188.35 332.41 C 193.26 330.32 197.94 327.74 202.92 325.80 C 204.29 325.26 205.67 324.73 207.06 324.22 C 207.92 323.89 208.78 323.57 209.65 323.26 C 209.56 325.27 209.48 327.28 209.40 329.29 C 202.03 334.74 192.81 336.37 184.96 340.91 C 172.95 346.81 161.91 354.40 150.71 361.66 C 144.66 365.47 139.37 370.32 133.91 374.89 C 129.83 378.27 126.36 382.35 123.90 387.05 C 123.11 387.18 121.54 387.45 120.76 387.58 C 119.66 385.64 118.56 383.71 117.43 381.80 C 117.53 374.87 117.61 367.92 117.13 361.00 C 116.36 350.86 117.08 340.68 116.64 330.53 C 116.42 325.68 115.67 320.86 115.59 316.00 C 115.32 307.25 116.15 298.45 114.84 289.75 C 100.71 285.36 86.75 279.35 75.30 269.79 C 69.57 265.31 65.37 259.14 62.53 252.50 C 59.90 246.33 58.05 239.87 55.40 233.72 C 53.06 228.01 49.99 222.37 49.75 216.07 C 49.09 204.05 50.03 192.03 49.75 180.00 C 49.98 169.51 48.86 158.84 51.59 148.58 C 53.49 141.12 56.77 133.14 63.74 129.10 C 62.53 129.19 61.33 129.28 60.12 129.36 C 61.35 128.84 62.56 128.31 63.78 127.79 C 64.54 128.71 65.28 129.65 66.03 130.58 C 62.80 134.62 59.54 138.81 57.95 143.81 C 56.05 149.73 55.24 155.93 54.36 162.07 C 59.28 163.98 64.32 165.58 69.49 166.69 C 72.01 160.61 77.03 154.78 83.98 154.19 C 93.49 153.70 104.00 155.03 111.24 161.82 C 118.20 158.14 125.44 155.04 132.46 151.48 C 135.32 150.07 138.32 148.96 141.35 147.99 C 150.77 145.12 159.51 140.34 169.15 138.17 C 175.47 136.81 181.53 134.42 186.93 130.83 C 186.65 129.60 186.38 128.38 186.11 127.15 M 180.92 142.02 C 174.65 145.69 167.55 147.42 160.74 149.76 C 151.76 152.82 142.31 154.31 133.40 157.58 C 125.77 160.49 118.70 164.62 111.50 168.43 C 111.41 172.75 111.60 177.19 110.19 181.35 C 108.72 185.95 105.84 190.33 101.42 192.53 C 98.86 193.98 95.82 193.72 93.00 193.60 C 87.77 193.21 82.59 192.26 77.40 191.49 C 74.34 185.72 70.84 180.09 69.31 173.67 C 64.21 172.36 59.16 170.88 54.17 169.21 C 53.43 179.13 54.00 189.07 53.73 199.00 C 53.66 208.02 52.82 217.59 57.02 225.91 C 61.59 234.72 63.79 244.47 67.58 253.59 C 70.06 259.62 74.99 264.18 80.17 267.92 C 86.90 272.72 94.21 276.64 101.60 280.30 C 108.50 283.69 115.95 285.72 123.35 287.71 C 129.75 289.42 136.43 289.42 142.97 290.25 C 150.98 290.72 159.21 290.99 167.03 288.86 C 171.80 287.63 175.12 283.78 178.53 280.52 C 183.13 275.97 189.07 273.15 194.00 269.01 C 198.15 265.54 202.47 262.01 205.22 257.26 C 207.85 252.21 208.79 246.53 209.89 241.00 C 211.47 233.10 212.06 225.04 211.90 216.99 C 211.69 208.33 212.54 199.56 210.76 191.00 C 208.66 180.98 206.44 170.92 202.63 161.39 C 199.55 151.92 194.89 143.11 190.80 134.08 C 187.86 137.13 184.70 140.05 180.92 142.02 Z" />
<path fill="#040404" opacity="1.00" d=" M 182.56 191.59 C 190.45 190.05 198.59 188.82 206.63 189.91 C 205.78 191.43 205.41 193.85 203.28 194.03 C 199.52 194.69 195.68 194.59 191.91 195.13 C 186.75 195.56 182.11 198.01 177.11 199.11 C 172.11 200.22 167.08 201.32 161.96 201.69 C 156.25 202.14 150.68 203.47 145.00 204.14 C 138.41 204.85 132.02 206.68 125.45 207.56 C 112.72 210.13 99.82 211.65 87.11 214.31 C 82.99 215.27 78.86 216.19 74.69 216.89 C 74.68 215.78 74.66 213.56 74.65 212.45 C 83.65 208.85 93.32 207.65 102.87 206.51 C 115.56 203.93 128.34 201.81 141.05 199.32 C 146.03 198.39 151.14 198.81 156.15 198.06 C 165.11 196.58 173.83 194.04 182.56 191.59 Z" />
<path fill="#040404" opacity="1.00" d=" M 131.61 213.34 C 140.84 211.64 150.24 211.00 159.35 208.70 C 159.35 210.86 159.33 213.02 159.29 215.18 C 152.60 215.17 145.74 214.50 139.23 216.45 C 136.39 217.30 133.42 217.52 130.47 217.58 C 130.84 216.16 131.22 214.75 131.61 213.34 Z" />
</g>
<g id="#030303ff">
<path fill="#030303" opacity="1.00" d=" M 114.61 58.59 C 117.79 56.96 121.93 57.01 124.90 59.09 C 127.48 62.41 127.64 68.26 123.87 70.81 C 120.19 73.40 113.83 72.30 112.35 67.71 C 111.78 64.67 111.45 60.34 114.61 58.59 Z" />
<path fill="#030303" opacity="1.00" d=" M 122.87 79.50 C 124.91 76.67 126.86 73.78 128.84 70.92 C 130.56 73.80 132.33 76.66 134.19 79.47 C 130.41 79.46 126.64 79.46 122.87 79.50 Z" />
</g>
<g id="#fefefeff">
<path fill="#fefefe" opacity="1.00" d=" M 98.98 123.30 C 105.68 122.85 112.29 121.50 119.02 121.41 C 128.11 121.31 137.25 121.08 146.27 122.40 C 153.56 123.46 160.97 123.31 168.22 124.62 C 174.16 125.67 180.15 126.27 186.11 127.15 C 186.38 128.38 186.65 129.60 186.93 130.83 C 181.53 134.42 175.47 136.81 169.15 138.17 C 159.51 140.34 150.77 145.12 141.35 147.99 C 138.32 148.96 135.32 150.07 132.46 151.48 C 125.44 155.04 118.20 158.14 111.24 161.82 C 104.00 155.03 93.49 153.70 83.98 154.19 C 77.03 154.78 72.01 160.61 69.49 166.69 C 64.32 165.58 59.28 163.98 54.36 162.07 C 55.24 155.93 56.05 149.73 57.95 143.81 C 59.54 138.81 62.80 134.62 66.03 130.58 C 66.71 129.73 67.39 128.88 68.08 128.03 C 78.30 126.03 88.56 123.93 98.98 123.30 Z" />
</g>
<g id="#060606ff">
<path fill="#060606" opacity="1.00" d=" M 175.67 159.45 C 178.67 159.44 181.67 159.41 184.67 159.36 C 184.77 160.46 184.87 161.57 184.98 162.67 C 186.62 164.21 188.30 165.70 189.97 167.21 C 184.55 168.42 179.15 166.94 174.34 164.44 C 174.78 162.77 175.23 161.11 175.67 159.45 Z" />
</g>
<g id="#cececcff">
<path fill="#cececc" opacity="1.00" d=" M 296.41 226.56 C 301.43 225.46 306.60 225.69 311.70 225.95 C 313.17 226.89 314.53 228.00 315.77 229.24 C 314.46 229.13 313.15 229.05 311.84 228.99 C 305.63 228.56 299.27 229.70 293.85 232.84 C 294.62 231.97 295.36 231.08 296.10 230.19 C 293.97 230.26 291.83 230.33 289.71 230.56 C 291.76 228.97 293.79 227.11 296.41 226.56 Z" />
</g>
<g id="#6b6b64ff">
<path fill="#6b6b64" opacity="1.00" d=" M 293.85 232.84 C 299.27 229.70 305.63 228.56 311.84 228.99 C 315.81 230.12 319.70 231.62 323.29 233.69 C 328.82 236.87 332.70 242.39 334.80 248.33 C 337.40 256.00 336.94 264.35 335.00 272.12 C 333.71 264.88 333.85 257.19 330.44 250.49 C 328.39 245.80 324.55 242.22 320.07 239.87 C 316.48 237.68 312.35 236.06 308.09 236.29 C 303.93 236.50 300.11 238.47 296.68 240.69 C 293.51 242.74 290.57 245.37 288.99 248.86 C 285.56 256.31 284.32 264.50 282.31 272.40 C 281.63 274.84 280.92 277.39 279.32 279.42 C 277.55 281.61 275.22 283.24 273.30 285.28 C 271.68 286.89 271.23 289.21 270.54 291.29 C 270.32 291.64 269.88 292.33 269.65 292.68 C 268.58 290.60 267.50 288.54 266.58 286.40 C 267.14 286.52 268.27 286.76 268.83 286.88 C 269.04 286.12 269.47 284.58 269.68 283.81 C 268.91 283.52 267.37 282.92 266.60 282.63 C 267.59 281.59 268.62 280.59 269.59 279.54 C 270.08 280.41 271.07 282.14 271.57 283.01 C 274.91 279.34 278.30 275.43 279.59 270.52 C 280.93 266.51 279.84 262.31 278.95 258.34 C 278.34 258.41 277.11 258.55 276.49 258.62 C 276.58 258.20 276.75 257.37 276.84 256.95 C 277.26 255.20 277.64 253.44 278.02 251.68 C 281.44 244.03 287.47 238.07 293.85 232.84 Z" />
</g>
<g id="#bfbfb4ff">
<path fill="#bfbfb4" opacity="1.00" d=" M 311.84 228.99 C 313.15 229.05 314.46 229.13 315.77 229.24 C 317.70 229.42 319.68 229.76 321.38 230.74 C 329.14 235.13 335.70 242.36 337.55 251.27 C 338.99 258.91 339.17 267.13 335.79 274.32 C 334.13 273.64 332.45 273.02 330.89 272.14 C 329.97 269.54 330.20 266.71 330.00 264.00 C 329.94 260.05 329.06 256.18 328.09 252.38 C 328.87 251.75 329.65 251.12 330.44 250.49 C 333.85 257.19 333.71 264.88 335.00 272.12 C 336.94 264.35 337.40 256.00 334.80 248.33 C 332.70 242.39 328.82 236.87 323.29 233.69 C 319.70 231.62 315.81 230.12 311.84 228.99 Z" />
</g>
<g id="#f0f0e9ff">
<path fill="#f0f0e9" opacity="1.00" d=" M 278.81 241.46 C 281.84 237.34 284.89 232.73 289.71 230.56 C 291.83 230.33 293.97 230.26 296.10 230.19 C 295.36 231.08 294.62 231.97 293.85 232.84 C 287.47 238.07 281.44 244.03 278.02 251.68 C 278.42 248.65 278.55 245.60 278.74 242.56 C 278.76 242.28 278.79 241.74 278.81 241.46 Z" />
</g>
<g id="#b0b1abff">
<path fill="#b0b1ab" opacity="1.00" d=" M 296.68 240.69 C 300.11 238.47 303.93 236.50 308.09 236.29 C 312.35 236.06 316.48 237.68 320.07 239.87 L 320.56 240.43 C 315.45 239.22 310.13 237.27 304.85 238.71 C 299.40 240.13 294.02 243.30 291.40 248.47 C 288.46 254.20 286.86 260.49 285.58 266.77 C 284.71 271.13 283.57 275.51 281.23 279.33 C 278.79 283.49 275.10 286.67 271.61 289.91 C 273.99 296.70 274.89 304.19 272.94 311.21 C 271.57 316.06 268.27 320.07 264.48 323.27 C 266.79 320.22 268.99 317.05 270.61 313.57 C 272.82 308.77 272.86 303.30 272.31 298.14 C 271.79 295.83 271.12 293.57 270.54 291.29 C 271.23 289.21 271.68 286.89 273.30 285.28 C 275.22 283.24 277.55 281.61 279.32 279.42 C 280.92 277.39 281.63 274.84 282.31 272.40 C 284.32 264.50 285.56 256.31 288.99 248.86 C 290.57 245.37 293.51 242.74 296.68 240.69 Z" />
</g>
<g id="#999993ff">
<path fill="#999993" opacity="1.00" d=" M 320.07 239.87 C 324.55 242.22 328.39 245.80 330.44 250.49 C 329.65 251.12 328.87 251.75 328.09 252.38 L 327.55 252.81 C 325.63 248.48 323.56 244.14 320.56 240.43 L 320.07 239.87 Z" />
</g>
<g id="#c9cac5ff">
<path fill="#c9cac5" opacity="1.00" d=" M 278.74 242.56 C 278.55 245.60 278.42 248.65 278.02 251.68 C 277.64 253.44 277.26 255.20 276.84 256.95 C 275.27 260.99 273.50 264.96 272.20 269.11 C 271.55 269.19 270.23 269.35 269.58 269.43 C 268.06 270.98 266.64 272.61 265.34 274.33 C 266.63 271.35 268.15 268.49 269.57 265.58 C 272.03 260.56 272.41 254.84 274.82 249.81 C 275.99 247.32 277.39 244.95 278.74 242.56 Z" />
</g>
<g id="#81817eff">
<path fill="#81817e" opacity="1.00" d=" M 272.20 269.11 C 273.50 264.96 275.27 260.99 276.84 256.95 C 276.75 257.37 276.58 258.20 276.49 258.62 C 274.85 265.75 273.80 273.36 269.59 279.54 C 268.62 280.59 267.59 281.59 266.60 282.63 C 266.37 282.87 265.92 283.36 265.69 283.61 C 265.94 284.55 266.24 285.48 266.58 286.40 C 267.50 288.54 268.58 290.60 269.65 292.68 C 267.55 294.75 265.15 297.10 262.03 297.26 C 257.98 296.76 254.65 293.82 252.26 290.69 C 250.51 288.46 249.78 285.07 251.58 282.66 C 253.81 280.48 256.89 279.55 259.68 278.31 C 256.21 276.59 252.74 274.54 248.82 274.13 C 245.22 273.78 241.61 274.06 238.02 274.14 C 238.75 275.04 239.47 275.96 240.18 276.89 C 241.02 279.10 242.01 281.41 241.84 283.83 C 241.38 285.38 240.41 286.72 239.48 288.03 C 240.04 284.17 239.23 280.35 237.29 276.99 C 235.12 277.80 232.93 278.59 230.82 279.54 C 218.57 287.66 207.44 297.34 195.17 305.42 C 194.91 304.90 194.38 303.87 194.11 303.35 C 200.43 298.21 206.88 293.24 213.57 288.59 C 220.08 283.24 226.59 277.65 234.51 274.45 C 240.84 271.40 248.31 272.07 254.71 274.56 C 258.64 276.21 262.15 278.68 265.86 280.78 C 268.55 277.24 271.03 273.45 272.20 269.11 M 253.87 286.28 C 252.37 291.10 257.91 295.79 262.51 294.64 C 264.79 293.28 266.42 290.20 265.49 287.59 C 263.69 285.20 261.13 283.55 258.82 281.70 C 257.09 283.13 255.25 284.48 253.87 286.28 Z" />
</g>
<g id="#56574eff">
<path fill="#56574e" opacity="1.00" d=" M 276.49 258.62 C 277.11 258.55 278.34 258.41 278.95 258.34 C 279.84 262.31 280.93 266.51 279.59 270.52 C 278.30 275.43 274.91 279.34 271.57 283.01 C 271.07 282.14 270.08 280.41 269.59 279.54 C 273.80 273.36 274.85 265.75 276.49 258.62 Z" />
</g>
<g id="#535452ff">
<path fill="#535452" opacity="1.00" d=" M 238.02 274.14 C 241.61 274.06 245.22 273.78 248.82 274.13 C 252.74 274.54 256.21 276.59 259.68 278.31 C 256.89 279.55 253.81 280.48 251.58 282.66 C 249.78 285.07 250.51 288.46 252.26 290.69 C 254.65 293.82 257.98 296.76 262.03 297.26 C 265.15 297.10 267.55 294.75 269.65 292.68 C 269.88 292.33 270.32 291.64 270.54 291.29 C 271.12 293.57 271.79 295.83 272.31 298.14 C 270.29 300.53 268.26 302.92 266.22 305.30 C 260.02 299.40 253.29 294.09 246.07 289.51 C 240.40 293.33 234.45 296.78 229.23 301.22 C 221.53 307.77 213.54 314.00 206.19 320.95 C 205.81 320.05 205.42 319.17 205.02 318.29 C 211.31 313.16 217.75 308.22 223.81 302.82 C 228.13 298.99 233.21 296.19 237.77 292.67 C 240.74 290.31 243.47 286.98 243.61 283.03 C 243.27 280.64 241.50 278.80 240.18 276.89 C 239.47 275.96 238.75 275.04 238.02 274.14 Z" />
</g>
<g id="#6e706dff">
<path fill="#6e706d" opacity="1.00" d=" M 240.18 276.89 C 241.50 278.80 243.27 280.64 243.61 283.03 C 243.47 286.98 240.74 290.31 237.77 292.67 C 233.21 296.19 228.13 298.99 223.81 302.82 C 217.75 308.22 211.31 313.16 205.02 318.29 C 205.42 319.17 205.81 320.05 206.19 320.95 C 206.50 322.03 206.79 323.12 207.06 324.22 C 205.67 324.73 204.29 325.26 202.92 325.80 C 203.73 324.88 204.55 323.97 205.38 323.06 C 204.19 321.17 202.99 319.28 201.79 317.41 C 207.45 312.81 213.73 309.03 219.29 304.30 C 226.07 298.94 232.88 293.60 239.48 288.03 C 240.41 286.72 241.38 285.38 241.84 283.83 C 242.01 281.41 241.02 279.10 240.18 276.89 Z" />
</g>
<g id="#adaea9ff">
<path fill="#adaea9" opacity="1.00" d=" M 230.82 279.54 C 232.93 278.59 235.12 277.80 237.29 276.99 C 239.23 280.35 240.04 284.17 239.48 288.03 C 232.88 293.60 226.07 298.94 219.29 304.30 C 213.73 309.03 207.45 312.81 201.79 317.41 L 201.28 317.81 C 200.76 316.86 200.25 315.90 199.74 314.96 C 206.54 309.68 213.94 305.16 220.33 299.36 C 224.59 295.47 229.44 292.36 234.25 289.20 C 236.32 287.58 237.96 285.49 239.39 283.30 C 236.66 281.78 233.79 280.52 230.82 279.54 Z" />
</g>
<g id="#cdcec8ff">
<path fill="#cdcec8" opacity="1.00" d=" M 195.17 305.42 C 207.44 297.34 218.57 287.66 230.82 279.54 C 233.79 280.52 236.66 281.78 239.39 283.30 C 237.96 285.49 236.32 287.58 234.25 289.20 C 234.74 287.27 235.23 285.34 235.71 283.41 C 231.37 285.23 227.09 287.35 223.51 290.47 C 214.88 297.82 204.90 303.62 197.56 312.43 C 195.06 310.28 193.31 307.49 191.75 304.63 C 192.34 304.31 193.52 303.67 194.11 303.35 C 194.38 303.87 194.91 304.90 195.17 305.42 Z" />
</g>
<g id="#b5b5beff">
<path fill="#b5b5be" opacity="1.00" d=" M 253.87 286.28 C 255.25 284.48 257.09 283.13 258.82 281.70 C 261.13 283.55 263.69 285.20 265.49 287.59 C 266.42 290.20 264.79 293.28 262.51 294.64 C 257.91 295.79 252.37 291.10 253.87 286.28 M 255.31 289.72 C 256.61 291.64 259.36 291.51 261.36 292.26 C 261.09 290.73 260.80 289.21 260.40 287.72 C 258.90 286.63 257.21 285.85 255.58 284.99 C 255.45 286.56 255.32 288.14 255.31 289.72 Z" />
</g>
<g id="#535451ff">
<path fill="#535451" opacity="1.00" d=" M 265.69 283.61 C 265.92 283.36 266.37 282.87 266.60 282.63 C 267.37 282.92 268.91 283.52 269.68 283.81 C 269.47 284.58 269.04 286.12 268.83 286.88 C 268.27 286.76 267.14 286.52 266.58 286.40 C 266.24 285.48 265.94 284.55 265.69 283.61 Z" />
</g>
<g id="#f4f5f0ff">
<path fill="#f4f5f0" opacity="1.00" d=" M 223.51 290.47 C 227.09 287.35 231.37 285.23 235.71 283.41 C 235.23 285.34 234.74 287.27 234.25 289.20 C 229.44 292.36 224.59 295.47 220.33 299.36 C 213.94 305.16 206.54 309.68 199.74 314.96 C 198.86 314.27 197.99 313.58 197.12 312.90 L 197.56 312.43 C 204.90 303.62 214.88 297.82 223.51 290.47 Z" />
</g>
<g id="#f1f1f9ff">
<path fill="#f1f1f9" opacity="1.00" d=" M 255.31 289.72 C 255.32 288.14 255.45 286.56 255.58 284.99 C 257.21 285.85 258.90 286.63 260.40 287.72 C 260.80 289.21 261.09 290.73 261.36 292.26 C 259.36 291.51 256.61 291.64 255.31 289.72 Z" />
</g>
<g id="#40423dff">
<path fill="#40423d" opacity="1.00" d=" M 229.23 301.22 C 234.45 296.78 240.40 293.33 246.07 289.51 C 253.29 294.09 260.02 299.40 266.22 305.30 C 268.26 302.92 270.29 300.53 272.31 298.14 C 272.86 303.30 272.82 308.77 270.61 313.57 C 268.99 317.05 266.79 320.22 264.48 323.27 C 261.41 326.92 257.88 330.15 254.64 333.64 C 248.55 340.06 241.39 345.46 236.06 352.58 C 234.27 351.50 232.47 350.46 230.75 349.29 C 235.69 346.58 239.12 342.02 243.37 338.45 C 249.44 333.21 255.98 328.25 260.51 321.52 C 262.78 318.15 265.19 314.87 267.88 311.82 C 267.48 309.94 267.07 308.06 266.66 306.18 C 265.86 306.48 265.06 306.77 264.27 307.07 C 263.64 309.15 263.30 311.39 262.08 313.22 C 260.31 315.20 257.87 316.40 255.70 317.87 C 249.87 321.48 245.31 326.70 239.94 330.92 C 234.83 334.99 230.50 339.92 226.74 345.24 C 225.63 344.04 224.51 342.85 223.35 341.70 C 228.11 338.43 232.34 334.48 236.26 330.25 C 241.28 324.92 247.15 320.49 252.46 315.46 C 255.70 312.48 257.48 308.37 259.09 304.35 C 255.76 302.11 252.56 299.49 248.69 298.25 C 245.39 297.15 241.98 298.60 239.07 300.10 C 231.95 304.02 226.26 309.93 220.03 315.04 C 217.76 317.02 215.27 318.88 213.66 321.47 C 212.29 323.89 212.83 326.79 213.03 329.42 C 211.82 329.38 210.61 329.33 209.40 329.29 C 209.48 327.28 209.56 325.27 209.65 323.26 C 208.78 323.57 207.92 323.89 207.06 324.22 C 206.79 323.12 206.50 322.03 206.19 320.95 C 213.54 314.00 221.53 307.77 229.23 301.22 Z" />
</g>
<g id="#2d322bff">
<path fill="#2d322b" opacity="1.00" d=" M 239.07 300.10 C 241.98 298.60 245.39 297.15 248.69 298.25 C 252.56 299.49 255.76 302.11 259.09 304.35 C 257.48 308.37 255.70 312.48 252.46 315.46 C 247.15 320.49 241.28 324.92 236.26 330.25 C 232.34 334.48 228.11 338.43 223.35 341.70 C 222.30 340.68 221.23 339.70 220.17 338.72 C 217.92 336.61 215.73 334.44 213.43 332.38 C 213.28 331.40 213.15 330.41 213.03 329.42 C 212.83 326.79 212.29 323.89 213.66 321.47 C 215.27 318.88 217.76 317.02 220.03 315.04 C 226.26 309.93 231.95 304.02 239.07 300.10 Z" />
</g>
<g id="#51524dff">
<path fill="#51524d" opacity="1.00" d=" M 264.27 307.07 C 265.06 306.77 265.86 306.48 266.66 306.18 C 267.07 308.06 267.48 309.94 267.88 311.82 C 265.19 314.87 262.78 318.15 260.51 321.52 C 255.98 328.25 249.44 333.21 243.37 338.45 C 239.12 342.02 235.69 346.58 230.75 349.29 C 229.34 348.01 228.04 346.63 226.74 345.24 C 230.50 339.92 234.83 334.99 239.94 330.92 C 245.31 326.70 249.87 321.48 255.70 317.87 C 257.87 316.40 260.31 315.20 262.08 313.22 C 263.30 311.39 263.64 309.15 264.27 307.07 Z" />
</g>
<g id="#a3a4a1ff">
<path fill="#a3a4a1" opacity="1.00" d=" M 220.17 338.72 C 221.23 339.70 222.30 340.68 223.35 341.70 C 224.51 342.85 225.63 344.04 226.74 345.24 C 228.04 346.63 229.34 348.01 230.75 349.29 C 232.47 350.46 234.27 351.50 236.06 352.58 C 234.06 352.22 231.76 352.31 230.22 350.79 C 226.32 347.27 222.89 343.21 220.17 338.72 Z" />
</g>
</svg>
