<?xml version="1.0" encoding="UTF-8" ?>
<!DOCTYPE svg PUBLIC "-//W3C//DTD SVG 1.1//EN" "http://www.w3.org/Graphics/SVG/1.1/DTD/svg11.dtd">
<svg width="257pt" height="244pt" viewBox="0 0 257 244" version="1.1" xmlns="http://www.w3.org/2000/svg">
<path fill="#ffffff" opacity="1.00" d=" M 0.00 0.00 L 257.00 0.00 L 257.00 244.00 L 0.00 244.00 L 0.00 0.00 M 135.91 8.90 C 129.60 9.55 123.21 8.48 116.94 9.63 C 113.66 10.10 110.36 10.42 107.09 10.94 C 103.71 12.02 100.46 13.58 96.97 14.34 C 94.28 14.66 91.41 14.55 89.00 15.99 C 84.19 18.59 79.21 21.52 76.13 26.17 C 71.93 31.21 68.38 36.91 66.20 43.12 C 65.80 46.56 63.19 49.41 63.58 52.97 C 63.62 67.32 63.60 81.67 63.59 96.02 C 63.51 99.17 65.01 102.02 65.96 104.93 C 66.83 108.00 69.37 110.39 69.25 113.74 C 69.85 114.48 70.44 115.22 71.04 115.96 C 71.40 118.06 72.30 119.99 73.59 121.68 C 73.67 122.62 73.76 123.56 73.85 124.51 C 75.86 126.73 77.36 129.42 79.73 131.30 C 81.39 132.51 83.32 133.26 85.16 134.15 C 85.25 134.77 85.45 136.00 85.55 136.61 C 87.27 137.37 89.05 138.13 90.42 139.47 C 93.50 142.50 97.20 144.94 101.24 146.50 C 104.95 147.38 108.60 148.51 112.30 149.46 C 113.86 153.29 113.30 157.48 113.33 161.50 C 111.27 161.50 109.21 161.49 107.15 161.48 C 107.17 171.34 107.18 181.19 107.18 191.05 C 109.77 191.12 112.37 191.19 114.97 191.17 C 114.84 199.78 114.97 208.39 114.89 217.01 C 114.79 220.06 115.32 223.07 115.88 226.06 C 117.18 225.99 118.48 225.93 119.79 225.86 C 119.33 223.26 118.80 220.66 118.82 218.01 C 118.83 209.04 118.84 200.08 118.83 191.11 C 119.22 191.10 120.00 191.08 120.40 191.07 C 120.41 189.06 120.43 187.07 120.45 185.07 C 120.02 185.01 119.14 184.90 118.70 184.85 C 117.83 182.95 117.23 180.94 116.93 178.88 C 117.58 178.73 118.89 178.43 119.55 178.28 C 119.54 176.65 119.54 175.02 119.55 173.39 C 118.97 173.28 117.81 173.05 117.23 172.94 C 117.23 171.29 117.23 169.64 117.24 168.00 C 117.88 167.88 119.15 167.64 119.78 167.52 C 119.77 165.51 119.76 163.50 119.76 161.49 C 119.12 161.49 117.86 161.50 117.22 161.50 C 117.24 158.03 117.21 154.56 117.30 151.09 C 122.01 151.35 126.20 154.20 130.98 153.76 C 137.21 153.60 143.46 153.96 149.68 153.59 C 154.89 152.01 159.86 149.47 164.07 145.98 C 165.93 144.27 168.56 143.96 170.61 142.60 C 172.66 140.31 174.44 137.76 176.92 135.88 C 179.19 133.47 182.38 132.08 184.18 129.22 C 186.54 126.43 186.40 122.48 188.63 119.61 C 189.06 116.56 189.51 113.49 190.42 110.54 C 191.73 106.53 190.74 102.26 191.35 98.16 C 192.75 91.13 191.30 83.97 189.94 77.06 C 188.84 73.94 188.90 70.62 188.59 67.37 C 187.17 61.45 184.23 55.97 183.18 49.95 C 182.29 45.50 180.23 41.31 176.58 38.49 C 176.15 32.49 172.79 26.40 167.32 23.64 C 163.49 21.60 161.23 17.61 157.46 15.49 C 153.41 13.21 149.64 10.45 146.13 7.41 C 142.72 7.92 139.33 8.49 135.91 8.90 M 72.65 160.83 C 69.67 161.56 66.84 163.92 66.56 167.13 C 66.20 171.76 66.47 176.40 66.40 181.04 C 66.42 183.92 66.31 187.23 68.52 189.44 C 72.69 193.35 80.99 192.69 83.32 187.05 C 84.51 181.45 84.15 175.65 83.88 169.98 C 83.69 167.81 83.81 165.35 82.26 163.62 C 79.96 160.89 76.03 160.08 72.65 160.83 M 182.86 165.58 C 181.95 170.32 182.58 175.22 182.38 180.03 C 182.51 183.20 182.00 187.01 184.52 189.44 C 188.58 193.05 195.93 192.80 199.20 188.24 C 200.98 185.34 200.39 181.76 200.63 178.52 C 198.04 178.55 195.45 178.57 192.86 178.62 C 192.81 181.67 192.71 184.72 192.37 187.75 C 191.48 186.83 189.70 186.33 189.89 184.76 C 189.75 178.35 189.57 171.90 190.29 165.51 C 190.88 165.48 192.06 165.40 192.65 165.37 C 192.74 168.17 192.80 170.98 192.86 173.79 C 195.45 173.83 198.04 173.85 200.63 173.84 C 200.40 170.51 201.09 166.78 199.19 163.82 C 195.04 158.96 185.61 159.46 182.86 165.58 M 48.09 161.48 C 48.31 171.38 47.53 181.28 48.18 191.18 C 50.66 191.11 53.14 191.01 55.62 190.90 C 55.61 186.86 55.62 182.82 55.62 178.79 C 57.93 178.49 60.50 178.79 62.55 177.47 C 64.06 176.46 64.33 174.49 64.43 172.83 C 64.53 170.39 64.59 167.92 64.18 165.51 C 63.65 163.12 61.11 161.73 58.82 161.57 C 55.25 161.32 51.67 161.51 48.09 161.48 M 86.86 161.46 C 86.82 171.36 86.46 181.28 87.06 191.17 C 89.55 191.13 92.05 191.10 94.54 191.07 C 94.60 187.00 94.58 182.93 94.80 178.87 C 95.96 182.92 97.14 186.95 98.37 190.97 C 100.89 191.06 103.42 191.06 105.95 191.00 C 104.74 186.48 103.23 182.06 101.94 177.57 C 101.61 176.11 101.06 174.57 101.56 173.09 C 102.61 169.11 104.24 165.31 105.74 161.48 C 103.41 161.48 101.09 161.48 98.76 161.47 C 97.40 165.08 96.12 168.71 94.82 172.34 C 94.61 168.73 94.59 165.11 94.60 161.50 C 92.02 161.48 89.44 161.47 86.86 161.46 M 122.57 161.57 C 122.66 171.43 122.55 181.29 122.64 191.16 C 125.20 191.10 127.76 191.03 130.32 190.92 C 130.33 186.40 130.23 181.89 130.45 177.38 C 130.86 177.69 131.69 178.33 132.11 178.65 C 133.22 182.57 132.50 186.80 132.66 190.85 C 135.02 190.90 137.38 190.98 139.74 191.09 C 139.72 187.10 140.02 183.10 139.56 179.14 C 139.36 177.59 137.73 176.86 136.73 175.86 C 138.03 174.82 139.80 173.84 139.71 171.92 C 140.19 168.23 139.77 162.84 135.37 161.80 C 131.15 161.09 126.83 161.57 122.57 161.57 M 149.15 161.47 C 149.20 171.36 149.12 181.25 149.20 191.14 C 151.68 191.12 154.16 191.09 156.64 191.04 C 156.64 186.92 156.64 182.81 156.64 178.70 C 158.27 178.60 159.89 178.51 161.52 178.41 C 161.47 176.67 161.43 174.94 161.40 173.20 C 159.81 173.19 158.22 173.18 156.64 173.17 C 156.65 171.35 156.66 169.54 156.68 167.73 C 158.37 167.71 160.06 167.70 161.76 167.69 C 161.75 165.62 161.74 163.56 161.73 161.49 C 157.54 161.49 153.35 161.49 149.15 161.47 M 165.25 161.48 C 163.99 171.36 162.24 181.19 161.30 191.11 C 163.73 191.11 166.16 191.10 168.59 191.07 C 168.81 189.24 169.04 187.40 169.28 185.57 C 170.39 185.59 171.51 185.60 172.63 185.61 C 172.69 187.35 172.76 189.09 172.84 190.83 C 175.38 190.94 177.92 191.06 180.47 191.16 C 179.24 181.25 177.24 171.45 176.08 161.54 C 172.47 161.48 168.86 161.48 165.25 161.48 M 203.53 161.49 C 203.52 171.33 203.54 181.16 203.51 191.00 C 207.91 191.18 212.32 191.18 216.73 191.06 C 216.73 188.97 216.73 186.89 216.74 184.81 C 214.91 184.76 213.08 184.72 211.25 184.68 C 211.24 182.65 211.23 180.63 211.21 178.61 C 212.76 178.59 214.32 178.56 215.88 178.54 C 215.87 176.76 215.86 174.99 215.87 173.21 C 214.34 173.20 212.83 173.18 211.31 173.17 C 211.28 171.35 211.27 169.55 211.25 167.74 C 212.94 167.71 214.64 167.68 216.34 167.66 C 216.33 165.60 216.34 163.56 216.35 161.51 C 212.07 161.49 207.80 161.48 203.53 161.49 Z" />
<path fill="#030303" opacity="1.00" d=" M 135.91 8.90 C 139.33 8.49 142.72 7.92 146.13 7.41 C 149.64 10.45 153.41 13.21 157.46 15.49 C 161.23 17.61 163.49 21.60 167.32 23.64 C 172.79 26.40 176.15 32.49 176.58 38.49 C 180.23 41.31 182.29 45.50 183.18 49.95 C 184.23 55.97 187.17 61.45 188.59 67.37 C 188.90 70.62 188.84 73.94 189.94 77.06 C 191.30 83.97 192.75 91.13 191.35 98.16 C 190.74 102.26 191.73 106.53 190.42 110.54 C 189.51 113.49 189.06 116.56 188.63 119.61 C 186.40 122.48 186.54 126.43 184.18 129.22 C 182.38 132.08 179.19 133.47 176.92 135.88 C 174.44 137.76 172.66 140.31 170.61 142.60 C 168.56 143.96 165.93 144.27 164.07 145.98 C 159.86 149.47 154.89 152.01 149.68 153.59 C 143.46 153.96 137.21 153.60 130.98 153.76 C 126.20 154.20 122.01 151.35 117.30 151.09 C 117.21 154.56 117.24 158.03 117.22 161.50 C 115.92 161.50 114.63 161.50 113.33 161.50 C 113.30 157.48 113.86 153.29 112.30 149.46 C 108.60 148.51 104.95 147.38 101.24 146.50 C 97.20 144.94 93.50 142.50 90.42 139.47 C 89.05 138.13 87.27 137.37 85.55 136.61 C 85.45 136.00 85.25 134.77 85.16 134.15 C 83.32 133.26 81.39 132.51 79.73 131.30 C 77.36 129.42 75.86 126.73 73.85 124.51 C 73.76 123.56 73.67 122.62 73.59 121.68 C 72.30 119.99 71.40 118.06 71.04 115.96 C 70.44 115.22 69.85 114.48 69.25 113.74 C 69.37 110.39 66.83 108.00 65.96 104.93 C 65.01 102.02 63.51 99.17 63.59 96.02 C 63.60 81.67 63.62 67.32 63.58 52.97 C 63.19 49.41 65.80 46.56 66.20 43.12 C 68.38 36.91 71.93 31.21 76.13 26.17 C 79.21 21.52 84.19 18.59 89.00 15.99 C 91.41 14.55 94.28 14.66 96.97 14.34 C 100.46 13.58 103.71 12.02 107.09 10.94 C 110.36 10.42 113.66 10.10 116.94 9.63 C 123.21 8.48 129.60 9.55 135.91 8.90 M 108.91 14.64 C 105.05 15.19 101.98 18.33 98.02 18.39 C 93.78 18.34 89.65 19.87 86.10 22.09 C 81.33 26.36 76.70 31.08 73.99 36.96 C 71.80 41.09 69.28 45.24 68.77 49.99 C 68.45 50.39 67.79 51.18 67.46 51.58 C 67.53 65.73 67.50 79.88 67.46 94.02 C 67.20 98.08 69.80 101.52 70.26 105.46 C 72.79 108.51 73.27 112.59 75.09 116.02 C 76.91 119.53 78.28 123.29 80.53 126.56 C 83.07 129.24 87.08 130.30 89.01 133.61 C 92.64 135.38 95.29 138.48 98.51 140.83 C 104.87 143.46 111.58 145.03 118.10 147.22 C 123.28 147.10 127.79 150.46 133.00 149.86 C 137.95 149.71 142.91 150.03 147.85 149.72 C 150.17 148.99 152.30 147.71 154.69 147.15 C 155.23 146.60 155.78 146.05 156.32 145.49 C 159.24 144.71 161.70 142.90 163.51 140.51 C 164.19 140.51 165.54 140.50 166.22 140.50 C 168.14 138.33 170.26 136.35 172.30 134.29 C 174.57 132.03 176.60 129.35 179.69 128.16 C 181.28 124.68 183.21 121.37 184.73 117.86 C 186.22 114.33 185.00 110.21 187.11 106.88 C 187.23 103.21 187.07 99.50 187.78 95.88 C 188.70 90.50 187.05 85.20 186.22 79.93 C 184.37 76.89 185.15 73.28 184.71 69.92 C 184.11 66.00 182.40 62.39 181.29 58.61 C 179.74 54.98 178.94 51.09 177.49 47.43 C 176.26 44.64 174.52 42.11 172.72 39.67 C 172.20 37.37 171.37 35.16 170.61 32.94 C 169.70 31.91 168.84 30.85 168.02 29.76 C 166.20 28.64 164.35 27.56 162.56 26.39 C 160.28 24.70 158.60 22.37 156.44 20.55 C 152.69 18.13 148.83 15.76 144.52 14.49 C 139.40 11.84 133.50 13.41 128.00 13.00 C 121.58 12.61 115.24 13.78 108.91 14.64 Z" />
<path fill="#ffffff" opacity="1.00" d=" M 108.91 14.64 C 115.24 13.78 121.58 12.61 128.00 13.00 C 133.50 13.41 139.40 11.84 144.52 14.49 C 148.83 15.76 152.69 18.13 156.44 20.55 C 158.60 22.37 160.28 24.70 162.56 26.39 C 164.35 27.56 166.20 28.64 168.02 29.76 C 168.84 30.85 169.70 31.91 170.61 32.94 C 171.37 35.16 172.20 37.37 172.72 39.67 C 174.52 42.11 176.26 44.64 177.49 47.43 C 178.94 51.09 179.74 54.98 181.29 58.61 C 182.40 62.39 184.11 66.00 184.71 69.92 C 185.15 73.28 184.37 76.89 186.22 79.93 C 187.05 85.20 188.70 90.50 187.78 95.88 C 187.07 99.50 187.23 103.21 187.11 106.88 C 185.00 110.21 186.22 114.33 184.73 117.86 C 183.21 121.37 181.28 124.68 179.69 128.16 C 176.60 129.35 174.57 132.03 172.30 134.29 C 170.26 136.35 168.14 138.33 166.22 140.50 C 165.54 140.50 164.19 140.51 163.51 140.51 C 161.70 142.90 159.24 144.71 156.32 145.49 C 155.78 146.05 155.23 146.60 154.69 147.15 C 152.30 147.71 150.17 148.99 147.85 149.72 C 142.91 150.03 137.95 149.71 133.00 149.86 C 127.79 150.46 123.28 147.10 118.10 147.22 C 111.58 145.03 104.87 143.46 98.51 140.83 C 95.29 138.48 92.64 135.38 89.01 133.61 C 87.08 130.30 83.07 129.24 80.53 126.56 C 78.28 123.29 76.91 119.53 75.09 116.02 C 73.27 112.59 72.79 108.51 70.26 105.46 C 69.80 101.52 67.20 98.08 67.46 94.02 C 67.50 79.88 67.53 65.73 67.46 51.58 C 67.79 51.18 68.45 50.39 68.77 49.99 C 69.28 45.24 71.80 41.09 73.99 36.96 C 76.70 31.08 81.33 26.36 86.10 22.09 C 89.65 19.87 93.78 18.34 98.02 18.39 C 101.98 18.33 105.05 15.19 108.91 14.64 M 159.66 51.74 C 159.35 53.85 159.18 55.98 159.02 58.11 C 162.56 59.54 166.36 59.88 170.15 59.69 C 170.15 59.10 170.16 57.93 170.16 57.35 C 169.04 57.33 167.93 57.31 166.82 57.30 C 166.43 55.61 166.14 53.90 165.64 52.24 C 163.68 51.79 161.65 51.84 159.66 51.74 M 85.98 64.34 C 86.35 66.11 85.51 68.54 87.30 69.67 C 89.47 69.88 91.64 69.78 93.81 69.78 C 94.34 68.82 94.87 67.86 95.39 66.90 C 95.49 68.52 95.58 70.13 95.70 71.74 L 97.61 70.96 C 98.02 68.04 97.81 65.07 97.84 62.12 C 94.87 61.45 91.87 60.91 88.89 60.30 C 87.94 61.66 86.98 63.01 85.98 64.34 M 168.40 74.51 C 167.65 75.19 166.94 75.92 166.28 76.69 C 163.68 76.72 160.99 76.60 158.58 77.75 C 155.10 79.30 151.26 79.66 147.64 80.74 C 144.29 81.85 140.70 81.12 137.26 81.61 C 133.18 82.05 129.36 83.67 125.29 84.14 C 119.80 84.66 114.56 86.45 109.08 87.05 C 103.49 88.59 97.69 89.01 91.92 89.24 C 90.62 89.19 89.58 90.09 88.49 90.64 C 87.03 90.71 85.58 90.76 84.12 90.81 C 83.27 91.69 82.42 92.57 81.56 93.46 C 82.29 94.21 83.07 94.88 83.92 95.48 C 87.00 95.20 89.89 94.07 92.85 93.26 C 95.92 92.91 99.04 93.17 102.10 92.63 C 106.48 92.18 110.63 90.52 115.01 90.06 C 118.39 89.80 121.55 88.37 124.95 88.15 C 128.63 87.77 132.15 86.68 135.73 85.83 C 140.54 84.60 145.68 86.14 150.39 84.31 C 156.24 82.93 161.93 80.71 168.01 80.49 C 169.43 80.62 169.95 79.11 170.80 78.29 C 174.21 78.28 177.63 78.28 181.04 78.29 C 181.33 77.73 181.89 76.62 182.18 76.06 C 181.80 75.64 181.06 74.80 180.69 74.38 C 176.59 74.48 172.49 74.18 168.40 74.51 M 142.81 91.36 C 137.03 90.90 131.65 93.50 125.89 93.18 C 125.83 93.91 125.78 94.65 125.72 95.38 C 129.15 95.36 132.66 95.75 135.99 94.72 C 139.19 93.70 142.57 93.77 145.89 93.84 C 146.34 92.46 146.78 91.08 147.21 89.69 C 145.65 90.00 144.10 90.40 142.81 91.36 Z" />
<path fill="#030303" opacity="1.00" d=" M 159.66 51.74 C 161.65 51.84 163.68 51.79 165.64 52.24 C 166.14 53.90 166.43 55.61 166.82 57.30 C 167.93 57.31 169.04 57.33 170.16 57.35 C 170.16 57.93 170.15 59.10 170.15 59.69 C 166.36 59.88 162.56 59.54 159.02 58.11 C 159.18 55.98 159.35 53.85 159.66 51.74 Z" />
<path fill="#030303" opacity="1.00" d=" M 85.98 64.34 C 86.98 63.01 87.94 61.66 88.89 60.30 C 91.87 60.91 94.87 61.45 97.84 62.12 C 97.81 65.07 98.02 68.04 97.61 70.96 L 95.70 71.74 C 95.58 70.13 95.49 68.52 95.39 66.90 C 94.87 67.86 94.34 68.82 93.81 69.78 C 91.64 69.78 89.47 69.88 87.30 69.67 C 85.51 68.54 86.35 66.11 85.98 64.34 Z" />
<path fill="#030303" opacity="1.00" d=" M 168.40 74.51 C 172.49 74.18 176.59 74.48 180.69 74.38 C 181.06 74.80 181.80 75.64 182.18 76.06 C 181.89 76.62 181.33 77.73 181.04 78.29 C 177.63 78.28 174.21 78.28 170.80 78.29 C 169.95 79.11 169.43 80.62 168.01 80.49 C 161.93 80.71 156.24 82.93 150.39 84.31 C 145.68 86.14 140.54 84.60 135.73 85.83 C 132.15 86.68 128.63 87.77 124.95 88.15 C 121.55 88.37 118.39 89.80 115.01 90.06 C 110.63 90.52 106.48 92.18 102.10 92.63 C 99.04 93.17 95.92 92.91 92.85 93.26 C 89.89 94.07 87.00 95.20 83.92 95.48 C 83.07 94.88 82.29 94.21 81.56 93.46 C 82.42 92.57 83.27 91.69 84.12 90.81 C 85.58 90.76 87.03 90.71 88.49 90.64 C 89.58 90.09 90.62 89.19 91.92 89.24 C 97.69 89.01 103.49 88.59 109.08 87.05 C 114.56 86.45 119.80 84.66 125.29 84.14 C 129.36 83.67 133.18 82.05 137.26 81.61 C 140.70 81.12 144.29 81.85 147.64 80.74 C 151.26 79.66 155.10 79.30 158.58 77.75 C 160.99 76.60 163.68 76.72 166.28 76.69 C 166.94 75.92 167.65 75.19 168.40 74.51 Z" />
<path fill="#030303" opacity="1.00" d=" M 142.81 91.36 C 144.10 90.40 145.65 90.00 147.21 89.69 C 146.78 91.08 146.34 92.46 145.89 93.84 C 142.57 93.77 139.19 93.70 135.99 94.72 C 132.66 95.75 129.15 95.36 125.72 95.38 C 125.78 94.65 125.83 93.91 125.89 93.18 C 131.65 93.50 137.03 90.90 142.81 91.36 Z" />
<path fill="#ec1d25" opacity="1.00" d=" M 72.65 160.83 C 76.03 160.08 79.96 160.89 82.26 163.62 C 83.81 165.35 83.69 167.81 83.88 169.98 C 84.15 175.65 84.51 181.45 83.32 187.05 C 80.99 192.69 72.69 193.35 68.52 189.44 C 66.31 187.23 66.42 183.92 66.40 181.04 C 66.47 176.40 66.20 171.76 66.56 167.13 C 66.84 163.92 69.67 161.56 72.65 160.83 M 74.01 167.90 C 73.61 172.25 73.86 176.64 73.80 181.01 C 73.90 183.37 73.55 186.35 76.04 187.67 C 76.50 179.99 76.89 172.19 75.74 164.56 C 75.07 165.60 74.03 166.56 74.01 167.90 Z" />
<path fill="#ec1d25" opacity="1.00" d=" M 182.86 165.58 C 185.61 159.46 195.04 158.96 199.19 163.82 C 201.09 166.78 200.40 170.51 200.63 173.84 C 198.04 173.85 195.45 173.83 192.86 173.79 C 192.80 170.98 192.74 168.17 192.65 165.37 C 192.06 165.40 190.88 165.48 190.29 165.51 C 189.57 171.90 189.75 178.35 189.89 184.76 C 189.70 186.33 191.48 186.83 192.37 187.75 C 192.71 184.72 192.81 181.67 192.86 178.62 C 195.45 178.57 198.04 178.55 200.63 178.52 C 200.39 181.76 200.98 185.34 199.20 188.24 C 195.93 192.80 188.58 193.05 184.52 189.44 C 182.00 187.01 182.51 183.20 182.38 180.03 C 182.58 175.22 181.95 170.32 182.86 165.58 Z" />
<path fill="#ec1d25" opacity="1.00" d=" M 48.09 161.48 C 51.67 161.51 55.25 161.32 58.82 161.57 C 61.11 161.73 63.65 163.12 64.18 165.51 C 64.59 167.92 64.53 170.39 64.43 172.83 C 64.33 174.49 64.06 176.46 62.55 177.47 C 60.50 178.79 57.93 178.49 55.62 178.79 C 55.62 182.82 55.61 186.86 55.62 190.90 C 53.14 191.01 50.66 191.11 48.18 191.18 C 47.53 181.28 48.31 171.38 48.09 161.48 M 55.62 166.21 C 55.63 168.74 55.63 171.26 55.62 173.78 C 56.17 173.76 57.26 173.71 57.81 173.68 C 57.88 171.24 57.90 168.80 57.87 166.36 C 57.31 166.33 56.18 166.25 55.62 166.21 Z" />
<path fill="#ec1d25" opacity="1.00" d=" M 86.86 161.46 C 89.44 161.47 92.02 161.48 94.60 161.50 C 94.59 165.11 94.61 168.73 94.82 172.34 C 96.12 168.71 97.40 165.08 98.76 161.47 C 101.09 161.48 103.41 161.48 105.74 161.48 C 104.24 165.31 102.61 169.11 101.56 173.09 C 101.06 174.57 101.61 176.11 101.94 177.57 C 103.23 182.06 104.74 186.48 105.95 191.00 C 103.42 191.06 100.89 191.06 98.37 190.97 C 97.14 186.95 95.96 182.92 94.80 178.87 C 94.58 182.93 94.60 187.00 94.54 191.07 C 92.05 191.10 89.55 191.13 87.06 191.17 C 86.46 181.28 86.82 171.36 86.86 161.46 Z" />
<path fill="#ec1d25" opacity="1.00" d=" M 107.15 161.48 C 109.21 161.49 111.27 161.50 113.33 161.50 C 114.63 161.50 115.92 161.50 117.22 161.50 C 117.86 161.50 119.12 161.49 119.76 161.49 C 119.76 163.50 119.77 165.51 119.78 167.52 C 119.15 167.64 117.88 167.88 117.24 168.00 C 116.41 168.16 115.58 168.32 114.75 168.48 C 114.74 169.80 114.74 171.12 114.73 172.45 C 115.56 172.61 116.39 172.77 117.23 172.94 C 117.81 173.05 118.97 173.28 119.55 173.39 C 119.54 175.02 119.54 176.65 119.55 178.28 C 118.89 178.43 117.58 178.73 116.93 178.88 C 116.20 179.04 115.47 179.21 114.75 179.38 C 114.75 181.04 114.76 182.70 114.77 184.35 C 116.08 184.52 117.39 184.68 118.70 184.85 C 119.14 184.90 120.02 185.01 120.45 185.07 C 120.43 187.07 120.41 189.06 120.40 191.07 C 120.00 191.08 119.22 191.10 118.83 191.11 C 117.54 191.14 116.25 191.16 114.97 191.17 C 112.37 191.19 109.77 191.12 107.18 191.05 C 107.18 181.19 107.17 171.34 107.15 161.48 Z" />
<path fill="#ec1d25" opacity="1.00" d=" M 122.57 161.57 C 126.83 161.57 131.15 161.09 135.37 161.80 C 139.77 162.84 140.19 168.23 139.71 171.92 C 139.80 173.84 138.03 174.82 136.73 175.86 C 137.73 176.86 139.36 177.59 139.56 179.14 C 140.02 183.10 139.72 187.10 139.74 191.09 C 137.38 190.98 135.02 190.90 132.66 190.85 C 132.50 186.80 133.22 182.57 132.11 178.65 C 131.69 178.33 130.86 177.69 130.45 177.38 C 130.23 181.89 130.33 186.40 130.32 190.92 C 127.76 191.03 125.20 191.10 122.64 191.16 C 122.55 181.29 122.66 171.43 122.57 161.57 M 130.32 166.00 C 130.33 168.51 130.36 171.03 130.42 173.54 C 131.13 173.21 131.84 172.89 132.55 172.56 C 132.58 170.57 132.59 168.59 132.57 166.60 C 132.01 166.45 130.88 166.15 130.32 166.00 Z" />
<path fill="#ec1d25" opacity="1.00" d=" M 149.15 161.47 C 153.35 161.49 157.54 161.49 161.73 161.49 C 161.74 163.56 161.75 165.62 161.76 167.69 C 160.06 167.70 158.37 167.71 156.68 167.73 C 156.66 169.54 156.65 171.35 156.64 173.17 C 158.22 173.18 159.81 173.19 161.40 173.20 C 161.43 174.94 161.47 176.67 161.52 178.41 C 159.89 178.51 158.27 178.60 156.64 178.70 C 156.64 182.81 156.64 186.92 156.64 191.04 C 154.16 191.09 151.68 191.12 149.20 191.14 C 149.12 181.25 149.20 171.36 149.15 161.47 Z" />
<path fill="#ec1d25" opacity="1.00" d=" M 165.25 161.48 C 168.86 161.48 172.47 161.48 176.08 161.54 C 177.24 171.45 179.24 181.25 180.47 191.16 C 177.92 191.06 175.38 190.94 172.84 190.83 C 172.76 189.09 172.69 187.35 172.63 185.61 C 171.51 185.60 170.39 185.59 169.28 185.57 C 169.04 187.40 168.81 189.24 168.59 191.07 C 166.16 191.10 163.73 191.11 161.30 191.11 C 162.24 181.19 163.99 171.36 165.25 161.48 M 169.29 180.33 C 170.08 180.17 171.65 179.87 172.44 179.72 C 171.81 175.82 171.47 171.90 171.04 167.98 C 170.22 172.06 169.58 176.17 169.29 180.33 Z" />
<path fill="#ec1d25" opacity="1.00" d=" M 203.53 161.49 C 207.80 161.48 212.07 161.49 216.35 161.51 C 216.34 163.56 216.33 165.60 216.34 167.66 C 214.64 167.68 212.94 167.71 211.25 167.74 C 211.27 169.55 211.28 171.35 211.31 173.17 C 212.83 173.18 214.34 173.20 215.87 173.21 C 215.86 174.99 215.87 176.76 215.88 178.54 C 214.32 178.56 212.76 178.59 211.21 178.61 C 211.23 180.63 211.24 182.65 211.25 184.68 C 213.08 184.72 214.91 184.76 216.74 184.81 C 216.73 186.89 216.73 188.97 216.73 191.06 C 212.32 191.18 207.91 191.18 203.51 191.00 C 203.54 181.16 203.52 171.33 203.53 161.49 Z" />
<path fill="#ffffff" opacity="1.00" d=" M 74.01 167.90 C 74.03 166.56 75.07 165.60 75.74 164.56 C 76.89 172.19 76.50 179.99 76.04 187.67 C 73.55 186.35 73.90 183.37 73.80 181.01 C 73.86 176.64 73.61 172.25 74.01 167.90 Z" />
<path fill="#ffffff" opacity="1.00" d=" M 55.62 166.21 C 56.18 166.25 57.31 166.33 57.87 166.36 C 57.90 168.80 57.88 171.24 57.81 173.68 C 57.26 173.71 56.17 173.76 55.62 173.78 C 55.63 171.26 55.63 168.74 55.62 166.21 Z" />
<path fill="#ffffff" opacity="1.00" d=" M 130.32 166.00 C 130.88 166.15 132.01 166.45 132.57 166.60 C 132.59 168.59 132.58 170.57 132.55 172.56 C 131.84 172.89 131.13 173.21 130.42 173.54 C 130.36 171.03 130.33 168.51 130.32 166.00 Z" />
<path fill="#030303" opacity="1.00" d=" M 114.75 168.48 C 115.58 168.32 116.41 168.16 117.24 168.00 C 117.23 169.64 117.23 171.29 117.23 172.94 C 116.39 172.77 115.56 172.61 114.73 172.45 C 114.74 171.12 114.74 169.80 114.75 168.48 Z" />
<path fill="#ffffff" opacity="1.00" d=" M 169.29 180.33 C 169.58 176.17 170.22 172.06 171.04 167.98 C 171.47 171.90 171.81 175.82 172.44 179.72 C 171.65 179.87 170.08 180.17 169.29 180.33 Z" />
<path fill="#030303" opacity="1.00" d=" M 114.75 179.38 C 115.47 179.21 116.20 179.04 116.93 178.88 C 117.23 180.94 117.83 182.95 118.70 184.85 C 117.39 184.68 116.08 184.52 114.77 184.35 C 114.76 182.70 114.75 181.04 114.75 179.38 Z" />
<path fill="#030303" opacity="1.00" d=" M 114.97 191.17 C 116.25 191.16 117.54 191.14 118.83 191.11 C 118.84 200.08 118.83 209.04 118.82 218.01 C 118.80 220.66 119.33 223.26 119.79 225.86 C 118.48 225.93 117.18 225.99 115.88 226.06 C 115.32 223.07 114.79 220.06 114.89 217.01 C 114.97 208.39 114.84 199.78 114.97 191.17 Z" />
</svg>
