<?xml version="1.0" encoding="UTF-8" ?>
<!DOCTYPE svg PUBLIC "-//W3C//DTD SVG 1.1//EN" "http://www.w3.org/Graphics/SVG/1.1/DTD/svg11.dtd">
<svg width="497pt" height="501pt" viewBox="0 0 497 501" version="1.1" xmlns="http://www.w3.org/2000/svg">
<g id="#fefefeff">
<path fill="#fefefe" opacity="1.00" d=" M 0.00 0.00 L 252.66 0.00 C 238.87 4.86 227.67 14.56 215.93 22.92 C 207.73 28.97 199.41 35.03 192.56 42.62 C 190.28 45.23 192.34 48.67 193.24 51.42 C 195.62 56.67 197.16 62.68 201.41 66.77 C 204.26 67.60 206.33 64.88 208.12 63.14 C 213.69 56.74 219.43 50.35 226.58 45.67 C 233.59 41.08 239.94 35.57 246.99 31.06 C 257.42 25.38 269.14 22.65 280.02 17.97 C 290.50 13.55 301.83 11.90 313.01 10.27 C 324.70 20.84 335.91 32.10 344.75 45.23 C 358.16 64.06 374.56 81.35 382.80 103.29 C 385.80 111.14 389.56 118.73 391.88 126.82 C 395.63 142.27 396.91 158.18 400.22 173.71 C 406.76 201.34 412.57 229.46 412.12 258.00 C 411.78 278.30 413.53 298.95 408.75 318.90 C 403.57 342.46 400.85 366.47 396.11 390.12 C 393.16 403.97 387.02 416.78 381.88 429.88 C 376.95 443.14 371.53 456.49 362.71 467.69 C 354.09 478.68 346.31 490.30 337.32 501.00 L 0.00 501.00 L 0.00 353.16 C 4.29 348.15 9.83 344.33 16.25 342.69 C 13.00 347.14 8.09 350.69 6.93 356.38 C 11.25 358.16 15.02 360.72 18.57 363.74 C 24.96 360.88 28.64 354.24 33.66 349.59 C 32.73 352.61 31.79 355.60 30.92 358.64 C 31.73 359.40 32.53 360.16 33.34 360.93 C 41.28 358.22 49.89 357.57 57.13 352.98 C 60.00 351.15 63.42 352.25 66.56 351.80 C 69.75 350.45 71.39 346.76 74.71 345.63 C 85.15 344.12 91.87 333.08 92.37 323.14 C 97.23 315.58 101.08 307.42 103.76 298.84 C 101.24 298.14 98.72 297.49 96.17 296.91 C 95.00 294.71 93.81 292.52 92.61 290.34 C 87.31 292.94 82.26 296.13 77.92 300.15 C 76.66 299.45 75.41 299.38 74.16 299.94 C 69.02 302.51 64.36 305.91 59.46 308.90 C 57.71 307.64 56.12 306.05 54.06 305.34 C 49.69 307.17 46.10 311.69 41.05 311.51 C 38.67 310.23 36.29 308.89 33.57 308.45 C 30.59 311.09 27.99 314.14 25.24 317.03 C 24.85 313.98 23.84 308.02 19.48 310.42 C 12.69 317.24 6.90 325.18 2.43 333.73 C 1.59 335.43 0.76 337.12 0.00 338.86 L 0.00 306.16 C 26.03 305.87 52.83 303.54 76.96 293.02 C 91.01 287.00 100.96 274.62 109.01 262.07 C 114.92 252.87 118.30 242.01 118.07 231.03 C 119.35 213.63 115.19 196.36 108.63 180.37 C 101.69 166.22 91.07 153.85 78.03 144.97 C 67.14 136.23 52.50 134.57 39.05 133.82 C 25.76 133.41 10.53 132.28 0.00 142.13 L 0.00 77.91 C 15.38 77.93 30.93 77.45 46.05 80.78 C 56.12 81.93 65.27 86.38 74.84 89.28 C 79.98 91.00 83.65 85.56 85.60 81.69 C 87.61 78.70 85.74 75.09 84.38 72.25 C 80.34 66.06 72.59 64.74 66.44 61.50 C 57.69 56.95 47.84 55.54 38.25 53.76 C 25.65 51.47 12.59 51.38 0.00 53.81 L 0.00 0.00 M 271.04 84.33 C 261.77 86.96 254.62 93.60 246.91 98.99 C 222.77 123.04 209.60 158.70 216.33 192.66 C 218.32 200.53 221.40 208.08 224.70 215.49 C 232.87 228.78 246.51 237.77 260.92 243.03 C 276.81 246.04 293.47 246.12 309.39 243.35 C 307.63 244.97 306.03 246.77 304.36 248.48 C 301.18 244.82 296.98 246.99 293.70 249.21 C 289.06 252.46 283.78 255.20 280.17 259.67 C 276.02 261.71 272.07 266.43 275.82 270.81 C 274.19 277.14 264.66 280.16 269.25 287.87 C 268.60 289.80 269.95 291.86 270.39 293.77 C 273.24 293.29 276.32 292.66 278.92 294.40 L 277.62 294.95 C 280.95 297.63 284.72 295.48 288.27 294.67 C 294.47 294.50 300.69 294.34 306.90 294.19 C 311.22 293.53 314.62 290.38 318.39 288.42 C 323.74 284.95 329.84 283.01 335.39 279.93 C 336.12 282.38 337.14 284.95 337.96 287.42 C 339.74 286.78 341.52 286.15 343.27 285.44 C 349.60 283.32 353.10 277.18 358.35 273.44 C 365.00 268.91 369.24 261.88 373.13 255.01 C 375.16 254.22 377.36 253.47 378.82 251.75 C 379.68 249.66 378.10 247.54 375.98 247.35 C 376.57 241.18 376.93 234.99 377.32 228.81 C 373.70 227.52 370.20 225.32 366.30 225.34 C 363.75 226.50 362.15 228.92 360.37 230.97 C 355.69 231.22 351.72 233.81 347.76 236.07 C 346.22 235.05 344.87 233.42 342.97 233.18 C 336.65 235.22 331.28 239.31 325.61 242.65 C 322.59 242.80 319.59 241.84 316.60 241.71 C 324.14 239.87 331.27 236.72 338.22 233.33 C 345.42 229.89 351.15 224.20 357.34 219.29 C 363.70 214.36 367.80 207.17 370.88 199.86 C 378.06 184.15 379.68 165.86 375.93 149.09 C 370.89 133.93 364.75 119.01 356.78 105.13 C 350.16 92.52 335.48 88.63 323.14 83.77 C 306.25 77.61 288.18 81.71 271.04 84.33 M 235.36 405.45 C 220.08 408.17 205.23 414.18 193.30 424.28 C 184.59 431.51 173.87 436.89 168.47 447.39 C 164.35 453.81 163.52 461.53 163.62 469.01 C 168.77 472.64 174.65 475.39 181.03 475.88 C 198.21 477.04 215.80 474.31 231.61 467.37 C 238.43 463.93 245.08 459.92 252.65 458.28 C 266.50 453.95 281.31 454.32 295.22 450.24 C 304.55 447.05 314.45 441.29 316.97 431.00 C 317.78 424.10 319.80 415.26 314.16 409.85 C 310.15 406.12 305.87 401.35 300.04 401.01 C 278.41 400.57 256.48 399.97 235.36 405.45 Z" />
</g>
<g id="#000000ff">
<path fill="#000000" opacity="1.00" d=" M 252.66 0.00 L 325.72 0.00 C 325.49 2.73 325.21 5.46 324.94 8.19 C 320.98 8.97 316.99 9.65 313.01 10.27 C 301.83 11.90 290.50 13.55 280.02 17.97 C 269.14 22.65 257.42 25.38 246.99 31.06 C 239.94 35.57 233.59 41.08 226.58 45.67 C 219.43 50.35 213.69 56.74 208.12 63.14 C 206.33 64.88 204.26 67.60 201.41 66.77 C 197.16 62.68 195.62 56.67 193.24 51.42 C 192.34 48.67 190.28 45.23 192.56 42.62 C 199.41 35.03 207.73 28.97 215.93 22.92 C 227.67 14.56 238.87 4.86 252.66 0.00 Z" />
<path fill="#000000" opacity="1.00" d=" M 330.49 0.00 L 340.11 0.00 C 348.35 5.87 356.48 12.13 363.01 19.91 C 368.63 28.00 374.49 35.95 379.61 44.38 C 385.31 56.09 391.93 67.31 398.12 78.76 C 404.01 92.60 411.47 105.74 416.87 119.79 C 420.28 129.56 424.20 139.30 425.42 149.66 C 427.56 166.16 431.31 182.40 432.88 198.97 C 433.40 202.38 433.39 206.05 435.24 209.07 C 436.80 222.42 440.56 235.48 440.83 248.97 C 441.46 269.16 441.24 289.37 440.20 309.54 C 439.96 324.50 442.36 339.60 439.69 354.48 C 436.92 367.29 436.22 380.71 430.73 392.80 C 428.75 397.45 426.01 401.76 424.28 406.52 C 421.38 414.73 418.59 423.01 414.83 430.88 C 409.22 442.90 404.71 455.41 399.16 467.45 C 392.35 479.56 383.93 490.75 374.58 501.00 L 364.57 501.00 C 373.65 492.15 381.07 481.77 388.54 471.58 C 395.49 459.47 399.50 445.98 405.38 433.36 C 411.81 419.80 416.53 405.52 422.88 391.92 C 429.09 378.44 430.21 363.49 433.05 349.11 C 434.90 330.13 433.76 311.03 434.01 292.00 C 433.75 270.48 435.59 248.62 430.66 227.46 C 426.62 202.49 422.19 177.58 418.37 152.57 C 414.94 130.62 404.87 110.64 395.25 90.90 C 389.87 77.55 381.61 65.67 375.27 52.80 C 369.88 41.95 362.62 32.20 355.51 22.45 C 348.28 13.76 337.61 8.83 330.49 0.00 Z" />
<path fill="#000000" opacity="1.00" d=" M 0.00 53.81 C 12.59 51.38 25.65 51.47 38.25 53.76 C 47.84 55.54 57.69 56.95 66.44 61.50 C 72.59 64.74 80.34 66.06 84.38 72.25 C 85.74 75.09 87.61 78.70 85.60 81.69 C 83.65 85.56 79.98 91.00 74.84 89.28 C 65.27 86.38 56.12 81.93 46.05 80.78 C 30.93 77.45 15.38 77.93 0.00 77.91 L 0.00 53.81 Z" />
<path fill="#000000" opacity="1.00" d=" M 271.04 84.33 C 288.18 81.71 306.25 77.61 323.14 83.77 C 335.48 88.63 350.16 92.52 356.78 105.13 C 364.75 119.01 370.89 133.93 375.93 149.09 C 379.68 165.86 378.06 184.15 370.88 199.86 C 367.80 207.17 363.70 214.36 357.34 219.29 C 351.15 224.20 345.42 229.89 338.22 233.33 C 331.27 236.72 324.14 239.87 316.60 241.71 C 314.17 242.21 311.78 242.73 309.39 243.35 C 293.47 246.12 276.81 246.04 260.92 243.03 C 246.51 237.77 232.87 228.78 224.70 215.49 C 221.40 208.08 218.32 200.53 216.33 192.66 C 209.60 158.70 222.77 123.04 246.91 98.99 C 254.62 93.60 261.77 86.96 271.04 84.33 M 315.90 90.07 C 311.67 90.78 307.52 92.70 303.17 91.94 C 291.69 90.58 278.36 87.08 267.97 93.94 C 259.55 99.23 249.94 103.90 244.63 112.73 C 232.83 127.20 225.69 145.06 222.34 163.31 C 220.61 177.29 222.44 191.64 228.31 204.47 C 232.96 220.93 248.81 230.59 263.92 236.03 C 295.80 242.50 331.96 234.86 355.40 211.39 C 369.96 191.96 375.68 164.39 365.34 141.75 C 360.65 129.84 355.72 117.92 349.04 106.97 C 344.61 99.70 336.19 96.66 328.66 93.61 C 324.44 92.49 320.36 90.04 315.90 90.07 Z" />
<path fill="#000000" opacity="1.00" d=" M 261.78 113.79 C 273.23 103.97 286.67 93.26 302.86 96.20 C 312.29 98.59 324.01 96.81 330.81 105.19 C 336.81 110.87 339.85 118.76 344.60 125.38 C 348.71 131.44 349.75 138.87 352.68 145.47 C 356.47 153.47 356.05 162.58 357.82 171.12 C 358.45 177.17 360.20 184.13 356.52 189.55 C 352.67 194.47 346.70 196.98 342.27 201.26 C 338.62 204.66 335.95 208.94 332.42 212.43 C 324.41 219.03 315.18 225.67 304.12 224.15 C 303.38 221.55 303.02 216.77 299.15 218.04 C 297.88 219.85 297.31 222.01 296.69 224.09 C 291.47 223.60 286.30 222.57 281.05 222.50 C 274.05 222.83 267.23 225.40 260.18 224.80 C 252.43 221.44 249.17 213.40 244.95 206.77 C 243.08 203.79 240.05 201.69 238.40 198.56 C 237.53 192.43 238.51 186.35 239.17 180.28 C 239.29 168.16 240.90 156.08 240.21 143.94 C 240.23 136.82 248.35 134.08 251.05 128.13 C 253.56 122.64 257.12 117.67 261.78 113.79 M 273.87 110.60 C 272.45 113.93 270.04 117.06 269.94 120.81 C 274.58 124.86 279.89 117.79 279.78 113.29 C 277.80 112.41 275.83 111.51 273.87 110.60 M 290.42 118.44 C 289.83 121.15 289.32 123.87 289.18 126.66 C 291.60 129.38 294.96 131.01 297.87 133.15 C 304.34 137.25 310.21 142.74 318.08 143.98 C 323.47 144.63 326.97 140.12 331.02 137.55 C 325.64 130.95 318.37 126.12 311.05 121.93 C 304.90 118.02 297.27 119.38 290.42 118.44 M 321.92 162.94 C 321.43 166.14 321.75 169.57 320.47 172.59 C 317.86 176.75 313.58 180.12 312.94 185.27 C 316.89 184.76 320.64 182.74 324.65 182.61 C 328.48 184.24 331.42 187.37 334.87 189.64 C 335.43 185.88 335.96 182.11 336.47 178.35 C 339.10 176.05 342.67 174.46 344.23 171.17 C 340.06 167.55 334.05 170.17 329.20 169.68 C 327.72 167.52 326.23 165.35 324.77 163.17 C 324.06 163.11 322.63 163.00 321.92 162.94 M 314.08 166.98 C 312.24 168.59 312.96 172.96 315.92 172.02 C 317.76 170.41 317.04 166.04 314.08 166.98 M 256.84 189.87 C 254.49 192.14 258.01 196.18 260.70 194.52 C 268.44 191.48 275.93 187.76 283.26 183.84 C 282.52 181.36 281.92 178.98 281.19 176.54 C 272.03 178.57 262.87 182.33 256.84 189.87 M 304.21 214.11 C 301.89 215.18 303.39 218.79 305.79 217.89 C 308.11 216.82 306.60 213.20 304.21 214.11 Z" />
<path fill="#000000" opacity="1.00" d=" M 0.00 142.13 C 10.53 132.28 25.76 133.41 39.05 133.82 C 52.50 134.57 67.14 136.23 78.03 144.97 C 91.07 153.85 101.69 166.22 108.63 180.37 C 115.19 196.36 119.35 213.63 118.07 231.03 C 118.30 242.01 114.92 252.87 109.01 262.07 C 100.96 274.62 91.01 287.00 76.96 293.02 C 52.83 303.54 26.03 305.87 0.00 306.16 L 0.00 297.78 C 15.63 300.23 31.29 297.17 46.68 294.59 C 60.44 291.56 74.69 287.87 85.90 278.86 C 94.64 270.31 102.30 260.41 107.17 249.14 C 115.30 227.94 109.99 204.40 101.93 184.04 C 94.80 169.19 83.74 155.76 69.13 147.80 C 53.86 140.79 36.54 140.04 20.02 141.08 C 12.58 141.89 6.43 146.29 0.00 149.69 L 0.00 142.13 Z" />
<path fill="#000000" opacity="1.00" d=" M 33.94 158.96 C 39.15 157.62 43.18 151.99 49.05 154.04 C 61.49 157.91 66.89 170.79 76.90 177.96 C 82.27 182.13 89.33 185.13 91.90 191.95 C 93.80 197.68 96.09 203.30 97.68 209.12 C 99.93 221.14 96.84 233.39 93.74 244.97 C 90.47 250.75 83.68 253.67 80.88 259.86 C 77.30 267.34 71.06 273.55 63.11 276.19 C 59.89 277.18 57.82 273.66 55.39 272.21 C 48.30 278.11 39.30 281.17 30.60 283.87 C 20.55 287.26 9.28 286.09 0.00 281.00 L 0.00 263.96 C 10.10 263.33 19.43 259.08 28.74 255.53 C 32.69 253.89 33.84 247.02 29.55 245.22 C 24.29 244.42 19.36 246.47 14.68 248.54 C 9.81 250.71 4.69 252.32 0.00 254.89 L 0.00 162.45 C 6.88 158.27 14.49 151.98 22.97 155.28 C 26.70 156.28 30.07 158.51 33.94 158.96 M 1.53 169.05 C 1.89 171.45 2.46 173.80 3.23 176.10 C 8.56 177.68 11.03 172.99 13.72 169.71 C 12.13 168.55 10.69 167.13 8.89 166.31 C 6.30 166.78 3.95 168.06 1.53 169.05 M 33.53 171.46 C 32.51 174.71 32.22 178.12 31.66 181.46 C 35.67 184.45 39.27 188.07 43.84 190.21 C 54.43 194.17 65.04 198.69 76.50 199.27 C 76.64 196.29 79.60 192.63 76.70 190.27 C 70.41 184.26 62.57 180.15 54.90 176.17 C 48.37 172.61 40.75 172.37 33.53 171.46 M 71.45 211.97 C 72.99 216.83 77.63 221.77 75.09 227.06 C 73.33 233.06 64.17 234.65 65.34 241.67 C 69.90 239.62 73.91 236.62 77.98 233.77 C 79.96 236.94 82.17 239.97 84.18 243.15 C 85.29 242.85 86.41 242.57 87.52 242.27 C 86.11 238.10 87.43 233.93 88.73 229.94 C 90.67 228.24 96.13 228.66 96.17 225.02 C 92.27 224.17 88.16 224.78 84.33 223.58 C 80.13 220.72 79.24 215.44 77.67 211.01 C 75.59 211.32 73.52 211.62 71.45 211.97 M 64.21 222.11 C 61.89 223.18 63.39 226.79 65.79 225.89 C 68.11 224.82 66.61 221.20 64.21 222.11 M 58.21 268.11 C 55.89 269.18 57.39 272.79 59.79 271.89 C 62.11 270.82 60.61 267.20 58.21 268.11 Z" />
<path fill="#000000" opacity="1.00" d=" M 235.36 405.45 C 256.48 399.97 278.41 400.57 300.04 401.01 C 305.87 401.35 310.15 406.12 314.16 409.85 C 319.80 415.26 317.78 424.10 316.97 431.00 C 314.45 441.29 304.55 447.05 295.22 450.24 C 281.31 454.32 266.50 453.95 252.65 458.28 C 245.08 459.92 238.43 463.93 231.61 467.37 C 215.80 474.31 198.21 477.04 181.03 475.88 C 174.65 475.39 168.77 472.64 163.62 469.01 C 163.52 461.53 164.35 453.81 168.47 447.39 C 173.87 436.89 184.59 431.51 193.30 424.28 C 205.23 414.18 220.08 408.17 235.36 405.45 Z" />
</g>
<g id="#bfbfbfff">
<path fill="#bfbfbf" opacity="1.00" d=" M 325.72 0.00 L 330.49 0.00 C 337.61 8.83 348.28 13.76 355.51 22.45 C 362.62 32.20 369.88 41.95 375.27 52.80 C 381.61 65.67 389.87 77.55 395.25 90.90 C 404.87 110.64 414.94 130.62 418.37 152.57 C 422.19 177.58 426.62 202.49 430.66 227.46 C 435.59 248.62 433.75 270.48 434.01 292.00 C 433.76 311.03 434.90 330.13 433.05 349.11 C 430.21 363.49 429.09 378.44 422.88 391.92 C 416.53 405.52 411.81 419.80 405.38 433.36 C 399.50 445.98 395.49 459.47 388.54 471.58 C 381.07 481.77 373.65 492.15 364.57 501.00 L 337.32 501.00 C 346.31 490.30 354.09 478.68 362.71 467.69 C 371.53 456.49 376.95 443.14 381.88 429.88 C 387.02 416.78 393.16 403.97 396.11 390.12 C 400.85 366.47 403.57 342.46 408.75 318.90 C 413.53 298.95 411.78 278.30 412.12 258.00 C 412.57 229.46 406.76 201.34 400.22 173.71 C 396.91 158.18 395.63 142.27 391.88 126.82 C 389.56 118.73 385.80 111.14 382.80 103.29 C 374.56 81.35 358.16 64.06 344.75 45.23 C 335.91 32.10 324.70 20.84 313.01 10.27 C 316.99 9.65 320.98 8.97 324.94 8.19 C 325.21 5.46 325.49 2.73 325.72 0.00 Z" />
</g>
<g id="#fe0000ff">
<path fill="#fe0000" opacity="1.00" d=" M 340.11 0.00 L 497.00 0.00 L 497.00 23.84 C 483.17 27.52 468.83 28.57 454.91 31.80 C 429.99 37.08 404.53 39.14 379.61 44.38 C 374.49 35.95 368.63 28.00 363.01 19.91 C 356.48 12.13 348.35 5.87 340.11 0.00 Z" />
</g>
<g id="#ff7f3fff">
<path fill="#ff7f3f" opacity="1.00" d=" M 454.91 31.80 C 468.83 28.57 483.17 27.52 497.00 23.84 L 497.00 117.02 C 470.28 117.08 443.40 115.92 416.87 119.79 C 411.47 105.74 404.01 92.60 398.12 78.76 C 391.93 67.31 385.31 56.09 379.61 44.38 C 404.53 39.14 429.99 37.08 454.91 31.80 Z" />
</g>
<g id="#ffffffff">
<path fill="#ffffff" opacity="1.00" d=" M 315.90 90.07 C 320.36 90.04 324.44 92.49 328.66 93.61 C 336.19 96.66 344.61 99.70 349.04 106.97 C 355.72 117.92 360.65 129.84 365.34 141.75 C 375.68 164.39 369.96 191.96 355.40 211.39 C 331.96 234.86 295.80 242.50 263.92 236.03 C 248.81 230.59 232.96 220.93 228.31 204.47 C 222.44 191.64 220.61 177.29 222.34 163.31 C 225.69 145.06 232.83 127.20 244.63 112.73 C 249.94 103.90 259.55 99.23 267.97 93.94 C 278.36 87.08 291.69 90.58 303.17 91.94 C 307.52 92.70 311.67 90.78 315.90 90.07 M 261.78 113.79 C 257.12 117.67 253.56 122.64 251.05 128.13 C 248.35 134.08 240.23 136.82 240.21 143.94 C 240.90 156.08 239.29 168.16 239.17 180.28 C 238.51 186.35 237.53 192.43 238.40 198.56 C 240.05 201.69 243.08 203.79 244.95 206.77 C 249.17 213.40 252.43 221.44 260.18 224.80 C 267.23 225.40 274.05 222.83 281.05 222.50 C 286.30 222.57 291.47 223.60 296.69 224.09 C 297.31 222.01 297.88 219.85 299.15 218.04 C 303.02 216.77 303.38 221.55 304.12 224.15 C 315.18 225.67 324.41 219.03 332.42 212.43 C 335.95 208.94 338.62 204.66 342.27 201.26 C 346.70 196.98 352.67 194.47 356.52 189.55 C 360.20 184.13 358.45 177.17 357.82 171.12 C 356.05 162.58 356.47 153.47 352.68 145.47 C 349.75 138.87 348.71 131.44 344.60 125.38 C 339.85 118.76 336.81 110.87 330.81 105.19 C 324.01 96.81 312.29 98.59 302.86 96.20 C 286.67 93.26 273.23 103.97 261.78 113.79 Z" />
<path fill="#ffffff" opacity="1.00" d=" M 273.87 110.60 C 275.83 111.51 277.80 112.41 279.78 113.29 C 279.89 117.79 274.58 124.86 269.94 120.81 C 270.04 117.06 272.45 113.93 273.87 110.60 Z" />
<path fill="#ffffff" opacity="1.00" d=" M 290.42 118.44 C 297.27 119.38 304.90 118.02 311.05 121.93 C 318.37 126.12 325.64 130.95 331.02 137.55 C 326.97 140.12 323.47 144.63 318.08 143.98 C 310.21 142.74 304.34 137.25 297.87 133.15 C 294.96 131.01 291.60 129.38 289.18 126.66 C 289.32 123.87 289.83 121.15 290.42 118.44 Z" />
<path fill="#ffffff" opacity="1.00" d=" M 0.00 149.69 C 6.43 146.29 12.58 141.89 20.02 141.08 C 36.54 140.04 53.86 140.79 69.13 147.80 C 83.74 155.76 94.80 169.19 101.93 184.04 C 109.99 204.40 115.30 227.94 107.17 249.14 C 102.30 260.41 94.64 270.31 85.90 278.86 C 74.69 287.87 60.44 291.56 46.68 294.59 C 31.29 297.17 15.63 300.23 0.00 297.78 L 0.00 281.00 C 9.28 286.09 20.55 287.26 30.60 283.87 C 39.30 281.17 48.30 278.11 55.39 272.21 C 57.82 273.66 59.89 277.18 63.11 276.19 C 71.06 273.55 77.30 267.34 80.88 259.86 C 83.68 253.67 90.47 250.75 93.74 244.97 C 96.84 233.39 99.93 221.14 97.68 209.12 C 96.09 203.30 93.80 197.68 91.90 191.95 C 89.33 185.13 82.27 182.13 76.90 177.96 C 66.89 170.79 61.49 157.91 49.05 154.04 C 43.18 151.99 39.15 157.62 33.94 158.96 C 30.07 158.51 26.70 156.28 22.97 155.28 C 14.49 151.98 6.88 158.27 0.00 162.45 L 0.00 149.69 Z" />
<path fill="#ffffff" opacity="1.00" d=" M 321.92 162.94 C 322.63 163.00 324.06 163.11 324.77 163.17 C 326.23 165.35 327.72 167.52 329.20 169.68 C 334.05 170.17 340.06 167.55 344.23 171.17 C 342.67 174.46 339.10 176.05 336.47 178.35 C 335.96 182.11 335.43 185.88 334.87 189.64 C 331.42 187.37 328.48 184.24 324.65 182.61 C 320.64 182.74 316.89 184.76 312.94 185.27 C 313.58 180.12 317.86 176.75 320.47 172.59 C 321.75 169.57 321.43 166.14 321.92 162.94 Z" />
<path fill="#ffffff" opacity="1.00" d=" M 1.53 169.05 C 3.95 168.06 6.30 166.78 8.89 166.31 C 10.69 167.13 12.13 168.55 13.72 169.71 C 11.03 172.99 8.56 177.68 3.23 176.10 C 2.46 173.80 1.89 171.45 1.53 169.05 Z" />
<path fill="#ffffff" opacity="1.00" d=" M 314.08 166.98 C 317.04 166.04 317.76 170.41 315.92 172.02 C 312.96 172.96 312.24 168.59 314.08 166.98 Z" />
<path fill="#ffffff" opacity="1.00" d=" M 33.53 171.46 C 40.75 172.37 48.37 172.61 54.90 176.17 C 62.57 180.15 70.41 184.26 76.70 190.27 C 79.60 192.63 76.64 196.29 76.50 199.27 C 65.04 198.69 54.43 194.17 43.84 190.21 C 39.27 188.07 35.67 184.45 31.66 181.46 C 32.22 178.12 32.51 174.71 33.53 171.46 Z" />
<path fill="#ffffff" opacity="1.00" d=" M 256.84 189.87 C 262.87 182.33 272.03 178.57 281.19 176.54 C 281.92 178.98 282.52 181.36 283.26 183.84 C 275.93 187.76 268.44 191.48 260.70 194.52 C 258.01 196.18 254.49 192.14 256.84 189.87 Z" />
<path fill="#ffffff" opacity="1.00" d=" M 71.45 211.97 C 73.52 211.62 75.59 211.32 77.67 211.01 C 79.24 215.44 80.13 220.72 84.33 223.58 C 88.16 224.78 92.27 224.17 96.17 225.02 C 96.13 228.66 90.67 228.24 88.73 229.94 C 87.43 233.93 86.11 238.10 87.52 242.27 C 86.41 242.57 85.29 242.85 84.18 243.15 C 82.17 239.97 79.96 236.94 77.98 233.77 C 73.91 236.62 69.90 239.62 65.34 241.67 C 64.17 234.65 73.33 233.06 75.09 227.06 C 77.63 221.77 72.99 216.83 71.45 211.97 Z" />
<path fill="#ffffff" opacity="1.00" d=" M 304.21 214.11 C 306.60 213.20 308.11 216.82 305.79 217.89 C 303.39 218.79 301.89 215.18 304.21 214.11 Z" />
<path fill="#ffffff" opacity="1.00" d=" M 64.21 222.11 C 66.61 221.20 68.11 224.82 65.79 225.89 C 63.39 226.79 61.89 223.18 64.21 222.11 Z" />
<path fill="#ffffff" opacity="1.00" d=" M 14.68 248.54 C 19.36 246.47 24.29 244.42 29.55 245.22 C 33.84 247.02 32.69 253.89 28.74 255.53 C 19.43 259.08 10.10 263.33 0.00 263.96 L 0.00 254.89 C 4.69 252.32 9.81 250.71 14.68 248.54 Z" />
<path fill="#ffffff" opacity="1.00" d=" M 296.76 271.81 C 299.02 270.34 301.28 268.86 303.55 267.41 C 300.79 270.14 297.84 272.68 294.99 275.32 C 295.60 274.16 296.17 272.98 296.76 271.81 Z" />
<path fill="#ffffff" opacity="1.00" d=" M 58.21 268.11 C 60.61 267.20 62.11 270.82 59.79 271.89 C 57.39 272.79 55.89 269.18 58.21 268.11 Z" />
</g>
<g id="#007ffeff">
<path fill="#007ffe" opacity="1.00" d=" M 416.87 119.79 C 443.40 115.92 470.28 117.08 497.00 117.02 L 497.00 233.48 C 489.60 230.45 481.95 228.00 474.93 224.12 C 462.34 217.55 448.68 213.49 435.24 209.07 C 433.39 206.05 433.40 202.38 432.88 198.97 C 431.31 182.40 427.56 166.16 425.42 149.66 C 424.20 139.30 420.28 129.56 416.87 119.79 Z" />
</g>
<g id="#7f00fefe">
<path fill="#7f00fe" opacity="1.00" d=" M 435.24 209.07 C 448.68 213.49 462.34 217.55 474.93 224.12 C 481.95 228.00 489.60 230.45 497.00 233.48 L 497.00 352.24 C 488.52 344.79 478.77 339.02 469.87 332.12 C 460.11 324.41 450.02 317.15 440.20 309.54 C 441.24 289.37 441.46 269.16 440.83 248.97 C 440.56 235.48 436.80 222.42 435.24 209.07 Z" />
</g>
<g id="#fcc4ceff">
<path fill="#fcc4ce" opacity="1.00" d=" M 366.30 225.34 C 370.20 225.32 373.70 227.52 377.32 228.81 C 376.93 234.99 376.57 241.18 375.98 247.35 C 373.88 247.28 371.79 247.32 369.70 247.33 C 368.64 244.90 367.63 242.54 366.54 240.14 C 362.13 243.02 358.75 247.71 353.50 249.12 C 352.31 247.34 351.45 245.37 350.60 243.41 C 344.86 247.14 339.70 254.11 332.17 252.91 C 330.68 252.76 329.21 252.58 327.73 252.49 C 320.73 254.57 316.15 261.23 309.03 263.02 C 304.10 264.50 298.51 266.48 296.76 271.81 C 296.17 272.98 295.60 274.16 294.99 275.32 C 294.24 276.15 293.50 276.99 292.77 277.83 C 291.81 275.78 290.83 273.74 289.84 271.71 C 286.09 272.61 282.19 273.24 278.66 274.79 C 274.98 278.69 272.39 283.52 269.25 287.87 C 264.66 280.16 274.19 277.14 275.82 270.81 C 277.51 267.19 278.70 263.37 280.17 259.67 C 283.78 255.20 289.06 252.46 293.70 249.21 C 295.33 251.00 296.95 252.81 298.55 254.63 C 300.46 252.56 302.40 250.51 304.36 248.48 C 306.03 246.77 307.63 244.97 309.39 243.35 C 311.78 242.73 314.17 242.21 316.60 241.71 C 319.59 241.84 322.59 242.80 325.61 242.65 C 331.28 239.31 336.65 235.22 342.97 233.18 C 344.87 233.42 346.22 235.05 347.76 236.07 C 351.72 233.81 355.69 231.22 360.37 230.97 C 362.15 228.92 363.75 226.50 366.30 225.34 Z" />
</g>
<g id="#f898adff">
<path fill="#f898ad" opacity="1.00" d=" M 353.50 249.12 C 358.75 247.71 362.13 243.02 366.54 240.14 C 367.63 242.54 368.64 244.90 369.70 247.33 C 371.79 247.32 373.88 247.28 375.98 247.35 C 378.10 247.54 379.68 249.66 378.82 251.75 C 377.36 253.47 375.16 254.22 373.13 255.01 C 365.79 257.47 360.17 263.13 353.26 266.44 C 348.91 268.72 343.91 266.65 339.27 267.37 C 329.89 268.37 323.34 276.04 315.90 280.99 C 314.79 278.73 313.65 276.49 312.48 274.26 C 308.92 277.66 305.52 281.21 302.11 284.77 L 302.02 284.16 C 301.83 282.82 301.68 281.48 301.52 280.15 C 294.90 286.21 287.44 291.40 278.92 294.40 C 276.32 292.66 273.24 293.29 270.39 293.77 C 269.95 291.86 268.60 289.80 269.25 287.87 C 272.39 283.52 274.98 278.69 278.66 274.79 C 282.19 273.24 286.09 272.61 289.84 271.71 C 290.83 273.74 291.81 275.78 292.77 277.83 C 293.50 276.99 294.24 276.15 294.99 275.32 C 297.84 272.68 300.79 270.14 303.55 267.41 C 301.28 268.86 299.02 270.34 296.76 271.81 C 298.51 266.48 304.10 264.50 309.03 263.02 C 316.15 261.23 320.73 254.57 327.73 252.49 C 324.70 255.61 321.52 258.59 318.85 262.02 C 323.48 259.27 327.79 256.04 332.17 252.91 C 339.70 254.11 344.86 247.14 350.60 243.41 C 351.45 245.37 352.31 247.34 353.50 249.12 Z" />
</g>
<g id="#f998acff">
<path fill="#f998ac" opacity="1.00" d=" M 293.70 249.21 C 296.98 246.99 301.18 244.82 304.36 248.48 C 302.40 250.51 300.46 252.56 298.55 254.63 C 296.95 252.81 295.33 251.00 293.70 249.21 Z" />
<path fill="#f998ac" opacity="1.00" d=" M 275.82 270.81 C 272.07 266.43 276.02 261.71 280.17 259.67 C 278.70 263.37 277.51 267.19 275.82 270.81 Z" />
<path fill="#f998ac" opacity="1.00" d=" M 33.57 308.45 C 36.29 308.89 38.67 310.23 41.05 311.51 C 38.69 311.37 36.25 310.66 33.90 311.22 C 30.50 313.43 28.37 317.07 25.67 320.03 C 25.57 319.28 25.35 317.78 25.24 317.03 C 27.99 314.14 30.59 311.09 33.57 308.45 Z" />
</g>
<g id="#fef5f7ff">
<path fill="#fef5f7" opacity="1.00" d=" M 327.73 252.49 C 329.21 252.58 330.68 252.76 332.17 252.91 C 327.79 256.04 323.48 259.27 318.85 262.02 C 321.52 258.59 324.70 255.61 327.73 252.49 Z" />
</g>
<g id="#fbc4cfff">
<path fill="#fbc4cf" opacity="1.00" d=" M 353.26 266.44 C 360.17 263.13 365.79 257.47 373.13 255.01 C 369.24 261.88 365.00 268.91 358.35 273.44 C 353.10 277.18 349.60 283.32 343.27 285.44 C 341.52 286.15 339.74 286.78 337.96 287.42 C 337.14 284.95 336.12 282.38 335.39 279.93 C 329.84 283.01 323.74 284.95 318.39 288.42 C 314.62 290.38 311.22 293.53 306.90 294.19 C 300.69 294.34 294.47 294.50 288.27 294.67 C 284.72 295.48 280.95 297.63 277.62 294.95 L 278.92 294.40 C 287.44 291.40 294.90 286.21 301.52 280.15 C 301.68 281.48 301.83 282.82 302.02 284.16 C 300.69 283.79 299.78 284.19 299.28 285.35 C 299.73 286.93 301.59 285.62 302.11 284.77 C 305.52 281.21 308.92 277.66 312.48 274.26 C 313.65 276.49 314.79 278.73 315.90 280.99 C 323.34 276.04 329.89 268.37 339.27 267.37 C 343.91 266.65 348.91 268.72 353.26 266.44 M 348.22 270.41 C 347.12 270.84 346.37 273.11 347.91 273.44 C 349.72 273.60 350.50 269.69 348.22 270.41 Z" />
</g>
<g id="#f99fb2ff">
<path fill="#f99fb2" opacity="1.00" d=" M 348.22 270.41 C 350.50 269.69 349.72 273.60 347.91 273.44 C 346.37 273.11 347.12 270.84 348.22 270.41 Z" />
</g>
<g id="#fef0f3ff">
<path fill="#fef0f3" opacity="1.00" d=" M 299.28 285.35 C 299.78 284.19 300.69 283.79 302.02 284.16 L 302.11 284.77 C 301.59 285.62 299.73 286.93 299.28 285.35 Z" />
</g>
<g id="#fcc5cfff">
<path fill="#fcc5cf" opacity="1.00" d=" M 77.92 300.15 C 82.26 296.13 87.31 292.94 92.61 290.34 C 93.81 292.52 95.00 294.71 96.17 296.91 C 94.84 299.47 94.10 302.52 91.88 304.51 C 90.14 304.27 88.46 303.70 86.80 303.15 C 86.39 303.00 85.58 302.71 85.17 302.57 C 84.03 304.03 82.90 305.49 81.71 306.91 C 77.62 310.36 73.05 313.45 67.76 314.68 C 61.22 316.22 55.41 319.68 49.76 323.18 C 48.12 321.96 46.49 320.71 44.87 319.46 C 39.14 322.59 32.28 323.79 27.45 328.40 C 24.77 330.83 22.16 333.35 19.38 335.67 C 18.24 334.67 17.10 333.69 15.95 332.72 C 16.61 329.82 17.27 326.93 17.95 324.03 C 14.40 328.19 10.91 332.40 7.20 336.41 C 5.62 335.51 4.02 334.63 2.43 333.73 C 6.90 325.18 12.69 317.24 19.48 310.42 C 23.84 308.02 24.85 313.98 25.24 317.03 C 25.35 317.78 25.57 319.28 25.67 320.03 C 28.37 317.07 30.50 313.43 33.90 311.22 C 36.25 310.66 38.69 311.37 41.05 311.51 C 46.10 311.69 49.69 307.17 54.06 305.34 C 56.12 306.05 57.71 307.64 59.46 308.90 C 64.36 305.91 69.02 302.51 74.16 299.94 C 73.81 302.76 77.09 301.91 77.92 300.15 Z" />
</g>
<g id="#f897acff">
<path fill="#f897ac" opacity="1.00" d=" M 96.17 296.91 C 98.72 297.49 101.24 298.14 103.76 298.84 C 101.08 307.42 97.23 315.58 92.37 323.14 C 89.72 321.84 87.25 319.70 84.21 319.51 C 78.87 320.72 74.46 324.45 70.06 327.54 C 68.65 328.63 67.20 329.69 65.87 330.88 C 64.41 328.43 63.32 323.40 59.49 325.43 C 54.13 330.25 50.19 336.36 45.82 342.04 C 44.88 338.91 43.90 335.84 42.87 332.75 C 35.63 334.77 29.66 339.63 26.29 346.36 C 25.24 344.66 24.25 342.86 22.71 341.54 C 20.54 341.75 18.36 342.14 16.25 342.69 C 9.83 344.33 4.29 348.15 0.00 353.16 L 0.00 338.86 C 0.76 337.12 1.59 335.43 2.43 333.73 C 4.02 334.63 5.62 335.51 7.20 336.41 C 10.91 332.40 14.40 328.19 17.95 324.03 C 17.27 326.93 16.61 329.82 15.95 332.72 C 17.10 333.69 18.24 334.67 19.38 335.67 C 22.16 333.35 24.77 330.83 27.45 328.40 C 32.28 323.79 39.14 322.59 44.87 319.46 C 46.49 320.71 48.12 321.96 49.76 323.18 C 55.41 319.68 61.22 316.22 67.76 314.68 C 73.05 313.45 77.62 310.36 81.71 306.91 C 83.38 305.61 85.09 304.38 86.80 303.15 C 88.46 303.70 90.14 304.27 91.88 304.51 C 94.10 302.52 94.84 299.47 96.17 296.91 Z" />
</g>
<g id="#f998adff">
<path fill="#f998ad" opacity="1.00" d=" M 74.16 299.94 C 75.41 299.38 76.66 299.45 77.92 300.15 C 77.09 301.91 73.81 302.76 74.16 299.94 Z" />
</g>
<g id="#fef2f4ff">
<path fill="#fef2f4" opacity="1.00" d=" M 85.17 302.57 C 85.58 302.71 86.39 303.00 86.80 303.15 C 85.09 304.38 83.38 305.61 81.71 306.91 C 82.90 305.49 84.03 304.03 85.17 302.57 Z" />
</g>
<g id="#00ff00ff">
<path fill="#00ff00" opacity="1.00" d=" M 439.69 354.48 C 442.36 339.60 439.96 324.50 440.20 309.54 C 450.02 317.15 460.11 324.41 469.87 332.12 C 478.77 339.02 488.52 344.79 497.00 352.24 L 497.00 484.39 C 491.39 476.28 484.69 469.02 478.82 461.11 C 472.00 451.68 462.42 444.89 454.24 436.76 C 443.89 427.03 435.16 415.68 424.28 406.52 C 426.01 401.76 428.75 397.45 430.73 392.80 C 436.22 380.71 436.92 367.29 439.69 354.48 Z" />
</g>
<g id="#fbc4ceff">
<path fill="#fbc4ce" opacity="1.00" d=" M 70.06 327.54 C 74.46 324.45 78.87 320.72 84.21 319.51 C 87.25 319.70 89.72 321.84 92.37 323.14 C 91.87 333.08 85.15 344.12 74.71 345.63 C 71.39 346.76 69.75 350.45 66.56 351.80 C 63.42 352.25 60.00 351.15 57.13 352.98 C 49.89 357.57 41.28 358.22 33.34 360.93 C 32.53 360.16 31.73 359.40 30.92 358.64 C 31.79 355.60 32.73 352.61 33.66 349.59 C 28.64 354.24 24.96 360.88 18.57 363.74 C 15.02 360.72 11.25 358.16 6.93 356.38 C 8.09 350.69 13.00 347.14 16.25 342.69 C 18.36 342.14 20.54 341.75 22.71 341.54 C 24.25 342.86 25.24 344.66 26.29 346.36 C 29.66 339.63 35.63 334.77 42.87 332.75 C 43.90 335.84 44.88 338.91 45.82 342.04 C 50.19 336.36 54.13 330.25 59.49 325.43 C 63.32 323.40 64.41 328.43 65.87 330.88 C 62.90 334.85 60.30 339.11 58.05 343.52 C 62.62 338.65 66.67 333.30 70.06 327.54 Z" />
</g>
<g id="#fefbfcff">
<path fill="#fefbfc" opacity="1.00" d=" M 65.87 330.88 C 67.20 329.69 68.65 328.63 70.06 327.54 C 66.67 333.30 62.62 338.65 58.05 343.52 C 60.30 339.11 62.90 334.85 65.87 330.88 Z" />
</g>
<g id="#ffff00ff">
<path fill="#ffff00" opacity="1.00" d=" M 414.83 430.88 C 418.59 423.01 421.38 414.73 424.28 406.52 C 435.16 415.68 443.89 427.03 454.24 436.76 C 462.42 444.89 472.00 451.68 478.82 461.11 C 484.69 469.02 491.39 476.28 497.00 484.39 L 497.00 501.00 L 423.71 501.00 C 415.82 489.60 407.00 478.88 399.16 467.45 C 404.71 455.41 409.22 442.90 414.83 430.88 Z" />
</g>
<g id="#fe007ffe">
<path fill="#fe007f" opacity="1.00" d=" M 374.58 501.00 C 383.93 490.75 392.35 479.56 399.16 467.45 C 407.00 478.88 415.82 489.60 423.71 501.00 L 374.58 501.00 Z" />
</g>
</svg>
