<?xml version="1.0" encoding="UTF-8" ?>
<!DOCTYPE svg PUBLIC "-//W3C//DTD SVG 1.1//EN" "http://www.w3.org/Graphics/SVG/1.1/DTD/svg11.dtd">
<svg width="256pt" height="298pt" viewBox="0 0 256 298" version="1.1" xmlns="http://www.w3.org/2000/svg">
<path fill="#fcfcfc" opacity="1.00" d=" M 0.00 0.00 L 256.00 0.00 L 256.00 298.00 L 0.00 298.00 L 0.00 0.00 M 73.95 6.84 C 67.26 10.93 58.34 10.71 52.88 16.83 C 49.72 19.28 46.06 21.06 43.07 23.76 C 41.84 23.31 40.61 22.85 39.37 22.40 C 39.79 23.75 40.23 25.09 40.66 26.43 C 38.84 26.77 37.03 27.11 35.22 27.52 C 35.75 28.62 36.29 29.73 36.83 30.83 C 34.93 30.60 33.04 30.40 31.14 30.22 C 31.81 31.33 32.48 32.43 33.16 33.54 C 31.54 33.62 29.93 33.71 28.31 33.80 C 29.36 35.35 30.37 36.92 31.32 38.53 C 29.36 38.55 27.40 38.52 25.44 38.54 C 26.24 40.18 27.06 41.82 27.88 43.46 C 26.04 43.48 24.19 43.49 22.35 43.50 C 22.45 44.06 22.65 45.17 22.75 45.73 C 18.03 46.02 15.90 50.87 12.48 53.48 C 10.23 61.61 11.82 70.21 11.38 78.54 C 11.99 78.43 13.23 78.20 13.85 78.09 C 13.70 80.03 13.60 81.97 13.53 83.92 C 14.73 83.31 15.94 82.70 17.13 82.08 C 16.50 83.44 15.88 84.80 15.28 86.18 C 16.48 85.73 17.67 85.27 18.86 84.80 C 18.11 86.18 17.34 87.56 16.69 89.00 C 17.26 89.17 18.41 89.53 18.98 89.71 C 17.70 91.46 16.59 93.34 15.40 95.15 C 16.27 95.96 17.14 96.78 18.00 97.61 C 17.46 99.10 16.90 100.59 16.31 102.07 C 18.33 104.04 18.41 106.93 19.07 109.50 C 19.74 109.41 21.07 109.23 21.73 109.15 C 21.67 111.44 21.74 113.75 21.51 116.04 C 19.71 119.66 17.16 123.01 16.28 127.03 C 16.36 131.65 20.71 134.97 20.49 139.68 C 21.71 143.06 25.92 144.61 27.19 148.09 C 27.59 152.04 27.64 156.18 25.82 159.82 C 23.49 165.12 22.80 170.99 23.54 176.71 C 27.51 186.47 33.13 195.43 38.62 204.39 C 44.89 212.40 53.03 218.94 58.14 227.86 C 59.12 229.65 60.78 231.07 61.39 233.06 C 61.92 236.55 61.34 240.10 61.71 243.61 C 62.78 246.96 64.21 250.20 65.96 253.24 C 67.33 255.84 70.43 256.50 72.79 257.87 C 72.13 261.87 69.63 265.21 67.55 268.59 C 63.64 273.84 60.39 279.75 58.99 286.19 C 61.82 283.37 62.85 279.40 64.92 276.08 C 67.26 271.36 70.91 267.46 73.11 262.67 C 78.46 265.22 77.89 271.91 80.70 276.35 C 82.89 279.97 85.24 284.10 89.35 285.74 C 86.99 280.92 82.31 277.56 80.74 272.32 C 79.46 267.65 77.46 263.17 74.49 259.33 C 78.00 260.14 81.16 261.93 84.51 263.22 C 88.70 265.95 91.73 270.22 96.16 272.65 C 94.08 268.09 89.86 265.18 86.32 261.85 C 89.50 261.53 92.64 260.82 95.64 259.68 C 101.25 257.76 107.42 256.14 111.55 251.57 C 114.65 248.41 118.84 245.58 119.21 240.76 C 116.05 243.79 113.88 247.70 110.50 250.52 C 104.89 255.54 97.45 257.64 90.37 259.65 C 87.38 260.07 84.06 261.80 81.23 259.97 C 77.66 258.07 73.41 257.54 70.31 254.78 C 66.51 252.41 65.22 247.88 63.59 243.99 C 63.07 240.20 63.71 236.35 63.24 232.56 C 61.99 229.70 59.67 227.50 58.21 224.76 C 54.21 217.98 48.44 212.58 43.07 206.91 C 39.18 203.18 37.18 198.03 34.23 193.60 C 30.39 187.72 27.27 181.40 24.75 174.85 C 24.38 168.65 26.59 162.57 28.72 156.80 C 29.78 153.55 33.39 152.51 35.72 150.39 C 33.39 150.56 31.13 151.21 28.83 151.61 C 30.10 150.33 31.44 149.13 32.75 147.89 C 31.28 147.81 29.81 147.71 28.34 147.61 C 28.06 145.35 28.27 143.10 29.09 140.98 C 29.98 142.99 29.81 145.81 32.06 146.92 C 36.45 149.52 42.01 148.60 46.30 146.24 C 49.17 144.56 53.37 143.87 54.40 140.23 C 56.27 136.05 56.09 129.81 51.64 127.38 C 47.49 124.28 42.52 122.36 37.34 122.01 C 41.10 119.33 45.09 116.94 49.39 115.23 C 47.26 113.15 45.13 110.92 42.35 109.71 C 38.51 108.70 34.57 109.95 30.96 111.22 C 28.17 112.13 26.58 114.83 24.48 116.69 C 23.74 113.71 21.57 110.72 22.72 107.57 C 23.69 104.45 23.27 101.16 23.41 97.94 C 23.45 94.94 24.90 92.15 24.69 89.13 C 25.66 80.80 30.83 72.95 38.39 69.21 C 41.46 67.62 44.99 68.67 48.24 67.94 C 51.47 67.24 54.63 66.22 57.88 65.61 C 62.54 64.74 66.20 61.53 69.98 58.94 C 72.80 57.61 75.84 56.43 79.00 56.50 C 87.52 56.87 96.14 54.84 103.61 50.74 C 108.50 48.87 112.54 53.29 116.09 55.96 C 119.29 58.86 123.91 58.62 127.57 60.58 C 128.81 63.05 127.73 65.72 127.59 68.29 C 127.39 72.09 127.53 75.91 127.58 79.72 C 134.01 83.62 140.00 88.48 144.15 94.85 C 150.50 101.73 150.27 111.64 151.37 120.36 C 154.97 120.33 158.59 120.18 162.18 120.66 C 163.83 117.00 165.39 113.19 168.02 110.09 C 171.30 106.69 174.77 103.46 178.20 100.21 C 180.72 96.18 182.58 91.08 187.49 89.36 C 192.49 88.08 198.71 88.60 202.13 92.92 C 204.92 96.59 207.43 101.09 206.39 105.87 C 204.91 103.01 204.99 99.54 203.26 96.83 C 201.20 95.13 198.82 93.27 195.98 93.60 C 192.60 93.84 188.20 92.53 186.00 95.92 C 183.89 99.41 180.44 102.22 179.64 106.36 C 183.57 103.50 185.28 98.63 189.05 95.66 C 191.68 95.15 194.39 95.31 197.06 95.39 C 200.12 95.30 202.55 98.23 203.14 101.04 C 204.09 104.91 205.68 108.58 207.44 112.14 C 207.74 114.33 207.69 116.56 207.41 118.75 C 205.92 124.73 207.02 130.94 206.55 137.01 C 204.92 141.27 202.17 144.94 199.96 148.89 C 196.59 155.14 188.67 156.91 182.11 156.81 C 183.26 164.74 181.71 172.71 182.28 180.66 C 183.06 182.38 184.56 183.90 184.30 185.94 C 184.31 192.31 184.27 198.68 184.31 205.06 C 184.40 209.84 181.72 214.07 178.61 217.49 C 174.12 223.91 168.16 229.24 164.63 236.32 C 164.64 237.13 164.65 238.75 164.66 239.56 C 168.10 233.85 171.43 228.02 176.27 223.35 C 179.38 218.55 184.56 214.72 185.46 208.79 C 185.61 198.86 185.46 188.93 185.52 179.01 C 185.68 176.45 184.36 174.17 183.64 171.79 C 184.36 167.57 184.41 163.30 184.34 159.03 C 187.56 158.24 190.74 157.27 193.95 156.41 C 191.93 163.40 190.11 170.57 190.20 177.90 C 188.88 187.21 188.02 196.70 189.50 206.05 C 189.37 214.12 190.82 222.10 192.71 229.92 C 193.83 229.68 194.95 229.45 196.08 229.23 C 198.55 238.98 201.83 248.52 203.80 258.41 C 204.44 262.73 208.01 265.89 208.72 270.16 C 209.28 277.55 207.44 284.87 205.14 291.84 C 205.66 291.76 206.70 291.59 207.22 291.51 C 208.69 286.79 209.34 281.88 210.24 277.04 C 210.56 273.09 210.19 269.13 210.42 265.19 C 209.86 263.63 208.99 262.20 208.27 260.72 C 203.03 250.67 201.36 239.27 197.09 228.84 C 196.36 226.59 194.01 225.60 192.83 223.69 C 191.84 219.50 191.46 215.19 191.16 210.90 C 191.16 205.34 189.78 199.86 190.38 194.29 C 191.64 192.26 193.58 190.65 194.36 188.32 C 195.98 185.53 195.07 182.24 195.94 179.26 C 196.97 175.91 196.22 172.38 196.67 168.97 C 198.17 163.76 200.36 158.60 199.85 153.07 C 201.73 148.29 205.32 144.38 207.41 139.69 C 209.08 136.36 208.23 132.56 208.40 129.00 C 208.10 119.09 210.16 108.96 207.61 99.21 C 206.83 96.17 204.80 93.68 203.43 90.92 C 202.87 87.74 202.49 84.52 202.58 81.29 C 202.79 77.31 199.93 73.96 199.90 70.01 C 199.72 67.87 200.16 65.62 199.32 63.58 C 197.61 59.36 196.96 54.65 193.83 51.14 C 192.31 47.22 191.39 42.88 188.40 39.68 C 185.27 36.52 183.36 32.49 181.52 28.51 C 175.13 22.86 169.68 13.75 160.02 14.32 C 157.06 12.91 154.18 11.37 150.85 11.16 C 147.83 8.41 144.20 6.19 139.98 6.14 C 134.93 6.28 130.06 4.56 125.02 4.79 C 110.66 4.83 96.30 4.81 81.94 4.79 C 79.17 4.82 76.23 5.14 73.95 6.84 M 64.71 99.75 C 61.92 101.44 60.17 104.26 58.84 107.15 C 57.98 111.35 60.82 115.38 64.52 117.15 C 62.05 113.90 60.41 110.18 61.54 106.02 C 65.24 100.04 72.03 97.06 76.33 91.60 C 71.67 93.03 68.63 97.10 64.71 99.75 M 68.47 112.12 C 70.16 113.22 71.72 114.98 73.93 114.71 C 81.30 114.94 88.67 114.54 96.04 114.63 C 101.47 114.89 106.75 113.40 112.17 113.46 C 114.54 111.12 113.07 107.41 113.44 104.45 C 101.99 103.98 90.50 103.99 79.06 104.59 C 76.17 105.06 75.34 101.49 73.94 99.69 C 70.07 102.66 67.87 107.19 68.47 112.12 M 47.72 102.26 C 47.70 102.80 47.64 103.87 47.61 104.41 C 48.58 104.43 49.55 104.46 50.51 104.49 C 51.57 107.86 52.89 111.15 53.82 114.57 C 54.34 114.64 55.37 114.78 55.89 114.84 C 54.38 111.23 53.74 107.31 52.21 103.72 C 50.91 102.74 49.28 102.53 47.72 102.26 M 180.51 123.57 C 183.73 121.41 183.96 117.44 184.59 113.98 C 187.02 115.31 189.56 116.53 192.34 116.89 C 189.82 114.49 186.68 112.96 183.73 111.20 C 182.60 115.31 181.55 119.44 180.51 123.57 M 201.27 112.35 C 202.51 117.25 203.08 122.35 202.30 127.39 C 201.75 129.97 199.81 131.98 199.21 134.57 C 205.16 131.24 204.46 123.73 204.33 117.93 C 204.64 115.57 202.68 113.92 201.27 112.35 M 198.93 112.98 C 199.24 117.08 200.57 121.24 199.50 125.35 C 198.77 128.72 196.76 131.57 194.90 134.40 C 195.48 134.43 196.66 134.51 197.25 134.55 C 200.96 128.21 203.62 119.51 198.93 112.98 M 75.84 126.41 C 81.32 123.85 87.21 122.49 93.12 121.36 C 95.12 121.67 96.96 122.57 98.85 123.25 C 95.60 123.65 90.81 123.24 89.65 127.20 C 88.46 130.38 92.38 131.92 94.53 133.21 C 90.70 134.98 84.69 135.99 82.11 131.74 C 80.89 130.05 79.42 128.55 77.70 127.37 C 78.98 130.38 79.94 134.41 83.50 135.43 C 90.60 138.24 98.22 134.21 103.78 129.86 C 102.48 127.22 101.94 124.29 102.74 121.42 C 96.77 120.54 91.08 117.57 84.99 117.93 C 80.15 118.10 78.28 123.06 75.84 126.41 M 52.01 122.39 C 55.08 128.13 59.54 134.97 56.70 141.61 C 53.56 144.80 49.67 147.32 47.26 151.17 C 44.37 155.67 41.28 160.17 39.58 165.28 C 38.76 169.52 36.65 173.92 38.22 178.24 C 39.92 173.11 39.79 167.42 42.52 162.64 C 46.15 156.06 49.72 149.15 55.82 144.48 C 54.85 152.93 51.91 161.35 46.85 168.23 C 46.29 171.24 46.00 175.41 49.44 176.81 C 52.53 178.76 55.84 176.76 58.42 174.96 C 56.53 174.12 54.60 173.38 52.63 172.75 C 52.55 173.75 52.38 175.74 52.29 176.73 C 50.68 175.34 48.31 174.31 47.88 172.00 C 47.94 170.23 48.59 168.55 49.06 166.86 C 50.03 168.92 51.09 170.98 52.70 172.63 C 52.34 169.84 50.60 167.03 51.72 164.20 C 53.33 160.21 55.30 156.34 56.17 152.09 C 57.17 146.71 59.14 141.46 59.14 135.94 C 58.41 131.19 56.36 126.77 54.56 122.35 C 53.92 122.36 52.65 122.38 52.01 122.39 M 66.69 130.34 C 67.22 130.59 68.26 131.10 68.78 131.35 C 67.47 128.06 67.44 124.55 67.44 121.06 C 65.19 123.79 65.57 127.23 66.69 130.34 M 178.16 123.75 C 179.14 126.44 181.09 128.59 182.39 131.11 C 182.82 135.43 181.79 139.77 182.39 144.11 C 186.03 141.56 190.13 139.20 192.58 135.41 C 188.79 136.19 186.10 139.06 183.26 141.43 C 183.33 139.57 183.55 137.72 183.91 135.90 C 185.34 131.22 182.41 125.87 178.16 123.75 M 105.96 138.13 C 100.96 140.34 95.55 141.76 90.04 141.33 C 90.06 141.63 90.10 142.23 90.12 142.53 C 96.35 143.12 102.57 141.91 108.08 138.97 C 111.49 136.59 112.08 132.25 111.02 128.47 C 109.37 131.67 110.03 136.88 105.96 138.13 M 90.34 155.06 C 97.75 155.21 104.05 159.86 108.83 165.15 C 112.23 168.81 116.11 172.27 118.18 176.93 C 119.30 180.18 119.73 183.66 121.30 186.76 C 122.32 180.52 119.32 174.25 115.58 169.42 C 110.92 165.09 107.09 159.70 101.32 156.72 C 98.12 154.84 93.68 151.80 90.34 155.06 M 79.63 156.59 C 79.42 157.15 78.98 158.28 78.77 158.85 C 81.73 157.67 85.56 156.28 88.32 158.66 C 89.77 160.38 89.42 162.78 89.19 164.85 C 87.64 166.36 85.77 167.47 84.03 168.73 C 78.82 166.07 72.04 166.93 67.51 170.56 C 65.79 171.46 66.42 173.57 66.23 175.14 C 66.79 175.29 67.92 175.60 68.48 175.75 C 68.43 174.51 68.38 173.28 68.34 172.04 C 72.11 169.36 77.00 167.65 81.53 169.40 C 85.09 170.46 88.82 168.56 90.52 165.42 C 90.86 162.92 90.97 160.30 90.26 157.86 C 87.48 154.90 83.13 155.52 79.63 156.59 M 39.19 183.09 C 38.45 190.42 41.29 198.17 47.02 202.92 C 56.56 210.99 63.08 222.38 65.77 234.53 C 66.24 234.53 67.18 234.55 67.66 234.55 C 65.86 226.09 61.99 218.22 57.05 211.16 C 59.50 211.31 61.99 211.84 64.44 211.43 C 67.83 209.27 68.87 204.52 73.25 203.79 C 77.28 203.71 81.14 202.65 84.65 200.66 C 90.43 199.70 96.45 199.12 102.19 200.73 C 105.76 202.72 108.91 205.40 112.55 207.29 C 115.63 208.94 119.23 207.99 122.55 208.43 C 122.88 206.97 123.42 205.54 123.42 204.04 C 122.29 197.62 121.40 190.43 116.16 185.88 C 107.77 179.49 96.67 179.50 86.66 180.52 C 79.17 181.88 71.93 184.32 64.50 185.99 C 59.61 187.96 54.56 189.88 50.52 193.38 C 50.36 196.44 50.78 199.87 53.68 201.60 C 53.66 202.91 53.63 205.53 53.61 206.84 C 51.07 203.88 47.99 201.46 45.44 198.52 C 42.61 195.30 41.39 191.07 40.36 187.01 C 39.64 182.78 43.07 179.65 45.03 176.33 C 41.59 176.77 39.79 179.97 39.19 183.09 M 136.51 200.10 C 136.48 202.95 136.65 205.83 136.27 208.67 C 135.15 212.50 132.07 215.31 130.64 219.00 C 132.36 217.69 134.09 216.32 135.34 214.52 C 138.45 210.52 138.15 205.16 138.36 200.38 C 137.90 200.31 136.97 200.17 136.51 200.10 M 127.09 212.07 C 124.14 214.14 120.52 214.64 117.00 214.40 C 117.07 214.73 117.21 215.40 117.28 215.73 C 119.91 215.58 122.73 216.09 125.20 215.00 C 129.91 213.19 131.90 207.43 131.25 202.75 C 129.78 205.82 128.96 209.20 127.09 212.07 M 76.58 212.78 C 79.67 211.51 82.01 208.96 85.09 207.67 C 89.18 206.77 93.20 208.11 97.23 208.58 C 90.91 202.93 80.46 205.54 76.58 212.78 M 84.81 213.15 C 87.32 213.52 90.38 214.19 92.02 211.67 C 89.47 211.22 86.99 211.76 84.81 213.15 M 202.11 242.85 C 205.56 246.82 209.00 250.81 211.66 255.37 C 215.53 261.46 222.73 263.55 228.23 267.74 C 229.76 268.95 231.51 269.81 233.16 270.86 C 235.39 273.81 236.42 277.49 238.84 280.33 C 238.28 276.50 237.10 272.57 234.45 269.65 C 228.93 266.09 223.41 262.52 217.71 259.24 C 210.93 255.33 210.26 244.74 202.11 242.85 Z" />
<path fill="#010101" opacity="1.00" d=" M 73.95 6.84 C 76.23 5.14 79.17 4.82 81.94 4.79 C 96.30 4.81 110.66 4.83 125.02 4.79 C 130.06 4.56 134.93 6.28 139.98 6.14 C 144.20 6.19 147.83 8.41 150.85 11.16 C 154.18 11.37 157.06 12.91 160.02 14.32 C 169.68 13.75 175.13 22.86 181.52 28.51 C 183.36 32.49 185.27 36.52 188.40 39.68 C 191.39 42.88 192.31 47.22 193.83 51.14 C 196.96 54.65 197.61 59.36 199.32 63.58 C 200.16 65.62 199.72 67.87 199.90 70.01 C 199.93 73.96 202.79 77.31 202.58 81.29 C 202.49 84.52 202.87 87.74 203.43 90.92 C 204.80 93.68 206.83 96.17 207.61 99.21 C 210.16 108.96 208.10 119.09 208.40 129.00 C 208.23 132.56 209.08 136.36 207.41 139.69 C 205.32 144.38 201.73 148.29 199.85 153.07 C 200.36 158.60 198.17 163.76 196.67 168.97 C 196.22 172.38 196.97 175.91 195.94 179.26 C 195.07 182.24 195.98 185.53 194.36 188.32 C 193.58 190.65 191.64 192.26 190.38 194.29 C 189.78 199.86 191.16 205.34 191.16 210.90 C 191.46 215.19 191.84 219.50 192.83 223.69 C 194.01 225.60 196.36 226.59 197.09 228.84 C 201.36 239.27 203.03 250.67 208.27 260.72 C 208.99 262.20 209.86 263.63 210.42 265.19 C 210.19 269.13 210.56 273.09 210.24 277.04 C 209.34 281.88 208.69 286.79 207.22 291.51 C 206.70 291.59 205.66 291.76 205.14 291.84 C 207.44 284.87 209.28 277.55 208.72 270.16 C 208.01 265.89 204.44 262.73 203.80 258.41 C 201.83 248.52 198.55 238.98 196.08 229.23 C 194.95 229.45 193.83 229.68 192.71 229.92 C 190.82 222.10 189.37 214.12 189.50 206.05 C 188.02 196.70 188.88 187.21 190.20 177.90 C 190.11 170.57 191.93 163.40 193.95 156.41 C 190.74 157.27 187.56 158.24 184.34 159.03 C 184.41 163.30 184.36 167.57 183.64 171.79 C 184.36 174.17 185.68 176.45 185.52 179.01 C 185.46 188.93 185.61 198.86 185.46 208.79 C 184.56 214.72 179.38 218.55 176.27 223.35 C 171.43 228.02 168.10 233.85 164.66 239.56 C 164.65 238.75 164.64 237.13 164.63 236.32 C 168.16 229.24 174.12 223.91 178.61 217.49 C 181.72 214.07 184.40 209.84 184.31 205.06 C 184.27 198.68 184.31 192.31 184.30 185.94 C 184.56 183.90 183.06 182.38 182.28 180.66 C 181.71 172.71 183.26 164.74 182.11 156.81 C 188.67 156.91 196.59 155.14 199.96 148.89 C 202.17 144.94 204.92 141.27 206.55 137.01 C 207.02 130.94 205.92 124.73 207.41 118.75 C 207.69 116.56 207.74 114.33 207.44 112.14 C 205.68 108.58 204.09 104.91 203.14 101.04 C 202.55 98.23 200.12 95.30 197.06 95.39 C 194.39 95.31 191.68 95.15 189.05 95.66 C 185.28 98.63 183.57 103.50 179.64 106.36 C 180.44 102.22 183.89 99.41 186.00 95.92 C 188.20 92.53 192.60 93.84 195.98 93.60 C 198.82 93.27 201.20 95.13 203.26 96.83 C 204.99 99.54 204.91 103.01 206.39 105.87 C 207.43 101.09 204.92 96.59 202.13 92.92 C 198.71 88.60 192.49 88.08 187.49 89.36 C 182.58 91.08 180.72 96.18 178.20 100.21 C 174.77 103.46 171.30 106.69 168.02 110.09 C 165.39 113.19 163.83 117.00 162.18 120.66 C 158.59 120.18 154.97 120.33 151.37 120.36 C 150.27 111.64 150.50 101.73 144.15 94.85 C 140.00 88.48 134.01 83.62 127.58 79.72 C 127.53 75.91 127.39 72.09 127.59 68.29 C 127.73 65.72 128.81 63.05 127.57 60.58 C 123.91 58.62 119.29 58.86 116.09 55.96 C 112.54 53.29 108.50 48.87 103.61 50.74 C 96.14 54.84 87.52 56.87 79.00 56.50 C 75.84 56.43 72.80 57.61 69.98 58.94 C 66.20 61.53 62.54 64.74 57.88 65.61 C 54.63 66.22 51.47 67.24 48.24 67.94 C 44.99 68.67 41.46 67.62 38.39 69.21 C 30.83 72.95 25.66 80.80 24.69 89.13 C 24.90 92.15 23.45 94.94 23.41 97.94 C 23.27 101.16 23.69 104.45 22.72 107.57 C 21.57 110.72 23.74 113.71 24.48 116.69 C 26.58 114.83 28.17 112.13 30.96 111.22 C 34.57 109.95 38.51 108.70 42.35 109.71 C 45.13 110.92 47.26 113.15 49.39 115.23 C 45.09 116.94 41.10 119.33 37.34 122.01 C 42.52 122.36 47.49 124.28 51.64 127.38 C 56.09 129.81 56.27 136.05 54.40 140.23 C 53.37 143.87 49.17 144.56 46.30 146.24 C 42.01 148.60 36.45 149.52 32.06 146.92 C 29.81 145.81 29.98 142.99 29.09 140.98 C 28.27 143.10 28.06 145.35 28.34 147.61 C 29.81 147.71 31.28 147.81 32.75 147.89 C 31.44 149.13 30.10 150.33 28.83 151.61 C 31.13 151.21 33.39 150.56 35.72 150.39 C 33.39 152.51 29.78 153.55 28.72 156.80 C 26.59 162.57 24.38 168.65 24.75 174.85 C 27.27 181.40 30.39 187.72 34.23 193.60 C 37.18 198.03 39.18 203.18 43.07 206.91 C 48.44 212.58 54.21 217.98 58.21 224.76 C 59.67 227.50 61.99 229.70 63.24 232.56 C 63.71 236.35 63.07 240.20 63.59 243.99 C 65.22 247.88 66.51 252.41 70.31 254.78 C 73.41 257.54 77.66 258.07 81.23 259.97 C 84.06 261.80 87.38 260.07 90.37 259.65 C 97.45 257.64 104.89 255.54 110.50 250.52 C 113.88 247.70 116.05 243.79 119.21 240.76 C 118.84 245.58 114.65 248.41 111.55 251.57 C 107.42 256.14 101.25 257.76 95.64 259.68 C 92.64 260.82 89.50 261.53 86.32 261.85 C 89.86 265.18 94.08 268.09 96.16 272.65 C 91.73 270.22 88.70 265.95 84.51 263.22 C 81.16 261.93 78.00 260.14 74.49 259.33 C 77.46 263.17 79.46 267.65 80.74 272.32 C 82.31 277.56 86.99 280.92 89.35 285.74 C 85.24 284.10 82.89 279.97 80.70 276.35 C 77.89 271.91 78.46 265.22 73.11 262.67 C 70.91 267.46 67.26 271.36 64.92 276.08 C 62.85 279.40 61.82 283.37 58.99 286.19 C 60.39 279.75 63.64 273.84 67.55 268.59 C 69.63 265.21 72.13 261.87 72.79 257.87 C 70.43 256.50 67.33 255.84 65.96 253.24 C 64.21 250.20 62.78 246.96 61.71 243.61 C 61.34 240.10 61.92 236.55 61.39 233.06 C 60.78 231.07 59.12 229.65 58.14 227.86 C 53.03 218.94 44.89 212.40 38.62 204.39 C 33.13 195.43 27.51 186.47 23.54 176.71 C 22.80 170.99 23.49 165.12 25.82 159.82 C 27.64 156.18 27.59 152.04 27.19 148.09 C 25.92 144.61 21.71 143.06 20.49 139.68 C 20.71 134.97 16.36 131.65 16.28 127.03 C 17.16 123.01 19.71 119.66 21.51 116.04 C 21.74 113.75 21.67 111.44 21.73 109.15 C 21.07 109.23 19.74 109.41 19.07 109.50 C 18.41 106.93 18.33 104.04 16.31 102.07 C 16.90 100.59 17.46 99.10 18.00 97.61 C 17.14 96.78 16.27 95.96 15.40 95.15 C 16.59 93.34 17.70 91.46 18.98 89.71 C 18.41 89.53 17.26 89.17 16.69 89.00 C 17.34 87.56 18.11 86.18 18.86 84.80 C 17.67 85.27 16.48 85.73 15.28 86.18 C 15.88 84.80 16.50 83.44 17.13 82.08 C 15.94 82.70 14.73 83.31 13.53 83.92 C 13.60 81.97 13.70 80.03 13.85 78.09 C 13.23 78.20 11.99 78.43 11.38 78.54 C 11.82 70.21 10.23 61.61 12.48 53.48 C 15.90 50.87 18.03 46.02 22.75 45.73 C 22.65 45.17 22.45 44.06 22.35 43.50 C 24.19 43.49 26.04 43.48 27.88 43.46 C 27.06 41.82 26.24 40.18 25.44 38.54 C 27.40 38.52 29.36 38.55 31.32 38.53 C 30.37 36.92 29.36 35.35 28.31 33.80 C 29.93 33.71 31.54 33.62 33.16 33.54 C 32.48 32.43 31.81 31.33 31.14 30.22 C 33.04 30.40 34.93 30.60 36.83 30.83 C 36.29 29.73 35.75 28.62 35.22 27.52 C 37.03 27.11 38.84 26.77 40.66 26.43 C 40.23 25.09 39.79 23.75 39.37 22.40 C 40.61 22.85 41.84 23.31 43.07 23.76 C 46.06 21.06 49.72 19.28 52.88 16.83 C 58.34 10.71 67.26 10.93 73.95 6.84 M 19.52 96.73 C 19.48 98.66 19.51 100.59 19.54 102.52 C 20.05 102.60 21.07 102.75 21.57 102.82 C 21.55 100.49 21.53 98.15 21.52 95.82 C 21.02 96.05 20.02 96.50 19.52 96.73 M 22.26 138.93 C 23.53 140.44 24.81 141.94 26.08 143.45 C 28.32 138.73 32.82 135.89 37.16 133.32 C 39.26 132.19 41.48 130.93 43.97 131.31 C 46.89 131.13 50.42 132.55 52.77 130.22 C 47.53 126.23 41.04 122.92 34.30 123.40 C 28.43 126.58 23.78 132.27 22.26 138.93 M 38.34 133.79 C 36.42 135.75 34.44 137.67 32.64 139.75 C 32.30 141.44 32.34 143.17 32.25 144.88 C 36.55 148.28 42.04 146.60 46.26 144.03 C 44.89 143.54 43.54 143.00 42.20 142.43 C 42.40 140.11 42.98 137.86 43.75 135.67 C 47.23 134.78 50.81 134.58 54.37 134.27 C 49.68 130.73 43.52 132.55 38.34 133.79 Z" />
<path fill="#010101" opacity="1.00" d=" M 64.71 99.75 C 68.63 97.10 71.67 93.03 76.33 91.60 C 72.03 97.06 65.24 100.04 61.54 106.02 C 60.41 110.18 62.05 113.90 64.52 117.15 C 60.82 115.38 57.98 111.35 58.84 107.15 C 60.17 104.26 61.92 101.44 64.71 99.75 Z" />
<path fill="#fcfcfc" opacity="1.00" d=" M 19.52 96.73 C 20.02 96.50 21.02 96.05 21.52 95.82 C 21.53 98.15 21.55 100.49 21.57 102.82 C 21.07 102.75 20.05 102.60 19.54 102.52 C 19.51 100.59 19.48 98.66 19.52 96.73 Z" />
<path fill="#010101" opacity="1.00" d=" M 68.47 112.12 C 67.87 107.19 70.07 102.66 73.94 99.69 C 75.34 101.49 76.17 105.06 79.06 104.59 C 90.50 103.99 101.99 103.98 113.44 104.45 C 113.07 107.41 114.54 111.12 112.17 113.46 C 106.75 113.40 101.47 114.89 96.04 114.63 C 88.67 114.54 81.30 114.94 73.93 114.71 C 71.72 114.98 70.16 113.22 68.47 112.12 Z" />
<path fill="#010101" opacity="1.00" d=" M 47.72 102.26 C 49.28 102.53 50.91 102.74 52.21 103.72 C 53.74 107.31 54.38 111.23 55.89 114.84 C 55.37 114.78 54.34 114.64 53.82 114.57 C 52.89 111.15 51.57 107.86 50.51 104.49 C 49.55 104.46 48.58 104.43 47.61 104.41 C 47.64 103.87 47.70 102.80 47.72 102.26 Z" />
<path fill="#010101" opacity="1.00" d=" M 180.51 123.57 C 181.55 119.44 182.60 115.31 183.73 111.20 C 186.68 112.96 189.82 114.49 192.34 116.89 C 189.56 116.53 187.02 115.31 184.59 113.98 C 183.96 117.44 183.73 121.41 180.51 123.57 Z" />
<path fill="#010101" opacity="1.00" d=" M 201.27 112.35 C 202.68 113.92 204.64 115.57 204.33 117.93 C 204.46 123.73 205.16 131.24 199.21 134.57 C 199.81 131.98 201.75 129.97 202.30 127.39 C 203.08 122.35 202.51 117.25 201.27 112.35 Z" />
<path fill="#010101" opacity="1.00" d=" M 198.93 112.98 C 203.62 119.51 200.96 128.21 197.25 134.55 C 196.66 134.51 195.48 134.43 194.90 134.40 C 196.76 131.57 198.77 128.72 199.50 125.35 C 200.57 121.24 199.24 117.08 198.93 112.98 Z" />
<path fill="#010101" opacity="1.00" d=" M 75.84 126.41 C 78.28 123.06 80.15 118.10 84.99 117.93 C 91.08 117.57 96.77 120.54 102.74 121.42 C 101.94 124.29 102.48 127.22 103.78 129.86 C 98.22 134.21 90.60 138.24 83.50 135.43 C 79.94 134.41 78.98 130.38 77.70 127.37 C 79.42 128.55 80.89 130.05 82.11 131.74 C 84.69 135.99 90.70 134.98 94.53 133.21 C 92.38 131.92 88.46 130.38 89.65 127.20 C 90.81 123.24 95.60 123.65 98.85 123.25 C 96.96 122.57 95.12 121.67 93.12 121.36 C 87.21 122.49 81.32 123.85 75.84 126.41 M 81.08 121.49 C 84.11 121.50 87.55 121.98 89.92 119.61 C 86.73 118.58 83.69 119.67 81.08 121.49 Z" />
<path fill="#fcfcfc" opacity="1.00" d=" M 81.08 121.49 C 83.69 119.67 86.73 118.58 89.92 119.61 C 87.55 121.98 84.11 121.50 81.08 121.49 Z" />
<path fill="#010101" opacity="1.00" d=" M 52.01 122.39 C 52.65 122.38 53.92 122.36 54.56 122.35 C 56.36 126.77 58.41 131.19 59.14 135.94 C 59.14 141.46 57.17 146.71 56.17 152.09 C 55.30 156.34 53.33 160.21 51.72 164.20 C 50.60 167.03 52.34 169.84 52.70 172.63 C 51.09 170.98 50.03 168.92 49.06 166.86 C 48.59 168.55 47.94 170.23 47.88 172.00 C 48.31 174.31 50.68 175.34 52.29 176.73 C 52.38 175.74 52.55 173.75 52.63 172.75 C 54.60 173.38 56.53 174.12 58.42 174.96 C 55.84 176.76 52.53 178.76 49.44 176.81 C 46.00 175.41 46.29 171.24 46.85 168.23 C 51.91 161.35 54.85 152.93 55.82 144.48 C 49.72 149.15 46.15 156.06 42.52 162.64 C 39.79 167.42 39.92 173.11 38.22 178.24 C 36.65 173.92 38.76 169.52 39.58 165.28 C 41.28 160.17 44.37 155.67 47.26 151.17 C 49.67 147.32 53.56 144.80 56.70 141.61 C 59.54 134.97 55.08 128.13 52.01 122.39 Z" />
<path fill="#010101" opacity="1.00" d=" M 66.69 130.34 C 65.57 127.23 65.19 123.79 67.44 121.06 C 67.44 124.55 67.47 128.06 68.78 131.35 C 68.26 131.10 67.22 130.59 66.69 130.34 Z" />
<path fill="#fcfcfc" opacity="1.00" d=" M 22.26 138.93 C 23.78 132.27 28.43 126.58 34.30 123.40 C 41.04 122.92 47.53 126.23 52.77 130.22 C 50.42 132.55 46.89 131.13 43.97 131.31 C 41.48 130.93 39.26 132.19 37.16 133.32 C 32.82 135.89 28.32 138.73 26.08 143.45 C 24.81 141.94 23.53 140.44 22.26 138.93 Z" />
<path fill="#010101" opacity="1.00" d=" M 178.16 123.75 C 182.41 125.87 185.34 131.22 183.91 135.90 C 183.55 137.72 183.33 139.57 183.26 141.43 C 186.10 139.06 188.79 136.19 192.58 135.41 C 190.13 139.20 186.03 141.56 182.39 144.11 C 181.79 139.77 182.82 135.43 182.39 131.11 C 181.09 128.59 179.14 126.44 178.16 123.75 Z" />
<path fill="#010101" opacity="1.00" d=" M 105.96 138.13 C 110.03 136.88 109.37 131.67 111.02 128.47 C 112.08 132.25 111.49 136.59 108.08 138.97 C 102.57 141.91 96.35 143.12 90.12 142.53 C 90.10 142.23 90.06 141.63 90.04 141.33 C 95.55 141.76 100.96 140.34 105.96 138.13 Z" />
<path fill="#fcfcfc" opacity="1.00" d=" M 38.34 133.79 C 43.52 132.55 49.68 130.73 54.37 134.27 C 50.81 134.58 47.23 134.78 43.75 135.67 C 42.98 137.86 42.40 140.11 42.20 142.43 C 43.54 143.00 44.89 143.54 46.26 144.03 C 42.04 146.60 36.55 148.28 32.25 144.88 C 32.34 143.17 32.30 141.44 32.64 139.75 C 34.44 137.67 36.42 135.75 38.34 133.79 Z" />
<path fill="#010101" opacity="1.00" d=" M 90.34 155.06 C 93.68 151.80 98.12 154.84 101.32 156.72 C 107.09 159.70 110.92 165.09 115.58 169.42 C 119.32 174.25 122.32 180.52 121.30 186.76 C 119.73 183.66 119.30 180.18 118.18 176.93 C 116.11 172.27 112.23 168.81 108.83 165.15 C 104.05 159.86 97.75 155.21 90.34 155.06 Z" />
<path fill="#010101" opacity="1.00" d=" M 79.63 156.59 C 83.13 155.52 87.48 154.90 90.26 157.86 C 90.97 160.30 90.86 162.92 90.52 165.42 C 88.82 168.56 85.09 170.46 81.53 169.40 C 77.00 167.65 72.11 169.36 68.34 172.04 C 68.38 173.28 68.43 174.51 68.48 175.75 C 67.92 175.60 66.79 175.29 66.23 175.14 C 66.42 173.57 65.79 171.46 67.51 170.56 C 72.04 166.93 78.82 166.07 84.03 168.73 C 85.77 167.47 87.64 166.36 89.19 164.85 C 89.42 162.78 89.77 160.38 88.32 158.66 C 85.56 156.28 81.73 157.67 78.77 158.85 C 78.98 158.28 79.42 157.15 79.63 156.59 Z" />
<path fill="#010101" opacity="1.00" d=" M 39.19 183.09 C 39.79 179.97 41.59 176.77 45.03 176.33 C 43.07 179.65 39.64 182.78 40.36 187.01 C 41.39 191.07 42.61 195.30 45.44 198.52 C 47.99 201.46 51.07 203.88 53.61 206.84 C 53.63 205.53 53.66 202.91 53.68 201.60 C 50.78 199.87 50.36 196.44 50.52 193.38 C 54.56 189.88 59.61 187.96 64.50 185.99 C 71.93 184.32 79.17 181.88 86.66 180.52 C 96.67 179.50 107.77 179.49 116.16 185.88 C 121.40 190.43 122.29 197.62 123.42 204.04 C 123.42 205.54 122.88 206.97 122.55 208.43 C 119.23 207.99 115.63 208.94 112.55 207.29 C 108.91 205.40 105.76 202.72 102.19 200.73 C 96.45 199.12 90.43 199.70 84.65 200.66 C 81.14 202.65 77.28 203.71 73.25 203.79 C 68.87 204.52 67.83 209.27 64.44 211.43 C 61.99 211.84 59.50 211.31 57.05 211.16 C 61.99 218.22 65.86 226.09 67.66 234.55 C 67.18 234.55 66.24 234.53 65.77 234.53 C 63.08 222.38 56.56 210.99 47.02 202.92 C 41.29 198.17 38.45 190.42 39.19 183.09 M 72.96 185.73 C 66.09 187.13 59.09 189.23 53.46 193.58 C 51.09 195.24 52.76 198.45 54.23 200.14 C 54.63 197.60 54.99 195.06 55.46 192.53 C 59.48 192.28 63.72 193.13 67.53 191.46 C 72.44 189.63 77.51 188.34 82.42 186.53 C 88.73 184.37 95.20 181.95 101.99 182.62 C 101.95 182.32 101.87 181.71 101.83 181.41 C 91.98 180.59 82.28 182.70 72.96 185.73 M 89.46 186.54 C 88.80 187.89 88.52 189.38 88.15 190.82 C 90.34 190.69 92.51 190.50 94.69 190.32 C 94.75 188.28 94.74 186.24 94.63 184.21 C 92.90 184.96 91.11 185.61 89.46 186.54 M 95.34 189.87 C 97.39 189.76 99.43 189.62 101.48 189.53 C 101.48 188.56 101.48 186.61 101.48 185.64 C 99.96 185.22 98.45 184.72 96.90 184.41 C 94.65 185.43 95.46 187.92 95.34 189.87 M 102.47 185.58 C 102.38 186.92 102.28 188.27 102.18 189.62 C 104.03 189.57 105.88 189.50 107.74 189.42 C 107.54 187.61 107.68 185.62 106.27 184.23 C 104.99 184.64 103.72 185.08 102.47 185.58 M 108.41 189.56 C 111.10 189.65 113.79 189.65 116.48 189.55 C 114.70 188.41 112.99 187.15 111.08 186.23 C 109.09 185.68 109.15 188.40 108.41 189.56 M 82.42 192.61 C 84.21 192.35 85.95 191.83 87.62 191.17 C 87.23 189.68 86.79 188.21 86.32 186.76 C 84.66 188.46 81.74 189.75 82.42 192.61 M 73.92 194.52 C 76.44 194.18 78.95 193.72 81.43 193.14 C 81.38 192.42 81.28 190.99 81.22 190.27 C 77.97 189.57 75.72 192.28 73.92 194.52 M 69.82 193.49 C 69.64 194.19 69.29 195.58 69.11 196.27 C 71.01 195.58 72.84 194.72 74.59 193.71 C 73.01 193.47 71.41 193.26 69.82 193.49 M 61.24 195.63 C 61.80 196.83 62.36 198.02 62.91 199.23 C 64.63 198.28 66.36 197.35 68.05 196.36 C 66.84 193.22 63.61 195.31 61.24 195.63 M 73.94 198.03 C 70.94 199.15 67.92 200.43 65.25 202.20 C 63.34 204.75 61.79 207.58 59.61 209.93 C 61.09 209.69 62.71 209.94 64.09 209.27 C 65.64 207.50 66.57 205.06 68.78 203.95 C 72.97 201.30 78.44 202.51 82.58 199.72 C 85.67 197.63 89.54 198.82 93.00 198.34 C 95.56 198.41 98.26 196.84 100.68 198.18 C 105.58 200.16 109.49 203.88 114.21 206.21 C 116.63 206.99 119.89 207.17 120.44 204.03 C 114.91 202.60 109.79 200.00 104.77 197.34 C 100.18 195.01 94.91 195.57 89.96 195.89 C 84.64 196.88 79.07 196.06 73.94 198.03 M 107.09 196.79 C 108.89 198.70 111.55 198.63 113.96 198.60 C 113.14 195.28 109.56 196.37 107.09 196.79 M 114.54 198.02 C 114.61 200.87 117.19 201.79 119.66 201.48 C 119.40 200.07 119.76 198.39 118.55 197.36 C 117.58 195.90 113.77 195.32 114.54 198.02 Z" />
<path fill="#fcfcfc" opacity="1.00" d=" M 72.96 185.73 C 82.28 182.70 91.98 180.59 101.83 181.41 C 101.87 181.71 101.95 182.32 101.99 182.62 C 95.20 181.95 88.73 184.37 82.42 186.53 C 77.51 188.34 72.44 189.63 67.53 191.46 C 63.72 193.13 59.48 192.28 55.46 192.53 C 54.99 195.06 54.63 197.60 54.23 200.14 C 52.76 198.45 51.09 195.24 53.46 193.58 C 59.09 189.23 66.09 187.13 72.96 185.73 Z" />
<path fill="#fcfcfc" opacity="1.00" d=" M 89.46 186.54 C 91.11 185.61 92.90 184.96 94.63 184.21 C 94.74 186.24 94.75 188.28 94.69 190.32 C 92.51 190.50 90.34 190.69 88.15 190.82 C 88.52 189.38 88.80 187.89 89.46 186.54 Z" />
<path fill="#fcfcfc" opacity="1.00" d=" M 95.34 189.87 C 95.46 187.92 94.65 185.43 96.90 184.41 C 98.45 184.72 99.96 185.22 101.48 185.64 C 101.48 186.61 101.48 188.56 101.48 189.53 C 99.43 189.62 97.39 189.76 95.34 189.87 Z" />
<path fill="#fcfcfc" opacity="1.00" d=" M 102.47 185.58 C 103.72 185.08 104.99 184.64 106.27 184.23 C 107.68 185.62 107.54 187.61 107.74 189.42 C 105.88 189.50 104.03 189.57 102.18 189.62 C 102.28 188.27 102.38 186.92 102.47 185.58 Z" />
<path fill="#fcfcfc" opacity="1.00" d=" M 108.41 189.56 C 109.15 188.40 109.09 185.68 111.08 186.23 C 112.99 187.15 114.70 188.41 116.48 189.55 C 113.79 189.65 111.10 189.65 108.41 189.56 Z" />
<path fill="#fcfcfc" opacity="1.00" d=" M 82.42 192.61 C 81.74 189.75 84.66 188.46 86.32 186.76 C 86.79 188.21 87.23 189.68 87.62 191.17 C 85.95 191.83 84.21 192.35 82.42 192.61 Z" />
<path fill="#fcfcfc" opacity="1.00" d=" M 73.92 194.52 C 75.72 192.28 77.97 189.57 81.22 190.27 C 81.28 190.99 81.38 192.42 81.43 193.14 C 78.95 193.72 76.44 194.18 73.92 194.52 Z" />
<path fill="#fcfcfc" opacity="1.00" d=" M 69.82 193.49 C 71.41 193.26 73.01 193.47 74.59 193.71 C 72.84 194.72 71.01 195.58 69.11 196.27 C 69.29 195.58 69.64 194.19 69.82 193.49 Z" />
<path fill="#fcfcfc" opacity="1.00" d=" M 61.24 195.63 C 63.61 195.31 66.84 193.22 68.05 196.36 C 66.36 197.35 64.63 198.28 62.91 199.23 C 62.36 198.02 61.80 196.83 61.24 195.63 Z" />
<path fill="#fcfcfc" opacity="1.00" d=" M 73.94 198.03 C 79.07 196.06 84.64 196.88 89.96 195.89 C 94.91 195.57 100.18 195.01 104.77 197.34 C 109.79 200.00 114.91 202.60 120.44 204.03 C 119.89 207.17 116.63 206.99 114.21 206.21 C 109.49 203.88 105.58 200.16 100.68 198.18 C 98.26 196.84 95.56 198.41 93.00 198.34 C 89.54 198.82 85.67 197.63 82.58 199.72 C 78.44 202.51 72.97 201.30 68.78 203.95 C 66.57 205.06 65.64 207.50 64.09 209.27 C 62.71 209.94 61.09 209.69 59.61 209.93 C 61.79 207.58 63.34 204.75 65.25 202.20 C 67.92 200.43 70.94 199.15 73.94 198.03 Z" />
<path fill="#fcfcfc" opacity="1.00" d=" M 107.09 196.79 C 109.56 196.37 113.14 195.28 113.96 198.60 C 111.55 198.63 108.89 198.70 107.09 196.79 Z" />
<path fill="#fcfcfc" opacity="1.00" d=" M 114.54 198.02 C 113.77 195.32 117.58 195.90 118.55 197.36 C 119.76 198.39 119.40 200.07 119.66 201.48 C 117.19 201.79 114.61 200.87 114.54 198.02 Z" />
<path fill="#010101" opacity="1.00" d=" M 136.51 200.10 C 136.97 200.17 137.90 200.31 138.36 200.38 C 138.15 205.16 138.45 210.52 135.34 214.52 C 134.09 216.32 132.36 217.69 130.64 219.00 C 132.07 215.31 135.15 212.50 136.27 208.67 C 136.65 205.83 136.48 202.95 136.51 200.10 Z" />
<path fill="#010101" opacity="1.00" d=" M 127.09 212.07 C 128.96 209.20 129.78 205.82 131.25 202.75 C 131.90 207.43 129.91 213.19 125.20 215.00 C 122.73 216.09 119.91 215.58 117.28 215.73 C 117.21 215.40 117.07 214.73 117.00 214.40 C 120.52 214.64 124.14 214.14 127.09 212.07 Z" />
<path fill="#010101" opacity="1.00" d=" M 76.58 212.78 C 80.46 205.54 90.91 202.93 97.23 208.58 C 93.20 208.11 89.18 206.77 85.09 207.67 C 82.01 208.96 79.67 211.51 76.58 212.78 Z" />
<path fill="#010101" opacity="1.00" d=" M 84.81 213.15 C 86.99 211.76 89.47 211.22 92.02 211.67 C 90.38 214.19 87.32 213.52 84.81 213.15 Z" />
<path fill="#010101" opacity="1.00" d=" M 202.11 242.85 C 210.26 244.74 210.93 255.33 217.71 259.24 C 223.41 262.52 228.93 266.09 234.45 269.65 C 237.10 272.57 238.28 276.50 238.84 280.33 C 236.42 277.49 235.39 273.81 233.16 270.86 C 231.51 269.81 229.76 268.95 228.23 267.74 C 222.73 263.55 215.53 261.46 211.66 255.37 C 209.00 250.81 205.56 246.82 202.11 242.85 Z" />
</svg>
