<?xml version="1.0" encoding="utf-8"?>
<!-- Generator: Adobe Illustrator 15.0.2, SVG Export Plug-In . SVG Version: 6.00 Build 0)  -->
<!DOCTYPE svg PUBLIC "-//W3C//DTD SVG 1.1//EN" "http://www.w3.org/Graphics/SVG/1.1/DTD/svg11.dtd">
<svg version="1.1" id="Layer_1" xmlns="http://www.w3.org/2000/svg" xmlns:xlink="http://www.w3.org/1999/xlink" x="0px" y="0px"
	 width="325px" height="234px" viewBox="0 0 325 234" enable-background="new 0 0 325 234" xml:space="preserve">
<path fill="#FFFFFF" d="M0,0h325v197.6c-6.91-3.709-14.43-6.14-21.87-8.52c-23.659-7.17-47.319-14.36-70.96-21.59
	c-2.27-1.03-5.48-1.221-6.85-3.45c-0.73-5.64-1.131-11.47,0.41-17.021c1.35-5.529,3.24-11.16,2.379-16.939
	c-0.709-6.93,0.841-14.19-1.709-20.86c-1.131-2.979-1.881-6.07-2.34-9.21c-0.971-7.33-3.301-14.39-5.761-21.33
	c-1.92-8.19-3.12-16.52-4.1-24.87c-1.03-8.45-4.57-16.28-8.39-23.78c-1.971-3.91-5.511-6.78-7.19-10.86
	c-2.21-4.62-6.81-7.13-10.83-9.87c-2.96-4.65-8.11-7.93-13.66-8.26c-6.069-0.84-12.2,0.89-18.24-0.48
	c-10.33,1.28-20.12,4.91-30.29,6.89c-5.96,1.95-11.7,4.65-17.04,7.94c-5.8,2.48-11,6.35-15.14,11.1
	c-3.55,7.61-11.56,12.63-12.95,21.36c-3.35,6.17-2.65,13.3-3.2,20.07c0.53,7.77,3.01,15.23,3.99,22.95
	c0.85,4.2,0.49,8.69,2.38,12.64c2.39,5.13,3.17,10.83,3.72,16.41c2.82,9.189,9.18,17.7,18.1,21.73c3.17,1.5,5.1,4.949,8.69,5.66
	l0.4,0.14c1.9,0.229,3.82,0.38,5.73,0.56c-0.04,2.28,0.02,4.561,0.05,6.84c-4.22,3.61-9.67,4.99-14.75,6.931
	c-15.88,5.42-31.81,10.67-47.76,15.87c-16.86,7-34.32,13.209-49.37,23.76c-3.02,2.199-5.89,4.63-8.45,7.359V0z"/>
<path d="M125.6,7.45c10.17-1.98,19.96-5.61,30.29-6.89c6.04,1.37,12.17-0.36,18.24,0.48c5.55,0.33,10.7,3.61,13.66,8.26
	c4.021,2.74,8.62,5.25,10.83,9.87c1.68,4.08,5.22,6.95,7.19,10.86c3.819,7.5,7.359,15.33,8.39,23.78
	c0.979,8.35,2.18,16.68,4.1,24.87c2.46,6.94,4.79,14,5.761,21.33c0.459,3.14,1.209,6.23,2.34,9.21c2.55,6.67,1,13.931,1.709,20.86
	c0.861,5.779-1.029,11.41-2.379,16.939c-1.541,5.551-1.141,11.381-0.41,17.021c1.369,2.229,4.58,2.42,6.85,3.45
	c23.641,7.229,47.301,14.42,70.96,21.59c7.44,2.38,14.96,4.811,21.87,8.52V234H198.54c2.05-4.6,3.91-9.29,5.64-14.03
	c0.42-1.67,0.891-3.329,1.35-4.989c-3.649-1.511-7.359-2.851-11.139-4c-5.561-1.871-11.25-4.311-17.261-3.461
	c2.229,3.521,5.341,6.381,7.591,9.881c3.27,5.359,5.699,11.16,8.819,16.6h-20.19c1-3.72,2.101-7.41,3.18-11.109
	c0.771-1.86-0.379-3.61-0.959-5.32c-5.42,1.229-11,0.67-16.18-1.24c-0.64,5.95-0.08,11.96,1.71,17.67h-14.43
	c1.16-4.42,1.51-9.061,3.3-13.3c2.67-6.431,5.96-12.58,8.71-18.98c-7.02-6.01-16.3-8.84-22.71-15.61
	c-5.25-5.199-10.45-10.709-13.78-17.379c-1.53-3.83-1.48-8.051-2.05-12.08c-2.39,6.27-1.16,12.93-0.32,19.35
	c2.49,9.77,7.44,18.609,10.93,28.02c3.68,10.23,7.8,20.32,12.79,29.98H0v-25.23c2.56-2.729,5.43-5.16,8.45-7.359
	c15.05-10.551,32.51-16.76,49.37-23.76c15.95-5.2,31.88-10.45,47.76-15.87c5.08-1.94,10.53-3.32,14.75-6.931
	c-0.03-2.279-0.09-4.56-0.05-6.84c0.99-1.57,2.15-3.029,3.24-4.54c-0.58,1.49-1.15,3-1.75,4.49c-0.54,6.75-0.83,13.899,1.96,20.229
	c5.92,11.271,15.55,20.561,26.98,26.141c3.11,2.061,6.96,3.439,9.08,6.67c0.09,0.68,0.28,2.04,0.37,2.72
	c1.72,0.62,3.26,1.58,4.529,2.91c-1.759-0.08-3.459,0.31-5.109,0.851c-0.9,2.689-2.29,6.479,1.12,8.05
	c5.62,2.6,12.96,3.239,18.17-0.66c-0.28-3.2-2.31-5.65-4.841-7.44c-2.359,0-4.719-0.05-7.069-0.189
	c2.149-4.17,8.14-1.561,11.69-4.03c3.949-1.51,7.649-4.36,8.17-8.851c9.58,2.061,20.31,4.211,29.41-0.649
	c-5.271,1.61-10.771,2.16-16.25,1.47c-4.891-1.109-10.36-1.33-14.33-4.789c-3.061-2.871-5.48-6.471-6.68-10.521
	c-3.601-1.58-7.381-2.67-11.021-4.11c2.05,0.271,4.069,0.68,6.1,1.1c1.49,0.44,2.99,0.86,4.5,1.271
	c-0.13-3.97,0.091-7.94,0.421-11.89c1.469,3.66,2.6,7.58,5.01,10.77c2.42,2.18,5.799,2.62,8.89,3.15
	c5.18-0.52,10.44-0.33,15.46-1.92c0.561-1,1.109-2,1.67-2.99c4.311,1.66,8.4-1.15,11.02-4.4c1.801-3.279,2.601-7.18,2.03-10.89
	c-0.51-3.36,0.3-6.71,0.431-10.06c0.859-5,3.459-9.67,3.289-14.851c-0.039-6.02-0.34-12.04-0.209-18.07
	c0.16-5.55-2.971-10.41-3.67-15.81c-1.24-8.53-3.871-16.83-7.32-24.71c-0.68-2.44-3.62-2.68-5.69-2.13
	c-3.601,0.88-6.12,3.82-8.34,6.58c-0.04,1.89-0.24,3.82-1.17,5.5c2.3,0.28,4.68,0.38,6.78,1.46c-1.32,0.18-3.95,0.54-5.271,0.72
	c-0.97-0.12-1.93-0.24-2.88-0.34c-1.46-1.58-2.73-3.31-3.76-5.19c3.72-6.98,8.689-15.48,17.58-15.83
	c-5.051-9.52-9.36-19.4-14.16-29.05c-1.86-4.01-5.29-7.22-9.52-8.59c-3.211-0.87-5.07,2.6-7.641,3.84c-2.21,2-5.21,1.07-7.83,0.76
	c-0.811,1.08-1.609,2.18-2.609,3.1c-2.551,0.29-5.131-0.05-7.67,0.29c-1.991,1.01-3.291,2.98-5.311,3.94
	c-5.23,1.58-10.9,1.19-16.01,3.24c-7.57,2.5-15.88-1.4-23.22,2.01c-0.37,1.4-0.76,2.79-1.15,4.18c2.93,7.02,1.07,14.75,2.45,22.04
	c0.03,4.31,1.27,9.08-1.17,12.96c-2.25,3.36-1.85,7.76-0.37,11.34c1.56,4,1.75,8.37,3.15,12.43c1.48,5.71,4.49,11.771,1.55,17.58
	c-0.54,0.36-1.63,1.091-2.17,1.45c1.44,3.82,3,7.58,4.52,11.37c-0.87,0.19-1.74,0.38-2.61,0.58c-0.12-1.011-0.25-2.021-0.37-3.03
	c-0.14-2-0.82-3.9-1.44-5.79c-3.54-6.83-8.22-13.069-13.86-18.31c-3.01-2.87-5.61-7.4-10.39-7.01c-4.35-0.45-7.91,3.37-8.43,7.47
	c-1.12,4.59,1.05,9.11,3.24,13.03c3.31,4.979,7.18,10.039,12.77,12.59c3.34,1.55,6.12,4.029,8.64,6.68l0.94,0.98
	c-3.59-0.711-5.52-4.16-8.69-5.66c-8.92-4.03-15.28-12.541-18.1-21.73c-0.55-5.58-1.33-11.28-3.72-16.41
	c-1.89-3.95-1.53-8.44-2.38-12.64c-0.98-7.72-3.46-15.18-3.99-22.95c0.55-6.77-0.15-13.9,3.2-20.07c1.39-8.73,9.4-13.75,12.95-21.36
	c4.14-4.75,9.34-8.62,15.14-11.1C113.9,12.1,119.64,9.4,125.6,7.45z"/>
<path fill="#FFFFFF" d="M181.5,33.43c2.57-1.24,4.43-4.71,7.641-3.84c4.229,1.37,7.659,4.58,9.52,8.59
	c4.8,9.65,9.109,19.53,14.16,29.05c-8.891,0.35-13.86,8.85-17.58,15.83c1.029,1.88,2.3,3.61,3.76,5.19
	c4.439,4.95,13.3,5.25,17.4-0.32c-4.19,3.1-10.24,4.26-14.521,0.66c1.32-0.18,3.95-0.54,5.271-0.72c-2.101-1.08-4.48-1.18-6.78-1.46
	c0.93-1.68,1.13-3.61,1.17-5.5c2.22-2.76,4.739-5.7,8.34-6.58c2.07-0.55,5.011-0.31,5.69,2.13c3.449,7.88,6.08,16.18,7.32,24.71
	c0.699,5.4,3.83,10.26,3.67,15.81c-0.131,6.03,0.17,12.05,0.209,18.07c0.17,5.181-2.43,9.851-3.289,14.851
	c-0.131,3.35-0.94,6.699-0.431,10.06c0.57,3.71-0.229,7.61-2.03,10.89c-2.619,3.25-6.709,6.061-11.02,4.4
	c-0.561,0.99-1.109,1.99-1.67,2.99c-5.02,1.59-10.28,1.4-15.46,1.92c-3.091-0.53-6.47-0.971-8.89-3.15
	c-2.41-3.189-3.541-7.109-5.01-10.77c-0.33,3.949-0.551,7.92-0.421,11.89c-1.51-0.41-3.01-0.83-4.5-1.271
	c-2.03-0.42-4.05-0.829-6.1-1.1c3.64,1.44,7.42,2.53,11.021,4.11c1.199,4.05,3.619,7.649,6.68,10.521
	c3.97,3.459,9.439,3.68,14.33,4.789c5.479,0.69,10.979,0.141,16.25-1.47c-9.101,4.86-19.83,2.71-29.41,0.649
	c-0.521,4.49-4.221,7.341-8.17,8.851c-5.95,0.56-12.051,0.78-17.88-0.75c-0.24-0.37-0.73-1.101-0.98-1.46
	c-2.12-3.23-5.97-4.609-9.08-6.67c-11.43-5.58-21.06-14.87-26.98-26.141c-2.79-6.33-2.5-13.479-1.96-20.229
	c0.6-1.49,1.17-3,1.75-4.49l0.75-1.77c2.45,7.63,4.17,16.77,11.9,20.96c-2.89-3.29-6.26-6.34-7.43-10.73
	c-0.73-4.01-1.55-8.029-3.08-11.81c-1.52-3.79-3.08-7.55-4.52-11.37c0.54-0.359,1.63-1.09,2.17-1.45
	c2.94-5.81-0.07-11.87-1.55-17.58c-1.4-4.06-1.59-8.43-3.15-12.43c-1.48-3.58-1.88-7.98,0.37-11.34c2.44-3.88,1.2-8.65,1.17-12.96
	c-1.38-7.29,0.48-15.021-2.45-22.04c0.39-1.39,0.78-2.78,1.15-4.18c7.34-3.41,15.65,0.49,23.22-2.01
	c5.11-2.05,10.78-1.66,16.01-3.24c2.02-0.96,3.32-2.93,5.311-3.94c2.539-0.34,5.119,0,7.67-0.29c1-0.92,1.799-2.02,2.609-3.1
	C176.29,34.5,179.29,35.43,181.5,33.43 M202.529,80.92c1.201,1.74,1.23,4.62,3.82,4.91c0.211,0.45,0.631,1.34,0.851,1.79
	c2.64-1.16,5.149-2.61,7.34-4.49c0.149-1.69-0.399-3.22-1.34-4.59C209.43,76.73,205.33,78.04,202.529,80.92 M183.21,84.39
	c-9.12,3.18-18.979,0.05-28.27,1.87c-6.34,1.32-9.56,7.38-11.94,12.78c-0.33,1.02-0.65,2.05-0.94,3.08
	c3.51-4.38,8.16-7.63,13.34-9.75c4.47-0.48,8.991-1.15,13.5-0.6c3.709,0.41,7.479,0.52,11.17-0.25c1.85-0.26,4.68-1.13,5.31,1.47
	c0.649,2.68,0.36,5.46,0.46,8.19c1.391-5.69,1.78-12.06-1.05-17.38l-0.22-1.47C184.23,82.85,183.55,83.88,183.21,84.39
	 M169.16,93.38c0.39,1.27,1.21,2.06,2.449,2.37c-0.92,1.15-1.899,2.26-2.92,3.32c-0.549-1.96-0.41-4.14-1.52-5.92
	c-6.82,1.11-14.37,3.41-18.88,8.96c5.49,3.26,11.97,0.16,17.601-1.15c2.569-0.84,5.06-1.93,7.219-3.58
	c0.16,4.28-2.619,7.58-5.689,10.15c-1.449,0.42-4.61,0.74-3.77,2.92c0.56-1.74,1.81-2.47,3.729-2.2c4.101-2.9,7.55-7.93,6.16-13.14
	C172.471,93.83,170.689,93.58,169.16,93.38 M186.029,106.1c-0.399,3.09-0.399,6.26-1.399,9.25c-4.729,0.07-5.21,5.839-6.94,9.16
	c-2.08,5.42-7.709,9.32-7.359,15.551c0.47-5.641,5.29-9.141,7.66-13.91c1.83-3.16,2.5-7.101,5.57-9.4
	c0.219,1.95,0.029,4.37,1.83,5.689c1.68,1.74,4.33,0.631,6.399,0.761c-1.54-2.591-6.66-0.24-6.229-4.12
	C185.96,114.74,187.971,110.4,186.029,106.1 M208.13,108.17c2.58,2.69,2.94,6.69,0.89,9.82c-0.83,1.529-3.709,1.09-3.959,2.92
	c0.449,0.17,1.359,0.52,1.81,0.689c3.33-1.58,5.2-4.979,5.62-8.54c0.939,0.18,1.869,0.36,2.81,0.55c2.5,3.55,8.19,2.98,9.271,7.68
	c-0.141-1.16-0.25-2.32-0.34-3.479c-1.101-0.65-2.221-1.261-3.451-1.591c-3.239-1.24-5.299-4.55-8.819-5.09
	C210.87,109.91,209.811,108.56,208.13,108.17 M192.52,121.26l-0.34-1.119c-0.199,0.659-0.59,1.979-0.789,2.64
	c2.799-0.87,5.68-0.2,8.529-0.15c1.359-0.28,4.15,0.75,3.971-1.51c-2.24-0.49-4.67,0.069-6.98,0.021
	c-0.61-0.541-1.21-1.091-1.801-1.631C194.46,119.95,193.16,120.82,192.52,121.26 M195.109,125.18
	c-6.51,3.62-12.709,7.83-18.43,12.601c-1.209,4.03-0.07,8.2,0.35,12.27c1.301-2.33,2.281-5.01,4.521-6.63
	c9.64-7.82,21.71-11.72,33.54-14.87c2.7-0.8,6.29-0.25,6.061,3.45c0.75-3.48,0.77-7.08,0.18-10.58
	C212.43,120.35,203.48,122.27,195.109,125.18 M204.8,136.79c-5.42,2.64-11.31,4.229-16.55,7.24c-2.029,1.149-3.109,3.329-3.92,5.43
	c6.609,0.16,13.12,1.63,19.72,1.92c4.58-0.58,8.91-3.149,11.341-7.13c0.1-2.74,0.01-5.49,0.18-8.22c0.93-1.08,1.07-2.521,1.32-3.851
	C212.52,132.641,208.75,135.09,204.8,136.79 M209.561,163.8c-4.33,1.88-9.83-0.149-13.42,3.591c5.77-1.44,12.139-0.66,17.469-3.641
	c1.761-1.16,4.131-2.3,4.211-4.71C215.15,160.77,212.67,162.891,209.561,163.8z"/>
<path d="M202.529,80.92c2.801-2.88,6.9-4.19,10.671-2.38c0.94,1.37,1.489,2.9,1.34,4.59c-2.19,1.88-4.7,3.33-7.34,4.49
	c-0.22-0.45-0.64-1.34-0.851-1.79C203.76,85.54,203.73,82.66,202.529,80.92 M211.471,79.95c-0.5,0.96,0.17,3.17,1.51,2.81
	C213.77,81.79,212.779,79.57,211.471,79.95z"/>
<path fill="#AFAFAF" d="M211.471,79.95c1.309-0.38,2.299,1.84,1.51,2.81C211.641,83.12,210.971,80.91,211.471,79.95z"/>
<path d="M183.21,84.39c0.34-0.51,1.021-1.54,1.36-2.06l0.22,1.47c0.33,2.5,0.729,5,1.239,7.48c-4.209-1.7-8.629,0.14-12.959-0.061
	c-5.87-0.06-12.17-1.57-17.67,1.15c-5.18,2.12-9.83,5.37-13.34,9.75c0.29-1.03,0.61-2.06,0.94-3.08c2.38-5.4,5.6-11.46,11.94-12.78
	C164.23,84.44,174.09,87.57,183.21,84.39z"/>
<path fill="#373737" d="M184.79,83.8c2.83,5.32,2.44,11.69,1.05,17.38c-0.1-2.73,0.189-5.51-0.46-8.19
	c-0.63-2.6-3.46-1.73-5.31-1.47c-3.69,0.77-7.461,0.66-11.17,0.25c-4.51-0.55-9.03,0.12-13.5,0.6c5.5-2.72,11.8-1.21,17.67-1.15
	c4.33,0.2,8.75-1.64,12.959,0.061C185.52,88.8,185.12,86.3,184.79,83.8z"/>
<path fill="#5D5D5D" d="M199,88.25c0.95,0.1,1.91,0.22,2.88,0.34c4.28,3.6,10.33,2.44,14.521-0.66
	C212.3,93.5,203.439,93.2,199,88.25z"/>
<path d="M169.16,93.38c1.529,0.2,3.311,0.45,4.38,1.73c1.39,5.21-2.06,10.24-6.16,13.14c-1.92-0.27-3.17,0.46-3.729,2.2
	c-0.84-2.18,2.32-2.5,3.77-2.92c3.07-2.57,5.85-5.87,5.689-10.15c-2.159,1.65-4.649,2.74-7.219,3.58
	c-5.631,1.31-12.111,4.41-17.601,1.15c4.51-5.55,12.06-7.85,18.88-8.96c1.109,1.78,0.971,3.96,1.52,5.92
	c1.021-1.06,2-2.17,2.92-3.32C170.37,95.44,169.55,94.65,169.16,93.38 M150.98,101.09c1.21,0.94,2.59,1.37,4.15,1.21
	c1.46-0.57,2.99-0.91,4.54-1.16c-0.74-1.29-1.47-2.57-2.22-3.84C155.26,98.51,153.09,99.76,150.98,101.09z"/>
<path fill="#FFFFFF" d="M150.98,101.09c2.11-1.33,4.28-2.58,6.47-3.79c0.75,1.27,1.48,2.55,2.22,3.84
	c-1.55,0.25-3.08,0.59-4.54,1.16C153.57,102.46,152.19,102.03,150.98,101.09z"/>
<path fill="#323232" d="M186.029,106.1c1.941,4.3-0.069,8.64-0.469,12.98c-0.431,3.88,4.689,1.529,6.229,4.12
	c-2.069-0.13-4.72,0.979-6.399-0.761c-1.801-1.319-1.611-3.739-1.83-5.689c-3.07,2.3-3.74,6.24-5.57,9.4
	c-2.37,4.77-7.19,8.27-7.66,13.91c-0.35-6.23,5.279-10.131,7.359-15.551c1.73-3.32,2.211-9.09,6.94-9.16
	C185.63,112.36,185.63,109.19,186.029,106.1z"/>
<path fill="#FEFEFE" d="M88.56,114.03c0.52-4.1,4.08-7.92,8.43-7.47c4.78-0.39,7.38,4.14,10.39,7.01
	c5.64,5.241,10.32,11.48,13.86,18.31c0.62,1.89,1.3,3.79,1.44,5.79c-0.52,2.641-0.83,5.391-2.04,7.83
	c-2.28,1.22-4.96,0.87-7.43,0.83c-2.52-2.65-5.3-5.13-8.64-6.68c-5.59-2.551-9.46-7.61-12.77-12.59
	C89.61,123.141,87.44,118.62,88.56,114.03 M92.64,110.68c-2.88,4-2.2,9.669,0.01,13.83c3.45,6.54,9.66,12.51,17.41,12.881
	c2-1.75,4.5-3.101,5.88-5.44c0.48-1.94-0.06-3.94-0.24-5.88c-1.61,0.149-3.68,1.83-4.88,0.09c-2-2.35,0.05-7.221-3.82-8.29
	c-2.7,0.31-4.63,2.46-5.74,4.79c2.09-0.891,4-2.51,6.39-2.38c-0.49,3.78,1,8.92,5.72,8.56c0.24,0.53,0.74,1.6,0.99,2.141
	c-1.51,1.879-3.35,3.459-5.34,4.81c-7.47-1.32-12.66-7.61-15.74-14.13c-0.73-3.29-1.14-7.41,1.3-10.11
	c1.21-1.55,3.43-0.46,4.98-0.34c-1.25,1.1-2.5,2.19-3.66,3.39c1.89-0.06,3.65-0.72,5.36-1.46
	C102.21,108.27,94.85,107.23,92.64,110.68z"/>
<path fill="#5D5D5D" d="M92.64,110.68c2.21-3.45,9.57-2.41,8.62,2.46c-1.71,0.74-3.47,1.4-5.36,1.46c1.16-1.2,2.41-2.29,3.66-3.39
	c-1.55-0.12-3.77-1.21-4.98,0.34c-2.44,2.7-2.03,6.82-1.3,10.11c3.08,6.52,8.27,12.81,15.74,14.13c1.99-1.351,3.83-2.931,5.34-4.81
	c-0.25-0.541-0.75-1.61-0.99-2.141c-4.72,0.36-6.21-4.779-5.72-8.56c-2.39-0.13-4.3,1.489-6.39,2.38c1.11-2.33,3.04-4.48,5.74-4.79
	c3.87,1.069,1.82,5.94,3.82,8.29c1.2,1.74,3.27,0.06,4.88-0.09c0.18,1.939,0.72,3.939,0.24,5.88c-1.38,2.34-3.88,3.69-5.88,5.44
	c-7.75-0.371-13.96-6.341-17.41-12.881C90.44,120.35,89.76,114.68,92.64,110.68z"/>
<path fill="#323232" d="M208.13,108.17c1.681,0.39,2.74,1.74,3.83,2.96c3.521,0.54,5.58,3.85,8.819,5.09
	c1.23,0.33,2.351,0.94,3.451,1.591c0.09,1.159,0.199,2.319,0.34,3.479c-1.08-4.7-6.771-4.13-9.271-7.68
	c-0.94-0.19-1.87-0.37-2.81-0.55c-0.42,3.56-2.29,6.959-5.62,8.54c-0.45-0.17-1.36-0.52-1.81-0.689
	c0.25-1.83,3.129-1.391,3.959-2.92C211.07,114.86,210.71,110.86,208.13,108.17z"/>
<path fill="#373737" d="M192.52,121.26c0.641-0.439,1.94-1.31,2.59-1.75c0.591,0.54,1.19,1.09,1.801,1.631
	c2.311,0.049,4.74-0.511,6.98-0.021c0.18,2.26-2.611,1.229-3.971,1.51c-2.85-0.05-5.73-0.72-8.529,0.15
	c0.199-0.66,0.59-1.98,0.789-2.64L192.52,121.26z"/>
<path d="M195.109,125.18c8.371-2.91,17.32-4.83,26.221-3.76c0.59,3.5,0.57,7.1-0.18,10.58c0.229-3.7-3.36-4.25-6.061-3.45
	c-11.83,3.15-23.9,7.05-33.54,14.87c-2.239,1.62-3.22,4.3-4.521,6.63c-0.42-4.069-1.559-8.239-0.35-12.27
	C182.4,133.01,188.6,128.8,195.109,125.18z"/>
<path d="M204.8,136.79c3.95-1.7,7.72-4.149,12.091-4.61c-0.25,1.33-0.391,2.771-1.32,3.851c-0.17,2.729-0.08,5.479-0.18,8.22
	c-2.431,3.98-6.761,6.55-11.341,7.13c-6.6-0.29-13.11-1.76-19.72-1.92c0.811-2.101,1.891-4.28,3.92-5.43
	C193.49,141.02,199.38,139.43,204.8,136.79 M193.109,142.83c2.761,1.38,6.091,1.22,9.061,0.74c3.84-0.98,9.03-2.631,8.551-7.561
	C204.82,138.17,199.38,141.6,193.109,142.83 M208.79,144.82c-4.851,2.35-10.33,2.63-15.58,3.369
	c6.511,2.051,14.851,2.53,19.761-3.09C212.779,142.561,210.061,144.41,208.79,144.82z"/>
<path fill="#FFFFFF" d="M193.109,142.83c6.271-1.23,11.711-4.66,17.611-6.82c0.479,4.93-4.711,6.58-8.551,7.561
	C199.2,144.05,195.87,144.21,193.109,142.83z"/>
<path fill="#323232" d="M122.68,137.67c0.12,1.01,0.25,2.02,0.37,3.03c0.87-0.2,1.74-0.39,2.61-0.58c1.53,3.78,2.35,7.8,3.08,11.81
	c1.17,4.391,4.54,7.44,7.43,10.73c-7.73-4.19-9.45-13.33-11.9-20.96l-0.75,1.77c-1.09,1.511-2.25,2.97-3.24,4.54
	c-1.91-0.18-3.83-0.33-5.73-0.56l-0.4-0.14l-0.94-0.98c2.47,0.04,5.15,0.39,7.43-0.83C121.85,143.061,122.16,140.311,122.68,137.67z
	"/>
<path fill="#FEFEFE" d="M208.79,144.82c1.271-0.41,3.989-2.26,4.181,0.279c-4.91,5.62-13.25,5.141-19.761,3.09
	C198.46,147.45,203.939,147.17,208.79,144.82z"/>
<path fill="#FFFFFF" d="M119.82,176c-0.84-6.42-2.07-13.08,0.32-19.35c0.57,4.029,0.52,8.25,2.05,12.08
	c3.33,6.67,8.53,12.18,13.78,17.379c6.41,6.771,15.69,9.601,22.71,15.61c-2.75,6.4-6.04,12.55-8.71,18.98
	c-1.79,4.239-2.14,8.88-3.3,13.3h-3.13c-4.99-9.66-9.11-19.75-12.79-29.98C127.26,194.609,122.31,185.77,119.82,176z"/>
<path fill="#373737" d="M209.561,163.8c3.109-0.909,5.59-3.03,8.26-4.76c-0.08,2.41-2.45,3.55-4.211,4.71
	c-5.33,2.98-11.699,2.2-17.469,3.641C199.73,163.65,205.23,165.68,209.561,163.8z"/>
<path fill="#323232" d="M159.79,201c0.25,0.359,0.74,1.09,0.98,1.46c5.83,1.53,11.93,1.31,17.88,0.75
	c-3.551,2.47-9.541-0.14-11.69,4.03c-0.771-0.17-1.521-0.391-2.271-0.61c-1.27-1.33-2.81-2.29-4.529-2.91
	C160.07,203.04,159.88,201.68,159.79,201z"/>
<path fill="#FFFFFF" d="M159.58,207.48c1.65-0.541,3.35-0.931,5.109-0.851c0.75,0.22,1.5,0.44,2.271,0.61
	c2.351,0.14,4.71,0.189,7.069,0.189c2.531,1.79,4.561,4.24,4.841,7.44c-5.21,3.899-12.55,3.26-18.17,0.66
	C157.29,213.96,158.68,210.17,159.58,207.48z"/>
<path fill="#FFFFFF" d="M177.13,207.52c6.011-0.85,11.7,1.59,17.261,3.461c3.779,1.149,7.489,2.489,11.139,4
	c-0.459,1.66-0.93,3.319-1.35,4.989c-1.729,4.74-3.59,9.431-5.64,14.03h-5c-3.12-5.439-5.55-11.24-8.819-16.6
	C182.471,213.9,179.359,211.04,177.13,207.52z"/>
<path fill="#FFFFFF" d="M159.39,216.33c5.18,1.91,10.76,2.47,16.18,1.24c0.58,1.71,1.729,3.46,0.959,5.32
	c-1.079,3.699-2.18,7.39-3.18,11.109H161.1C159.31,228.29,158.75,222.28,159.39,216.33z"/>
</svg>
