<?xml version="1.0" encoding="UTF-8" ?>
<!DOCTYPE svg PUBLIC "-//W3C//DTD SVG 1.1//EN" "http://www.w3.org/Graphics/SVG/1.1/DTD/svg11.dtd">
<svg width="277pt" height="265pt" viewBox="0 0 277 265" version="1.1" xmlns="http://www.w3.org/2000/svg">
<path fill="#ffffff" opacity="1.00" d=" M 0.00 0.00 L 277.00 0.00 L 277.00 265.00 L 264.39 265.00 C 267.55 252.53 270.91 239.96 270.93 227.00 C 270.85 219.66 271.18 212.26 270.02 204.98 C 268.95 196.91 268.46 188.79 267.23 180.74 C 266.91 179.56 266.62 178.38 266.36 177.20 C 267.84 176.40 268.62 174.97 268.76 173.34 L 268.22 171.99 C 268.04 170.45 267.92 168.89 267.83 167.35 C 268.56 167.75 270.04 168.56 270.78 168.96 C 270.31 169.79 269.38 171.46 268.91 172.29 C 271.78 170.84 272.73 167.68 273.99 164.99 C 274.96 161.56 274.93 157.93 274.43 154.43 C 273.68 151.14 271.71 148.33 270.70 145.14 C 269.58 141.18 269.68 136.97 268.38 133.05 C 266.89 127.85 264.31 123.02 263.08 117.73 C 261.69 113.33 261.77 108.52 259.69 104.34 C 257.70 100.63 255.20 96.93 251.29 95.06 C 247.39 93.02 244.10 90.07 241.20 86.80 C 236.00 82.44 230.23 78.76 225.43 73.93 C 225.40 72.67 225.38 71.41 225.34 70.16 C 222.62 68.39 221.46 65.18 219.13 63.02 C 216.23 60.69 215.76 56.78 214.58 53.48 C 213.12 51.46 211.54 49.53 209.97 47.60 C 207.72 44.88 208.80 40.90 206.85 38.02 C 205.76 36.28 203.63 35.78 201.92 34.89 C 200.27 29.74 197.56 25.03 195.07 20.27 C 192.72 15.79 188.87 12.41 185.37 8.87 C 183.19 8.10 181.13 7.04 179.26 5.69 C 178.69 5.65 177.56 5.57 176.99 5.54 C 176.07 4.77 175.17 4.00 174.26 3.24 C 171.98 1.07 168.52 0.72 165.52 0.98 C 165.22 1.16 164.61 1.52 164.30 1.71 C 163.20 2.21 162.08 2.67 160.94 3.09 L 160.28 3.32 C 156.43 3.11 152.54 3.25 148.92 4.69 C 147.60 5.66 146.22 6.54 144.72 7.21 C 142.72 7.73 140.11 7.79 139.05 9.89 C 136.85 13.62 133.31 16.23 130.29 19.25 C 128.33 22.08 127.49 25.48 126.97 28.84 C 125.47 36.89 125.36 45.58 129.23 53.02 C 132.11 58.11 135.08 63.16 137.48 68.50 C 140.33 74.82 145.00 80.21 147.05 86.90 C 148.81 92.01 153.44 95.19 157.61 98.22 C 160.26 100.48 162.98 102.80 164.66 105.92 C 162.15 109.26 161.42 113.51 159.10 116.96 C 156.75 120.51 155.30 124.58 152.68 127.95 C 150.48 132.47 146.46 136.03 145.37 141.06 C 143.23 149.35 138.45 156.54 135.29 164.41 C 133.60 167.70 131.11 170.53 129.75 173.99 C 129.71 175.63 130.17 177.25 129.98 178.89 C 127.45 183.63 123.39 187.25 119.73 191.10 C 119.15 191.30 117.99 191.69 117.40 191.89 C 116.35 192.70 115.31 193.52 114.27 194.34 C 108.80 194.01 104.00 196.85 98.74 197.71 C 96.26 198.79 93.61 199.80 91.78 201.90 C 89.24 209.11 92.53 216.49 95.11 223.18 C 96.24 226.43 99.84 228.09 103.12 227.74 C 104.54 228.40 105.96 229.05 107.38 229.70 C 110.42 227.18 112.48 223.06 116.64 222.27 C 119.22 220.12 120.85 217.15 121.91 214.01 C 127.01 213.21 131.49 210.42 135.97 208.00 C 134.85 217.99 132.28 227.90 132.95 238.03 C 132.95 239.45 133.58 240.75 134.13 242.03 C 132.32 249.55 132.02 257.29 132.22 265.00 L 0.00 265.00 L 0.00 0.00 M 3.56 55.93 C 3.11 58.86 2.82 62.47 5.44 64.50 C 7.83 67.37 12.53 66.41 14.50 69.75 C 17.19 73.35 12.57 78.67 8.55 77.23 C 7.18 76.47 6.10 75.29 4.95 74.24 C 4.31 74.31 3.03 74.45 2.39 74.52 C 1.61 78.04 5.07 80.45 8.08 81.16 C 14.60 82.92 21.61 75.54 18.83 69.15 C 17.63 65.23 13.65 63.50 10.02 62.54 C 6.77 61.76 6.55 56.98 9.40 55.50 C 11.63 54.06 13.83 56.05 15.47 57.43 C 15.96 57.42 16.95 57.41 17.45 57.40 C 17.76 56.56 18.08 55.71 18.39 54.87 C 16.49 53.34 14.73 51.05 12.01 51.28 C 8.54 50.76 5.02 52.80 3.56 55.93 M 29.91 51.67 C 24.31 54.12 19.89 59.67 20.20 65.99 C 19.70 75.05 29.05 83.24 37.99 81.10 C 44.65 79.78 49.70 73.73 50.37 67.07 C 50.79 59.18 44.52 52.14 36.94 50.66 C 34.56 50.65 32.23 51.18 29.91 51.67 M 28.77 100.84 C 27.82 108.85 28.59 116.94 28.31 124.99 C 28.55 127.04 27.51 130.25 30.11 131.15 C 34.72 131.46 39.36 131.29 43.98 131.26 C 46.51 131.63 47.65 127.36 44.95 126.80 C 40.81 126.46 36.65 126.84 32.51 126.53 C 32.48 117.97 32.90 109.38 32.27 100.84 C 31.10 100.84 29.93 100.84 28.77 100.84 M 1.87 115.98 C 2.09 122.38 6.27 128.30 12.33 130.40 C 17.29 132.24 23.28 130.90 26.91 127.03 C 26.15 126.01 25.25 125.15 24.20 124.43 C 19.94 127.47 13.14 127.85 9.50 123.63 C 5.05 119.59 5.18 111.64 9.84 107.82 C 13.11 104.42 18.45 104.62 22.50 106.33 C 23.76 106.95 25.16 106.82 26.41 106.27 C 27.13 102.96 23.22 101.97 20.82 101.18 C 11.62 98.33 1.68 106.54 1.87 115.98 M 53.57 101.83 C 46.34 104.80 42.48 113.63 45.21 120.97 C 47.13 126.42 52.28 130.44 57.98 131.19 C 67.91 132.25 77.07 121.74 74.04 112.03 C 71.99 103.42 61.72 98.04 53.57 101.83 M 77.38 105.43 C 75.89 108.24 76.70 111.94 78.95 114.11 C 81.54 117.05 86.14 116.58 88.57 119.77 C 88.56 121.22 88.55 122.67 88.54 124.12 C 87.82 124.95 87.11 125.79 86.40 126.62 C 84.02 126.81 81.32 127.20 79.59 125.13 C 78.19 123.43 76.15 124.31 75.18 125.97 C 77.67 129.57 82.30 132.77 86.74 130.56 C 91.99 128.83 94.58 122.07 91.59 117.35 C 89.89 114.14 86.25 113.07 83.04 112.05 C 80.01 110.90 80.58 105.13 84.07 105.16 C 86.95 104.06 89.33 109.36 91.53 106.41 C 92.08 103.00 87.92 101.07 85.06 100.81 C 82.04 101.00 78.59 102.42 77.38 105.43 M 93.71 101.95 C 93.59 111.31 93.29 120.70 93.69 130.06 C 94.23 130.38 95.30 131.01 95.83 131.33 C 101.72 130.81 107.90 132.32 113.58 130.33 C 113.44 129.14 113.31 127.96 113.17 126.78 C 108.05 126.58 102.92 126.71 97.80 126.66 C 97.80 123.86 97.81 121.07 97.82 118.28 C 101.25 118.18 104.69 118.48 108.11 118.14 C 109.73 117.74 110.00 115.35 108.72 114.52 C 105.13 114.01 101.47 114.40 97.85 114.28 C 97.96 111.17 97.35 107.94 98.21 104.91 C 103.23 104.50 108.33 105.45 113.35 104.43 C 113.42 103.42 113.49 102.40 113.56 101.39 C 107.53 99.79 101.08 100.95 94.88 100.67 C 94.59 100.99 94.00 101.63 93.71 101.95 M 119.38 124.54 C 115.87 125.48 117.16 131.77 120.94 130.67 C 124.08 131.06 124.48 126.83 123.00 124.95 C 121.90 124.34 120.58 124.18 119.38 124.54 M 129.34 125.35 C 127.27 126.68 128.92 129.15 129.75 130.70 C 131.79 130.60 134.98 131.00 134.96 128.06 C 135.75 124.76 131.44 123.10 129.34 125.35 M 139.62 126.37 C 139.64 126.89 139.68 127.92 139.71 128.43 C 140.61 129.42 141.34 130.99 142.96 130.70 C 146.26 131.43 147.86 126.39 145.04 124.85 C 143.18 123.45 140.92 124.93 139.62 126.37 Z" />
<path fill="#6f6f6f" opacity="1.00" d=" M 164.30 1.71 C 164.61 1.52 165.22 1.16 165.52 0.98 C 168.52 0.72 171.98 1.07 174.26 3.24 C 173.92 3.33 173.23 3.53 172.88 3.63 C 171.37 3.22 169.76 2.88 168.33 3.74 C 167.04 2.95 165.71 2.25 164.30 1.71 Z" />
<path fill="#000000" opacity="1.00" d=" M 164.30 1.71 C 165.71 2.25 167.04 2.95 168.33 3.74 C 166.80 4.51 165.32 5.35 163.90 6.30 C 165.60 6.44 167.30 6.53 169.01 6.61 C 169.41 7.02 170.21 7.85 170.60 8.26 C 170.68 8.98 170.83 10.43 170.91 11.15 C 170.47 11.21 169.61 11.32 169.17 11.37 C 171.80 13.26 168.89 14.96 167.23 16.06 C 168.37 16.15 169.49 16.25 170.63 16.35 C 170.28 17.21 169.57 18.92 169.21 19.77 C 169.38 21.39 169.78 22.97 170.91 24.21 C 171.01 23.28 171.20 21.43 171.30 20.50 C 172.17 19.30 173.01 18.08 173.83 16.85 C 172.86 15.93 172.20 14.80 171.78 13.55 C 176.42 12.78 181.14 11.48 185.85 12.63 C 185.65 11.71 185.45 10.79 185.25 9.87 C 182.05 8.45 178.79 7.10 175.38 6.25 C 174.55 5.37 173.72 4.49 172.88 3.63 C 173.23 3.53 173.92 3.33 174.26 3.24 C 175.17 4.00 176.07 4.77 176.99 5.54 C 177.56 5.57 178.69 5.65 179.26 5.69 C 181.13 7.04 183.19 8.10 185.37 8.87 C 188.87 12.41 192.72 15.79 195.07 20.27 C 197.56 25.03 200.27 29.74 201.92 34.89 C 203.63 35.78 205.76 36.28 206.85 38.02 C 208.80 40.90 207.72 44.88 209.97 47.60 C 211.54 49.53 213.12 51.46 214.58 53.48 C 215.76 56.78 216.23 60.69 219.13 63.02 C 221.46 65.18 222.62 68.39 225.34 70.16 C 225.38 71.41 225.40 72.67 225.43 73.93 C 230.23 78.76 236.00 82.44 241.20 86.80 C 244.10 90.07 247.39 93.02 251.29 95.06 C 255.20 96.93 257.70 100.63 259.69 104.34 C 261.77 108.52 261.69 113.33 263.08 117.73 C 264.31 123.02 266.89 127.85 268.38 133.05 C 269.68 136.97 269.58 141.18 270.70 145.14 C 271.71 148.33 273.68 151.14 274.43 154.43 C 274.93 157.93 274.96 161.56 273.99 164.99 C 272.73 167.68 271.78 170.84 268.91 172.29 C 269.38 171.46 270.31 169.79 270.78 168.96 C 271.14 168.57 271.51 168.18 271.89 167.81 C 273.02 164.33 274.86 160.79 274.09 157.02 C 273.84 153.86 272.23 151.12 270.84 148.35 C 269.33 145.37 269.30 141.99 268.66 138.78 C 267.70 130.78 263.03 123.88 261.78 115.94 C 260.61 108.59 258.39 100.19 251.40 96.28 C 246.60 93.58 242.53 89.88 238.81 85.86 C 234.19 82.70 229.21 79.77 225.71 75.31 C 225.02 75.91 224.32 76.51 223.63 77.10 C 223.67 76.03 223.73 74.96 223.80 73.89 C 226.12 71.20 222.12 69.58 221.17 67.33 C 219.91 65.84 219.03 62.63 216.52 63.46 C 215.90 65.96 216.77 68.47 216.87 70.98 C 215.79 73.98 214.53 76.91 213.47 79.92 L 213.19 80.50 C 211.60 83.85 210.41 87.36 208.97 90.77 C 208.35 89.93 208.13 88.55 206.99 88.20 C 205.34 90.55 203.72 92.92 201.98 95.21 C 198.20 97.05 196.93 101.28 194.35 104.31 C 194.03 104.48 193.38 104.83 193.06 105.01 C 190.46 106.41 188.06 108.16 185.34 109.33 C 180.29 111.24 174.67 110.49 169.58 112.02 C 168.30 110.55 167.07 109.03 165.54 107.82 C 165.49 108.72 165.39 110.53 165.34 111.44 C 163.57 114.37 163.59 117.96 161.88 120.90 C 160.54 123.65 158.02 125.75 157.38 128.82 C 155.48 136.83 151.79 144.30 150.13 152.37 C 148.30 156.32 148.85 160.75 147.49 164.81 C 146.24 169.39 145.01 173.97 144.13 178.64 C 140.51 178.00 137.03 176.48 133.34 176.36 C 132.29 177.81 131.04 179.59 131.37 181.47 C 134.13 184.36 138.13 185.68 141.73 187.23 C 141.43 188.09 141.12 188.94 140.80 189.80 C 140.99 192.39 140.18 194.78 138.69 196.88 C 137.36 202.56 138.39 208.60 136.29 214.15 C 134.80 218.34 135.35 222.93 133.83 227.08 C 133.52 231.05 133.57 235.03 133.72 239.01 C 135.78 241.29 134.62 244.46 134.08 247.11 C 132.60 252.95 132.65 259.01 132.73 265.00 L 132.22 265.00 C 132.02 257.29 132.32 249.55 134.13 242.03 C 133.58 240.75 132.95 239.45 132.95 238.03 C 132.28 227.90 134.85 217.99 135.97 208.00 C 131.49 210.42 127.01 213.21 121.91 214.01 C 120.85 217.15 119.22 220.12 116.64 222.27 C 112.48 223.06 110.42 227.18 107.38 229.70 C 105.96 229.05 104.54 228.40 103.12 227.74 C 99.84 228.09 96.24 226.43 95.11 223.18 C 92.53 216.49 89.24 209.11 91.78 201.90 C 93.61 199.80 96.26 198.79 98.74 197.71 C 104.00 196.85 108.80 194.01 114.27 194.34 C 115.31 193.52 116.35 192.70 117.40 191.89 C 117.99 191.69 119.15 191.30 119.73 191.10 C 123.39 187.25 127.45 183.63 129.98 178.89 C 130.17 177.25 129.71 175.63 129.75 173.99 C 131.11 170.53 133.60 167.70 135.29 164.41 C 138.45 156.54 143.23 149.35 145.37 141.06 C 146.46 136.03 150.48 132.47 152.68 127.95 C 155.30 124.58 156.75 120.51 159.10 116.96 C 161.42 113.51 162.15 109.26 164.66 105.92 C 162.98 102.80 160.26 100.48 157.61 98.22 C 157.69 97.36 157.84 95.63 157.92 94.77 C 159.33 94.64 160.75 94.55 162.17 94.37 L 162.84 93.71 C 163.07 93.48 163.52 93.02 163.75 92.78 C 163.94 92.60 164.31 92.23 164.50 92.05 C 166.49 91.19 168.56 90.55 170.63 89.88 C 169.47 89.50 168.32 89.12 167.17 88.75 C 168.41 88.45 169.65 88.13 170.89 87.80 C 171.11 88.25 171.56 89.15 171.78 89.60 C 174.51 89.01 177.13 88.00 179.61 86.74 C 181.17 86.54 182.73 86.30 184.25 85.87 C 184.98 86.20 185.71 86.54 186.44 86.87 C 186.94 88.45 187.42 90.03 187.90 91.62 C 183.64 90.32 181.37 94.97 177.76 96.15 C 173.28 97.74 168.53 98.43 164.04 99.97 C 162.84 99.52 161.64 99.09 160.44 98.67 C 161.38 99.90 162.37 101.11 163.29 102.37 C 166.34 107.54 172.72 112.23 178.82 109.20 C 180.48 109.23 182.14 109.21 183.80 109.14 C 186.21 106.84 189.67 106.16 192.34 104.20 C 192.38 103.92 192.44 103.36 192.47 103.08 C 195.24 101.52 196.97 98.77 198.53 96.10 C 198.99 95.90 199.91 95.49 200.37 95.29 L 200.38 94.67 C 200.83 94.29 201.72 93.52 202.16 93.13 C 203.19 91.74 204.27 90.39 205.38 89.07 C 205.54 87.63 205.67 86.18 205.90 84.75 C 206.06 84.16 206.36 83.00 206.51 82.42 C 206.80 82.31 207.37 82.08 207.65 81.97 C 207.43 83.34 207.48 84.69 207.82 86.03 C 208.14 86.46 208.79 87.32 209.12 87.75 C 211.05 81.93 213.74 76.40 215.64 70.57 C 215.60 69.04 214.98 67.58 214.73 66.09 C 212.92 68.29 211.19 70.56 209.25 72.63 C 209.35 71.97 209.55 70.64 209.65 69.97 C 209.81 69.67 210.14 69.07 210.30 68.77 C 212.19 66.47 214.19 64.23 215.67 61.64 C 215.60 61.26 215.46 60.50 215.39 60.12 C 214.34 55.96 212.55 51.17 208.67 48.92 C 208.73 51.90 206.73 55.00 208.18 57.85 C 208.27 58.69 208.36 59.53 208.45 60.37 C 207.48 61.72 206.50 63.06 205.39 64.29 C 205.89 66.69 206.42 69.08 206.92 71.47 C 207.34 72.28 207.79 73.08 208.26 73.86 C 208.41 76.53 208.38 79.22 207.67 81.82 C 207.89 75.69 204.63 70.17 204.56 64.09 C 203.88 64.11 202.53 64.16 201.85 64.18 C 201.66 63.56 201.28 62.32 201.08 61.70 C 202.43 62.15 203.78 62.59 205.14 63.00 C 205.89 61.71 206.63 60.43 207.37 59.14 C 205.79 56.37 206.65 53.26 207.21 50.35 C 207.57 49.25 207.97 48.15 208.39 47.07 C 207.50 44.67 207.56 42.03 206.58 39.66 C 205.17 36.89 201.95 36.16 199.25 35.29 C 197.86 35.86 196.47 36.41 195.10 37.02 C 195.51 40.91 195.36 44.83 195.35 48.73 C 195.31 49.99 195.87 51.15 196.18 52.34 C 195.23 53.35 194.26 54.35 193.29 55.34 C 189.92 55.17 188.07 52.24 185.91 50.09 C 182.79 46.45 177.71 45.76 174.14 42.71 C 172.02 40.02 170.80 36.76 168.84 33.98 C 166.21 32.38 162.87 31.75 160.03 33.19 C 157.62 33.52 158.00 36.29 157.30 37.98 C 156.28 40.23 154.81 42.23 153.66 44.40 C 151.39 45.47 149.32 46.89 147.43 48.51 C 147.34 50.28 147.26 52.06 147.16 53.83 C 145.59 52.61 144.45 50.98 143.17 49.50 C 139.83 50.57 136.33 50.53 132.87 50.39 C 133.06 47.98 131.49 47.16 129.32 47.13 C 129.34 43.32 128.83 39.22 131.05 35.85 C 132.31 34.24 133.54 32.59 134.57 30.83 C 133.86 31.18 132.44 31.89 131.73 32.25 C 131.73 30.48 131.72 28.72 131.71 26.95 C 130.79 27.53 129.88 28.13 128.98 28.73 C 128.61 27.84 128.26 26.95 127.90 26.06 C 128.61 25.94 130.04 25.71 130.75 25.60 C 130.31 25.20 129.43 24.39 128.99 23.99 C 130.28 22.81 131.57 21.63 132.87 20.45 C 132.22 20.15 130.94 19.55 130.29 19.25 C 133.31 16.23 136.85 13.62 139.05 9.89 C 140.11 7.79 142.72 7.73 144.72 7.21 C 149.46 6.14 153.83 3.71 158.83 3.89 C 159.19 3.75 159.91 3.46 160.28 3.32 L 160.94 3.09 C 162.08 2.67 163.20 2.21 164.30 1.71 M 163.17 110.35 C 161.74 113.44 166.62 110.05 163.17 110.35 M 159.26 119.11 C 158.76 120.01 158.26 120.92 157.76 121.82 C 156.88 124.40 154.86 126.33 153.58 128.70 C 152.17 131.24 150.84 133.87 148.83 136.00 C 148.10 137.60 147.40 139.21 146.63 140.79 C 145.55 146.19 142.79 150.91 140.86 156.00 C 140.56 156.18 139.96 156.54 139.66 156.72 C 138.27 161.92 135.94 166.81 132.51 170.96 C 132.43 171.82 132.27 173.54 132.19 174.40 C 133.83 174.46 135.49 174.54 137.14 174.67 C 139.02 175.74 141.17 176.18 143.24 176.75 C 143.84 173.05 144.49 169.31 146.06 165.87 C 146.55 164.91 147.05 163.94 147.55 162.98 C 146.74 159.63 148.40 156.43 148.10 153.15 C 149.68 149.68 150.15 145.86 151.36 142.28 C 151.45 141.02 151.99 140.06 152.98 139.39 C 152.93 138.73 152.82 137.41 152.76 136.76 L 153.72 136.81 C 154.16 134.43 155.21 132.23 156.15 130.02 C 156.60 128.25 157.19 126.53 157.70 124.79 C 158.49 123.54 159.23 122.26 159.78 120.88 C 160.34 119.65 161.10 118.57 162.06 117.64 C 160.44 117.03 159.20 117.12 159.26 119.11 M 128.73 182.38 C 127.65 185.29 125.06 187.06 122.86 189.06 C 122.68 189.53 122.33 190.47 122.15 190.95 C 120.26 192.35 118.01 193.13 116.09 194.45 C 114.86 195.25 113.46 195.61 112.00 195.61 C 108.42 195.72 105.01 196.99 101.88 198.65 L 100.99 198.48 C 99.63 199.25 98.08 199.49 96.56 199.67 L 96.53 200.41 C 94.97 200.27 93.65 201.07 92.60 202.15 C 92.30 205.44 92.14 208.77 92.70 212.05 C 93.05 213.13 93.38 214.21 93.70 215.30 C 94.47 217.21 95.02 219.19 95.67 221.14 C 96.21 222.20 96.52 223.33 96.62 224.53 C 97.67 224.51 99.77 224.47 100.82 224.45 C 100.37 222.34 99.74 220.29 99.21 218.21 C 100.74 214.92 102.81 211.70 102.81 207.95 C 103.65 206.72 104.50 205.49 105.33 204.26 C 105.57 202.91 105.68 201.40 107.25 200.92 C 107.90 204.85 103.35 207.34 104.53 211.29 C 102.36 213.14 102.08 216.56 100.65 219.04 C 101.41 220.60 101.68 222.30 101.86 224.01 C 102.09 224.55 102.56 225.62 102.80 226.15 C 103.33 226.48 104.39 227.15 104.92 227.49 C 106.32 227.41 108.21 228.14 108.93 226.46 C 108.69 224.67 108.78 222.75 107.69 221.19 C 107.61 220.08 107.53 218.97 107.46 217.87 C 107.99 218.61 108.53 219.35 109.08 220.09 C 112.29 219.24 113.58 215.96 115.64 213.71 C 120.37 213.81 124.98 212.33 129.12 210.12 C 131.87 208.65 135.51 207.86 136.64 204.55 C 138.25 201.89 137.34 198.66 138.38 195.84 C 139.27 193.46 139.64 190.94 139.79 188.41 C 138.57 187.79 137.32 187.17 135.95 186.97 L 135.77 186.38 L 134.79 186.63 C 134.24 186.30 133.16 185.65 132.61 185.32 C 131.86 184.34 131.13 183.35 130.40 182.35 C 129.98 182.36 129.14 182.38 128.73 182.38 M 115.69 215.37 C 114.61 217.97 112.41 219.81 109.91 220.99 C 110.15 221.74 110.63 223.25 110.87 224.01 C 111.84 223.26 112.79 222.51 113.75 221.76 C 114.91 221.29 116.07 220.82 117.23 220.37 C 118.12 218.89 119.21 217.50 119.75 215.85 C 118.59 214.91 117.03 215.47 115.69 215.37 Z" />
<path fill="#6f6f6f" opacity="1.00" d=" M 148.92 4.69 C 152.54 3.25 156.43 3.11 160.28 3.32 C 159.91 3.46 159.19 3.75 158.83 3.89 C 153.83 3.71 149.46 6.14 144.72 7.21 C 146.22 6.54 147.60 5.66 148.92 4.69 Z" />
<path fill="#ffffff" opacity="1.00" d=" M 168.33 3.74 C 169.76 2.88 171.37 3.22 172.88 3.63 C 173.72 4.49 174.55 5.37 175.38 6.25 C 178.79 7.10 182.05 8.45 185.25 9.87 C 185.45 10.79 185.65 11.71 185.85 12.63 C 181.14 11.48 176.42 12.78 171.78 13.55 C 172.20 14.80 172.86 15.93 173.83 16.85 C 173.01 18.08 172.17 19.30 171.30 20.50 C 171.20 21.43 171.01 23.28 170.91 24.21 C 169.78 22.97 169.38 21.39 169.21 19.77 C 169.57 18.92 170.28 17.21 170.63 16.35 C 169.49 16.25 168.37 16.15 167.23 16.06 C 168.89 14.96 171.80 13.26 169.17 11.37 C 169.61 11.32 170.47 11.21 170.91 11.15 C 170.83 10.43 170.68 8.98 170.60 8.26 C 170.21 7.85 169.41 7.02 169.01 6.61 C 167.30 6.53 165.60 6.44 163.90 6.30 C 165.32 5.35 166.80 4.51 168.33 3.74 Z" />
<path fill="#6f6f6f" opacity="1.00" d=" M 126.97 28.84 C 127.49 25.48 128.33 22.08 130.29 19.25 C 130.94 19.55 132.22 20.15 132.87 20.45 C 131.57 21.63 130.28 22.81 128.99 23.99 C 129.43 24.39 130.31 25.20 130.75 25.60 C 130.04 25.71 128.61 25.94 127.90 26.06 C 128.26 26.95 128.61 27.84 128.98 28.73 C 129.88 28.13 130.79 27.53 131.71 26.95 C 131.72 28.72 131.73 30.48 131.73 32.25 C 132.44 31.89 133.86 31.18 134.57 30.83 C 133.54 32.59 132.31 34.24 131.05 35.85 C 130.74 34.98 130.43 34.11 130.13 33.24 C 130.67 31.36 131.89 28.97 128.69 28.92 C 127.43 35.75 126.25 43.57 130.03 49.82 C 130.46 50.64 130.88 51.46 131.30 52.28 C 131.39 52.73 131.57 53.62 131.65 54.07 C 131.95 53.83 132.54 53.34 132.84 53.10 C 133.70 57.66 135.33 62.09 138.07 65.86 C 139.21 67.78 140.12 69.81 141.15 71.79 L 141.56 72.43 C 141.93 72.75 142.66 73.38 143.03 73.70 C 144.12 77.35 146.63 80.33 147.99 83.87 C 149.24 88.54 152.42 92.16 156.07 95.18 C 155.08 91.32 154.91 87.33 154.36 83.39 C 154.62 82.95 155.14 82.06 155.40 81.61 C 156.72 85.64 156.14 90.06 158.08 93.93 C 159.66 93.86 161.25 93.79 162.84 93.71 L 162.17 94.37 C 160.75 94.55 159.33 94.64 157.92 94.77 C 157.84 95.63 157.69 97.36 157.61 98.22 C 153.44 95.19 148.81 92.01 147.05 86.90 C 145.00 80.21 140.33 74.82 137.48 68.50 C 135.08 63.16 132.11 58.11 129.23 53.02 C 125.36 45.58 125.47 36.89 126.97 28.84 Z" />
<path fill="#ffffff" opacity="1.00" d=" M 128.69 28.92 C 131.89 28.97 130.67 31.36 130.13 33.24 C 130.43 34.11 130.74 34.98 131.05 35.85 C 128.83 39.22 129.34 43.32 129.32 47.13 C 131.49 47.16 133.06 47.98 132.87 50.39 C 136.33 50.53 139.83 50.57 143.17 49.50 C 144.45 50.98 145.59 52.61 147.16 53.83 C 147.26 52.06 147.34 50.28 147.43 48.51 C 149.32 46.89 151.39 45.47 153.66 44.40 C 154.81 42.23 156.28 40.23 157.30 37.98 C 158.00 36.29 157.62 33.52 160.03 33.19 C 162.87 31.75 166.21 32.38 168.84 33.98 C 170.80 36.76 172.02 40.02 174.14 42.71 C 174.84 46.59 177.85 49.03 180.59 51.54 C 183.77 55.71 187.59 59.47 189.67 64.37 C 192.62 68.35 196.54 71.55 199.44 75.58 C 202.47 81.68 199.97 88.28 200.38 94.67 L 200.37 95.29 C 199.91 95.49 198.99 95.90 198.53 96.10 C 196.97 98.77 195.24 101.52 192.47 103.08 C 192.44 103.36 192.38 103.92 192.34 104.20 C 189.67 106.16 186.21 106.84 183.80 109.14 C 182.14 109.21 180.48 109.23 178.82 109.20 C 177.09 106.69 173.90 107.35 171.32 106.98 C 174.68 104.32 178.10 101.57 180.16 97.73 C 178.76 98.04 177.35 98.35 176.01 98.86 C 173.47 99.76 170.94 100.70 168.36 101.49 C 166.59 101.15 164.90 101.71 163.29 102.37 C 162.37 101.11 161.38 99.90 160.44 98.67 C 161.64 99.09 162.84 99.52 164.04 99.97 C 168.53 98.43 173.28 97.74 177.76 96.15 C 181.37 94.97 183.64 90.32 187.90 91.62 C 187.42 90.03 186.94 88.45 186.44 86.87 C 185.71 86.54 184.98 86.20 184.25 85.87 C 182.73 86.30 181.17 86.54 179.61 86.74 C 177.13 88.00 174.51 89.01 171.78 89.60 C 171.56 89.15 171.11 88.25 170.89 87.80 L 170.55 87.16 C 168.78 87.29 167.00 87.44 165.24 87.60 C 167.43 85.08 170.86 85.60 173.63 86.59 L 174.22 86.77 C 174.25 86.13 174.31 84.87 174.34 84.23 C 172.47 81.30 168.85 82.62 166.00 82.57 C 166.42 82.64 167.26 82.78 167.68 82.85 C 166.32 84.05 164.99 85.29 163.68 86.55 C 164.09 87.00 164.90 87.90 165.30 88.35 C 164.48 89.45 164.24 90.73 164.50 92.05 C 164.31 92.23 163.94 92.60 163.75 92.78 C 163.52 93.02 163.07 93.48 162.84 93.71 C 161.25 93.79 159.66 93.86 158.08 93.93 C 156.14 90.06 156.72 85.64 155.40 81.61 C 155.02 79.30 155.14 76.95 155.17 74.62 C 153.72 72.90 152.55 70.71 150.25 70.02 C 146.33 68.26 142.18 67.10 138.07 65.86 C 135.33 62.09 133.70 57.66 132.84 53.10 C 132.88 51.45 132.38 48.26 130.03 49.82 C 126.25 43.57 127.43 35.75 128.69 28.92 M 173.96 58.81 C 173.00 59.41 171.96 59.78 170.84 59.94 C 168.88 61.82 166.36 62.90 163.96 64.08 C 163.05 65.78 161.69 67.17 160.37 68.54 C 158.64 68.49 156.92 68.48 155.19 68.46 C 155.20 68.66 155.23 69.05 155.24 69.25 C 156.78 69.92 158.29 70.65 159.83 71.35 L 158.90 71.50 C 160.53 71.66 162.17 71.83 163.80 72.00 C 164.83 72.09 166.88 72.27 167.90 72.37 L 167.97 73.95 C 168.13 73.14 168.28 72.34 168.42 71.53 C 170.17 71.55 171.72 70.81 173.28 70.12 C 173.30 69.75 173.36 69.00 173.38 68.63 C 173.91 68.59 174.95 68.51 175.47 68.47 C 175.44 68.02 175.38 67.14 175.35 66.69 C 176.36 66.06 177.38 65.43 178.49 64.96 C 178.80 64.00 179.11 63.03 179.42 62.06 C 176.04 63.15 174.18 66.61 170.88 67.68 C 170.72 68.03 170.39 68.72 170.22 69.07 C 169.76 67.74 168.82 66.65 167.77 65.74 C 171.34 63.66 174.11 59.98 178.30 59.22 C 176.93 58.59 175.41 58.74 173.96 58.81 Z" />
<path fill="#ffffff" opacity="1.00" d=" M 195.10 37.02 C 196.47 36.41 197.86 35.86 199.25 35.29 C 201.95 36.16 205.17 36.89 206.58 39.66 C 207.56 42.03 207.50 44.67 208.39 47.07 C 207.97 48.15 207.57 49.25 207.21 50.35 L 206.47 49.53 C 206.19 49.21 205.62 48.57 205.34 48.25 C 205.65 47.80 206.27 46.91 206.58 46.47 C 205.70 45.37 204.82 44.29 203.92 43.21 C 203.87 43.59 203.77 44.35 203.72 44.72 C 204.09 46.10 204.39 47.49 204.71 48.89 C 203.26 50.05 203.59 51.99 203.33 53.59 C 202.98 53.91 202.27 54.54 201.91 54.86 L 201.10 55.04 C 200.54 55.15 199.41 55.36 198.85 55.46 C 198.82 57.78 199.65 59.89 201.08 61.70 C 201.28 62.32 201.66 63.56 201.85 64.18 C 202.53 64.16 203.88 64.11 204.56 64.09 C 204.63 70.17 207.89 75.69 207.67 81.82 L 207.65 81.97 C 207.37 82.08 206.80 82.31 206.51 82.42 C 206.36 83.00 206.06 84.16 205.90 84.75 C 204.43 81.97 204.81 78.74 204.23 75.75 C 203.41 67.66 196.30 62.51 193.29 55.34 C 195.21 55.68 197.51 56.60 198.57 54.30 L 198.85 53.93 C 200.18 49.83 199.13 45.40 199.88 41.19 C 200.99 40.75 202.11 40.30 203.23 39.86 C 202.72 39.00 202.19 38.16 201.64 37.33 C 199.97 37.09 197.15 36.35 196.28 38.31 C 195.83 41.77 196.09 45.30 195.35 48.73 C 195.36 44.83 195.51 40.91 195.10 37.02 Z" />
<path fill="#c4c4c4" opacity="1.00" d=" M 196.28 38.31 C 197.15 36.35 199.97 37.09 201.64 37.33 C 202.19 38.16 202.72 39.00 203.23 39.86 C 202.11 40.30 200.99 40.75 199.88 41.19 C 199.13 45.40 200.18 49.83 198.85 53.93 C 199.31 48.70 197.18 42.60 200.86 38.19 C 199.60 37.61 197.94 38.53 197.99 39.98 C 197.53 44.76 198.41 49.64 197.24 54.36 L 198.57 54.30 C 197.51 56.60 195.21 55.68 193.29 55.34 C 194.26 54.35 195.23 53.35 196.18 52.34 C 195.87 51.15 195.31 49.99 195.35 48.73 C 196.09 45.30 195.83 41.77 196.28 38.31 Z" />
<path fill="#000000" opacity="1.00" d=" M 197.99 39.98 C 197.94 38.53 199.60 37.61 200.86 38.19 C 197.18 42.60 199.31 48.70 198.85 53.93 L 198.57 54.30 L 197.24 54.36 C 198.41 49.64 197.53 44.76 197.99 39.98 Z" />
<path fill="#c4c4c4" opacity="1.00" d=" M 174.14 42.71 C 177.71 45.76 182.79 46.45 185.91 50.09 C 188.07 52.24 189.92 55.17 193.29 55.34 C 196.30 62.51 203.41 67.66 204.23 75.75 C 204.81 78.74 204.43 81.97 205.90 84.75 C 205.67 86.18 205.54 87.63 205.38 89.07 C 204.27 90.39 203.19 91.74 202.16 93.13 C 201.72 93.52 200.83 94.29 200.38 94.67 C 199.97 88.28 202.47 81.68 199.44 75.58 C 196.54 71.55 192.62 68.35 189.67 64.37 C 187.59 59.47 183.77 55.71 180.59 51.54 C 177.85 49.03 174.84 46.59 174.14 42.71 Z" />
<path fill="#000000" opacity="1.00" d=" M 203.92 43.21 C 204.82 44.29 205.70 45.37 206.58 46.47 C 206.27 46.91 205.65 47.80 205.34 48.25 C 205.62 48.57 206.19 49.21 206.47 49.53 C 205.55 50.97 204.63 52.45 203.33 53.59 C 203.59 51.99 203.26 50.05 204.71 48.89 C 204.39 47.49 204.09 46.10 203.72 44.72 C 203.77 44.35 203.87 43.59 203.92 43.21 Z" />
<path fill="#000000" opacity="1.00" d=" M 130.03 49.82 C 132.38 48.26 132.88 51.45 132.84 53.10 C 132.54 53.34 131.95 53.83 131.65 54.07 C 131.57 53.62 131.39 52.73 131.30 52.28 C 130.88 51.46 130.46 50.64 130.03 49.82 Z" />
<path fill="#c4c4c4" opacity="1.00" d=" M 206.47 49.53 L 207.21 50.35 C 206.65 53.26 205.79 56.37 207.37 59.14 C 206.63 60.43 205.89 61.71 205.14 63.00 C 203.78 62.59 202.43 62.15 201.08 61.70 C 199.65 59.89 198.82 57.78 198.85 55.46 C 199.41 55.36 200.54 55.15 201.10 55.04 C 198.84 56.88 202.76 58.74 203.08 56.14 C 202.79 55.82 202.20 55.18 201.91 54.86 C 202.27 54.54 202.98 53.91 203.33 53.59 C 204.63 52.45 205.55 50.97 206.47 49.53 Z" />
<path fill="#ffffff" opacity="1.00" d=" M 208.67 48.92 C 212.55 51.17 214.34 55.96 215.39 60.12 C 212.41 62.06 210.12 65.05 210.30 68.77 C 210.14 69.07 209.81 69.67 209.65 69.97 C 208.97 70.35 207.60 71.10 206.92 71.47 C 206.42 69.08 205.89 66.69 205.39 64.29 C 206.50 63.06 207.48 61.72 208.45 60.37 C 208.36 59.53 208.27 58.69 208.18 57.85 C 206.73 55.00 208.73 51.90 208.67 48.92 Z" />
<path fill="#ff0000" opacity="1.00" d=" M 3.56 55.93 C 5.02 52.80 8.54 50.76 12.01 51.28 C 14.73 51.05 16.49 53.34 18.39 54.87 C 18.08 55.71 17.76 56.56 17.45 57.40 C 16.95 57.41 15.96 57.42 15.47 57.43 C 13.83 56.05 11.63 54.06 9.40 55.50 C 6.55 56.98 6.77 61.76 10.02 62.54 C 13.65 63.50 17.63 65.23 18.83 69.15 C 21.61 75.54 14.60 82.92 8.08 81.16 C 5.07 80.45 1.61 78.04 2.39 74.52 C 3.03 74.45 4.31 74.31 4.95 74.24 C 6.10 75.29 7.18 76.47 8.55 77.23 C 12.57 78.67 17.19 73.35 14.50 69.75 C 12.53 66.41 7.83 67.37 5.44 64.50 C 2.82 62.47 3.11 58.86 3.56 55.93 Z" />
<path fill="#ff0000" opacity="1.00" d=" M 29.91 51.67 C 32.23 51.18 34.56 50.65 36.94 50.66 C 44.52 52.14 50.79 59.18 50.37 67.07 C 49.70 73.73 44.65 79.78 37.99 81.10 C 29.05 83.24 19.70 75.05 20.20 65.99 C 19.89 59.67 24.31 54.12 29.91 51.67 M 31.55 55.71 C 24.63 58.00 21.89 67.67 26.88 73.09 C 29.68 77.05 35.07 77.56 39.39 76.30 C 42.57 74.64 45.37 71.67 45.87 68.00 C 47.77 60.33 38.88 52.70 31.55 55.71 Z" />
<path fill="#ffffff" opacity="1.00" d=" M 31.55 55.71 C 38.88 52.70 47.77 60.33 45.87 68.00 C 45.37 71.67 42.57 74.64 39.39 76.30 C 35.07 77.56 29.68 77.05 26.88 73.09 C 21.89 67.67 24.63 58.00 31.55 55.71 Z" />
<path fill="#000000" opacity="1.00" d=" M 201.10 55.04 L 201.91 54.86 C 202.20 55.18 202.79 55.82 203.08 56.14 C 202.76 58.74 198.84 56.88 201.10 55.04 Z" />
<path fill="#000000" opacity="1.00" d=" M 173.96 58.81 C 175.41 58.74 176.93 58.59 178.30 59.22 C 174.11 59.98 171.34 63.66 167.77 65.74 C 165.41 67.97 163.51 71.41 159.83 71.35 C 158.29 70.65 156.78 69.92 155.24 69.25 C 155.23 69.05 155.20 68.66 155.19 68.46 C 156.92 68.48 158.64 68.49 160.37 68.54 C 161.69 67.17 163.05 65.78 163.96 64.08 C 166.36 62.90 168.88 61.82 170.84 59.94 C 171.96 59.78 173.00 59.41 173.96 58.81 Z" />
<path fill="#c4c4c4" opacity="1.00" d=" M 210.30 68.77 C 210.12 65.05 212.41 62.06 215.39 60.12 C 215.46 60.50 215.60 61.26 215.67 61.64 C 214.19 64.23 212.19 66.47 210.30 68.77 Z" />
<path fill="#000000" opacity="1.00" d=" M 170.88 67.68 C 174.18 66.61 176.04 63.15 179.42 62.06 C 179.11 63.03 178.80 64.00 178.49 64.96 C 177.38 65.43 176.36 66.06 175.35 66.69 C 175.38 67.14 175.44 68.02 175.47 68.47 C 174.95 68.51 173.91 68.59 173.38 68.63 C 173.36 69.00 173.30 69.75 173.28 70.12 C 171.72 70.81 170.17 71.55 168.42 71.53 C 168.28 72.34 168.13 73.14 167.97 73.95 L 167.90 72.37 C 166.88 72.27 164.83 72.09 163.80 72.00 C 164.81 69.14 167.75 69.41 170.22 69.07 C 170.39 68.72 170.72 68.03 170.88 67.68 Z" />
<path fill="#ffffff" opacity="1.00" d=" M 216.52 63.46 C 219.03 62.63 219.91 65.84 221.17 67.33 C 222.12 69.58 226.12 71.20 223.80 73.89 C 223.73 74.96 223.67 76.03 223.63 77.10 C 224.32 76.51 225.02 75.91 225.71 75.31 C 229.21 79.77 234.19 82.70 238.81 85.86 C 242.53 89.88 246.60 93.58 251.40 96.28 C 258.39 100.19 260.61 108.59 261.78 115.94 C 263.03 123.88 267.70 130.78 268.66 138.78 C 269.30 141.99 269.33 145.37 270.84 148.35 C 272.23 151.12 273.84 153.86 274.09 157.02 C 274.86 160.79 273.02 164.33 271.89 167.81 C 271.12 166.13 270.71 164.32 270.46 162.50 C 269.77 157.20 267.71 152.21 266.85 146.94 C 266.30 142.96 263.57 139.87 261.49 136.61 C 260.07 136.19 258.66 135.77 257.25 135.36 C 257.72 134.65 258.67 133.23 259.14 132.52 C 258.14 133.11 257.11 133.68 256.24 134.45 C 255.66 134.96 254.50 135.98 253.91 136.49 C 253.81 131.82 253.80 127.15 253.81 122.47 C 253.21 122.27 252.00 121.88 251.39 121.68 C 247.00 115.69 240.78 110.94 233.76 108.51 C 229.43 106.72 226.99 111.55 222.97 111.88 C 218.44 119.80 209.67 124.16 204.90 131.94 C 204.19 133.43 203.99 135.10 203.61 136.70 C 202.56 137.63 201.50 138.56 200.44 139.49 C 199.95 143.26 199.49 147.05 198.43 150.72 C 198.07 148.90 197.78 147.07 197.43 145.25 C 199.97 139.83 199.07 133.69 200.92 128.11 C 202.23 123.68 201.55 118.81 203.54 114.57 C 205.22 111.66 207.85 109.47 209.72 106.70 C 212.85 102.93 207.59 97.64 211.03 93.93 C 214.97 89.39 218.59 84.46 220.60 78.72 C 220.63 77.25 220.27 75.81 220.05 74.37 C 220.72 73.35 221.40 72.33 222.08 71.32 C 221.43 71.33 220.14 71.35 219.49 71.35 C 218.36 74.04 217.29 76.82 215.47 79.12 C 214.97 79.32 213.97 79.72 213.47 79.92 C 214.53 76.91 215.79 73.98 216.87 70.98 C 216.77 68.47 215.90 65.96 216.52 63.46 Z" />
<path fill="#c4c4c4" opacity="1.00" d=" M 159.83 71.35 C 163.51 71.41 165.41 67.97 167.77 65.74 C 168.82 66.65 169.76 67.74 170.22 69.07 C 167.75 69.41 164.81 69.14 163.80 72.00 C 162.17 71.83 160.53 71.66 158.90 71.50 L 159.83 71.35 Z" />
<path fill="#c4c4c4" opacity="1.00" d=" M 138.07 65.86 C 142.18 67.10 146.33 68.26 150.25 70.02 C 150.45 70.62 150.85 71.83 151.05 72.43 C 147.79 73.82 144.30 73.01 141.15 71.79 C 140.12 69.81 139.21 67.78 138.07 65.86 Z" />
<path fill="#c4c4c4" opacity="1.00" d=" M 209.25 72.63 C 211.19 70.56 212.92 68.29 214.73 66.09 C 214.98 67.58 215.60 69.04 215.64 70.57 C 213.74 76.40 211.05 81.93 209.12 87.75 C 208.79 87.32 208.14 86.46 207.82 86.03 C 207.48 84.69 207.43 83.34 207.65 81.97 L 207.67 81.82 C 208.38 79.22 208.41 76.53 208.26 73.86 C 207.79 73.08 207.34 72.28 206.92 71.47 C 207.60 71.10 208.97 70.35 209.65 69.97 C 209.55 70.64 209.35 71.97 209.25 72.63 Z" />
<path fill="#000000" opacity="1.00" d=" M 150.25 70.02 C 152.55 70.71 153.72 72.90 155.17 74.62 C 155.14 76.95 155.02 79.30 155.40 81.61 C 155.14 82.06 154.62 82.95 154.36 83.39 L 154.24 82.33 C 154.02 79.44 154.01 76.48 153.01 73.72 C 152.28 74.59 151.57 75.46 150.86 76.34 C 149.31 76.29 147.76 76.24 146.21 76.19 C 145.16 75.35 144.09 74.53 143.03 73.70 C 142.66 73.38 141.93 72.75 141.56 72.43 L 141.15 71.79 C 144.30 73.01 147.79 73.82 151.05 72.43 C 150.85 71.83 150.45 70.62 150.25 70.02 Z" />
<path fill="#c4c4c4" opacity="1.00" d=" M 219.49 71.35 C 220.14 71.35 221.43 71.33 222.08 71.32 C 221.40 72.33 220.72 73.35 220.05 74.37 C 220.27 75.81 220.63 77.25 220.60 78.72 C 218.59 84.46 214.97 89.39 211.03 93.93 C 207.59 97.64 212.85 102.93 209.72 106.70 C 207.85 109.47 205.22 111.66 203.54 114.57 C 201.55 118.81 202.23 123.68 200.92 128.11 C 199.07 133.69 199.97 139.83 197.43 145.25 C 196.54 141.64 200.04 137.12 195.94 134.53 C 196.95 137.32 196.94 140.18 196.06 143.01 C 196.41 147.82 197.47 152.61 198.70 157.29 C 200.32 164.59 199.53 173.15 204.91 179.02 C 207.16 183.80 206.99 189.28 208.93 194.17 C 210.02 196.82 210.95 199.55 211.51 202.37 C 210.97 205.96 212.08 209.42 212.90 212.87 C 211.80 213.06 210.70 213.26 209.60 213.46 C 202.27 219.67 194.28 225.07 186.07 230.06 C 183.34 225.60 180.30 221.31 178.15 216.51 C 182.54 213.46 186.73 210.15 191.14 207.13 C 196.66 203.57 202.61 200.70 208.05 197.02 C 203.81 197.12 200.61 200.39 196.95 202.15 C 190.54 205.40 184.98 209.98 179.23 214.23 C 177.82 215.47 175.81 214.92 174.11 215.19 C 173.15 212.55 173.26 208.82 170.39 207.44 C 172.60 202.83 168.03 198.70 168.17 194.03 C 167.26 192.48 166.50 190.85 166.25 189.06 C 171.82 182.48 180.32 179.82 186.62 174.14 C 189.04 172.03 191.32 169.71 194.17 168.16 C 194.21 167.71 194.27 166.80 194.31 166.35 C 189.66 169.65 185.43 173.48 180.85 176.85 C 175.41 180.35 169.26 183.03 165.36 188.43 C 165.32 184.25 166.19 179.85 164.43 175.89 C 165.23 175.29 166.05 174.73 166.87 174.16 C 169.70 169.32 174.73 166.52 178.59 162.62 C 182.29 160.14 185.92 157.56 188.82 154.11 C 187.17 154.31 185.57 154.88 184.57 156.27 C 182.55 158.80 179.43 159.94 177.10 162.11 C 173.24 165.58 169.23 168.88 165.50 172.49 C 165.49 170.28 165.51 168.09 165.54 165.89 C 167.03 164.13 167.25 161.82 167.39 159.63 C 171.33 157.27 173.95 153.39 177.51 150.57 C 180.99 147.96 184.08 144.89 187.34 142.02 C 183.30 142.46 181.15 146.13 178.13 148.34 C 174.20 151.31 170.91 154.99 167.44 158.46 C 167.10 150.57 166.22 142.43 168.62 134.77 C 169.83 127.84 174.30 121.19 172.07 113.99 C 174.30 114.95 176.56 115.96 178.98 116.30 C 181.31 116.00 183.11 114.24 185.07 113.07 C 188.15 110.87 192.25 109.15 193.06 105.01 C 193.38 104.83 194.03 104.48 194.35 104.31 C 196.93 101.28 198.20 97.05 201.98 95.21 C 203.72 92.92 205.34 90.55 206.99 88.20 C 208.13 88.55 208.35 89.93 208.97 90.77 C 210.41 87.36 211.60 83.85 213.19 80.50 L 213.47 79.92 C 213.97 79.72 214.97 79.32 215.47 79.12 C 217.29 76.82 218.36 74.04 219.49 71.35 M 203.16 95.43 C 204.71 96.23 205.35 95.01 205.91 93.80 C 206.99 92.68 209.15 92.04 208.34 89.94 C 206.47 91.63 204.81 93.53 203.16 95.43 M 182.15 179.10 C 181.60 180.69 182.16 181.27 183.81 180.82 C 184.35 179.22 183.80 178.65 182.15 179.10 M 196.49 182.90 C 189.43 188.85 181.89 194.20 174.56 199.81 C 173.45 200.50 173.36 201.90 172.95 203.02 C 183.19 194.71 193.94 187.02 204.25 178.82 C 201.20 179.10 199.20 181.75 196.49 182.90 M 192.15 198.16 C 191.62 199.81 192.16 200.39 193.76 199.91 C 194.28 198.26 193.74 197.68 192.15 198.16 Z" />
<path fill="#c4c4c4" opacity="1.00" d=" M 143.03 73.70 C 144.09 74.53 145.16 75.35 146.21 76.19 C 147.76 76.24 149.31 76.29 150.86 76.34 C 151.57 75.46 152.28 74.59 153.01 73.72 C 154.01 76.48 154.02 79.44 154.24 82.33 C 152.89 82.32 151.54 82.30 150.20 82.28 C 149.46 82.81 148.72 83.34 147.99 83.87 C 146.63 80.33 144.12 77.35 143.03 73.70 M 150.58 77.30 C 149.78 77.52 146.08 77.66 147.88 78.98 C 149.56 80.59 154.44 77.29 150.58 77.30 Z" />
<path fill="#000000" opacity="1.00" d=" M 150.58 77.30 C 154.44 77.29 149.56 80.59 147.88 78.98 C 146.08 77.66 149.78 77.52 150.58 77.30 Z" />
<path fill="#ffffff" opacity="1.00" d=" M 150.20 82.28 C 151.54 82.30 152.89 82.32 154.24 82.33 L 154.36 83.39 C 154.91 87.33 155.08 91.32 156.07 95.18 C 152.42 92.16 149.24 88.54 147.99 83.87 C 148.72 83.34 149.46 82.81 150.20 82.28 Z" />
<path fill="#000000" opacity="1.00" d=" M 166.00 82.57 C 168.85 82.62 172.47 81.30 174.34 84.23 C 174.31 84.87 174.25 86.13 174.22 86.77 L 173.63 86.59 C 173.66 85.96 173.72 84.70 173.75 84.07 C 171.82 83.32 169.79 82.57 167.68 82.85 C 167.26 82.78 166.42 82.64 166.00 82.57 Z" />
<path fill="#6f6f6f" opacity="1.00" d=" M 167.68 82.85 C 169.79 82.57 171.82 83.32 173.75 84.07 C 173.72 84.70 173.66 85.96 173.63 86.59 C 170.86 85.60 167.43 85.08 165.24 87.60 C 167.00 87.44 168.78 87.29 170.55 87.16 L 170.89 87.80 C 169.65 88.13 168.41 88.45 167.17 88.75 C 168.32 89.12 169.47 89.50 170.63 89.88 C 168.56 90.55 166.49 91.19 164.50 92.05 C 164.24 90.73 164.48 89.45 165.30 88.35 C 164.90 87.90 164.09 87.00 163.68 86.55 C 164.99 85.29 166.32 84.05 167.68 82.85 Z" />
<path fill="#000000" opacity="1.00" d=" M 203.16 95.43 C 204.81 93.53 206.47 91.63 208.34 89.94 C 209.15 92.04 206.99 92.68 205.91 93.80 C 205.35 95.01 204.71 96.23 203.16 95.43 Z" />
<path fill="#c4c4c4" opacity="1.00" d=" M 176.01 98.86 C 177.35 98.35 178.76 98.04 180.16 97.73 C 178.10 101.57 174.68 104.32 171.32 106.98 C 173.90 107.35 177.09 106.69 178.82 109.20 C 172.72 112.23 166.34 107.54 163.29 102.37 C 164.90 101.71 166.59 101.15 168.36 101.49 C 168.82 101.62 169.73 101.87 170.19 101.99 C 171.84 101.65 173.44 101.09 174.96 100.35 C 175.22 99.98 175.75 99.23 176.01 98.86 Z" />
<path fill="#000000" opacity="1.00" d=" M 168.36 101.49 C 170.94 100.70 173.47 99.76 176.01 98.86 C 175.75 99.23 175.22 99.98 174.96 100.35 C 173.44 101.09 171.84 101.65 170.19 101.99 C 169.73 101.87 168.82 101.62 168.36 101.49 Z" />
<path fill="#ff0000" opacity="1.00" d=" M 28.77 100.84 C 29.93 100.84 31.10 100.84 32.27 100.84 C 32.90 109.38 32.48 117.97 32.51 126.53 C 36.65 126.84 40.81 126.46 44.95 126.80 C 47.65 127.36 46.51 131.63 43.98 131.26 C 39.36 131.29 34.72 131.46 30.11 131.15 C 27.51 130.25 28.55 127.04 28.31 124.99 C 28.59 116.94 27.82 108.85 28.77 100.84 Z" />
<path fill="#ff0000" opacity="1.00" d=" M 1.87 115.98 C 1.68 106.54 11.62 98.33 20.82 101.18 C 23.22 101.97 27.13 102.96 26.41 106.27 C 25.16 106.82 23.76 106.95 22.50 106.33 C 18.45 104.62 13.11 104.42 9.84 107.82 C 5.18 111.64 5.05 119.59 9.50 123.63 C 13.14 127.85 19.94 127.47 24.20 124.43 C 25.25 125.15 26.15 126.01 26.91 127.03 C 23.28 130.90 17.29 132.24 12.33 130.40 C 6.27 128.30 2.09 122.38 1.87 115.98 Z" />
<path fill="#ff0000" opacity="1.00" d=" M 53.57 101.83 C 61.72 98.04 71.99 103.42 74.04 112.03 C 77.07 121.74 67.91 132.25 57.98 131.19 C 52.28 130.44 47.13 126.42 45.21 120.97 C 42.48 113.63 46.34 104.80 53.57 101.83 M 48.75 118.37 C 49.88 121.91 52.37 125.31 56.08 126.39 C 58.43 126.78 60.89 126.87 63.22 126.32 C 68.03 124.31 71.00 119.07 70.45 113.92 C 69.05 108.90 64.42 104.53 58.94 105.15 C 52.34 104.93 47.10 112.10 48.75 118.37 Z" />
<path fill="#ff0000" opacity="1.00" d=" M 77.38 105.43 C 78.59 102.42 82.04 101.00 85.06 100.81 C 87.92 101.07 92.08 103.00 91.53 106.41 C 89.33 109.36 86.95 104.06 84.07 105.16 C 80.58 105.13 80.01 110.90 83.04 112.05 C 86.25 113.07 89.89 114.14 91.59 117.35 C 94.58 122.07 91.99 128.83 86.74 130.56 C 82.30 132.77 77.67 129.57 75.18 125.97 C 76.15 124.31 78.19 123.43 79.59 125.13 C 81.32 127.20 84.02 126.81 86.40 126.62 C 87.11 125.79 87.82 124.95 88.54 124.12 C 88.55 122.67 88.56 121.22 88.57 119.77 C 86.14 116.58 81.54 117.05 78.95 114.11 C 76.70 111.94 75.89 108.24 77.38 105.43 Z" />
<path fill="#ff0000" opacity="1.00" d=" M 93.71 101.95 C 94.00 101.63 94.59 100.99 94.88 100.67 C 101.08 100.95 107.53 99.79 113.56 101.39 C 113.49 102.40 113.42 103.42 113.35 104.43 C 108.33 105.45 103.23 104.50 98.21 104.91 C 97.35 107.94 97.96 111.17 97.85 114.28 C 101.47 114.40 105.13 114.01 108.72 114.52 C 110.00 115.35 109.73 117.74 108.11 118.14 C 104.69 118.48 101.25 118.18 97.82 118.28 C 97.81 121.07 97.80 123.86 97.80 126.66 C 102.92 126.71 108.05 126.58 113.17 126.78 C 113.31 127.96 113.44 129.14 113.58 130.33 C 107.90 132.32 101.72 130.81 95.83 131.33 C 95.30 131.01 94.23 130.38 93.69 130.06 C 93.29 120.70 93.59 111.31 93.71 101.95 Z" />
<path fill="#ffffff" opacity="1.00" d=" M 48.75 118.37 C 47.10 112.10 52.34 104.93 58.94 105.15 C 64.42 104.53 69.05 108.90 70.45 113.92 C 71.00 119.07 68.03 124.31 63.22 126.32 C 60.89 126.87 58.43 126.78 56.08 126.39 C 52.37 125.31 49.88 121.91 48.75 118.37 Z" />
<path fill="#6f6f6f" opacity="1.00" d=" M 185.34 109.33 C 188.06 108.16 190.46 106.41 193.06 105.01 C 192.25 109.15 188.15 110.87 185.07 113.07 C 183.11 114.24 181.31 116.00 178.98 116.30 C 176.56 115.96 174.30 114.95 172.07 113.99 C 171.44 113.50 170.20 112.51 169.58 112.02 C 174.67 110.49 180.29 111.24 185.34 109.33 Z" />
<path fill="#c4c4c4" opacity="1.00" d=" M 222.97 111.88 C 226.99 111.55 229.43 106.72 233.76 108.51 C 240.78 110.94 247.00 115.69 251.39 121.68 C 252.00 121.88 253.21 122.27 253.81 122.47 C 253.80 127.15 253.81 131.82 253.91 136.49 C 254.50 135.98 255.66 134.96 256.24 134.45 C 256.22 137.99 255.70 141.54 255.94 145.08 C 256.43 148.04 257.69 150.80 258.63 153.63 L 257.47 153.69 C 257.63 156.55 258.03 159.47 259.92 161.76 C 260.03 161.01 260.25 159.53 260.36 158.78 C 260.69 159.72 261.03 160.66 261.37 161.60 C 259.34 162.03 259.24 165.06 261.52 165.08 L 262.46 165.40 C 263.10 169.36 264.03 173.26 264.91 177.18 C 267.20 181.33 267.06 186.26 267.80 190.82 C 268.22 198.43 269.46 205.95 270.14 213.53 C 269.68 214.20 268.75 215.55 268.28 216.22 C 264.10 214.71 262.32 210.19 261.96 206.08 C 261.13 198.73 257.95 191.95 254.76 185.38 C 252.89 180.27 250.37 175.44 248.57 170.30 C 245.85 172.74 247.11 177.03 244.61 179.57 C 242.90 179.85 241.17 179.83 239.45 179.89 C 239.13 178.65 238.82 177.41 238.51 176.17 C 236.85 176.02 235.18 175.87 233.52 175.74 C 235.83 186.71 246.01 193.83 248.08 204.85 C 249.22 209.88 250.90 215.25 249.35 220.37 C 247.80 222.57 244.76 223.04 242.74 224.74 C 241.93 226.04 241.44 227.51 240.86 228.92 C 243.66 236.07 247.13 243.20 247.66 250.97 C 248.02 255.66 248.78 260.31 249.10 265.00 L 216.68 265.00 C 217.48 258.59 219.24 252.34 220.88 246.11 L 220.03 246.52 C 219.48 246.18 218.39 245.50 217.84 245.15 C 218.34 245.27 219.33 245.51 219.83 245.63 L 220.57 245.84 C 220.95 242.26 222.21 238.84 222.57 235.28 C 221.50 230.44 218.71 226.18 217.78 221.30 C 216.39 213.54 214.15 205.96 211.37 198.60 C 208.36 190.03 207.39 180.96 205.74 172.08 C 205.03 168.40 206.83 163.97 204.04 160.93 C 201.43 158.00 199.17 154.64 198.43 150.72 C 199.49 147.05 199.95 143.26 200.44 139.49 C 201.50 138.56 202.56 137.63 203.61 136.70 C 203.99 135.10 204.19 133.43 204.90 131.94 C 209.67 124.16 218.44 119.80 222.97 111.88 Z" />
<path fill="#ffffff" opacity="1.00" d=" M 165.54 107.82 C 167.07 109.03 168.30 110.55 169.58 112.02 C 170.20 112.51 171.44 113.50 172.07 113.99 C 174.30 121.19 169.83 127.84 168.62 134.77 C 166.22 142.43 167.10 150.57 167.44 158.46 L 167.39 159.63 C 167.25 161.82 167.03 164.13 165.54 165.89 C 165.50 163.25 165.48 160.62 165.46 157.98 C 162.73 159.21 159.91 160.62 158.72 163.58 C 159.00 167.64 158.09 171.88 159.46 175.80 C 159.98 171.65 159.69 167.46 159.81 163.28 C 161.53 162.38 163.01 161.11 164.48 159.85 C 164.45 164.51 164.52 169.16 164.44 173.82 C 162.24 175.15 159.19 176.16 159.57 179.36 C 161.25 178.29 162.87 177.13 164.43 175.89 C 166.19 179.85 165.32 184.25 165.36 188.43 C 164.31 188.45 163.27 188.47 162.24 188.50 C 161.52 189.64 160.77 190.77 160.03 191.90 C 159.79 192.85 159.56 193.81 159.33 194.76 C 162.37 199.30 162.71 204.99 164.94 209.90 C 165.96 209.11 166.98 208.31 167.99 207.50 C 168.59 207.49 169.79 207.46 170.39 207.44 C 173.26 208.82 173.15 212.55 174.11 215.19 C 170.23 217.22 167.44 220.71 163.82 223.12 C 162.22 227.22 166.13 230.58 168.19 233.71 C 170.09 237.38 172.10 243.22 177.36 241.89 C 180.49 238.81 185.75 237.47 187.02 232.83 C 188.81 235.48 186.29 238.15 185.49 240.66 C 184.81 242.94 182.48 243.80 180.61 244.89 C 177.24 246.84 173.38 247.58 169.71 248.77 C 166.72 250.04 163.79 247.99 161.05 246.99 C 155.81 244.40 149.34 242.97 146.51 237.28 C 145.25 237.25 143.99 237.22 142.74 237.20 C 143.40 238.80 144.13 240.38 144.90 241.94 C 144.64 242.92 144.42 243.91 144.23 244.92 C 147.05 247.56 150.65 249.21 153.50 251.84 C 152.71 252.02 151.14 252.37 150.35 252.55 C 150.32 253.59 150.29 254.64 150.26 255.69 C 156.38 256.99 163.57 258.34 169.17 254.79 C 169.01 255.53 168.67 257.01 168.51 257.75 C 161.64 257.40 155.43 260.35 148.89 261.87 C 146.80 262.33 145.15 263.75 143.49 265.00 L 132.73 265.00 C 132.65 259.01 132.60 252.95 134.08 247.11 C 134.62 244.46 135.78 241.29 133.72 239.01 C 133.57 235.03 133.52 231.05 133.83 227.08 C 135.35 222.93 134.80 218.34 136.29 214.15 C 138.39 208.60 137.36 202.56 138.69 196.88 C 140.18 194.78 140.99 192.39 140.80 189.80 C 141.12 188.94 141.43 188.09 141.73 187.23 L 141.77 187.09 C 142.56 184.76 143.19 182.39 143.80 180.01 C 143.88 179.67 144.05 178.98 144.13 178.64 C 145.01 173.97 146.24 169.39 147.49 164.81 C 148.85 160.75 148.30 156.32 150.13 152.37 C 151.79 144.30 155.48 136.83 157.38 128.82 C 158.02 125.75 160.54 123.65 161.88 120.90 C 163.59 117.96 163.57 114.37 165.34 111.44 C 165.39 110.53 165.49 108.72 165.54 107.82 Z" />
<path fill="#c4c4c4" opacity="1.00" d=" M 163.17 110.35 C 166.62 110.05 161.74 113.44 163.17 110.35 Z" />
<path fill="#ffffff" opacity="1.00" d=" M 159.26 119.11 C 159.20 117.12 160.44 117.03 162.06 117.64 C 161.10 118.57 160.34 119.65 159.78 120.88 C 159.23 122.26 158.49 123.54 157.70 124.79 C 157.19 126.53 156.60 128.25 156.15 130.02 C 155.21 132.23 154.16 134.43 153.72 136.81 L 152.76 136.76 C 152.82 137.41 152.93 138.73 152.98 139.39 C 151.99 140.06 151.45 141.02 151.36 142.28 C 150.15 145.86 149.68 149.68 148.10 153.15 C 148.40 156.43 146.74 159.63 147.55 162.98 C 147.05 163.94 146.55 164.91 146.06 165.87 C 144.49 169.31 143.84 173.05 143.24 176.75 C 141.17 176.18 139.02 175.74 137.14 174.67 C 135.49 174.54 133.83 174.46 132.19 174.40 C 132.27 173.54 132.43 171.82 132.51 170.96 C 135.94 166.81 138.27 161.92 139.66 156.72 C 139.96 156.54 140.56 156.18 140.86 156.00 C 142.79 150.91 145.55 146.19 146.63 140.79 C 147.40 139.21 148.10 137.60 148.83 136.00 C 150.84 133.87 152.17 131.24 153.58 128.70 C 154.86 126.33 156.88 124.40 157.76 121.82 C 158.26 120.92 158.76 120.01 159.26 119.11 Z" />
<path fill="#ff0000" opacity="1.00" d=" M 119.38 124.54 C 120.58 124.18 121.90 124.34 123.00 124.95 C 124.48 126.83 124.08 131.06 120.94 130.67 C 117.16 131.77 115.87 125.48 119.38 124.54 Z" />
<path fill="#ff0000" opacity="1.00" d=" M 129.34 125.35 C 131.44 123.10 135.75 124.76 134.96 128.06 C 134.98 131.00 131.79 130.60 129.75 130.70 C 128.92 129.15 127.27 126.68 129.34 125.35 Z" />
<path fill="#ff0000" opacity="1.00" d=" M 139.62 126.37 C 140.92 124.93 143.18 123.45 145.04 124.85 C 147.86 126.39 146.26 131.43 142.96 130.70 C 141.34 130.99 140.61 129.42 139.71 128.43 C 139.68 127.92 139.64 126.89 139.62 126.37 Z" />
<path fill="#000000" opacity="1.00" d=" M 256.24 134.45 C 257.11 133.68 258.14 133.11 259.14 132.52 C 258.67 133.23 257.72 134.65 257.25 135.36 L 257.03 135.70 C 256.57 139.81 256.13 144.18 257.89 148.06 C 261.70 157.22 263.17 167.09 266.02 176.56 C 267.64 175.56 267.75 173.61 268.22 171.99 L 268.76 173.34 C 268.62 174.97 267.84 176.40 266.36 177.20 C 266.62 178.38 266.91 179.56 267.23 180.74 C 268.46 188.79 268.95 196.91 270.02 204.98 C 271.18 212.26 270.85 219.66 270.93 227.00 C 270.91 239.96 267.55 252.53 264.39 265.00 L 263.35 265.00 C 264.79 259.98 266.10 254.91 267.08 249.78 C 268.50 246.35 268.15 242.60 269.11 239.08 C 270.64 230.64 270.42 222.06 270.14 213.53 C 269.46 205.95 268.22 198.43 267.80 190.82 C 267.06 186.26 267.20 181.33 264.91 177.18 C 264.03 173.26 263.10 169.36 262.46 165.40 L 261.52 165.08 C 261.93 163.89 261.88 162.73 261.37 161.60 C 261.03 160.66 260.69 159.72 260.36 158.78 C 259.80 157.06 259.20 155.35 258.63 153.63 C 257.69 150.80 256.43 148.04 255.94 145.08 C 255.70 141.54 256.22 137.99 256.24 134.45 Z" />
<path fill="#000000" opacity="1.00" d=" M 195.94 134.53 C 200.04 137.12 196.54 141.64 197.43 145.25 C 197.78 147.07 198.07 148.90 198.43 150.72 C 199.17 154.64 201.43 158.00 204.04 160.93 C 206.83 163.97 205.03 168.40 205.74 172.08 C 207.39 180.96 208.36 190.03 211.37 198.60 C 214.15 205.96 216.39 213.54 217.78 221.30 C 218.71 226.18 221.50 230.44 222.57 235.28 C 222.21 238.84 220.95 242.26 220.57 245.84 L 219.83 245.63 C 219.94 240.09 222.39 234.27 219.26 229.08 C 217.73 230.27 216.24 231.51 214.69 232.67 C 209.91 235.77 205.98 239.94 201.36 243.25 C 199.74 244.57 197.64 245.69 196.91 247.78 C 200.35 250.59 202.01 255.34 206.05 257.34 C 209.03 255.85 211.35 253.42 214.09 251.57 C 216.37 250.26 218.35 248.54 220.03 246.52 L 220.88 246.11 C 219.24 252.34 217.48 258.59 216.68 265.00 L 215.07 265.00 C 216.45 260.38 217.98 255.66 217.77 250.78 C 215.69 252.10 213.67 253.53 211.71 255.04 C 210.43 256.00 209.14 256.95 207.86 257.91 C 208.08 259.06 208.30 260.22 208.51 261.38 C 207.26 262.60 206.02 263.82 204.74 265.00 L 202.96 265.00 C 204.52 263.46 206.02 261.87 207.53 260.28 C 201.46 257.47 199.48 250.20 193.29 247.52 C 194.17 247.03 195.04 246.54 195.91 246.03 C 202.61 240.64 209.03 234.92 216.09 230.01 C 216.67 229.51 217.84 228.50 218.43 228.00 C 216.14 219.44 214.89 210.60 211.51 202.37 C 210.95 199.55 210.02 196.82 208.93 194.17 C 206.99 189.28 207.16 183.80 204.91 179.02 C 206.17 175.10 204.41 171.13 204.81 167.15 C 205.36 162.97 202.24 159.11 198.70 157.29 C 197.47 152.61 196.41 147.82 196.06 143.01 C 196.94 140.18 196.95 137.32 195.94 134.53 Z" />
<path fill="#c4c4c4" opacity="1.00" d=" M 257.03 135.70 L 257.25 135.36 C 258.66 135.77 260.07 136.19 261.49 136.61 C 263.57 139.87 266.30 142.96 266.85 146.94 C 267.71 152.21 269.77 157.20 270.46 162.50 C 270.71 164.32 271.12 166.13 271.89 167.81 C 271.51 168.18 271.14 168.57 270.78 168.96 C 270.04 168.56 268.56 167.75 267.83 167.35 C 267.92 168.89 268.04 170.45 268.22 171.99 C 267.75 173.61 267.64 175.56 266.02 176.56 C 263.17 167.09 261.70 157.22 257.89 148.06 C 256.13 144.18 256.57 139.81 257.03 135.70 Z" />
<path fill="#000000" opacity="1.00" d=" M 178.13 148.34 C 181.15 146.13 183.30 142.46 187.34 142.02 C 184.08 144.89 180.99 147.96 177.51 150.57 C 173.95 153.39 171.33 157.27 167.39 159.63 L 167.44 158.46 C 170.91 154.99 174.20 151.31 178.13 148.34 Z" />
<path fill="#000000" opacity="1.00" d=" M 184.57 156.27 C 185.57 154.88 187.17 154.31 188.82 154.11 C 185.92 157.56 182.29 160.14 178.59 162.62 C 174.73 166.52 169.70 169.32 166.87 174.16 C 166.05 174.73 165.23 175.29 164.43 175.89 C 162.87 177.13 161.25 178.29 159.57 179.36 C 159.19 176.16 162.24 175.15 164.44 173.82 C 164.52 169.16 164.45 164.51 164.48 159.85 C 163.01 161.11 161.53 162.38 159.81 163.28 C 159.69 167.46 159.98 171.65 159.46 175.80 C 158.09 171.88 159.00 167.64 158.72 163.58 C 159.91 160.62 162.73 159.21 165.46 157.98 C 165.48 160.62 165.50 163.25 165.54 165.89 C 165.51 168.09 165.49 170.28 165.50 172.49 C 169.23 168.88 173.24 165.58 177.10 162.11 C 179.43 159.94 182.55 158.80 184.57 156.27 Z" />
<path fill="#ffffff" opacity="1.00" d=" M 257.47 153.69 L 258.63 153.63 C 259.20 155.35 259.80 157.06 260.36 158.78 C 260.25 159.53 260.03 161.01 259.92 161.76 C 258.03 159.47 257.63 156.55 257.47 153.69 Z" />
<path fill="#6f6f6f" opacity="1.00" d=" M 198.70 157.29 C 202.24 159.11 205.36 162.97 204.81 167.15 C 204.41 171.13 206.17 175.10 204.91 179.02 C 199.53 173.15 200.32 164.59 198.70 157.29 Z" />
<path fill="#ffffff" opacity="1.00" d=" M 261.52 165.08 C 259.24 165.06 259.34 162.03 261.37 161.60 C 261.88 162.73 261.93 163.89 261.52 165.08 Z" />
<path fill="#000000" opacity="1.00" d=" M 180.85 176.85 C 185.43 173.48 189.66 169.65 194.31 166.35 C 194.27 166.80 194.21 167.71 194.17 168.16 C 191.32 169.71 189.04 172.03 186.62 174.14 C 180.32 179.82 171.82 182.48 166.25 189.06 C 166.50 190.85 167.26 192.48 168.17 194.03 C 168.03 198.70 172.60 202.83 170.39 207.44 C 169.79 207.46 168.59 207.49 167.99 207.50 C 166.98 208.31 165.96 209.11 164.94 209.90 C 162.71 204.99 162.37 199.30 159.33 194.76 C 159.56 193.81 159.79 192.85 160.03 191.90 C 160.77 190.77 161.52 189.64 162.24 188.50 C 163.27 188.47 164.31 188.45 165.36 188.43 C 169.26 183.03 175.41 180.35 180.85 176.85 M 160.47 196.10 L 161.66 196.13 C 162.78 200.07 163.91 204.11 165.77 207.78 C 166.80 206.78 167.84 205.80 168.89 204.81 C 168.69 203.84 168.49 202.87 168.29 201.90 C 166.67 199.13 166.10 195.95 165.02 192.97 C 163.19 190.47 161.10 194.50 160.47 196.10 Z" />
<path fill="#ffffff" opacity="1.00" d=" M 244.61 179.57 C 247.11 177.03 245.85 172.74 248.57 170.30 C 250.37 175.44 252.89 180.27 254.76 185.38 C 257.95 191.95 261.13 198.73 261.96 206.08 C 262.32 210.19 264.10 214.71 268.28 216.22 C 268.75 215.55 269.68 214.20 270.14 213.53 C 270.42 222.06 270.64 230.64 269.11 239.08 C 268.15 242.60 268.50 246.35 267.08 249.78 C 265.14 246.13 265.96 241.87 265.64 237.91 C 263.42 238.41 261.35 239.34 259.40 240.49 C 259.09 241.51 258.78 242.54 258.47 243.57 C 256.41 244.32 254.36 245.06 252.30 245.78 C 252.50 252.37 255.22 258.53 256.22 265.00 L 249.10 265.00 C 248.78 260.31 248.02 255.66 247.66 250.97 C 247.13 243.20 243.66 236.07 240.86 228.92 C 241.44 227.51 241.93 226.04 242.74 224.74 C 244.76 223.04 247.80 222.57 249.35 220.37 C 250.90 215.25 249.22 209.88 248.08 204.85 C 246.01 193.83 235.83 186.71 233.52 175.74 C 235.18 175.87 236.85 176.02 238.51 176.17 C 238.82 177.41 239.13 178.65 239.45 179.89 C 241.17 179.83 242.90 179.85 244.61 179.57 M 254.79 223.89 C 253.64 224.04 252.49 224.18 251.34 224.32 C 250.91 225.41 250.48 226.52 250.04 227.62 C 247.96 227.05 246.40 228.86 247.19 230.89 C 248.86 233.36 250.48 235.89 251.46 238.74 C 254.19 238.81 256.93 238.79 259.67 238.73 C 260.66 237.15 261.83 235.65 262.51 233.90 C 263.19 230.43 262.12 226.99 261.48 223.60 C 260.43 222.75 259.69 221.06 258.16 221.10 C 256.75 221.60 255.88 222.95 254.79 223.89 Z" />
<path fill="#6f6f6f" opacity="1.00" d=" M 133.34 176.36 C 137.03 176.48 140.51 178.00 144.13 178.64 C 144.05 178.98 143.88 179.67 143.80 180.01 C 140.87 181.17 141.48 184.62 141.77 187.09 L 141.73 187.23 C 138.13 185.68 134.13 184.36 131.37 181.47 C 131.04 179.59 132.29 177.81 133.34 176.36 Z" />
<path fill="#ffffff" opacity="1.00" d=" M 182.15 179.10 C 183.80 178.65 184.35 179.22 183.81 180.82 C 182.16 181.27 181.60 180.69 182.15 179.10 Z" />
<path fill="#000000" opacity="1.00" d=" M 196.49 182.90 C 199.20 181.75 201.20 179.10 204.25 178.82 C 193.94 187.02 183.19 194.71 172.95 203.02 C 173.36 201.90 173.45 200.50 174.56 199.81 C 181.89 194.20 189.43 188.85 196.49 182.90 Z" />
<path fill="#000000" opacity="1.00" d=" M 141.77 187.09 C 141.48 184.62 140.87 181.17 143.80 180.01 C 143.19 182.39 142.56 184.76 141.77 187.09 Z" />
<path fill="#ffffff" opacity="1.00" d=" M 128.73 182.38 C 129.14 182.38 129.98 182.36 130.40 182.35 C 131.13 183.35 131.86 184.34 132.61 185.32 C 133.16 185.65 134.24 186.30 134.79 186.63 L 135.77 186.38 L 135.95 186.97 C 134.04 187.20 133.42 189.16 132.35 190.47 C 131.16 192.24 129.43 193.53 127.82 194.89 C 123.90 194.99 119.99 194.79 116.09 194.45 C 118.01 193.13 120.26 192.35 122.15 190.95 C 122.33 190.47 122.68 189.53 122.86 189.06 C 125.06 187.06 127.65 185.29 128.73 182.38 Z" />
<path fill="#c4c4c4" opacity="1.00" d=" M 132.35 190.47 C 133.42 189.16 134.04 187.20 135.95 186.97 C 137.32 187.17 138.57 187.79 139.79 188.41 C 139.64 190.94 139.27 193.46 138.38 195.84 C 137.34 198.66 138.25 201.89 136.64 204.55 C 135.51 207.86 131.87 208.65 129.12 210.12 C 124.98 212.33 120.37 213.81 115.64 213.71 C 113.58 215.96 112.29 219.24 109.08 220.09 C 108.53 219.35 107.99 218.61 107.46 217.87 C 107.53 218.97 107.61 220.08 107.69 221.19 C 108.78 222.75 108.69 224.67 108.93 226.46 C 106.04 226.06 103.36 224.25 103.74 220.99 C 103.01 217.98 105.72 216.30 107.62 214.60 C 109.26 213.49 108.97 211.29 109.47 209.61 C 107.81 210.13 106.16 210.67 104.53 211.29 C 103.35 207.34 107.90 204.85 107.25 200.92 C 105.68 201.40 105.57 202.91 105.33 204.26 C 104.50 205.49 103.65 206.72 102.81 207.95 C 102.81 211.70 100.74 214.92 99.21 218.21 C 97.60 213.60 98.04 208.49 100.23 204.15 C 101.54 202.36 103.17 200.84 104.64 199.19 C 103.95 199.06 102.57 198.78 101.88 198.65 C 105.01 196.99 108.42 195.72 112.00 195.61 C 113.46 195.61 114.86 195.25 116.09 194.45 C 119.99 194.79 123.90 194.99 127.82 194.89 C 129.43 193.53 131.16 192.24 132.35 190.47 Z" />
<path fill="#ffffff" opacity="1.00" d=" M 160.47 196.10 C 161.10 194.50 163.19 190.47 165.02 192.97 C 166.10 195.95 166.67 199.13 168.29 201.90 C 168.49 202.87 168.69 203.84 168.89 204.81 C 167.84 205.80 166.80 206.78 165.77 207.78 C 163.91 204.11 162.78 200.07 161.66 196.13 L 160.47 196.10 Z" />
<path fill="#000000" opacity="1.00" d=" M 196.95 202.15 C 200.61 200.39 203.81 197.12 208.05 197.02 C 202.61 200.70 196.66 203.57 191.14 207.13 C 186.73 210.15 182.54 213.46 178.15 216.51 C 180.30 221.31 183.34 225.60 186.07 230.06 C 194.28 225.07 202.27 219.67 209.60 213.46 C 210.70 213.26 211.80 213.06 212.90 212.87 C 212.64 213.07 212.13 213.49 211.87 213.69 C 204.40 219.38 196.89 225.07 188.84 229.92 C 187.67 230.45 187.40 231.74 187.02 232.83 C 185.75 237.47 180.49 238.81 177.36 241.89 C 172.10 243.22 170.09 237.38 168.19 233.71 C 166.13 230.58 162.22 227.22 163.82 223.12 C 167.44 220.71 170.23 217.22 174.11 215.19 C 175.81 214.92 177.82 215.47 179.23 214.23 C 184.98 209.98 190.54 205.40 196.95 202.15 M 174.62 218.43 C 177.18 222.38 179.55 226.65 182.77 230.21 C 182.20 230.45 181.62 230.65 181.04 230.81 C 179.35 228.14 177.32 225.65 176.08 222.72 C 175.23 221.34 174.47 219.63 172.67 219.28 C 172.35 222.07 169.79 223.59 168.23 225.66 C 169.67 228.60 171.84 231.06 173.53 233.84 C 174.34 234.98 175.14 236.13 175.95 237.28 C 178.13 235.61 180.01 233.02 182.99 232.91 C 181.51 234.83 179.42 236.11 177.68 237.74 C 176.60 237.73 175.52 237.72 174.45 237.71 C 171.95 234.29 170.05 230.47 167.52 227.09 C 166.31 223.21 171.59 221.96 171.49 218.31 C 169.45 220.49 167.31 222.57 164.69 224.05 C 163.99 227.30 167.61 229.94 169.13 232.69 C 170.80 235.70 172.16 240.20 175.89 241.02 C 179.34 238.59 183.19 236.58 185.89 233.24 C 185.07 232.29 184.56 231.19 184.37 229.96 C 181.34 225.39 179.36 220.04 175.34 216.20 C 173.84 215.88 172.11 218.50 174.62 218.43 Z" />
<path fill="#ffffff" opacity="1.00" d=" M 192.15 198.16 C 193.74 197.68 194.28 198.26 193.76 199.91 C 192.16 200.39 191.62 199.81 192.15 198.16 Z" />
<path fill="#ffffff" opacity="1.00" d=" M 96.56 199.67 C 98.08 199.49 99.63 199.25 100.99 198.48 L 101.88 198.65 C 102.57 198.78 103.95 199.06 104.64 199.19 C 103.17 200.84 101.54 202.36 100.23 204.15 C 98.04 208.49 97.60 213.60 99.21 218.21 C 99.74 220.29 100.37 222.34 100.82 224.45 C 99.77 224.47 97.67 224.51 96.62 224.53 C 96.52 223.33 96.21 222.20 95.67 221.14 C 95.02 219.19 94.47 217.21 93.70 215.30 C 93.38 214.21 93.05 213.13 92.70 212.05 C 92.14 208.77 92.30 205.44 92.60 202.15 C 93.65 201.07 94.97 200.27 96.53 200.41 L 96.56 199.67 Z" />
<path fill="#6f6f6f" opacity="1.00" d=" M 211.51 202.37 C 214.89 210.60 216.14 219.44 218.43 228.00 C 217.84 228.50 216.67 229.51 216.09 230.01 C 213.53 224.82 215.36 218.41 211.87 213.69 C 212.13 213.49 212.64 213.07 212.90 212.87 C 212.08 209.42 210.97 205.96 211.51 202.37 Z" />
<path fill="#ffffff" opacity="1.00" d=" M 104.53 211.29 C 106.16 210.67 107.81 210.13 109.47 209.61 C 108.97 211.29 109.26 213.49 107.62 214.60 C 105.72 216.30 103.01 217.98 103.74 220.99 C 103.36 224.25 106.04 226.06 108.93 226.46 C 108.21 228.14 106.32 227.41 104.92 227.49 C 104.39 227.15 103.33 226.48 102.80 226.15 C 102.56 225.62 102.09 224.55 101.86 224.01 C 101.68 222.30 101.41 220.60 100.65 219.04 C 102.08 216.56 102.36 213.14 104.53 211.29 Z" />
<path fill="#c4c4c4" opacity="1.00" d=" M 188.84 229.92 C 196.89 225.07 204.40 219.38 211.87 213.69 C 215.36 218.41 213.53 224.82 216.09 230.01 C 209.03 234.92 202.61 240.64 195.91 246.03 C 194.99 245.79 194.08 245.55 193.17 245.31 L 193.47 245.08 C 192.87 244.96 191.67 244.71 191.07 244.58 C 188.39 246.36 186.94 249.49 184.66 251.72 C 184.64 252.39 184.61 253.74 184.59 254.41 C 183.07 254.40 182.88 254.97 184.02 256.14 C 185.50 257.48 187.02 258.78 188.74 259.82 C 187.89 258.46 186.98 257.16 186.11 255.81 C 186.67 255.95 187.79 256.23 188.35 256.37 L 188.32 254.57 C 190.86 257.93 193.67 261.14 195.45 265.00 L 192.87 265.00 C 191.26 263.19 189.80 261.27 188.20 259.47 L 187.38 260.15 C 185.03 262.22 182.29 263.76 179.43 265.00 L 143.49 265.00 C 145.15 263.75 146.80 262.33 148.89 261.87 C 155.43 260.35 161.64 257.40 168.51 257.75 C 168.67 257.01 169.01 255.53 169.17 254.79 C 163.57 258.34 156.38 256.99 150.26 255.69 C 150.29 254.64 150.32 253.59 150.35 252.55 C 151.14 252.37 152.71 252.02 153.50 251.84 C 150.65 249.21 147.05 247.56 144.23 244.92 C 144.42 243.91 144.64 242.92 144.90 241.94 C 144.13 240.38 143.40 238.80 142.74 237.20 C 143.99 237.22 145.25 237.25 146.51 237.28 C 149.34 242.97 155.81 244.40 161.05 246.99 C 163.79 247.99 166.72 250.04 169.71 248.77 C 173.38 247.58 177.24 246.84 180.61 244.89 C 182.48 243.80 184.81 242.94 185.49 240.66 C 186.29 238.15 188.81 235.48 187.02 232.83 C 187.40 231.74 187.67 230.45 188.84 229.92 Z" />
<path fill="#c4c4c4" opacity="1.00" d=" M 115.69 215.37 C 117.03 215.47 118.59 214.91 119.75 215.85 C 119.21 217.50 118.12 218.89 117.23 220.37 C 116.07 220.82 114.91 221.29 113.75 221.76 C 112.79 222.51 111.84 223.26 110.87 224.01 C 110.63 223.25 110.15 221.74 109.91 220.99 C 112.41 219.81 114.61 217.97 115.69 215.37 Z" />
<path fill="#ffffff" opacity="1.00" d=" M 174.62 218.43 C 172.11 218.50 173.84 215.88 175.34 216.20 C 179.36 220.04 181.34 225.39 184.37 229.96 C 184.56 231.19 185.07 232.29 185.89 233.24 C 183.19 236.58 179.34 238.59 175.89 241.02 C 172.16 240.20 170.80 235.70 169.13 232.69 C 167.61 229.94 163.99 227.30 164.69 224.05 C 167.31 222.57 169.45 220.49 171.49 218.31 C 171.59 221.96 166.31 223.21 167.52 227.09 C 170.05 230.47 171.95 234.29 174.45 237.71 C 175.52 237.72 176.60 237.73 177.68 237.74 C 179.42 236.11 181.51 234.83 182.99 232.91 C 180.01 233.02 178.13 235.61 175.95 237.28 C 175.14 236.13 174.34 234.98 173.53 233.84 C 171.84 231.06 169.67 228.60 168.23 225.66 C 169.79 223.59 172.35 222.07 172.67 219.28 C 174.47 219.63 175.23 221.34 176.08 222.72 C 177.32 225.65 179.35 228.14 181.04 230.81 C 181.62 230.65 182.20 230.45 182.77 230.21 C 179.55 226.65 177.18 222.38 174.62 218.43 Z" />
<path fill="#c4c4c4" opacity="1.00" d=" M 254.79 223.89 C 255.88 222.95 256.75 221.60 258.16 221.10 C 259.69 221.06 260.43 222.75 261.48 223.60 C 262.12 226.99 263.19 230.43 262.51 233.90 C 261.83 235.65 260.66 237.15 259.67 238.73 C 256.93 238.79 254.19 238.81 251.46 238.74 C 250.48 235.89 248.86 233.36 247.19 230.89 C 246.40 228.86 247.96 227.05 250.04 227.62 C 250.48 226.52 250.91 225.41 251.34 224.32 C 252.49 224.18 253.64 224.04 254.79 223.89 Z" />
<path fill="#6f6f6f" opacity="1.00" d=" M 214.69 232.67 C 216.24 231.51 217.73 230.27 219.26 229.08 C 222.39 234.27 219.94 240.09 219.83 245.63 C 219.33 245.51 218.34 245.27 217.84 245.15 C 218.39 245.50 219.48 246.18 220.03 246.52 C 218.35 248.54 216.37 250.26 214.09 251.57 C 214.45 245.35 217.60 239.55 216.89 233.22 C 216.34 233.08 215.24 232.81 214.69 232.67 Z" />
<path fill="#c4c4c4" opacity="1.00" d=" M 201.36 243.25 C 205.98 239.94 209.91 235.77 214.69 232.67 C 215.24 232.81 216.34 233.08 216.89 233.22 C 217.60 239.55 214.45 245.35 214.09 251.57 C 211.35 253.42 209.03 255.85 206.05 257.34 C 202.01 255.34 200.35 250.59 196.91 247.78 C 197.64 245.69 199.74 244.57 201.36 243.25 Z" />
<path fill="#c4c4c4" opacity="1.00" d=" M 259.40 240.49 C 261.35 239.34 263.42 238.41 265.64 237.91 C 265.96 241.87 265.14 246.13 267.08 249.78 C 266.10 254.91 264.79 259.98 263.35 265.00 L 256.22 265.00 C 255.22 258.53 252.50 252.37 252.30 245.78 C 254.36 245.06 256.41 244.32 258.47 243.57 C 258.78 242.54 259.09 241.51 259.40 240.49 M 256.59 248.07 C 256.01 249.21 256.51 250.76 257.36 251.65 C 258.94 251.41 258.28 247.45 256.59 248.07 Z" />
<path fill="#000000" opacity="1.00" d=" M 184.66 251.72 C 186.94 249.49 188.39 246.36 191.07 244.58 C 191.67 244.71 192.87 244.96 193.47 245.08 L 193.17 245.31 C 189.86 247.14 187.88 250.37 185.55 253.21 C 185.69 253.86 185.97 255.16 186.11 255.81 C 186.98 257.16 187.89 258.46 188.74 259.82 C 187.02 258.78 185.50 257.48 184.02 256.14 C 184.17 255.71 184.45 254.84 184.59 254.41 C 184.61 253.74 184.64 252.39 184.66 251.72 Z" />
<path fill="#ffffff" opacity="1.00" d=" M 193.17 245.31 C 194.08 245.55 194.99 245.79 195.91 246.03 C 195.04 246.54 194.17 247.03 193.29 247.52 C 199.48 250.20 201.46 257.47 207.53 260.28 C 206.02 261.87 204.52 263.46 202.96 265.00 L 199.99 265.00 C 202.06 263.74 203.90 262.16 205.73 260.60 C 200.39 258.38 196.83 253.63 193.11 249.44 C 192.71 249.45 191.93 249.45 191.53 249.45 C 190.28 251.01 187.80 252.22 188.32 254.57 L 188.35 256.37 C 187.79 256.23 186.67 255.95 186.11 255.81 C 185.97 255.16 185.69 253.86 185.55 253.21 C 187.88 250.37 189.86 247.14 193.17 245.31 Z" />
<path fill="#ffffff" opacity="1.00" d=" M 256.59 248.07 C 258.28 247.45 258.94 251.41 257.36 251.65 C 256.51 250.76 256.01 249.21 256.59 248.07 Z" />
<path fill="#000000" opacity="1.00" d=" M 191.53 249.45 C 191.93 249.45 192.71 249.45 193.11 249.44 C 196.83 253.63 200.39 258.38 205.73 260.60 C 203.90 262.16 202.06 263.74 199.99 265.00 L 195.45 265.00 C 193.67 261.14 190.86 257.93 188.32 254.57 C 187.80 252.22 190.28 251.01 191.53 249.45 M 190.40 256.14 C 193.94 257.86 194.77 261.81 196.66 264.88 C 198.89 264.07 202.32 262.84 202.88 260.32 C 198.57 257.98 195.58 254.05 191.96 250.86 C 190.18 252.19 189.74 254.08 190.40 256.14 Z" />
<path fill="#c4c4c4" opacity="1.00" d=" M 190.40 256.14 C 189.74 254.08 190.18 252.19 191.96 250.86 C 195.58 254.05 198.57 257.98 202.88 260.32 C 202.32 262.84 198.89 264.07 196.66 264.88 C 194.77 261.81 193.94 257.86 190.40 256.14 Z" />
<path fill="#6f6f6f" opacity="1.00" d=" M 211.71 255.04 C 213.67 253.53 215.69 252.10 217.77 250.78 C 217.98 255.66 216.45 260.38 215.07 265.00 L 209.49 265.00 C 210.68 261.80 211.46 258.45 211.71 255.04 Z" />
<path fill="#ffffff" opacity="1.00" d=" M 184.02 256.14 C 182.88 254.97 183.07 254.40 184.59 254.41 C 184.45 254.84 184.17 255.71 184.02 256.14 Z" />
<path fill="#c4c4c4" opacity="1.00" d=" M 207.86 257.91 C 209.14 256.95 210.43 256.00 211.71 255.04 C 211.46 258.45 210.68 261.80 209.49 265.00 L 204.74 265.00 C 206.02 263.82 207.26 262.60 208.51 261.38 C 208.30 260.22 208.08 259.06 207.86 257.91 Z" />
<path fill="#000000" opacity="1.00" d=" M 188.20 259.47 C 189.80 261.27 191.26 263.19 192.87 265.00 L 190.87 265.00 C 189.96 263.21 188.72 261.63 187.38 260.15 L 188.20 259.47 Z" />
<path fill="#ffffff" opacity="1.00" d=" M 179.43 265.00 C 182.29 263.76 185.03 262.22 187.38 260.15 C 188.72 261.63 189.96 263.21 190.87 265.00 L 179.43 265.00 Z" />
</svg>
