<?xml version="1.0" encoding="UTF-8" ?>
<!DOCTYPE svg PUBLIC "-//W3C//DTD SVG 1.1//EN" "http://www.w3.org/Graphics/SVG/1.1/DTD/svg11.dtd">
<svg width="281pt" height="202pt" viewBox="0 0 281 202" version="1.1" xmlns="http://www.w3.org/2000/svg">
<path fill="#ffffff" opacity="1.00" d=" M 0.00 0.00 L 281.00 0.00 L 281.00 202.00 L 205.40 202.00 C 208.35 199.06 212.59 198.97 216.44 198.36 C 216.48 197.68 216.56 196.32 216.59 195.63 C 216.31 194.66 216.95 192.59 215.79 192.29 C 211.49 192.23 207.18 192.58 202.89 192.19 C 201.85 189.84 202.58 186.99 202.37 184.44 C 206.69 183.73 211.13 184.02 215.41 183.21 C 215.39 182.62 215.36 181.43 215.35 180.83 C 211.18 179.72 206.76 180.54 202.50 180.37 C 202.46 178.43 202.45 176.48 202.47 174.54 C 206.88 174.60 211.29 174.58 215.71 174.54 C 215.73 173.48 215.76 172.42 215.79 171.36 C 213.53 171.36 211.25 171.28 209.03 170.85 C 205.27 170.89 201.23 169.91 197.68 171.49 C 197.55 171.60 197.29 171.81 197.16 171.92 C 195.97 172.97 195.47 174.47 195.59 176.03 C 195.57 182.35 195.69 188.67 195.67 194.99 C 194.79 193.09 193.90 191.20 192.81 189.41 C 192.20 189.27 190.98 188.98 190.37 188.84 C 189.30 187.81 188.23 186.78 187.15 185.78 C 189.12 184.49 190.92 182.98 192.52 181.27 C 192.49 179.08 192.49 176.89 192.53 174.71 C 190.25 172.04 186.90 170.73 183.51 170.21 L 182.62 170.02 C 190.04 170.17 197.23 166.94 203.18 162.68 L 204.85 162.08 C 204.94 162.76 205.11 164.12 205.20 164.79 C 205.98 164.48 206.76 164.16 207.54 163.85 C 206.83 163.19 206.12 162.54 205.42 161.88 C 207.02 161.64 208.68 161.33 209.81 160.08 C 212.53 157.69 215.58 155.61 217.76 152.67 C 219.26 150.59 220.94 148.65 222.85 146.93 C 225.23 144.77 226.66 141.79 229.02 139.61 C 231.09 139.92 232.33 142.09 234.18 143.03 C 235.49 144.65 236.80 146.26 238.16 147.84 C 238.28 151.63 240.45 154.84 242.34 157.97 C 242.55 159.36 242.78 160.76 243.33 162.07 C 241.32 167.82 241.67 174.06 239.80 179.83 C 239.75 183.04 239.77 186.26 239.52 189.46 C 240.50 189.45 242.46 189.41 243.43 189.40 C 243.06 183.59 244.14 177.80 245.72 172.25 C 248.10 177.95 251.14 183.48 252.32 189.61 C 253.38 189.48 254.44 189.36 255.51 189.24 C 256.29 181.16 250.26 174.69 248.64 167.17 C 252.51 169.64 256.32 172.42 258.84 176.35 C 261.47 179.24 262.54 183.16 265.29 185.96 C 265.75 187.08 266.21 188.20 266.68 189.32 C 268.09 189.39 269.49 189.46 270.90 189.54 C 270.79 187.88 271.47 185.91 270.09 184.62 C 265.48 179.83 263.42 173.10 258.21 168.78 C 256.15 166.41 252.71 165.56 251.08 162.82 C 247.31 163.60 246.84 159.43 246.09 156.82 C 245.08 152.72 241.81 149.52 241.33 145.26 C 239.57 141.40 236.27 138.56 232.68 136.41 C 230.69 135.68 231.29 133.41 231.79 131.90 C 234.98 125.69 236.38 118.75 237.90 111.98 C 239.02 108.43 238.93 104.55 239.86 100.90 C 241.02 97.99 240.08 94.78 240.99 91.82 C 242.15 88.29 241.16 84.62 240.55 81.09 C 240.10 76.57 236.24 73.62 233.97 70.00 C 230.42 65.19 228.48 58.76 222.95 55.76 C 217.47 51.58 211.58 47.89 206.62 43.08 C 206.12 38.46 204.23 33.94 200.89 30.67 C 199.48 27.22 197.16 24.26 194.78 21.44 C 192.47 19.27 189.82 17.41 188.41 14.47 C 186.62 10.80 182.77 8.82 178.93 8.02 C 178.12 7.09 177.13 6.42 175.90 6.23 C 169.83 4.48 163.25 3.61 157.09 5.39 C 152.74 5.71 148.37 5.40 144.01 5.49 C 140.90 5.30 138.27 7.35 135.93 9.12 C 135.34 9.24 134.17 9.47 133.58 9.58 C 131.24 10.84 128.95 12.22 127.11 14.17 C 123.41 16.17 121.28 20.05 119.33 23.61 C 118.09 23.78 116.88 24.10 115.70 24.52 C 113.88 30.22 109.68 34.46 106.45 39.33 C 104.24 41.89 102.38 44.73 100.00 47.15 C 95.86 54.62 92.19 62.36 88.85 70.22 C 87.67 75.82 85.90 81.29 85.39 87.04 C 85.14 89.41 83.65 91.51 83.68 93.93 C 83.64 101.64 83.68 109.34 83.66 117.05 C 83.63 121.07 85.55 124.71 86.95 128.37 L 87.56 129.37 C 90.35 132.75 91.84 137.03 95.01 140.12 C 98.87 143.99 102.67 148.21 107.73 150.54 C 107.67 152.53 107.18 155.32 109.59 156.20 C 111.82 156.99 113.27 158.68 113.74 160.99 C 111.99 162.97 109.40 162.46 107.07 162.22 C 106.34 163.87 105.64 165.53 104.98 167.20 C 101.47 168.49 97.75 168.54 94.07 168.64 C 93.54 170.17 93.11 171.84 91.43 172.50 C 89.06 170.25 86.19 168.63 83.88 166.32 C 80.24 169.27 75.59 168.71 71.22 169.05 C 71.06 169.45 70.76 170.24 70.61 170.64 C 70.37 178.96 70.59 187.29 70.44 195.61 C 69.79 195.59 68.50 195.54 67.85 195.51 C 66.47 192.65 65.55 189.60 64.36 186.66 C 62.13 181.36 61.16 175.52 58.19 170.56 C 55.99 170.63 53.76 170.70 51.68 171.50 C 51.07 173.54 50.34 175.53 49.41 177.44 C 47.86 177.78 47.43 178.68 48.10 180.13 C 46.82 180.70 46.52 181.61 47.21 182.86 C 44.71 184.99 43.25 187.93 42.09 190.93 C 39.80 184.36 43.31 176.82 40.12 170.61 C 39.04 169.32 36.55 169.15 35.45 170.55 C 35.06 170.96 34.27 171.80 33.88 172.21 C 33.68 174.09 33.61 175.99 33.54 177.88 C 30.93 178.92 28.24 179.74 25.53 180.51 C 26.81 177.10 26.54 173.46 25.95 169.95 C 24.05 169.83 22.03 169.25 20.21 170.06 C 18.15 171.69 18.78 174.67 18.55 176.98 C 18.79 182.96 18.36 188.97 18.82 194.95 C 19.51 197.92 23.32 196.77 25.24 198.42 C 22.95 198.60 20.65 198.41 18.37 198.20 C 19.02 199.46 19.66 200.73 20.31 202.00 L 0.00 202.00 L 0.00 0.00 M 21.87 132.86 C 19.54 134.62 20.59 137.79 20.51 140.27 C 23.69 143.90 28.50 144.67 32.91 145.81 C 33.37 146.35 34.29 147.44 34.75 147.98 C 33.63 151.12 30.04 152.47 27.03 151.27 C 25.37 150.46 24.73 148.65 23.80 147.20 C 22.69 147.27 21.58 147.33 20.46 147.40 C 20.18 148.09 19.61 149.48 19.32 150.18 C 21.10 152.39 23.12 154.44 25.86 155.40 C 28.26 155.42 30.65 155.44 33.04 155.38 C 35.57 154.20 37.86 152.59 39.25 150.11 C 39.27 148.66 39.29 147.21 39.33 145.77 C 38.03 142.68 35.20 140.68 31.91 140.20 C 29.89 139.31 27.64 139.14 25.63 138.21 C 25.21 137.01 25.45 135.72 25.46 134.48 C 27.53 134.31 29.62 134.09 31.69 134.40 C 32.70 135.23 33.23 136.46 33.81 137.60 C 35.42 137.61 37.03 137.55 38.63 137.40 C 38.08 134.13 35.73 131.17 32.39 130.51 C 28.79 130.09 24.46 129.79 21.87 132.86 M 47.66 132.34 C 47.55 132.44 47.31 132.66 47.19 132.76 C 46.81 133.14 46.04 133.90 45.66 134.28 C 45.59 134.36 45.44 134.51 45.36 134.58 C 45.00 134.94 44.29 135.64 43.93 135.99 L 44.21 137.21 C 43.89 137.48 43.24 138.02 42.92 138.29 L 43.42 139.02 L 42.56 139.52 C 42.84 142.07 41.91 144.94 43.32 147.25 C 43.36 147.36 43.43 147.56 43.47 147.67 C 43.63 149.17 44.27 150.43 45.40 151.45 C 45.45 151.51 45.56 151.62 45.62 151.68 C 46.70 152.71 47.82 153.70 48.93 154.71 L 50.50 154.21 L 50.63 154.71 L 50.06 155.23 C 54.72 155.69 60.28 155.87 63.34 151.61 C 63.39 151.54 63.51 151.42 63.57 151.35 C 64.10 150.75 65.18 149.55 65.71 148.95 L 65.17 147.77 C 65.46 147.49 66.05 146.92 66.34 146.64 L 65.77 145.98 L 66.50 145.57 C 66.31 142.93 66.82 140.12 65.53 137.68 C 65.50 137.59 65.42 137.41 65.39 137.32 L 64.64 135.65 C 64.60 135.59 64.54 135.46 64.50 135.39 C 61.39 129.77 52.64 128.60 47.66 132.34 Z" />
<path fill="#090906" opacity="1.00" d=" M 157.09 5.39 C 163.25 3.61 169.83 4.48 175.90 6.23 C 177.13 6.42 178.12 7.09 178.93 8.02 C 182.77 8.82 186.62 10.80 188.41 14.47 C 189.82 17.41 192.47 19.27 194.78 21.44 C 197.16 24.26 199.48 27.22 200.89 30.67 C 204.23 33.94 206.12 38.46 206.62 43.08 C 211.58 47.89 217.47 51.58 222.95 55.76 C 222.63 56.93 222.31 58.11 222.01 59.29 C 215.47 54.89 208.99 50.25 203.92 44.14 C 203.63 41.20 202.77 38.30 201.26 35.75 C 197.85 31.15 195.11 26.10 191.24 21.84 C 188.54 20.95 187.43 18.04 185.69 16.04 C 185.56 15.54 185.29 14.53 185.16 14.03 C 182.09 11.90 178.34 11.11 175.32 8.93 C 170.16 7.79 164.93 6.55 159.62 7.56 C 153.44 8.69 146.92 6.56 140.99 9.01 C 139.82 9.75 138.67 10.50 137.54 11.28 C 135.58 11.92 133.70 12.76 131.89 13.72 C 128.92 16.88 125.53 19.60 122.63 22.83 C 121.98 24.76 121.49 26.73 121.22 28.75 C 120.13 28.06 118.97 27.50 117.77 27.05 C 116.38 29.52 115.56 32.37 113.58 34.47 C 110.73 37.40 109.17 41.34 106.02 44.03 C 105.20 45.69 103.97 47.09 102.60 48.32 C 101.95 48.03 100.65 47.44 100.00 47.15 C 102.38 44.73 104.24 41.89 106.45 39.33 C 109.68 34.46 113.88 30.22 115.70 24.52 C 116.88 24.10 118.09 23.78 119.33 23.61 C 121.28 20.05 123.41 16.17 127.11 14.17 C 128.95 12.22 131.24 10.84 133.58 9.58 C 134.17 9.47 135.34 9.24 135.93 9.12 C 138.27 7.35 140.90 5.30 144.01 5.49 C 148.37 5.40 152.74 5.71 157.09 5.39 Z" />
<path fill="#fdfdfc" opacity="1.00" d=" M 159.62 7.56 C 164.93 6.55 170.16 7.79 175.32 8.93 C 178.34 11.11 182.09 11.90 185.16 14.03 C 185.29 14.53 185.56 15.54 185.69 16.04 C 187.43 18.04 188.54 20.95 191.24 21.84 C 195.11 26.10 197.85 31.15 201.26 35.75 C 202.77 38.30 203.63 41.20 203.92 44.14 C 208.99 50.25 215.47 54.89 222.01 59.29 C 226.58 63.74 228.78 69.96 232.84 74.82 C 236.33 79.47 238.38 85.57 237.00 91.34 C 236.76 95.38 236.47 99.42 235.28 103.32 C 234.19 113.25 231.12 122.87 227.62 132.21 C 226.48 137.82 221.74 141.54 218.43 145.90 C 216.19 147.86 214.75 150.51 212.69 152.62 C 210.69 154.73 208.06 156.09 206.07 158.21 C 204.45 158.63 202.84 159.08 201.23 159.54 C 196.83 163.48 191.00 164.85 185.91 167.54 C 184.42 167.35 182.98 166.96 181.51 166.73 C 175.73 166.26 169.93 166.87 164.15 166.46 C 163.89 166.24 163.37 165.82 163.10 165.60 C 155.09 165.72 147.08 164.72 139.26 162.97 C 131.60 161.22 125.69 155.77 118.83 152.30 C 115.63 150.77 112.49 149.10 109.12 147.96 C 106.66 147.34 105.36 144.83 102.97 144.09 C 99.84 140.84 96.45 137.80 93.98 133.99 C 93.13 132.27 92.44 130.34 90.73 129.27 C 89.86 126.77 88.85 124.33 87.62 121.99 C 87.53 121.45 87.35 120.38 87.27 119.85 L 86.76 118.92 C 85.96 112.83 86.61 106.66 86.29 100.53 C 86.51 97.34 85.99 93.98 87.40 90.99 C 88.52 88.52 88.03 85.68 89.15 83.20 C 90.05 70.46 97.39 59.63 102.60 48.32 C 103.97 47.09 105.20 45.69 106.02 44.03 C 109.17 41.34 110.73 37.40 113.58 34.47 C 115.56 32.37 116.38 29.52 117.77 27.05 C 118.97 27.50 120.13 28.06 121.22 28.75 C 121.49 26.73 121.98 24.76 122.63 22.83 C 125.53 19.60 128.92 16.88 131.89 13.72 C 133.70 12.76 135.58 11.92 137.54 11.28 C 138.67 10.50 139.82 9.75 140.99 9.01 C 146.92 6.56 153.44 8.69 159.62 7.56 M 171.73 20.93 C 173.95 24.20 178.20 25.30 180.23 28.73 C 181.90 30.63 183.19 33.51 185.95 33.92 C 183.30 28.62 178.89 24.12 173.90 20.88 C 173.36 20.89 172.27 20.91 171.73 20.93 M 135.44 31.63 C 135.57 32.46 135.70 33.29 135.84 34.12 C 136.32 33.74 137.30 32.97 137.78 32.59 C 143.41 32.65 149.04 32.51 154.67 32.73 C 154.62 32.22 154.51 31.19 154.45 30.68 C 148.13 31.32 141.61 29.87 135.44 31.63 M 149.12 39.95 C 147.56 39.07 145.82 38.68 144.04 38.51 C 143.50 38.92 142.42 39.75 141.88 40.16 C 141.55 41.88 141.08 43.57 140.53 45.22 C 141.62 46.26 143.08 46.60 144.50 46.92 C 147.54 44.14 151.72 43.96 155.53 45.01 C 155.19 45.31 154.51 45.92 154.17 46.23 C 150.75 46.97 147.45 48.47 143.90 48.35 C 140.79 48.71 137.98 46.95 134.87 47.25 C 130.03 45.59 125.50 42.62 122.98 38.05 C 122.77 38.54 122.35 39.52 122.14 40.01 C 125.59 44.16 129.76 48.10 135.15 49.35 C 139.47 49.69 143.82 51.28 148.16 49.98 C 154.20 48.25 161.27 46.32 164.43 40.34 C 165.13 40.36 166.51 40.40 167.20 40.43 C 167.39 39.90 167.77 38.86 167.96 38.33 C 166.66 38.27 165.36 38.21 164.07 38.14 C 161.76 41.01 159.76 44.43 155.87 45.28 C 155.57 43.28 154.02 42.03 151.98 42.55 C 148.71 41.94 146.13 44.14 143.17 44.91 C 143.21 43.27 143.53 41.49 145.10 40.61 C 148.85 41.77 152.68 41.03 156.47 40.53 C 156.51 40.02 156.60 38.98 156.64 38.46 C 154.11 38.77 151.23 38.16 149.12 39.95 M 110.77 52.04 C 111.17 52.23 111.95 52.61 112.34 52.79 C 112.53 51.52 112.72 50.24 112.91 48.97 C 114.34 48.45 115.43 47.69 114.69 46.02 C 112.28 47.08 110.42 49.26 110.77 52.04 M 165.98 51.86 C 165.03 52.90 164.04 53.88 163.12 54.93 C 162.81 55.09 162.19 55.42 161.88 55.58 C 161.67 58.37 161.85 61.17 161.84 63.96 C 164.02 64.53 163.62 66.96 163.55 68.67 C 164.21 68.87 165.53 69.25 166.19 69.44 C 166.34 70.36 166.53 71.29 166.75 72.20 C 167.99 73.43 169.69 72.58 171.17 72.48 C 172.93 74.61 175.41 73.20 177.49 72.47 C 177.41 73.20 177.25 74.64 177.17 75.37 C 173.81 75.46 170.44 75.13 167.09 75.62 C 169.83 77.47 173.50 75.90 176.62 76.50 C 177.83 74.56 180.24 73.28 180.49 70.86 C 180.65 68.72 182.84 67.50 182.71 65.25 C 182.26 65.43 181.37 65.77 180.92 65.95 C 180.61 67.56 180.09 69.12 179.39 70.60 C 176.10 70.64 172.98 72.06 169.64 71.43 C 169.45 70.90 169.08 69.83 168.89 69.30 C 170.81 68.13 173.13 68.77 175.25 68.58 C 177.76 63.97 179.96 58.50 177.41 53.42 C 176.08 52.09 174.74 50.78 173.45 49.42 C 170.85 49.86 168.40 50.87 165.98 51.86 M 117.26 50.05 C 117.26 50.66 117.27 51.87 117.27 52.48 C 119.56 52.63 121.86 52.69 124.15 52.53 C 122.44 50.62 119.23 51.94 117.26 50.05 M 114.29 54.42 C 114.32 54.98 114.37 56.09 114.39 56.64 C 116.02 56.64 117.65 56.64 119.28 56.63 C 121.92 59.34 124.00 63.75 121.25 67.13 C 120.28 68.05 119.74 69.26 119.21 70.46 C 117.71 70.89 116.16 70.59 114.64 70.44 C 114.38 69.88 113.86 68.77 113.60 68.21 C 114.16 66.06 113.59 62.44 116.39 61.85 C 116.37 63.83 116.33 65.81 116.33 67.79 C 120.64 68.85 120.78 59.79 116.24 61.67 C 116.35 61.08 116.56 59.90 116.67 59.31 C 115.34 56.81 112.95 59.69 111.75 60.88 C 109.92 64.38 110.63 68.37 110.78 72.14 C 111.41 72.27 112.67 72.51 113.30 72.63 L 113.27 73.73 C 115.91 73.65 118.56 73.64 121.20 73.83 C 119.20 77.28 114.49 77.26 111.53 75.08 C 111.02 73.08 109.11 73.32 107.55 73.45 C 106.84 74.61 105.19 75.51 105.72 77.10 C 108.51 78.24 111.21 79.99 114.38 79.43 C 114.38 79.73 114.38 80.34 114.38 80.64 C 116.05 77.92 120.50 79.02 122.94 76.91 C 122.28 79.43 120.05 81.44 117.44 81.65 C 116.15 82.57 114.95 83.63 113.65 84.55 C 113.99 84.90 114.66 85.59 115.00 85.94 C 114.27 85.86 112.81 85.71 112.08 85.63 C 111.64 85.36 110.76 84.82 110.32 84.55 C 107.84 85.03 104.45 83.56 102.72 85.89 C 102.40 85.46 101.77 84.60 101.45 84.17 L 100.42 84.24 L 101.13 83.50 C 100.53 83.43 99.34 83.29 98.74 83.22 C 98.67 80.45 98.77 77.67 98.47 74.91 C 97.15 75.93 96.71 77.57 96.14 79.06 C 93.37 80.97 93.19 84.46 93.42 87.51 C 94.38 88.46 95.33 89.43 96.28 90.41 C 96.71 90.34 97.58 90.21 98.01 90.14 C 98.11 90.52 98.31 91.28 98.41 91.65 C 98.87 91.61 99.80 91.53 100.26 91.49 C 103.62 94.29 104.98 98.72 108.47 101.39 C 110.60 102.86 111.30 106.06 113.85 106.85 C 112.86 102.74 109.04 100.37 106.70 97.11 C 104.92 94.31 102.00 92.45 100.58 89.38 C 102.81 89.33 105.05 89.25 107.28 89.15 C 108.63 89.82 110.07 90.28 111.57 90.43 L 111.62 91.30 C 113.13 91.41 114.65 91.55 116.17 91.69 C 117.12 92.30 118.16 92.65 119.28 92.76 C 121.80 96.62 125.81 99.55 126.73 104.35 C 129.21 107.15 129.36 110.92 130.51 114.30 C 132.20 115.30 133.84 116.40 135.34 117.68 C 137.63 122.77 143.89 125.47 149.09 123.31 C 150.73 121.53 152.41 119.76 154.22 118.18 C 155.21 116.53 156.73 115.23 157.26 113.32 C 159.23 109.19 158.10 104.21 160.24 100.16 C 160.36 99.10 160.50 98.04 160.66 96.98 C 162.53 95.42 164.00 93.05 166.85 93.47 L 166.47 93.26 C 167.31 92.50 168.17 91.76 169.06 91.06 C 170.89 91.48 172.75 91.61 174.62 91.60 C 174.01 95.96 169.89 98.39 168.30 102.27 C 167.58 104.47 167.36 107.24 169.06 109.08 C 171.25 107.31 170.17 104.33 170.42 101.93 C 173.57 98.38 176.14 94.36 178.00 89.99 C 178.41 90.44 179.23 91.33 179.63 91.77 C 179.53 91.25 179.31 90.20 179.21 89.68 C 182.75 89.37 184.91 93.11 188.57 92.75 C 188.64 92.22 188.77 91.15 188.84 90.62 C 186.12 90.16 183.59 89.07 181.20 87.73 C 181.93 86.90 182.74 86.17 183.64 85.53 C 183.51 84.12 184.38 81.94 182.81 81.14 C 181.30 81.41 180.19 82.56 178.97 83.39 C 177.18 82.87 175.30 81.54 173.44 82.56 C 170.58 83.86 167.55 82.01 164.78 81.22 C 161.68 78.30 157.70 75.88 156.20 71.70 C 154.49 67.22 151.23 63.09 151.52 58.08 C 151.68 57.06 150.82 55.51 149.97 56.92 C 148.42 59.86 149.78 63.09 150.75 65.96 C 149.42 66.85 148.10 67.85 148.26 69.64 C 149.86 69.78 151.26 69.29 152.24 67.94 C 153.76 70.96 154.60 74.48 157.17 76.85 C 158.28 77.96 159.09 79.30 159.89 80.62 C 157.90 79.91 156.17 78.68 155.19 76.76 C 153.43 75.48 151.66 74.15 149.68 73.23 L 149.73 72.48 C 146.52 71.92 143.51 73.28 140.43 73.43 C 140.53 71.27 139.28 67.63 142.48 67.19 C 142.41 65.90 142.35 64.61 142.29 63.33 C 140.82 63.76 139.40 63.82 138.69 62.08 C 138.64 62.64 138.56 63.74 138.52 64.29 L 140.48 67.50 C 135.59 68.18 134.61 58.38 139.76 59.48 C 139.74 59.23 139.70 58.72 139.69 58.46 C 138.05 58.57 136.42 58.68 134.79 58.77 C 134.23 60.93 136.02 62.81 135.76 65.05 C 136.81 65.58 137.48 66.39 137.74 67.47 C 138.18 67.40 139.06 67.27 139.50 67.20 L 139.84 69.41 C 139.05 69.91 138.50 70.61 138.19 71.50 L 140.02 71.44 C 140.16 76.39 133.41 73.52 132.29 77.30 C 129.63 79.20 128.78 83.96 124.89 83.77 C 124.68 83.96 124.25 84.34 124.04 84.53 C 121.27 84.27 119.24 86.26 117.10 87.66 C 116.59 86.92 115.59 85.45 115.08 84.71 C 116.29 83.41 118.00 83.28 119.65 83.29 C 121.26 81.98 122.75 80.53 124.23 79.09 C 124.31 78.54 124.48 77.44 124.57 76.89 C 127.24 75.21 129.52 72.89 131.08 70.13 C 131.84 67.38 132.15 64.53 132.39 61.69 C 131.92 61.58 130.97 61.36 130.50 61.25 C 130.75 64.55 129.92 67.77 128.91 70.88 C 127.95 73.35 124.79 73.80 124.03 76.34 L 122.35 77.06 C 121.27 73.26 125.38 72.44 126.89 69.78 L 124.62 69.78 C 125.43 68.19 126.28 66.62 127.00 64.98 C 128.34 62.32 126.17 59.58 126.53 56.81 C 125.61 55.35 124.91 53.69 123.46 52.67 C 123.42 53.47 123.36 55.09 123.33 55.90 L 122.30 54.39 C 119.63 54.35 116.96 54.36 114.29 54.42 M 103.66 56.48 C 102.35 59.42 102.20 62.66 101.63 65.79 C 101.56 66.93 100.78 68.34 101.89 69.25 C 102.54 67.90 103.61 66.62 103.55 65.05 C 103.55 61.98 104.86 59.14 105.57 56.21 C 105.09 56.28 104.14 56.41 103.66 56.48 M 145.77 62.86 C 145.68 64.13 145.59 65.41 145.51 66.69 C 146.05 66.65 147.12 66.59 147.66 66.56 C 147.59 65.24 147.52 63.93 147.43 62.62 C 147.02 62.68 146.18 62.80 145.77 62.86 M 199.61 63.54 C 199.38 68.20 201.29 72.56 202.40 76.97 C 202.53 79.64 203.37 82.19 203.73 84.82 C 206.34 84.14 204.61 81.46 204.33 79.71 C 203.97 74.61 201.91 69.78 201.41 64.71 C 206.09 66.64 209.45 70.56 212.23 74.64 C 213.61 77.00 213.13 80.59 215.72 82.15 C 216.04 77.13 212.69 73.02 210.11 69.06 C 207.23 67.15 204.78 64.68 201.90 62.77 C 201.33 62.96 200.18 63.35 199.61 63.54 M 196.35 83.49 C 197.92 87.12 198.14 91.10 199.47 94.78 C 198.38 96.32 198.38 98.19 198.44 99.99 C 197.38 101.93 196.06 103.73 194.27 105.06 C 192.96 105.67 192.37 108.12 194.04 108.63 C 195.68 107.10 196.88 105.12 198.46 103.51 C 200.57 101.09 200.16 97.74 201.19 94.89 C 200.33 91.06 200.03 87.08 198.45 83.44 C 197.93 83.45 196.88 83.47 196.35 83.49 M 226.71 93.59 C 226.73 94.06 226.75 95.01 226.76 95.48 C 227.17 95.76 227.97 96.33 228.37 96.61 C 228.66 96.92 229.23 97.54 229.52 97.86 C 229.32 96.44 228.97 95.05 228.59 93.68 C 228.12 93.66 227.18 93.62 226.71 93.59 M 113.07 95.29 C 113.48 97.80 116.19 98.70 117.30 100.81 C 118.27 102.21 118.39 103.94 118.84 105.54 C 124.01 115.84 128.11 127.19 127.75 138.86 C 128.40 141.08 128.73 143.37 128.55 145.69 C 129.07 145.69 130.11 145.70 130.63 145.70 C 130.52 144.34 130.70 142.91 130.23 141.60 C 128.65 138.25 129.85 134.49 129.32 130.96 C 127.73 122.61 125.51 114.19 121.16 106.81 C 120.11 104.52 119.86 101.93 118.50 99.77 C 116.21 98.73 115.98 94.47 113.07 95.29 M 222.08 106.18 C 222.01 112.19 220.35 117.95 219.17 123.82 C 216.81 127.83 216.96 132.99 213.71 136.51 C 212.87 138.43 211.94 142.79 215.38 141.35 C 214.67 138.39 215.67 135.72 217.44 133.39 C 218.48 129.71 219.95 126.17 221.42 122.65 C 221.89 118.01 223.88 113.52 223.36 108.82 C 223.68 108.32 224.33 107.32 224.65 106.82 C 223.79 106.60 222.93 106.39 222.08 106.18 M 99.36 114.56 C 99.20 115.70 99.17 116.85 99.28 118.00 C 102.00 123.01 106.13 127.79 111.95 129.04 C 113.28 129.89 114.84 128.80 114.95 127.39 C 113.60 127.38 112.26 127.38 110.92 127.39 C 109.02 126.30 107.06 125.24 105.52 123.65 C 103.13 121.14 100.01 118.26 101.41 114.47 C 100.90 114.49 99.87 114.54 99.36 114.56 M 163.93 131.53 C 163.20 132.95 164.56 135.28 162.73 136.02 C 162.97 136.19 163.45 136.53 163.69 136.69 C 163.54 141.78 161.21 146.57 161.58 151.68 C 162.09 151.66 163.11 151.63 163.62 151.62 C 163.36 145.25 166.46 139.28 165.42 132.90 C 167.52 128.18 167.83 122.99 169.13 118.08 C 170.54 117.04 172.09 114.08 169.08 114.22 C 165.68 119.39 166.25 125.93 163.93 131.53 M 198.39 139.37 C 196.32 140.23 194.03 140.57 192.13 141.83 C 193.94 143.67 196.97 141.68 199.09 141.06 C 201.16 137.24 203.64 133.36 203.92 128.91 C 200.70 131.52 200.45 136.01 198.39 139.37 M 193.81 148.86 C 193.42 150.45 193.47 152.22 192.57 153.63 C 190.95 155.57 188.27 155.79 185.93 155.98 C 183.36 156.04 181.51 158.27 178.98 158.44 C 177.82 158.54 176.79 158.98 175.89 159.75 C 176.04 158.71 176.34 156.62 176.50 155.57 C 172.89 155.03 173.67 158.94 173.74 161.16 C 177.78 161.18 181.79 159.89 184.97 157.37 C 186.64 157.38 188.32 157.53 189.99 157.32 C 191.70 156.37 193.05 154.89 194.54 153.62 C 194.94 151.74 195.41 149.88 195.92 148.03 C 195.40 148.24 194.34 148.65 193.81 148.86 Z" />
<path fill="#999999" opacity="1.00" d=" M 171.73 20.93 C 172.27 20.91 173.36 20.89 173.90 20.88 C 178.89 24.12 183.30 28.62 185.95 33.92 C 183.19 33.51 181.90 30.63 180.23 28.73 C 178.20 25.30 173.95 24.20 171.73 20.93 Z" />
<path fill="#898989" opacity="1.00" d=" M 135.44 31.63 C 141.61 29.87 148.13 31.32 154.45 30.68 C 154.51 31.19 154.62 32.22 154.67 32.73 C 149.04 32.51 143.41 32.65 137.78 32.59 C 137.30 32.97 136.32 33.74 135.84 34.12 C 135.70 33.29 135.57 32.46 135.44 31.63 Z" />
<path fill="#989895" opacity="1.00" d=" M 149.12 39.95 C 151.23 38.16 154.11 38.77 156.64 38.46 C 156.60 38.98 156.51 40.02 156.47 40.53 C 152.68 41.03 148.85 41.77 145.10 40.61 C 143.53 41.49 143.21 43.27 143.17 44.91 C 146.13 44.14 148.71 41.94 151.98 42.55 C 154.02 42.03 155.57 43.28 155.87 45.28 C 159.76 44.43 161.76 41.01 164.07 38.14 C 165.36 38.21 166.66 38.27 167.96 38.33 C 167.77 38.86 167.39 39.90 167.20 40.43 C 166.51 40.40 165.13 40.36 164.43 40.34 C 161.27 46.32 154.20 48.25 148.16 49.98 C 143.82 51.28 139.47 49.69 135.15 49.35 C 129.76 48.10 125.59 44.16 122.14 40.01 C 122.35 39.52 122.77 38.54 122.98 38.05 C 125.50 42.62 130.03 45.59 134.87 47.25 C 137.98 46.95 140.79 48.71 143.90 48.35 C 147.45 48.47 150.75 46.97 154.17 46.23 C 154.51 45.92 155.19 45.31 155.53 45.01 C 151.72 43.96 147.54 44.14 144.50 46.92 C 143.08 46.60 141.62 46.26 140.53 45.22 C 141.08 43.57 141.55 41.88 141.88 40.16 C 142.42 39.75 143.50 38.92 144.04 38.51 C 145.82 38.68 147.56 39.07 149.12 39.95 Z" />
<path fill="#878883" opacity="1.00" d=" M 110.77 52.04 C 110.42 49.26 112.28 47.08 114.69 46.02 C 115.43 47.69 114.34 48.45 112.91 48.97 C 112.72 50.24 112.53 51.52 112.34 52.79 C 111.95 52.61 111.17 52.23 110.77 52.04 Z" />
<path fill="#363732" opacity="1.00" d=" M 88.85 70.22 C 92.19 62.36 95.86 54.62 100.00 47.15 C 100.65 47.44 101.95 48.03 102.60 48.32 C 97.39 59.63 90.05 70.46 89.15 83.20 C 88.03 85.68 88.52 88.52 87.40 90.99 C 85.99 93.98 86.51 97.34 86.29 100.53 C 83.88 107.22 84.93 114.60 85.15 121.58 C 86.04 120.91 86.58 120.03 86.76 118.92 L 87.27 119.85 C 87.35 120.38 87.53 121.45 87.62 121.99 C 88.85 124.33 89.86 126.77 90.73 129.27 C 88.00 127.56 88.02 123.91 85.89 121.67 C 86.30 124.26 86.87 126.83 87.56 129.37 L 86.95 128.37 C 85.55 124.71 83.63 121.07 83.66 117.05 C 83.68 109.34 83.64 101.64 83.68 93.93 C 83.65 91.51 85.14 89.41 85.39 87.04 C 85.90 81.29 87.67 75.82 88.85 70.22 Z" />
<path fill="#10100d" opacity="1.00" d=" M 165.98 51.86 C 168.40 50.87 170.85 49.86 173.45 49.42 C 174.74 50.78 176.08 52.09 177.41 53.42 C 179.96 58.50 177.76 63.97 175.25 68.58 C 173.13 68.77 170.81 68.13 168.89 69.30 C 168.32 69.66 167.78 70.05 167.26 70.47 C 167.10 69.07 167.00 67.66 166.89 66.26 C 166.23 66.77 164.92 67.79 164.26 68.30 C 164.42 67.29 164.59 66.28 164.75 65.27 C 164.32 64.89 163.46 64.13 163.03 63.76 C 163.00 60.81 162.93 57.87 163.12 54.93 C 164.04 53.88 165.03 52.90 165.98 51.86 M 165.38 57.46 C 166.28 59.50 165.75 62.63 167.65 63.86 C 167.61 64.23 167.53 64.96 167.49 65.32 C 168.68 65.39 169.80 65.69 170.85 66.22 C 171.23 66.27 172.00 66.37 172.39 66.43 C 172.51 65.85 172.74 64.69 172.86 64.11 C 173.23 63.74 173.97 62.98 174.34 62.61 C 174.13 61.01 174.63 59.86 175.84 59.16 C 174.78 57.95 174.21 56.49 174.21 54.88 C 173.69 54.57 172.64 53.94 172.11 53.62 C 169.31 53.59 167.31 55.74 165.38 57.46 Z" />
<path fill="#4b4c47" opacity="1.00" d=" M 117.26 50.05 C 119.23 51.94 122.44 50.62 124.15 52.53 C 121.86 52.69 119.56 52.63 117.27 52.48 C 117.27 51.87 117.26 50.66 117.26 50.05 Z" />
<path fill="#eaeae8" opacity="1.00" d=" M 165.38 57.46 C 167.31 55.74 169.31 53.59 172.11 53.62 C 172.64 53.94 173.69 54.57 174.21 54.88 C 174.21 56.49 174.78 57.95 175.84 59.16 C 174.63 59.86 174.13 61.01 174.34 62.61 C 173.97 62.98 173.23 63.74 172.86 64.11 C 172.74 64.69 172.51 65.85 172.39 66.43 C 172.00 66.37 171.23 66.27 170.85 66.22 C 169.80 65.69 168.68 65.39 167.49 65.32 C 167.53 64.96 167.61 64.23 167.65 63.86 C 165.75 62.63 166.28 59.50 165.38 57.46 M 167.50 59.03 C 168.71 60.57 169.21 62.90 171.20 63.67 C 171.90 62.19 172.66 60.72 173.08 59.13 C 172.28 56.79 168.21 56.23 167.50 59.03 Z" />
<path fill="#181913" opacity="1.00" d=" M 114.29 54.42 C 116.96 54.36 119.63 54.35 122.30 54.39 L 123.33 55.90 C 124.79 58.03 126.38 60.27 126.53 62.94 C 125.43 66.34 124.23 70.10 121.28 72.37 C 118.92 74.10 115.91 72.89 113.30 72.63 C 112.67 72.51 111.41 72.27 110.78 72.14 C 110.63 68.37 109.92 64.38 111.75 60.88 C 112.95 59.69 115.34 56.81 116.67 59.31 C 116.56 59.90 116.35 61.08 116.24 61.67 C 120.78 59.79 120.64 68.85 116.33 67.79 C 116.33 65.81 116.37 63.83 116.39 61.85 C 113.59 62.44 114.16 66.06 113.60 68.21 C 113.86 68.77 114.38 69.88 114.64 70.44 C 116.16 70.59 117.71 70.89 119.21 70.46 C 119.74 69.26 120.28 68.05 121.25 67.13 C 124.00 63.75 121.92 59.34 119.28 56.63 C 117.65 56.64 116.02 56.64 114.39 56.64 C 114.37 56.09 114.32 54.98 114.29 54.42 Z" />
<path fill="#878883" opacity="1.00" d=" M 123.46 52.67 C 124.91 53.69 125.61 55.35 126.53 56.81 C 126.17 59.58 128.34 62.32 127.00 64.98 C 126.28 66.62 125.43 68.19 124.62 69.78 L 126.89 69.78 C 125.38 72.44 121.27 73.26 122.35 77.06 L 124.03 76.34 C 124.79 73.80 127.95 73.35 128.91 70.88 C 129.92 67.77 130.75 64.55 130.50 61.25 C 130.97 61.36 131.92 61.58 132.39 61.69 C 132.15 64.53 131.84 67.38 131.08 70.13 C 129.52 72.89 127.24 75.21 124.57 76.89 C 124.48 77.44 124.31 78.54 124.23 79.09 C 122.75 80.53 121.26 81.98 119.65 83.29 C 118.00 83.28 116.29 83.41 115.08 84.71 C 115.59 85.45 116.59 86.92 117.10 87.66 C 116.57 87.23 115.52 86.37 115.00 85.94 C 114.66 85.59 113.99 84.90 113.65 84.55 C 114.95 83.63 116.15 82.57 117.44 81.65 C 120.05 81.44 122.28 79.43 122.94 76.91 C 120.50 79.02 116.05 77.92 114.38 80.64 C 114.38 80.34 114.38 79.73 114.38 79.43 C 111.21 79.99 108.51 78.24 105.72 77.10 C 106.31 77.03 107.48 76.88 108.06 76.81 C 109.60 77.46 111.13 78.11 112.68 78.73 C 112.94 76.62 111.58 75.52 109.89 74.77 L 111.53 75.08 C 114.49 77.26 119.20 77.28 121.20 73.83 C 118.56 73.64 115.91 73.65 113.27 73.73 L 113.30 72.63 C 115.91 72.89 118.92 74.10 121.28 72.37 C 124.23 70.10 125.43 66.34 126.53 62.94 C 126.38 60.27 124.79 58.03 123.33 55.90 C 123.36 55.09 123.42 53.47 123.46 52.67 Z" />
<path fill="#636361" opacity="1.00" d=" M 161.88 55.58 C 162.19 55.42 162.81 55.09 163.12 54.93 C 162.93 57.87 163.00 60.81 163.03 63.76 C 163.46 64.13 164.32 64.89 164.75 65.27 C 164.59 66.28 164.42 67.29 164.26 68.30 C 164.92 67.79 166.23 66.77 166.89 66.26 C 167.00 67.66 167.10 69.07 167.26 70.47 C 167.78 70.05 168.32 69.66 168.89 69.30 C 169.08 69.83 169.45 70.90 169.64 71.43 C 172.98 72.06 176.10 70.64 179.39 70.60 C 180.09 69.12 180.61 67.56 180.92 65.95 C 181.37 65.77 182.26 65.43 182.71 65.25 C 182.84 67.50 180.65 68.72 180.49 70.86 C 180.24 73.28 177.83 74.56 176.62 76.50 C 173.50 75.90 169.83 77.47 167.09 75.62 C 170.44 75.13 173.81 75.46 177.17 75.37 C 177.25 74.64 177.41 73.20 177.49 72.47 C 175.41 73.20 172.93 74.61 171.17 72.48 C 169.69 72.58 167.99 73.43 166.75 72.20 C 166.53 71.29 166.34 70.36 166.19 69.44 C 165.53 69.25 164.21 68.87 163.55 68.67 C 163.62 66.96 164.02 64.53 161.84 63.96 C 161.85 61.17 161.67 58.37 161.88 55.58 Z" />
<path fill="#898989" opacity="1.00" d=" M 103.66 56.48 C 104.14 56.41 105.09 56.28 105.57 56.21 C 104.86 59.14 103.55 61.98 103.55 65.05 C 103.61 66.62 102.54 67.90 101.89 69.25 C 100.78 68.34 101.56 66.93 101.63 65.79 C 102.20 62.66 102.35 59.42 103.66 56.48 Z" />
<path fill="#a0a19c" opacity="1.00" d=" M 149.97 56.92 C 150.82 55.51 151.68 57.06 151.52 58.08 C 151.23 63.09 154.49 67.22 156.20 71.70 C 157.70 75.88 161.68 78.30 164.78 81.22 C 167.55 82.01 170.58 83.86 173.44 82.56 C 175.30 81.54 177.18 82.87 178.97 83.39 C 180.19 82.56 181.30 81.41 182.81 81.14 C 184.38 81.94 183.51 84.12 183.64 85.53 C 182.74 86.17 181.93 86.90 181.20 87.73 C 183.59 89.07 186.12 90.16 188.84 90.62 C 188.77 91.15 188.64 92.22 188.57 92.75 C 184.91 93.11 182.75 89.37 179.21 89.68 C 179.31 90.20 179.53 91.25 179.63 91.77 C 179.23 91.33 178.41 90.44 178.00 89.99 C 176.14 94.36 173.57 98.38 170.42 101.93 C 170.17 104.33 171.25 107.31 169.06 109.08 C 167.36 107.24 167.58 104.47 168.30 102.27 C 169.89 98.39 174.01 95.96 174.62 91.60 C 172.75 91.61 170.89 91.48 169.06 91.06 L 169.65 90.64 C 173.22 90.20 176.78 89.58 180.36 89.16 C 180.38 88.44 180.41 87.01 180.43 86.29 C 182.33 85.68 183.62 84.50 183.38 82.29 C 180.69 83.51 177.79 84.43 174.94 83.14 C 173.29 83.59 171.62 83.91 169.95 84.22 C 169.59 84.48 168.86 85.00 168.50 85.26 C 166.31 84.61 164.11 83.82 162.30 82.38 C 161.49 81.80 160.69 81.21 159.89 80.62 C 159.09 79.30 158.28 77.96 157.17 76.85 C 154.60 74.48 153.76 70.96 152.24 67.94 C 151.26 69.29 149.86 69.78 148.26 69.64 C 148.10 67.85 149.42 66.85 150.75 65.96 C 149.78 63.09 148.42 59.86 149.97 56.92 Z" />
<path fill="#0d0d09" opacity="1.00" d=" M 222.95 55.76 C 228.48 58.76 230.42 65.19 233.97 70.00 C 236.24 73.62 240.10 76.57 240.55 81.09 C 241.16 84.62 242.15 88.29 240.99 91.82 C 240.08 94.78 241.02 97.99 239.86 100.90 C 238.93 104.55 239.02 108.43 237.90 111.98 C 236.38 118.75 234.98 125.69 231.79 131.90 C 230.60 133.51 229.28 135.05 227.57 136.12 C 231.32 124.63 235.72 113.18 236.95 101.07 C 238.07 97.61 237.73 93.94 238.44 90.41 C 239.53 87.10 238.17 83.67 237.41 80.44 C 236.78 77.95 235.10 75.99 232.84 74.82 C 228.78 69.96 226.58 63.74 222.01 59.29 C 222.31 58.11 222.63 56.93 222.95 55.76 Z" />
<path fill="#4b4c47" opacity="1.00" d=" M 134.79 58.77 C 136.42 58.68 138.05 58.57 139.69 58.46 C 139.70 58.72 139.74 59.23 139.76 59.48 C 134.61 58.38 135.59 68.18 140.48 67.50 L 138.52 64.29 C 138.56 63.74 138.64 62.64 138.69 62.08 C 139.40 63.82 140.82 63.76 142.29 63.33 C 142.35 64.61 142.41 65.90 142.48 67.19 C 139.28 67.63 140.53 71.27 140.43 73.43 C 143.51 73.28 146.52 71.92 149.73 72.48 L 149.68 73.23 C 143.66 73.28 137.74 74.78 132.29 77.30 C 133.41 73.52 140.16 76.39 140.02 71.44 L 138.19 71.50 C 138.50 70.61 139.05 69.91 139.84 69.41 L 139.50 67.20 C 139.06 67.27 138.18 67.40 137.74 67.47 C 137.48 66.39 136.81 65.58 135.76 65.05 C 136.02 62.81 134.23 60.93 134.79 58.77 Z" />
<path fill="#1b1c18" opacity="1.00" d=" M 167.50 59.03 C 168.21 56.23 172.28 56.79 173.08 59.13 C 172.66 60.72 171.90 62.19 171.20 63.67 C 169.21 62.90 168.71 60.57 167.50 59.03 Z" />
<path fill="#181913" opacity="1.00" d=" M 145.77 62.86 C 146.18 62.80 147.02 62.68 147.43 62.62 C 147.52 63.93 147.59 65.24 147.66 66.56 C 147.12 66.59 146.05 66.65 145.51 66.69 C 145.59 65.41 145.68 64.13 145.77 62.86 Z" />
<path fill="#84857f" opacity="1.00" d=" M 199.61 63.54 C 200.18 63.35 201.33 62.96 201.90 62.77 C 204.78 64.68 207.23 67.15 210.11 69.06 C 212.69 73.02 216.04 77.13 215.72 82.15 C 213.13 80.59 213.61 77.00 212.23 74.64 C 209.45 70.56 206.09 66.64 201.41 64.71 C 201.91 69.78 203.97 74.61 204.33 79.71 C 204.61 81.46 206.34 84.14 203.73 84.82 C 203.37 82.19 202.53 79.64 202.40 76.97 C 201.29 72.56 199.38 68.20 199.61 63.54 Z" />
<path fill="#646560" opacity="1.00" d=" M 107.55 73.45 C 109.11 73.32 111.02 73.08 111.53 75.08 L 109.89 74.77 C 109.20 74.60 107.83 74.27 107.15 74.10 C 107.38 74.78 107.84 76.13 108.06 76.81 C 107.48 76.88 106.31 77.03 105.72 77.10 C 105.19 75.51 106.84 74.61 107.55 73.45 Z" />
<path fill="#151710" opacity="1.00" d=" M 132.29 77.30 C 137.74 74.78 143.66 73.28 149.68 73.23 C 151.66 74.15 153.43 75.48 155.19 76.76 C 156.17 78.68 157.90 79.91 159.89 80.62 C 160.69 81.21 161.49 81.80 162.30 82.38 C 160.95 83.70 159.27 83.43 157.69 82.76 C 157.36 82.66 156.72 82.45 156.39 82.35 C 156.36 83.09 156.30 84.57 156.26 85.31 C 152.59 83.91 148.25 85.09 144.97 82.64 C 147.63 81.19 150.70 81.53 153.48 82.42 C 153.52 81.94 153.60 80.99 153.64 80.51 C 151.59 78.64 149.38 76.97 147.12 75.38 C 143.54 76.82 139.40 76.69 136.15 78.93 C 134.48 80.02 133.45 81.79 132.21 83.30 C 131.81 83.53 131.02 83.99 130.62 84.21 C 126.95 85.33 123.23 86.53 120.00 88.66 C 119.63 90.28 120.34 90.95 122.13 90.68 C 122.19 95.36 127.02 97.90 128.30 102.15 C 129.57 106.58 133.17 109.69 135.45 113.57 C 135.96 112.62 136.47 111.68 136.98 110.74 C 139.44 110.77 141.78 111.49 144.01 112.49 C 145.66 112.11 147.33 111.78 149.00 111.50 C 148.45 112.55 147.89 113.61 147.34 114.66 C 143.85 115.11 140.55 114.05 137.58 112.27 C 137.48 112.90 137.29 114.15 137.19 114.78 C 139.84 117.08 141.88 120.07 145.08 121.70 C 148.53 118.27 152.70 115.11 154.34 110.35 C 156.78 106.77 157.02 102.37 157.64 98.22 C 156.76 98.79 155.88 99.36 155.01 99.93 C 154.83 99.29 154.48 97.99 154.30 97.35 L 154.57 96.69 C 155.31 96.61 156.78 96.45 157.52 96.37 C 158.75 95.65 159.92 94.86 161.10 94.07 C 160.99 94.80 160.77 96.25 160.66 96.98 C 160.50 98.04 160.36 99.10 160.24 100.16 C 158.10 104.21 159.23 109.19 157.26 113.32 C 156.73 115.23 155.21 116.53 154.22 118.18 C 152.41 119.76 150.73 121.53 149.09 123.31 C 143.89 125.47 137.63 122.77 135.34 117.68 C 133.84 116.40 132.20 115.30 130.51 114.30 C 129.36 110.92 129.21 107.15 126.73 104.35 C 125.81 99.55 121.80 96.62 119.28 92.76 C 118.16 92.65 117.12 92.30 116.17 91.69 C 114.65 91.55 113.13 91.41 111.62 91.30 L 111.57 90.43 C 110.07 90.28 108.63 89.82 107.28 89.15 C 106.24 88.61 105.20 88.06 104.17 87.51 C 103.69 87.84 102.72 88.50 102.24 88.84 C 101.59 88.52 100.30 87.88 99.65 87.56 C 99.61 88.72 99.56 89.88 99.52 91.05 C 99.34 88.93 99.15 86.82 98.95 84.71 C 99.32 84.59 100.05 84.36 100.42 84.24 L 101.45 84.17 C 101.77 84.60 102.40 85.46 102.72 85.89 C 104.45 83.56 107.84 85.03 110.32 84.55 C 110.76 84.82 111.64 85.36 112.08 85.63 C 112.81 85.71 114.27 85.86 115.00 85.94 C 115.52 86.37 116.57 87.23 117.10 87.66 C 119.24 86.26 121.27 84.27 124.04 84.53 C 124.25 84.34 124.68 83.96 124.89 83.77 C 128.78 83.96 129.63 79.20 132.29 77.30 Z" />
<path fill="#83847e" opacity="1.00" d=" M 96.14 79.06 C 96.71 77.57 97.15 75.93 98.47 74.91 C 98.77 77.67 98.67 80.45 98.74 83.22 C 99.34 83.29 100.53 83.43 101.13 83.50 L 100.42 84.24 C 100.05 84.36 99.32 84.59 98.95 84.71 C 99.15 86.82 99.34 88.93 99.52 91.05 C 99.56 89.88 99.61 88.72 99.65 87.56 C 100.30 87.88 101.59 88.52 102.24 88.84 C 102.72 88.50 103.69 87.84 104.17 87.51 C 105.20 88.06 106.24 88.61 107.28 89.15 C 105.05 89.25 102.81 89.33 100.58 89.38 C 102.00 92.45 104.92 94.31 106.70 97.11 C 109.04 100.37 112.86 102.74 113.85 106.85 C 111.30 106.06 110.60 102.86 108.47 101.39 C 104.98 98.72 103.62 94.29 100.26 91.49 C 99.80 91.53 98.87 91.61 98.41 91.65 C 98.31 91.28 98.11 90.52 98.01 90.14 C 97.58 90.21 96.71 90.34 96.28 90.41 C 95.33 89.43 94.38 88.46 93.42 87.51 C 93.19 84.46 93.37 80.97 96.14 79.06 M 95.93 80.61 C 94.79 83.55 94.42 88.98 98.37 89.82 C 98.61 86.46 97.52 83.24 97.20 79.93 L 95.93 80.61 Z" />
<path fill="#dcddd7" opacity="1.00" d=" M 107.15 74.10 C 107.83 74.27 109.20 74.60 109.89 74.77 C 111.58 75.52 112.94 76.62 112.68 78.73 C 111.13 78.11 109.60 77.46 108.06 76.81 C 107.84 76.13 107.38 74.78 107.15 74.10 Z" />
<path fill="#646560" opacity="1.00" d=" M 232.84 74.82 C 235.10 75.99 236.78 77.95 237.41 80.44 C 238.17 83.67 239.53 87.10 238.44 90.41 C 237.73 93.94 238.07 97.61 236.95 101.07 C 235.72 113.18 231.32 124.63 227.57 136.12 C 224.26 139.15 222.65 143.94 218.43 145.90 C 221.74 141.54 226.48 137.82 227.62 132.21 C 231.12 122.87 234.19 113.25 235.28 103.32 C 236.47 99.42 236.76 95.38 237.00 91.34 C 238.38 85.57 236.33 79.47 232.84 74.82 Z" />
<path fill="#fafcf7" opacity="1.00" d=" M 136.15 78.93 C 139.40 76.69 143.54 76.82 147.12 75.38 C 149.38 76.97 151.59 78.64 153.64 80.51 C 153.60 80.99 153.52 81.94 153.48 82.42 C 150.70 81.53 147.63 81.19 144.97 82.64 C 143.83 82.66 142.69 82.68 141.55 82.76 L 140.42 83.18 C 139.86 83.40 138.73 83.84 138.16 84.06 C 137.89 84.19 137.34 84.45 137.06 84.58 C 134.91 84.72 132.75 84.51 130.62 84.21 C 131.02 83.99 131.81 83.53 132.21 83.30 C 133.45 81.79 134.48 80.02 136.15 78.93 Z" />
<path fill="#f0f1eb" opacity="1.00" d=" M 95.93 80.61 L 97.20 79.93 C 97.52 83.24 98.61 86.46 98.37 89.82 C 94.42 88.98 94.79 83.55 95.93 80.61 Z" />
<path fill="#eaeae8" opacity="1.00" d=" M 156.39 82.35 C 156.72 82.45 157.36 82.66 157.69 82.76 C 157.64 83.73 157.60 84.70 157.56 85.67 C 157.23 85.58 156.59 85.40 156.26 85.31 C 156.30 84.57 156.36 83.09 156.39 82.35 Z" />
<path fill="#292709" opacity="1.00" d=" M 157.69 82.76 C 159.27 83.43 160.95 83.70 162.30 82.38 C 164.11 83.82 166.31 84.61 168.50 85.26 C 167.66 85.68 166.81 86.08 165.96 86.46 C 166.95 86.87 167.95 87.29 168.94 87.72 C 167.73 87.87 166.52 88.03 165.31 88.18 C 165.64 88.54 166.32 89.25 166.65 89.61 C 165.85 90.41 165.05 91.22 164.26 92.03 C 164.99 92.44 165.73 92.85 166.47 93.26 L 166.85 93.47 C 164.00 93.05 162.53 95.42 160.66 96.98 C 160.77 96.25 160.99 94.80 161.10 94.07 C 159.92 94.86 158.75 95.65 157.52 96.37 C 157.51 95.86 157.48 94.83 157.46 94.32 C 156.28 94.79 155.10 95.27 153.91 95.73 C 153.26 97.45 152.63 99.17 152.22 100.96 C 152.96 99.78 153.65 98.57 154.30 97.35 C 154.48 97.99 154.83 99.29 155.01 99.93 C 155.88 99.36 156.76 98.79 157.64 98.22 C 157.02 102.37 156.78 106.77 154.34 110.35 C 154.49 109.47 154.79 107.70 154.94 106.82 C 153.15 108.58 151.49 110.70 149.00 111.50 C 147.33 111.78 145.66 112.11 144.01 112.49 C 141.78 111.49 139.44 110.77 136.98 110.74 C 136.47 111.68 135.96 112.62 135.45 113.57 C 133.17 109.69 129.57 106.58 128.30 102.15 C 127.02 97.90 122.19 95.36 122.13 90.68 C 122.20 89.12 121.49 88.44 120.00 88.66 C 123.23 86.53 126.95 85.33 130.62 84.21 C 132.75 84.51 134.91 84.72 137.06 84.58 C 135.09 85.70 132.73 85.74 130.75 86.83 C 135.07 87.67 139.35 86.32 143.14 84.33 C 142.46 84.04 141.10 83.46 140.42 83.18 L 141.55 82.76 C 142.69 82.68 143.83 82.66 144.97 82.64 C 148.25 85.09 152.59 83.91 156.26 85.31 C 156.59 85.40 157.23 85.58 157.56 85.67 C 157.60 84.70 157.64 83.73 157.69 82.76 M 148.21 86.68 C 149.46 86.56 150.70 86.40 151.95 86.23 C 150.82 85.22 148.02 84.28 148.21 86.68 M 138.42 101.45 C 136.82 103.68 141.29 104.54 141.26 102.02 C 140.53 101.03 139.59 100.84 138.42 101.45 M 144.23 105.29 C 143.70 106.91 144.24 107.47 145.87 106.98 C 146.39 105.33 145.85 104.77 144.23 105.29 Z" />
<path fill="#181913" opacity="1.00" d=" M 169.95 84.22 C 171.62 83.91 173.29 83.59 174.94 83.14 C 177.79 84.43 180.69 83.51 183.38 82.29 C 183.62 84.50 182.33 85.68 180.43 86.29 C 180.41 87.01 180.38 88.44 180.36 89.16 C 176.78 89.58 173.22 90.20 169.65 90.64 L 169.06 91.06 C 168.17 91.76 167.31 92.50 166.47 93.26 C 165.73 92.85 164.99 92.44 164.26 92.03 C 165.05 91.22 165.85 90.41 166.65 89.61 C 166.32 89.25 165.64 88.54 165.31 88.18 C 166.52 88.03 167.73 87.87 168.94 87.72 C 167.95 87.29 166.95 86.87 165.96 86.46 C 166.81 86.08 167.66 85.68 168.50 85.26 C 168.86 85.00 169.59 84.48 169.95 84.22 M 172.04 86.18 C 170.64 87.73 173.63 88.99 174.57 87.69 C 175.61 86.17 173.02 84.82 172.04 86.18 Z" />
<path fill="#999999" opacity="1.00" d=" M 196.35 83.49 C 196.88 83.47 197.93 83.45 198.45 83.44 C 200.03 87.08 200.33 91.06 201.19 94.89 C 200.16 97.74 200.57 101.09 198.46 103.51 C 196.88 105.12 195.68 107.10 194.04 108.63 C 192.37 108.12 192.96 105.67 194.27 105.06 C 196.06 103.73 197.38 101.93 198.44 99.99 C 198.38 98.19 198.38 96.32 199.47 94.78 C 198.14 91.10 197.92 87.12 196.35 83.49 Z" />
<path fill="#141507" opacity="1.00" d=" M 138.16 84.06 C 138.73 83.84 139.86 83.40 140.42 83.18 C 141.10 83.46 142.46 84.04 143.14 84.33 C 139.35 86.32 135.07 87.67 130.75 86.83 C 132.73 85.74 135.09 85.70 137.06 84.58 C 137.34 84.45 137.89 84.19 138.16 84.06 Z" />
<path fill="#eaeae8" opacity="1.00" d=" M 148.21 86.68 C 148.02 84.28 150.82 85.22 151.95 86.23 C 150.70 86.40 149.46 86.56 148.21 86.68 Z" />
<path fill="#a0a19c" opacity="1.00" d=" M 172.04 86.18 C 173.02 84.82 175.61 86.17 174.57 87.69 C 173.63 88.99 170.64 87.73 172.04 86.18 Z" />
<path fill="#6e6e61" opacity="1.00" d=" M 120.00 88.66 C 121.49 88.44 122.20 89.12 122.13 90.68 C 120.34 90.95 119.63 90.28 120.00 88.66 Z" />
<path fill="#4b4c47" opacity="1.00" d=" M 226.71 93.59 C 227.18 93.62 228.12 93.66 228.59 93.68 C 228.97 95.05 229.32 96.44 229.52 97.86 C 229.23 97.54 228.66 96.92 228.37 96.61 C 227.97 96.33 227.17 95.76 226.76 95.48 C 226.75 95.01 226.73 94.06 226.71 93.59 Z" />
<path fill="#eaeae8" opacity="1.00" d=" M 153.91 95.73 C 155.10 95.27 156.28 94.79 157.46 94.32 C 157.48 94.83 157.51 95.86 157.52 96.37 C 156.78 96.45 155.31 96.61 154.57 96.69 L 154.30 97.35 C 153.65 98.57 152.96 99.78 152.22 100.96 C 152.63 99.17 153.26 97.45 153.91 95.73 Z" />
<path fill="#888886" opacity="1.00" d=" M 113.07 95.29 C 115.98 94.47 116.21 98.73 118.50 99.77 C 119.86 101.93 120.11 104.52 121.16 106.81 C 125.51 114.19 127.73 122.61 129.32 130.96 C 129.85 134.49 128.65 138.25 130.23 141.60 C 130.70 142.91 130.52 144.34 130.63 145.70 C 130.11 145.70 129.07 145.69 128.55 145.69 C 128.73 143.37 128.40 141.08 127.75 138.86 C 128.11 127.19 124.01 115.84 118.84 105.54 C 118.39 103.94 118.27 102.21 117.30 100.81 C 116.19 98.70 113.48 97.80 113.07 95.29 Z" />
<path fill="#1d1e19" opacity="1.00" d=" M 85.15 121.58 C 84.93 114.60 83.88 107.22 86.29 100.53 C 86.61 106.66 85.96 112.83 86.76 118.92 C 86.58 120.03 86.04 120.91 85.15 121.58 Z" />
<path fill="#ffece3" opacity="1.00" d=" M 138.42 101.45 C 139.59 100.84 140.53 101.03 141.26 102.02 C 141.29 104.54 136.82 103.68 138.42 101.45 Z" />
<path fill="#747358" opacity="1.00" d=" M 144.23 105.29 C 145.85 104.77 146.39 105.33 145.87 106.98 C 144.24 107.47 143.70 106.91 144.23 105.29 Z" />
<path fill="#858585" opacity="1.00" d=" M 222.08 106.18 C 222.93 106.39 223.79 106.60 224.65 106.82 C 224.33 107.32 223.68 108.32 223.36 108.82 C 223.88 113.52 221.89 118.01 221.42 122.65 C 219.95 126.17 218.48 129.71 217.44 133.39 C 215.67 135.72 214.67 138.39 215.38 141.35 C 211.94 142.79 212.87 138.43 213.71 136.51 C 216.96 132.99 216.81 127.83 219.17 123.82 C 220.35 117.95 222.01 112.19 222.08 106.18 Z" />
<path fill="#f6f7f3" opacity="1.00" d=" M 149.00 111.50 C 151.49 110.70 153.15 108.58 154.94 106.82 C 154.79 107.70 154.49 109.47 154.34 110.35 C 152.70 115.11 148.53 118.27 145.08 121.70 C 141.88 120.07 139.84 117.08 137.19 114.78 C 137.29 114.15 137.48 112.90 137.58 112.27 C 140.55 114.05 143.85 115.11 147.34 114.66 C 147.89 113.61 148.45 112.55 149.00 111.50 Z" />
<path fill="#83847e" opacity="1.00" d=" M 99.36 114.56 C 99.87 114.54 100.90 114.49 101.41 114.47 C 100.01 118.26 103.13 121.14 105.52 123.65 C 107.06 125.24 109.02 126.30 110.92 127.39 C 112.26 127.38 113.60 127.38 114.95 127.39 C 114.84 128.80 113.28 129.89 111.95 129.04 C 106.13 127.79 102.00 123.01 99.28 118.00 C 99.17 116.85 99.20 115.70 99.36 114.56 Z" />
<path fill="#969694" opacity="1.00" d=" M 163.93 131.53 C 166.25 125.93 165.68 119.39 169.08 114.22 C 172.09 114.08 170.54 117.04 169.13 118.08 C 167.83 122.99 167.52 128.18 165.42 132.90 C 166.46 139.28 163.36 145.25 163.62 151.62 C 163.11 151.63 162.09 151.66 161.58 151.68 C 161.21 146.57 163.54 141.78 163.69 136.69 C 163.45 136.53 162.97 136.19 162.73 136.02 C 164.56 135.28 163.20 132.95 163.93 131.53 Z" />
<path fill="#0b0c09" opacity="1.00" d=" M 85.89 121.67 C 88.02 123.91 88.00 127.56 90.73 129.27 C 92.44 130.34 93.13 132.27 93.98 133.99 C 96.45 137.80 99.84 140.84 102.97 144.09 C 105.36 144.83 106.66 147.34 109.12 147.96 C 112.49 149.10 115.63 150.77 118.83 152.30 C 125.69 155.77 131.60 161.22 139.26 162.97 C 147.08 164.72 155.09 165.72 163.10 165.60 C 163.37 165.82 163.89 166.24 164.15 166.46 C 169.93 166.87 175.73 166.26 181.51 166.73 C 179.78 167.61 177.91 168.15 175.95 168.01 C 170.59 167.82 165.10 168.73 159.90 167.04 C 156.88 166.05 153.74 166.84 150.74 167.43 C 145.23 167.77 140.00 165.93 134.60 165.23 C 134.14 164.89 133.21 164.19 132.75 163.85 C 129.32 163.34 126.69 161.01 123.88 159.21 C 118.62 156.10 113.72 152.19 107.73 150.54 C 102.67 148.21 98.87 143.99 95.01 140.12 C 91.84 137.03 90.35 132.75 87.56 129.37 C 86.87 126.83 86.30 124.26 85.89 121.67 Z" />
<path fill="#898989" opacity="1.00" d=" M 198.39 139.37 C 200.45 136.01 200.70 131.52 203.92 128.91 C 203.64 133.36 201.16 137.24 199.09 141.06 C 196.97 141.68 193.94 143.67 192.13 141.83 C 194.03 140.57 196.32 140.23 198.39 139.37 Z" />
<path fill="#c5463c" opacity="1.00" d=" M 21.87 132.86 C 24.46 129.79 28.79 130.09 32.39 130.51 C 35.73 131.17 38.08 134.13 38.63 137.40 C 37.03 137.55 35.42 137.61 33.81 137.60 C 33.23 136.46 32.70 135.23 31.69 134.40 C 29.62 134.09 27.53 134.31 25.46 134.48 C 25.45 135.72 25.21 137.01 25.63 138.21 C 27.64 139.14 29.89 139.31 31.91 140.20 C 35.20 140.68 38.03 142.68 39.33 145.77 C 39.29 147.21 39.27 148.66 39.25 150.11 C 37.86 152.59 35.57 154.20 33.04 155.38 C 30.65 155.44 28.26 155.42 25.86 155.40 C 23.12 154.44 21.10 152.39 19.32 150.18 C 19.61 149.48 20.18 148.09 20.46 147.40 C 21.58 147.33 22.69 147.27 23.80 147.20 C 24.73 148.65 25.37 150.46 27.03 151.27 C 30.04 152.47 33.63 151.12 34.75 147.98 C 34.29 147.44 33.37 146.35 32.91 145.81 C 28.50 144.67 23.69 143.90 20.51 140.27 C 20.59 137.79 19.54 134.62 21.87 132.86 Z" />
<path fill="#c64338" opacity="1.00" d=" M 47.66 132.34 C 52.64 128.60 61.39 129.77 64.50 135.39 C 64.54 135.46 64.60 135.59 64.64 135.65 L 65.39 137.32 C 65.42 137.41 65.50 137.59 65.53 137.68 C 66.82 140.12 66.31 142.93 66.50 145.57 L 65.77 145.98 C 65.62 146.43 65.32 147.32 65.17 147.77 L 65.71 148.95 C 65.18 149.55 64.10 150.75 63.57 151.35 C 63.51 151.42 63.39 151.54 63.34 151.61 C 60.28 155.87 54.72 155.69 50.06 155.23 L 50.63 154.71 C 52.27 154.85 54.13 155.53 55.64 154.58 C 55.04 152.68 51.95 153.67 50.50 154.21 L 48.93 154.71 C 47.82 153.70 46.70 152.71 45.62 151.68 C 45.56 151.62 45.45 151.51 45.40 151.45 C 44.27 150.43 43.63 149.17 43.47 147.67 C 43.43 147.56 43.36 147.36 43.32 147.25 C 41.91 144.94 42.84 142.07 42.56 139.52 L 43.42 139.02 C 43.62 138.57 44.01 137.66 44.21 137.21 L 43.93 135.99 C 44.29 135.64 45.00 134.94 45.36 134.58 C 45.44 134.51 45.59 134.36 45.66 134.28 C 46.04 133.90 46.81 133.14 47.19 132.76 C 47.31 132.66 47.55 132.44 47.66 132.34 M 52.92 151.53 C 59.44 153.01 62.36 145.10 61.41 139.91 C 60.39 136.64 57.54 133.66 53.92 133.71 C 45.60 135.30 45.31 148.80 52.92 151.53 Z" />
<path fill="#c5463c" opacity="1.00" d=" M 47.19 132.76 C 47.31 132.66 47.55 132.44 47.66 132.34 C 47.55 132.44 47.31 132.66 47.19 132.76 Z" />
<path fill="#1a1a12" opacity="1.00" d=" M 227.57 136.12 C 229.28 135.05 230.60 133.51 231.79 131.90 C 231.29 133.41 230.69 135.68 232.68 136.41 C 236.27 138.56 239.57 141.40 241.33 145.26 C 241.81 149.52 245.08 152.72 246.09 156.82 C 246.84 159.43 247.31 163.60 251.08 162.82 C 252.71 165.56 256.15 166.41 258.21 168.78 C 263.42 173.10 265.48 179.83 270.09 184.62 C 271.47 185.91 270.79 187.88 270.90 189.54 C 269.49 189.46 268.09 189.39 266.68 189.32 C 266.21 188.20 265.75 187.08 265.29 185.96 C 262.54 183.16 261.47 179.24 258.84 176.35 C 256.32 172.42 252.51 169.64 248.64 167.17 C 250.26 174.69 256.29 181.16 255.51 189.24 C 254.44 189.36 253.38 189.48 252.32 189.61 C 251.14 183.48 248.10 177.95 245.72 172.25 C 244.14 177.80 243.06 183.59 243.43 189.40 C 242.46 189.41 240.50 189.45 239.52 189.46 C 239.77 186.26 239.75 183.04 239.80 179.83 C 241.67 174.06 241.32 167.82 243.33 162.07 C 242.78 160.76 242.55 159.36 242.34 157.97 C 240.45 154.84 238.28 151.63 238.16 147.84 C 236.80 146.26 235.49 144.65 234.18 143.03 C 232.33 142.09 231.09 139.92 229.02 139.61 C 226.66 141.79 225.23 144.77 222.85 146.93 C 220.94 148.65 219.26 150.59 217.76 152.67 C 215.58 155.61 212.53 157.69 209.81 160.08 C 207.51 160.70 205.10 161.19 203.18 162.68 C 197.23 166.94 190.04 170.17 182.62 170.02 C 176.15 168.52 169.48 169.52 162.91 169.18 C 159.04 167.38 154.56 169.36 150.74 167.43 C 153.74 166.84 156.88 166.05 159.90 167.04 C 165.10 168.73 170.59 167.82 175.95 168.01 C 177.91 168.15 179.78 167.61 181.51 166.73 C 182.98 166.96 184.42 167.35 185.91 167.54 C 191.00 164.85 196.83 163.48 201.23 159.54 C 202.84 159.08 204.45 158.63 206.07 158.21 C 208.06 156.09 210.69 154.73 212.69 152.62 C 214.75 150.51 216.19 147.86 218.43 145.90 C 222.65 143.94 224.26 139.15 227.57 136.12 Z" />
<path fill="#c5463c" opacity="1.00" d=" M 45.36 134.58 C 45.44 134.51 45.59 134.36 45.66 134.28 C 45.59 134.36 45.44 134.51 45.36 134.58 Z" />
<path fill="#fcf6f3" opacity="1.00" d=" M 52.92 151.53 C 45.31 148.80 45.60 135.30 53.92 133.71 C 57.54 133.66 60.39 136.64 61.41 139.91 C 62.36 145.10 59.44 153.01 52.92 151.53 Z" />
<path fill="#c5463c" opacity="1.00" d=" M 64.50 135.39 C 64.54 135.46 64.60 135.59 64.64 135.65 C 64.60 135.59 64.54 135.46 64.50 135.39 Z" />
<path fill="#c5463c" opacity="1.00" d=" M 42.92 138.29 C 43.24 138.02 43.89 137.48 44.21 137.21 C 44.01 137.66 43.62 138.57 43.42 139.02 L 42.92 138.29 Z" />
<path fill="#c5463c" opacity="1.00" d=" M 65.39 137.32 C 65.42 137.41 65.50 137.59 65.53 137.68 C 65.50 137.59 65.42 137.41 65.39 137.32 Z" />
<path fill="#c5463c" opacity="1.00" d=" M 65.17 147.77 C 65.32 147.32 65.62 146.43 65.77 145.98 L 66.34 146.64 C 66.05 146.92 65.46 147.49 65.17 147.77 Z" />
<path fill="#c5463c" opacity="1.00" d=" M 43.32 147.25 C 43.36 147.36 43.43 147.56 43.47 147.67 C 43.43 147.56 43.36 147.36 43.32 147.25 Z" />
<path fill="#83847e" opacity="1.00" d=" M 193.81 148.86 C 194.34 148.65 195.40 148.24 195.92 148.03 C 195.41 149.88 194.94 151.74 194.54 153.62 C 193.05 154.89 191.70 156.37 189.99 157.32 C 188.32 157.53 186.64 157.38 184.97 157.37 C 181.79 159.89 177.78 161.18 173.74 161.16 C 173.67 158.94 172.89 155.03 176.50 155.57 C 176.34 156.62 176.04 158.71 175.89 159.75 C 176.79 158.98 177.82 158.54 178.98 158.44 C 181.51 158.27 183.36 156.04 185.93 155.98 C 188.27 155.79 190.95 155.57 192.57 153.63 C 193.47 152.22 193.42 150.45 193.81 148.86 Z" />
<path fill="#c5463c" opacity="1.00" d=" M 45.40 151.45 C 45.45 151.51 45.56 151.62 45.62 151.68 C 45.56 151.62 45.45 151.51 45.40 151.45 Z" />
<path fill="#c5463c" opacity="1.00" d=" M 63.34 151.61 C 63.39 151.54 63.51 151.42 63.57 151.35 C 63.51 151.42 63.39 151.54 63.34 151.61 Z" />
<path fill="#fdfaf7" opacity="1.00" d=" M 107.73 150.54 C 113.72 152.19 118.62 156.10 123.88 159.21 C 126.69 161.01 129.32 163.34 132.75 163.85 C 133.21 164.19 134.14 164.89 134.60 165.23 C 140.00 165.93 145.23 167.77 150.74 167.43 C 154.56 169.36 159.04 167.38 162.91 169.18 C 169.48 169.52 176.15 168.52 182.62 170.02 L 183.51 170.21 C 180.65 170.77 177.73 171.65 174.85 170.68 C 174.26 170.93 173.07 171.43 172.47 171.68 C 172.66 179.53 172.46 187.37 172.63 195.22 L 172.90 196.28 C 174.37 196.28 175.85 196.25 177.32 196.21 C 177.44 192.73 177.49 189.25 177.38 185.77 C 178.12 185.66 179.58 185.44 180.31 185.33 C 183.69 188.22 186.38 191.79 188.59 195.63 C 190.43 195.67 192.27 195.70 194.11 195.70 C 193.12 193.28 191.75 191.05 190.37 188.84 C 190.98 188.98 192.20 189.27 192.81 189.41 C 193.90 191.20 194.79 193.09 195.67 194.99 C 195.69 188.67 195.57 182.35 195.59 176.03 C 195.47 174.47 195.97 172.97 197.16 171.92 C 197.26 172.15 197.47 172.60 197.57 172.82 C 197.56 173.39 197.55 174.52 197.54 175.09 C 197.55 175.20 197.55 175.43 197.55 175.54 C 197.61 176.11 197.73 177.24 197.79 177.80 C 196.59 178.82 196.66 179.45 198.00 179.69 C 197.08 184.12 197.53 188.71 197.77 193.20 C 197.61 193.73 197.31 194.78 197.16 195.31 L 197.89 195.40 C 204.09 196.09 210.36 195.53 216.59 195.63 C 216.56 196.32 216.48 197.68 216.44 198.36 C 212.59 198.97 208.35 199.06 205.40 202.00 L 20.31 202.00 C 19.66 200.73 19.02 199.46 18.37 198.20 C 20.65 198.41 22.95 198.60 25.24 198.42 C 23.32 196.77 19.51 197.92 18.82 194.95 C 18.36 188.97 18.79 182.96 18.55 176.98 C 18.78 174.67 18.15 171.69 20.21 170.06 C 22.03 169.25 24.05 169.83 25.95 169.95 C 26.54 173.46 26.81 177.10 25.53 180.51 L 25.38 180.23 C 25.26 177.33 25.31 174.42 25.33 171.52 C 23.73 171.39 22.14 171.28 20.54 171.18 C 20.41 179.24 20.48 187.31 20.45 195.37 C 21.10 195.63 22.40 196.14 23.05 196.39 C 23.62 196.09 24.77 195.49 25.34 195.19 C 25.26 191.67 25.17 188.15 25.47 184.64 C 28.80 184.66 32.13 184.69 35.46 184.61 C 35.45 188.21 35.26 191.84 35.75 195.42 C 37.13 195.99 38.71 196.01 40.12 195.51 L 40.16 194.96 C 40.42 186.85 40.46 178.72 40.12 170.61 C 43.31 176.82 39.80 184.36 42.09 190.93 C 43.25 187.93 44.71 184.99 47.21 182.86 L 47.39 183.41 C 47.18 184.14 46.76 185.60 46.54 186.32 C 46.52 186.42 46.46 186.61 46.43 186.70 L 46.31 187.10 C 45.26 188.13 44.79 189.39 44.89 190.89 C 44.30 192.45 43.72 194.01 43.14 195.58 C 44.76 195.64 46.37 195.68 47.99 195.72 C 48.11 195.20 48.36 194.15 48.48 193.63 C 48.51 193.52 48.56 193.29 48.59 193.18 L 48.74 192.58 C 49.82 192.06 50.44 191.23 50.60 190.09 C 53.85 190.59 57.14 190.28 60.39 190.66 C 60.53 190.69 60.81 190.76 60.95 190.79 C 61.37 193.71 62.39 196.71 65.10 198.26 C 64.76 196.04 65.68 195.13 67.85 195.51 C 68.50 195.54 69.79 195.59 70.44 195.61 C 72.09 195.63 73.73 195.57 75.37 195.48 C 75.27 192.13 75.31 188.79 75.55 185.46 C 76.39 185.52 78.07 185.64 78.91 185.70 C 81.97 188.55 84.21 192.07 86.52 195.52 C 88.39 195.82 90.30 195.68 92.18 195.68 C 90.58 191.90 88.09 188.47 85.05 185.72 C 86.88 184.26 89.43 183.34 90.28 180.97 C 90.57 178.93 90.48 176.86 90.54 174.81 C 88.55 172.18 85.31 170.56 82.00 170.80 C 78.20 171.05 74.40 170.69 70.61 170.64 C 70.76 170.24 71.06 169.45 71.22 169.05 C 75.59 168.71 80.24 169.27 83.88 166.32 C 86.19 168.63 89.06 170.25 91.43 172.50 C 93.11 171.84 93.54 170.17 94.07 168.64 C 97.75 168.54 101.47 168.49 104.98 167.20 C 105.64 165.53 106.34 163.87 107.07 162.22 C 109.40 162.46 111.99 162.97 113.74 160.99 C 113.27 158.68 111.82 156.99 109.59 156.20 C 107.18 155.32 107.67 152.53 107.73 150.54 M 147.42 174.52 C 144.37 177.98 144.33 182.71 144.64 187.06 C 145.86 189.41 146.65 192.31 149.04 193.78 C 152.54 196.31 157.13 195.91 161.17 195.36 C 167.83 193.03 169.88 184.40 167.63 178.32 C 165.90 172.80 159.63 169.92 154.15 170.79 C 151.78 171.77 149.11 172.43 147.42 174.52 M 95.51 171.30 C 95.57 179.43 95.48 187.57 95.62 195.70 C 100.72 195.59 105.88 196.15 110.93 195.21 C 112.67 193.25 115.24 191.72 115.73 188.96 C 117.60 182.81 116.64 174.55 110.14 171.56 C 105.31 170.89 100.38 171.33 95.51 171.30 M 124.03 173.04 C 121.79 174.70 120.80 177.39 119.68 179.83 C 119.09 184.80 119.63 190.78 124.15 193.84 C 126.87 196.22 130.69 195.83 134.02 195.63 C 137.70 195.00 141.65 191.75 140.55 187.64 C 139.16 187.53 137.77 187.41 136.39 187.30 C 136.02 188.28 135.65 189.26 135.30 190.24 C 133.93 191.08 132.49 191.81 131.04 192.48 C 129.12 191.74 126.76 191.41 125.66 189.44 C 124.43 186.44 124.38 183.15 124.61 179.97 C 125.32 177.33 127.41 175.57 129.83 174.54 C 131.65 174.33 133.31 175.27 134.98 175.85 C 135.57 176.75 136.20 177.64 136.86 178.49 C 138.15 178.09 139.45 177.71 140.76 177.37 C 140.80 174.59 138.28 172.92 136.16 171.65 C 132.16 171.10 127.49 170.47 124.03 173.04 Z" />
<path fill="#c5463c" opacity="1.00" d=" M 50.50 154.21 C 51.95 153.67 55.04 152.68 55.64 154.58 C 54.13 155.53 52.27 154.85 50.63 154.71 L 50.50 154.21 Z" />
<path fill="#abaca6" opacity="1.00" d=" M 203.18 162.68 C 205.10 161.19 207.51 160.70 209.81 160.08 C 208.68 161.33 207.02 161.64 205.42 161.88 C 206.12 162.54 206.83 163.19 207.54 163.85 C 206.76 164.16 205.98 164.48 205.20 164.79 C 205.11 164.12 204.94 162.76 204.85 162.08 L 203.18 162.68 Z" />
<path fill="#fdfaf7" opacity="1.00" d=" M 35.45 170.55 C 36.55 169.15 39.04 169.32 40.12 170.61 C 38.73 171.02 37.32 171.18 35.88 171.08 L 35.45 170.55 Z" />
<path fill="#c64133" opacity="1.00" d=" M 147.42 174.52 C 149.11 172.43 151.78 171.77 154.15 170.79 C 159.63 169.92 165.90 172.80 167.63 178.32 C 169.88 184.40 167.83 193.03 161.17 195.36 C 157.13 195.91 152.54 196.31 149.04 193.78 C 146.65 192.31 145.86 189.41 144.64 187.06 C 144.33 182.71 144.37 177.98 147.42 174.52 M 150.69 177.47 C 150.47 178.66 150.15 179.83 149.73 180.97 C 148.33 186.46 151.87 192.99 158.10 192.55 C 165.18 189.15 165.39 177.91 158.25 174.44 C 157.40 174.45 155.70 174.46 154.85 174.47 C 153.37 175.33 151.96 176.31 150.69 177.47 Z" />
<path fill="#cb3f37" opacity="1.00" d=" M 20.54 171.18 C 22.14 171.28 23.73 171.39 25.33 171.52 C 25.31 174.42 25.26 177.33 25.38 180.23 L 25.38 180.49 L 25.48 180.52 C 28.73 181.76 32.34 181.63 35.58 180.44 C 36.21 177.36 36.73 174.17 35.88 171.08 C 37.32 171.18 38.73 171.02 40.12 170.61 C 40.46 178.72 40.42 186.85 40.16 194.96 C 38.63 194.34 37.16 194.49 35.75 195.42 C 36.36 191.82 36.18 188.17 35.46 184.61 C 32.19 183.94 28.83 183.63 25.52 184.20 L 25.47 184.64 C 25.17 188.15 25.26 191.67 25.34 195.19 C 24.77 195.49 23.62 196.09 23.05 196.39 C 22.40 196.14 21.10 195.63 20.45 195.37 C 21.02 187.33 20.75 179.23 20.54 171.18 Z" />
<path fill="#fdfaf7" opacity="1.00" d=" M 33.88 172.21 C 34.27 171.80 35.06 170.96 35.45 170.55 C 35.34 173.84 35.41 177.14 35.58 180.44 C 32.34 181.63 28.73 181.76 25.48 180.52 L 25.53 180.51 C 28.24 179.74 30.93 178.92 33.54 177.88 C 33.61 175.99 33.68 174.09 33.88 172.21 Z" />
<path fill="#bc4446" opacity="1.00" d=" M 35.45 170.55 L 35.88 171.08 C 36.73 174.17 36.21 177.36 35.58 180.44 C 35.41 177.14 35.34 173.84 35.45 170.55 Z" />
<path fill="#ca4032" opacity="1.00" d=" M 51.68 171.50 C 53.76 170.70 55.99 170.63 58.19 170.56 C 61.16 175.52 62.13 181.36 64.36 186.66 C 64.16 188.33 63.91 189.99 63.67 191.66 C 62.76 191.36 61.85 191.07 60.95 190.79 C 60.81 190.76 60.53 190.69 60.39 190.66 C 57.14 190.28 53.85 190.59 50.60 190.09 C 50.20 190.16 49.39 190.31 48.99 190.38 C 48.93 190.93 48.80 192.03 48.74 192.58 L 48.59 193.18 C 48.56 193.29 48.51 193.52 48.48 193.63 C 48.36 194.15 48.11 195.20 47.99 195.72 C 46.37 195.68 44.76 195.64 43.14 195.58 C 43.72 194.01 44.30 192.45 44.89 190.89 C 46.20 189.93 46.67 188.67 46.31 187.10 L 46.43 186.70 C 46.46 186.61 46.52 186.42 46.54 186.32 C 46.76 185.60 47.18 184.14 47.39 183.41 C 47.47 183.24 47.64 182.90 47.72 182.73 C 47.91 182.21 48.28 181.16 48.47 180.63 C 48.52 180.49 48.61 180.22 48.66 180.08 C 48.85 179.42 49.22 178.10 49.41 177.44 C 50.34 175.53 51.07 173.54 51.68 171.50 M 54.69 176.09 C 53.41 179.51 51.85 182.88 51.29 186.52 C 53.77 186.65 56.26 186.64 58.75 186.56 C 58.46 183.14 56.81 180.05 56.13 176.71 C 55.77 176.55 55.05 176.24 54.69 176.09 Z" />
<path fill="#c63e34" opacity="1.00" d=" M 70.61 170.64 C 74.40 170.69 78.20 171.05 82.00 170.80 C 85.31 170.56 88.55 172.18 90.54 174.81 C 90.48 176.86 90.57 178.93 90.28 180.97 C 89.43 183.34 86.88 184.26 85.05 185.72 C 88.09 188.47 90.58 191.90 92.18 195.68 C 90.30 195.68 88.39 195.82 86.52 195.52 C 84.21 192.07 81.97 188.55 78.91 185.70 C 78.07 185.64 76.39 185.52 75.55 185.46 C 75.31 188.79 75.27 192.13 75.37 195.48 C 73.73 195.57 72.09 195.63 70.44 195.61 C 70.59 187.29 70.37 178.96 70.61 170.64 M 75.32 181.82 C 78.73 182.68 83.00 183.03 85.60 180.16 C 85.53 178.75 85.46 177.33 85.40 175.92 C 84.83 175.58 83.70 174.92 83.13 174.58 C 80.58 174.51 78.02 174.51 75.47 174.52 C 75.28 176.95 75.26 179.38 75.32 181.82 Z" />
<path fill="#c93e33" opacity="1.00" d=" M 172.47 171.68 C 173.07 171.43 174.26 170.93 174.85 170.68 C 177.73 171.65 180.65 170.77 183.51 170.21 C 186.90 170.73 190.25 172.04 192.53 174.71 C 192.49 176.89 192.49 179.08 192.52 181.27 C 190.92 182.98 189.12 184.49 187.15 185.78 C 188.23 186.78 189.30 187.81 190.37 188.84 C 191.75 191.05 193.12 193.28 194.11 195.70 C 192.27 195.70 190.43 195.67 188.59 195.63 C 186.38 191.79 183.69 188.22 180.31 185.33 C 179.58 185.44 178.12 185.66 177.38 185.77 C 175.38 188.29 176.33 191.79 175.91 194.77 C 175.09 194.88 173.45 195.11 172.63 195.22 C 172.46 187.37 172.66 179.53 172.47 171.68 M 177.28 181.76 C 180.53 182.83 184.15 182.48 187.26 181.12 C 187.52 179.34 187.63 177.54 187.46 175.75 C 184.46 173.85 180.82 174.71 177.48 174.50 C 177.33 176.92 177.29 179.34 177.28 181.76 Z" />
<path fill="#fdfaf7" opacity="1.00" d=" M 197.16 171.92 C 197.29 171.81 197.55 171.60 197.68 171.49 L 197.62 172.12 L 197.16 171.92 Z" />
<path fill="#cf3c2f" opacity="1.00" d=" M 197.68 171.49 C 201.23 169.91 205.27 170.89 209.03 170.85 C 211.25 171.28 213.53 171.36 215.79 171.36 C 215.76 172.42 215.73 173.48 215.71 174.54 C 211.29 174.58 206.88 174.60 202.47 174.54 C 202.45 176.48 202.46 178.43 202.50 180.37 C 206.76 180.54 211.18 179.72 215.35 180.83 C 215.36 181.43 215.39 182.62 215.41 183.21 C 211.13 184.02 206.69 183.73 202.37 184.44 C 202.58 186.99 201.85 189.84 202.89 192.19 C 207.18 192.58 211.49 192.23 215.79 192.29 C 215.58 192.53 215.18 193.00 214.97 193.24 C 209.39 193.22 203.78 193.39 198.26 194.27 L 197.77 193.20 C 197.53 188.71 197.08 184.12 198.00 179.69 L 198.24 178.69 L 197.79 177.80 C 197.73 177.24 197.61 176.11 197.55 175.54 L 197.54 175.09 C 197.55 174.52 197.56 173.39 197.57 172.82 L 197.62 172.12 L 197.68 171.49 Z" />
<path fill="#bc4446" opacity="1.00" d=" M 20.45 195.37 C 20.48 187.31 20.41 179.24 20.54 171.18 C 20.75 179.23 21.02 187.33 20.45 195.37 Z" />
<path fill="#c83f33" opacity="1.00" d=" M 95.51 171.30 C 100.38 171.33 105.31 170.89 110.14 171.56 C 116.64 174.55 117.60 182.81 115.73 188.96 C 115.24 191.72 112.67 193.25 110.93 195.21 C 105.88 196.15 100.72 195.59 95.62 195.70 C 95.48 187.57 95.57 179.43 95.51 171.30 M 100.59 192.40 C 103.83 192.36 107.77 192.96 110.10 190.12 C 111.68 186.97 111.66 183.39 111.32 179.98 C 110.91 178.93 110.52 177.88 110.15 176.83 C 107.54 174.27 103.93 174.28 100.52 174.56 C 100.33 180.50 100.17 186.47 100.59 192.40 Z" />
<path fill="#c24139" opacity="1.00" d=" M 124.03 173.04 C 127.49 170.47 132.16 171.10 136.16 171.65 C 138.28 172.92 140.80 174.59 140.76 177.37 C 139.45 177.71 138.15 178.09 136.86 178.49 C 136.20 177.64 135.57 176.75 134.98 175.85 C 133.31 175.27 131.65 174.33 129.83 174.54 C 127.41 175.57 125.32 177.33 124.61 179.97 C 124.38 183.15 124.43 186.44 125.66 189.44 C 126.76 191.41 129.12 191.74 131.04 192.48 C 132.49 191.81 133.93 191.08 135.30 190.24 C 135.65 189.26 136.02 188.28 136.39 187.30 C 137.77 187.41 139.16 187.53 140.55 187.64 C 141.65 191.75 137.70 195.00 134.02 195.63 C 130.69 195.83 126.87 196.22 124.15 193.84 C 119.63 190.78 119.09 184.80 119.68 179.83 C 120.80 177.39 121.79 174.70 124.03 173.04 Z" />
<path fill="#c93e33" opacity="1.00" d=" M 197.16 171.92 L 197.62 172.12 L 197.57 172.82 C 197.47 172.60 197.26 172.15 197.16 171.92 Z" />
<path fill="#fff1e8" opacity="1.00" d=" M 75.32 181.82 C 75.26 179.38 75.28 176.95 75.47 174.52 C 78.02 174.51 80.58 174.51 83.13 174.58 C 83.70 174.92 84.83 175.58 85.40 175.92 C 85.46 177.33 85.53 178.75 85.60 180.16 C 83.00 183.03 78.73 182.68 75.32 181.82 Z" />
<path fill="#fff5f3" opacity="1.00" d=" M 100.59 192.40 C 100.17 186.47 100.33 180.50 100.52 174.56 C 103.93 174.28 107.54 174.27 110.15 176.83 C 110.52 177.88 110.91 178.93 111.32 179.98 C 111.66 183.39 111.68 186.97 110.10 190.12 C 107.77 192.96 103.83 192.36 100.59 192.40 Z" />
<path fill="#fef7f4" opacity="1.00" d=" M 150.69 177.47 C 151.96 176.31 153.37 175.33 154.85 174.47 C 155.70 174.46 157.40 174.45 158.25 174.44 C 165.39 177.91 165.18 189.15 158.10 192.55 C 151.87 192.99 148.33 186.46 149.73 180.97 C 150.15 179.83 150.47 178.66 150.69 177.47 Z" />
<path fill="#fff0e7" opacity="1.00" d=" M 177.28 181.76 C 177.29 179.34 177.33 176.92 177.48 174.50 C 180.82 174.71 184.46 173.85 187.46 175.75 C 187.63 177.54 187.52 179.34 187.26 181.12 C 184.15 182.48 180.53 182.83 177.28 181.76 Z" />
<path fill="#c93e33" opacity="1.00" d=" M 197.55 175.54 C 197.55 175.43 197.55 175.20 197.54 175.09 L 197.55 175.54 Z" />
<path fill="#ffece3" opacity="1.00" d=" M 54.69 176.09 C 55.05 176.24 55.77 176.55 56.13 176.71 C 56.81 180.05 58.46 183.14 58.75 186.56 C 56.26 186.64 53.77 186.65 51.29 186.52 C 51.85 182.88 53.41 179.51 54.69 176.09 Z" />
<path fill="#fdfaf7" opacity="1.00" d=" M 48.10 180.13 C 47.43 178.68 47.86 177.78 49.41 177.44 C 49.22 178.10 48.85 179.42 48.66 180.08 L 48.10 180.13 Z" />
<path fill="#c93e33" opacity="1.00" d=" M 198.00 179.69 C 196.66 179.45 196.59 178.82 197.79 177.80 L 198.24 178.69 L 198.00 179.69 Z" />
<path fill="#bc4446" opacity="1.00" d=" M 25.38 180.23 L 25.53 180.51 L 25.48 180.52 L 25.38 180.49 L 25.38 180.23 Z" />
<path fill="#fdfaf7" opacity="1.00" d=" M 47.21 182.86 C 46.52 181.61 46.82 180.70 48.10 180.13 L 48.47 180.63 C 48.28 181.16 47.91 182.21 47.72 182.73 L 47.21 182.86 Z" />
<path fill="#bc4446" opacity="1.00" d=" M 48.10 180.13 L 48.66 180.08 C 48.61 180.22 48.52 180.49 48.47 180.63 L 48.10 180.13 Z" />
<path fill="#bc4446" opacity="1.00" d=" M 47.21 182.86 L 47.72 182.73 C 47.64 182.90 47.47 183.24 47.39 183.41 L 47.21 182.86 Z" />
<path fill="#bc4446" opacity="1.00" d=" M 25.52 184.20 C 28.83 183.63 32.19 183.94 35.46 184.61 C 32.13 184.69 28.80 184.66 25.47 184.64 L 25.52 184.20 Z" />
<path fill="#bc4446" opacity="1.00" d=" M 35.46 184.61 C 36.18 188.17 36.36 191.82 35.75 195.42 C 35.26 191.84 35.45 188.21 35.46 184.61 Z" />
<path fill="#bc4446" opacity="1.00" d=" M 46.43 186.70 C 46.46 186.61 46.52 186.42 46.54 186.32 C 46.52 186.42 46.46 186.61 46.43 186.70 Z" />
<path fill="#c26b6a" opacity="1.00" d=" M 175.91 194.77 C 176.33 191.79 175.38 188.29 177.38 185.77 C 177.49 189.25 177.44 192.73 177.32 196.21 C 175.85 196.25 174.37 196.28 172.90 196.28 L 172.63 195.22 C 173.45 195.11 175.09 194.88 175.91 194.77 Z" />
<path fill="#bc4446" opacity="1.00" d=" M 64.36 186.66 C 65.55 189.60 66.47 192.65 67.85 195.51 C 65.68 195.13 64.76 196.04 65.10 198.26 C 62.39 196.71 61.37 193.71 60.95 190.79 C 61.85 191.07 62.76 191.36 63.67 191.66 C 63.91 189.99 64.16 188.33 64.36 186.66 Z" />
<path fill="#bc4446" opacity="1.00" d=" M 44.89 190.89 C 44.79 189.39 45.26 188.13 46.31 187.10 C 46.67 188.67 46.20 189.93 44.89 190.89 Z" />
<path fill="#bc4446" opacity="1.00" d=" M 48.99 190.38 C 49.39 190.31 50.20 190.16 50.60 190.09 C 50.44 191.23 49.82 192.06 48.74 192.58 C 48.80 192.03 48.93 190.93 48.99 190.38 Z" />
<path fill="#bc4446" opacity="1.00" d=" M 60.39 190.66 C 60.53 190.69 60.81 190.76 60.95 190.79 C 60.81 190.76 60.53 190.69 60.39 190.66 Z" />
<path fill="#b23d34" opacity="1.00" d=" M 215.79 192.29 C 216.95 192.59 216.31 194.66 216.59 195.63 C 210.36 195.53 204.09 196.09 197.89 195.40 L 198.26 194.27 C 203.78 193.39 209.39 193.22 214.97 193.24 C 215.18 193.00 215.58 192.53 215.79 192.29 Z" />
<path fill="#bc4446" opacity="1.00" d=" M 48.48 193.63 C 48.51 193.52 48.56 193.29 48.59 193.18 C 48.56 193.29 48.51 193.52 48.48 193.63 Z" />
<path fill="#c93e33" opacity="1.00" d=" M 197.16 195.31 C 197.31 194.78 197.61 193.73 197.77 193.20 L 198.26 194.27 L 197.89 195.40 L 197.16 195.31 Z" />
<path fill="#bc4446" opacity="1.00" d=" M 35.75 195.42 C 37.16 194.49 38.63 194.34 40.16 194.96 L 40.12 195.51 C 38.71 196.01 37.13 195.99 35.75 195.42 Z" />
</svg>
