<?xml version="1.0" encoding="utf-8"?>
<!-- Generator: Adobe Illustrator 15.0.2, SVG Export Plug-In . SVG Version: 6.00 Build 0)  -->
<!DOCTYPE svg PUBLIC "-//W3C//DTD SVG 1.1//EN" "http://www.w3.org/Graphics/SVG/1.1/DTD/svg11.dtd">
<svg version="1.1" id="Layer_1" xmlns="http://www.w3.org/2000/svg" xmlns:xlink="http://www.w3.org/1999/xlink" x="0px" y="0px"
	 width="234px" height="229px" viewBox="0 0 234 229" enable-background="new 0 0 234 229" xml:space="preserve">
<path fill="#FFFFFF" d="M0,0h87.68c3.48,3.43,7.31,6.48,11.16,9.49C98.07,4.38,93.41,1.76,89.08,0h5.53
	c3.09,2.62,5.63,6.05,9.53,7.53C102.69,4.43,100.25,2,97.53,0h15.75c1.71,0.6,3.38,1.36,5.14,1.82
	c12.21,2.79,24.641,5.42,36.051,10.74c-2.891-0.49-5.761-1.15-8.701-1.07c-0.859,2.17-1.43,4.43-2.08,6.67
	c3.961-3.27,9.15-4.81,14.23-4.38c6.91,3.05,12.85,7.78,18.41,12.82c3.02,3.65,4.73,8.14,7.35,12.05
	c6.07,8.01,12.141,16.14,16.291,25.36c-3.971-1.45-7.16-4.229-10.66-6.46c-8.721-3.93-19.121-7.5-28.271-2.83
	c-3.67,1.39-7.39,2.71-10.83,4.61c0.47,1.06,1.03,2.08,1.569,3.11c-0.399,0.14-1.18,0.42-1.569,0.55
	c-0.87-1.01-1.739-2.03-2.61-3.04c-1.74,3.37-5.49,7.27-2.529,11.03c0.31-0.95,0.91-2.85,1.22-3.8c1.239,0.33,2.489,0.66,3.739,1
	c0.391,0.1,1.15,0.31,1.531,0.42c15.1,4.67,30.939,5.76,46.43,8.57c2.24,0.36,4.51,0.44,6.779,0.4c-2.029-1.7-4.539-2.71-7.14-3.14
	c-11.021-1.81-22.31-2.3-33.08-5.36c12.3-0.57,24.49,2.05,36.761,2.61c1.859,0.59,4.34,0.83,5.199,2.88
	c1.03,2.39,1.971,4.88,2.25,7.47c-0.66,4.74-3.359,8.979-3.65,13.82c4.25-6.28,6.041-14.35,4.42-21.81
	c0.881,0.58,1.75,1.15,2.641,1.73c2.03,5.99,5.28,11.54,6.66,17.75c1.51,7.24,4.54,14.11,5.391,21.5
	c0.549,5.681,2.289,11.181,2.6,16.9c0.939,4.98,0.34,10.07,1.01,15.08c1.25,7.27,0.529,14.67,0.71,22
	c-0.2,8.47,0.72,17.109-1.39,25.41c-1.75,4.449-5.36,7.76-8.51,11.23c-5.91,6.81-14.66,10-22.871,13.069
	c-6.109,2.78-12.549,4.71-18.76,7.229c-2.02,0.791-3.98,1.711-5.949,2.601c-1.801-0.2-3.58-0.46-5.36-0.649
	c9.51-12.461,17.14-27.44,16.89-43.471c-0.47-0.01-1.41-0.04-1.88-0.061c-0.25,7.65-2.729,14.94-5.25,22.08
	c-2.61,7.841-8.2,14.131-11.819,21.471c-5.681,0.279-11.42,0.38-16.98-1.04c4.109-0.33,8.75-0.24,11.97-3.25
	c6.04-5.17,10.101-12.181,14.05-18.979c4.35-6.801,4.61-15.201,4.891-23.011c-2.75,1.15-1.721,4.57-2.1,6.91
	c0.09,4.25-0.721,8.54-3.141,12.11c0.17-2.84,0.77-5.62,1.35-8.4c1.07-3.6,0.891-7.391,0.2-11.04c-0.61,1.83-1.101,3.7-1.51,5.59
	c-0.7-2.06-1.511-4.1-2.54-6.02c-0.301,3.51,0.57,6.939,1.02,10.39c-0.629,10.98-4.34,22.51-12.529,30.18
	c-3.99,4.07-10.051,4.381-15.35,3.48c-10.4-0.18-20.471-3-30.161-6.58c-7.96-1.859-14.96-6.17-22.23-9.73
	c-3.1-1.51-6.23-3.39-9.81-3.289c6.47,4.459,14.03,6.989,20.77,11.029c11.81,4.83,24.04,9.2,36.79,10.641
	c-8.03,2-16.34,0.72-24.49,1.47c-4.35-2.3-9.17-3.47-13.63-5.479c-7.92-3.721-14.99-8.931-22-14.101c-4.4-3.21-8.02-7.34-11.5-11.5
	c-2.57-3.11-5.52-5.92-7.76-9.3c-1.94-2.87-3.62-5.95-6.11-8.41c0.65,5.45,4.21,9.89,7.65,13.93c4.33,4.66,8.08,9.881,12.94,14.04
	c9.84,7.73,19.91,15.64,32,19.55c-8.05,1.69-16.29,0.76-24.43,0.95c-8.6,0.2-17.29-0.739-25.8,0.95H0V0 M66.91,6.32
	c-4.53,1.66-9.47,2.29-13.64,4.87c0.65-0.01,1.95-0.01,2.61-0.01c9.27-2.52,18.46-5.97,28.1-6.63c3.36,2.39,6.42,5.22,10.14,7.06
	c-0.92-4.12-3.65-7.46-6.7-10.24C80.91,4.12,73.58,4.05,66.91,6.32 M76.54,26c3.58,6.09,11.54,7.23,15.7,12.76
	c3.47,4.83,5.3,10.62,8.76,15.46c-0.34-6.51-4.34-12.13-7.98-17.28C88.26,32.38,82.49,28.82,76.54,26 M145.391,37.44
	c-1.511,4.18-1.41,8.68-1.091,13.05c0.63,0.15,1.89,0.43,2.521,0.57c0.17,1.89,0.369,3.78,0.619,5.67
	c2.351-4.2,2.66-9.11,3.19-13.79c-0.351,0.01-1.05,0.04-1.39,0.06c-1.07,2.43-1.85,4.97-2.76,7.46c-0.291-3.28-0.631-6.63,0.14-9.88
	c1.149-5.06,4.01-9.66,4.319-14.94C147.73,28.8,146.85,33.36,145.391,37.44 M63.7,43.32c5.89,2.55,12.07,4.32,18.25,6.01
	c-0.27,0.24-0.82,0.73-1.09,0.97c-8.63-2.96-17.73-3.26-26.73-4.16c-7.11-1.28-14.36-0.32-21.44,0.69
	c-6.32,1.78-12.44,4.19-18.72,6.12c-1.4,0-0.65,2.61,0.51,2.44c3.02,0.71,6.09,1.33,9.2,1.45c6.07,2.97,13.03,1.91,19.44,3.42
	c10.5,1.32,21.1,0.98,31.55,2.74c-5.33,2.09-11.1,1.1-16.67,1.32c-4.56,0.22-9.05-0.6-13.59-0.88c-5.25-0.43-10.59-1.89-15.83-0.54
	c6.11,2.32,12.82,1.59,19.21,2.53v0.34c-4.69-0.27-9.39-0.17-14.07,0.18c0.55,0.4,1.65,1.18,2.2,1.58
	c13.07,0.47,26.21-0.62,39.24,0.53c-6.36,0.91-12.79,0.55-19.2,0.66c-1.35-0.06-2.44,0.85-3.55,1.47c3.78,0.35,7.58,0.53,11.37,0.33
	c1.45,0.26,2.89,0.52,4.34,0.77c-5.79,1.4-11.79,3.47-15.97,7.93c-2.24,0.91-4.5,1.79-6.73,2.73c12.87,0.41,26.51-1.08,37.76-7.85
	c2.96-1.92,8.35-3.23,7.32-7.75c0.28-0.39,0.83-1.17,1.11-1.55c1.61-0.35,3.2-0.77,4.76-1.31c-1.91-1.94-3.83-3.88-5.84-5.71
	c3.14,1.21,5.91,3.17,7.98,5.85c0.69-0.01,2.06-0.04,2.74-0.05c-2.61-3.5-5.79-6.6-9.61-8.76c2.5-1.12,5.23-0.99,7.87-0.54
	c-2.97-2.65-6.4-4.771-10.16-6.1c-5.66,0.97-10.88-2.05-16.15-3.59C70.18,43.76,66.76,41.62,63.7,43.32 M4.11,45.58
	c0.02,1.44,0.05,2.88,0.1,4.32c2.31,0.73,4.7,1.13,7.05,0.27C8.96,48.5,6.5,47.1,4.11,45.58 M4.15,52.28
	c-0.02,0.62-0.06,1.85-0.07,2.47c1.48-0.15,2.97-0.32,4.45-0.52C7.1,53.51,5.62,52.9,4.15,52.28 M9.62,59.93
	c1.25,4.23,5.7,5.97,8.69,8.76c3.54,3.26,7.88,5.38,12.26,7.25c0.03-0.61,0.11-1.83,0.14-2.44c-2.53-1.12-5.1-2.21-7.43-3.72
	C18.7,66.55,14.98,61.94,9.62,59.93 M9.77,68.08c2.83,3.97,7.31,6.14,11.11,9.01c2.14,1.63,4.66,2.61,7.29,3.12
	c-3.12-3.45-7.17-5.79-10.92-8.46C14.98,70.11,12.46,68.87,9.77,68.08 M146.2,70.67c6.39,7.17,14.85,11.95,22.81,17.13
	c1.37,3.89,2.48,7.96,4.65,11.5c4.34,5.34,11.67,6.03,17.67,8.51c0.75,0.91,1.6,1.74,2.58,2.42c0.97,0.61,1.96,1.22,2.949,1.83
	c0.511-1.2,1.041-2.4,1.57-3.59c1.811-0.86,3.641-1.7,5.35-2.76c-1.279-3.69-3.539-6.93-5.619-10.2c-2.29,1.07-4.49,2.78-7.07,2.96
	c-5.449-2.33-10.63-5.38-16.449-6.81c5.119-0.83,9.67,1.89,14.379,3.33l0.141-0.9c-4.36-4.2-11.301-3.62-15.971-7.36
	c-0.56-1.4-0.869-2.87-1.239-4.32c1.05-0.51,2.1-1.03,3.159-1.54c-0.709-1.01-1.409-2.02-2.109-3.02
	c1.721-0.03,3.439-0.05,5.16-0.06c4.1,1.01,8.359,0.84,12.55,0.99c-1.069-1.021-2.08-2.43-3.76-2.16
	c-6.78,0.21-13.29-1.85-19.94-2.78C160.07,72.77,153.34,69.39,146.2,70.67 M22.63,83.79c3.44,3.73,7.18,7.24,11.41,10.07
	c3.66,2.05,7.57,3.62,11.43,5.24c-2.32-4.18-6.7-6.39-10.19-9.43c-2.31-2.03-4.89-3.77-7.87-4.66
	C25.81,84.66,24.22,84.23,22.63,83.79 M91,83.64c-0.07,0.71-0.22,2.14-0.29,2.85c-1.68,0.38-3.25,1.06-4.56,2.18
	c-1.8-0.1-3.58-0.29-5.37-0.45c1.85,1.19,3.72,2.36,5.53,3.63c-3.37-0.36-6.5-1.69-9.56-3.06c1.54,1.56,3.08,3.2,3.72,5.35
	c-5.16,1.08-10.35,0.26-15.42-0.85c-1.64-2.16-4.3-5.16-7.07-2.71c-1.42-0.34-2.96-0.19-4.21-1.06l-0.36,0.73
	c-1.4-0.56-2.82-1.06-4.27-1.48c0.6,1.18,1.22,2.36,1.85,3.52c-1.93-1.03-3.86-2.04-5.8-3.04c-3.61-0.54-7.13-1.52-10.65-2.45
	c4.22,4.22,8.94,7.88,13.55,11.65c1.53,0.07,3.12,0.17,4.34,1.23c-0.47,1.29-1,2.56-1.58,3.81c1.59,0.02,3.18,0.04,4.76,0.08
	c-0.05-1.08-0.09-2.16-0.13-3.23c1.34-0.61,2.69-1.22,4.04-1.83c1.73,0.84,3.46,1.67,5.21,2.49c-0.14-1.03-0.27-2.06-0.4-3.08
	c1.51,0.8,3.01,1.62,4.5,2.45c-0.13-0.66-0.39-1.98-0.52-2.64c1.86,1.22,3.73,2.41,5.61,3.59c-0.2-1.25-0.4-2.49-0.6-3.74
	c1.97,0.93,3.93,1.87,5.92,2.77c-0.73-1.2-1.46-2.38-2.2-3.57c3.95,0.07,7.68-3.39,11.51-1.35c-0.03-0.54-0.09-1.62-0.11-2.16
	c2.45-1.22,4.87-2.92,5.81-5.63c-0.35-0.36-1.04-1.09-1.39-1.45c1.51-0.28,3.03-0.58,4.54-0.9C95.31,84.6,93.17,84.06,91,83.64
	 M200.79,94.62c0.55,3.44,2.53,6.41,5.17,8.62C204.91,100.17,204.609,95.42,200.79,94.62 M115.54,101.4
	c-9.22,1.91-19.02,6-23.69,14.7c-0.79,1.62,0.49,3.061,1.19,4.42c0.38-4.8,4.04-8.129,7.52-11c6.07-4.28,13.43-5.94,20.54-7.61
	c12.34-1.7,24.711,0.89,36.58,4.15c4.51,1.42,8.021,4.69,11.67,7.55c1.721,1.31,3.521,2.85,5.82,2.81
	c-2.4-3.76-6.391-6.03-9.891-8.64c-6.01-4.57-13.819-4.95-20.92-6.68C134.859,99.63,124.91,98.61,115.54,101.4 M126.83,112.48
	c-14.82,2.581-29.44,7.77-41.79,16.52c-5.52,4.62-11.9,9.04-14.79,15.891c1.06-3.5,1.5-7.181,2.78-10.621
	c1.05-2.289,2.85-4.14,4-6.379c-2.77,0.629-4.33,3.159-5.38,5.59c-1.99,4.31-4.88,8.459-5.41,13.27c-1.93,3.73-1.06,8.02-1.11,12.04
	c-1.52,0.03-3.05,0.06-4.57,0.101c0.86-3.91,1.54-7.881,1.4-11.9c-1.17,0.07-2.33,0.16-3.5,0.25c-1.63,4.08-2.96,8.359-2.7,12.82
	c-1.2,3.539,0.88,6.97,2.08,10.199c0.69,2.7,3.68,3.271,5.76,4.551c0.06-2.721-0.27-5.61,1.19-8.051c3.7-2.65,8.33-3.25,12.57-4.63
	c6.41-1.76,12.89-4,19.64-3.649c9.82,0.1,19.63-0.011,29.439,0.06c4.371,1.45,9.031,0.26,13.5,1.069
	c7.051,1.301,14.11,2.69,21.261,3.19c3.87,1.17,7.86,1.95,11.6,3.511c9.82,3.659,20.681,6.33,28.271,14.039
	c1.52,0.041,3.029,0.08,4.55,0.131c1.3-2.61,2.89-5.121,3.76-7.92c0.3-2.65,0.101-5.33-0.149-7.98c-1.09,3-2.08,6.029-3.42,8.93
	c-1.271-3.119-1.381-6.54-2.36-9.729c-0.56-0.28-1.7-0.83-2.261-1.11c0.19,2.689,0.711,5.36,1.66,7.891
	c-0.92,1.319-0.66,4.109-2.67,4.189c-1.65-4.439-2.459-9.17-4.51-13.45c-0.82-9.86-4.449-19.22-9.26-27.78
	c-1.7-2.859-3.4-5.869-6.25-7.739c0.24,3.989,3.42,6.72,5.199,10.06c3,5.391,5.57,11.21,6.181,17.41
	c-2.55-7.16-6.89-13.439-11.31-19.55c-5.801-6.72-11.801-13.82-20.01-17.64c-2.771-1.25-5.551-2.551-8.49-3.351
	C143.5,111.76,135.02,110.87,126.83,112.48 M52.25,187.689c0.01,1.951-0.59,3.99-0.02,5.9c4.12,3.99,7.06,9,11.25,12.93
	c4.78,5.23,10.3,9.721,15.11,14.931c1.2,1.38,2.73,2.38,4.31,3.27c-3.54-7.6-11.55-11.59-16.83-17.81
	C61.05,200.83,54.87,195.34,52.25,187.689z"/>
<path fill="#393939" d="M87.68,0h1.4c4.33,1.76,8.99,4.38,9.76,9.49C94.99,6.48,91.16,3.43,87.68,0z"/>
<path fill="#393939" d="M94.61,0h2.92c2.72,2,5.16,4.43,6.61,7.53C100.24,6.05,97.7,2.62,94.61,0z"/>
<path fill="#4D4D4D" d="M113.28,0h32.27l-1.2,0.38c-8.629,0.92-17.369-0.34-25.93,1.44C116.66,1.36,114.99,0.6,113.28,0z"/>
<path fill="#FFFFFF" d="M145.55,0H234v229h-44.88l0.989-0.42c10.561-5.12,22.091-8.74,31.291-16.26
	c4.82-4.24,10.399-8.78,11.879-15.34c0.181-22.33,0.061-44.681,0.061-67.011c-0.859-7.739-2.92-15.3-3.85-23.03
	c-0.61-6.18-4.02-11.55-5.69-17.45c-3.1-10.54-7.43-20.71-13.14-30.1c-2.49-5.06-4.551-10.37-8.32-14.67
	c-4.14-6.74-10.68-11.41-15.46-17.64c-4.351-5.35-10.271-9.05-15.399-13.58c-8.15-6.01-18.021-8.94-27.131-13.12L145.55,0z"/>
<path fill="#010101" d="M118.42,1.82c8.561-1.78,17.301-0.52,25.93-1.44c9.11,4.18,18.98,7.11,27.131,13.12
	c5.129,4.53,11.049,8.23,15.399,13.58c4.78,6.23,11.32,10.9,15.46,17.64c3.77,4.3,5.83,9.61,8.32,14.67
	c5.71,9.39,10.04,19.56,13.14,30.1c1.671,5.9,5.08,11.27,5.69,17.45c0.93,7.73,2.99,15.291,3.85,23.03
	c0,22.33,0.12,44.681-0.061,67.011c-1.479,6.56-7.059,11.1-11.879,15.34c-9.2,7.52-20.73,11.14-31.291,16.26
	c-4.75-0.09-9.489-0.28-14.239-0.33c0.28-0.58,0.86-1.73,1.14-2.311c6.211-2.52,12.65-4.449,18.76-7.229
	c8.211-3.069,16.961-6.26,22.871-13.069c3.149-3.471,6.76-6.781,8.51-11.23c2.109-8.301,1.189-16.94,1.39-25.41
	c-0.181-7.33,0.54-14.73-0.71-22c-0.67-5.01-0.07-10.1-1.01-15.08c-0.311-5.72-2.051-11.22-2.6-16.9
	c-0.851-7.39-3.881-14.26-5.391-21.5c-1.38-6.21-4.63-11.76-6.66-17.75c-7.699-19-20.93-35.33-35.84-49.17
	c-5.561-5.04-11.5-9.77-18.41-12.82c-5.08-0.43-10.27,1.11-14.23,4.38c0.65-2.24,1.221-4.5,2.08-6.67
	c2.94-0.08,5.811,0.58,8.701,1.07C143.061,7.24,130.63,4.61,118.42,1.82z"/>
<path fill="#060606" d="M66.91,6.32c6.67-2.27,14-2.2,20.51-4.95c3.05,2.78,5.78,6.12,6.7,10.24c-3.72-1.84-6.78-4.67-10.14-7.06
	c-9.64,0.66-18.83,4.11-28.1,6.63c-0.66,0-1.96,0-2.61,0.01C57.44,8.61,62.38,7.98,66.91,6.32z"/>
<path fill="#B8B8B8" d="M76.54,26c5.95,2.82,11.72,6.38,16.48,10.94c3.64,5.15,7.64,10.77,7.98,17.28
	c-3.46-4.84-5.29-10.63-8.76-15.46C88.08,33.23,80.12,32.09,76.54,26z"/>
<path fill="#B8B8B8" d="M145.391,37.44c1.459-4.08,2.34-8.64,5.549-11.8c-0.31,5.28-3.17,9.88-4.319,14.94
	c-0.771,3.25-0.431,6.6-0.14,9.88c0.91-2.49,1.689-5.03,2.76-7.46c0.34-0.02,1.039-0.05,1.39-0.06c-0.53,4.68-0.84,9.59-3.19,13.79
	c-0.25-1.89-0.449-3.78-0.619-5.67c-0.631-0.14-1.891-0.42-2.521-0.57C143.98,46.12,143.88,41.62,145.391,37.44z"/>
<path fill="#F4F4F4" d="M176.33,26.6c14.91,13.84,28.141,30.17,35.84,49.17c-0.891-0.58-1.76-1.15-2.641-1.73
	c-0.639-3.64-4.359-5.27-5.85-8.43c-3.42-5.88-6.6-12-11.26-17.03c-3.061-3.18-5.49-6.92-8.74-9.93
	C181.061,34.74,179.35,30.25,176.33,26.6z"/>
<path fill="#030303" d="M183.68,38.65c3.25,3.01,5.68,6.75,8.74,9.93c4.66,5.03,7.84,11.15,11.26,17.03
	c1.49,3.16,5.211,4.79,5.85,8.43c1.621,7.46-0.17,15.53-4.42,21.81c0.291-4.84,2.99-9.08,3.65-13.82
	c-0.279-2.59-1.22-5.08-2.25-7.47c-0.859-2.05-3.34-2.29-5.199-2.88c-12.69-3.32-25.94-2.98-38.92-4.05
	c-3.65-0.43-7.281,0.19-10.83,0.97c-0.381-0.11-1.141-0.32-1.531-0.42c-0.489-0.26-1.489-0.78-1.979-1.03
	c0.72-1.39,1.45-2.77,2.16-4.16c0.39-0.13,1.17-0.41,1.569-0.55c4.07-1.1,7.841-3.56,9.261-7.72c9.149-4.67,19.55-1.1,28.271,2.83
	c3.5,2.23,6.689,5.01,10.66,6.46C195.82,54.79,189.75,46.66,183.68,38.65 M168.641,55.69c-5.341,2.63-10.041,6.46-15.601,8.68
	c6.739,1.96,13.819,0.94,20.7,1.94c4.779,0.1,9.47,1.12,14.25,1.11c4.47-0.03,8.76,1.71,13.27,1.13
	c-6.02-4.21-14.34,0.74-19.84-4.49c-0.609-2.42,1.76-3.76,3.109-5.34C179.5,56.81,174.141,54,168.641,55.69z"/>
<path fill="#C5C5C5" d="M63.7,43.32c3.06-1.7,6.48,0.44,9.5,1.27c5.27,1.54,10.49,4.56,16.15,3.59c3.76,1.33,7.19,3.45,10.16,6.1
	c-2.64-0.45-5.37-0.58-7.87,0.54c-1.1-0.65-2.22-1.27-3.36-1.85c-2.3-1.31-4.79-2.27-7.42-2.67c0.27-0.24,0.82-0.73,1.09-0.97
	C75.77,47.64,69.59,45.87,63.7,43.32z"/>
<path fill="#010101" d="M32.69,46.83c7.08-1.01,14.33-1.97,21.44-0.69c9,0.9,18.1,1.2,26.73,4.16c2.63,0.4,5.12,1.36,7.42,2.67
	c-0.46,0.23-1.39,0.67-1.85,0.89c-0.8,0.4-1.59,0.79-2.39,1.19c-11.3-6.26-24.57-5.8-37.05-6.97c-0.59,4.18-3.68,7.39-7.86,8.05
	c-2.2-0.52-4.44-0.84-6.7-0.96c-2.68-0.63-5.12-1.92-7.7-2.83c-1.5,0.2-2.89,0.85-4.3,1.34c2.67,0.76,5.37,1.45,8.09,2.02
	c-1.62,0.36-3.22,0.78-4.84,1.14c-3.11-0.12-6.18-0.74-9.2-1.45c-1.16,0.17-1.91-2.44-0.51-2.44
	C20.25,51.02,26.37,48.61,32.69,46.83z"/>
<path fill="#030303" d="M4.11,45.58c2.39,1.52,4.85,2.92,7.15,4.59c-2.35,0.86-4.74,0.46-7.05-0.27
	C4.16,48.46,4.13,47.02,4.11,45.58z"/>
<path fill="#FEFEFE" d="M46.99,48.08c12.48,1.17,25.75,0.71,37.05,6.97c2.01,1.98,3.63,4.29,5.47,6.42
	c-8.56-0.07-17.02-1.45-25.47-2.689c-8.36-0.311-16.82-0.19-24.91-2.65C43.31,55.47,46.4,52.26,46.99,48.08z"/>
<path fill="#2E2E2E" d="M4.15,52.28c1.47,0.62,2.95,1.229,4.38,1.95c-1.48,0.2-2.97,0.37-4.45,0.52C4.09,54.13,4.13,52.9,4.15,52.28
	z"/>
<path fill="#EBEBEB" d="M20.43,53.68c1.41-0.49,2.8-1.14,4.3-1.34c2.58,0.91,5.02,2.2,7.7,2.83c-1.3,0.17-2.6,0.36-3.91,0.53
	C25.8,55.13,23.1,54.44,20.43,53.68z"/>
<path fill="#4D4D4D" d="M88.28,52.97c1.14,0.58,2.26,1.2,3.36,1.85c3.82,2.16,7,5.26,9.61,8.76c-0.68,0.01-2.05,0.04-2.74,0.05
	c-2.07-2.68-4.84-4.64-7.98-5.85c-1.44-1.23-2.78-2.561-4.1-3.92C86.89,53.64,87.82,53.2,88.28,52.97z"/>
<path fill="#181818" d="M84.04,55.05c0.8-0.4,1.59-0.79,2.39-1.19c1.32,1.36,2.66,2.69,4.1,3.92c2.01,1.83,3.93,3.77,5.84,5.71
	c-1.56,0.54-3.15,0.96-4.76,1.31c-0.28,0.38-0.83,1.16-1.11,1.55c-3.98,2.39-8.4,4.86-13.21,4.43c2.41-1.46,4.73-3.08,6.96-4.811
	c2-0.22,3.97-0.58,5.92-1.04c-2.35-1.26-4.97-1.28-7.44-0.42c-0.65-0.63-1.29-1.26-1.93-1.88c-2.04,0.12-4.09,0.24-6.13,0.37
	c-10.45-1.76-21.05-1.42-31.55-2.74c-6.41-1.51-13.37-0.45-19.44-3.42c1.62-0.36,3.22-0.78,4.84-1.14c1.31-0.17,2.61-0.36,3.91-0.53
	c2.26,0.12,4.5,0.44,6.7,0.96c8.09,2.46,16.55,2.34,24.91,2.65c8.45,1.24,16.91,2.62,25.47,2.689
	C87.67,59.34,86.05,57.03,84.04,55.05z"/>
<path fill="#4E4E4E" d="M150.21,59.33c3.44-1.9,7.16-3.22,10.83-4.61c-1.42,4.16-5.19,6.62-9.261,7.72
	C151.24,61.41,150.68,60.39,150.21,59.33z"/>
<path fill="#FEFEFE" d="M168.641,55.69c5.5-1.69,10.859,1.12,15.889,3.03c-1.35,1.58-3.719,2.92-3.109,5.34
	c5.5,5.23,13.82,0.28,19.84,4.49c-4.51,0.58-8.8-1.16-13.27-1.13c-4.78,0.01-9.471-1.01-14.25-1.11c-6.881-1-13.961,0.02-20.7-1.94
	C158.6,62.15,163.3,58.32,168.641,55.69z"/>
<path fill="#484848" d="M9.62,59.93c5.36,2.01,9.08,6.62,13.66,9.85c2.33,1.51,4.9,2.6,7.43,3.72c-0.03,0.61-0.11,1.83-0.14,2.44
	c-4.38-1.87-8.72-3.99-12.26-7.25C15.32,65.9,10.87,64.16,9.62,59.93z"/>
<path fill="#484848" d="M145.07,70.98c-2.961-3.76,0.789-7.66,2.529-11.03c0.871,1.01,1.74,2.03,2.61,3.04
	c-0.71,1.39-1.44,2.77-2.16,4.16c0.49,0.25,1.49,0.77,1.979,1.03c-1.25-0.34-2.5-0.67-3.739-1
	C145.98,68.13,145.38,70.03,145.07,70.98z"/>
<path fill="#484848" d="M28.58,62.9c5.24-1.35,10.58,0.11,15.83,0.54c4.54,0.28,9.03,1.1,13.59,0.88
	c5.57-0.22,11.34,0.77,16.67-1.32c2.04-0.13,4.09-0.25,6.13-0.37c0.64,0.62,1.28,1.25,1.93,1.88c0.38,0.36,1.14,1.09,1.52,1.46
	c-2.23,1.73-4.55,3.35-6.96,4.811c-2.18-0.05-4.35-0.28-6.53-0.42c-2.33-0.19-4.66-0.01-6.98,0.16c-3.79,0.2-7.59,0.02-11.37-0.33
	c1.11-0.62,2.2-1.53,3.55-1.47c6.41-0.11,12.84,0.25,19.2-0.66C62.13,66.91,48.99,68,35.92,67.53c-0.55-0.4-1.65-1.18-2.2-1.58
	c4.68-0.35,9.38-0.45,14.07-0.18v-0.34C41.4,64.49,34.69,65.22,28.58,62.9z"/>
<path fill="#C5C5C5" d="M82.73,64.51c2.47-0.86,5.09-0.84,7.44,0.42c-1.95,0.46-3.92,0.82-5.92,1.04
	C83.87,65.6,83.11,64.87,82.73,64.51z"/>
<path fill="#999999" d="M77.29,70.78c4.81,0.43,9.23-2.04,13.21-4.43c1.03,4.52-4.36,5.83-7.32,7.75
	c-9.67-1.45-18.65,7.67-28.18,3.15c7.21-2.6,15.21-2.03,22.15-5.51c-2.11-0.521-4.23-1.05-6.39-1.38
	C72.94,70.5,75.11,70.73,77.29,70.78z"/>
<path fill="#6F6F6F" d="M151.561,68.6c3.549-0.78,7.18-1.4,10.83-0.97c12.979,1.07,26.229,0.73,38.92,4.05
	c-12.271-0.56-24.461-3.18-36.761-2.61c10.771,3.06,22.06,3.55,33.08,5.36c2.601,0.43,5.11,1.44,7.14,3.14
	c-2.27,0.04-4.539-0.04-6.779-0.4C182.5,74.36,166.66,73.27,151.561,68.6z"/>
<path fill="#C2C2C2" d="M9.77,68.08c2.69,0.79,5.21,2.03,7.48,3.67c3.75,2.67,7.8,5.01,10.92,8.46c-2.63-0.51-5.15-1.49-7.29-3.12
	C17.08,74.22,12.6,72.05,9.77,68.08z"/>
<path fill="#BFBFBF" d="M63.78,70.52c2.32-0.17,4.65-0.35,6.98-0.16c2.16,0.33,4.28,0.86,6.39,1.38
	C70.21,75.22,62.21,74.65,55,77.25c9.53,4.52,18.51-4.6,28.18-3.15c-11.25,6.77-24.89,8.26-37.76,7.85
	c2.23-0.94,4.49-1.82,6.73-2.73c4.18-4.46,10.18-6.53,15.97-7.93C66.67,71.04,65.23,70.78,63.78,70.52z"/>
<path fill="#4D4D4D" d="M146.2,70.67c7.14-1.28,13.87,2.1,20.81,3.17c6.65,0.93,13.16,2.99,19.94,2.78
	c1.68-0.27,2.69,1.14,3.76,2.16c-4.19-0.15-8.45,0.02-12.55-0.99c-8.221-1.39-16.551-2.19-24.58-4.65
	c5.43,5.94,12.55,9.81,19.02,14.43c-0.899,0.06-2.689,0.18-3.59,0.23C161.05,82.62,152.59,77.84,146.2,70.67z"/>
<path fill="#B8B8B8" d="M153.58,73.14c8.029,2.46,16.359,3.26,24.58,4.65c-1.721,0.01-3.439,0.03-5.16,0.06
	c0.7,1,1.4,2.01,2.109,3.02c-1.06,0.51-2.109,1.03-3.159,1.54c0.37,1.45,0.68,2.92,1.239,4.32c4.67,3.74,11.61,3.16,15.971,7.36
	l-0.141,0.9c-4.709-1.44-9.26-4.16-14.379-3.33c5.819,1.43,11,4.48,16.449,6.81c2.58-0.18,4.78-1.89,7.07-2.96
	c2.08,3.271,4.34,6.51,5.619,10.2c-1.709,1.06-3.539,1.9-5.35,2.76c-0.529,1.19-1.06,2.39-1.57,3.59
	c-0.989-0.61-1.979-1.22-2.949-1.83c0.77-0.19,2.32-0.56,3.09-0.74c-2.98-4.51-7.391-8.24-13.04-8.36
	c-0.66-1.37-1.31-2.74-1.95-4.11c-0.22,1.72-0.42,3.44-0.619,5.16c3.899,0.68,7.81,2.03,9.939,5.63c-6-2.48-13.33-3.17-17.67-8.51
	c-2.17-3.54-3.28-7.61-4.65-11.5c0.9-0.05,2.69-0.17,3.59-0.23C166.13,82.95,159.01,79.08,153.58,73.14z"/>
<path fill="#CECECE" d="M22.63,83.79c1.59,0.44,3.18,0.87,4.78,1.22c2.98,0.89,5.56,2.63,7.87,4.66c3.49,3.04,7.87,5.25,10.19,9.43
	c-3.86-1.62-7.77-3.19-11.43-5.24C29.81,91.03,26.07,87.52,22.63,83.79z"/>
<path fill="#ACACAC" d="M91,83.64c2.17,0.42,4.31,0.96,6.4,1.65c-1.51,0.32-3.03,0.62-4.54,0.9c0.35,0.36,1.04,1.09,1.39,1.45
	c-4.53,2.3-8.78,5.27-13.78,6.5c-0.64-2.15-2.18-3.79-3.72-5.35c3.06,1.37,6.19,2.7,9.56,3.06c-1.81-1.27-3.68-2.44-5.53-3.63
	c1.79,0.16,3.57,0.35,5.37,0.45c1.31-1.12,2.88-1.8,4.56-2.18C90.78,85.78,90.93,84.35,91,83.64z"/>
<path fill="#C2C2C2" d="M34.54,86.8c3.52,0.93,7.04,1.91,10.65,2.45c1.94,1,3.87,2.01,5.8,3.04c-0.63-1.16-1.25-2.34-1.85-3.52
	c1.45,0.42,2.87,0.92,4.27,1.48l0.36-0.73c1.25,0.87,2.79,0.72,4.21,1.06c2.77-2.45,5.43,0.55,7.07,2.71
	c-3.45-0.39-6.93-1.13-10.41-0.72c-1.11,2.24-1.56,4.72-2.21,7.11c-1.22-1.06-2.81-1.16-4.34-1.23
	C43.48,94.68,38.76,91.02,34.54,86.8z"/>
<path fill="#2E2E2E" d="M80.47,94.14c5-1.23,9.25-4.2,13.78-6.5c-0.94,2.71-3.36,4.41-5.81,5.63c0.02,0.54,0.08,1.62,0.11,2.16
	c-3.83-2.04-7.56,1.42-11.51,1.35c-7.38,1.59-14.32-1.8-21.54-2.44c-0.04,2-0.08,4-0.02,6c0.04,1.07,0.08,2.15,0.13,3.23
	c-1.58-0.04-3.17-0.06-4.76-0.08c0.58-1.25,1.11-2.521,1.58-3.81c0.65-2.39,1.1-4.87,2.21-7.11c3.48-0.41,6.96,0.33,10.41,0.72
	C70.12,94.4,75.31,95.22,80.47,94.14z"/>
<path fill="#CFCFCF" d="M55.5,94.34c7.22,0.64,14.16,4.03,21.54,2.44c0.74,1.189,1.47,2.37,2.2,3.57c-1.99-0.9-3.95-1.84-5.92-2.77
	c0.2,1.25,0.4,2.49,0.6,3.74c-1.88-1.18-3.75-2.37-5.61-3.59c0.13,0.66,0.39,1.98,0.52,2.64c-1.49-0.83-2.99-1.65-4.5-2.45
	c0.13,1.02,0.26,2.05,0.4,3.08c-1.75-0.82-3.48-1.65-5.21-2.49c-1.35,0.61-2.7,1.22-4.04,1.83C55.42,98.34,55.46,96.34,55.5,94.34z"
	/>
<path fill="#BFBFBF" d="M200.79,94.62c3.819,0.8,4.12,5.55,5.17,8.62C203.32,101.03,201.34,98.06,200.79,94.62z"/>
<path fill="#202020" d="M181.391,102.18c0.199-1.72,0.399-3.44,0.619-5.16c0.641,1.37,1.29,2.74,1.95,4.11
	c5.649,0.12,10.06,3.85,13.04,8.36c-0.77,0.18-2.32,0.55-3.09,0.74c-0.98-0.68-1.83-1.51-2.58-2.42
	C189.2,104.21,185.29,102.86,181.391,102.18z"/>
<path fill="#393939" d="M115.54,101.4c9.37-2.79,19.319-1.77,28.819-0.3c7.101,1.73,14.91,2.11,20.92,6.68
	c3.5,2.61,7.49,4.88,9.891,8.64c-2.3,0.04-4.1-1.5-5.82-2.81c-3.649-2.86-7.16-6.13-11.67-7.55c-11.869-3.26-24.24-5.85-36.58-4.15
	c-7.109,1.67-14.47,3.33-20.54,7.61c-3.48,2.87-7.14,6.2-7.52,11c-0.7-1.359-1.98-2.8-1.19-4.42
	C96.52,107.4,106.32,103.31,115.54,101.4z"/>
<path fill="#1C1C1C" d="M126.83,112.48c8.189-1.61,16.67-0.72,24.9,0.23c2.939,0.8,5.72,2.1,8.49,3.351
	c-0.671,1.299-1.351,2.6-2.031,3.89c-0.699-1.41-1.77-2.58-2.949-3.591c-1.2-0.229-2.4-0.42-3.6-0.59
	c-2.99-0.39-5.971-0.83-8.951-1.27c0,0.88,0,2.65,0,3.53v1.239c-0.66-1.539-1.319-3.069-1.949-4.609c-2.59-0.03-5.17-0.02-7.75,0.07
	c-0.18,0.65-0.54,1.94-0.721,2.59c0.041-1.391,0.07-2.771,0.121-4.15C130.54,112.93,128.689,112.67,126.83,112.48z"/>
<path d="M85.04,129c12.35-8.75,26.97-13.939,41.79-16.52c1.859,0.19,3.71,0.45,5.561,0.69c-0.051,1.38-0.08,2.76-0.121,4.15
	c0.181-0.65,0.541-1.94,0.721-2.59c0.92,2.86,2.52,5.48,5.08,7.14c2.109-1.83,2.67-4.54,2.67-7.21c0.63,1.54,1.289,3.07,1.949,4.609
	v-1.239c0.801,1.579,1.44,3.45,3.031,4.42c1.469,0.229,2.959,0.14,4.439,0.14c0.51-2.27,1.04-4.54,1.48-6.82
	c1.199,0.17,2.399,0.36,3.6,0.59c-0.881,0.371-2.631,1.101-3.5,1.471c1.6,1.57,3.14,3.48,5.48,3.91
	c0.239-0.45,0.729-1.34,0.969-1.79c0.681-1.29,1.36-2.591,2.031-3.89c8.209,3.819,14.209,10.92,20.01,17.64
	c4.42,6.11,8.76,12.39,11.31,19.55c1.14,2.8,2.76,5.359,4.13,8.05c2.051,4.28,2.859,9.011,4.51,13.45
	c2.01-0.08,1.75-2.87,2.67-4.189c0.621,1.77,1.24,3.539,1.9,5.31c0.27-0.59,0.8-1.771,1.061-2.36c1.34-2.9,2.33-5.93,3.42-8.93
	c0.25,2.65,0.449,5.33,0.149,7.98c-0.87,2.799-2.46,5.31-3.76,7.92c-1.521-0.051-3.03-0.09-4.55-0.131
	c-7.59-7.709-18.45-10.38-28.271-14.039c-3.739-1.561-7.729-2.341-11.6-3.511c-1.39-0.42-2.78-0.84-4.171-1.28
	c0.671-0.229,2.011-0.709,2.681-0.949l0.28-0.771c-0.41-3.61-1.59-7.069-2.54-10.56c-3.83-1.15-7.81-0.551-11.101,1.74
	c-0.33-0.75-0.649-1.5-0.949-2.25c-0.58-2.36-0.95-4.761-1.24-7.16c-5.18-1.94-10.84-3.09-16.301-1.66
	c-1.949,5.24-2.889,10.82-2.659,16.41c3.71-0.04,7.43-0.12,11.14,0.109c-3.25,0.94-6.54,1.75-9.9,2.11
	c-9.81-0.07-19.62,0.04-29.439-0.06c-6.75-0.351-13.23,1.89-19.64,3.649c-4.24,1.38-8.87,1.979-12.57,4.63
	c-1.46,2.44-1.13,5.33-1.19,8.051c-2.08-1.28-5.07-1.851-5.76-4.551c-1.2-3.229-3.28-6.66-2.08-10.199
	c1.15-4.42,2.02-9.061,4.9-12.75c0.2,4.68-1.07,9.22-1.4,13.85c2.19,0.63,4.36,1.3,6.55,1.96c0.03-5.46,0.04-10.92,0.43-16.37
	c0.53-4.811,3.42-8.96,5.41-13.27c1.05-2.431,2.61-4.961,5.38-5.59c-1.15,2.239-2.95,4.09-4,6.379
	c-1.28,3.44-1.72,7.121-2.78,10.621C73.14,138.04,79.52,133.62,85.04,129 M123.971,115.92c0.52,1.13,1.069,2.25,1.619,3.36
	c1.17,0.01,2.34,0.02,3.5,0.04c0.43-1.62,0.6-3.29,0.65-4.96C127.82,114.9,125.91,115.439,123.971,115.92 M113.07,118.68
	c2.27,2.32,4.39,5.67,8.13,5.09c0.47-2.479,0.92-4.959,1.17-7.459C119.16,116.609,116.01,117.359,113.07,118.68 M105.72,120.7
	c0.98,2.22,2.73,4.68,5.48,3.489c0.41-1.67,0.4-3.409,0.49-5.119C109.67,119.47,107.69,120.061,105.72,120.7 M113.78,141.78
	c-3.29,4.03-3.58,9.63-2.38,14.52c3.4,0.011,6.79,0,10.18-0.04c1.66-5.38-0.721-10.689-1.689-15.939
	C117.84,140.71,115.77,141.109,113.78,141.78 M89.8,149.1c-0.52,2.381-0.23,4.851-0.29,7.28c3.25-0.18,6.51,0.07,9.75-0.19
	c0.7-3.709,0.05-7.449-1.04-11.01C95.04,145.3,91.89,146.66,89.8,149.1 M166.58,144.66c-1.721,5.189-2.9,10.529-4.49,15.75
	c4.43,1.17,8.83,2.43,13.301,3.42C174.85,156.85,174.24,147.57,166.58,144.66 M71.84,147.95c-2.06,3.95-2.56,8.33-2.2,12.72
	c2.92-0.9,5.8-1.89,8.76-2.63c0.48-4.01-0.32-8-2.2-11.57C74.77,147.03,73.31,147.53,71.84,147.95 M101.87,147.76
	c-0.92,2.271-0.16,4.84-0.1,7.23c1.78,2.57,5.47,0.81,8.12,1.26c-0.89-2.9-1.68-5.85-2.98-8.6
	C105.27,147.05,103.52,147.359,101.87,147.76 M80.21,150.54c0.1,2.38,0.37,4.75,0.9,7.08c1.8-0.07,3.6-0.16,5.4-0.25
	c-0.47-2.351-0.95-4.69-1.17-7.07C83.63,150.38,81.92,150.46,80.21,150.54 M177.52,152.9c-0.06,4.13-0.24,8.39,0.98,12.39
	c3.25,0.899,6.311,2.3,9.3,3.83c-0.069-6.03-1.229-12.44-4.76-17.45C181.109,151.54,178.561,150.65,177.52,152.9 M190.609,159.359
	c-0.479,3.65-0.239,7.341-0.029,11c2.07,0.841,4.1,1.761,6.16,2.641C195.08,168.311,193.939,163.23,190.609,159.359z"/>
<path fill="#F6F6F6" d="M123.971,115.92c1.939-0.48,3.85-1.02,5.77-1.56c-0.051,1.67-0.221,3.34-0.65,4.96
	c-1.16-0.021-2.33-0.03-3.5-0.04C125.04,118.17,124.49,117.05,123.971,115.92z"/>
<path fill="#FEFEFE" d="M132.99,114.73c2.58-0.09,5.16-0.1,7.75-0.07c0,2.67-0.561,5.38-2.67,7.21
	C135.51,120.21,133.91,117.59,132.99,114.73z"/>
<path fill="#FDFDFD" d="M142.689,114.5c2.98,0.44,5.961,0.88,8.951,1.27c-0.44,2.28-0.971,4.551-1.48,6.82
	c-1.48,0-2.971,0.09-4.439-0.14c-1.591-0.97-2.23-2.841-3.031-4.42C142.689,117.15,142.689,115.38,142.689,114.5z"/>
<path fill="#FDFDFD" d="M113.07,118.68c2.94-1.32,6.09-2.07,9.3-2.369c-0.25,2.5-0.7,4.979-1.17,7.459
	C117.46,124.35,115.34,121,113.07,118.68z"/>
<path fill="#F2F2F2" d="M151.74,117.83c0.869-0.37,2.619-1.1,3.5-1.471c1.18,1.011,2.25,2.181,2.949,3.591
	c-0.239,0.45-0.729,1.34-0.969,1.79C154.88,121.311,153.34,119.4,151.74,117.83z"/>
<path fill="#EBEBEB" d="M105.72,120.7c1.97-0.64,3.95-1.23,5.97-1.63c-0.09,1.71-0.08,3.449-0.49,5.119
	C108.45,125.38,106.7,122.92,105.72,120.7z"/>
<path fill="#393939" d="M180.16,125.78c2.85,1.87,4.55,4.88,6.25,7.739c4.811,8.561,8.439,17.92,9.26,27.78
	c-1.37-2.69-2.99-5.25-4.13-8.05c-0.61-6.2-3.181-12.02-6.181-17.41C183.58,132.5,180.4,129.77,180.16,125.78z"/>
<path fill="#FFFFFF" d="M127.859,139.91c5.461-1.43,11.121-0.28,16.301,1.66c0.29,2.399,0.66,4.8,1.24,7.16
	c-0.041,3.05-0.61,6.05-0.871,9.09c-2.709-0.57-5.42-1.19-8.189-1.391c-3.71-0.229-7.43-0.149-11.14-0.109
	C124.971,150.73,125.91,145.15,127.859,139.91z"/>
<path fill="#FEFEFE" d="M113.78,141.78c1.99-0.671,4.06-1.07,6.111-1.46c0.969,5.25,3.35,10.56,1.689,15.939
	c-3.391,0.04-6.78,0.051-10.18,0.04C110.2,151.41,110.49,145.811,113.78,141.78z"/>
<path fill="#FEFEFE" d="M89.8,149.1c2.09-2.439,5.24-3.8,8.42-3.92c1.09,3.561,1.74,7.301,1.04,11.01
	c-3.24,0.261-6.5,0.011-9.75,0.19C89.57,153.95,89.28,151.48,89.8,149.1z"/>
<path fill="#FEFEFE" d="M166.58,144.66c7.66,2.91,8.27,12.189,8.811,19.17c-4.471-0.99-8.871-2.25-13.301-3.42
	C163.68,155.189,164.859,149.85,166.58,144.66z"/>
<path fill="#FFFFFF" d="M71.84,147.95c1.47-0.42,2.93-0.92,4.36-1.48c1.88,3.57,2.68,7.561,2.2,11.57
	c-2.96,0.74-5.84,1.729-8.76,2.63C69.28,156.28,69.78,151.9,71.84,147.95z"/>
<path fill="#999999" d="M58.46,147.24c1.17-0.09,2.33-0.18,3.5-0.25c0.14,4.02-0.54,7.99-1.4,11.9c1.52-0.041,3.05-0.07,4.57-0.101
	c0.05-4.021-0.82-8.31,1.11-12.04c-0.39,5.45-0.4,10.91-0.43,16.37c-2.19-0.66-4.36-1.33-6.55-1.96c0.33-4.63,1.6-9.17,1.4-13.85
	c-2.88,3.689-3.75,8.33-4.9,12.75C55.5,155.6,56.83,151.32,58.46,147.24z"/>
<path fill="#FDFDFD" d="M101.87,147.76c1.65-0.4,3.4-0.71,5.04-0.109c1.3,2.75,2.09,5.699,2.98,8.6c-2.65-0.45-6.34,1.311-8.12-1.26
	C101.71,152.6,100.95,150.03,101.87,147.76z"/>
<path fill="#181818" d="M145.4,148.73c0.3,0.75,0.619,1.5,0.949,2.25c0.221,2.439,0.471,4.879,0.92,7.279
	c4.23,0.62,8.44,1.35,12.721,1.54l-0.28,0.771c-0.67,0.24-2.01,0.72-2.681,0.949c1.391,0.44,2.781,0.86,4.171,1.28
	c-7.15-0.5-14.21-1.89-21.261-3.19c-4.469-0.81-9.129,0.381-13.5-1.069c3.36-0.36,6.65-1.17,9.9-2.11
	c2.77,0.2,5.48,0.82,8.189,1.391C144.79,154.78,145.359,151.78,145.4,148.73z"/>
<path fill="#FEFEFE" d="M146.35,150.98c3.291-2.291,7.271-2.891,11.101-1.74c0.95,3.49,2.13,6.949,2.54,10.56
	c-4.28-0.19-8.49-0.92-12.721-1.54C146.82,155.859,146.57,153.42,146.35,150.98z"/>
<path fill="#FCFCFC" d="M80.21,150.54c1.71-0.08,3.42-0.16,5.13-0.24c0.22,2.38,0.7,4.72,1.17,7.07c-1.8,0.09-3.6,0.18-5.4,0.25
	C80.58,155.29,80.31,152.92,80.21,150.54z"/>
<path fill="#FEFEFE" d="M177.52,152.9c1.041-2.25,3.59-1.36,5.521-1.23c3.53,5.01,4.69,11.42,4.76,17.45
	c-2.989-1.53-6.05-2.931-9.3-3.83C177.279,161.29,177.46,157.03,177.52,152.9z"/>
<path fill="#F8F8F8" d="M190.609,159.359c3.33,3.871,4.471,8.951,6.131,13.641c-2.061-0.88-4.09-1.8-6.16-2.641
	C190.37,166.7,190.13,163.01,190.609,159.359z"/>
<path fill="#6F6F6F" d="M201.189,162.67c0.561,0.28,1.701,0.83,2.261,1.11c0.979,3.189,1.09,6.61,2.36,9.729
	c-0.261,0.59-0.791,1.771-1.061,2.36c-0.66-1.771-1.279-3.54-1.9-5.31C201.9,168.03,201.38,165.359,201.189,162.67z"/>
<path fill="#393939" d="M52.84,179.58c2.49,2.46,4.17,5.54,6.11,8.41c2.24,3.38,5.19,6.189,7.76,9.3c3.48,4.16,7.1,8.29,11.5,11.5
	c7.01,5.17,14.08,10.38,22,14.101c4.46,2.01,9.28,3.18,13.63,5.479l1.08,0.63h-5.07c-1.48-0.62-2.94-1.29-4.42-1.9
	c-12.09-3.91-22.16-11.819-32-19.55c-4.86-4.159-8.61-9.38-12.94-14.04C57.05,189.47,53.49,185.03,52.84,179.58z"/>
<path fill="#535353" d="M169.83,180.78c1.029,1.92,1.84,3.96,2.54,6.02c0.409-1.89,0.899-3.76,1.51-5.59
	c0.69,3.649,0.87,7.44-0.2,11.04c-0.07-0.55-0.209-1.65-0.289-2.2c-0.631,0.28-1.91,0.841-2.541,1.12
	C170.4,187.72,169.529,184.29,169.83,180.78z"/>
<path fill="#252525" d="M175.471,188.54c0.379-2.34-0.65-5.76,2.1-6.91c-0.28,7.81-0.541,16.21-4.891,23.011
	c-3.949,6.799-8.01,13.81-14.05,18.979c-3.22,3.01-7.86,2.92-11.97,3.25c-2.77-0.011-5.551,0-8.33,0.03
	c-12.75-1.44-24.98-5.811-36.79-10.641c-6.74-4.04-14.3-6.57-20.77-11.029c3.58-0.101,6.71,1.779,9.81,3.289
	c7.27,3.561,14.27,7.871,22.23,9.73c9.69,3.58,19.76,6.4,30.161,6.58c5.299,0.9,11.359,0.59,15.35-3.48
	c8.189-7.67,11.9-19.199,12.529-30.18c0.631-0.279,1.91-0.84,2.541-1.12c0.08,0.55,0.219,1.65,0.289,2.2
	c-0.58,2.78-1.18,5.561-1.35,8.4C174.75,197.08,175.561,192.79,175.471,188.54z"/>
<path fill="#707070" d="M180.71,184.359c0.47,0.021,1.41,0.051,1.88,0.061c0.25,16.03-7.38,31.01-16.89,43.471
	c-0.521,0.01-1.55,0.01-2.06,0.02c3.619-7.34,9.209-13.63,11.819-21.471C177.98,199.3,180.46,192.01,180.71,184.359z"/>
<path fill="#060606" d="M52.25,187.689c2.62,7.65,8.8,13.141,13.82,19.221c5.28,6.22,13.29,10.21,16.83,17.81
	c-1.58-0.89-3.11-1.89-4.31-3.27c-4.81-5.21-10.33-9.7-15.11-14.931c-4.19-3.93-7.13-8.939-11.25-12.93
	C51.66,191.68,52.26,189.641,52.25,187.689z"/>
<path fill="#424242" d="M171.061,228.54c1.969-0.89,3.93-1.81,5.949-2.601c-0.279,0.58-0.859,1.73-1.14,2.311
	c4.75,0.05,9.489,0.24,14.239,0.33L189.12,229h-19.11L171.061,228.54z"/>
<path fill="#D2D2D2" d="M105.43,227.1c1.48,0.61,2.94,1.28,4.42,1.9H55.2c8.51-1.689,17.2-0.75,25.8-0.95
	C89.14,227.859,97.38,228.79,105.43,227.1z"/>
<path fill="#D3D3D3" d="M138.33,226.9c2.779-0.03,5.561-0.041,8.33-0.03c5.561,1.42,11.3,1.319,16.98,1.04
	c0.51-0.01,1.539-0.01,2.06-0.02c1.78,0.189,3.56,0.449,5.36,0.649L170.01,229h-55.09l-1.08-0.63
	C121.99,227.62,130.3,228.9,138.33,226.9z"/>
</svg>
