<?xml version="1.0" encoding="UTF-8" ?>
<!DOCTYPE svg PUBLIC "-//W3C//DTD SVG 1.1//EN" "http://www.w3.org/Graphics/SVG/1.1/DTD/svg11.dtd">
<svg width="210pt" height="220pt" viewBox="0 0 210 220" version="1.1" xmlns="http://www.w3.org/2000/svg">
<path fill="#010101" opacity="1.00" d=" M 85.98 2.06 C 89.23 1.00 92.77 1.88 95.99 0.73 C 100.66 0.57 105.34 0.52 110.01 0.74 C 113.88 2.01 118.12 0.87 122.02 2.10 C 129.87 3.03 137.66 4.94 144.95 8.10 C 150.18 10.90 155.83 13.66 159.37 18.62 C 167.26 31.86 172.97 46.64 174.68 61.99 C 176.10 65.52 174.94 69.48 176.05 73.04 C 174.77 73.66 174.76 74.31 176.02 74.97 C 175.35 78.93 175.73 83.01 175.27 87.00 C 174.31 89.46 174.48 92.12 174.32 94.70 C 170.84 96.36 170.40 100.49 168.00 103.06 L 167.35 102.70 C 167.43 99.46 167.64 96.21 167.06 93.01 C 166.08 75.57 163.20 58.22 158.57 41.37 C 157.14 37.32 156.69 32.96 155.01 29.00 C 150.36 23.35 143.52 19.73 136.35 18.56 C 131.90 18.06 127.38 18.21 122.96 18.89 C 112.00 21.27 101.92 26.58 92.71 32.85 C 90.66 33.97 90.49 36.56 89.56 38.48 C 86.29 46.86 80.19 53.74 73.46 59.54 C 71.77 61.04 69.35 61.94 68.30 64.05 C 67.69 75.74 66.03 87.43 62.47 98.62 C 61.35 101.54 60.48 104.55 59.45 107.51 C 59.13 107.61 58.50 107.81 58.18 107.91 C 55.35 98.06 49.63 89.06 41.93 82.30 C 40.44 81.10 38.43 79.00 36.44 80.54 C 34.90 81.90 33.16 83.21 32.31 85.14 C 32.57 83.18 32.27 81.24 31.65 79.38 L 32.37 78.39 L 32.09 77.32 L 31.42 76.91 C 31.11 70.97 30.90 65.01 31.39 59.08 L 32.06 58.67 L 32.34 57.63 L 31.62 56.67 C 33.96 43.56 40.33 31.14 49.24 21.23 C 58.76 10.78 72.11 4.21 85.98 2.06 Z" />
<path fill="#6b6b6b" opacity="1.00" d=" M 122.96 18.89 C 127.38 18.21 131.90 18.06 136.35 18.56 C 143.52 19.73 150.36 23.35 155.01 29.00 C 156.69 32.96 157.14 37.32 158.57 41.37 C 163.20 58.22 166.08 75.57 167.06 93.01 C 167.64 96.21 167.43 99.46 167.35 102.70 L 168.00 103.06 C 170.40 100.49 170.84 96.36 174.32 94.70 C 174.11 96.25 174.84 97.58 175.44 98.95 C 175.38 101.98 175.56 105.02 175.35 108.05 C 174.60 109.27 174.30 110.65 174.14 112.06 C 172.97 115.30 171.27 118.28 169.30 121.07 C 167.86 121.50 166.07 121.78 165.34 123.27 C 164.78 126.27 164.25 129.51 165.36 132.44 C 165.16 132.93 164.76 133.91 164.56 134.40 C 164.54 134.45 164.48 134.54 164.45 134.59 C 163.83 136.20 163.51 137.96 162.58 139.44 C 162.54 139.50 162.46 139.60 162.42 139.65 L 162.34 139.75 C 162.11 140.31 161.66 141.41 161.44 141.97 C 160.54 143.76 159.76 145.61 158.75 147.34 C 158.69 147.46 158.56 147.70 158.50 147.82 C 156.99 150.83 155.79 154.04 153.60 156.64 C 152.38 159.76 150.22 162.31 148.58 165.19 C 148.50 165.31 148.35 165.54 148.27 165.65 C 146.97 167.11 145.78 168.65 144.72 170.29 C 144.64 170.40 144.47 170.62 144.39 170.73 C 141.76 173.59 139.25 176.56 136.31 179.11 C 135.03 179.06 134.22 179.64 133.86 180.85 C 133.33 181.25 132.28 182.04 131.75 182.44 C 131.64 182.51 131.42 182.67 131.30 182.75 L 130.50 183.30 C 129.23 182.95 128.31 183.38 127.74 184.57 C 127.14 184.88 125.93 185.51 125.33 185.83 C 122.19 186.13 119.21 187.57 116.01 187.27 C 112.75 187.26 109.47 187.02 106.27 186.34 C 102.25 185.71 98.97 183.21 95.31 181.64 C 94.00 181.10 93.17 179.84 91.90 179.23 C 89.20 178.00 87.77 175.09 85.08 173.84 C 82.10 171.63 79.75 168.68 77.04 166.17 C 76.93 164.92 76.28 164.20 75.06 164.03 C 73.97 163.03 73.19 161.77 72.42 160.52 C 70.78 158.49 68.45 157.01 67.42 154.53 C 63.91 150.46 60.90 145.99 57.70 141.67 C 57.63 141.56 57.48 141.35 57.41 141.24 L 56.96 140.49 C 57.87 138.44 57.45 136.17 57.17 134.03 C 56.52 130.05 56.09 126.02 56.18 121.99 C 55.99 121.63 55.62 120.93 55.44 120.58 C 52.51 119.34 49.14 120.07 46.03 119.93 C 44.70 119.33 43.51 118.49 42.27 117.73 C 41.93 116.65 41.22 116.01 40.14 115.79 C 38.46 112.47 36.25 109.39 35.14 105.83 C 33.48 103.13 33.21 99.84 31.55 97.18 C 31.63 93.20 30.73 88.88 32.31 85.14 C 33.16 83.21 34.90 81.90 36.44 80.54 C 38.43 79.00 40.44 81.10 41.93 82.30 C 49.63 89.06 55.35 98.06 58.18 107.91 C 58.50 107.81 59.13 107.61 59.45 107.51 C 60.48 104.55 61.35 101.54 62.47 98.62 C 66.03 87.43 67.69 75.74 68.30 64.05 C 69.35 61.94 71.77 61.04 73.46 59.54 C 80.19 53.74 86.29 46.86 89.56 38.48 C 90.49 36.56 90.66 33.97 92.71 32.85 C 101.92 26.58 112.00 21.27 122.96 18.89 M 119.91 20.77 C 110.06 23.64 100.74 28.40 92.49 34.43 C 90.47 38.72 89.04 43.44 86.03 47.21 C 82.14 53.12 77.10 58.24 71.36 62.37 C 70.28 63.05 69.36 63.92 68.56 64.90 C 69.27 79.29 65.64 93.55 60.59 106.94 C 60.44 108.17 59.50 110.33 57.88 109.42 C 56.33 106.65 56.08 103.32 54.31 100.63 C 51.19 93.58 46.30 87.47 40.47 82.46 C 39.58 81.28 37.90 80.77 36.60 81.60 C 35.46 82.85 34.68 84.35 33.67 85.69 C 33.25 88.46 32.15 91.28 33.28 94.05 C 33.35 99.39 36.16 104.11 38.04 108.96 C 39.83 111.78 40.79 115.48 43.96 117.13 C 45.62 118.63 47.88 118.84 49.99 119.25 C 52.09 119.59 54.35 118.58 56.32 119.68 C 57.05 121.71 56.67 123.95 57.37 126.01 C 57.42 130.75 58.57 135.35 58.77 140.08 C 60.33 143.97 63.45 146.90 65.67 150.38 C 73.61 160.64 82.05 170.88 92.83 178.32 C 97.81 182.26 103.92 184.47 109.98 186.21 C 115.40 186.60 120.98 186.26 125.96 183.91 C 131.73 181.05 137.13 177.27 141.17 172.19 C 149.56 162.63 155.56 151.28 160.80 139.77 C 163.53 134.41 163.88 128.23 164.51 122.38 C 166.26 120.80 168.59 119.89 170.11 118.01 C 171.24 115.72 172.50 113.47 173.13 110.98 C 173.97 108.72 173.24 106.24 174.04 103.99 C 174.14 101.72 174.75 99.14 173.14 97.25 C 170.62 99.46 170.30 103.09 168.02 105.47 C 167.61 105.22 166.80 104.72 166.39 104.47 C 166.33 79.13 161.62 53.95 154.21 29.75 C 153.21 27.49 150.74 26.59 149.06 24.93 C 140.80 18.69 129.62 18.29 119.91 20.77 Z" />
<path fill="#fefefe" opacity="1.00" d=" M 119.91 20.77 C 129.62 18.29 140.80 18.69 149.06 24.93 C 150.74 26.59 153.21 27.49 154.21 29.75 C 161.62 53.95 166.33 79.13 166.39 104.47 C 166.80 104.72 167.61 105.22 168.02 105.47 C 170.30 103.09 170.62 99.46 173.14 97.25 C 174.75 99.14 174.14 101.72 174.04 103.99 C 173.24 106.24 173.97 108.72 173.13 110.98 C 172.50 113.47 171.24 115.72 170.11 118.01 C 168.59 119.89 166.26 120.80 164.51 122.38 C 163.88 128.23 163.53 134.41 160.80 139.77 C 155.56 151.28 149.56 162.63 141.17 172.19 C 137.13 177.27 131.73 181.05 125.96 183.91 C 120.98 186.26 115.40 186.60 109.98 186.21 C 103.92 184.47 97.81 182.26 92.83 178.32 C 82.05 170.88 73.61 160.64 65.67 150.38 C 63.45 146.90 60.33 143.97 58.77 140.08 C 58.57 135.35 57.42 130.75 57.37 126.01 C 56.67 123.95 57.05 121.71 56.32 119.68 C 54.35 118.58 52.09 119.59 49.99 119.25 C 47.88 118.84 45.62 118.63 43.96 117.13 C 40.79 115.48 39.83 111.78 38.04 108.96 C 36.16 104.11 33.35 99.39 33.28 94.05 C 32.15 91.28 33.25 88.46 33.67 85.69 C 34.68 84.35 35.46 82.85 36.60 81.60 C 37.90 80.77 39.58 81.28 40.47 82.46 C 46.30 87.47 51.19 93.58 54.31 100.63 C 56.08 103.32 56.33 106.65 57.88 109.42 C 59.50 110.33 60.44 108.17 60.59 106.94 C 65.64 93.55 69.27 79.29 68.56 64.90 C 69.36 63.92 70.28 63.05 71.36 62.37 C 77.10 58.24 82.14 53.12 86.03 47.21 C 89.04 43.44 90.47 38.72 92.49 34.43 C 100.74 28.40 110.06 23.64 119.91 20.77 M 73.68 67.75 C 72.38 68.56 70.62 69.85 71.42 71.60 C 72.93 72.06 74.35 71.22 75.66 70.60 C 80.61 68.94 85.83 68.31 91.04 68.59 C 95.32 68.24 99.24 70.18 103.11 71.66 C 104.67 71.07 103.74 68.82 102.59 68.37 C 99.74 66.33 96.49 65.05 93.31 63.66 C 90.92 63.09 88.43 63.26 86.00 63.22 C 81.41 62.69 77.37 65.42 73.68 67.75 M 127.54 70.93 L 127.37 72.26 C 130.55 73.60 133.77 70.40 137.10 70.46 C 142.97 69.50 149.14 69.47 154.88 71.11 C 156.67 71.51 158.70 73.62 160.45 72.15 L 160.21 71.05 C 156.97 67.69 152.62 65.26 148.01 64.60 C 140.67 63.82 133.34 66.52 127.54 70.93 M 77.42 78.32 C 75.91 82.54 80.98 85.39 84.53 85.57 C 84.52 86.21 84.51 87.50 84.50 88.14 C 84.87 88.41 85.63 88.95 86.00 89.22 C 90.73 89.74 95.54 89.66 100.29 89.42 C 101.99 88.72 106.34 88.23 104.10 85.55 C 102.30 85.91 100.80 87.18 98.96 87.42 C 96.08 87.69 93.18 87.42 90.29 87.58 C 90.29 87.28 90.29 86.70 90.28 86.41 C 92.86 86.40 95.51 86.73 98.04 86.17 C 100.84 84.70 104.76 84.32 106.19 81.11 C 107.27 78.82 105.07 76.73 103.16 75.88 C 98.79 72.49 93.01 73.81 87.89 73.48 C 83.83 73.24 79.75 74.89 77.42 78.32 M 131.86 74.63 C 129.41 75.93 127.15 77.63 125.67 80.01 C 126.16 82.53 128.28 84.37 127.58 87.10 C 132.76 91.39 139.72 90.79 145.98 90.35 C 148.49 89.43 151.12 88.77 153.48 87.46 C 154.91 86.19 152.60 84.98 153.42 83.61 C 154.29 82.40 154.94 80.97 154.41 79.47 C 153.34 76.51 149.89 75.80 147.38 74.49 C 142.23 74.19 137.00 74.14 131.86 74.63 M 128.19 101.19 C 127.87 103.86 130.28 105.49 132.18 106.85 C 133.32 107.81 133.45 109.30 133.93 110.61 C 135.66 109.29 134.34 107.02 133.21 105.80 C 131.78 104.09 130.86 101.11 128.19 101.19 M 96.55 106.93 C 96.39 110.31 99.64 112.35 102.32 113.60 C 103.95 114.42 105.54 112.61 107.17 113.38 C 109.11 115.29 111.58 116.46 114.04 117.55 C 114.36 117.28 114.99 116.75 115.31 116.48 L 115.45 114.82 L 114.79 114.16 C 114.51 109.79 108.95 109.24 105.47 109.35 C 105.30 109.95 104.97 111.16 104.80 111.76 C 102.59 111.81 100.98 109.97 99.41 108.66 C 98.24 106.07 101.30 104.85 102.38 102.98 C 102.05 102.62 101.37 101.89 101.03 101.53 C 98.84 102.62 97.47 104.75 96.55 106.93 M 128.90 110.44 L 128.11 111.23 C 127.55 111.38 126.44 111.68 125.88 111.83 C 124.91 112.79 123.90 114.08 124.48 115.53 C 127.36 116.13 132.25 113.77 131.47 110.47 C 130.62 110.33 129.76 110.32 128.90 110.44 M 108.52 129.39 C 108.89 129.74 109.62 130.44 109.99 130.79 L 110.84 130.10 C 110.71 126.69 110.00 123.14 111.43 119.89 C 111.07 119.57 110.35 118.93 109.99 118.61 C 107.21 121.44 108.70 125.84 108.52 129.39 M 137.55 119.64 C 137.52 120.12 137.46 121.09 137.43 121.58 C 139.86 121.66 142.29 121.10 144.73 121.36 C 146.75 122.16 148.08 124.11 148.94 126.04 C 149.15 127.18 150.37 128.27 151.42 127.25 C 151.49 123.47 148.17 120.38 145.02 118.67 C 142.48 118.54 139.82 118.29 137.55 119.64 M 116.69 124.03 C 117.79 126.58 117.06 130.61 120.19 131.80 C 121.44 130.41 120.35 128.51 119.76 127.09 C 119.15 124.88 118.75 122.64 118.52 120.38 C 116.26 119.69 116.30 122.59 116.69 124.03 M 83.50 124.60 C 83.14 126.87 83.21 129.24 83.51 131.52 C 83.82 131.55 84.46 131.62 84.77 131.65 C 86.60 129.87 84.21 126.83 85.93 124.97 C 86.93 123.26 89.01 122.94 90.66 122.16 L 90.37 120.77 C 87.58 119.69 84.71 122.24 83.50 124.60 M 89.42 126.42 C 88.78 129.69 90.57 132.78 90.74 136.02 C 90.71 137.53 92.55 138.76 93.48 137.11 C 92.30 135.10 92.75 132.65 91.28 130.77 C 92.25 129.52 93.68 130.83 94.58 131.44 C 98.31 134.10 102.67 135.71 107.11 136.76 C 109.88 138.08 113.04 137.38 116.01 137.54 C 125.05 138.09 133.56 133.90 141.05 129.25 C 141.47 129.24 142.30 129.22 142.72 129.21 C 142.76 131.54 142.77 133.88 142.52 136.20 C 143.02 136.32 144.02 136.58 144.52 136.71 C 145.82 133.37 145.79 129.37 143.63 126.41 C 142.42 125.56 141.11 126.38 140.12 127.12 C 131.54 132.72 121.31 136.34 111.02 135.11 C 104.62 134.09 98.52 131.49 93.20 127.82 C 92.24 126.77 90.93 125.73 89.42 126.42 M 97.00 172.18 L 96.32 172.98 C 100.31 177.06 105.56 179.65 110.97 181.32 C 113.98 181.60 117.01 181.51 120.03 181.38 C 125.31 179.64 130.75 177.24 134.43 172.96 C 133.90 171.45 131.86 172.30 131.09 173.11 C 126.84 176.48 121.58 179.17 116.00 178.73 C 109.61 179.30 103.58 176.22 98.76 172.27 C 98.32 172.25 97.44 172.21 97.00 172.18 Z" />
<path fill="#6b6b6b" opacity="1.00" d=" M 31.39 59.08 C 31.45 58.48 31.57 57.28 31.62 56.67 L 32.34 57.63 L 32.06 58.67 L 31.39 59.08 Z" />
<path fill="#6b6b6b" opacity="1.00" d=" M 73.68 67.75 C 77.37 65.42 81.41 62.69 86.00 63.22 C 88.43 63.26 90.92 63.09 93.31 63.66 C 96.49 65.05 99.74 66.33 102.59 68.37 C 103.74 68.82 104.67 71.07 103.11 71.66 C 99.24 70.18 95.32 68.24 91.04 68.59 C 85.83 68.31 80.61 68.94 75.66 70.60 C 74.35 71.22 72.93 72.06 71.42 71.60 C 70.62 69.85 72.38 68.56 73.68 67.75 M 73.63 69.07 L 73.69 69.97 C 77.77 69.08 81.76 67.50 85.98 67.42 C 89.65 67.43 93.42 67.20 96.97 68.33 C 98.63 68.77 100.17 69.66 101.91 69.80 C 99.89 66.93 96.16 66.03 93.03 64.84 C 86.41 62.38 78.97 64.89 73.63 69.07 Z" />
<path fill="#010101" opacity="1.00" d=" M 73.63 69.07 C 78.97 64.89 86.41 62.38 93.03 64.84 C 96.16 66.03 99.89 66.93 101.91 69.80 C 100.17 69.66 98.63 68.77 96.97 68.33 C 93.42 67.20 89.65 67.43 85.98 67.42 C 81.76 67.50 77.77 69.08 73.69 69.97 L 73.63 69.07 Z" />
<path fill="#6b6b6b" opacity="1.00" d=" M 127.54 70.93 C 133.34 66.52 140.67 63.82 148.01 64.60 C 152.62 65.26 156.97 67.69 160.21 71.05 L 160.45 72.15 C 158.70 73.62 156.67 71.51 154.88 71.11 C 149.14 69.47 142.97 69.50 137.10 70.46 C 133.77 70.40 130.55 73.60 127.37 72.26 L 127.54 70.93 M 130.74 70.07 L 131.08 70.73 C 133.11 70.73 134.91 69.62 136.91 69.37 C 143.30 68.46 150.08 68.22 156.19 70.58 L 157.22 70.28 C 156.86 68.90 155.41 68.37 154.30 67.76 C 146.86 63.88 137.49 65.54 130.74 70.07 Z" />
<path fill="#010101" opacity="1.00" d=" M 130.74 70.07 C 137.49 65.54 146.86 63.88 154.30 67.76 C 155.41 68.37 156.86 68.90 157.22 70.28 L 156.19 70.58 C 150.08 68.22 143.30 68.46 136.91 69.37 C 134.91 69.62 133.11 70.73 131.08 70.73 L 130.74 70.07 Z" />
<path fill="#6b6b6b" opacity="1.00" d=" M 77.42 78.32 C 79.75 74.89 83.83 73.24 87.89 73.48 C 93.01 73.81 98.79 72.49 103.16 75.88 C 105.07 76.73 107.27 78.82 106.19 81.11 C 104.76 84.32 100.84 84.70 98.04 86.17 C 95.51 86.73 92.86 86.40 90.28 86.41 C 90.29 86.70 90.29 87.28 90.29 87.58 C 93.18 87.42 96.08 87.69 98.96 87.42 C 100.80 87.18 102.30 85.91 104.10 85.55 C 106.34 88.23 101.99 88.72 100.29 89.42 C 95.54 89.66 90.73 89.74 86.00 89.22 C 85.63 88.95 84.87 88.41 84.50 88.14 C 84.51 87.50 84.52 86.21 84.53 85.57 C 80.98 85.39 75.91 82.54 77.42 78.32 M 79.52 78.55 C 79.04 79.55 78.92 81.34 80.26 81.76 C 82.66 83.05 85.42 83.56 87.99 84.46 C 91.90 84.19 96.16 85.26 99.71 83.10 C 98.06 81.31 98.05 78.82 99.40 76.86 C 98.82 76.56 97.65 75.96 97.07 75.66 C 93.04 75.48 88.99 75.57 84.95 75.65 C 83.06 76.47 81.21 77.37 79.52 78.55 M 99.35 80.01 C 99.63 81.19 100.44 82.16 101.00 83.23 C 102.70 83.91 104.22 82.10 105.19 80.94 C 106.27 78.28 103.01 76.44 100.82 76.33 C 100.35 77.56 99.57 78.70 99.35 80.01 Z" />
<path fill="#6b6b6b" opacity="1.00" d=" M 176.02 74.97 C 174.76 74.31 174.77 73.66 176.05 73.04 L 176.51 74.00 L 176.02 74.97 Z" />
<path fill="#6b6b6b" opacity="1.00" d=" M 131.86 74.63 C 137.00 74.14 142.23 74.19 147.38 74.49 C 149.89 75.80 153.34 76.51 154.41 79.47 C 154.94 80.97 154.29 82.40 153.42 83.61 C 152.60 84.98 154.91 86.19 153.48 87.46 C 151.12 88.77 148.49 89.43 145.98 90.35 C 139.72 90.79 132.76 91.39 127.58 87.10 C 128.28 84.37 126.16 82.53 125.67 80.01 C 127.15 77.63 129.41 75.93 131.86 74.63 M 133.68 76.57 C 132.05 77.27 130.49 78.11 128.92 78.92 C 127.76 79.70 128.11 81.34 128.58 82.42 C 133.66 86.17 140.21 85.81 146.20 85.42 C 146.76 85.15 147.86 84.59 148.41 84.32 C 148.85 82.23 147.48 79.99 148.56 77.85 C 147.12 76.28 144.88 76.29 143.00 75.59 C 140.02 76.78 136.79 76.05 133.68 76.57 M 150.19 77.22 C 149.59 78.40 149.18 79.67 148.75 80.91 C 149.57 81.91 149.50 83.82 150.95 84.15 C 152.94 83.81 153.79 81.43 153.45 79.65 C 152.78 78.42 151.65 77.31 150.19 77.22 Z" />
<path fill="#fefefe" opacity="1.00" d=" M 79.52 78.55 C 81.21 77.37 83.06 76.47 84.95 75.65 C 88.99 75.57 93.04 75.48 97.07 75.66 C 97.65 75.96 98.82 76.56 99.40 76.86 C 98.05 78.82 98.06 81.31 99.71 83.10 C 96.16 85.26 91.90 84.19 87.99 84.46 C 85.42 83.56 82.66 83.05 80.26 81.76 C 78.92 81.34 79.04 79.55 79.52 78.55 Z" />
<path fill="#fefefe" opacity="1.00" d=" M 133.68 76.57 C 136.79 76.05 140.02 76.78 143.00 75.59 C 144.88 76.29 147.12 76.28 148.56 77.85 C 147.48 79.99 148.85 82.23 148.41 84.32 C 147.86 84.59 146.76 85.15 146.20 85.42 C 140.21 85.81 133.66 86.17 128.58 82.42 C 128.11 81.34 127.76 79.70 128.92 78.92 C 130.49 78.11 132.05 77.27 133.68 76.57 Z" />
<path fill="#6b6b6b" opacity="1.00" d=" M 31.42 76.91 L 32.09 77.32 L 32.37 78.39 L 31.65 79.38 C 31.59 78.76 31.48 77.53 31.42 76.91 Z" />
<path fill="#010101" opacity="1.00" d=" M 99.35 80.01 C 99.57 78.70 100.35 77.56 100.82 76.33 C 103.01 76.44 106.27 78.28 105.19 80.94 C 104.22 82.10 102.70 83.91 101.00 83.23 C 100.44 82.16 99.63 81.19 99.35 80.01 Z" />
<path fill="#010101" opacity="1.00" d=" M 150.19 77.22 C 151.65 77.31 152.78 78.42 153.45 79.65 C 153.79 81.43 152.94 83.81 150.95 84.15 C 149.50 83.82 149.57 81.91 148.75 80.91 C 149.18 79.67 149.59 78.40 150.19 77.22 Z" />
<path fill="#6b6b6b" opacity="1.00" d=" M 128.19 101.19 C 130.86 101.11 131.78 104.09 133.21 105.80 C 134.34 107.02 135.66 109.29 133.93 110.61 C 133.45 109.30 133.32 107.81 132.18 106.85 C 130.28 105.49 127.87 103.86 128.19 101.19 Z" />
<path fill="#6b6b6b" opacity="1.00" d=" M 96.55 106.93 C 97.47 104.75 98.84 102.62 101.03 101.53 C 101.37 101.89 102.05 102.62 102.38 102.98 C 101.30 104.85 98.24 106.07 99.41 108.66 C 100.98 109.97 102.59 111.81 104.80 111.76 C 104.97 111.16 105.30 109.95 105.47 109.35 C 108.95 109.24 114.51 109.79 114.79 114.16 C 113.79 113.17 112.78 112.18 111.69 111.30 C 109.93 110.69 108.06 110.50 106.23 110.30 L 106.05 111.00 C 108.13 113.95 111.83 115.65 115.31 116.48 C 114.99 116.75 114.36 117.28 114.04 117.55 C 111.58 116.46 109.11 115.29 107.17 113.38 C 105.54 112.61 103.95 114.42 102.32 113.60 C 99.64 112.35 96.39 110.31 96.55 106.93 Z" />
<path fill="#010101" opacity="1.00" d=" M 106.23 110.30 C 108.06 110.50 109.93 110.69 111.69 111.30 C 112.78 112.18 113.79 113.17 114.79 114.16 L 115.45 114.82 L 115.31 116.48 C 111.83 115.65 108.13 113.95 106.05 111.00 L 106.23 110.30 Z" />
<path fill="#6b6b6b" opacity="1.00" d=" M 128.90 110.44 C 129.76 110.32 130.62 110.33 131.47 110.47 C 132.25 113.77 127.36 116.13 124.48 115.53 C 123.90 114.08 124.91 112.79 125.88 111.83 C 126.44 111.68 127.55 111.38 128.11 111.23 C 127.19 112.22 125.76 112.92 125.60 114.42 C 127.58 115.01 129.40 113.52 130.43 111.98 C 130.05 111.59 129.28 110.82 128.90 110.44 Z" />
<path fill="#010101" opacity="1.00" d=" M 128.11 111.23 L 128.90 110.44 C 129.28 110.82 130.05 111.59 130.43 111.98 C 129.40 113.52 127.58 115.01 125.60 114.42 C 125.76 112.92 127.19 112.22 128.11 111.23 Z" />
<path fill="#010101" opacity="1.00" d=" M 40.14 115.79 C 41.22 116.01 41.93 116.65 42.27 117.73 C 40.82 117.91 40.11 117.26 40.14 115.79 Z" />
<path fill="#6b6b6b" opacity="1.00" d=" M 108.52 129.39 C 108.70 125.84 107.21 121.44 109.99 118.61 C 110.35 118.93 111.07 119.57 111.43 119.89 C 110.00 123.14 110.71 126.69 110.84 130.10 L 109.99 130.79 C 109.62 130.44 108.89 129.74 108.52 129.39 Z" />
<path fill="#6b6b6b" opacity="1.00" d=" M 137.55 119.64 C 139.82 118.29 142.48 118.54 145.02 118.67 C 148.17 120.38 151.49 123.47 151.42 127.25 C 150.37 128.27 149.15 127.18 148.94 126.04 C 148.08 124.11 146.75 122.16 144.73 121.36 C 142.29 121.10 139.86 121.66 137.43 121.58 C 137.46 121.09 137.52 120.12 137.55 119.64 Z" />
<path fill="#010101" opacity="1.00" d=" M 46.03 119.93 C 49.14 120.07 52.51 119.34 55.44 120.58 C 55.62 120.93 55.99 121.63 56.18 121.99 C 56.09 126.02 56.52 130.05 57.17 134.03 C 57.45 136.17 57.87 138.44 56.96 140.49 C 53.05 133.79 50.26 126.44 46.03 119.93 Z" />
<path fill="#6b6b6b" opacity="1.00" d=" M 116.69 124.03 C 116.30 122.59 116.26 119.69 118.52 120.38 C 118.75 122.64 119.15 124.88 119.76 127.09 C 120.35 128.51 121.44 130.41 120.19 131.80 C 117.06 130.61 117.79 126.58 116.69 124.03 Z" />
<path fill="#6b6b6b" opacity="1.00" d=" M 83.50 124.60 C 84.71 122.24 87.58 119.69 90.37 120.77 L 90.66 122.16 C 89.01 122.94 86.93 123.26 85.93 124.97 C 84.21 126.83 86.60 129.87 84.77 131.65 C 84.46 131.62 83.82 131.55 83.51 131.52 C 83.21 129.24 83.14 126.87 83.50 124.60 Z" />
<path fill="#010101" opacity="1.00" d=" M 165.34 123.27 C 166.07 121.78 167.86 121.50 169.30 121.07 C 168.45 125.01 166.75 128.68 165.36 132.44 C 164.25 129.51 164.78 126.27 165.34 123.27 Z" />
<path fill="#6b6b6b" opacity="1.00" d=" M 89.42 126.42 C 90.93 125.73 92.24 126.77 93.20 127.82 C 98.52 131.49 104.62 134.09 111.02 135.11 C 121.31 136.34 131.54 132.72 140.12 127.12 C 141.11 126.38 142.42 125.56 143.63 126.41 C 145.79 129.37 145.82 133.37 144.52 136.71 C 144.02 136.58 143.02 136.32 142.52 136.20 C 142.77 133.88 142.76 131.54 142.72 129.21 C 142.30 129.22 141.47 129.24 141.05 129.25 C 133.56 133.90 125.05 138.09 116.01 137.54 C 113.04 137.38 109.88 138.08 107.11 136.76 C 102.67 135.71 98.31 134.10 94.58 131.44 C 93.68 130.83 92.25 129.52 91.28 130.77 C 92.75 132.65 92.30 135.10 93.48 137.11 C 92.55 138.76 90.71 137.53 90.74 136.02 C 90.57 132.78 88.78 129.69 89.42 126.42 Z" />
<path fill="#010101" opacity="1.00" d=" M 164.45 134.59 C 164.48 134.54 164.54 134.45 164.56 134.40 C 164.54 134.45 164.48 134.54 164.45 134.59 Z" />
<path fill="#010101" opacity="1.00" d=" M 162.42 139.65 C 162.46 139.60 162.54 139.50 162.58 139.44 C 162.54 139.50 162.46 139.60 162.42 139.65 Z" />
<path fill="#010101" opacity="1.00" d=" M 57.41 141.24 C 57.48 141.35 57.63 141.56 57.70 141.67 C 57.63 141.56 57.48 141.35 57.41 141.24 Z" />
<path fill="#010101" opacity="1.00" d=" M 161.44 141.97 C 161.66 141.41 162.11 140.31 162.34 139.75 C 162.11 140.31 161.66 141.41 161.44 141.97 Z" />
<path fill="#010101" opacity="1.00" d=" M 158.50 147.82 C 158.56 147.70 158.69 147.46 158.75 147.34 C 158.69 147.46 158.56 147.70 158.50 147.82 Z" />
<path fill="#010101" opacity="1.00" d=" M 75.06 164.03 C 76.28 164.20 76.93 164.92 77.04 166.17 C 75.85 166.06 75.20 165.35 75.06 164.03 Z" />
<path fill="#010101" opacity="1.00" d=" M 148.27 165.65 C 148.35 165.54 148.50 165.31 148.58 165.19 C 148.50 165.31 148.35 165.54 148.27 165.65 Z" />
<path fill="#010101" opacity="1.00" d=" M 144.39 170.73 C 144.47 170.62 144.64 170.40 144.72 170.29 C 144.64 170.40 144.47 170.62 144.39 170.73 Z" />
<path fill="#6b6b6b" opacity="1.00" d=" M 97.00 172.18 C 97.44 172.21 98.32 172.25 98.76 172.27 C 103.58 176.22 109.61 179.30 116.00 178.73 C 121.58 179.17 126.84 176.48 131.09 173.11 C 131.86 172.30 133.90 171.45 134.43 172.96 C 130.75 177.24 125.31 179.64 120.03 181.38 C 117.01 181.51 113.98 181.60 110.97 181.32 C 105.56 179.65 100.31 177.06 96.32 172.98 L 97.00 172.18 Z" />
<path fill="#010101" opacity="1.00" d=" M 133.86 180.85 C 134.22 179.64 135.03 179.06 136.31 179.11 C 136.13 180.39 135.31 180.97 133.86 180.85 Z" />
<path fill="#010101" opacity="1.00" d=" M 131.30 182.75 C 131.42 182.67 131.64 182.51 131.75 182.44 C 131.64 182.51 131.42 182.67 131.30 182.75 Z" />
<path fill="#010101" opacity="1.00" d=" M 127.74 184.57 C 128.31 183.38 129.23 182.95 130.50 183.30 C 129.99 184.45 129.07 184.87 127.74 184.57 Z" />
<path fill="#010101" opacity="1.00" d=" M 106.27 186.34 C 109.47 187.02 112.75 187.26 116.01 187.27 C 119.21 187.57 122.19 186.13 125.33 185.83 C 126.11 188.22 128.66 189.02 130.16 190.84 C 131.18 192.47 131.95 194.27 133.25 195.73 C 135.73 198.94 139.64 200.70 141.85 204.16 C 143.65 206.11 144.17 208.96 146.47 210.48 C 147.17 214.05 149.75 216.67 151.04 220.00 L 145.10 220.00 C 143.93 218.12 142.48 216.42 141.52 214.41 C 140.32 212.85 138.46 211.53 138.53 209.34 C 137.62 205.13 133.15 203.46 130.58 200.43 C 128.04 198.18 127.23 194.57 124.45 192.55 C 122.48 191.07 120.69 189.40 119.04 187.59 L 117.91 187.38 L 116.89 187.89 L 116.63 188.94 C 116.72 199.29 116.51 209.65 116.78 220.00 L 111.41 220.00 C 111.87 211.72 111.31 203.41 111.78 195.13 C 113.08 194.09 112.16 190.95 110.35 192.22 C 109.28 192.66 109.32 193.92 109.79 194.77 C 108.54 197.20 107.49 199.75 105.94 202.02 C 104.92 203.31 105.96 205.39 104.53 206.50 C 101.97 208.62 101.38 211.98 99.72 214.69 C 98.70 216.31 97.80 218.08 97.57 220.00 L 91.17 220.00 C 91.77 218.64 92.47 217.32 92.76 215.85 C 93.28 214.17 94.86 213.17 95.67 211.66 C 96.83 209.78 97.53 207.63 98.88 205.86 C 100.30 204.02 100.05 201.42 101.51 199.59 C 103.82 196.03 105.31 192.05 106.56 188.01 C 106.49 187.60 106.34 186.76 106.27 186.34 Z" />
<path fill="#6b6b6b" opacity="1.00" d=" M 110.35 192.22 C 112.16 190.95 113.08 194.09 111.78 195.13 C 111.28 195.04 110.29 194.86 109.79 194.77 C 109.32 193.92 109.28 192.66 110.35 192.22 Z" />
</svg>
