<?xml version="1.0" encoding="UTF-8" ?>
<!DOCTYPE svg PUBLIC "-//W3C//DTD SVG 1.1//EN" "http://www.w3.org/Graphics/SVG/1.1/DTD/svg11.dtd">
<svg width="500pt" height="474pt" viewBox="0 0 500 474" version="1.1" xmlns="http://www.w3.org/2000/svg">
<path fill="#ffffff" opacity="1.00" d=" M 0.00 0.00 L 500.00 0.00 L 500.00 474.00 L 457.97 474.00 C 454.40 451.66 454.92 428.92 455.63 406.38 C 457.41 397.73 456.05 388.80 457.05 380.06 C 458.00 372.04 456.50 364.04 456.59 356.01 C 456.36 353.97 456.86 351.38 454.91 350.03 C 452.12 353.69 452.58 358.60 451.64 362.89 C 450.17 368.99 449.96 375.28 449.91 381.53 L 449.83 381.95 C 449.03 394.59 449.41 407.29 449.60 419.95 C 451.06 437.94 449.41 456.27 453.51 474.00 L 360.31 474.00 C 363.05 469.74 364.82 464.95 367.35 460.58 C 371.83 452.62 372.16 443.17 376.28 435.07 C 378.69 427.10 381.68 419.32 384.22 411.40 C 386.13 403.17 389.37 395.31 390.95 387.01 C 392.62 378.03 394.71 369.13 396.00 360.08 C 397.89 345.41 397.78 330.56 397.49 315.79 C 394.40 314.83 391.30 313.20 387.97 313.68 C 384.64 314.22 381.40 315.17 378.08 315.75 C 380.07 311.46 382.49 306.78 380.95 301.93 C 377.08 288.33 362.27 281.75 357.62 268.58 C 356.67 266.17 356.83 263.62 357.48 261.17 C 365.91 261.19 372.78 267.13 381.06 267.72 C 386.34 268.22 390.61 271.73 395.62 273.18 C 401.81 274.89 407.77 277.46 412.83 281.48 C 418.66 281.45 424.48 281.65 430.31 281.46 C 438.69 281.68 446.88 283.92 454.84 286.42 C 467.37 290.38 478.94 299.63 482.75 312.60 C 487.70 329.28 484.29 346.89 485.95 363.96 C 486.59 371.83 490.35 379.06 495.30 385.08 C 497.88 379.92 494.51 374.91 492.74 370.15 C 491.39 364.15 490.12 358.16 489.81 352.00 C 489.70 344.30 488.34 336.68 488.49 328.97 C 488.65 322.36 487.51 315.72 485.42 309.46 C 479.30 296.17 467.92 284.89 453.91 280.24 L 452.92 279.97 C 442.01 278.93 431.03 279.84 420.10 279.29 C 416.81 278.03 413.25 277.59 410.11 275.97 C 403.44 272.90 397.80 268.10 391.24 264.85 C 382.97 259.99 372.97 261.23 363.95 259.00 C 361.58 258.13 358.90 257.41 357.36 255.25 C 357.85 252.51 358.76 249.82 358.69 247.01 C 358.73 238.86 358.59 230.71 358.49 222.57 L 357.61 222.38 C 350.01 219.62 341.90 219.60 334.01 218.29 C 328.64 217.54 323.21 217.83 317.82 217.43 C 319.24 213.29 320.53 209.09 322.08 204.99 C 326.07 199.12 332.62 196.00 339.21 193.99 C 339.35 193.36 339.64 192.09 339.78 191.45 C 340.11 191.50 340.77 191.60 341.09 191.64 C 341.58 190.37 342.13 189.12 342.72 187.89 C 347.91 180.56 353.67 173.59 358.29 165.87 C 357.30 161.31 357.03 156.63 357.59 151.99 C 360.01 143.66 365.40 136.77 369.43 129.21 C 371.81 125.19 372.43 120.48 373.21 115.96 C 374.12 102.64 373.99 89.29 373.25 75.96 C 372.06 71.02 371.30 65.83 368.54 61.46 C 361.00 47.50 347.02 38.98 336.69 27.37 C 332.93 23.29 330.42 18.31 327.40 13.71 C 324.11 13.47 320.90 12.58 318.03 10.95 C 311.72 7.39 304.78 4.10 297.38 4.28 C 283.26 5.36 270.38 13.48 256.00 12.27 C 250.87 11.72 245.58 11.10 240.57 12.71 C 232.69 14.60 225.71 19.07 219.20 23.75 C 216.03 26.12 213.09 28.76 210.20 31.47 C 209.78 31.85 208.94 32.62 208.52 33.00 C 208.41 39.02 209.19 45.06 208.30 51.06 C 207.18 57.04 204.40 62.64 200.48 67.29 C 197.08 72.24 192.09 76.04 189.53 81.56 C 188.00 84.47 188.45 87.84 188.36 91.00 C 188.07 97.13 190.99 102.89 190.40 109.04 C 190.04 109.59 189.32 110.68 188.95 111.22 C 186.30 115.82 182.37 119.74 180.79 124.90 C 180.02 132.22 180.01 139.66 180.58 147.00 C 181.80 152.92 185.00 158.48 189.45 162.57 C 191.92 164.95 195.22 166.09 198.06 167.93 C 198.58 173.93 198.24 180.00 199.28 185.97 C 199.90 200.65 200.81 216.28 193.92 229.77 C 192.01 234.05 187.16 235.42 183.28 237.31 C 174.14 240.33 164.53 241.15 155.09 242.69 C 146.52 244.75 138.31 248.09 130.05 251.10 C 128.40 251.79 126.75 252.47 125.12 253.20 C 118.75 255.14 112.23 256.61 105.63 257.49 C 95.74 257.84 85.84 257.48 75.95 257.71 C 72.95 258.52 69.95 259.36 66.87 259.80 C 61.74 261.10 57.37 264.14 53.73 267.90 C 53.46 268.18 52.90 268.73 52.62 269.01 C 52.78 276.88 52.37 284.82 50.59 292.51 C 48.38 298.45 46.17 304.39 43.80 310.26 C 38.96 320.18 37.98 331.31 35.70 341.97 C 34.99 350.53 33.31 359.03 33.53 367.66 C 33.10 376.37 31.80 385.02 30.87 393.68 C 30.56 394.77 30.24 395.87 29.91 396.97 C 28.43 407.50 24.26 417.53 17.68 425.90 C 17.63 428.73 17.62 431.56 17.63 434.40 C 18.06 434.53 18.91 434.79 19.34 434.91 C 21.19 426.42 24.91 418.01 31.55 412.19 C 31.94 409.90 32.29 407.60 32.50 405.30 C 33.99 397.54 33.88 389.58 35.36 381.83 C 35.86 378.39 36.09 374.92 36.70 371.50 L 37.04 370.08 L 37.21 369.34 C 40.15 358.09 41.12 346.44 44.14 335.21 C 45.74 329.01 47.00 322.72 48.12 316.41 C 49.83 307.91 52.45 299.61 53.83 291.04 C 54.90 283.58 56.82 276.27 57.88 268.81 C 63.02 264.82 69.40 262.26 75.95 262.29 C 86.63 261.95 97.37 263.01 108.00 261.61 C 116.63 260.73 124.64 257.20 132.95 254.95 C 138.04 253.52 142.82 251.18 147.90 249.74 C 157.81 247.07 167.69 243.80 178.05 243.58 C 176.79 249.78 172.64 254.93 168.01 259.03 C 160.13 265.99 149.75 271.12 145.27 281.14 C 146.17 288.41 154.16 291.49 157.57 297.41 C 152.26 299.34 146.86 297.32 141.72 295.84 C 137.95 294.45 133.92 293.96 129.95 294.61 C 126.71 300.64 123.22 306.98 123.24 314.01 C 123.25 319.47 122.80 325.07 124.43 330.37 C 127.34 340.44 131.19 350.19 134.98 359.95 C 136.97 367.55 139.63 375.18 138.57 383.17 C 128.57 385.56 119.80 392.05 109.37 392.75 C 108.97 379.23 111.01 364.87 104.43 352.41 C 103.63 351.12 102.73 349.88 101.83 348.67 C 99.84 353.40 102.56 358.25 102.61 363.08 C 103.13 372.02 104.97 380.95 104.12 389.93 C 104.04 391.88 103.32 393.72 102.20 395.30 C 93.19 400.43 83.57 404.34 74.35 409.04 C 68.94 412.34 63.13 415.34 59.02 420.31 C 58.63 420.50 57.84 420.87 57.45 421.05 C 57.88 421.44 58.30 421.84 58.73 422.24 C 68.83 416.28 79.17 410.67 90.02 406.17 C 94.66 403.99 99.28 401.73 104.19 400.18 C 109.03 397.89 113.92 395.68 119.07 394.17 C 124.58 391.60 130.26 389.45 135.97 387.39 C 144.34 383.70 152.90 380.48 161.35 376.96 C 158.92 381.39 155.40 385.39 154.60 390.55 C 152.54 398.83 151.36 407.32 148.24 415.32 C 147.77 416.04 147.30 416.76 146.83 417.48 C 143.05 422.66 138.33 427.55 137.03 434.08 C 134.38 447.20 134.39 460.67 134.54 474.00 L 0.00 474.00 L 0.00 0.00 M 416.33 192.70 C 415.49 199.32 422.94 201.05 426.65 204.89 C 426.43 206.59 426.13 208.34 424.44 209.19 C 423.86 209.24 422.70 209.34 422.12 209.39 C 420.27 208.29 418.75 206.82 417.86 204.85 C 416.98 204.70 416.11 204.56 415.24 204.42 C 415.54 206.43 416.04 208.41 416.69 210.34 C 418.10 210.86 419.50 211.41 420.95 211.86 C 423.59 212.90 426.18 211.16 428.68 210.46 L 428.46 209.76 C 432.79 207.54 431.97 200.37 427.79 198.33 C 425.07 196.83 421.40 195.49 421.38 191.80 C 422.83 191.20 424.37 190.01 426.01 190.80 C 427.49 192.05 428.82 193.47 430.39 194.63 C 430.45 193.67 430.56 191.77 430.61 190.81 C 429.26 186.80 424.16 188.65 421.02 188.40 C 419.40 189.78 417.81 191.18 416.33 192.70 M 341.22 193.70 C 343.30 193.61 344.74 192.02 346.13 190.66 C 347.59 190.66 349.05 190.67 350.51 190.70 C 349.96 196.08 350.21 201.48 350.13 206.87 C 348.94 208.39 347.45 209.83 347.06 211.80 C 351.13 211.84 355.26 212.09 359.28 211.33 C 358.03 210.12 356.76 208.96 355.45 207.84 C 355.40 202.07 355.28 196.30 355.50 190.54 C 357.07 190.59 358.63 190.66 360.21 190.73 C 360.60 191.74 361.00 192.75 361.41 193.76 C 361.89 193.66 362.86 193.45 363.34 193.35 C 363.44 191.66 363.54 189.96 363.64 188.28 C 357.42 188.28 351.20 188.24 344.98 188.28 C 341.92 187.86 342.29 191.86 341.22 193.70 M 436.39 194.05 C 436.05 194.52 435.36 195.45 435.01 195.91 C 434.01 196.28 433.01 196.64 432.03 197.02 C 432.39 198.63 432.76 200.25 433.10 201.87 C 432.27 204.73 432.69 208.01 434.36 210.49 C 436.86 212.81 440.77 211.64 442.78 209.23 C 441.44 208.51 440.08 207.87 438.81 207.06 C 438.43 204.56 438.75 202.03 439.12 199.55 C 439.80 199.24 441.16 198.62 441.84 198.30 C 440.58 196.43 438.83 194.15 436.39 194.05 M 366.55 197.66 C 364.68 197.35 362.88 198.16 361.10 198.55 C 363.57 202.53 362.84 207.41 361.14 211.54 C 363.75 211.43 366.37 211.44 368.98 211.59 C 367.33 208.38 367.07 204.80 367.30 201.24 C 368.96 201.81 370.66 202.23 372.40 202.50 L 372.19 200.88 C 372.75 200.50 373.85 199.73 374.40 199.35 C 374.95 202.73 373.89 206.46 375.52 209.60 L 375.52 210.36 C 378.46 212.17 381.91 211.33 385.16 211.42 C 387.06 211.50 388.91 211.11 390.75 210.68 C 389.63 207.91 389.22 204.95 389.44 201.97 C 389.40 200.18 389.91 197.27 387.46 196.85 C 385.94 196.88 383.15 195.51 382.89 197.82 C 383.62 201.27 384.07 204.79 383.47 208.31 C 382.67 208.02 381.09 207.44 380.29 207.16 C 379.75 203.63 381.52 199.36 378.64 196.54 C 374.62 197.07 370.59 197.44 366.55 197.66 M 445.74 198.58 C 444.55 200.29 443.29 201.99 442.54 203.96 C 442.56 206.55 444.66 208.45 445.89 210.57 L 446.78 210.54 C 448.97 211.82 451.52 212.96 453.99 211.57 C 458.93 210.44 461.35 203.82 458.01 199.92 C 456.45 198.54 454.50 197.75 452.57 197.06 C 452.56 196.84 452.55 196.40 452.55 196.18 C 450.09 196.36 447.79 197.25 445.74 198.58 M 395.21 198.48 C 394.30 199.56 393.42 200.66 392.55 201.77 C 392.52 203.63 392.51 205.50 392.49 207.37 C 395.11 211.08 399.93 212.50 404.00 210.28 C 404.44 209.63 405.33 208.35 405.77 207.71 C 405.40 207.39 404.65 206.75 404.27 206.43 C 402.28 208.63 398.93 207.98 397.47 205.55 C 398.67 203.09 401.49 203.70 403.75 203.52 L 403.82 202.68 C 404.25 202.61 405.11 202.49 405.53 202.43 C 406.11 199.78 404.05 198.13 401.95 197.11 C 399.77 195.27 397.21 197.40 395.21 198.48 M 464.31 197.45 L 464.22 198.29 C 463.45 198.30 461.92 198.34 461.15 198.36 C 461.93 201.16 462.51 204.03 462.22 206.96 C 461.74 208.46 461.37 210.00 461.02 211.54 C 463.68 211.51 466.33 211.54 469.00 211.58 C 468.59 210.07 468.16 208.57 467.61 207.11 C 467.55 205.53 467.50 203.95 467.45 202.38 C 468.90 202.40 470.36 202.43 471.82 202.46 C 471.80 202.03 471.77 201.18 471.75 200.76 C 472.34 200.63 473.52 200.37 474.11 200.24 C 475.67 204.98 480.31 209.97 477.30 215.06 C 475.97 215.43 474.54 215.61 473.34 216.32 C 473.26 217.41 473.23 218.50 473.25 219.60 C 477.48 220.55 479.67 216.21 480.85 212.92 C 482.27 209.45 484.02 206.12 485.95 202.90 C 487.25 201.17 488.65 199.47 489.13 197.29 C 487.21 197.28 485.29 197.30 483.38 197.32 C 482.76 197.17 481.53 196.89 480.91 196.75 L 480.44 197.35 C 475.06 197.15 469.68 197.60 464.31 197.45 Z" />
<path fill="#222020" opacity="1.00" d=" M 256.00 12.27 C 270.38 13.48 283.26 5.36 297.38 4.28 C 299.26 6.19 301.53 7.61 304.00 8.63 C 299.00 8.16 293.91 7.88 288.95 8.75 C 281.07 10.77 273.69 14.64 265.50 15.48 C 257.56 12.40 248.88 13.42 240.57 12.71 C 245.58 11.10 250.87 11.72 256.00 12.27 Z" />
<path fill="#050404" opacity="1.00" d=" M 297.38 4.28 C 304.78 4.10 311.72 7.39 318.03 10.95 C 320.90 12.58 324.11 13.47 327.40 13.71 C 330.42 18.31 332.93 23.29 336.69 27.37 C 347.02 38.98 361.00 47.50 368.54 61.46 C 371.30 65.83 372.06 71.02 373.25 75.96 C 373.99 89.29 374.12 102.64 373.21 115.96 C 372.43 120.48 371.81 125.19 369.43 129.21 C 365.40 136.77 360.01 143.66 357.59 151.99 C 357.03 156.63 357.30 161.31 358.29 165.87 C 353.67 173.59 347.91 180.56 342.72 187.89 C 342.13 189.12 341.58 190.37 341.09 191.64 C 340.77 191.60 340.11 191.50 339.78 191.45 C 339.64 192.09 339.35 193.36 339.21 193.99 C 332.62 196.00 326.07 199.12 322.08 204.99 C 319.25 208.65 317.75 213.22 317.28 217.79 C 321.40 219.09 325.80 218.32 330.03 218.92 C 336.99 219.83 343.98 220.41 350.93 221.36 C 350.94 221.96 350.96 223.18 350.97 223.78 C 332.36 222.28 313.64 221.97 294.97 222.73 C 288.75 223.34 282.35 223.28 276.37 225.31 C 275.88 225.41 274.89 225.60 274.40 225.70 C 273.41 230.76 274.54 235.89 273.91 240.98 C 273.72 246.72 273.57 252.50 274.32 258.22 C 274.35 258.50 274.41 259.06 274.44 259.34 C 299.88 261.08 325.40 261.14 350.88 260.49 C 356.47 251.71 355.16 240.85 355.34 230.96 C 355.02 228.35 356.35 224.29 352.53 223.82 C 353.12 223.37 353.73 222.94 354.35 222.52 C 355.16 222.48 356.80 222.41 357.61 222.38 L 358.49 222.57 C 358.59 230.71 358.73 238.86 358.69 247.01 C 358.76 249.82 357.85 252.51 357.36 255.25 C 358.90 257.41 361.58 258.13 363.95 259.00 C 372.97 261.23 382.97 259.99 391.24 264.85 C 397.80 268.10 403.44 272.90 410.11 275.97 C 413.25 277.59 416.81 278.03 420.10 279.29 C 431.03 279.84 442.01 278.93 452.92 279.97 L 453.91 280.24 C 448.60 280.20 443.29 280.38 437.99 280.15 C 435.35 279.96 432.76 280.52 430.31 281.46 C 424.48 281.65 418.66 281.45 412.83 281.48 C 407.77 277.46 401.81 274.89 395.62 273.18 C 390.61 271.73 386.34 268.22 381.06 267.72 C 372.78 267.13 365.91 261.19 357.48 261.17 C 356.83 263.62 356.67 266.17 357.62 268.58 C 362.27 281.75 377.08 288.33 380.95 301.93 C 382.49 306.78 380.07 311.46 378.08 315.75 C 381.40 315.17 384.64 314.22 387.97 313.68 C 391.30 313.20 394.40 314.83 397.49 315.79 C 397.78 330.56 397.89 345.41 396.00 360.08 C 394.71 369.13 392.62 378.03 390.95 387.01 C 389.37 395.31 386.13 403.17 384.22 411.40 C 381.68 419.32 378.69 427.10 376.28 435.07 C 372.16 443.17 371.83 452.62 367.35 460.58 C 364.82 464.95 363.05 469.74 360.31 474.00 L 353.71 474.00 C 356.76 468.45 358.24 462.16 361.83 456.88 C 366.25 448.23 369.95 439.20 372.91 429.95 C 376.81 420.86 379.06 411.21 382.39 401.92 C 385.70 387.73 390.00 373.65 390.89 359.03 C 391.34 354.67 391.70 350.31 392.33 345.97 C 392.89 336.46 392.69 326.92 392.57 317.40 C 386.12 317.39 379.75 319.19 374.18 322.41 C 370.77 324.38 367.07 325.77 363.24 326.67 C 363.67 317.42 374.67 313.85 376.53 305.18 C 376.83 302.24 376.83 299.11 375.33 296.46 C 372.42 290.68 366.81 287.04 361.84 283.19 C 358.58 280.77 356.11 277.51 353.05 274.88 C 352.00 277.91 351.03 280.96 349.93 283.97 C 349.29 286.01 348.63 288.05 347.83 290.04 C 347.62 291.02 347.42 292.00 347.23 292.99 C 345.95 296.36 344.30 299.62 341.65 302.12 C 341.58 302.48 341.44 303.20 341.37 303.56 C 342.12 303.54 343.61 303.50 344.35 303.48 C 348.53 305.33 351.66 309.07 352.32 313.66 C 351.62 318.69 351.10 323.74 350.58 328.80 C 341.25 330.29 332.60 325.48 323.37 325.69 C 323.09 327.47 322.82 329.26 322.55 331.05 C 322.26 329.29 321.98 327.53 321.69 325.78 C 316.98 325.32 312.16 324.87 307.56 326.31 C 305.15 326.45 302.73 326.50 300.32 326.59 C 300.32 326.79 300.32 327.20 300.32 327.40 C 302.59 327.39 304.86 327.39 307.14 327.41 C 307.98 328.20 308.82 328.99 309.67 329.79 C 309.48 335.58 310.05 341.40 309.38 347.16 C 308.83 349.71 306.51 351.02 304.33 351.99 C 306.46 354.35 308.18 357.02 309.52 359.90 C 309.75 364.28 308.62 368.65 306.42 372.44 C 302.11 379.57 296.14 385.48 290.08 391.12 C 294.66 396.09 301.16 398.71 307.77 399.56 C 309.39 399.91 311.01 400.32 312.63 400.70 C 310.06 401.07 307.49 401.60 305.11 402.67 C 296.99 401.94 289.21 397.05 285.62 389.64 C 289.23 383.72 297.02 381.60 299.56 374.77 C 293.02 374.50 286.46 374.87 279.92 374.62 C 278.28 378.68 273.21 381.20 273.75 385.96 C 273.73 393.98 274.01 402.03 273.15 410.02 C 271.74 416.95 271.33 424.05 270.15 431.03 C 268.70 442.20 265.10 452.94 263.50 464.09 C 262.92 467.41 262.13 470.69 261.50 474.00 L 202.73 474.00 C 204.66 470.20 206.09 466.16 206.90 461.98 C 208.79 456.18 208.58 450.01 208.59 443.99 C 208.59 440.25 208.19 436.52 207.21 432.90 C 202.95 444.68 193.80 453.55 185.55 462.60 C 182.17 466.15 179.42 470.22 176.31 474.00 L 171.05 474.00 C 178.33 466.58 187.41 459.09 188.70 448.09 C 180.76 450.14 172.86 452.78 165.75 456.93 C 158.01 460.88 150.68 465.60 142.59 468.86 C 141.80 464.60 141.98 459.35 137.61 457.00 C 137.11 462.65 137.46 468.33 137.33 474.00 L 134.54 474.00 C 134.39 460.67 134.38 447.20 137.03 434.08 C 138.33 427.55 143.05 422.66 146.83 417.48 C 147.29 417.77 148.21 418.36 148.67 418.65 C 145.52 428.25 140.90 437.49 139.58 447.60 C 138.42 450.74 141.07 453.10 142.59 455.52 C 144.22 457.74 145.01 460.40 145.74 463.03 C 167.59 452.02 191.34 443.48 209.67 426.69 C 213.19 423.26 217.50 420.17 219.28 415.41 C 211.47 417.48 202.43 417.16 195.84 412.01 C 190.63 407.44 187.49 400.78 186.49 393.99 C 185.73 383.32 186.08 372.59 187.88 362.05 C 181.74 365.58 175.33 368.57 168.98 371.69 C 167.17 376.76 164.33 381.37 162.28 386.34 C 159.67 393.23 156.10 399.74 154.11 406.88 C 151.53 401.53 155.44 396.09 154.60 390.55 C 155.40 385.39 158.92 381.39 161.35 376.96 C 152.90 380.48 144.34 383.70 135.97 387.39 C 130.26 389.45 124.58 391.60 119.07 394.17 C 113.92 395.68 109.03 397.89 104.19 400.18 C 99.28 401.73 94.66 403.99 90.02 406.17 C 79.17 410.67 68.83 416.28 58.73 422.24 C 58.30 421.84 57.88 421.44 57.45 421.05 C 57.84 420.87 58.63 420.50 59.02 420.31 C 63.13 415.34 68.94 412.34 74.35 409.04 C 83.57 404.34 93.19 400.43 102.20 395.30 C 103.26 394.52 104.90 394.00 105.07 392.49 C 106.39 378.99 103.70 365.57 102.23 352.20 L 104.43 352.41 C 111.01 364.87 108.97 379.23 109.37 392.75 C 119.80 392.05 128.57 385.56 138.57 383.17 C 139.63 375.18 136.97 367.55 134.98 359.95 C 131.19 350.19 127.34 340.44 124.43 330.37 C 122.80 325.07 123.25 319.47 123.24 314.01 C 123.22 306.98 126.71 300.64 129.95 294.61 C 133.92 293.96 137.95 294.45 141.72 295.84 C 146.74 299.32 152.97 299.90 158.90 299.38 C 158.46 298.71 158.03 298.05 157.57 297.41 C 154.16 291.49 146.17 288.41 145.27 281.14 C 149.75 271.12 160.13 265.99 168.01 259.03 C 172.64 254.93 176.79 249.78 178.05 243.58 C 167.69 243.80 157.81 247.07 147.90 249.74 C 142.82 251.18 138.04 253.52 132.95 254.95 C 124.64 257.20 116.63 260.73 108.00 261.61 C 97.37 263.01 86.63 261.95 75.95 262.29 C 69.40 262.26 63.02 264.82 57.88 268.81 C 55.62 272.70 55.42 277.31 54.06 281.52 C 53.51 277.00 53.61 272.44 53.73 267.90 C 57.37 264.14 61.74 261.10 66.87 259.80 C 69.95 259.36 72.95 258.52 75.95 257.71 C 85.84 257.48 95.74 257.84 105.63 257.49 C 112.23 256.61 118.75 255.14 125.12 253.20 C 126.75 252.47 128.40 251.79 130.05 251.10 C 138.31 248.09 146.52 244.75 155.09 242.69 C 164.53 241.15 174.14 240.33 183.28 237.31 C 187.16 235.42 192.01 234.05 193.92 229.77 C 200.81 216.28 199.90 200.65 199.28 185.97 C 198.24 180.00 198.58 173.93 198.06 167.93 C 195.22 166.09 191.92 164.95 189.45 162.57 C 185.00 158.48 181.80 152.92 180.58 147.00 C 180.01 139.66 180.02 132.22 180.79 124.90 C 182.37 119.74 186.30 115.82 188.95 111.22 C 189.32 112.41 189.69 113.59 190.06 114.77 C 189.37 115.83 188.76 116.95 188.15 118.05 C 187.67 119.36 187.19 120.67 186.70 121.98 C 186.19 132.35 185.51 142.94 187.74 153.16 C 188.19 154.83 188.59 156.52 188.97 158.22 C 193.23 160.15 198.57 158.56 202.33 161.64 C 202.66 170.73 201.99 179.87 202.79 188.96 C 204.16 193.23 204.83 197.68 206.03 201.99 C 207.89 208.69 211.65 214.68 215.73 220.23 C 215.60 220.71 215.33 221.66 215.19 222.14 C 212.71 219.91 210.18 217.74 207.49 215.77 C 207.59 224.95 204.35 235.14 209.43 243.54 C 214.94 250.17 222.67 254.48 229.84 259.08 C 236.99 262.91 243.92 267.61 251.98 269.29 C 258.22 268.91 264.38 266.45 269.09 262.32 C 270.49 260.92 270.26 258.83 270.30 257.04 C 270.22 251.88 270.38 246.73 270.15 241.58 C 270.05 240.28 269.96 238.99 269.86 237.70 C 269.85 237.27 269.83 236.42 269.82 236.00 C 269.78 233.94 269.75 231.88 269.71 229.82 L 270.21 229.11 C 270.22 226.92 270.26 224.73 270.33 222.54 C 278.10 221.34 285.83 219.85 293.69 219.38 C 300.08 217.98 306.68 218.73 313.09 217.48 C 315.29 211.07 317.10 204.49 319.96 198.32 C 321.35 194.83 325.46 194.58 328.47 193.24 C 343.13 187.72 350.58 171.72 352.89 157.17 C 348.04 158.43 343.83 161.34 341.51 165.85 C 341.17 170.22 342.34 174.72 341.02 178.99 C 341.67 174.15 340.41 169.48 337.68 165.47 C 337.85 163.27 338.38 161.12 338.84 158.97 C 338.97 159.40 339.22 160.25 339.34 160.68 L 339.69 162.04 C 352.00 154.48 358.76 141.03 363.99 128.08 C 366.75 118.86 369.67 109.59 370.57 99.96 C 370.68 89.00 371.64 77.60 367.33 67.23 C 364.47 59.33 358.42 53.25 352.47 47.57 C 342.41 38.08 329.96 30.07 324.50 16.79 C 317.27 16.41 311.30 12.03 304.95 9.09 L 304.00 8.63 C 301.53 7.61 299.26 6.19 297.38 4.28 M 202.95 218.87 C 201.96 220.76 201.09 222.75 200.76 224.88 C 199.90 234.57 200.48 244.30 200.73 254.00 C 200.84 256.40 201.43 258.74 201.84 261.09 C 202.98 265.49 202.13 270.16 203.61 274.51 C 203.68 284.02 204.85 293.50 205.41 303.00 C 205.54 306.53 205.03 310.10 205.59 313.62 C 207.25 313.66 208.20 312.89 208.42 311.33 C 213.00 304.89 216.41 297.68 219.69 290.52 C 223.37 283.56 228.21 276.53 235.87 273.62 C 240.02 273.34 244.27 273.12 248.25 274.57 C 252.50 276.71 256.50 279.37 261.07 280.83 C 264.69 281.86 268.67 281.71 272.18 280.29 C 274.27 279.93 273.29 277.41 273.37 276.01 C 271.89 273.75 271.36 271.09 271.17 268.43 C 269.74 268.32 268.16 268.07 267.04 269.20 C 261.25 273.51 253.55 272.66 246.90 271.35 C 245.63 270.78 244.34 270.26 243.06 269.74 C 242.51 269.64 241.41 269.45 240.86 269.35 C 236.11 267.62 231.46 265.59 227.25 262.76 C 220.27 259.09 213.98 254.11 208.59 248.38 C 204.71 244.39 202.66 238.64 203.58 233.11 C 204.16 228.43 205.42 223.21 202.95 218.87 M 190.72 236.37 C 187.73 239.14 184.81 241.98 182.15 245.06 C 180.45 248.37 179.44 251.95 178.27 255.47 C 176.10 258.37 173.01 260.41 170.10 262.49 C 163.34 267.50 155.97 272.18 151.39 279.45 C 150.28 280.93 149.42 283.30 150.90 284.85 C 154.53 289.04 159.47 291.97 162.53 296.69 C 162.65 298.55 162.72 300.41 162.71 302.28 C 162.05 302.53 160.72 303.03 160.06 303.28 C 158.00 303.29 155.95 303.30 153.90 303.31 C 152.26 302.81 150.60 302.38 148.95 301.92 C 144.50 301.58 140.45 299.42 135.99 299.12 C 134.58 298.71 133.17 298.34 131.75 298.00 C 131.07 299.61 130.39 301.23 129.71 302.84 C 127.72 312.75 127.76 323.06 129.89 332.95 C 130.31 334.30 130.59 335.69 130.87 337.09 L 131.11 337.87 C 131.45 338.89 131.83 339.90 132.23 340.91 C 134.31 346.54 136.27 352.22 137.85 358.01 C 138.68 359.96 139.21 362.01 139.77 364.05 C 141.38 367.82 141.26 371.99 142.22 375.92 C 142.34 377.28 142.47 378.64 142.59 380.00 C 145.94 379.13 148.97 377.41 152.17 376.16 C 157.47 374.37 162.40 371.73 167.39 369.25 C 168.29 368.90 169.20 368.55 170.12 368.22 C 179.48 362.98 189.24 358.30 197.71 351.65 C 198.67 351.13 199.64 350.63 200.62 350.15 C 200.42 347.76 200.27 345.37 200.09 342.98 C 199.75 341.20 199.59 339.40 199.53 337.60 C 198.88 314.74 199.88 291.86 199.23 269.00 C 197.94 262.37 198.99 255.50 197.23 248.94 C 196.18 246.01 196.52 242.68 194.67 240.03 C 194.52 238.78 194.38 237.54 194.25 236.30 C 193.07 236.31 191.89 236.33 190.72 236.37 M 284.96 279.82 C 270.53 283.19 257.34 290.05 243.87 295.96 C 240.96 303.80 238.78 312.07 234.14 319.13 C 224.71 335.76 210.05 348.60 194.81 359.78 C 194.12 360.66 193.44 361.54 192.76 362.43 C 191.78 366.95 190.52 371.39 189.77 375.97 C 188.50 383.33 189.19 390.81 190.89 398.03 C 192.72 402.76 195.01 407.97 199.79 410.34 C 209.30 410.48 218.82 410.30 228.33 410.41 C 240.39 400.42 251.62 389.26 265.11 381.15 C 269.64 378.67 273.84 375.14 279.07 374.28 C 282.15 372.41 285.50 371.03 288.98 370.08 C 292.17 368.91 295.54 368.47 298.91 368.12 C 300.85 367.47 302.91 367.36 304.89 366.82 C 306.12 364.37 305.26 361.37 305.38 358.71 C 302.80 353.70 297.53 351.09 292.06 350.77 C 288.76 350.63 285.47 350.34 282.26 349.57 C 282.28 349.05 282.31 348.00 282.33 347.48 C 289.79 346.03 297.31 347.85 304.84 347.50 C 306.02 342.57 305.12 337.42 305.38 332.40 C 301.74 330.97 297.79 331.75 294.04 332.17 C 290.26 332.65 286.46 332.44 282.67 332.47 L 281.84 332.20 C 280.52 331.54 279.21 330.88 277.91 330.20 C 279.52 328.21 281.68 326.87 283.92 325.70 C 285.65 325.21 287.38 324.68 289.11 324.16 C 293.61 322.89 298.39 323.01 302.90 321.76 C 307.95 321.48 313.01 321.51 318.05 321.79 C 325.91 323.42 334.07 322.79 341.94 324.20 C 344.15 324.41 346.38 324.60 348.60 324.84 C 350.19 319.07 349.14 312.33 345.18 307.75 C 341.89 306.82 338.34 307.53 334.96 307.22 C 327.73 305.98 320.34 305.92 313.10 304.86 C 308.19 303.10 302.81 304.03 297.95 302.10 L 296.98 301.94 C 293.38 300.99 289.71 300.33 286.01 299.93 C 281.49 299.39 276.75 300.54 272.43 298.70 C 275.24 297.70 278.13 296.95 280.87 295.75 C 284.26 295.37 287.62 294.70 290.90 293.71 C 303.08 293.17 315.28 293.20 327.47 293.37 C 328.19 288.66 327.39 283.42 324.17 279.83 C 320.43 279.36 316.80 278.35 313.07 277.82 C 308.40 277.53 303.72 277.65 299.05 277.69 C 294.25 277.68 289.75 279.74 284.96 279.82 M 221.45 297.51 C 215.88 305.09 211.40 313.53 204.51 320.06 C 204.01 327.02 204.57 334.03 204.39 341.01 C 204.47 342.58 204.12 344.07 203.35 345.47 C 203.74 345.76 204.52 346.34 204.91 346.63 C 210.43 341.96 215.83 337.09 220.54 331.60 C 226.94 324.97 231.43 316.90 236.35 309.20 C 236.37 308.06 236.39 306.93 236.41 305.80 C 232.17 301.62 235.15 293.21 229.11 290.46 C 225.58 291.38 223.79 295.00 221.45 297.51 Z" />
<path fill="#ffffff" opacity="1.00" d=" M 265.50 15.48 C 273.69 14.64 281.07 10.77 288.95 8.75 C 293.91 7.88 299.00 8.16 304.00 8.63 L 304.95 9.09 C 311.30 12.03 317.27 16.41 324.50 16.79 C 329.96 30.07 342.41 38.08 352.47 47.57 C 358.42 53.25 364.47 59.33 367.33 67.23 C 371.64 77.60 370.68 89.00 370.57 99.96 C 369.67 109.59 366.75 118.86 363.99 128.08 C 358.76 141.03 352.00 154.48 339.69 162.04 L 339.34 160.68 C 339.04 155.56 339.14 150.42 339.26 145.30 C 339.45 126.21 345.78 107.93 347.35 89.00 C 347.43 84.57 347.96 79.94 346.33 75.71 L 345.90 74.76 C 345.28 73.38 344.42 72.09 343.26 71.12 C 341.46 69.79 339.31 68.88 337.03 69.20 C 328.55 69.86 320.04 69.62 311.55 69.46 C 301.36 67.26 292.12 62.10 283.72 56.09 C 278.74 52.32 273.02 49.64 267.10 47.74 C 258.02 46.39 247.76 47.13 240.69 53.65 C 231.63 62.41 229.30 75.28 225.30 86.71 C 223.36 94.71 220.39 102.38 216.77 109.77 C 214.22 114.64 210.38 118.76 205.84 121.85 C 201.68 116.62 198.32 110.79 195.15 104.93 C 191.27 95.42 190.84 83.11 197.94 74.97 C 204.20 66.85 212.72 59.60 214.77 49.07 C 215.71 46.12 215.69 43.00 214.90 40.02 C 214.67 39.00 214.45 37.98 214.23 36.97 L 213.83 36.45 C 213.72 35.53 213.50 33.69 213.39 32.77 C 216.08 29.71 219.26 27.10 222.90 25.25 C 232.97 19.49 244.93 19.25 256.03 16.91 C 259.15 16.25 262.33 15.87 265.50 15.48 Z" />
<path fill="#090808" opacity="1.00" d=" M 219.20 23.75 C 225.71 19.07 232.69 14.60 240.57 12.71 C 248.88 13.42 257.56 12.40 265.50 15.48 C 262.33 15.87 259.15 16.25 256.03 16.91 C 244.93 19.25 232.97 19.49 222.90 25.25 C 221.67 24.75 220.43 24.25 219.20 23.75 Z" />
<path fill="#1c1a1a" opacity="1.00" d=" M 210.20 31.47 C 213.09 28.76 216.03 26.12 219.20 23.75 C 220.43 24.25 221.67 24.75 222.90 25.25 C 219.26 27.10 216.08 29.71 213.39 32.77 C 213.50 33.69 213.72 35.53 213.83 36.45 C 213.57 36.12 213.05 35.48 212.79 35.16 C 211.89 33.95 211.07 32.69 210.20 31.47 Z" />
<path fill="#070606" opacity="1.00" d=" M 208.52 33.00 C 208.94 32.62 209.78 31.85 210.20 31.47 C 211.07 32.69 211.89 33.95 212.79 35.16 C 213.05 35.48 213.57 36.12 213.83 36.45 L 214.23 36.97 C 214.45 37.98 214.67 39.00 214.90 40.02 C 215.69 43.00 215.71 46.12 214.77 49.07 C 212.72 59.60 204.20 66.85 197.94 74.97 C 190.84 83.11 191.27 95.42 195.15 104.93 C 198.32 110.79 201.68 116.62 205.84 121.85 C 210.38 118.76 214.22 114.64 216.77 109.77 C 217.25 110.41 218.21 111.69 218.69 112.33 C 214.96 118.73 209.43 123.89 202.78 127.16 C 200.30 121.44 199.21 114.99 195.24 110.03 C 193.43 111.51 191.64 113.04 190.06 114.77 C 189.69 113.59 189.32 112.41 188.95 111.22 C 189.32 110.68 190.04 109.59 190.40 109.04 C 190.99 102.89 188.07 97.13 188.36 91.00 C 188.45 87.84 188.00 84.47 189.53 81.56 C 192.09 76.04 197.08 72.24 200.48 67.29 C 204.40 62.64 207.18 57.04 208.30 51.06 C 209.19 45.06 208.41 39.02 208.52 33.00 Z" />
<path fill="#040303" opacity="1.00" d=" M 240.69 53.65 C 247.76 47.13 258.02 46.39 267.10 47.74 C 273.02 49.64 278.74 52.32 283.72 56.09 C 292.12 62.10 301.36 67.26 311.55 69.46 C 315.98 70.68 320.53 71.43 325.12 71.77 C 315.03 74.37 304.70 72.05 295.04 68.93 C 287.60 64.70 281.50 58.56 274.16 54.20 C 265.75 49.80 255.07 48.73 246.53 53.39 C 239.66 57.54 236.09 65.15 233.12 72.28 C 231.27 78.08 229.33 83.85 227.43 89.63 C 226.90 88.90 225.84 87.44 225.30 86.71 C 229.30 75.28 231.63 62.41 240.69 53.65 Z" />
<path fill="#ffffff" opacity="1.00" d=" M 246.53 53.39 C 255.07 48.73 265.75 49.80 274.16 54.20 C 281.50 58.56 287.60 64.70 295.04 68.93 C 307.15 75.99 322.07 74.26 335.12 71.05 L 336.36 71.69 C 339.01 73.95 342.44 76.13 343.10 79.82 C 343.44 84.04 343.13 88.27 343.21 92.50 C 341.68 97.90 341.33 103.51 340.54 109.04 C 338.45 121.00 337.17 133.04 336.21 145.13 C 334.18 152.24 337.01 159.42 337.63 166.52 C 338.36 170.05 339.88 173.52 339.46 177.20 C 337.65 178.18 335.53 178.29 333.61 178.94 C 332.45 179.79 332.80 181.45 332.44 182.67 C 335.31 182.23 337.99 181.06 340.72 180.09 C 340.79 179.82 340.94 179.27 341.02 178.99 C 342.34 174.72 341.17 170.22 341.51 165.85 C 343.83 161.34 348.04 158.43 352.89 157.17 C 350.58 171.72 343.13 187.72 328.47 193.24 C 325.46 194.58 321.35 194.83 319.96 198.32 C 317.10 204.49 315.29 211.07 313.09 217.48 C 306.68 218.73 300.08 217.98 293.69 219.38 C 285.83 219.85 278.10 221.34 270.33 222.54 C 270.26 224.73 270.22 226.92 270.21 229.11 L 269.71 229.82 C 269.75 231.88 269.78 233.94 269.82 236.00 C 269.83 236.42 269.85 237.27 269.86 237.70 C 269.66 238.11 269.26 238.92 269.06 239.33 C 255.43 239.76 241.03 238.10 229.00 231.24 C 223.63 228.85 219.24 224.88 215.73 220.23 C 211.65 214.68 207.89 208.69 206.03 201.99 C 204.83 197.68 204.16 193.23 202.79 188.96 C 201.99 179.87 202.66 170.73 202.33 161.64 C 198.57 158.56 193.23 160.15 188.97 158.22 C 188.59 156.52 188.19 154.83 187.74 153.16 C 185.51 142.94 186.19 132.35 186.70 121.98 C 187.19 120.67 187.67 119.36 188.15 118.05 C 188.76 116.95 189.37 115.83 190.06 114.77 C 191.64 113.04 193.43 111.51 195.24 110.03 C 199.21 114.99 200.30 121.44 202.78 127.16 C 209.43 123.89 214.96 118.73 218.69 112.33 C 222.47 105.13 225.71 97.61 227.43 89.63 C 229.33 83.85 231.27 78.08 233.12 72.28 C 236.09 65.15 239.66 57.54 246.53 53.39 M 255.35 79.58 C 255.40 79.97 255.49 80.75 255.53 81.14 C 260.64 81.11 265.15 83.73 270.08 84.67 C 275.53 86.75 280.68 89.52 286.01 91.90 C 288.92 93.11 291.38 95.57 294.70 95.61 L 294.69 96.54 C 294.92 96.50 295.40 96.41 295.63 96.36 C 291.64 90.08 284.31 87.30 277.99 83.97 C 270.68 81.65 263.17 78.37 255.35 79.58 M 251.38 85.35 C 251.46 85.76 251.62 86.58 251.71 86.99 C 255.35 88.93 259.21 90.41 262.89 92.28 C 261.57 92.56 260.25 92.83 258.94 93.11 C 258.28 92.93 256.97 92.55 256.31 92.37 C 252.59 90.50 247.61 90.87 244.79 94.17 C 246.42 95.00 248.20 95.47 250.05 95.39 C 251.05 95.53 252.05 95.66 253.06 95.78 C 254.33 96.25 255.63 96.69 256.93 97.13 C 258.27 97.47 259.62 97.82 260.91 98.33 C 262.04 98.82 263.18 99.29 264.34 99.74 C 265.20 100.20 266.08 100.66 266.96 101.12 C 267.94 101.50 268.92 101.89 269.89 102.30 C 271.33 102.80 272.78 103.30 274.25 103.75 C 275.05 104.27 275.86 104.80 276.67 105.32 C 277.40 105.37 278.85 105.47 279.57 105.52 C 279.56 105.94 279.55 106.76 279.54 107.17 C 280.57 107.15 281.60 107.14 282.63 107.12 C 282.31 107.02 281.65 106.83 281.33 106.73 L 281.52 105.83 C 279.61 104.64 277.77 103.37 275.86 102.19 C 274.12 101.09 272.37 100.00 270.63 98.89 C 270.66 97.94 270.70 96.99 270.75 96.04 C 275.51 98.15 280.31 100.19 285.01 102.44 C 285.66 102.33 286.32 102.22 286.97 102.11 C 285.29 101.95 283.96 101.18 283.20 99.66 C 281.50 98.40 279.76 97.21 277.92 96.17 C 273.83 93.90 270.21 90.81 265.84 89.05 C 261.22 87.20 256.52 84.74 251.38 85.35 M 300.25 98.44 C 301.57 98.89 302.89 99.35 304.22 99.81 C 307.53 101.74 311.44 102.03 315.09 102.98 C 318.49 103.65 321.96 103.73 325.41 103.72 C 325.12 103.10 324.52 101.85 324.22 101.23 C 316.87 97.47 308.51 97.56 300.54 96.55 C 300.46 97.02 300.32 97.97 300.25 98.44 M 238.87 100.67 C 234.59 102.20 229.63 105.91 230.51 111.03 C 230.82 110.70 231.43 110.05 231.73 109.72 C 233.98 107.84 236.40 106.16 239.05 104.88 C 244.00 104.29 249.16 104.31 253.84 106.22 C 254.36 106.44 255.40 106.88 255.92 107.10 C 256.95 107.49 257.97 107.90 258.98 108.34 C 263.45 109.95 267.52 112.44 271.51 114.97 C 271.51 114.38 271.50 113.19 271.49 112.59 C 269.05 108.77 265.50 105.82 261.61 103.56 C 258.29 101.67 254.47 101.08 250.99 99.62 C 246.94 99.28 242.63 98.78 238.87 100.67 M 293.39 103.38 C 293.38 103.56 293.36 103.94 293.34 104.13 C 295.99 105.41 297.90 108.27 301.22 107.54 C 301.64 107.74 302.50 108.15 302.93 108.35 C 305.72 108.70 308.48 109.34 311.28 109.65 C 311.36 109.82 311.52 110.16 311.59 110.33 C 305.77 111.62 299.78 110.81 293.93 111.77 C 296.55 112.77 299.12 113.92 301.76 114.87 C 304.69 115.57 307.74 115.66 310.73 116.07 C 314.75 117.41 319.02 117.49 323.21 117.17 C 322.81 115.87 322.38 114.59 321.91 113.32 C 322.58 113.34 323.91 113.37 324.58 113.39 C 324.62 112.81 324.70 111.66 324.75 111.08 C 324.54 111.13 324.12 111.22 323.92 111.26 C 323.02 110.37 322.13 109.48 321.24 108.60 C 320.95 108.52 320.38 108.37 320.09 108.30 C 316.05 105.47 310.86 104.80 306.04 104.67 C 301.81 104.42 297.35 105.29 293.39 103.38 M 271.35 106.03 C 271.37 106.60 271.39 107.75 271.40 108.33 C 275.00 110.84 275.19 116.25 279.63 117.82 C 279.51 116.50 279.53 115.13 278.86 113.94 C 277.39 110.57 275.70 106.14 271.35 106.03 M 287.03 109.06 C 287.29 109.54 287.80 110.48 288.06 110.96 C 289.47 110.98 290.88 111.00 292.30 111.01 C 292.01 108.16 288.97 109.30 287.03 109.06 M 239.52 122.66 C 238.74 123.18 237.97 123.70 237.20 124.22 C 236.16 124.76 235.13 125.29 234.10 125.84 C 235.52 129.77 239.98 131.16 242.93 133.75 C 247.57 135.79 252.82 137.57 257.92 136.44 C 260.92 135.56 265.10 132.31 262.49 128.99 C 261.92 128.67 260.78 128.04 260.20 127.72 C 257.59 126.26 254.91 124.88 252.01 124.11 C 250.77 123.61 249.50 123.16 248.26 122.68 C 245.35 122.62 242.43 122.65 239.52 122.66 M 298.95 126.09 C 301.12 128.20 304.28 127.36 307.00 127.45 C 312.84 127.33 319.02 125.83 324.67 127.27 C 326.36 131.90 328.04 138.06 333.74 138.97 C 334.14 131.87 328.22 126.81 324.51 121.42 C 319.04 121.71 313.48 121.01 308.08 122.14 C 304.63 122.33 301.44 123.68 298.95 126.09 M 191.78 130.47 C 191.63 133.42 192.44 136.31 192.74 139.23 C 193.53 140.50 194.27 141.80 195.00 143.11 C 195.89 143.33 196.80 143.55 197.70 143.77 C 196.74 142.16 195.82 140.53 194.62 139.08 C 194.19 133.89 195.62 128.75 197.96 124.17 C 196.22 126.61 192.58 127.36 191.78 130.47 M 280.39 149.14 C 280.89 149.83 281.90 151.21 282.41 151.90 L 282.14 152.94 C 285.54 151.51 283.89 147.09 284.72 144.21 C 286.58 142.24 288.76 140.46 289.70 137.83 C 289.03 137.53 287.67 136.94 287.00 136.65 C 283.60 139.98 280.20 144.09 280.39 149.14 M 295.90 141.33 L 295.46 141.40 C 294.12 142.61 292.60 144.20 293.57 146.15 C 299.94 153.61 311.25 152.47 319.44 149.02 C 320.01 146.48 318.43 144.50 317.10 142.54 C 316.86 142.46 316.38 142.29 316.14 142.21 C 314.89 140.34 312.61 139.98 310.59 139.50 C 305.74 138.24 300.24 138.85 295.90 141.33 M 267.28 149.92 C 264.54 152.72 261.42 155.15 257.86 156.82 C 254.15 158.73 249.78 159.75 246.96 163.03 C 245.00 165.06 245.05 168.13 244.31 170.70 C 245.22 170.58 246.14 170.47 247.06 170.35 C 247.88 168.23 248.61 165.92 250.48 164.45 C 254.25 160.62 260.19 160.57 264.15 157.03 C 267.46 154.27 270.88 150.25 269.22 145.65 C 268.57 147.07 267.93 148.50 267.28 149.92 M 292.53 156.36 C 293.80 160.44 298.36 161.07 301.80 162.35 C 304.18 162.59 306.57 162.60 308.95 162.39 C 307.89 159.53 304.32 161.06 302.01 160.48 C 298.01 158.88 295.57 155.31 292.82 152.22 C 292.24 153.57 291.39 155.03 292.53 156.36 M 287.27 171.42 C 288.43 173.96 289.71 176.46 291.29 178.78 C 294.52 183.57 296.73 188.94 299.06 194.19 C 299.84 197.01 299.41 199.99 299.27 202.86 C 297.51 204.89 295.81 206.97 293.89 208.87 C 293.27 209.37 292.65 209.88 292.04 210.39 C 292.73 210.36 294.10 210.29 294.78 210.25 C 297.81 208.17 301.49 205.93 302.17 202.00 C 302.73 197.59 302.39 192.95 300.53 188.87 C 297.75 182.52 293.97 176.64 289.41 171.42 C 288.88 171.42 287.80 171.42 287.27 171.42 M 254.28 173.23 C 254.32 174.60 253.81 176.26 255.22 177.17 C 255.37 178.90 255.40 180.63 255.64 182.35 C 256.55 182.60 257.49 182.70 258.46 182.63 L 257.52 181.91 L 259.33 181.11 C 260.87 178.92 261.67 175.45 259.63 173.34 C 258.16 171.82 255.98 172.69 254.28 173.23 M 271.00 178.53 C 269.48 179.48 268.17 180.70 266.78 181.82 C 266.22 182.60 265.76 183.45 265.32 184.31 C 265.84 184.42 266.88 184.63 267.40 184.74 C 267.73 184.13 268.38 182.90 268.70 182.29 C 271.35 182.62 274.21 184.27 276.53 182.14 C 276.93 181.06 277.88 179.98 277.30 178.77 C 275.43 177.44 273.08 178.42 271.00 178.53 M 235.95 186.55 C 232.53 189.11 233.66 193.70 233.60 197.36 C 234.55 198.86 236.12 199.62 237.80 200.03 C 235.66 195.59 236.01 190.49 238.74 186.40 C 238.05 186.44 236.65 186.51 235.95 186.55 M 238.42 194.76 C 239.50 196.16 241.21 196.58 242.85 196.89 C 246.97 199.12 251.84 198.60 256.19 200.14 C 266.53 203.01 277.53 205.29 288.12 202.26 C 288.38 201.45 288.62 200.64 288.84 199.83 C 283.23 199.71 277.52 200.29 272.02 198.90 C 269.61 198.45 267.16 197.68 264.70 198.10 C 264.90 197.97 265.31 197.70 265.52 197.57 C 256.45 197.21 247.58 193.37 238.42 194.76 M 255.32 206.23 C 255.41 206.75 255.60 207.79 255.69 208.31 C 258.20 208.34 260.70 208.43 263.21 208.52 C 265.68 210.15 268.59 210.77 271.53 210.55 C 271.57 210.07 271.65 209.10 271.69 208.62 C 270.44 207.98 269.19 207.36 267.97 206.69 C 265.34 206.03 262.64 205.59 259.93 205.62 C 258.47 204.91 256.80 206.01 255.32 206.23 Z" />
<path fill="#716f6f" opacity="1.00" d=" M 295.04 68.93 C 304.70 72.05 315.03 74.37 325.12 71.77 C 320.53 71.43 315.98 70.68 311.55 69.46 C 320.04 69.62 328.55 69.86 337.03 69.20 C 339.31 68.88 341.46 69.79 343.26 71.12 C 340.61 70.34 337.77 70.07 335.12 71.05 C 322.07 74.26 307.15 75.99 295.04 68.93 Z" />
<path fill="#010101" opacity="1.00" d=" M 335.12 71.05 C 337.77 70.07 340.61 70.34 343.26 71.12 C 344.42 72.09 345.28 73.38 345.90 74.76 C 345.57 82.19 346.04 89.67 345.17 97.08 C 344.38 103.72 343.32 110.35 341.62 116.82 C 340.35 121.73 340.20 126.82 339.38 131.80 C 339.24 130.93 339.09 130.06 338.96 129.20 C 339.60 116.87 343.69 104.92 343.21 92.50 C 343.13 88.27 343.44 84.04 343.10 79.82 C 342.44 76.13 339.01 73.95 336.36 71.69 L 335.12 71.05 Z" />
<path fill="#1e1c1d" opacity="1.00" d=" M 345.90 74.76 L 346.33 75.71 C 347.96 79.94 347.43 84.57 347.35 89.00 C 345.78 107.93 339.45 126.21 339.26 145.30 C 338.59 146.83 337.93 148.37 337.28 149.92 C 336.91 148.32 336.54 146.72 336.21 145.13 C 337.17 133.04 338.45 121.00 340.54 109.04 C 341.33 103.51 341.68 97.90 343.21 92.50 C 343.69 104.92 339.60 116.87 338.96 129.20 C 339.09 130.06 339.24 130.93 339.38 131.80 C 340.20 126.82 340.35 121.73 341.62 116.82 C 343.32 110.35 344.38 103.72 345.17 97.08 C 346.04 89.67 345.57 82.19 345.90 74.76 Z" />
<path fill="#171415" opacity="1.00" d=" M 255.35 79.58 C 263.17 78.37 270.68 81.65 277.99 83.97 C 284.31 87.30 291.64 90.08 295.63 96.36 C 295.40 96.41 294.92 96.50 294.69 96.54 L 294.70 95.61 C 291.38 95.57 288.92 93.11 286.01 91.90 C 280.68 89.52 275.53 86.75 270.08 84.67 C 265.15 83.73 260.64 81.11 255.53 81.14 C 255.49 80.75 255.40 79.97 255.35 79.58 Z" />
<path fill="#131212" opacity="1.00" d=" M 251.38 85.35 C 256.52 84.74 261.22 87.20 265.84 89.05 C 270.21 90.81 273.83 93.90 277.92 96.17 C 279.76 97.21 281.50 98.40 283.20 99.66 C 283.96 101.18 285.29 101.95 286.97 102.11 C 286.32 102.22 285.66 102.33 285.01 102.44 C 280.31 100.19 275.51 98.15 270.75 96.04 C 268.08 94.89 265.45 93.64 262.89 92.28 C 259.21 90.41 255.35 88.93 251.71 86.99 C 251.62 86.58 251.46 85.76 251.38 85.35 Z" />
<path fill="#272526" opacity="1.00" d=" M 216.77 109.77 C 220.39 102.38 223.36 94.71 225.30 86.71 C 225.84 87.44 226.90 88.90 227.43 89.63 C 225.71 97.61 222.47 105.13 218.69 112.33 C 218.21 111.69 217.25 110.41 216.77 109.77 Z" />
<path fill="#6a6869" opacity="1.00" d=" M 244.79 94.17 C 247.61 90.87 252.59 90.50 256.31 92.37 C 253.49 92.38 250.68 92.56 247.87 92.77 C 248.41 93.43 249.50 94.74 250.05 95.39 C 248.20 95.47 246.42 95.00 244.79 94.17 Z" />
<path fill="#dcdcdc" opacity="1.00" d=" M 258.94 93.11 C 260.25 92.83 261.57 92.56 262.89 92.28 C 265.45 93.64 268.08 94.89 270.75 96.04 C 270.70 96.99 270.66 97.94 270.63 98.89 C 266.96 96.54 263.08 94.50 258.94 93.11 Z" />
<path fill="#010101" opacity="1.00" d=" M 247.87 92.77 C 250.68 92.56 253.49 92.38 256.31 92.37 C 256.97 92.55 258.28 92.93 258.94 93.11 C 263.08 94.50 266.96 96.54 270.63 98.89 C 272.37 100.00 274.12 101.09 275.86 102.19 C 277.77 103.37 279.61 104.64 281.52 105.83 L 281.33 106.73 C 281.65 106.83 282.31 107.02 282.63 107.12 C 281.60 107.14 280.57 107.15 279.54 107.17 C 279.55 106.76 279.56 105.94 279.57 105.52 C 278.85 105.47 277.40 105.37 276.67 105.32 C 275.86 104.80 275.05 104.27 274.25 103.75 C 272.78 103.30 271.33 102.80 269.89 102.30 C 268.92 101.89 267.94 101.50 266.96 101.12 C 266.08 100.66 265.20 100.20 264.34 99.74 C 263.18 99.29 262.04 98.82 260.91 98.33 C 259.62 97.82 258.27 97.47 256.93 97.13 C 255.63 96.69 254.33 96.25 253.06 95.78 C 252.05 95.66 251.05 95.53 250.05 95.39 C 249.50 94.74 248.41 93.43 247.87 92.77 Z" />
<path fill="#080707" opacity="1.00" d=" M 300.25 98.44 C 300.32 97.97 300.46 97.02 300.54 96.55 C 308.51 97.56 316.87 97.47 324.22 101.23 C 324.52 101.85 325.12 103.10 325.41 103.72 C 321.96 103.73 318.49 103.65 315.09 102.98 C 311.44 102.03 307.53 101.74 304.22 99.81 C 302.89 99.35 301.57 98.89 300.25 98.44 Z" />
<path fill="#030203" opacity="1.00" d=" M 238.87 100.67 C 242.63 98.78 246.94 99.28 250.99 99.62 C 254.47 101.08 258.29 101.67 261.61 103.56 C 265.50 105.82 269.05 108.77 271.49 112.59 C 271.50 113.19 271.51 114.38 271.51 114.97 C 267.52 112.44 263.45 109.95 258.98 108.34 C 257.97 107.90 256.95 107.49 255.92 107.10 C 255.40 106.88 254.36 106.44 253.84 106.22 C 249.16 104.31 244.00 104.29 239.05 104.88 C 236.40 106.16 233.98 107.84 231.73 109.72 C 231.43 110.05 230.82 110.70 230.51 111.03 C 229.63 105.91 234.59 102.20 238.87 100.67 Z" />
<path fill="#5c5a5a" opacity="1.00" d=" M 293.39 103.38 C 297.35 105.29 301.81 104.42 306.04 104.67 C 310.86 104.80 316.05 105.47 320.09 108.30 C 313.09 106.65 305.65 104.14 298.49 106.16 C 299.17 106.50 300.53 107.20 301.22 107.54 C 297.90 108.27 295.99 105.41 293.34 104.13 C 293.36 103.94 293.38 103.56 293.39 103.38 Z" />
<path fill="#1d1a1b" opacity="1.00" d=" M 271.35 106.03 C 275.70 106.14 277.39 110.57 278.86 113.94 C 279.53 115.13 279.51 116.50 279.63 117.82 C 275.19 116.25 275.00 110.84 271.40 108.33 C 271.39 107.75 271.37 106.60 271.35 106.03 Z" />
<path fill="#010101" opacity="1.00" d=" M 298.49 106.16 C 305.65 104.14 313.09 106.65 320.09 108.30 C 320.38 108.37 320.95 108.52 321.24 108.60 C 322.13 109.48 323.02 110.37 323.92 111.26 C 323.40 111.37 322.36 111.59 321.84 111.69 C 318.29 111.14 314.85 110.08 311.28 109.65 C 308.48 109.34 305.72 108.70 302.93 108.35 C 302.50 108.15 301.64 107.74 301.22 107.54 C 300.53 107.20 299.17 106.50 298.49 106.16 Z" />
<path fill="#c7c6c7" opacity="1.00" d=" M 287.03 109.06 C 288.97 109.30 292.01 108.16 292.30 111.01 C 290.88 111.00 289.47 110.98 288.06 110.96 C 287.80 110.48 287.29 109.54 287.03 109.06 Z" />
<path fill="#3a3738" opacity="1.00" d=" M 311.28 109.65 C 314.85 110.08 318.29 111.14 321.84 111.69 C 322.36 111.59 323.40 111.37 323.92 111.26 C 324.12 111.22 324.54 111.13 324.75 111.08 C 324.70 111.66 324.62 112.81 324.58 113.39 C 323.91 113.37 322.58 113.34 321.91 113.32 C 321.66 113.30 321.17 113.27 320.92 113.25 C 321.13 114.10 321.54 115.78 321.74 116.62 C 318.07 116.44 314.39 116.32 310.73 116.07 C 307.74 115.66 304.69 115.57 301.76 114.87 C 299.12 113.92 296.55 112.77 293.93 111.77 C 299.78 110.81 305.77 111.62 311.59 110.33 C 311.52 110.16 311.36 109.82 311.28 109.65 M 301.74 113.40 C 307.85 114.62 314.16 115.85 320.39 114.95 C 315.20 111.23 307.49 110.70 301.74 113.40 Z" />
<path fill="#020101" opacity="1.00" d=" M 301.74 113.40 C 307.49 110.70 315.20 111.23 320.39 114.95 C 314.16 115.85 307.85 114.62 301.74 113.40 Z" />
<path fill="#adabab" opacity="1.00" d=" M 320.92 113.25 C 321.17 113.27 321.66 113.30 321.91 113.32 C 322.38 114.59 322.81 115.87 323.21 117.17 C 319.02 117.49 314.75 117.41 310.73 116.07 C 314.39 116.32 318.07 116.44 321.74 116.62 C 321.54 115.78 321.13 114.10 320.92 113.25 Z" />
<path fill="#040303" opacity="1.00" d=" M 239.52 122.66 C 242.43 122.65 245.35 122.62 248.26 122.68 C 249.50 123.16 250.77 123.61 252.01 124.11 C 254.91 124.88 257.59 126.26 260.20 127.72 C 260.78 128.04 261.92 128.67 262.49 128.99 C 261.94 130.56 261.70 132.29 260.78 133.71 C 257.63 136.18 252.83 136.67 249.41 134.47 C 248.24 131.59 248.77 128.35 248.63 125.31 L 247.72 125.28 C 244.62 125.17 241.52 125.15 238.43 125.35 C 240.25 127.33 242.15 129.24 244.17 131.01 C 243.86 131.69 243.24 133.06 242.93 133.75 C 239.98 131.16 235.52 129.77 234.10 125.84 C 235.13 125.29 236.16 124.76 237.20 124.22 C 237.97 123.70 238.74 123.18 239.52 122.66 Z" />
<path fill="#040303" opacity="1.00" d=" M 298.95 126.09 C 301.44 123.68 304.63 122.33 308.08 122.14 C 313.48 121.01 319.04 121.71 324.51 121.42 C 328.22 126.81 334.14 131.87 333.74 138.97 C 328.04 138.06 326.36 131.90 324.67 127.27 C 319.02 125.83 312.84 127.33 307.00 127.45 C 304.28 127.36 301.12 128.20 298.95 126.09 Z" />
<path fill="#2b2929" opacity="1.00" d=" M 191.78 130.47 C 192.58 127.36 196.22 126.61 197.96 124.17 C 195.62 128.75 194.19 133.89 194.62 139.08 C 195.82 140.53 196.74 142.16 197.70 143.77 C 196.80 143.55 195.89 143.33 195.00 143.11 C 194.27 141.80 193.53 140.50 192.74 139.23 C 192.44 136.31 191.63 133.42 191.78 130.47 Z" />
<path fill="#ffffff" opacity="1.00" d=" M 238.43 125.35 C 241.52 125.15 244.62 125.17 247.72 125.28 C 247.70 127.98 247.67 130.69 247.59 133.39 C 246.42 132.63 245.26 131.86 244.17 131.01 C 242.15 129.24 240.25 127.33 238.43 125.35 Z" />
<path fill="#3a3738" opacity="1.00" d=" M 247.72 125.28 L 248.63 125.31 C 248.77 128.35 248.24 131.59 249.41 134.47 C 252.83 136.67 257.63 136.18 260.78 133.71 C 261.70 132.29 261.94 130.56 262.49 128.99 C 265.10 132.31 260.92 135.56 257.92 136.44 C 252.82 137.57 247.57 135.79 242.93 133.75 C 243.24 133.06 243.86 131.69 244.17 131.01 C 245.26 131.86 246.42 132.63 247.59 133.39 C 247.67 130.69 247.70 127.98 247.72 125.28 Z" />
<path fill="#0d0b0b" opacity="1.00" d=" M 280.39 149.14 C 280.20 144.09 283.60 139.98 287.00 136.65 C 287.67 136.94 289.03 137.53 289.70 137.83 C 288.76 140.46 286.58 142.24 284.72 144.21 C 283.61 146.66 283.11 149.32 282.41 151.90 C 281.90 151.21 280.89 149.83 280.39 149.14 Z" />
<path fill="#656464" opacity="1.00" d=" M 295.90 141.33 C 300.24 138.85 305.74 138.24 310.59 139.50 C 312.61 139.98 314.89 140.34 316.14 142.21 C 309.69 139.54 302.60 139.95 295.90 141.33 Z" />
<path fill="#040303" opacity="1.00" d=" M 295.90 141.33 C 302.60 139.95 309.69 139.54 316.14 142.21 C 316.38 142.29 316.86 142.46 317.10 142.54 C 318.43 144.50 320.01 146.48 319.44 149.02 C 311.25 152.47 299.94 153.61 293.57 146.15 C 292.60 144.20 294.12 142.61 295.46 141.40 L 295.90 141.33 M 296.85 143.75 C 296.72 144.54 296.60 145.33 296.48 146.12 C 300.08 147.46 303.55 149.54 307.57 148.61 C 307.45 146.90 307.33 145.20 307.24 143.50 C 303.81 142.62 300.18 142.39 296.85 143.75 Z" />
<path fill="#ffffff" opacity="1.00" d=" M 296.85 143.75 C 300.18 142.39 303.81 142.62 307.24 143.50 C 307.33 145.20 307.45 146.90 307.57 148.61 C 303.55 149.54 300.08 147.46 296.48 146.12 C 296.60 145.33 296.72 144.54 296.85 143.75 Z" />
<path fill="#969595" opacity="1.00" d=" M 282.41 151.90 C 283.11 149.32 283.61 146.66 284.72 144.21 C 283.89 147.09 285.54 151.51 282.14 152.94 L 282.41 151.90 Z" />
<path fill="#0d0b0b" opacity="1.00" d=" M 267.28 149.92 C 267.93 148.50 268.57 147.07 269.22 145.65 C 270.88 150.25 267.46 154.27 264.15 157.03 C 260.19 160.57 254.25 160.62 250.48 164.45 C 248.61 165.92 247.88 168.23 247.06 170.35 C 246.14 170.47 245.22 170.58 244.31 170.70 C 245.05 168.13 245.00 165.06 246.96 163.03 C 249.78 159.75 254.15 158.73 257.86 156.82 C 261.42 155.15 264.54 152.72 267.28 149.92 Z" />
<path fill="#706d6f" opacity="1.00" d=" M 337.63 166.52 C 337.01 159.42 334.18 152.24 336.21 145.13 C 336.54 146.72 336.91 148.32 337.28 149.92 C 337.93 148.37 338.59 146.83 339.26 145.30 C 339.14 150.42 339.04 155.56 339.34 160.68 C 339.22 160.25 338.97 159.40 338.84 158.97 C 338.38 161.12 337.85 163.27 337.68 165.47 L 337.63 166.52 Z" />
<path fill="#2b2829" opacity="1.00" d=" M 292.53 156.36 C 291.39 155.03 292.24 153.57 292.82 152.22 C 295.57 155.31 298.01 158.88 302.01 160.48 C 304.32 161.06 307.89 159.53 308.95 162.39 C 306.57 162.60 304.18 162.59 301.80 162.35 C 298.36 161.07 293.80 160.44 292.53 156.36 Z" />
<path fill="#1d1b1b" opacity="1.00" d=" M 337.63 166.52 L 337.68 165.47 C 340.41 169.48 341.67 174.15 341.02 178.99 C 340.94 179.27 340.79 179.82 340.72 180.09 C 337.99 181.06 335.31 182.23 332.44 182.67 C 332.80 181.45 332.45 179.79 333.61 178.94 C 335.53 178.29 337.65 178.18 339.46 177.20 C 339.88 173.52 338.36 170.05 337.63 166.52 Z" />
<path fill="#141313" opacity="1.00" d=" M 287.27 171.42 C 287.80 171.42 288.88 171.42 289.41 171.42 C 293.97 176.64 297.75 182.52 300.53 188.87 C 302.39 192.95 302.73 197.59 302.17 202.00 C 301.49 205.93 297.81 208.17 294.78 210.25 C 294.10 210.29 292.73 210.36 292.04 210.39 C 292.65 209.88 293.27 209.37 293.89 208.87 C 295.81 206.97 297.51 204.89 299.27 202.86 C 299.41 199.99 299.84 197.01 299.06 194.19 C 296.73 188.94 294.52 183.57 291.29 178.78 C 289.71 176.46 288.43 173.96 287.27 171.42 Z" />
<path fill="#8d8c8c" opacity="1.00" d=" M 254.28 173.23 C 255.98 172.69 258.16 171.82 259.63 173.34 C 261.67 175.45 260.87 178.92 259.33 181.11 C 259.68 178.89 260.03 176.61 259.63 174.38 C 258.03 173.40 256.04 173.59 254.28 173.23 Z" />
<path fill="#030202" opacity="1.00" d=" M 254.28 173.23 C 256.04 173.59 258.03 173.40 259.63 174.38 C 260.03 176.61 259.68 178.89 259.33 181.11 L 257.52 181.91 L 256.80 181.37 C 256.55 180.29 256.28 179.21 256.00 178.14 C 255.81 177.90 255.42 177.42 255.22 177.17 C 253.81 176.26 254.32 174.60 254.28 173.23 Z" />
<path fill="#797777" opacity="1.00" d=" M 255.22 177.17 C 255.42 177.42 255.81 177.90 256.00 178.14 C 256.28 179.21 256.55 180.29 256.80 181.37 L 257.52 181.91 L 258.46 182.63 C 257.49 182.70 256.55 182.60 255.64 182.35 C 255.40 180.63 255.37 178.90 255.22 177.17 Z" />
<path fill="#908f8f" opacity="1.00" d=" M 271.00 178.53 C 273.08 178.42 275.43 177.44 277.30 178.77 C 277.88 179.98 276.93 181.06 276.53 182.14 C 277.55 178.51 273.38 178.69 271.00 178.53 Z" />
<path fill="#050404" opacity="1.00" d=" M 271.00 178.53 C 273.38 178.69 277.55 178.51 276.53 182.14 C 274.21 184.27 271.35 182.62 268.70 182.29 C 268.38 182.90 267.73 184.13 267.40 184.74 C 266.88 184.63 265.84 184.42 265.32 184.31 C 265.76 183.45 266.22 182.60 266.78 181.82 C 268.17 180.70 269.48 179.48 271.00 178.53 Z" />
<path fill="#151314" opacity="1.00" d=" M 235.95 186.55 C 236.65 186.51 238.05 186.44 238.74 186.40 C 236.01 190.49 235.66 195.59 237.80 200.03 C 236.12 199.62 234.55 198.86 233.60 197.36 C 233.66 193.70 232.53 189.11 235.95 186.55 Z" />
<path fill="#fd0000" opacity="1.00" d=" M 416.33 192.70 C 417.81 191.18 419.40 189.78 421.02 188.40 C 424.16 188.65 429.26 186.80 430.61 190.81 C 430.56 191.77 430.45 193.67 430.39 194.63 C 428.82 193.47 427.49 192.05 426.01 190.80 C 424.37 190.01 422.83 191.20 421.38 191.80 C 421.40 195.49 425.07 196.83 427.79 198.33 C 431.97 200.37 432.79 207.54 428.46 209.76 C 427.93 209.78 426.88 209.81 426.35 209.83 C 425.87 209.67 424.92 209.35 424.44 209.19 C 426.13 208.34 426.43 206.59 426.65 204.89 C 422.94 201.05 415.49 199.32 416.33 192.70 Z" />
<path fill="#fe0000" opacity="1.00" d=" M 341.22 193.70 C 342.29 191.86 341.92 187.86 344.98 188.28 C 351.20 188.24 357.42 188.28 363.64 188.28 C 363.54 189.96 363.44 191.66 363.34 193.35 C 362.86 193.45 361.89 193.66 361.41 193.76 C 361.00 192.75 360.60 191.74 360.21 190.73 C 358.63 190.66 357.07 190.59 355.50 190.54 C 355.28 196.30 355.40 202.07 355.45 207.84 C 355.44 208.50 355.41 209.82 355.40 210.49 C 353.66 210.54 351.92 210.54 350.18 210.55 C 351.05 203.97 350.82 197.31 350.51 190.70 C 349.05 190.67 347.59 190.66 346.13 190.66 C 344.74 192.02 343.30 193.61 341.22 193.70 Z" />
<path fill="#fd6363" opacity="1.00" d=" M 350.51 190.70 C 350.82 197.31 351.05 203.97 350.18 210.55 C 351.92 210.54 353.66 210.54 355.40 210.49 C 355.41 209.82 355.44 208.50 355.45 207.84 C 356.76 208.96 358.03 210.12 359.28 211.33 C 355.26 212.09 351.13 211.84 347.06 211.80 C 347.45 209.83 348.94 208.39 350.13 206.87 C 350.21 201.48 349.96 196.08 350.51 190.70 Z" />
<path fill="#fd6b6b" opacity="1.00" d=" M 436.39 194.05 C 438.83 194.15 440.58 196.43 441.84 198.30 C 441.16 198.62 439.80 199.24 439.12 199.55 C 438.75 202.03 438.43 204.56 438.81 207.06 C 440.08 207.87 441.44 208.51 442.78 209.23 C 440.77 211.64 436.86 212.81 434.36 210.49 C 432.69 208.01 432.27 204.73 433.10 201.87 C 432.76 200.25 432.39 198.63 432.03 197.02 C 433.01 196.64 434.01 196.28 435.01 195.91 C 434.66 196.40 433.94 197.36 433.58 197.85 C 434.22 202.00 434.43 206.20 434.60 210.39 C 436.36 210.44 438.12 210.49 439.89 210.54 C 437.50 206.72 438.32 202.18 438.39 197.94 C 438.69 196.28 437.23 195.23 436.39 194.05 Z" />
<path fill="#3a3738" opacity="1.00" d=" M 238.42 194.76 C 247.58 193.37 256.45 197.21 265.52 197.57 C 265.31 197.70 264.90 197.97 264.70 198.10 L 264.17 198.27 C 258.89 198.04 253.51 195.88 248.31 197.73 C 246.49 197.45 244.66 197.21 242.85 196.89 C 241.21 196.58 239.50 196.16 238.42 194.76 Z" />
<path fill="#fe0000" opacity="1.00" d=" M 436.39 194.05 C 437.23 195.23 438.69 196.28 438.39 197.94 C 438.32 202.18 437.50 206.72 439.89 210.54 C 438.12 210.49 436.36 210.44 434.60 210.39 C 434.43 206.20 434.22 202.00 433.58 197.85 C 433.94 197.36 434.66 196.40 435.01 195.91 C 435.36 195.45 436.05 194.52 436.39 194.05 Z" />
<path fill="#fd6363" opacity="1.00" d=" M 366.55 197.66 C 370.59 197.44 374.62 197.07 378.64 196.54 C 381.52 199.36 379.75 203.63 380.29 207.16 C 381.09 207.44 382.67 208.02 383.47 208.31 C 384.07 204.79 383.62 201.27 382.89 197.82 C 383.15 195.51 385.94 196.88 387.46 196.85 C 389.91 197.27 389.40 200.18 389.44 201.97 C 389.22 204.95 389.63 207.91 390.75 210.68 C 388.91 211.11 387.06 211.50 385.16 211.42 C 381.91 211.33 378.46 212.17 375.52 210.36 C 377.65 210.38 379.77 210.41 381.91 210.43 C 381.03 209.26 380.17 208.10 379.30 206.94 C 379.29 204.07 379.47 201.16 378.81 198.34 C 377.62 198.09 376.43 197.89 375.23 197.72 C 375.45 201.67 375.60 205.64 375.52 209.60 C 373.89 206.46 374.95 202.73 374.40 199.35 C 373.85 199.73 372.75 200.50 372.19 200.88 C 372.11 200.28 371.95 199.09 371.87 198.49 C 370.09 198.20 368.33 197.90 366.55 197.66 M 384.20 198.14 C 384.59 201.99 385.77 206.31 383.17 209.68 C 384.97 210.52 387.04 211.05 388.85 209.90 C 388.83 205.87 388.51 201.85 388.41 197.82 C 387.00 197.93 385.60 198.03 384.20 198.14 Z" />
<path fill="#fa7d7d" opacity="1.00" d=" M 445.74 198.58 C 447.79 197.25 450.09 196.36 452.55 196.18 C 452.55 196.40 452.56 196.84 452.57 197.06 C 452.59 197.51 452.63 198.42 452.65 198.88 C 453.17 200.58 453.85 202.23 454.27 203.97 C 454.36 206.41 453.19 208.68 452.59 210.99 C 454.40 210.09 456.81 209.70 457.81 207.71 C 459.19 205.32 458.30 202.47 458.01 199.92 C 461.35 203.82 458.93 210.44 453.99 211.57 C 451.52 212.96 448.97 211.82 446.78 210.54 C 447.37 210.51 448.55 210.45 449.14 210.42 C 449.51 210.06 450.24 209.34 450.61 208.98 C 454.03 207.44 453.56 203.34 452.01 200.56 C 451.44 200.56 450.28 200.56 449.71 200.55 C 449.31 202.84 449.20 205.16 449.26 207.48 L 448.45 206.52 C 447.91 203.63 448.70 200.80 449.76 198.14 C 448.42 198.29 447.07 198.44 445.74 198.58 Z" />
<path fill="#656464" opacity="1.00" d=" M 242.85 196.89 C 244.66 197.21 246.49 197.45 248.31 197.73 C 255.98 198.71 263.25 201.65 270.98 202.27 C 276.51 203.07 282.11 202.53 287.56 201.42 C 279.83 199.92 271.72 200.98 264.17 198.27 L 264.70 198.10 C 267.16 197.68 269.61 198.45 272.02 198.90 C 277.52 200.29 283.23 199.71 288.84 199.83 C 288.62 200.64 288.38 201.45 288.12 202.26 C 277.53 205.29 266.53 203.01 256.19 200.14 C 251.84 198.60 246.97 199.12 242.85 196.89 Z" />
<path fill="#080607" opacity="1.00" d=" M 248.31 197.73 C 253.51 195.88 258.89 198.04 264.17 198.27 C 271.72 200.98 279.83 199.92 287.56 201.42 C 282.11 202.53 276.51 203.07 270.98 202.27 C 263.25 201.65 255.98 198.71 248.31 197.73 Z" />
<path fill="#fd0505" opacity="1.00" d=" M 361.10 198.55 C 362.88 198.16 364.68 197.35 366.55 197.66 C 368.33 197.90 370.09 198.20 371.87 198.49 C 371.95 199.09 372.11 200.28 372.19 200.88 L 372.40 202.50 C 370.66 202.23 368.96 201.81 367.30 201.24 C 367.07 204.80 367.33 208.38 368.98 211.59 C 366.37 211.44 363.75 211.43 361.14 211.54 C 362.84 207.41 363.57 202.53 361.10 198.55 Z" />
<path fill="#fd6868" opacity="1.00" d=" M 395.21 198.48 C 397.21 197.40 399.77 195.27 401.95 197.11 C 401.39 198.81 400.78 200.50 400.18 202.18 C 401.39 202.36 402.60 202.54 403.82 202.68 L 403.75 203.52 C 401.49 203.70 398.67 203.09 397.47 205.55 C 397.39 205.42 397.24 205.15 397.17 205.02 C 397.72 202.57 399.49 198.13 395.21 198.48 Z" />
<path fill="#fa0606" opacity="1.00" d=" M 464.31 197.45 C 469.68 197.60 475.06 197.15 480.44 197.35 C 480.36 199.86 480.51 202.36 480.65 204.87 C 481.69 203.97 482.73 203.08 483.79 202.20 C 483.67 200.57 483.56 198.94 483.38 197.32 C 485.29 197.30 487.21 197.28 489.13 197.29 C 488.65 199.47 487.25 201.17 485.95 202.90 C 484.02 206.12 482.27 209.45 480.85 212.92 C 479.67 216.21 477.48 220.55 473.25 219.60 C 473.23 218.50 473.26 217.41 473.34 216.32 C 474.54 215.61 475.97 215.43 477.30 215.06 C 480.31 209.97 475.67 204.98 474.11 200.24 C 473.52 200.37 472.34 200.63 471.75 200.76 C 471.73 200.16 471.67 198.95 471.65 198.35 C 469.17 198.30 466.69 198.26 464.22 198.29 L 464.31 197.45 Z" />
<path fill="#e4e8e8" opacity="1.00" d=" M 480.44 197.35 L 480.91 196.75 C 481.53 196.89 482.76 197.17 483.38 197.32 C 483.56 198.94 483.67 200.57 483.79 202.20 C 482.73 203.08 481.69 203.97 480.65 204.87 C 480.51 202.36 480.36 199.86 480.44 197.35 Z" />
<path fill="#fe0000" opacity="1.00" d=" M 375.23 197.72 C 376.43 197.89 377.62 198.09 378.81 198.34 C 379.47 201.16 379.29 204.07 379.30 206.94 C 380.17 208.10 381.03 209.26 381.91 210.43 C 379.77 210.41 377.65 210.38 375.52 210.36 L 375.52 209.60 C 375.60 205.64 375.45 201.67 375.23 197.72 Z" />
<path fill="#fd0000" opacity="1.00" d=" M 384.20 198.14 C 385.60 198.03 387.00 197.93 388.41 197.82 C 388.51 201.85 388.83 205.87 388.85 209.90 C 387.04 211.05 384.97 210.52 383.17 209.68 C 385.77 206.31 384.59 201.99 384.20 198.14 Z" />
<path fill="#fd0000" opacity="1.00" d=" M 400.18 202.18 C 400.78 200.50 401.39 198.81 401.95 197.11 C 404.05 198.13 406.11 199.78 405.53 202.43 C 405.11 202.49 404.25 202.61 403.82 202.68 C 402.60 202.54 401.39 202.36 400.18 202.18 Z" />
<path fill="#fe0000" opacity="1.00" d=" M 445.74 198.58 C 447.07 198.44 448.42 198.29 449.76 198.14 C 448.70 200.80 447.91 203.63 448.45 206.52 L 449.26 207.48 C 449.60 207.85 450.27 208.61 450.61 208.98 C 450.24 209.34 449.51 210.06 449.14 210.42 C 448.55 210.45 447.37 210.51 446.78 210.54 L 445.89 210.57 C 444.66 208.45 442.56 206.55 442.54 203.96 C 443.29 201.99 444.55 200.29 445.74 198.58 Z" />
<path fill="#ff0000" opacity="1.00" d=" M 452.65 198.88 C 452.63 198.42 452.59 197.51 452.57 197.06 C 454.50 197.75 456.45 198.54 458.01 199.92 C 458.30 202.47 459.19 205.32 457.81 207.71 C 456.81 209.70 454.40 210.09 452.59 210.99 C 453.19 208.68 454.36 206.41 454.27 203.97 C 453.85 202.23 453.17 200.58 452.65 198.88 Z" />
<path fill="#fc0303" opacity="1.00" d=" M 461.15 198.36 C 461.92 198.34 463.45 198.30 464.22 198.29 C 466.69 198.26 469.17 198.30 471.65 198.35 C 471.67 198.95 471.73 200.16 471.75 200.76 C 471.77 201.18 471.80 202.03 471.82 202.46 C 470.36 202.43 468.90 202.40 467.45 202.38 C 467.50 203.95 467.55 205.53 467.61 207.11 C 468.16 208.57 468.59 210.07 469.00 211.58 C 466.33 211.54 463.68 211.51 461.02 211.54 C 461.37 210.00 461.74 208.46 462.22 206.96 C 462.51 204.03 461.93 201.16 461.15 198.36 Z" />
<path fill="#fd0000" opacity="1.00" d=" M 395.21 198.48 C 399.49 198.13 397.72 202.57 397.17 205.02 C 397.24 205.15 397.39 205.42 397.47 205.55 C 398.93 207.98 402.28 208.63 404.27 206.43 C 404.65 206.75 405.40 207.39 405.77 207.71 C 405.33 208.35 404.44 209.63 404.00 210.28 C 399.93 212.50 395.11 211.08 392.49 207.37 C 392.51 205.50 392.52 203.63 392.55 201.77 C 393.42 200.66 394.30 199.56 395.21 198.48 Z" />
<path fill="#fffdfd" opacity="1.00" d=" M 449.71 200.55 C 450.28 200.56 451.44 200.56 452.01 200.56 C 453.56 203.34 454.03 207.44 450.61 208.98 C 450.27 208.61 449.60 207.85 449.26 207.48 C 449.20 205.16 449.31 202.84 449.71 200.55 Z" />
<path fill="#fd1212" opacity="1.00" d=" M 415.24 204.42 C 416.11 204.56 416.98 204.70 417.86 204.85 C 418.75 206.82 420.27 208.29 422.12 209.39 C 421.58 209.61 420.50 210.05 419.95 210.27 C 419.14 210.29 417.51 210.32 416.69 210.34 C 416.04 208.41 415.54 206.43 415.24 204.42 Z" />
<path fill="#787677" opacity="1.00" d=" M 317.28 217.79 C 317.75 213.22 319.25 208.65 322.08 204.99 C 320.53 209.09 319.24 213.29 317.82 217.43 C 323.21 217.83 328.64 217.54 334.01 218.29 C 341.90 219.60 350.01 219.62 357.61 222.38 C 356.80 222.41 355.16 222.48 354.35 222.52 C 353.73 222.94 353.12 223.37 352.53 223.82 C 356.35 224.29 355.02 228.35 355.34 230.96 C 355.16 240.85 356.47 251.71 350.88 260.49 C 325.40 261.14 299.88 261.08 274.44 259.34 C 274.41 259.06 274.35 258.50 274.32 258.22 C 299.61 260.43 325.04 259.74 350.39 259.57 C 356.00 248.86 354.35 236.41 354.30 224.79 C 336.19 224.34 318.09 222.70 299.97 223.61 C 292.10 224.18 284.23 224.67 276.37 225.31 C 282.35 223.28 288.75 223.34 294.97 222.73 C 313.64 221.97 332.36 222.28 350.97 223.78 C 350.96 223.18 350.94 221.96 350.93 221.36 C 343.98 220.41 336.99 219.83 330.03 218.92 C 325.80 218.32 321.40 219.09 317.28 217.79 Z" />
<path fill="#5a595a" opacity="1.00" d=" M 255.32 206.23 C 256.80 206.01 258.47 204.91 259.93 205.62 C 261.01 206.59 262.08 207.60 263.21 208.52 C 260.70 208.43 258.20 208.34 255.69 208.31 C 255.60 207.79 255.41 206.75 255.32 206.23 Z" />
<path fill="#181617" opacity="1.00" d=" M 259.93 205.62 C 262.64 205.59 265.34 206.03 267.97 206.69 C 269.19 207.36 270.44 207.98 271.69 208.62 C 271.65 209.10 271.57 210.07 271.53 210.55 C 268.59 210.77 265.68 210.15 263.21 208.52 C 262.08 207.60 261.01 206.59 259.93 205.62 Z" />
<path fill="#fd6363" opacity="1.00" d=" M 419.95 210.27 C 420.50 210.05 421.58 209.61 422.12 209.39 C 422.70 209.34 423.86 209.24 424.44 209.19 C 424.92 209.35 425.87 209.67 426.35 209.83 C 426.88 209.81 427.93 209.78 428.46 209.76 L 428.68 210.46 C 426.18 211.16 423.59 212.90 420.95 211.86 C 419.50 211.41 418.10 210.86 416.69 210.34 C 417.51 210.32 419.14 210.29 419.95 210.27 Z" />
<path fill="#ffffff" opacity="1.00" d=" M 209.43 243.54 C 204.35 235.14 207.59 224.95 207.49 215.77 C 210.18 217.74 212.71 219.91 215.19 222.14 C 221.54 227.27 227.38 233.27 234.74 236.97 C 240.26 239.37 245.97 241.56 252.01 242.16 C 258.05 242.68 264.14 242.31 270.15 241.58 C 270.38 246.73 270.22 251.88 270.30 257.04 C 270.26 258.83 270.49 260.92 269.09 262.32 C 264.38 266.45 258.22 268.91 251.98 269.29 C 243.92 267.61 236.99 262.91 229.84 259.08 C 222.67 254.48 214.94 250.17 209.43 243.54 Z" />
<path fill="#ffffff" opacity="1.00" d=" M 202.95 218.87 C 205.42 223.21 204.16 228.43 203.58 233.11 C 202.66 238.64 204.71 244.39 208.59 248.38 C 213.98 254.11 220.27 259.09 227.25 262.76 C 231.46 265.59 236.11 267.62 240.86 269.35 C 241.41 269.45 242.51 269.64 243.06 269.74 C 244.34 270.26 245.63 270.78 246.90 271.35 C 253.55 272.66 261.25 273.51 267.04 269.20 C 268.16 268.07 269.74 268.32 271.17 268.43 C 271.36 271.09 271.89 273.75 273.37 276.01 C 273.29 277.41 274.27 279.93 272.18 280.29 C 268.67 281.71 264.69 281.86 261.07 280.83 C 256.50 279.37 252.50 276.71 248.25 274.57 C 244.27 273.12 240.02 273.34 235.87 273.62 C 228.21 276.53 223.37 283.56 219.69 290.52 C 216.41 297.68 213.00 304.89 208.42 311.33 L 206.38 312.31 C 206.44 304.87 206.71 297.39 205.63 290.00 C 204.85 284.85 205.04 279.55 203.61 274.51 C 202.13 270.16 202.98 265.49 201.84 261.09 C 201.43 258.74 200.84 256.40 200.73 254.00 C 200.48 244.30 199.90 234.57 200.76 224.88 C 201.09 222.75 201.96 220.76 202.95 218.87 Z" />
<path fill="#181617" opacity="1.00" d=" M 215.73 220.23 C 219.24 224.88 223.63 228.85 229.00 231.24 C 241.03 238.10 255.43 239.76 269.06 239.33 C 269.26 238.92 269.66 238.11 269.86 237.70 C 269.96 238.99 270.05 240.28 270.15 241.58 C 264.14 242.31 258.05 242.68 252.01 242.16 C 245.97 241.56 240.26 239.37 234.74 236.97 C 227.38 233.27 221.54 227.27 215.19 222.14 C 215.33 221.66 215.60 220.71 215.73 220.23 Z" />
<path fill="#ffffff" opacity="1.00" d=" M 276.37 225.31 C 284.23 224.67 292.10 224.18 299.97 223.61 C 318.09 222.70 336.19 224.34 354.30 224.79 C 354.35 236.41 356.00 248.86 350.39 259.57 C 325.04 259.74 299.61 260.43 274.32 258.22 C 273.57 252.50 273.72 246.72 273.91 240.98 C 274.54 235.89 273.41 230.76 274.40 225.70 C 274.89 225.60 275.88 225.41 276.37 225.31 Z" />
<path fill="#ffffff" opacity="1.00" d=" M 190.72 236.37 C 191.89 236.33 193.07 236.31 194.25 236.30 C 194.38 237.54 194.52 238.78 194.67 240.03 C 196.52 242.68 196.18 246.01 197.23 248.94 C 198.99 255.50 197.94 262.37 199.23 269.00 C 199.88 291.86 198.88 314.74 199.53 337.60 C 199.59 339.40 199.75 341.20 200.09 342.98 C 200.27 345.37 200.42 347.76 200.62 350.15 C 199.64 350.63 198.67 351.13 197.71 351.65 C 189.24 358.30 179.48 362.98 170.12 368.22 C 169.20 368.55 168.29 368.90 167.39 369.25 C 162.40 371.73 157.47 374.37 152.17 376.16 C 148.97 377.41 145.94 379.13 142.59 380.00 C 142.47 378.64 142.34 377.28 142.22 375.92 C 141.26 371.99 141.38 367.82 139.77 364.05 C 139.21 362.01 138.68 359.96 137.85 358.01 C 136.27 352.22 134.31 346.54 132.23 340.91 C 131.83 339.90 131.45 338.89 131.11 337.87 L 130.87 337.09 C 130.59 335.69 130.31 334.30 129.89 332.95 C 127.76 323.06 127.72 312.75 129.71 302.84 C 130.39 301.23 131.07 299.61 131.75 298.00 C 133.17 298.34 134.58 298.71 135.99 299.12 C 140.45 299.42 144.50 301.58 148.95 301.92 C 150.60 302.38 152.26 302.81 153.90 303.31 C 155.95 303.30 158.00 303.29 160.06 303.28 C 160.72 303.03 162.05 302.53 162.71 302.28 C 162.72 300.41 162.65 298.55 162.53 296.69 C 159.47 291.97 154.53 289.04 150.90 284.85 C 149.42 283.30 150.28 280.93 151.39 279.45 C 155.97 272.18 163.34 267.50 170.10 262.49 C 173.01 260.41 176.10 258.37 178.27 255.47 C 179.44 251.95 180.45 248.37 182.15 245.06 C 184.81 241.98 187.73 239.14 190.72 236.37 Z" />
<path fill="#5c5a5a" opacity="1.00" d=" M 52.62 269.01 C 52.90 268.73 53.46 268.18 53.73 267.90 C 53.61 272.44 53.51 277.00 54.06 281.52 C 55.42 277.31 55.62 272.70 57.88 268.81 C 56.82 276.27 54.90 283.58 53.83 291.04 C 52.45 299.61 49.83 307.91 48.12 316.41 C 47.00 322.72 45.74 329.01 44.14 335.21 C 41.12 346.44 40.15 358.09 37.21 369.34 C 38.19 352.03 43.60 335.39 46.56 318.38 C 47.92 310.53 50.98 303.02 51.44 295.02 C 48.39 299.79 47.14 305.36 44.82 310.46 C 40.46 319.66 39.27 329.90 37.32 339.79 C 35.43 348.32 35.96 357.17 34.09 365.71 C 33.95 366.20 33.67 367.17 33.53 367.66 C 33.31 359.03 34.99 350.53 35.70 341.97 C 37.98 331.31 38.96 320.18 43.80 310.26 C 46.17 304.39 48.38 298.45 50.59 292.51 C 52.37 284.82 52.78 276.88 52.62 269.01 Z" />
<path fill="#676565" opacity="1.00" d=" M 203.61 274.51 C 205.04 279.55 204.85 284.85 205.63 290.00 C 206.71 297.39 206.44 304.87 206.38 312.31 L 208.42 311.33 C 208.20 312.89 207.25 313.66 205.59 313.62 C 205.03 310.10 205.54 306.53 205.41 303.00 C 204.85 293.50 203.68 284.02 203.61 274.51 Z" />
<path fill="#ffffff" opacity="1.00" d=" M 353.05 274.88 C 356.11 277.51 358.58 280.77 361.84 283.19 C 366.81 287.04 372.42 290.68 375.33 296.46 C 376.83 299.11 376.83 302.24 376.53 305.18 C 374.67 313.85 363.67 317.42 363.24 326.67 C 367.07 325.77 370.77 324.38 374.18 322.41 C 379.75 319.19 386.12 317.39 392.57 317.40 C 392.69 326.92 392.89 336.46 392.33 345.97 C 391.70 350.31 391.34 354.67 390.89 359.03 C 390.00 373.65 385.70 387.73 382.39 401.92 C 379.06 411.21 376.81 420.86 372.91 429.95 C 369.95 439.20 366.25 448.23 361.83 456.88 C 358.24 462.16 356.76 468.45 353.71 474.00 L 324.73 474.00 C 324.86 463.68 324.46 453.34 325.54 443.06 C 325.43 429.62 325.39 416.17 325.83 402.74 C 328.49 401.76 331.20 400.94 333.88 400.03 C 339.30 397.97 344.52 395.36 349.32 392.09 C 349.36 391.36 349.40 390.64 349.45 389.92 C 343.80 385.48 338.49 380.64 333.13 375.86 C 328.84 372.07 325.37 367.38 322.89 362.23 C 320.79 356.75 321.76 350.77 321.59 345.04 C 321.24 338.70 323.89 332.74 323.98 326.42 C 333.08 327.24 341.85 331.05 351.13 329.48 C 352.64 324.37 353.41 318.94 352.32 313.66 C 351.66 309.07 348.53 305.33 344.35 303.48 C 343.61 303.50 342.12 303.54 341.37 303.56 C 341.44 303.20 341.58 302.48 341.65 302.12 C 344.30 299.62 345.95 296.36 347.23 292.99 C 347.42 292.00 347.62 291.02 347.83 290.04 C 348.63 288.05 349.29 286.01 349.93 283.97 C 351.03 280.96 352.00 277.91 353.05 274.88 M 360.17 353.09 C 359.42 355.18 361.78 354.96 363.11 355.24 C 367.05 356.81 370.94 358.64 375.15 359.39 C 375.32 358.83 375.67 357.72 375.84 357.17 C 373.98 357.34 372.14 357.62 370.27 357.64 C 371.26 357.09 372.26 356.56 373.27 356.04 C 371.40 355.09 369.63 354.02 367.69 353.26 L 367.80 352.62 C 365.44 352.22 361.35 349.66 360.17 353.09 Z" />
<path fill="#ffffff" opacity="1.00" d=" M 284.96 279.82 C 289.75 279.74 294.25 277.68 299.05 277.69 C 303.72 277.65 308.40 277.53 313.07 277.82 C 316.80 278.35 320.43 279.36 324.17 279.83 C 327.39 283.42 328.19 288.66 327.47 293.37 C 315.28 293.20 303.08 293.17 290.90 293.71 C 287.62 294.70 284.26 295.37 280.87 295.75 C 278.13 296.95 275.24 297.70 272.43 298.70 C 271.13 299.10 269.82 299.47 268.52 299.85 C 268.51 300.26 268.49 301.08 268.47 301.49 C 277.98 301.51 287.50 301.08 296.98 301.94 L 297.95 302.10 C 302.81 304.03 308.19 303.10 313.10 304.86 C 320.34 305.92 327.73 305.98 334.96 307.22 C 338.34 307.53 341.89 306.82 345.18 307.75 C 349.14 312.33 350.19 319.07 348.60 324.84 C 346.38 324.60 344.15 324.41 341.94 324.20 C 334.07 322.79 325.91 323.42 318.05 321.79 C 313.01 321.51 307.95 321.48 302.90 321.76 C 298.39 323.01 293.61 322.89 289.11 324.16 C 287.38 324.68 285.65 325.21 283.92 325.70 C 281.68 326.87 279.52 328.21 277.91 330.20 C 279.21 330.88 280.52 331.54 281.84 332.20 L 282.67 332.47 C 290.03 334.82 297.84 332.31 305.38 332.40 C 305.12 337.42 306.02 342.57 304.84 347.50 C 297.31 347.85 289.79 346.03 282.33 347.48 C 282.31 348.00 282.28 349.05 282.26 349.57 C 285.47 350.34 288.76 350.63 292.06 350.77 C 297.53 351.09 302.80 353.70 305.38 358.71 C 305.26 361.37 306.12 364.37 304.89 366.82 C 302.91 367.36 300.85 367.47 298.91 368.12 C 295.54 368.47 292.17 368.91 288.98 370.08 C 285.50 371.03 282.15 372.41 279.07 374.28 C 273.84 375.14 269.64 378.67 265.11 381.15 C 251.62 389.26 240.39 400.42 228.33 410.41 C 218.82 410.30 209.30 410.48 199.79 410.34 C 195.01 407.97 192.72 402.76 190.89 398.03 C 189.19 390.81 188.50 383.33 189.77 375.97 C 190.52 371.39 191.78 366.95 192.76 362.43 C 193.44 361.54 194.12 360.66 194.81 359.78 C 210.05 348.60 224.71 335.76 234.14 319.13 C 238.78 312.07 240.96 303.80 243.87 295.96 C 257.34 290.05 270.53 283.19 284.96 279.82 Z" />
<path fill="#060505" opacity="1.00" d=" M 430.31 281.46 C 432.76 280.52 435.35 279.96 437.99 280.15 C 443.29 280.38 448.60 280.20 453.91 280.24 C 467.92 284.89 479.30 296.17 485.42 309.46 C 487.51 315.72 488.65 322.36 488.49 328.97 C 488.34 336.68 489.70 344.30 489.81 352.00 C 490.12 358.16 491.39 364.15 492.74 370.15 C 494.51 374.91 497.88 379.92 495.30 385.08 C 490.35 379.06 486.59 371.83 485.95 363.96 C 484.29 346.89 487.70 329.28 482.75 312.60 C 478.94 299.63 467.37 290.38 454.84 286.42 C 446.88 283.92 438.69 281.68 430.31 281.46 Z" />
<path fill="#ffffff" opacity="1.00" d=" M 221.45 297.51 C 223.79 295.00 225.58 291.38 229.11 290.46 C 235.15 293.21 232.17 301.62 236.41 305.80 C 236.39 306.93 236.37 308.06 236.35 309.20 C 231.43 316.90 226.94 324.97 220.54 331.60 C 215.83 337.09 210.43 341.96 204.91 346.63 C 204.52 346.34 203.74 345.76 203.35 345.47 C 204.12 344.07 204.47 342.58 204.39 341.01 C 204.57 334.03 204.01 327.02 204.51 320.06 C 211.40 313.53 215.88 305.09 221.45 297.51 Z" />
<path fill="#030303" opacity="1.00" d=" M 44.82 310.46 C 47.14 305.36 48.39 299.79 51.44 295.02 C 50.98 303.02 47.92 310.53 46.56 318.38 C 43.60 335.39 38.19 352.03 37.21 369.34 L 37.04 370.08 L 36.70 371.50 C 35.60 369.68 34.72 367.74 34.09 365.71 C 35.96 357.17 35.43 348.32 37.32 339.79 C 39.27 329.90 40.46 319.66 44.82 310.46 Z" />
<path fill="#dcdcdc" opacity="1.00" d=" M 141.72 295.84 C 146.86 297.32 152.26 299.34 157.57 297.41 C 158.03 298.05 158.46 298.71 158.90 299.38 C 152.97 299.90 146.74 299.32 141.72 295.84 Z" />
<path fill="#242223" opacity="1.00" d=" M 268.52 299.85 C 269.82 299.47 271.13 299.10 272.43 298.70 C 276.75 300.54 281.49 299.39 286.01 299.93 C 289.71 300.33 293.38 300.99 296.98 301.94 C 287.50 301.08 277.98 301.51 268.47 301.49 C 268.49 301.08 268.51 300.26 268.52 299.85 Z" />
<path fill="#363435" opacity="1.00" d=" M 352.32 313.66 C 353.41 318.94 352.64 324.37 351.13 329.48 C 341.85 331.05 333.08 327.24 323.98 326.42 C 323.89 332.74 321.24 338.70 321.59 345.04 C 321.76 350.77 320.79 356.75 322.89 362.23 C 322.17 362.04 320.74 361.66 320.02 361.47 L 319.45 361.25 C 319.18 354.15 319.18 347.04 319.36 339.94 C 319.42 335.39 321.06 331.01 320.85 326.43 C 316.42 326.69 311.99 326.33 307.56 326.31 C 312.16 324.87 316.98 325.32 321.69 325.78 C 321.98 327.53 322.26 329.29 322.55 331.05 C 322.82 329.26 323.09 327.47 323.37 325.69 C 332.60 325.48 341.25 330.29 350.58 328.80 C 351.10 323.74 351.62 318.69 352.32 313.66 Z" />
<path fill="#ffffff" opacity="1.00" d=" M 300.32 326.59 C 302.73 326.50 305.15 326.45 307.56 326.31 C 311.99 326.33 316.42 326.69 320.85 326.43 C 321.06 331.01 319.42 335.39 319.36 339.94 C 319.18 347.04 319.18 354.15 319.45 361.25 L 320.02 361.47 C 322.90 370.40 329.89 377.15 337.11 382.77 C 340.24 385.09 342.92 388.33 346.91 389.19 C 346.19 390.48 345.73 392.16 344.06 392.52 C 338.12 394.94 331.95 396.79 325.78 398.51 C 319.84 399.55 313.79 400.12 307.77 399.56 C 301.16 398.71 294.66 396.09 290.08 391.12 C 296.14 385.48 302.11 379.57 306.42 372.44 C 308.62 368.65 309.75 364.28 309.52 359.90 C 308.18 357.02 306.46 354.35 304.33 351.99 C 306.51 351.02 308.83 349.71 309.38 347.16 C 310.05 341.40 309.48 335.58 309.67 329.79 C 308.82 328.99 307.98 328.20 307.14 327.41 C 304.86 327.39 302.59 327.39 300.32 327.40 C 300.32 327.20 300.32 326.79 300.32 326.59 Z" />
<path fill="#a9a8a8" opacity="1.00" d=" M 282.67 332.47 C 286.46 332.44 290.26 332.65 294.04 332.17 C 297.79 331.75 301.74 330.97 305.38 332.40 C 297.84 332.31 290.03 334.82 282.67 332.47 Z" />
<path fill="#676565" opacity="1.00" d=" M 102.61 363.08 C 102.56 358.25 99.84 353.40 101.83 348.67 C 102.73 349.88 103.63 351.12 104.43 352.41 L 102.23 352.20 C 103.70 365.57 106.39 378.99 105.07 392.49 C 104.90 394.00 103.26 394.52 102.20 395.30 C 103.32 393.72 104.04 391.88 104.12 389.93 C 104.97 380.95 103.13 372.02 102.61 363.08 Z" />
<path fill="#3a3738" opacity="1.00" d=" M 451.64 362.89 C 452.58 358.60 452.12 353.69 454.91 350.03 C 456.86 351.38 456.36 353.97 456.59 356.01 C 456.50 364.04 458.00 372.04 457.05 380.06 C 456.05 388.80 457.41 397.73 455.63 406.38 C 454.65 397.57 456.76 388.82 456.17 380.00 C 455.64 371.77 457.26 363.32 454.90 355.27 C 452.54 359.12 452.90 363.78 451.95 368.05 C 451.00 372.50 451.15 377.12 449.91 381.53 C 449.96 375.28 450.17 368.99 451.64 362.89 Z" />
<path fill="#838182" opacity="1.00" d=" M 360.17 353.09 C 361.35 349.66 365.44 352.22 367.80 352.62 L 367.69 353.26 C 365.43 352.78 363.14 352.49 360.85 352.24 C 361.42 352.99 362.54 354.49 363.11 355.24 C 361.78 354.96 359.42 355.18 360.17 353.09 Z" />
<path fill="#1d1b1c" opacity="1.00" d=" M 360.85 352.24 C 363.14 352.49 365.43 352.78 367.69 353.26 C 369.63 354.02 371.40 355.09 373.27 356.04 C 372.26 356.56 371.26 357.09 370.27 357.64 C 372.14 357.62 373.98 357.34 375.84 357.17 C 375.67 357.72 375.32 358.83 375.15 359.39 C 370.94 358.64 367.05 356.81 363.11 355.24 C 362.54 354.49 361.42 352.99 360.85 352.24 Z" />
<path fill="#040303" opacity="1.00" d=" M 451.95 368.05 C 452.90 363.78 452.54 359.12 454.90 355.27 C 457.26 363.32 455.64 371.77 456.17 380.00 C 456.76 388.82 454.65 397.57 455.63 406.38 C 454.92 428.92 454.40 451.66 457.97 474.00 L 453.51 474.00 C 449.41 456.27 451.06 437.94 449.60 419.95 C 449.41 407.29 449.03 394.59 449.83 381.95 L 449.91 381.53 C 451.15 377.12 451.00 372.50 451.95 368.05 Z" />
<path fill="#161415" opacity="1.00" d=" M 320.02 361.47 C 320.74 361.66 322.17 362.04 322.89 362.23 C 325.37 367.38 328.84 372.07 333.13 375.86 C 338.49 380.64 343.80 385.48 349.45 389.92 C 349.40 390.64 349.36 391.36 349.32 392.09 C 344.52 395.36 339.30 397.97 333.88 400.03 C 331.18 399.51 328.49 398.95 325.78 398.51 C 331.95 396.79 338.12 394.94 344.06 392.52 C 345.73 392.16 346.19 390.48 346.91 389.19 C 342.92 388.33 340.24 385.09 337.11 382.77 C 329.89 377.15 322.90 370.40 320.02 361.47 Z" />
<path fill="#ffffff" opacity="1.00" d=" M 168.98 371.69 C 175.33 368.57 181.74 365.58 187.88 362.05 C 186.08 372.59 185.73 383.32 186.49 393.99 C 187.49 400.78 190.63 407.44 195.84 412.01 C 202.43 417.16 211.47 417.48 219.28 415.41 C 217.50 420.17 213.19 423.26 209.67 426.69 C 191.34 443.48 167.59 452.02 145.74 463.03 C 145.01 460.40 144.22 457.74 142.59 455.52 C 141.07 453.10 138.42 450.74 139.58 447.60 C 142.12 442.97 142.71 437.63 144.61 432.76 C 147.88 424.16 150.52 415.35 154.11 406.88 C 156.10 399.74 159.67 393.23 162.28 386.34 C 164.33 381.37 167.17 376.76 168.98 371.69 Z" />
<path fill="#272626" opacity="1.00" d=" M 33.53 367.66 C 33.67 367.17 33.95 366.20 34.09 365.71 C 34.72 367.74 35.60 369.68 36.70 371.50 C 36.09 374.92 35.86 378.39 35.36 381.83 C 33.88 389.58 33.99 397.54 32.50 405.30 C 32.09 401.40 31.52 397.53 30.87 393.68 C 31.80 385.02 33.10 376.37 33.53 367.66 Z" />
<path fill="#ffffff" opacity="1.00" d=" M 279.92 374.62 C 286.46 374.87 293.02 374.50 299.56 374.77 C 297.02 381.60 289.23 383.72 285.62 389.64 C 289.21 397.05 296.99 401.94 305.11 402.67 C 310.14 403.53 315.25 403.57 320.31 403.01 C 322.03 403.58 321.05 405.69 321.33 407.02 C 320.75 429.35 319.73 451.67 319.15 474.00 L 261.50 474.00 C 262.13 470.69 262.92 467.41 263.50 464.09 C 265.10 452.94 268.70 442.20 270.15 431.03 C 271.33 424.05 271.74 416.95 273.15 410.02 C 274.01 402.03 273.73 393.98 273.75 385.96 C 273.21 381.20 278.28 378.68 279.92 374.62 Z" />
<path fill="#363435" opacity="1.00" d=" M 148.24 415.32 C 151.36 407.32 152.54 398.83 154.60 390.55 C 155.44 396.09 151.53 401.53 154.11 406.88 C 150.52 415.35 147.88 424.16 144.61 432.76 C 142.71 437.63 142.12 442.97 139.58 447.60 C 140.90 437.49 145.52 428.25 148.67 418.65 C 148.21 418.36 147.29 417.77 146.83 417.48 C 147.30 416.76 147.77 416.04 148.24 415.32 Z" />
<path fill="#080607" opacity="1.00" d=" M 29.91 396.97 C 30.24 395.87 30.56 394.77 30.87 393.68 C 31.52 397.53 32.09 401.40 32.50 405.30 C 32.29 407.60 31.94 409.90 31.55 412.19 C 24.91 418.01 21.19 426.42 19.34 434.91 C 18.91 434.79 18.06 434.53 17.63 434.40 C 17.62 431.56 17.63 428.73 17.68 425.90 C 24.26 417.53 28.43 407.50 29.91 396.97 Z" />
<path fill="#000000" opacity="1.00" d=" M 307.77 399.56 C 313.79 400.12 319.84 399.55 325.78 398.51 C 328.49 398.95 331.18 399.51 333.88 400.03 C 331.20 400.94 328.49 401.76 325.83 402.74 C 325.39 416.17 325.43 429.62 325.54 443.06 C 324.46 453.34 324.86 463.68 324.73 474.00 L 319.15 474.00 C 319.73 451.67 320.75 429.35 321.33 407.02 C 321.05 405.69 322.03 403.58 320.31 403.01 C 315.25 403.57 310.14 403.53 305.11 402.67 C 307.49 401.60 310.06 401.07 312.63 400.70 C 311.01 400.32 309.39 399.91 307.77 399.56 Z" />
<path fill="#ffffff" opacity="1.00" d=" M 185.55 462.60 C 193.80 453.55 202.95 444.68 207.21 432.90 C 208.19 436.52 208.59 440.25 208.59 443.99 C 208.58 450.01 208.79 456.18 206.90 461.98 C 206.09 466.16 204.66 470.20 202.73 474.00 L 176.31 474.00 C 179.42 470.22 182.17 466.15 185.55 462.60 Z" />
<path fill="#ffffff" opacity="1.00" d=" M 165.75 456.93 C 172.86 452.78 180.76 450.14 188.70 448.09 C 187.41 459.09 178.33 466.58 171.05 474.00 L 137.33 474.00 C 137.46 468.33 137.11 462.65 137.61 457.00 C 141.98 459.35 141.80 464.60 142.59 468.86 C 150.68 465.60 158.01 460.88 165.75 456.93 Z" />
</svg>
