<?xml version="1.0" encoding="utf-8"?> <!-- Generator: Adobe Illustrator 14.0.0, SVG Export Plug-In . SVG Version: 6.00 Build 43363) --> <!DOCTYPE svg PUBLIC "-//W3C//DTD SVG 1.0//EN" "http://www.w3.org/TR/2001/REC-SVG-20010904/DTD/svg10.dtd"> <svg version="1.0" xmlns="http://www.w3.org/2000/svg" xmlns:xlink="http://www.w3.org/1999/xlink" x="0px" y="0px" width="500px" height="500px" viewBox="0 0 500 500" enable-background="new 0 0 500 500" xml:space="preserve">
<g id="What_x3F_">
	<g>
		<g id="XMLID_17_">
			<g>
				<path fill="#FFFFFF" d="M392.46,216.5c8.48,10.85,13.4,25.26,11.99,46c-7.63-22.37-14.55-45.44-22.99-66.99
					c3.41,0.94,5.84,11.47,11,14C392.46,211.84,392.46,214.17,392.46,216.5z"/>
				<path fill="#FFFFFF" d="M349.46,129.52c2.64,14.69,18.53,16.13,17,34.99c-8.59-4.07-6.56-18.77-17-21l-1-1
					C349.1,138.49,347.16,131.88,349.46,129.52z"/>
				<path fill="#FFFFFF" d="M80.49,352.49c3.51,13.27,8.17,24.3,8,35.99c-3.53-11.79-10.26-20.391-15.99-29.99
					c1.33-14.34-6.03-19.971-4-35c-0.83-3.471-1.48-7.48-1.97-11.9l0.97-0.1c8.98,7.529,4.95,19.779,8,31
					C76.4,345.83,79.46,348.57,80.49,352.49z"/>
				<path fill="#FFFFFF" d="M270.47,93.52c-0.899,1.77-2.41,2.92-3,5c-2.21-0.12-0.42-4.24-1-6
					C268.56,92.1,269.12,93.21,270.47,93.52z"/>
				<path fill="#FFFFFF" d="M261.47,82.52c1.53,0.02,2.19,7.41-1,6C260.34,86.06,260.32,83.7,261.47,82.52z"/>
				<path fill="#FFFFFF" d="M262.47,92.52c0,4,0,8,0,12c-3.14,0.86-4.22,3.78-8,4c-0.43-7.1,3.851-9.49,4-16
					C259.81,92.52,261.14,92.52,262.47,92.52z"/>
				<path fill="#FFFFFF" d="M261.47,122.52c3.98,7.66-4.05,11.93-6,16.99C254.38,138.52,260.57,128.12,261.47,122.52z"/>
				<path fill="#FFFFFF" d="M246.47,126.52c2.04,1.77-1.51,6.42-2,9C241.37,132.67,244.92,128.02,246.47,126.52z"/>
				<path fill="#FFFFFF" d="M247.47,107.52c3.28,1.93,0.3,14.06-3,16C241.61,118.29,247.13,112.87,247.47,107.52z"/>
				<path fill="#FFFFFF" d="M260.47,110.52c-0.17,9.17-8.02,19.3-10,29.99C250.61,131.31,251.8,114.52,260.47,110.52z"/>
				<path fill="#FFFFFF" d="M237.48,138.51c0.87,2.06-2.23,16.98-6,21C230.17,153.19,234.97,144.35,237.48,138.51z"/>
				<path fill="#FFFFFF" d="M238.48,154.51c2.59,6.28,0.5,16.49-1,22c-1.4-3.93-3.58-7.09-7-9
					C234.51,164.54,237.18,160.21,238.48,154.51z"/>
				<path d="M414.45,346.49c4.52,3.479,0.78,15.22,2,22c-4.73,9.93-5.49,23.83-14,29.99c0,2,0,4,0,6
					c-6.12,9.149-8.45,20.399-12.99,31c-1.96,4.569-4.2,11.38-9,13c-4.89-3.011,6.7-10.44,1-15c9.43-14.23,12.51-34.82,20-51
					c0.19-4.141,5.28-3.381,5.99-6.99c-3.66-31.67,2.25-72.91-6.99-98.99c0-3.34,0-6.67,0-10c-4.79-12.88-5.97-29.36-14-39
					c-3.34-36.32-26.17-58.48-37-83.99c10.44,2.23,8.41,16.93,17,21c1.53-18.86-14.36-20.3-17-34.99c-2.3,2.36-0.36,8.97-1,12.99
					c-5.87-9.79-4.18-27.14-17-29.99c-0.3-2.64,1.39-3.28,4-3c-8.12-13.88-21.56-22.43-34.99-31c-6.59,2.75-9.14,9.53-16,12
					c2.65,3.69,12.4,0.27,13,6c-6.399,3.46-12.59-3.06-20-1c-13.779,3.84-7.56,20.54-11,35c-1.81,7.63-12.77,13.5-17,21.99
					c-5.25,10.56-3.16,21.05-4,32c-4.83,1.09-11.23,5.08-16.99,2c-0.46-3.13,2.13-3.2,5-3c0.96-9.57-6.7-11.36-8-18
					c-3.18-16.17,11.26-30.2,14-46.99c0.93-5.73-1.51-10.74,0.99-17c4.12,1.79,2.79,3.07,9,2c2.91-2.43,3.14-7.53,5-11
					c-27.11-3.08-58.13-8.83-84.99-1c-4.08,4.25-8.61,8.05-14.99,10c-6.08,14.25-19.13,21.54-27,34
					c12.63,12.69,43.86,6.79,52.99,22.99c-4.04,1.63-7.52,3.82-14,3c7.5,13.17,23.58,26.42,36,38c-1.62,1.5-7.38,1.5-9,0
					c-1.55,8.54,6.77,7.23,9,12c-1.66,1.67-5.87,0.79-9,1c-3.41-6.92-5.51-15.16-9-22c-11.57-3.76-19.21-11.45-36.99-9
					c-11.48,10.19-31.03,12.3-31,33.99c-2.61,3.73-5.03,7.64-4,15c-0.48,3.15,4.58,0.75,5,3c-1.39,25.92,8.48,48.71,42.99,42
					c18.86-17.12,38.89-33.05,44.33-63.59c0.26-1.43,0.48-2.9,0.67-4.4c0.76-3.76-5.31-0.69-4-5c1.29-1.38,4.34-0.99,7-1
					c3.36,15.48-2.47,28.68-9,37.99c-10.41,14.85-22.41,29.09-36,40c-35.6,4.93-51.35-9.98-49.99-42c-1.28-1.71-3.99-2.01-5-4
					c-1.49-15.82,5.63-23.03,7-35.99c9.27-4.07,13.25-13.41,25-15c2.32-0.68,1.46-4.54,4-5c14.2-0.87,26.35,0.31,33.99,6
					c-15.18-17.14-27.41-37.25-58.99-38c-9.91,15.75-24.87,26.46-35,42c0.61,21.94-4.54,38.11-11.99,51.99
					c0.75,24.09-1.23,45.44-1,68.99c8.11,8.3,5.25,20.29,8,31c3.92,15.34,14.35,30.64,13.99,52.99c7.66,6.67,15.47,13.199,18,25
					c8.56,7.439,22.29,9.71,30,18c6.24,0.76,12.05,1.939,12,9c-9.99-1.091-18.16-12.461-31-14c-3.31-4.69-9.68-6.32-14-10
					c-1.84-5.49-4.98-9.69-7-15c-3.47-1.53-5.86-4.131-8-7c-0.49,21.17,9.34,37.319,14,50c-8.31,0.979-4.98-9.69-11-11
					c-2.57-13.761-8.12-24.54-7-42c-9.38-8.95-11.55-25.101-20.99-33.99c-8.73-43.36-8.31-108.54-6-157.98c5.5,6.34,3,17.31,3,25.99
					c0,7.49-0.16,16.1-0.3,25.13c-0.29,19.49-0.47,40.88,1.33,56.96c0.49,4.42,1.14,8.43,1.97,11.9c-2.03,15.029,5.33,20.66,4,35
					c5.73,9.6,12.46,18.2,15.99,29.99c0.17-11.69-4.49-22.721-8-35.99c-1.03-3.92-4.09-6.66-4.99-10c-3.05-11.221,0.98-23.471-8-31
					c2.72-17.42-0.84-37.94-0.53-56.84c0.09-5.561,0.51-10.99,1.53-16.15c2.62-13.29,16.25-27.44,8-36.99
					c-2.77,2.56,0.69,11.36-2,13.99c-8.99-9.55,2.39-23.18,5.99-29.99c1.58-7.76-3.4-22.07,3-25c2.11,3.9,0.51,11.5,1,17
					c8.75-7.26,16.97-23.69,26-34c-7.5-3.68-18.98,2.15-26-1c2.73-11.01,24.22-0.41,32-4c-2.29-2.7-10.16,0.17-10-4.99
					c3.49-2.26,10.27-0.68,13,1c5.23-9.44,18.08-11.26,19-25c11.25-5.09,15.94-16.73,25.99-23c30.23-5.78,57.56-19.34,91.99-23
					c15.7-1.66,30.11,0.08,40,6c4.19-0.81,12.07-2.13,16,0c0.92,5.26-7.2,1.47-9,4c25.061,15.27,39.33,41.32,59.99,61
					c-1.52,8.18,4.03,9.29,6,13.99c1.58,27.08,14.66,42.67,27,59c0,2.33,0,4.66,0,6.99c16.95,14.62,9.2,47.86,12.99,79
					c2.49,20.43-1.44,51.61,2,74.99C415.01,363.71,409.26,349.63,414.45,346.49z M404.45,262.5c1.41-20.74-3.51-35.15-11.99-46
					c0-2.33,0-4.66,0-6.99c-5.16-2.53-7.59-13.06-11-14C389.9,217.06,396.82,240.13,404.45,262.5z M280.47,88.52
					c5.12-4.54,12.32-7.01,15-14C288.75,76.82,280.79,83.16,280.47,88.52z M273.47,89.52c3.16-8.84,10.721-13.28,17-19
					c-7.14-1.2-16.75-5.23-25-2c2.32,4.68,0.351,13.66,1,20C269.72,87.94,271.12,89.2,273.47,89.52z M267.47,98.52
					c0.59-2.08,2.101-3.23,3-5c-1.35-0.31-1.91-1.42-4-1C267.05,94.28,265.26,98.4,267.47,98.52z M262.47,104.52c0-4,0-8,0-12
					c-1.33,0-2.66,0-4,0c-0.149,6.51-4.43,8.9-4,16C258.25,108.3,259.33,105.38,262.47,104.52z M255.47,139.51
					c1.95-5.06,9.98-9.33,6-16.99C260.57,128.12,254.38,138.52,255.47,139.51z M260.47,88.52c3.19,1.41,2.53-5.98,1-6
					C260.32,83.7,260.34,86.06,260.47,88.52z M255.47,88.52c1.79-7.87,5.12-14.21,8-21c-22.6,5.06-49.4,5.93-66.99,16
					C220.69,80.64,234.21,88.45,255.47,88.52z M250.47,140.51c1.98-10.69,9.83-20.82,10-29.99
					C251.8,114.52,250.61,131.31,250.47,140.51z M244.47,123.52c3.3-1.94,6.28-14.07,3-16
					C247.13,112.87,241.61,118.29,244.47,123.52z M244.47,135.52c0.49-2.58,4.04-7.23,2-9
					C244.92,128.02,241.37,132.67,244.47,135.52z M237.48,176.51c1.5-5.51,3.59-15.72,1-22c-1.3,5.7-3.97,10.03-8,13
					C233.9,169.42,236.08,172.58,237.48,176.51z M231.48,159.51c3.77-4.02,6.87-18.94,6-21
					C234.97,144.35,230.17,153.19,231.48,159.51z M155.49,151.51c5.6,0.85,12.12,9.91,17.99,4
					C169.59,153.22,155.78,150.81,155.49,151.51z"/>
				<path fill="#FFFFFF" d="M400.46,276.5c9.24,26.08,3.33,67.32,6.99,98.99c-0.71,3.609-5.8,2.85-5.99,6.99
					c-7.49,16.18-10.57,36.77-20,51c5.7,4.56-5.89,11.989-1,15c-80.55,58.47-226.97-4-226.97-4c0.05-7.061-5.76-8.24-12-9
					c-7.71-8.29-21.44-10.561-30-18c-2.53-11.801-10.34-18.33-18-25c0.36-22.351-10.07-37.65-13.99-52.99
					c-2.75-10.71,0.11-22.7-8-31c-0.23-23.55,1.75-44.9,1-68.99c7.45-13.88,12.6-30.05,11.99-51.99c10.13-15.54,25.09-26.25,35-42
					c31.58,0.75,43.81,20.86,58.99,38c-7.64-5.69-19.79-6.87-33.99-6c-2.54,0.46-1.68,4.32-4,5c-11.75,1.59-15.73,10.93-25,15
					c-1.37,12.96-8.49,20.17-7,35.99c1.01,1.99,3.72,2.29,5,4c-1.36,32.02,14.39,46.93,49.99,42c13.59-10.91,25.59-25.15,36-40
					c6.53-9.31,12.36-22.51,9-37.99c-2.66,0.01-5.71-0.38-7,1c-1.31,4.31,4.76,1.24,4,5c-0.19,1.5-0.41,2.97-0.67,4.4l-2.33-0.4
					c-2.23-4.77-10.55-3.46-9-12c1.62,1.5,7.38,1.5,9,0c-12.42-11.58-28.5-24.83-36-38c6.48,0.82,9.96-1.37,14-3
					c-9.13-16.2-40.36-10.3-52.99-22.99c7.87-12.46,20.92-19.75,27-34c6.38-1.95,10.91-5.75,14.99-10c26.86-7.83,57.88-2.08,84.99,1
					c-1.859,3.47-2.09,8.57-5,11c-6.21,1.07-4.88-0.21-9-2c-2.5,6.26-0.06,11.27-0.99,17c-2.74,16.79-17.18,30.82-14,46.99
					c1.3,6.64,8.96,8.43,8,18c-2.87-0.2-5.46-0.13-5,3c5.76,3.08,12.16-0.91,16.99-2c0.84-10.95-1.25-21.44,4-32
					c4.23-8.49,15.19-14.36,17-21.99c3.44-14.46-2.779-31.16,11-35c7.41-2.06,13.601,4.46,20,1c-0.6-5.73-10.35-2.31-13-6
					c6.86-2.47,9.41-9.25,16-12c13.431,8.57,26.87,17.12,34.99,31c-2.61-0.28-4.3,0.36-4,3c12.82,2.85,11.13,20.2,17,29.99l1,1
					c10.83,25.51,33.66,47.67,37,83.99c8.03,9.64,9.21,26.12,14,39C400.46,269.83,400.46,273.16,400.46,276.5z M366.46,217.5
					c0-6.99,0-13.99,0-20.99c-1.6-3.74-6.22-4.45-7-9c-0.18-15.15-12.04-18.62-15-31c-2.76-1.57-5.87-2.79-9-4
					c-4.21-13.12-13.85-20.81-24.99-26.99c-10.05,0.37-28.72-2.86-24,9l1.391,1.92c-7.641,5.58-12.78,15.13-21.391,19.07
					c-6.46,11.87-15.16,21.5-13,42c9.23,6.77,13.36,18.63,20,27.99c17.141,10.86,38.221,17.78,68.99,15
					C353.09,235.46,361.75,228.46,366.46,217.5z M234.48,346.49c15.57,4.939,38,0.229,35.99-19
					C262.35,318.91,238.44,341.57,234.48,346.49z"/>
				<path d="M366.46,196.51c0,7,0,14,0,20.99c-4.71,10.96-13.37,17.96-24,23c-30.77,2.78-51.85-4.14-68.99-15
					c-6.64-9.36-10.77-21.22-20-27.99c-2.16-20.5,6.54-30.13,13-42c8.61-3.94,13.75-13.49,21.391-19.07
					c4.35-3.18,9.52-5.07,16.609-3.92c-3.1,4.66-8.13,3.75-12,5.99c-8.67,5.03-12.649,15.07-22,19c-5.33,11-13.989,18.68-13,36
					c10.04,12.95,17.65,28.34,32,36.99c14.88,4.12,30.3,7.7,50.99,6c15.65-2.61,33.04-32.49,15-44.99c1.39-16.39-11.52-18.48-14-31
					c-2.3-2.36-6.13-3.2-9-5c-4.26-15.62-28.66-36.61-45.99-20.99c-4.72-11.86,13.95-8.63,24-9c11.141,6.18,20.78,13.87,24.99,26.99
					c3.13,1.21,6.24,2.43,9,4c2.96,12.38,14.82,15.85,15,31C360.24,192.06,364.86,192.77,366.46,196.51z"/>
				<path fill="#FFFFFF" d="M355.46,191.51c18.04,12.5,0.65,42.38-15,44.99c-20.69,1.7-36.11-1.88-50.99-6
					c-14.35-8.65-21.96-24.04-32-36.99c-0.989-17.32,7.67-25,13-36c9.351-3.93,13.33-13.97,22-19c3.87-2.24,8.9-1.33,12-5.99
					c-7.09-1.15-12.26,0.74-16.609,3.92l-1.391-1.92c17.33-15.62,41.73,5.37,45.99,20.99c2.87,1.8,6.7,2.64,9,5
					C343.94,173.03,356.85,175.12,355.46,191.51z M347.46,176.51c-1.28-0.05-1.38-1.28-3-1c-10.05,20.61-30.43,30.89-60.99,31
					c5.75,5.38,18.87,3.11,25,2C326.63,205.19,342.77,191.56,347.46,176.51z M337.46,164.51c-5.16-1.81-9.66,2.69-16,4
					c-7.32,1.52-16.44,0.09-21.99,2c-2.46,0.85-5.27,4.76-9,7c-8.1,4.86-15.34,10.08-17,19c7.2,2.01,8.24-10.29,14-13
					c6.011-0.62,8-6.85,15-9C314.19,170.91,331.96,175.57,337.46,164.51z M326.46,190.51c0-2.33,0-4.67,0-7
					c-5.15-5.89-17.15-3.85-21.99,1C305.33,194.98,319.06,195.55,326.46,190.51z"/>
				<path d="M344.46,175.51c1.62-0.28,1.72,0.95,3,1c-4.69,15.05-20.83,28.68-38.99,32c-6.13,1.11-19.25,3.38-25-2
					C314.03,206.4,334.41,196.12,344.46,175.51z"/>
				<path d="M321.46,168.51c6.34-1.31,10.84-5.81,16-4c-5.5,11.06-23.27,6.4-34.99,10c-7,2.15-8.989,8.38-15,9
					c-5.76,2.71-6.8,15.01-14,13c1.66-8.92,8.9-14.14,17-19c3.73-2.24,6.54-6.15,9-7C305.02,168.6,314.14,170.03,321.46,168.51z"/>
				<path d="M326.46,183.51c0,2.33,0,4.67,0,7c-7.4,5.04-21.13,4.47-21.99-6C309.31,179.66,321.31,177.62,326.46,183.51z"/>
				<path fill="#FFFFFF" d="M295.47,74.52c-2.68,6.99-9.88,9.46-15,14C280.79,83.16,288.75,76.82,295.47,74.52z"/>
				<path fill="#FFFFFF" d="M290.47,70.52c-6.279,5.72-13.84,10.16-17,19c-2.35-0.32-3.75-1.58-7-1c-0.649-6.34,1.32-15.32-1-20
					C273.72,65.29,283.33,69.32,290.47,70.52z"/>
				<path d="M270.47,327.49c2.011,19.229-20.42,23.939-35.99,19C238.44,341.57,262.35,318.91,270.47,327.49z M266.47,335.49
					c-0.17-2.83,0.86-6.86-2-7c-5.939,6.729-16.46,8.87-22,16C254.64,345.66,259.33,339.35,266.47,335.49z"/>
				<path fill="#FFFFFF" d="M264.47,328.49c2.86,0.14,1.83,4.17,2,7c-7.14,3.859-11.83,10.17-24,9
					C248.01,337.36,258.53,335.22,264.47,328.49z"/>
				<path fill="#FFFFFF" d="M263.47,67.52c-2.88,6.79-6.21,13.13-8,21c-21.26-0.07-34.78-7.88-58.99-5
					C214.07,73.45,240.87,72.58,263.47,67.52z"/>
				<path fill="#FFFFFF" d="M202.48,211.51l2.33,0.4c-5.44,30.54-25.47,46.47-44.33,63.59c-34.51,6.71-44.38-16.08-42.99-42
					c-0.42-2.25-5.48,0.15-5-3c-1.03-7.36,1.39-11.27,4-15c-0.03-21.69,19.52-23.8,31-33.99c17.78-2.45,25.42,5.24,36.99,9
					c3.49,6.84,5.59,15.08,9,22C196.61,212.3,200.82,213.18,202.48,211.51z M185.48,210.51c-1.35-0.32-1.91-1.43-4-1
					c-5.03,5.75-9.38,11.09-15,14.99c-7.97,5.55-19.6,6.75-24.99,15C158.53,236.18,176.69,225.4,185.48,210.51z M173.48,201.51
					c-1.82-5.29-11.31-2.67-15.99-1c-6.8,2.41-19.13,8.07-22,12c-3.55,4.84-7.89,22.23-3,25.99c3.86-7.14,3.63-18.37,8-24.99
					C151.52,209.54,160.49,203.51,173.48,201.51z M167.48,221.5c0.43-4.09-0.92-6.4-2-8.99c-11.5-3.71-16.93,7.32-9.99,12.99
					C161.08,225.77,164.73,224.09,167.48,221.5z"/>
				<path d="M181.48,209.51c2.09-0.43,2.65,0.68,4,1c-8.79,14.89-26.95,25.67-43.99,28.99c5.39-8.25,17.02-9.45,24.99-15
					C172.1,220.6,176.45,215.26,181.48,209.51z"/>
				<path fill="#FFFFFF" d="M173.48,155.51c-5.87,5.91-12.39-3.15-17.99-4C155.78,150.81,169.59,153.22,173.48,155.51z"/>
				<path d="M157.49,200.51c4.68-1.67,14.17-4.29,15.99,1c-12.99,2-21.96,8.03-32.99,12c-4.37,6.62-4.14,17.85-8,24.99
					c-4.89-3.76-0.55-21.15,3-25.99C138.36,208.58,150.69,202.92,157.49,200.51z"/>
				<path d="M165.48,212.51c1.08,2.59,2.43,4.9,2,8.99c-2.75,2.59-6.4,4.27-11.99,4C148.55,219.83,153.98,208.8,165.48,212.51z"/>
			</g>
			<g>
			</g>
		</g>
	</g>
</g>

</svg>
