<?xml version="1.0" encoding="UTF-8" ?>
<!DOCTYPE svg PUBLIC "-//W3C//DTD SVG 1.1//EN" "http://www.w3.org/Graphics/SVG/1.1/DTD/svg11.dtd">
<svg width="1145pt" height="1012pt" viewBox="0 0 1145 1012" version="1.1" xmlns="http://www.w3.org/2000/svg">
<path fill="#ffffff" opacity="1.00" d=" M 0.00 0.00 L 1145.00 0.00 L 1145.00 1012.00 L 0.00 1012.00 L 0.00 0.00 M 367.63 29.77 C 334.60 38.03 301.07 44.18 268.18 53.03 C 249.52 58.08 231.00 64.03 213.64 72.65 C 210.10 74.30 208.31 78.01 205.78 80.78 C 160.10 137.01 107.07 187.34 66.88 247.93 C 54.23 267.09 42.48 287.01 33.34 308.09 C 34.96 320.52 41.06 332.28 40.28 345.02 C 39.89 353.09 34.42 359.91 27.85 364.15 C 25.96 350.10 28.80 336.01 28.71 321.94 C 28.44 315.37 27.89 308.09 23.08 303.09 C 17.51 324.22 14.63 345.98 12.86 367.73 C 8.80 422.54 12.52 477.62 19.24 532.06 C 24.96 575.67 34.88 619.40 55.12 658.74 C 65.22 678.52 78.55 696.40 92.17 713.85 C 102.53 726.38 114.04 739.08 129.48 745.23 C 125.60 732.92 119.95 721.10 112.54 710.52 C 107.80 703.84 101.88 697.55 94.03 694.64 C 86.31 650.81 66.01 610.72 52.63 568.57 C 45.04 545.32 39.30 521.32 37.70 496.86 C 35.19 461.17 39.16 425.37 45.45 390.25 C 52.65 349.48 62.71 309.23 68.43 268.19 C 69.77 263.83 73.13 260.42 75.80 256.82 C 88.69 241.09 106.12 229.55 117.60 212.60 C 124.21 203.13 128.26 192.00 129.67 180.55 C 140.58 176.02 149.76 168.31 158.08 160.07 C 172.59 145.17 185.08 128.47 199.33 113.34 C 213.91 97.56 230.70 83.37 250.32 74.30 C 254.23 72.31 258.71 72.09 263.01 71.96 C 271.00 71.65 279.18 71.47 286.80 68.78 C 300.14 64.09 309.69 52.39 323.23 48.15 C 340.83 43.13 358.85 39.67 376.93 36.92 C 403.07 33.13 429.54 30.75 455.97 31.83 C 469.67 32.55 483.55 33.94 496.57 38.51 C 504.06 41.03 510.55 45.66 517.12 49.92 C 535.11 62.16 552.41 75.86 566.25 92.76 C 574.80 103.38 582.38 115.85 582.91 129.85 C 543.11 133.00 500.93 129.87 465.58 109.71 C 464.57 117.50 467.86 125.59 465.18 133.14 C 463.22 137.13 458.33 135.33 454.91 135.29 C 448.24 136.88 440.63 138.43 434.40 134.62 C 425.10 128.68 424.57 115.46 415.09 109.63 C 414.48 113.04 414.09 118.06 409.80 118.74 C 402.56 119.70 396.23 114.06 389.03 114.73 C 384.74 115.62 384.15 120.96 384.38 124.57 C 388.23 132.41 395.53 138.03 403.37 141.56 C 415.92 147.24 429.67 149.26 443.06 152.04 C 456.26 154.70 469.94 157.56 481.23 165.33 C 474.44 172.18 467.28 178.66 460.22 185.22 C 445.60 198.81 431.30 213.55 422.96 231.97 C 413.75 251.85 412.15 274.43 414.69 295.97 C 414.70 297.41 415.70 298.46 416.62 299.45 C 436.90 320.57 455.74 343.05 476.14 364.07 C 457.58 358.18 438.45 353.68 418.95 352.69 C 396.00 351.39 372.30 355.61 352.33 367.35 C 332.61 378.77 317.32 396.61 306.16 416.26 C 295.20 435.41 287.58 456.28 281.59 477.46 C 268.68 523.99 263.20 572.13 258.02 620.01 C 257.46 623.98 257.73 628.22 255.81 631.87 C 251.60 640.56 243.78 646.81 239.45 655.42 C 235.69 662.76 235.33 671.31 236.72 679.32 C 229.82 681.65 225.31 687.98 222.24 694.26 C 219.65 700.00 217.52 706.52 218.98 712.84 C 219.77 716.24 222.80 719.87 226.51 719.66 C 249.58 695.95 273.74 673.20 300.02 653.04 C 330.63 629.37 363.80 608.92 399.14 593.08 C 436.61 576.23 476.42 564.60 517.06 558.57 C 543.00 554.60 569.19 551.98 594.77 545.94 C 613.69 541.43 632.48 534.80 648.40 523.38 C 661.71 514.02 672.09 500.94 679.13 486.33 C 675.20 486.27 671.19 486.06 667.48 484.65 C 660.36 482.12 654.94 476.42 650.69 470.37 C 643.53 459.99 638.69 448.29 632.84 437.18 C 626.48 424.97 618.82 412.53 606.69 405.32 C 598.41 400.19 588.46 399.38 578.99 398.73 C 570.42 398.24 561.54 402.08 557.24 409.75 C 541.84 396.25 520.97 391.98 504.07 380.90 C 499.90 378.12 495.69 374.16 495.80 368.73 C 524.17 377.81 554.32 383.20 584.12 379.65 C 601.58 377.51 619.37 371.68 632.31 359.30 C 642.03 349.96 647.76 337.05 649.44 323.77 C 653.14 300.38 647.46 276.34 636.55 255.59 C 619.11 221.41 590.81 194.83 567.04 165.23 C 582.26 165.59 597.77 163.54 612.74 167.17 C 619.85 168.77 626.37 173.54 628.84 180.59 C 624.47 181.29 619.69 180.47 615.68 182.66 C 612.23 184.57 612.18 189.69 614.57 192.46 C 643.06 231.68 665.68 275.05 682.53 320.48 C 699.41 365.71 711.01 412.73 720.14 460.08 C 721.75 468.51 726.33 475.93 728.88 484.06 C 730.62 489.23 730.67 494.73 731.23 500.11 C 734.95 543.32 736.30 586.79 733.47 630.09 C 731.01 665.66 726.15 701.42 714.39 735.22 C 708.44 751.71 700.88 767.96 689.46 781.41 C 687.58 756.21 682.53 731.19 673.69 707.50 C 670.63 699.69 667.79 691.67 663.58 684.41 C 657.28 682.14 650.68 680.64 644.02 679.92 C 628.64 678.14 613.45 681.93 598.37 684.35 C 588.36 686.03 578.10 686.29 568.06 684.81 C 565.76 686.17 564.13 688.42 561.82 689.80 C 554.91 694.44 546.21 697.30 541.88 704.95 C 532.45 694.97 518.34 690.97 504.96 690.53 C 490.80 690.33 475.69 694.31 465.70 704.88 C 466.66 727.79 466.05 751.21 459.19 773.27 C 454.43 788.58 445.78 803.16 432.59 812.62 C 417.20 823.80 397.63 827.39 378.95 827.00 C 380.12 806.31 380.41 785.43 377.31 764.89 C 374.83 748.87 369.77 732.56 358.77 720.26 C 342.19 720.26 325.61 720.22 309.03 720.27 C 307.74 720.14 306.78 721.10 305.84 721.81 C 298.72 727.48 292.87 734.74 288.89 742.93 C 281.71 757.47 279.74 773.96 279.49 790.00 C 279.06 812.38 281.72 834.65 282.93 856.97 C 283.98 877.57 284.32 898.82 277.56 918.59 C 266.97 922.29 257.01 927.56 247.59 933.61 C 236.99 940.19 227.15 948.00 216.31 954.18 C 206.81 956.45 196.35 955.68 187.63 960.67 C 182.76 963.43 180.68 969.08 180.62 974.45 C 191.67 975.65 202.93 975.11 213.74 972.48 C 242.56 965.55 268.12 948.65 289.18 928.18 C 293.80 923.32 298.89 918.69 302.50 913.04 C 296.27 885.51 293.20 857.24 293.52 829.02 C 294.21 806.71 296.52 783.71 306.42 763.38 C 312.55 750.62 323.23 739.35 337.18 735.52 C 338.18 735.20 339.11 735.35 339.99 735.97 C 345.70 738.96 350.65 743.48 353.99 749.02 C 360.13 759.04 361.47 771.05 362.19 782.54 C 363.36 805.78 361.79 829.64 368.99 852.11 C 375.42 849.09 382.14 846.73 389.09 845.25 C 403.76 841.81 419.17 842.24 433.56 837.49 C 445.73 833.43 456.05 824.68 463.01 814.01 C 473.21 798.28 476.06 779.33 479.14 761.21 C 482.19 743.43 485.24 724.77 495.97 709.75 C 502.32 709.78 508.68 709.69 515.03 709.76 C 517.28 709.53 518.46 711.78 519.96 713.05 C 529.71 722.89 535.20 736.97 533.75 750.85 C 532.07 769.14 522.97 785.54 514.43 801.42 C 507.58 814.49 499.51 827.33 496.39 841.95 C 509.13 837.54 520.70 829.66 529.13 819.11 C 540.61 804.88 547.16 787.46 552.22 770.09 C 556.09 754.33 552.95 737.71 557.19 722.00 C 558.73 716.43 561.70 710.88 566.78 707.81 C 573.02 703.91 580.71 703.94 587.79 704.55 C 594.26 714.54 598.93 726.03 599.33 738.05 C 599.91 749.83 596.15 761.37 590.67 771.67 C 581.77 788.95 568.42 803.62 560.65 821.52 C 556.48 831.07 554.79 841.85 557.21 852.08 C 572.16 836.62 587.11 820.93 598.92 802.86 C 608.54 788.09 616.01 771.56 618.36 753.98 C 619.64 739.98 612.36 726.86 613.16 712.90 C 613.43 705.68 617.35 698.87 623.11 694.62 C 637.59 695.28 648.89 705.57 658.96 714.92 C 662.69 724.54 664.61 734.83 666.14 745.02 C 670.78 779.19 665.52 813.67 659.19 847.27 C 646.14 852.18 641.29 866.74 630.15 874.12 C 623.72 878.41 615.63 878.95 608.16 878.06 C 597.92 893.47 585.23 907.13 571.32 919.29 C 550.93 936.98 527.92 951.35 504.34 964.37 C 485.24 975.06 465.46 984.47 446.20 994.82 C 465.90 996.98 486.44 995.65 504.86 987.88 C 520.00 981.57 532.94 970.92 543.74 958.73 C 557.24 943.84 568.17 926.66 583.00 912.98 C 590.27 907.84 599.83 907.94 607.45 903.51 C 625.40 891.04 638.96 873.58 655.51 859.50 C 661.15 854.51 667.73 850.78 674.09 846.86 C 674.48 838.62 677.37 830.69 681.89 823.84 C 687.38 815.38 693.46 806.72 694.52 796.39 C 698.93 796.21 703.44 795.51 707.29 793.21 C 713.54 789.59 718.49 784.13 724.93 780.78 C 728.55 773.32 730.77 765.25 733.13 757.32 C 738.68 737.18 741.78 716.45 743.89 695.69 C 747.27 660.91 747.87 625.91 747.26 590.99 C 746.47 543.30 743.59 495.66 740.99 448.04 C 740.02 427.31 738.62 406.56 734.98 386.11 C 728.44 346.52 714.10 307.94 690.94 275.02 C 684.28 265.16 676.60 256.05 669.16 246.80 C 668.49 234.63 666.86 222.46 663.38 210.75 C 657.82 191.13 647.97 173.14 638.41 155.26 C 642.16 154.08 646.17 152.88 648.96 149.94 C 652.61 146.40 653.00 140.85 652.43 136.07 C 651.35 127.18 648.96 118.46 648.66 109.47 C 642.71 109.21 636.71 110.02 631.21 112.37 C 623.80 115.60 616.41 119.35 608.18 119.85 C 596.80 101.04 579.86 86.54 562.28 73.72 C 555.00 68.34 547.61 63.10 540.46 57.55 C 530.42 49.58 523.61 38.41 513.96 30.05 C 506.55 24.33 497.35 21.51 488.30 19.64 C 472.71 16.66 456.72 16.55 440.93 17.60 C 416.18 19.29 391.60 23.40 367.63 29.77 M 183.03 185.02 C 177.55 189.04 174.48 195.44 172.61 201.80 C 168.13 217.39 168.76 234.00 163.65 249.44 C 162.41 252.39 161.54 255.81 158.89 257.86 C 135.58 276.07 116.84 299.30 93.96 318.00 C 98.66 322.67 102.98 328.90 101.88 335.87 C 100.05 346.33 91.43 354.28 90.36 364.98 C 89.98 369.97 91.08 375.55 94.44 379.39 C 97.62 380.19 101.63 380.75 104.20 378.21 C 107.75 374.90 107.57 369.40 110.78 365.85 C 112.91 363.48 116.79 362.81 119.59 364.25 C 123.90 369.32 126.35 376.36 124.66 382.97 C 122.30 392.79 115.68 401.09 114.05 411.16 C 113.06 415.72 113.64 420.37 114.16 424.94 C 111.65 430.49 106.87 434.86 101.41 437.47 C 97.61 439.43 93.09 441.01 90.97 445.02 C 88.40 449.82 88.65 455.48 88.88 460.76 C 95.08 461.40 101.96 461.20 107.05 457.11 C 117.57 448.61 117.62 432.22 129.64 425.03 C 133.54 428.34 137.16 431.98 140.27 436.05 C 139.27 447.24 139.32 458.72 135.47 469.42 C 132.90 476.48 136.06 483.69 138.92 490.11 C 140.74 493.90 146.30 495.17 149.53 492.42 C 152.84 489.67 154.95 485.84 157.43 482.39 C 160.00 478.57 164.62 477.01 167.74 473.74 C 170.91 470.71 172.26 466.41 173.30 462.28 C 192.48 457.99 212.23 461.49 231.66 460.72 C 240.76 447.10 252.56 435.61 264.23 424.23 C 282.18 407.05 300.93 389.66 312.01 367.01 C 323.63 344.15 325.93 317.71 323.31 292.52 C 294.82 279.00 268.58 260.55 238.32 250.91 C 218.54 244.27 196.20 242.64 176.70 251.12 C 180.38 246.21 184.11 241.28 186.81 235.74 C 195.48 218.77 197.45 199.16 196.01 180.38 C 191.44 181.03 186.79 182.20 183.03 185.02 M 1005.04 653.77 C 992.08 655.61 979.86 648.69 966.96 649.26 C 963.98 649.31 960.84 650.76 959.56 653.57 C 958.10 656.88 958.59 660.58 959.01 664.05 C 960.03 662.19 961.10 660.01 963.42 659.59 C 968.73 658.41 974.27 659.11 979.65 659.41 C 989.13 665.73 996.87 675.31 999.58 686.54 C 1001.76 695.43 1000.77 704.79 998.42 713.54 C 995.34 724.87 990.21 735.51 984.89 745.94 C 977.44 760.86 968.40 775.26 964.10 791.53 C 976.34 790.41 986.84 782.68 994.49 773.48 C 1006.54 758.99 1013.97 741.28 1019.50 723.43 C 1024.64 707.81 1022.26 691.09 1025.12 675.10 C 1026.27 668.69 1028.58 662.01 1033.87 657.84 C 1040.03 652.94 1048.45 653.02 1055.88 654.00 C 1061.54 664.45 1065.78 675.96 1066.01 687.96 C 1066.40 700.54 1062.49 712.86 1056.79 723.94 C 1047.87 741.76 1034.51 756.95 1025.89 774.94 C 1021.90 783.20 1019.49 792.41 1020.12 801.64 C 1027.82 800.81 1035.05 796.97 1040.05 791.05 C 1048.76 781.05 1052.30 767.79 1060.31 757.31 C 1064.34 751.82 1070.04 747.58 1076.56 745.54 C 1078.52 740.13 1080.21 734.60 1081.23 728.93 C 1086.18 702.51 1079.80 675.17 1086.52 648.97 C 1095.18 647.61 1104.74 647.75 1112.34 652.64 C 1119.77 657.23 1123.77 665.46 1126.51 673.44 C 1130.64 685.56 1132.17 698.51 1137.42 710.26 C 1137.54 693.27 1137.57 676.27 1137.41 659.28 C 1134.86 654.02 1130.41 649.77 1125.93 646.08 C 1114.77 637.23 1099.90 634.95 1086.03 635.88 C 1058.25 637.76 1032.22 648.67 1005.04 653.77 M 913.53 754.61 C 908.23 764.71 900.98 774.39 890.60 779.68 C 878.88 785.67 864.92 784.88 852.59 781.34 C 851.26 777.96 851.13 774.25 850.41 770.72 C 846.50 747.85 844.38 724.29 835.48 702.65 C 830.89 691.57 823.33 680.72 811.76 676.23 C 799.13 671.31 785.09 674.23 772.82 678.82 C 770.61 679.44 769.52 681.60 768.26 683.31 C 757.63 698.83 752.27 717.30 749.56 735.74 C 743.88 776.00 748.30 816.69 750.66 857.03 C 748.95 862.48 744.96 866.98 741.07 871.07 C 729.83 882.02 715.09 888.19 702.85 897.82 C 694.44 904.15 687.54 912.88 684.80 923.17 C 700.58 915.26 716.66 907.88 731.81 898.79 C 746.65 889.80 760.69 878.62 770.01 863.76 C 771.17 862.38 770.41 860.63 770.18 859.10 C 766.82 842.57 764.25 825.88 762.42 809.12 C 759.97 784.22 758.78 758.76 764.07 734.13 C 767.27 719.98 773.35 705.28 785.60 696.65 C 794.58 690.18 806.02 688.58 816.83 689.32 C 820.78 695.32 823.08 702.24 824.48 709.24 C 830.30 739.69 824.48 771.29 832.13 801.48 C 853.34 802.28 875.00 798.71 894.07 789.11 C 913.90 779.45 930.78 763.47 940.57 743.62 C 951.99 720.89 952.92 693.48 943.96 669.77 C 930.99 696.99 927.37 727.73 913.53 754.61 M 1135.69 739.87 C 1133.29 754.77 1131.86 769.84 1128.49 784.57 C 1126.68 791.93 1124.60 799.65 1119.39 805.41 C 1113.43 812.13 1104.93 815.65 1096.78 818.93 C 1087.41 822.61 1077.83 826.48 1070.14 833.16 C 1051.86 849.68 1040.04 872.20 1020.85 887.83 C 1005.68 899.64 988.86 909.15 971.67 917.67 C 953.56 926.76 932.67 928.28 914.71 937.75 C 905.56 942.35 897.76 949.76 893.32 959.05 C 909.20 958.35 924.78 954.60 939.94 950.02 C 962.89 942.84 985.08 933.10 1005.68 920.65 C 1019.41 912.19 1032.80 902.70 1043.30 890.31 C 1054.93 877.22 1064.06 861.89 1077.36 850.32 C 1092.14 837.43 1112.05 832.61 1127.01 819.98 C 1134.53 813.50 1140.64 804.79 1142.47 794.92 C 1142.46 768.47 1142.65 742.00 1142.37 715.55 C 1138.15 722.95 1137.19 731.62 1135.69 739.87 M 170.84 765.90 C 180.26 769.42 184.60 778.98 191.40 785.61 C 196.54 790.82 204.28 792.39 211.35 791.48 C 210.16 784.41 206.00 777.92 199.96 774.04 C 191.37 768.36 180.83 767.07 170.84 765.90 M 934.43 857.50 C 931.55 859.93 929.43 863.12 926.68 865.68 C 900.24 891.99 863.35 904.53 837.32 931.32 C 823.20 945.54 814.09 964.56 811.90 984.48 C 821.97 981.11 830.69 974.61 837.84 966.86 C 849.38 954.38 858.38 939.44 872.05 929.02 C 888.64 916.48 908.44 909.24 925.59 897.58 C 938.27 889.22 949.10 877.41 953.99 862.81 C 947.65 860.47 941.60 855.47 934.43 857.50 Z" />
<path fill="#000000" opacity="1.00" d=" M 367.63 29.77 C 391.60 23.40 416.18 19.29 440.93 17.60 C 456.72 16.55 472.71 16.66 488.30 19.64 C 497.35 21.51 506.55 24.33 513.96 30.05 C 523.61 38.41 530.42 49.58 540.46 57.55 C 547.61 63.10 555.00 68.34 562.28 73.72 C 579.86 86.54 596.80 101.04 608.18 119.85 C 616.41 119.35 623.80 115.60 631.21 112.37 C 636.71 110.02 642.71 109.21 648.66 109.47 C 648.96 118.46 651.35 127.18 652.43 136.07 C 653.00 140.85 652.61 146.40 648.96 149.94 C 646.17 152.88 642.16 154.08 638.41 155.26 C 647.97 173.14 657.82 191.13 663.38 210.75 C 666.86 222.46 668.49 234.63 669.16 246.80 C 676.60 256.05 684.28 265.16 690.94 275.02 C 714.10 307.94 728.44 346.52 734.98 386.11 C 738.62 406.56 740.02 427.31 740.99 448.04 C 743.59 495.66 746.47 543.30 747.26 590.99 C 747.87 625.91 747.27 660.91 743.89 695.69 C 741.78 716.45 738.68 737.18 733.13 757.32 C 730.77 765.25 728.55 773.32 724.93 780.78 C 718.49 784.13 713.54 789.59 707.29 793.21 C 703.44 795.51 698.93 796.21 694.52 796.39 C 693.46 806.72 687.38 815.38 681.89 823.84 C 677.37 830.69 674.48 838.62 674.09 846.86 C 667.73 850.78 661.15 854.51 655.51 859.50 C 638.96 873.58 625.40 891.04 607.45 903.51 C 599.83 907.94 590.27 907.84 583.00 912.98 C 568.17 926.66 557.24 943.84 543.74 958.73 C 532.94 970.92 520.00 981.57 504.86 987.88 C 486.44 995.65 465.90 996.98 446.20 994.82 C 465.46 984.47 485.24 975.06 504.34 964.37 C 527.92 951.35 550.93 936.98 571.32 919.29 C 585.23 907.13 597.92 893.47 608.16 878.06 C 615.63 878.95 623.72 878.41 630.15 874.12 C 641.29 866.74 646.14 852.18 659.19 847.27 C 665.52 813.67 670.78 779.19 666.14 745.02 C 664.61 734.83 662.69 724.54 658.96 714.92 C 648.89 705.57 637.59 695.28 623.11 694.62 C 617.35 698.87 613.43 705.68 613.16 712.90 C 612.36 726.86 619.64 739.98 618.36 753.98 C 616.01 771.56 608.54 788.09 598.92 802.86 C 587.11 820.93 572.16 836.62 557.21 852.08 C 554.79 841.85 556.48 831.07 560.65 821.52 C 568.42 803.62 581.77 788.95 590.67 771.67 C 596.15 761.37 599.91 749.83 599.33 738.05 C 598.93 726.03 594.26 714.54 587.79 704.55 C 580.71 703.94 573.02 703.91 566.78 707.81 C 561.70 710.88 558.73 716.43 557.19 722.00 C 552.95 737.71 556.09 754.33 552.22 770.09 C 547.16 787.46 540.61 804.88 529.13 819.11 C 520.70 829.66 509.13 837.54 496.39 841.95 C 499.51 827.33 507.58 814.49 514.43 801.42 C 522.97 785.54 532.07 769.14 533.75 750.85 C 535.20 736.97 529.71 722.89 519.96 713.05 C 518.46 711.78 517.28 709.53 515.03 709.76 C 508.68 709.69 502.32 709.78 495.97 709.75 C 485.24 724.77 482.19 743.43 479.14 761.21 C 476.06 779.33 473.21 798.28 463.01 814.01 C 456.05 824.68 445.73 833.43 433.56 837.49 C 419.17 842.24 403.76 841.81 389.09 845.25 C 382.14 846.73 375.42 849.09 368.99 852.11 C 361.79 829.64 363.36 805.78 362.19 782.54 C 361.47 771.05 360.13 759.04 353.99 749.02 C 350.65 743.48 345.70 738.96 339.99 735.97 C 339.11 735.35 338.18 735.20 337.18 735.52 C 323.23 739.35 312.55 750.62 306.42 763.38 C 296.52 783.71 294.21 806.71 293.52 829.02 C 293.20 857.24 296.27 885.51 302.50 913.04 C 298.89 918.69 293.80 923.32 289.18 928.18 C 268.12 948.65 242.56 965.55 213.74 972.48 C 202.93 975.11 191.67 975.65 180.62 974.45 C 180.68 969.08 182.76 963.43 187.63 960.67 C 196.35 955.68 206.81 956.45 216.31 954.18 C 227.15 948.00 236.99 940.19 247.59 933.61 C 257.01 927.56 266.97 922.29 277.56 918.59 C 284.32 898.82 283.98 877.57 282.93 856.97 C 281.72 834.65 279.06 812.38 279.49 790.00 C 279.74 773.96 281.71 757.47 288.89 742.93 C 292.87 734.74 298.72 727.48 305.84 721.81 C 306.78 721.10 307.74 720.14 309.03 720.27 C 325.61 720.22 342.19 720.26 358.77 720.26 C 369.77 732.56 374.83 748.87 377.31 764.89 C 380.41 785.43 380.12 806.31 378.95 827.00 C 397.63 827.39 417.20 823.80 432.59 812.62 C 445.78 803.16 454.43 788.58 459.19 773.27 C 466.05 751.21 466.66 727.79 465.70 704.88 C 475.69 694.31 490.80 690.33 504.96 690.53 C 518.34 690.97 532.45 694.97 541.88 704.95 C 546.21 697.30 554.91 694.44 561.82 689.80 C 564.13 688.42 565.76 686.17 568.06 684.81 C 578.10 686.29 588.36 686.03 598.37 684.35 C 613.45 681.93 628.64 678.14 644.02 679.92 C 650.68 680.64 657.28 682.14 663.58 684.41 C 667.79 691.67 670.63 699.69 673.69 707.50 C 682.53 731.19 687.58 756.21 689.46 781.41 C 700.88 767.96 708.44 751.71 714.39 735.22 C 726.15 701.42 731.01 665.66 733.47 630.09 C 736.30 586.79 734.95 543.32 731.23 500.11 C 730.67 494.73 730.62 489.23 728.88 484.06 C 726.33 475.93 721.75 468.51 720.14 460.08 C 711.01 412.73 699.41 365.71 682.53 320.48 C 665.68 275.05 643.06 231.68 614.57 192.46 C 612.18 189.69 612.23 184.57 615.68 182.66 C 619.69 180.47 624.47 181.29 628.84 180.59 C 626.37 173.54 619.85 168.77 612.74 167.17 C 597.77 163.54 582.26 165.59 567.04 165.23 C 590.81 194.83 619.11 221.41 636.55 255.59 C 647.46 276.34 653.14 300.38 649.44 323.77 C 647.76 337.05 642.03 349.96 632.31 359.30 C 619.37 371.68 601.58 377.51 584.12 379.65 C 554.32 383.20 524.17 377.81 495.80 368.73 C 495.69 374.16 499.90 378.12 504.07 380.90 C 520.97 391.98 541.84 396.25 557.24 409.75 C 561.54 402.08 570.42 398.24 578.99 398.73 C 588.46 399.38 598.41 400.19 606.69 405.32 C 618.82 412.53 626.48 424.97 632.84 437.18 C 638.69 448.29 643.53 459.99 650.69 470.37 C 654.94 476.42 660.36 482.12 667.48 484.65 C 671.19 486.06 675.20 486.27 679.13 486.33 C 672.09 500.94 661.71 514.02 648.40 523.38 C 632.48 534.80 613.69 541.43 594.77 545.94 C 569.19 551.98 543.00 554.60 517.06 558.57 C 476.42 564.60 436.61 576.23 399.14 593.08 C 363.80 608.92 330.63 629.37 300.02 653.04 C 273.74 673.20 249.58 695.95 226.51 719.66 C 222.80 719.87 219.77 716.24 218.98 712.84 C 217.52 706.52 219.65 700.00 222.24 694.26 C 225.31 687.98 229.82 681.65 236.72 679.32 C 235.33 671.31 235.69 662.76 239.45 655.42 C 243.78 646.81 251.60 640.56 255.81 631.87 C 257.73 628.22 257.46 623.98 258.02 620.01 C 263.20 572.13 268.68 523.99 281.59 477.46 C 287.58 456.28 295.20 435.41 306.16 416.26 C 317.32 396.61 332.61 378.77 352.33 367.35 C 372.30 355.61 396.00 351.39 418.95 352.69 C 438.45 353.68 457.58 358.18 476.14 364.07 C 455.74 343.05 436.90 320.57 416.62 299.45 C 415.70 298.46 414.70 297.41 414.69 295.97 C 412.15 274.43 413.75 251.85 422.96 231.97 C 431.30 213.55 445.60 198.81 460.22 185.22 C 467.28 178.66 474.44 172.18 481.23 165.33 C 469.94 157.56 456.26 154.70 443.06 152.04 C 429.67 149.26 415.92 147.24 403.37 141.56 C 395.53 138.03 388.23 132.41 384.38 124.57 C 384.15 120.96 384.74 115.62 389.03 114.73 C 396.23 114.06 402.56 119.70 409.80 118.74 C 414.09 118.06 414.48 113.04 415.09 109.63 C 424.57 115.46 425.10 128.68 434.40 134.62 C 440.63 138.43 448.24 136.88 454.91 135.29 C 458.33 135.33 463.22 137.13 465.18 133.14 C 467.86 125.59 464.57 117.50 465.58 109.71 C 500.93 129.87 543.11 133.00 582.91 129.85 C 582.38 115.85 574.80 103.38 566.25 92.76 C 552.41 75.86 535.11 62.16 517.12 49.92 C 510.55 45.66 504.06 41.03 496.57 38.51 C 483.55 33.94 469.67 32.55 455.97 31.83 C 429.54 30.75 403.07 33.13 376.93 36.92 C 358.85 39.67 340.83 43.13 323.23 48.15 C 309.69 52.39 300.14 64.09 286.80 68.78 C 279.18 71.47 271.00 71.65 263.01 71.96 C 258.71 72.09 254.23 72.31 250.32 74.30 C 230.70 83.37 213.91 97.56 199.33 113.34 C 185.08 128.47 172.59 145.17 158.08 160.07 C 149.76 168.31 140.58 176.02 129.67 180.55 C 128.26 192.00 124.21 203.13 117.60 212.60 C 106.12 229.55 88.69 241.09 75.80 256.82 C 73.13 260.42 69.77 263.83 68.43 268.19 C 62.71 309.23 52.65 349.48 45.45 390.25 C 39.16 425.37 35.19 461.17 37.70 496.86 C 39.30 521.32 45.04 545.32 52.63 568.57 C 66.01 610.72 86.31 650.81 94.03 694.64 C 101.88 697.55 107.80 703.84 112.54 710.52 C 119.95 721.10 125.60 732.92 129.48 745.23 C 114.04 739.08 102.53 726.38 92.17 713.85 C 78.55 696.40 65.22 678.52 55.12 658.74 C 34.88 619.40 24.96 575.67 19.24 532.06 C 12.52 477.62 8.80 422.54 12.86 367.73 C 14.63 345.98 17.51 324.22 23.08 303.09 C 27.89 308.09 28.44 315.37 28.71 321.94 C 28.80 336.01 25.96 350.10 27.85 364.15 C 34.42 359.91 39.89 353.09 40.28 345.02 C 41.06 332.28 34.96 320.52 33.34 308.09 C 42.48 287.01 54.23 267.09 66.88 247.93 C 107.07 187.34 160.10 137.01 205.78 80.78 C 208.31 78.01 210.10 74.30 213.64 72.65 C 231.00 64.03 249.52 58.08 268.18 53.03 C 301.07 44.18 334.60 38.03 367.63 29.77 M 500.44 171.50 C 491.34 177.16 484.54 185.58 477.68 193.64 C 464.12 209.70 446.03 221.60 434.26 239.23 C 426.54 250.39 422.98 264.51 425.20 277.96 C 427.24 285.40 431.60 291.90 435.55 298.44 C 445.72 314.19 457.34 329.11 470.96 342.04 C 476.79 347.39 483.06 352.42 490.31 355.71 C 500.49 360.54 511.73 362.67 522.89 363.57 C 551.18 365.65 579.56 361.18 607.84 363.77 C 607.71 360.06 608.08 355.71 611.40 353.38 C 616.35 349.86 622.70 349.78 628.43 348.46 C 632.19 333.62 634.31 318.20 632.79 302.90 C 631.26 285.23 625.02 268.21 616.00 253.02 C 597.64 221.64 569.15 197.52 551.84 165.44 C 534.75 161.98 515.59 161.66 500.44 171.50 M 699.89 333.65 C 699.99 338.08 700.69 342.51 702.26 346.68 C 705.95 356.89 714.05 364.49 720.01 373.34 C 721.41 365.18 721.07 356.36 717.09 348.93 C 713.36 341.98 706.69 337.28 699.89 333.65 M 405.00 373.98 C 413.71 382.62 419.85 393.38 425.07 404.39 C 432.44 402.86 440.01 399.86 444.76 393.75 C 449.15 388.27 450.41 381.03 450.29 374.18 C 439.61 371.66 429.02 367.92 417.91 368.05 C 413.20 368.36 407.47 369.50 405.00 373.98 M 352.70 383.71 C 341.32 392.30 331.91 403.31 323.62 414.83 C 331.90 420.63 339.02 428.10 344.18 436.81 C 348.73 444.07 351.37 452.26 354.06 460.32 C 371.38 457.76 389.34 451.75 401.29 438.30 C 408.42 430.42 412.57 420.26 414.60 409.92 C 401.49 399.59 400.87 380.89 389.53 369.15 C 376.23 370.50 363.39 375.70 352.70 383.71 M 465.66 379.66 C 449.06 410.76 425.47 438.34 396.42 458.45 C 380.53 469.26 362.77 477.82 343.70 481.05 C 344.44 488.04 344.54 495.16 343.04 502.07 C 341.02 512.54 334.47 521.74 325.91 527.93 C 312.50 537.72 296.39 542.83 282.63 552.07 C 283.32 561.00 283.23 570.03 281.73 578.89 C 278.59 599.38 269.41 618.17 262.35 637.47 C 257.63 650.59 253.93 664.89 257.11 678.81 C 272.71 658.33 291.92 640.81 312.69 625.69 C 342.76 603.79 375.97 586.45 410.48 572.67 C 450.66 556.80 492.85 545.64 535.90 541.38 C 560.76 538.54 586.09 536.42 609.78 527.83 C 626.96 521.60 642.15 510.47 653.62 496.28 C 637.15 482.51 631.68 460.89 620.75 443.23 C 614.51 432.63 605.02 423.52 593.02 419.99 C 587.29 426.68 580.57 432.66 572.62 436.58 C 558.11 444.12 540.65 444.73 525.19 439.88 C 520.52 438.39 516.41 435.48 513.04 431.95 C 503.59 422.31 498.84 409.38 492.01 397.97 C 487.75 390.60 482.24 383.09 473.85 380.24 C 471.25 379.61 468.19 378.57 465.66 379.66 M 511.75 410.01 C 513.43 413.23 515.97 415.96 518.91 418.07 C 528.48 424.71 540.52 427.18 552.03 426.69 C 557.46 426.19 563.77 425.31 567.12 420.45 C 560.72 422.17 553.88 423.42 547.39 421.32 C 538.25 418.94 531.75 411.55 523.42 407.59 C 519.60 405.62 514.30 406.51 511.75 410.01 M 296.20 471.29 C 290.65 490.91 287.53 511.30 287.74 531.73 C 298.86 531.34 309.79 526.53 317.20 518.16 C 328.77 505.55 333.25 487.78 332.74 470.98 C 332.22 454.06 326.22 436.44 313.08 425.17 C 306.69 440.24 300.72 455.54 296.20 471.29 M 27.98 526.60 C 34.85 554.35 34.85 583.33 42.20 610.98 C 44.64 619.49 47.74 628.41 54.45 634.53 C 58.29 638.11 63.71 639.22 68.82 639.01 C 66.20 636.36 63.30 633.95 61.07 630.94 C 55.65 623.80 52.71 615.17 50.52 606.58 C 45.89 587.95 44.97 568.59 39.85 550.07 C 37.40 541.64 34.15 533.05 27.98 526.60 Z" />
<path fill="#ffffff" opacity="1.00" d=" M 500.44 171.50 C 515.59 161.66 534.75 161.98 551.84 165.44 C 569.15 197.52 597.64 221.64 616.00 253.02 C 625.02 268.21 631.26 285.23 632.79 302.90 C 634.31 318.20 632.19 333.62 628.43 348.46 C 622.70 349.78 616.35 349.86 611.40 353.38 C 608.08 355.71 607.71 360.06 607.84 363.77 C 579.56 361.18 551.18 365.65 522.89 363.57 C 511.73 362.67 500.49 360.54 490.31 355.71 C 483.06 352.42 476.79 347.39 470.96 342.04 C 457.34 329.11 445.72 314.19 435.55 298.44 C 431.60 291.90 427.24 285.40 425.20 277.96 C 422.98 264.51 426.54 250.39 434.26 239.23 C 446.03 221.60 464.12 209.70 477.68 193.64 C 484.54 185.58 491.34 177.16 500.44 171.50 M 539.32 222.31 C 531.23 223.58 523.57 228.18 519.20 235.18 C 514.18 243.00 513.85 252.99 516.28 261.75 C 517.56 262.74 519.25 262.94 520.76 263.46 C 529.43 265.89 537.88 269.56 546.96 270.18 C 553.03 270.63 559.16 268.71 564.04 265.12 C 565.74 263.81 567.83 262.49 568.11 260.15 C 570.47 250.65 570.80 239.60 564.71 231.38 C 559.01 223.58 548.55 220.74 539.32 222.31 Z" />
<path fill="#000000" opacity="1.00" d=" M 183.03 185.02 C 186.79 182.20 191.44 181.03 196.01 180.38 C 197.45 199.16 195.48 218.77 186.81 235.74 C 184.11 241.28 180.38 246.21 176.70 251.12 C 196.20 242.64 218.54 244.27 238.32 250.91 C 268.58 260.55 294.82 279.00 323.31 292.52 C 325.93 317.71 323.63 344.15 312.01 367.01 C 300.93 389.66 282.18 407.05 264.23 424.23 C 252.56 435.61 240.76 447.10 231.66 460.72 C 212.23 461.49 192.48 457.99 173.30 462.28 C 172.26 458.93 171.44 455.44 169.46 452.48 C 167.72 449.58 165.27 447.19 163.54 444.29 C 169.19 446.08 175.20 445.78 181.04 446.23 C 196.49 446.94 212.69 446.55 226.96 439.89 C 237.59 434.87 246.14 426.55 254.08 418.06 C 270.98 400.02 287.52 381.12 298.80 358.94 C 306.79 343.55 311.80 326.54 312.75 309.20 C 313.04 307.80 311.35 307.25 310.56 306.46 C 285.06 289.43 259.01 271.32 228.57 264.59 C 209.56 260.17 188.75 262.62 172.05 273.03 C 169.40 274.95 165.26 276.26 165.03 280.08 C 160.05 306.19 150.25 331.03 143.97 356.81 C 140.27 372.07 137.43 387.91 139.32 403.65 C 140.57 414.23 144.60 424.51 151.34 432.81 C 147.30 432.28 143.27 433.19 140.27 436.05 C 137.16 431.98 133.54 428.34 129.64 425.03 C 117.62 432.22 117.57 448.61 107.05 457.11 C 101.96 461.20 95.08 461.40 88.88 460.76 C 88.65 455.48 88.40 449.82 90.97 445.02 C 93.09 441.01 97.61 439.43 101.41 437.47 C 106.87 434.86 111.65 430.49 114.16 424.94 C 113.64 420.37 113.06 415.72 114.05 411.16 C 115.68 401.09 122.30 392.79 124.66 382.97 C 126.35 376.36 123.90 369.32 119.59 364.25 C 116.79 362.81 112.91 363.48 110.78 365.85 C 107.57 369.40 107.75 374.90 104.20 378.21 C 101.63 380.75 97.62 380.19 94.44 379.39 C 91.08 375.55 89.98 369.97 90.36 364.98 C 91.43 354.28 100.05 346.33 101.88 335.87 C 102.98 328.90 98.66 322.67 93.96 318.00 C 116.84 299.30 135.58 276.07 158.89 257.86 C 161.54 255.81 162.41 252.39 163.65 249.44 C 168.76 234.00 168.13 217.39 172.61 201.80 C 174.48 195.44 177.55 189.04 183.03 185.02 M 131.26 339.25 C 128.32 343.12 124.34 346.91 123.97 352.02 C 123.75 355.47 127.12 357.37 129.79 358.67 C 132.74 352.68 135.13 346.42 137.07 340.04 C 137.94 336.78 139.21 333.42 138.38 330.01 C 135.13 332.37 133.87 336.33 131.26 339.25 Z" />
<path fill="#000000" opacity="1.00" d=" M 539.32 222.31 C 548.55 220.74 559.01 223.58 564.71 231.38 C 570.80 239.60 570.47 250.65 568.11 260.15 C 567.83 262.49 565.74 263.81 564.04 265.12 C 559.16 268.71 553.03 270.63 546.96 270.18 C 537.88 269.56 529.43 265.89 520.76 263.46 C 519.25 262.94 517.56 262.74 516.28 261.75 C 513.85 252.99 514.18 243.00 519.20 235.18 C 523.57 228.18 531.23 223.58 539.32 222.31 M 531.56 236.48 C 530.38 241.72 529.97 247.86 533.67 252.25 C 539.54 259.11 551.40 258.35 557.29 251.93 C 556.66 245.90 555.12 238.93 549.77 235.31 C 544.07 232.08 537.20 234.18 531.56 236.48 Z" />
<path fill="#ffffff" opacity="1.00" d=" M 531.56 236.48 C 537.20 234.18 544.07 232.08 549.77 235.31 C 555.12 238.93 556.66 245.90 557.29 251.93 C 551.40 258.35 539.54 259.11 533.67 252.25 C 529.97 247.86 530.38 241.72 531.56 236.48 Z" />
<path fill="#ffffff" opacity="1.00" d=" M 172.05 273.03 C 188.75 262.62 209.56 260.17 228.57 264.59 C 259.01 271.32 285.06 289.43 310.56 306.46 C 311.35 307.25 313.04 307.80 312.75 309.20 C 311.80 326.54 306.79 343.55 298.80 358.94 C 287.52 381.12 270.98 400.02 254.08 418.06 C 246.14 426.55 237.59 434.87 226.96 439.89 C 212.69 446.55 196.49 446.94 181.04 446.23 C 175.20 445.78 169.19 446.08 163.54 444.29 C 162.68 441.96 162.55 439.13 160.74 437.30 C 157.76 435.49 154.15 434.94 151.34 432.81 C 144.60 424.51 140.57 414.23 139.32 403.65 C 137.43 387.91 140.27 372.07 143.97 356.81 C 150.25 331.03 160.05 306.19 165.03 280.08 C 165.26 276.26 169.40 274.95 172.05 273.03 M 168.36 340.35 C 159.85 345.36 155.64 355.42 155.04 364.94 C 154.49 373.21 155.85 381.79 159.98 389.05 C 163.80 390.89 168.42 391.05 172.55 390.25 C 178.43 389.04 182.20 383.95 187.26 381.18 C 189.95 379.66 193.07 379.32 196.09 379.08 C 198.16 365.21 194.81 351.39 190.85 338.18 C 183.40 336.43 175.10 336.29 168.36 340.35 Z" />
<path fill="#ffffff" opacity="1.00" d=" M 131.26 339.25 C 133.87 336.33 135.13 332.37 138.38 330.01 C 139.21 333.42 137.94 336.78 137.07 340.04 C 135.13 346.42 132.74 352.68 129.79 358.67 C 127.12 357.37 123.75 355.47 123.97 352.02 C 124.34 346.91 128.32 343.12 131.26 339.25 Z" />
<path fill="#ffffff" opacity="1.00" d=" M 699.89 333.65 C 706.69 337.28 713.36 341.98 717.09 348.93 C 721.07 356.36 721.41 365.18 720.01 373.34 C 714.05 364.49 705.95 356.89 702.26 346.68 C 700.69 342.51 699.99 338.08 699.89 333.65 Z" />
<path fill="#000000" opacity="1.00" d=" M 168.36 340.35 C 175.10 336.29 183.40 336.43 190.85 338.18 C 194.81 351.39 198.16 365.21 196.09 379.08 C 193.07 379.32 189.95 379.66 187.26 381.18 C 182.20 383.95 178.43 389.04 172.55 390.25 C 168.42 391.05 163.80 390.89 159.98 389.05 C 155.85 381.79 154.49 373.21 155.04 364.94 C 155.64 355.42 159.85 345.36 168.36 340.35 M 170.44 353.37 C 170.76 360.68 169.66 368.29 165.27 374.35 C 172.01 374.56 179.04 371.53 182.62 365.65 C 184.25 362.97 184.90 358.93 182.44 356.53 C 179.38 353.27 174.52 353.64 170.44 353.37 Z" />
<path fill="#ffffff" opacity="1.00" d=" M 170.44 353.37 C 174.52 353.64 179.38 353.27 182.44 356.53 C 184.90 358.93 184.25 362.97 182.62 365.65 C 179.04 371.53 172.01 374.56 165.27 374.35 C 169.66 368.29 170.76 360.68 170.44 353.37 Z" />
<path fill="#ffffff" opacity="1.00" d=" M 405.00 373.98 C 407.47 369.50 413.20 368.36 417.91 368.05 C 429.02 367.92 439.61 371.66 450.29 374.18 C 450.41 381.03 449.15 388.27 444.76 393.75 C 440.01 399.86 432.44 402.86 425.07 404.39 C 419.85 393.38 413.71 382.62 405.00 373.98 Z" />
<path fill="#ffffff" opacity="1.00" d=" M 352.70 383.71 C 363.39 375.70 376.23 370.50 389.53 369.15 C 400.87 380.89 401.49 399.59 414.60 409.92 C 412.57 420.26 408.42 430.42 401.29 438.30 C 389.34 451.75 371.38 457.76 354.06 460.32 C 351.37 452.26 348.73 444.07 344.18 436.81 C 339.02 428.10 331.90 420.63 323.62 414.83 C 331.91 403.31 341.32 392.30 352.70 383.71 Z" />
<path fill="#ffffff" opacity="1.00" d=" M 465.66 379.66 C 468.19 378.57 471.25 379.61 473.85 380.24 C 482.24 383.09 487.75 390.60 492.01 397.97 C 498.84 409.38 503.59 422.31 513.04 431.95 C 516.41 435.48 520.52 438.39 525.19 439.88 C 540.65 444.73 558.11 444.12 572.62 436.58 C 580.57 432.66 587.29 426.68 593.02 419.99 C 605.02 423.52 614.51 432.63 620.75 443.23 C 631.68 460.89 637.15 482.51 653.62 496.28 C 642.15 510.47 626.96 521.60 609.78 527.83 C 586.09 536.42 560.76 538.54 535.90 541.38 C 492.85 545.64 450.66 556.80 410.48 572.67 C 375.97 586.45 342.76 603.79 312.69 625.69 C 291.92 640.81 272.71 658.33 257.11 678.81 C 253.93 664.89 257.63 650.59 262.35 637.47 C 269.41 618.17 278.59 599.38 281.73 578.89 C 283.23 570.03 283.32 561.00 282.63 552.07 C 296.39 542.83 312.50 537.72 325.91 527.93 C 334.47 521.74 341.02 512.54 343.04 502.07 C 344.54 495.16 344.44 488.04 343.70 481.05 C 362.77 477.82 380.53 469.26 396.42 458.45 C 425.47 438.34 449.06 410.76 465.66 379.66 Z" />
<path fill="#ffffff" opacity="1.00" d=" M 511.75 410.01 C 514.30 406.51 519.60 405.62 523.42 407.59 C 531.75 411.55 538.25 418.94 547.39 421.32 C 553.88 423.42 560.72 422.17 567.12 420.45 C 563.77 425.31 557.46 426.19 552.03 426.69 C 540.52 427.18 528.48 424.71 518.91 418.07 C 515.97 415.96 513.43 413.23 511.75 410.01 Z" />
<path fill="#ffffff" opacity="1.00" d=" M 296.20 471.29 C 300.72 455.54 306.69 440.24 313.08 425.17 C 326.22 436.44 332.22 454.06 332.74 470.98 C 333.25 487.78 328.77 505.55 317.20 518.16 C 309.79 526.53 298.86 531.34 287.74 531.73 C 287.53 511.30 290.65 490.91 296.20 471.29 Z" />
<path fill="#7ffff8" opacity="1.00" d=" M 140.27 436.05 C 143.27 433.19 147.30 432.28 151.34 432.81 C 154.15 434.94 157.76 435.49 160.74 437.30 C 162.55 439.13 162.68 441.96 163.54 444.29 C 165.27 447.19 167.72 449.58 169.46 452.48 C 171.44 455.44 172.26 458.93 173.30 462.28 C 172.26 466.41 170.91 470.71 167.74 473.74 C 164.62 477.01 160.00 478.57 157.43 482.39 C 154.95 485.84 152.84 489.67 149.53 492.42 C 146.30 495.17 140.74 493.90 138.92 490.11 C 136.06 483.69 132.90 476.48 135.47 469.42 C 139.32 458.72 139.27 447.24 140.27 436.05 Z" />
<path fill="#ffffff" opacity="1.00" d=" M 27.98 526.60 C 34.15 533.05 37.40 541.64 39.85 550.07 C 44.97 568.59 45.89 587.95 50.52 606.58 C 52.71 615.17 55.65 623.80 61.07 630.94 C 63.30 633.95 66.20 636.36 68.82 639.01 C 63.71 639.22 58.29 638.11 54.45 634.53 C 47.74 628.41 44.64 619.49 42.20 610.98 C 34.85 583.33 34.85 554.35 27.98 526.60 Z" />
<path fill="#000000" opacity="1.00" d=" M 1005.04 653.77 C 1032.22 648.67 1058.25 637.76 1086.03 635.88 C 1099.90 634.95 1114.77 637.23 1125.93 646.08 C 1130.41 649.77 1134.86 654.02 1137.41 659.28 C 1137.57 676.27 1137.54 693.27 1137.42 710.26 C 1132.17 698.51 1130.64 685.56 1126.51 673.44 C 1123.77 665.46 1119.77 657.23 1112.34 652.64 C 1104.74 647.75 1095.18 647.61 1086.52 648.97 C 1079.80 675.17 1086.18 702.51 1081.23 728.93 C 1080.21 734.60 1078.52 740.13 1076.56 745.54 C 1070.04 747.58 1064.34 751.82 1060.31 757.31 C 1052.30 767.79 1048.76 781.05 1040.05 791.05 C 1035.05 796.97 1027.82 800.81 1020.12 801.64 C 1019.49 792.41 1021.90 783.20 1025.89 774.94 C 1034.51 756.95 1047.87 741.76 1056.79 723.94 C 1062.49 712.86 1066.40 700.54 1066.01 687.96 C 1065.78 675.96 1061.54 664.45 1055.88 654.00 C 1048.45 653.02 1040.03 652.94 1033.87 657.84 C 1028.58 662.01 1026.27 668.69 1025.12 675.10 C 1022.26 691.09 1024.64 707.81 1019.50 723.43 C 1013.97 741.28 1006.54 758.99 994.49 773.48 C 986.84 782.68 976.34 790.41 964.10 791.53 C 968.40 775.26 977.44 760.86 984.89 745.94 C 990.21 735.51 995.34 724.87 998.42 713.54 C 1000.77 704.79 1001.76 695.43 999.58 686.54 C 996.87 675.31 989.13 665.73 979.65 659.41 C 974.27 659.11 968.73 658.41 963.42 659.59 C 961.10 660.01 960.03 662.19 959.01 664.05 C 958.59 660.58 958.10 656.88 959.56 653.57 C 960.84 650.76 963.98 649.31 966.96 649.26 C 979.86 648.69 992.08 655.61 1005.04 653.77 Z" />
<path fill="#000000" opacity="1.00" d=" M 913.53 754.61 C 927.37 727.73 930.99 696.99 943.96 669.77 C 952.92 693.48 951.99 720.89 940.57 743.62 C 930.78 763.47 913.90 779.45 894.07 789.11 C 875.00 798.71 853.34 802.28 832.13 801.48 C 824.48 771.29 830.30 739.69 824.48 709.24 C 823.08 702.24 820.78 695.32 816.83 689.32 C 806.02 688.58 794.58 690.18 785.60 696.65 C 773.35 705.28 767.27 719.98 764.07 734.13 C 758.78 758.76 759.97 784.22 762.42 809.12 C 764.25 825.88 766.82 842.57 770.18 859.10 C 770.41 860.63 771.17 862.38 770.01 863.76 C 760.69 878.62 746.65 889.80 731.81 898.79 C 716.66 907.88 700.58 915.26 684.80 923.17 C 687.54 912.88 694.44 904.15 702.85 897.82 C 715.09 888.19 729.83 882.02 741.07 871.07 C 744.96 866.98 748.95 862.48 750.66 857.03 C 748.30 816.69 743.88 776.00 749.56 735.74 C 752.27 717.30 757.63 698.83 768.26 683.31 C 769.52 681.60 770.61 679.44 772.82 678.82 C 785.09 674.23 799.13 671.31 811.76 676.23 C 823.33 680.72 830.89 691.57 835.48 702.65 C 844.38 724.29 846.50 747.85 850.41 770.72 C 851.13 774.25 851.26 777.96 852.59 781.34 C 864.92 784.88 878.88 785.67 890.60 779.68 C 900.98 774.39 908.23 764.71 913.53 754.61 Z" />
<path fill="#000000" opacity="1.00" d=" M 1135.69 739.87 C 1137.19 731.62 1138.15 722.95 1142.37 715.55 C 1142.65 742.00 1142.46 768.47 1142.47 794.92 C 1140.64 804.79 1134.53 813.50 1127.01 819.98 C 1112.05 832.61 1092.14 837.43 1077.36 850.32 C 1064.06 861.89 1054.93 877.22 1043.30 890.31 C 1032.80 902.70 1019.41 912.19 1005.68 920.65 C 985.08 933.10 962.89 942.84 939.94 950.02 C 924.78 954.60 909.20 958.35 893.32 959.05 C 897.76 949.76 905.56 942.35 914.71 937.75 C 932.67 928.28 953.56 926.76 971.67 917.67 C 988.86 909.15 1005.68 899.64 1020.85 887.83 C 1040.04 872.20 1051.86 849.68 1070.14 833.16 C 1077.83 826.48 1087.41 822.61 1096.78 818.93 C 1104.93 815.65 1113.43 812.13 1119.39 805.41 C 1124.60 799.65 1126.68 791.93 1128.49 784.57 C 1131.86 769.84 1133.29 754.77 1135.69 739.87 Z" />
<path fill="#000000" opacity="1.00" d=" M 170.84 765.90 C 180.83 767.07 191.37 768.36 199.96 774.04 C 206.00 777.92 210.16 784.41 211.35 791.48 C 204.28 792.39 196.54 790.82 191.40 785.61 C 184.60 778.98 180.26 769.42 170.84 765.90 Z" />
<path fill="#000000" opacity="1.00" d=" M 934.43 857.50 C 941.60 855.47 947.65 860.47 953.99 862.81 C 949.10 877.41 938.27 889.22 925.59 897.58 C 908.44 909.24 888.64 916.48 872.05 929.02 C 858.38 939.44 849.38 954.38 837.84 966.86 C 830.69 974.61 821.97 981.11 811.90 984.48 C 814.09 964.56 823.20 945.54 837.32 931.32 C 863.35 904.53 900.24 891.99 926.68 865.68 C 929.43 863.12 931.55 859.93 934.43 857.50 Z" />
</svg>
