<?xml version="1.0" encoding="utf-8"?> <!-- Generator: Adobe Illustrator 14.0.0, SVG Export Plug-In . SVG Version: 6.00 Build 43363) --> <!DOCTYPE svg PUBLIC "-//W3C//DTD SVG 1.0//EN" "http://www.w3.org/TR/2001/REC-SVG-20010904/DTD/svg10.dtd"> <svg version="1.0" xmlns="http://www.w3.org/2000/svg" xmlns:xlink="http://www.w3.org/1999/xlink" x="0px" y="0px" width="500px" height="500px" viewBox="0 0 500 500" enable-background="new 0 0 500 500" xml:space="preserve">
<g id="Yay_face">
	<g>
		<g id="XMLID_5_">
			<g>
				<path d="M446.503,344.495c6.344,2.282,1.22,16.004,2.87,22.966c-12.76,29.338-22.922,61.26-38.739,87.541
					c-2.599-17.425,15.645-45.241,20.08-70.317c2.34-3.416,5.713-5.784,8.612-8.611c-1.952-14.942-1.938-31.865-2.053-48.63
					l3.66-0.028c0.144,13.19,0.832,26.611,2.698,40.046C447.895,363.098,442.254,348.858,446.503,344.495z"/>
				<path fill="#FFFFFF" d="M422.188,191.675c2.584,21.085,17.396,29.898,12.832,58.103c-6.301-20.411-13.319-40.104-20.252-59.882
					c-1.378-3.947-2.771-7.909-4.134-11.871c4.895,3.23,4.794,11.454,11.468,12.904
					C422.131,191.187,422.159,191.431,422.188,191.675z"/>
				<path d="M414.768,189.895c6.933,19.779,13.951,39.472,20.252,59.882c4.564-28.205-10.248-37.018-12.832-58.103l1.981-0.244
					c0.861,2.153,1.622,4.378,2.239,6.674c21.214,32.353,13.994,79.231,14.525,129.31l-3.66,0.028
					c-0.187-22.635-0.617-44.998-6.56-61.877c-1.909-25.98-11.139-48.716-18.646-71.768c-0.287-0.89-0.588-1.765-0.89-2.641
					L414.768,189.895z"/>
				<path d="M422.102,190.928c-6.674-1.45-6.573-9.674-11.468-12.904c1.363,3.962,2.756,7.923,4.134,11.871l-3.589,1.263
					c-9.444-27.013-26.166-48.185-34.993-70.547c10.406,2.986,8.181,18.602,17.224,22.966c0.589-2.942,0.689-5.455,0.416-7.636
					l3.99-0.431c2.211,22.104,18.588,36.515,26.354,55.921l-1.981,0.244C422.159,191.431,422.131,191.187,422.102,190.928z"/>
				<path d="M397.815,135.51l-3.99,0.431c-1.55-13.349-16.521-14.841-17.64-31.118c-5.828-0.56-1.579,8.942-2.871,12.918
					c-6.431-10.306-4.062-29.424-18.659-31.577c-0.445-3.301,4.148-1.593,4.306-4.306c-9.416-11.928-20.41-24.43-34.204-33.53
					l1.637-2.583c30.975,19.664,51.155,50.122,71.321,80.609C397.472,129.553,397.515,132.61,397.815,135.51z"/>
				<path fill="#FFFFFF" d="M376.186,120.611c8.827,22.363,25.549,43.534,34.993,70.547c0.302,0.875,0.603,1.751,0.89,2.641
					c7.507,23.052,16.736,45.788,18.646,71.768c5.942,16.879,6.373,39.242,6.56,61.877c0.114,16.765,0.101,33.688,2.053,48.63
					c-2.899,2.827-6.272,5.195-8.612,8.611c-4.436,25.076-22.679,52.893-20.08,70.317c-143.563,70.992-252.591-1.436-252.591-1.436
					c0.071-11.64-13.823-13.248-21.53-17.224c-8.712-4.492-17.109-9.344-24.401-14.354c-1.694-14.568-13.234-19.291-20.095-28.692
					c1.22-19.707-8.612-36.199-13.492-52.835c-0.316-1.048-0.603-2.096-0.861-3.144c-3.057-12.171-0.79-26.181-10.033-35.883
					c1.823-13.205,1.263-38.798,1.349-63.442c0-3.775,0.029-7.507,0.086-11.181c7.722-15.703,15.387-31.492,12.904-57.399
					c26.54-31.836,53.926-62.811,78.944-96.153c12.731-14.54,43.089-11.454,63.141-18.66c-5.296-0.918-14.296,1.852-17.224-1.435
					c16.291-5.354,36.256-12,53.108-15.789c3.903-0.875,7.693-1.507,11.339-1.909c21.76-2.369,39.142,3.416,53.48,12.86
					c13.794,9.1,24.788,21.602,34.204,33.53c-0.157,2.713-4.751,1.005-4.306,4.306c14.598,2.153,12.229,21.271,18.659,31.577
					c1.292-3.976-2.957-13.478,2.871-12.918c1.119,16.277,16.09,17.77,17.64,31.118c0.273,2.182,0.173,4.694-0.416,7.636
					C384.366,139.213,386.592,123.597,376.186,120.611z M366.138,297.144c6.688-28.821-4.277-51.715-18.659-67.461
					c0,21.2,23.396,36.386,12.918,64.59c-10.895,3.273-17.697,14.023-30.143,15.774c-19.707,2.799-28.62-10.047-41.61-18.645
					c-3.474,6.157,3.804,8.612,4.307,15.774c0.703,10.147-4.723,18.214-8.612,25.836c-10.205,3.086-13.478,10.378-22.966,11.482
					c-27.645,3.229-32.754-28.262-51.672-31.577c12.33,16.664,27.027,42.084,54.543,37.318c16.55-2.87,35.166-22.979,35.884-43.06
					C319.733,326.783,351.182,308.009,366.138,297.144z M341.737,157.93c-1.091-12.903-19.55-20.54-27.271-31.577
					c-4.063-0.244-5.972-2.627-10.033-2.871c-7.952-9.761-18.387-17.023-33.013-20.095c-2.168-2.139-0.431-8.182-5.741-7.177
					c-1.981,19.162-3.086,44.582-2.871,64.59c0.072,7.492-3.215,19.076,4.306,21.53c3.402-22.434-0.315-51.988,4.307-73.202
					C300.672,119.578,318.398,141.567,341.737,157.93z M166.654,218.2c11.54,2.583,24.846-0.947,35.869,1.436
					c-3.287-11.052-22.822-5.871-35.869-7.177c-11.842-9.215-24.76-17.339-38.754-24.401c-4.148,22.406-0.014,54.801,1.436,71.767
					c11.54-2.469,3.603-15.042,2.871-22.965c-1.22-13.09,0.918-27.401,0-40.189C143.961,199.253,152.861,215.114,166.654,218.2z"/>
				<path d="M347.479,229.683c14.382,15.746,25.348,38.64,18.659,67.461c-14.956,10.865-46.404,29.64-66.011,10.033
					c-0.718,20.08-19.334,40.189-35.884,43.06c-27.516,4.766-42.213-20.654-54.543-37.318c18.917,3.315,24.027,34.807,51.672,31.577
					c9.488-1.104,12.761-8.396,22.966-11.482c3.89-7.622,9.315-15.688,8.612-25.836c-0.503-7.162-7.78-9.617-4.307-15.774
					c12.99,8.598,21.903,21.443,41.61,18.645c12.445-1.751,19.248-12.501,30.143-15.774
					C370.874,266.068,347.479,250.882,347.479,229.683z"/>
				<path d="M304.433,123.482c4.062,0.244,5.971,2.626,10.033,2.871c7.722,11.038,26.181,18.674,27.271,31.577
					c-23.339-16.363-41.065-38.352-70.317-48.801c-4.622,21.214-0.904,50.768-4.307,73.202c-7.521-2.454-4.233-14.038-4.306-21.53
					c-0.215-20.009,0.89-45.429,2.871-64.59c5.311-1.005,3.573,5.038,5.741,7.177C286.046,106.458,296.48,113.721,304.433,123.482z"
					/>
				<path d="M324.513,44.552c0.632,0.388,1.264,0.775,1.881,1.191l-1.637,2.583c-14.339-9.444-31.721-15.229-53.48-12.86l-0.33-3.33
					c9.789-0.976,19.334-1.292,27.745-0.502c5.913,0.545,14.984,0.388,18.645,7.177c4.048-1.493,13.436-2.756,17.225,0
					C334.675,44.179,324.398,39.17,324.513,44.552z"/>
				<path d="M202.523,219.635c-11.023-2.383-24.329,1.148-35.869-1.436c-13.793-3.086-22.693-18.946-34.448-21.53
					c0.918,12.789-1.22,27.099,0,40.189c0.732,7.923,8.669,20.496-2.871,22.965c-1.45-16.965-5.583-49.361-1.436-71.767
					c13.995,7.062,26.913,15.186,38.754,24.401C179.702,213.765,199.236,208.583,202.523,219.635z"/>
				<path d="M82.888,391.13c-6.258-10.076-9.933-22.736-18.128-30.846c-10.019-49.863-6.933-118.588-7.176-173.662
					c7.865,6.301,4.306,19.19,4.306,28.707c0,27.846-0.387,60.184,1.019,88.991c0.976,19.735,2.785,37.807,6.158,51.658
					c5.167,12.042,15.171,19.262,17.21,34.448L82.888,391.13z"/>
				<path d="M65.003,237.993c0-4.12-0.072-8.325-0.244-12.617c3.043-12,15.631-27.4,10.047-38.754
					c-6.042,1.334,3.488,12.918-5.741,12.918c-3.315-9.172,1.378-22.162,8.598-31.563c1.708-9.315-4.019-26.037,4.306-28.707
					c1.607,4.349-0.904,10.894,0,18.659c19.406-20.31,33.616-45.801,55.978-63.155c0.833-4.909,4.794-6.674,4.306-12.918
					c12.703-1.694,15.99-19.363,28.707-24.387c7.249-2.871,19.75-3.56,30.127-7.176c7.292-2.541,13.722-7.349,18.66-8.612
					c14.282-3.66,33.17-7.736,51.199-9.545l0.33,3.33c-3.646,0.402-7.436,1.033-11.339,1.909
					c-16.852,3.79-36.817,10.435-53.108,15.789c2.928,3.287,11.928,0.517,17.224,1.435c-20.052,7.206-50.409,4.12-63.141,18.66
					c-25.018,33.343-52.404,64.317-78.944,96.153c2.483,25.908-5.182,41.697-12.904,57.399c-0.057,3.674-0.086,7.406-0.086,11.181
					H65.003z"/>
				<path d="M158.042,453.566c-14.583-10.779-33.573-17.138-48.802-27.271c-3.459-10.406-8.325-19.406-17.224-24.387
					c-0.144,21.674,11.396,39.313,14.354,53.093c-14.942-12.286-16.521-31.735-18.66-57.399c-1.809-1.966-3.387-4.147-4.823-6.473
					l3.388-0.703c-1.665-15.545-5.569-32.798-10.435-49.448l2.684-0.517c4.88,16.636,14.712,33.128,13.492,52.835
					c6.861,9.401,18.401,14.124,20.095,28.692c7.292,5.01,15.688,9.861,24.401,14.354
					C144.22,440.318,158.114,441.927,158.042,453.566z"/>
				<path fill="#FFFFFF" d="M86.275,390.427c-2.039-15.187-12.042-22.406-17.21-34.448c-3.373-13.852-5.182-31.923-6.158-51.658
					l0.417-0.015c4.363,11.139,8.727,23.712,12.516,36.673C80.706,357.629,84.61,374.882,86.275,390.427z"/>
				<path d="M68.979,237.993c-0.086,24.645,0.474,50.237-1.349,63.442c9.243,9.702,6.976,23.712,10.033,35.883
					c0.258,1.048,0.545,2.096,0.861,3.144l-2.684,0.517c-3.79-12.961-8.153-25.534-12.516-36.673
					c-0.459-23.123,1.679-43.648,1.679-66.313H68.979z"/>
			</g>
			<g>
			</g>
		</g>
	</g>
</g>

</svg>
