<?xml version="1.0" encoding="UTF-8" ?>
<!DOCTYPE svg PUBLIC "-//W3C//DTD SVG 1.1//EN" "http://www.w3.org/Graphics/SVG/1.1/DTD/svg11.dtd">
<svg width="322pt" height="239pt" viewBox="0 0 322 239" version="1.1" xmlns="http://www.w3.org/2000/svg">
<path fill="#cc0000" opacity="1.00" d=" M 75.11 18.00 C 77.03 18.00 78.96 18.00 80.89 18.00 C 81.92 20.09 82.96 22.17 84.01 24.25 C 85.06 22.16 86.11 20.08 87.14 17.98 C 88.67 18.00 90.20 18.03 91.74 18.05 C 90.08 20.65 88.54 23.32 87.11 26.05 C 85.42 28.74 86.38 32.06 86.16 35.05 C 84.40 35.01 82.64 34.93 80.88 34.80 C 80.92 32.56 81.05 30.31 80.86 28.07 C 79.36 24.49 76.99 21.37 75.11 18.00 Z" />
<path fill="#cc0000" opacity="1.00" d=" M 95.15 19.12 C 97.00 17.65 99.44 18.03 101.63 17.98 C 104.44 19.38 107.02 21.80 107.12 25.15 C 107.89 29.32 105.36 33.27 101.65 35.03 C 98.15 35.51 94.34 34.44 92.53 31.19 C 90.68 27.25 91.15 21.59 95.15 19.12 M 98.03 21.90 C 96.83 24.72 96.08 28.38 98.25 30.95 C 102.29 31.95 101.96 26.61 101.55 24.10 C 101.51 22.14 99.56 21.95 98.03 21.90 Z" />
<path fill="#cc0000" opacity="1.00" d=" M 109.11 18.01 C 110.79 18.01 112.47 18.00 114.15 18.00 C 114.35 22.39 113.61 26.89 114.77 31.19 C 116.11 30.90 118.12 31.37 118.51 29.57 C 118.71 25.71 118.49 21.85 118.57 17.98 C 119.92 18.00 121.28 18.02 122.63 18.03 C 122.50 22.34 122.86 26.66 122.42 30.95 C 122.23 33.03 120.12 33.96 118.61 34.99 C 116.87 34.99 115.13 34.99 113.40 35.00 C 111.75 34.02 109.44 33.16 109.29 30.93 C 108.92 26.63 109.21 22.32 109.11 18.01 Z" />
<path fill="#cc0000" opacity="1.00" d=" M 131.38 18.04 C 135.12 18.30 139.36 17.00 142.67 19.32 C 147.32 22.53 147.37 30.53 142.60 33.66 C 139.36 36.05 135.10 34.67 131.38 34.95 C 131.42 29.32 131.42 23.68 131.38 18.04 M 136.28 21.94 C 136.30 24.94 136.31 27.95 136.29 30.96 C 136.93 30.98 138.22 31.03 138.86 31.06 C 142.01 28.46 141.61 20.88 136.28 21.94 Z" />
<path fill="#cc0000" opacity="1.00" d=" M 151.23 19.08 C 153.06 17.63 155.47 18.05 157.64 17.98 C 160.44 19.38 163.02 21.80 163.12 25.16 C 163.89 29.33 161.35 33.29 157.63 35.03 C 154.13 35.51 150.32 34.43 148.52 31.17 C 146.66 27.21 147.18 21.51 151.23 19.08 M 154.04 21.89 C 152.82 24.72 152.10 28.33 154.21 30.93 C 158.30 31.99 157.97 26.59 157.53 24.05 C 157.50 22.12 155.53 21.96 154.04 21.89 Z" />
<path fill="#cc0000" opacity="1.00" d=" M 165.20 18.01 C 166.80 18.00 168.39 18.00 169.99 18.01 C 171.86 21.27 173.92 24.41 175.72 27.72 C 175.47 24.50 175.37 21.28 175.36 18.06 C 176.72 18.03 178.08 18.00 179.45 17.97 C 179.46 23.66 179.46 29.35 179.45 35.04 C 178.09 35.00 176.73 34.96 175.38 34.92 C 173.30 31.46 171.33 27.93 169.20 24.50 C 169.31 28.01 169.33 31.51 169.29 35.01 C 167.92 35.00 166.56 34.99 165.19 34.97 C 165.22 29.32 165.21 23.66 165.20 18.01 Z" />
<path fill="#cc0000" opacity="1.00" d=" M 182.06 18.00 C 182.92 18.00 184.63 18.00 185.49 18.00 C 184.83 20.42 186.61 25.38 182.81 25.20 C 182.47 22.81 182.23 20.41 182.06 18.00 Z" />
<path fill="#cc0000" opacity="1.00" d=" M 186.86 18.01 C 190.78 18.00 194.70 17.99 198.62 18.02 C 198.62 19.33 198.63 20.64 198.63 21.95 C 197.47 21.98 196.30 22.01 195.14 22.04 C 195.16 26.36 195.15 30.69 195.15 35.01 C 193.56 35.00 191.97 34.98 190.38 34.96 C 190.42 30.64 190.40 26.33 190.40 22.01 C 189.52 22.00 187.75 21.99 186.86 21.99 C 186.86 20.66 186.86 19.33 186.86 18.01 Z" />
<path fill="#cc0000" opacity="1.00" d=" M 206.78 19.77 C 208.92 17.00 212.70 18.26 215.69 17.99 C 216.91 19.11 218.09 20.27 219.25 21.46 C 216.33 23.62 213.35 21.94 210.18 21.94 C 210.70 24.75 213.94 23.88 215.90 25.01 C 219.34 25.96 220.58 30.94 217.95 33.37 C 215.45 36.08 211.51 34.67 208.29 35.04 C 206.70 33.84 205.46 32.30 204.33 30.68 C 205.74 29.80 207.26 29.12 208.90 28.81 C 209.24 29.36 209.92 30.45 210.26 30.99 C 211.68 30.99 213.10 30.98 214.52 30.95 C 213.89 28.37 210.78 29.19 208.94 28.06 C 205.38 27.15 204.26 22.29 206.78 19.77 Z" />
<path fill="#cc0000" opacity="1.00" d=" M 225.18 18.03 C 226.97 18.02 228.76 18.03 230.55 18.08 C 232.41 23.68 234.00 29.36 236.00 34.90 C 234.20 34.96 232.40 34.98 230.60 34.95 C 230.47 34.23 230.20 32.78 230.06 32.06 C 228.29 32.02 226.53 32.00 224.77 31.98 C 224.48 32.95 224.20 33.93 223.92 34.90 C 222.52 34.95 221.11 34.99 219.71 35.03 C 221.48 29.35 223.33 23.69 225.18 18.03 M 226.07 27.34 C 226.32 27.51 226.82 27.87 227.07 28.04 C 229.68 28.50 228.36 25.31 227.56 24.21 C 226.37 24.42 226.29 26.34 226.07 27.34 Z" />
<path fill="#cc0000" opacity="1.00" d=" M 235.10 18.01 C 237.03 18.00 238.96 18.00 240.89 18.00 C 241.91 20.08 242.95 22.16 244.00 24.24 C 245.06 22.16 246.11 20.08 247.13 17.99 C 248.67 18.00 250.21 18.01 251.75 18.02 C 249.77 21.26 247.70 24.50 246.24 28.01 C 246.04 30.35 246.16 32.70 246.16 35.04 C 244.41 35.00 242.66 34.94 240.91 34.87 C 240.92 32.60 241.05 30.32 240.85 28.05 C 239.35 24.49 236.99 21.37 235.10 18.01 Z" />
<path fill="#cc0000" opacity="1.00" d=" M 251.02 23.81 C 251.97 20.74 254.42 17.43 258.05 17.94 C 261.43 17.48 265.45 21.06 263.83 24.55 C 262.82 26.34 260.98 27.47 259.57 28.93 C 258.28 28.96 257.00 28.99 255.73 29.01 C 255.51 26.96 256.95 25.64 258.26 24.30 C 259.32 23.58 259.69 21.09 257.95 21.06 C 255.98 20.30 255.89 22.75 255.48 23.95 C 253.99 23.94 252.50 23.89 251.02 23.81 Z" />
<path fill="#cc0000" opacity="1.00" d=" M 255.57 30.00 C 257.14 30.00 258.72 30.00 260.30 30.00 C 260.29 31.67 260.29 33.33 260.30 35.00 C 258.72 35.00 257.14 35.00 255.57 35.00 C 255.56 33.33 255.56 31.67 255.57 30.00 Z" />
<path fill="#000000" opacity="1.00" d=" M 157.78 51.75 C 170.96 48.47 184.73 49.76 197.97 51.90 C 207.11 53.21 215.55 57.52 222.96 62.88 C 229.56 67.64 234.78 73.95 239.79 80.28 C 246.95 89.54 253.28 99.59 257.40 110.59 C 260.53 119.39 262.29 128.68 262.52 138.02 C 262.41 143.76 261.74 149.70 258.87 154.78 C 255.59 160.75 253.67 167.36 250.38 173.32 C 249.59 174.46 249.00 176.59 247.16 175.80 C 242.23 174.88 237.24 174.45 232.23 174.68 C 238.35 175.89 244.63 175.60 250.80 176.51 C 258.29 177.53 265.71 179.12 273.04 181.00 C 290.39 185.62 306.42 194.22 320.93 204.67 C 320.89 206.46 320.81 210.04 320.77 211.84 L 322.00 220.48 L 322.00 239.00 L 199.94 239.00 L 209.89 238.18 L 195.25 237.76 C 197.93 227.05 200.69 216.33 202.75 205.48 C 199.09 208.97 196.32 213.26 192.72 216.81 C 187.09 222.87 180.52 227.97 173.52 232.33 C 170.00 234.45 166.69 237.10 162.66 238.22 C 176.03 229.03 189.75 219.75 200.04 207.01 C 202.33 204.32 205.02 202.01 207.37 199.38 C 209.32 196.96 210.03 193.84 210.84 190.91 C 216.17 188.92 221.83 187.04 225.89 182.85 C 232.07 176.61 233.86 167.43 234.30 158.98 C 234.66 155.82 232.97 151.09 229.01 151.88 C 221.58 153.04 215.18 157.49 208.92 161.39 C 212.41 152.11 215.61 142.66 217.42 132.90 C 218.30 128.32 217.72 123.50 219.01 119.01 C 222.88 112.23 226.23 104.39 224.51 96.43 C 222.31 88.32 215.18 82.91 208.61 78.32 C 195.02 69.88 180.21 62.07 163.98 60.89 C 155.36 60.17 146.88 63.79 140.80 69.79 C 134.05 75.93 129.62 83.99 125.10 91.79 C 127.05 87.08 127.97 82.00 130.21 77.39 C 132.27 73.16 134.57 69.03 137.21 65.13 C 141.97 58.17 149.68 53.70 157.78 51.75 Z" />
<path fill="#ffffff" opacity="1.00" d=" M 140.80 69.79 C 146.88 63.79 155.36 60.17 163.98 60.89 C 180.21 62.07 195.02 69.88 208.61 78.32 C 215.18 82.91 222.31 88.32 224.51 96.43 C 226.23 104.39 222.88 112.23 219.01 119.01 C 217.72 123.50 218.30 128.32 217.42 132.90 C 215.61 142.66 212.41 152.11 208.92 161.39 C 215.18 157.49 221.58 153.04 229.01 151.88 C 232.97 151.09 234.66 155.82 234.30 158.98 C 233.86 167.43 232.07 176.61 225.89 182.85 C 221.83 187.04 216.17 188.92 210.84 190.91 C 210.03 193.84 209.32 196.96 207.37 199.38 C 205.02 202.01 202.33 204.32 200.04 207.01 C 189.75 219.75 176.03 229.03 162.66 238.22 C 166.69 237.10 170.00 234.45 173.52 232.33 C 180.52 227.97 187.09 222.87 192.72 216.81 C 196.32 213.26 199.09 208.97 202.75 205.48 C 200.69 216.33 197.93 227.05 195.25 237.76 L 209.89 238.18 L 199.94 239.00 L 118.69 239.00 L 109.38 238.18 L 123.28 237.76 C 122.05 232.00 120.52 226.31 119.02 220.62 C 122.32 221.53 125.88 222.17 128.68 224.24 C 130.82 226.86 132.01 230.15 134.32 232.66 C 136.32 235.24 139.33 236.64 142.14 238.15 C 137.48 234.81 134.01 230.27 131.91 224.95 C 136.81 225.08 142.16 224.22 145.31 220.05 C 141.22 222.41 136.79 224.44 131.98 224.54 C 128.16 222.38 124.32 219.99 119.83 219.59 C 115.79 219.43 113.06 216.01 111.02 212.92 C 107.61 207.60 108.60 201.02 108.61 195.05 C 108.98 184.62 108.44 174.17 106.94 163.85 C 106.73 153.21 107.58 142.51 109.60 132.06 C 110.79 125.30 115.90 120.21 117.75 113.70 C 120.14 106.38 122.69 99.10 125.10 91.79 C 129.62 83.99 134.05 75.93 140.80 69.79 M 126.12 93.40 C 129.16 92.00 132.67 90.51 136.00 91.85 C 141.47 93.87 144.71 99.07 147.93 103.60 C 148.69 101.21 148.70 98.61 147.53 96.34 C 145.22 91.77 141.69 87.49 136.89 85.44 C 131.93 85.26 128.93 90.02 126.12 93.40 M 122.66 110.86 C 125.70 114.12 129.36 117.35 133.94 118.00 C 137.72 118.33 140.62 115.54 143.10 113.10 C 143.21 108.17 139.68 103.06 134.53 102.60 C 129.17 102.14 124.94 106.45 122.66 110.86 M 165.97 108.86 C 175.32 106.84 185.47 108.28 193.62 113.40 C 196.13 115.15 197.47 118.01 199.07 120.52 C 198.89 115.00 195.60 109.86 190.82 107.16 C 187.57 105.33 184.06 102.69 180.12 103.59 C 175.13 104.47 170.41 106.47 165.97 108.86 M 129.90 135.74 C 137.05 129.77 143.18 122.60 147.98 114.63 C 141.91 121.62 135.64 128.47 129.90 135.74 M 164.01 123.99 C 166.61 128.12 171.30 131.00 175.86 132.71 C 180.41 133.26 185.92 133.55 189.56 130.28 C 186.43 124.90 183.19 118.01 176.48 116.64 C 171.48 116.50 166.54 119.88 164.01 123.99 M 151.93 140.92 C 151.85 133.77 152.63 126.68 154.92 119.89 C 151.17 126.12 150.12 133.87 151.93 140.92 M 123.62 138.72 C 123.13 140.72 123.33 143.21 120.91 143.96 C 115.17 147.64 112.63 154.63 113.24 161.24 C 115.07 155.30 117.11 149.13 121.70 144.70 C 122.66 143.27 124.54 143.67 125.98 143.58 L 124.79 144.40 C 126.30 145.57 127.85 146.70 129.40 147.83 C 129.00 146.51 128.91 145.04 128.15 143.87 C 126.33 143.18 123.32 143.34 123.63 140.60 C 125.23 138.98 126.87 137.41 128.76 136.13 C 127.00 136.89 125.04 137.38 123.62 138.72 M 153.14 141.06 C 154.71 142.52 156.97 143.65 157.37 145.96 C 158.04 148.21 156.37 150.18 155.26 151.95 C 157.13 150.49 158.63 148.43 158.95 146.02 C 158.55 143.20 155.61 141.76 153.14 141.06 M 136.68 151.69 C 140.76 151.25 144.83 151.87 148.74 153.00 C 147.46 151.46 146.09 149.57 143.93 149.34 C 141.28 149.03 138.90 150.45 136.68 151.69 M 228.44 156.08 C 229.28 157.58 230.15 159.16 229.79 160.95 C 229.32 165.96 228.31 171.17 225.62 175.51 C 223.17 178.28 219.64 180.22 215.97 180.73 C 213.56 181.00 213.02 178.13 211.99 176.58 C 212.26 178.38 212.61 180.18 213.15 181.92 C 219.35 182.74 227.09 179.20 228.39 172.57 C 229.76 167.56 231.21 162.41 230.75 157.17 C 229.98 156.81 229.21 156.44 228.44 156.08 M 121.23 163.63 C 121.53 168.33 122.25 173.17 124.82 177.22 C 126.38 179.73 128.06 183.18 131.60 182.78 L 131.45 183.27 C 135.63 184.18 139.82 182.92 144.03 182.91 C 148.00 182.80 151.68 180.83 154.44 178.05 C 150.71 172.59 144.02 171.07 138.07 169.32 C 132.32 167.79 127.15 164.57 121.23 163.63 M 219.87 163.54 C 221.18 166.86 223.15 170.37 222.20 174.05 C 220.59 176.41 217.46 175.63 215.04 175.76 C 217.40 176.39 220.69 178.02 222.62 175.76 C 224.09 171.70 224.02 166.00 219.87 163.54 M 161.96 164.88 C 162.23 171.05 161.32 177.12 160.24 183.16 C 163.19 177.70 165.93 170.49 161.96 164.88 M 204.80 186.38 C 205.33 188.64 207.73 189.50 209.66 190.23 C 208.39 188.90 206.76 187.80 206.00 186.08 C 205.39 183.47 206.92 181.14 207.84 178.82 C 206.21 180.97 204.45 183.55 204.80 186.38 M 171.80 211.85 C 169.19 213.37 166.17 214.15 163.74 215.96 C 175.52 213.23 185.04 205.09 192.48 195.91 C 185.78 201.44 179.70 207.96 171.80 211.85 M 117.94 198.14 C 119.64 200.61 121.97 203.50 125.35 202.90 C 122.62 201.74 120.12 200.16 117.94 198.14 Z" />
<path fill="#000000" opacity="1.00" d=" M 126.12 93.40 C 128.93 90.02 131.93 85.26 136.89 85.44 C 141.69 87.49 145.22 91.77 147.53 96.34 C 148.70 98.61 148.69 101.21 147.93 103.60 C 144.71 99.07 141.47 93.87 136.00 91.85 C 132.67 90.51 129.16 92.00 126.12 93.40 Z" />
<path fill="#000000" opacity="1.00" d=" M 116.68 115.38 C 118.23 107.15 120.72 98.98 125.10 91.79 C 122.69 99.10 120.14 106.38 117.75 113.70 C 115.90 120.21 110.79 125.30 109.60 132.06 C 107.58 142.51 106.73 153.21 106.94 163.85 C 108.44 174.17 108.98 184.62 108.61 195.05 C 108.60 201.02 107.61 207.60 111.02 212.92 C 113.06 216.01 115.79 219.43 119.83 219.59 C 124.32 219.99 128.16 222.38 131.98 224.54 C 136.79 224.44 141.22 222.41 145.31 220.05 C 142.16 224.22 136.81 225.08 131.91 224.95 C 134.01 230.27 137.48 234.81 142.14 238.15 C 139.33 236.64 136.32 235.24 134.32 232.66 C 132.01 230.15 130.82 226.86 128.68 224.24 C 125.88 222.17 122.32 221.53 119.02 220.62 C 120.52 226.31 122.05 232.00 123.28 237.76 L 109.38 238.18 L 118.69 239.00 L 0.00 239.00 L 0.00 217.61 L 0.95 225.40 C 1.06 219.87 1.10 214.34 1.09 208.82 C 4.52 205.62 8.07 202.49 12.16 200.14 C 25.13 192.35 38.92 186.05 52.59 179.61 C 69.45 171.43 87.83 166.78 106.33 164.20 C 106.04 157.11 107.17 150.07 107.32 143.00 C 108.06 133.26 109.57 122.71 116.68 115.38 Z" />
<path fill="#000000" opacity="1.00" d=" M 122.66 110.86 C 124.94 106.45 129.17 102.14 134.53 102.60 C 139.68 103.06 143.21 108.17 143.10 113.10 C 140.62 115.54 137.72 118.33 133.94 118.00 C 129.36 117.35 125.70 114.12 122.66 110.86 M 123.84 110.73 C 125.24 111.92 126.63 113.12 128.02 114.33 C 126.30 111.13 129.10 108.63 131.89 107.81 C 133.71 108.99 136.04 110.43 135.84 112.96 C 135.37 114.94 133.19 115.72 131.80 116.93 C 135.83 117.76 139.38 115.51 142.04 112.74 C 142.00 108.03 138.12 103.10 133.08 103.66 C 128.88 104.01 125.97 107.44 123.84 110.73 Z" />
<path fill="#ffffff" opacity="1.00" d=" M 123.84 110.73 C 125.97 107.44 128.88 104.01 133.08 103.66 C 138.12 103.10 142.00 108.03 142.04 112.74 C 139.38 115.51 135.83 117.76 131.80 116.93 C 133.19 115.72 135.37 114.94 135.84 112.96 C 136.04 110.43 133.71 108.99 131.89 107.81 C 129.10 108.63 126.30 111.13 128.02 114.33 C 126.63 113.12 125.24 111.92 123.84 110.73 Z" />
<path fill="#000000" opacity="1.00" d=" M 165.97 108.86 C 170.41 106.47 175.13 104.47 180.12 103.59 C 184.06 102.69 187.57 105.33 190.82 107.16 C 195.60 109.86 198.89 115.00 199.07 120.52 C 197.47 118.01 196.13 115.15 193.62 113.40 C 185.47 108.28 175.32 106.84 165.97 108.86 Z" />
<path fill="#000000" opacity="1.00" d=" M 129.90 135.74 C 135.64 128.47 141.91 121.62 147.98 114.63 C 143.18 122.60 137.05 129.77 129.90 135.74 Z" />
<path fill="#000000" opacity="1.00" d=" M 164.01 123.99 C 166.54 119.88 171.48 116.50 176.48 116.64 C 183.19 118.01 186.43 124.90 189.56 130.28 C 185.92 133.55 180.41 133.26 175.86 132.71 C 171.30 131.00 166.61 128.12 164.01 123.99 M 164.85 124.00 C 167.26 126.24 169.75 128.46 172.62 130.12 C 177.34 133.03 183.48 132.42 188.34 130.19 C 185.63 125.65 182.95 120.45 177.95 118.10 C 172.74 116.40 168.32 120.73 164.85 124.00 Z" />
<path fill="#ffffff" opacity="1.00" d=" M 164.85 124.00 C 168.32 120.73 172.74 116.40 177.95 118.10 C 182.95 120.45 185.63 125.65 188.34 130.19 C 183.48 132.42 177.34 133.03 172.62 130.12 C 169.75 128.46 167.26 126.24 164.85 124.00 M 173.33 122.40 C 170.73 123.94 169.93 128.52 172.96 130.01 C 176.36 132.30 181.32 128.23 179.39 124.49 C 178.52 122.03 175.51 121.36 173.33 122.40 Z" />
<path fill="#000000" opacity="1.00" d=" M 151.93 140.92 C 150.12 133.87 151.17 126.12 154.92 119.89 C 152.63 126.68 151.85 133.77 151.93 140.92 Z" />
<path fill="#000000" opacity="1.00" d=" M 173.33 122.40 C 175.51 121.36 178.52 122.03 179.39 124.49 C 181.32 128.23 176.36 132.30 172.96 130.01 C 169.93 128.52 170.73 123.94 173.33 122.40 Z" />
<path fill="#000000" opacity="1.00" d=" M 123.62 138.72 C 125.04 137.38 127.00 136.89 128.76 136.13 C 126.87 137.41 125.23 138.98 123.63 140.60 C 123.32 143.34 126.33 143.18 128.15 143.87 C 128.91 145.04 129.00 146.51 129.40 147.83 C 127.85 146.70 126.30 145.57 124.79 144.40 L 125.98 143.58 C 124.54 143.67 122.66 143.27 121.70 144.70 C 117.11 149.13 115.07 155.30 113.24 161.24 C 112.63 154.63 115.17 147.64 120.91 143.96 C 123.33 143.21 123.13 140.72 123.62 138.72 Z" />
<path fill="#000000" opacity="1.00" d=" M 153.14 141.06 C 155.61 141.76 158.55 143.20 158.95 146.02 C 158.63 148.43 157.13 150.49 155.26 151.95 C 156.37 150.18 158.04 148.21 157.37 145.96 C 156.97 143.65 154.71 142.52 153.14 141.06 Z" />
<path fill="#000000" opacity="1.00" d=" M 136.68 151.69 C 138.90 150.45 141.28 149.03 143.93 149.34 C 146.09 149.57 147.46 151.46 148.74 153.00 C 144.83 151.87 140.76 151.25 136.68 151.69 Z" />
<path fill="#000000" opacity="1.00" d=" M 228.44 156.08 C 229.21 156.44 229.98 156.81 230.75 157.17 C 231.21 162.41 229.76 167.56 228.39 172.57 C 227.09 179.20 219.35 182.74 213.15 181.92 C 212.61 180.18 212.26 178.38 211.99 176.58 C 213.02 178.13 213.56 181.00 215.97 180.73 C 219.64 180.22 223.17 178.28 225.62 175.51 C 228.31 171.17 229.32 165.96 229.79 160.95 C 230.15 159.16 229.28 157.58 228.44 156.08 Z" />
<path fill="#000000" opacity="1.00" d=" M 121.23 163.63 C 127.15 164.57 132.32 167.79 138.07 169.32 C 144.02 171.07 150.71 172.59 154.44 178.05 C 151.68 180.83 148.00 182.80 144.03 182.91 C 139.82 182.92 135.63 184.18 131.45 183.27 L 131.60 182.78 C 133.44 183.04 135.30 183.12 137.16 183.23 C 137.35 182.83 137.74 182.04 137.93 181.64 C 134.77 181.42 131.09 181.36 129.16 178.40 C 128.54 178.99 127.93 179.58 127.32 180.18 C 128.24 181.73 130.02 182.20 131.60 182.78 C 128.06 183.18 126.38 179.73 124.82 177.22 C 122.25 173.17 121.53 168.33 121.23 163.63 M 127.40 171.74 C 133.53 174.77 140.21 176.88 147.03 177.52 C 148.84 177.43 151.40 177.26 151.40 174.88 C 142.22 171.72 133.07 168.49 123.95 165.18 C 121.77 167.91 125.05 170.64 127.40 171.74 Z" />
<path fill="#000000" opacity="1.00" d=" M 219.87 163.54 C 224.02 166.00 224.09 171.70 222.62 175.76 C 220.69 178.02 217.40 176.39 215.04 175.76 C 217.46 175.63 220.59 176.41 222.20 174.05 C 223.15 170.37 221.18 166.86 219.87 163.54 Z" />
<path fill="#ffffff" opacity="1.00" d=" M 127.40 171.74 C 125.05 170.64 121.77 167.91 123.95 165.18 C 133.07 168.49 142.22 171.72 151.40 174.88 C 151.40 177.26 148.84 177.43 147.03 177.52 C 140.21 176.88 133.53 174.77 127.40 171.74 Z" />
<path fill="#000000" opacity="1.00" d=" M 161.96 164.88 C 165.93 170.49 163.19 177.70 160.24 183.16 C 161.32 177.12 162.23 171.05 161.96 164.88 Z" />
<path fill="#ffffff" opacity="1.00" d=" M 127.32 180.18 C 127.93 179.58 128.54 178.99 129.16 178.40 C 131.09 181.36 134.77 181.42 137.93 181.64 C 137.74 182.04 137.35 182.83 137.16 183.23 C 135.30 183.12 133.44 183.04 131.60 182.78 C 130.02 182.20 128.24 181.73 127.32 180.18 Z" />
<path fill="#000000" opacity="1.00" d=" M 204.80 186.38 C 204.45 183.55 206.21 180.97 207.84 178.82 C 206.92 181.14 205.39 183.47 206.00 186.08 C 206.76 187.80 208.39 188.90 209.66 190.23 C 207.73 189.50 205.33 188.64 204.80 186.38 Z" />
<path fill="#000000" opacity="1.00" d=" M 171.80 211.85 C 179.70 207.96 185.78 201.44 192.48 195.91 C 185.04 205.09 175.52 213.23 163.74 215.96 C 166.17 214.15 169.19 213.37 171.80 211.85 Z" />
<path fill="#000000" opacity="1.00" d=" M 117.94 198.14 C 120.12 200.16 122.62 201.74 125.35 202.90 C 121.97 203.50 119.64 200.61 117.94 198.14 Z" />
</svg>
